<svg id="Layer_1" data-name="Layer 1" xmlns="http://www.w3.org/2000/svg" viewBox="0 0 37.6 38.07"><defs><style>.cls-1{fill:#02203d;}.cls-2{fill:#0168ff;fill-rule:evenodd;}</style></defs><circle class="cls-1" cx="18.7" cy="19.02" r="17.94"/><path class="cls-2" d="M23,.51a.55.55,0,0,0-.53.13c-12.63-4-27,11.17-21.08,23.68l0,.05c3.29,11.88,19,18.29,29.34,9.83C43.05,24.12,37.77,4.59,23,.51Zm1,1.58a24.22,24.22,0,0,1,5.85,4.37,25.68,25.68,0,0,0-11.32-5A19.57,19.57,0,0,1,23.94,2.09ZM30.26,32.4l-.12,0h0A21.42,21.42,0,0,1,23.43,31c-.21-.07-.43.23-.21.37a12.31,12.31,0,0,0,6.26,1.7c-.32.26-.65.51-1,.73l-.06,0c-1.82-.24-3.61-.36-5.42-.7a.28.28,0,0,0-.31.26.29.29,0,0,0,.16.29h0a10.39,10.39,0,0,0,4.7.78q-.69.43-1.38.78c-9.13.09-17-3.28-21.82-11.32-.15-.24-.57,0-.42.25H4c4.1,7.14,12.11,12.29,20.47,11.83a13.85,13.85,0,0,1-3.07.7.27.27,0,0,0-.2-.2c-4.24-1-7.89-2.07-11.54-4.57a.2.2,0,1,0-.25.32,23.62,23.62,0,0,0,9.34,4.48c-4.17-.38-8-2.7-11-6a.19.19,0,0,0,.14-.33h0a18.86,18.86,0,0,1-3-3.46,28,28,0,0,1-2.89-6.12q-.06-1-.06-2c.29,1,.61,2,1,3,.09.21.46.13.4-.12a37.79,37.79,0,0,0-1.16-3.75.19.19,0,0,0-.2-.13,18.63,18.63,0,0,1,.35-2.8c.38,5.15,5.33,6.88,8.63,9.92.18.18.42-.13.24-.3h0c-1.46-1.4-3.26-2.3-4.81-3.57-2.1-1.73-2.87-3.78-3.55-6.31a.28.28,0,0,0-.3-.23.33.33,0,0,0-.1.06A14.94,14.94,0,0,1,3.38,11.5a9.93,9.93,0,0,0,2.29,4.29c2.22,2.18,5.77,2.57,8.68,1.95a.23.23,0,0,0,.18-.26.23.23,0,0,0-.24-.18c-2.2.09-4.48.21-6.51-.82a6.18,6.18,0,0,1-2.82-3,9.65,9.65,0,0,1-1-3.08A17.19,17.19,0,0,1,5.49,8.23a19.73,19.73,0,0,1,5.44-4.71.16.16,0,0,0,.15.09c4.93.07,9.17.51,13.69,2.66.28.13.44-.28.19-.42h0A22.47,22.47,0,0,0,11.75,3.07a15.92,15.92,0,0,1,3.6-1.28A28.33,28.33,0,0,1,32.43,9.63a22.46,22.46,0,0,1,2.19,4A11.9,11.9,0,0,0,32.73,12a.21.21,0,0,0-.29.08.21.21,0,0,0,0,.24h0a10.13,10.13,0,0,1,3.15,4.44c.09.4.16.81.23,1.22a63,63,0,0,0-7.63-6.17c-.22-.16-.47.17-.26.33h0c2.85,2.16,5.29,4.74,8,7,0,.32.05.64.06,1a11.67,11.67,0,0,1-2.19-1.57c-.24-.23-.64.17-.41.41A6.71,6.71,0,0,0,36,20.83a15.67,15.67,0,0,1-.14,1.67c-4.33-1.22-7.78-2.84-10.81-6.33a.24.24,0,0,0-.38.29c2.55,3.45,6.72,6.28,11.1,6.6a14.7,14.7,0,0,1-.42,1.74h-.06c-5.54.85-8.33-4.41-12.82-6.38-.23-.1-.45.25-.23.39,3.81,2.61,7.78,7.77,12.93,6.53a15.3,15.3,0,0,1-1.08,2.43,12.61,12.61,0,0,1-5.79-2.16.22.22,0,0,0-.31,0,.21.21,0,0,0,0,.31,8.9,8.9,0,0,0,5.71,2.38,17,17,0,0,1-1.31,1.82c-7.26-.41-8-10.63-15.28-11.47a.25.25,0,0,0-.06.5h0c6.54.83,8.25,11.6,14.71,11.7-.11.13-.25.26-.37.39-6.64-.88-9.21-4.37-14.45-7.62C11.44,20.2,5.25,21.52,3.22,13.31c-.06-.25-.46-.2-.4.06h0c1.05,4.63,3.53,7.14,7.83,9,3,1.29,6,2.2,8.7,4.25,1.07.8,1.88,1.72,3,2.47A16.89,16.89,0,0,0,31,31.77C30.73,32,30.5,32.19,30.26,32.4Z"/><path class="cls-2" d="M19.18,16.41a.25.25,0,0,0-.21-.27h0C13.46,15.2,8.54,14,5.52,9c-.14-.24-.49,0-.4.24,2,5.49,8.71,6.73,13.79,7.42A.24.24,0,0,0,19.18,16.41Z"/><path class="cls-2" d="M20.68,33.22A24.66,24.66,0,0,1,9.61,27.64c-.19-.18-.51.13-.33.32h0c2.9,3.12,7,5.55,11.33,5.8a.27.27,0,0,0,.3-.23A.28.28,0,0,0,20.68,33.22Z"/><path class="cls-2" d="M30.51,10c.24.24.65-.16.42-.4h0A10.33,10.33,0,0,0,27.43,7c-.25-.11-.49.26-.25.43A27.91,27.91,0,0,1,30.51,10Z"/><path class="cls-2" d="M23.14,8.69a.27.27,0,0,0,.34-.16.28.28,0,0,0-.13-.33,31.74,31.74,0,0,0-3.11-1.35A.22.22,0,0,0,20,7a.22.22,0,0,0,.11.29A31.83,31.83,0,0,0,23.14,8.69Z"/><path class="cls-2" d="M9.8,5.61a26.25,26.25,0,0,1,8,1.15c.33.11.55-.37.21-.49h0A17.55,17.55,0,0,0,9.79,5.16C9.55,5.2,9.53,5.61,9.8,5.61Z"/><path class="cls-2" d="M16.73,9.42A.2.2,0,0,0,17,9.24.21.21,0,0,0,16.78,9,42.51,42.51,0,0,1,8.93,6.55a.28.28,0,0,0-.36.15.28.28,0,0,0,.15.36A28,28,0,0,0,16.73,9.42Z"/><path class="cls-2" d="M11,9.57a.24.24,0,0,0-.31.14.24.24,0,0,0,.13.31,18.57,18.57,0,0,0,1.73.72.25.25,0,0,0,.32-.14.26.26,0,0,0-.12-.31h0C12.15,10,11.6,9.77,11,9.57Z"/><path class="cls-2" d="M31.94,23.86h0a25.65,25.65,0,0,0,3,.59c.27,0,.42-.4.13-.48A24.18,24.18,0,0,0,32,23.29C31.65,23.23,31.59,23.77,31.94,23.86Z"/><path class="cls-2" d="M14.84,27.44a.27.27,0,0,0,.38-.05.26.26,0,0,0-.05-.37h0a7.9,7.9,0,0,0-1.37-1.14c-.23-.14-.59.13-.37.36A7.35,7.35,0,0,0,14.84,27.44Z"/><path class="cls-2" d="M9.61,19.84a.28.28,0,0,0,.15.36,68.85,68.85,0,0,1,16.09,8.88c.25.19.51-.17.29-.38h0c-.6-.57-1.23-1.13-1.88-1.67a.2.2,0,0,0-.06-.19h0c-2.14-2.05-3.57-5-6.31-6.41C14.05,18.51,9.5,20.54,6.24,17a.32.32,0,0,0-.51.39A6.23,6.23,0,0,0,9.61,19.84ZM20,23.13c.73.74,1.39,1.49,2.06,2.22A35.5,35.5,0,0,0,12,20.19l.76.07C15.56,20.47,18,21.06,20,23.13Z"/><path class="cls-2" d="M21.31,30.92a23.73,23.73,0,0,1-5-1.76c-.24-.13-.48.26-.25.42a10.37,10.37,0,0,0,5.15,1.85C21.45,31.43,21.63,31,21.31,30.92Z"/><path class="cls-2" d="M11.61,27.65c.42.35.82.68,1.26,1,.23.17.47-.16.27-.35-.39-.37-.8-.71-1.22-1-.25-.21-.55.18-.31.4Z"/><path class="cls-2" d="M9.43,26.19a47.2,47.2,0,0,1-3.94-4.06.3.3,0,0,0-.41-.05.28.28,0,0,0,0,.4H5a13.92,13.92,0,0,0,4.17,4.13C9.44,26.76,9.61,26.37,9.43,26.19Z"/></svg>