<svg id="Layer_1" data-name="Layer 1" xmlns="http://www.w3.org/2000/svg" viewBox="0 0 66.2 73.41"><defs><style>.cls-1{fill:#02203d;}.cls-2{fill:#0168ff;fill-rule:evenodd;}</style></defs><circle class="cls-1" cx="34.11" cy="38.04" r="29.45"/><path class="cls-2" d="M63.63,38.6s0-.05,0-.08A29.39,29.39,0,0,0,53.06,15.37L53,15.31a.18.18,0,0,0-.1-.06A30.69,30.69,0,0,0,32.16,7.84C15.44,8.41,2.18,23.41,4.28,40a.42.42,0,0,0-.1.33h0C6.12,57,19.72,70.19,37.1,68.75,53.07,67.43,63.92,53.92,63.63,38.6Zm-2.85-7.67c0-.28-.07-.55-.11-.82.07.22.15.43.22.65A.19.19,0,0,0,60.78,30.93ZM59.47,52.12c1.7-5.4,3.2-11.63,2.55-17.39.26,1.09.49,2.2.68,3.33A30.24,30.24,0,0,1,59.47,52.12ZM35.65,67.31c4.26-1.92,7.19-6.31,8.93-10.58,2.7-6.62.66-13.26-1.9-19.58-.12-.3-.56-.11-.46.19,1.64,4.71,3.77,9.77,3,14.87-1,6-5.12,13.21-11.27,15.14a29,29,0,0,1-4.51-.44,3.28,3.28,0,0,0,.82-.8.22.22,0,0,0-.06-.32.23.23,0,0,0-.31,0,3.87,3.87,0,0,1-1.16.93c-.47-.1-.92-.21-1.37-.33A22.91,22.91,0,0,0,36,52.61c0-.23-.36-.35-.42-.11a25.83,25.83,0,0,1-8.87,13.77c-.39-.11-.78-.24-1.17-.37a22.32,22.32,0,0,0,7-8.21c.11-.22-.24-.44-.37-.22A29.51,29.51,0,0,1,25,65.7l-.73-.28C31.67,59.48,35,50,33.9,40.41c0-.28-.45-.22-.44.06A38.85,38.85,0,0,1,31.38,55.4c-1.49,4.42-4.2,7.05-7.68,9.78A30.22,30.22,0,0,1,11.35,55.13c3.13.35,4.89-.4,7-2.91a22.36,22.36,0,0,0,5-9.25c.07-.28-.4-.41-.48-.14a22.13,22.13,0,0,1-3.53,7.09C17.13,52.94,15,55,11,54.61c-.51-.73-1-1.48-1.46-2.25,3.87,1.83,7.87.22,10.2-3.72,3.63-6.12,3.86-14.25,2.71-21a.22.22,0,1,0-.44.06C23,34.28,21.54,59.46,8.74,51l-.45-.9a4.07,4.07,0,0,0,3.92,1c.22-.06.11-.4-.11-.38A4,4,0,0,1,8.16,49.2a.24.24,0,0,0-.31-.06,35.65,35.65,0,0,1-2.49-7.45.51.51,0,0,0,.1-.3h0a34.36,34.36,0,0,1,6.39-21.25.27.27,0,0,0,.33-.39h0a0,0,0,0,1,0,0l.05-.07a13.16,13.16,0,0,1,2.44-.23,6.23,6.23,0,0,1,1.7.42,6.49,6.49,0,0,1,2.82,2.44.21.21,0,0,0,.18.08.14.14,0,0,0,0,.2h0a9.44,9.44,0,0,1,1.73,2.76.19.19,0,0,0,.26.09.2.2,0,0,0,.1-.24,7.72,7.72,0,0,0-1.78-2.84.19.19,0,0,0-.15-.06.23.23,0,0,0,0-.21,5.9,5.9,0,0,0-4-3.14,7.22,7.22,0,0,0-2.61-.13c.33-.38.66-.76,1-1.13,3.75.27,7.23,1,8.64,5.09a31.87,31.87,0,0,1,1.31,10.9c0,.28.42.35.44.06h0c.18-4,.18-9.13-1.79-12.81-1.6-3-4.87-3.71-8-3.88A25.34,25.34,0,0,1,29.85,9.59c6.53,2.29,8.07,8.84,8.29,15.26.14,3.71.45,7.1,3.15,9.83.19.19.53-.14.34-.34-4.65-5.12-1.87-12.05-4.15-18A12.32,12.32,0,0,0,31.3,9.47c.52,0,1.05,0,1.58,0,0,0,0,.06.06.09h0c5.65,3.78,5.73,10.1,6.35,16.18.44,4.22,2.15,7.08,4.63,10.46.14.19.48,0,.36-.21-1.36-2.45-3.14-4.54-3.85-7.31A50.61,50.61,0,0,1,39.55,21a20.48,20.48,0,0,0,2.7,3.9c2.56,3.32,2.76,6.65,2.26,10.66a.19.19,0,0,0,.18.21.2.2,0,0,0,.21-.15c.58-2.88.67-6.05-.68-8.74s-4-4.6-4.88-7.7c0,0,0,0-.06-.07-.68-3.85-2.41-7.4-5.68-9.64.53,0,1.07,0,1.62.07,3.69,2.86,3.22,6.71,4.9,10.54,1.51,3.43,4.25,5.22,5.36,8.92,1,3.31.28,6,.86,9.25.72,4,2.94,7.08,1.87,11.45-.06.26.35.31.42,0h0c.88-3.41-.08-5.72-1-9-1.23-4.31.48-8.84-1.1-12.93-.58-1.5-1.68-2.44-2.67-3.68a22.25,22.25,0,0,1-4.48-8.62c-.76-2.48-1.48-4.35-3.22-5.9l.6.05,1,.15a13,13,0,0,1,1.69,2.47.24.24,0,0,0,.33.12.25.25,0,0,0,.13-.31A5,5,0,0,0,38.68,10a26.69,26.69,0,0,1,15.89,9.14,39.08,39.08,0,0,1,4.26,13.77.23.23,0,0,0,.26.18.22.22,0,0,0,.17-.24A32.75,32.75,0,0,0,57,22.35a34.15,34.15,0,0,1,1.88,3.36A53.1,53.1,0,0,1,60.29,42.4a.23.23,0,0,0,.22.25.24.24,0,0,0,.25-.18h0a46.68,46.68,0,0,0,.05-11.21c1.5,7.31-.06,14.51-2.1,21.58a.26.26,0,0,0,.2.33,28.76,28.76,0,0,1-2,3,35.68,35.68,0,0,0,2.5-8.72.2.2,0,0,0-.4-.05,40.21,40.21,0,0,1-3.11,9.93s0,.08,0,.11c-.41.49-.83,1-1.27,1.41a45.09,45.09,0,0,0,5-23.36c0-.29-.43-.21-.43,0a50.31,50.31,0,0,1-5.58,24.29,28,28,0,0,1-16.79,7.39C36.47,67.27,36.06,67.29,35.65,67.31Z"/><path class="cls-2" d="M48.35,51.7a.19.19,0,0,0-.22.17c-.8,6.15-3.88,10.79-8.72,14.54a.24.24,0,1,0,.3.38h0c4.87-3.7,8.26-8.66,8.81-14.86A.2.2,0,0,0,48.35,51.7Z"/><path class="cls-2" d="M47.22,51.12a44,44,0,0,0-2.13-12.26c-.09-.31-.55-.11-.46.19a57.33,57.33,0,0,1,2.19,12.12C46.84,51.43,47.22,51.37,47.22,51.12Z"/><path class="cls-2" d="M40.63,24.37h0c1.28,2.8,3.87,5,3,8.33,0,.23.31.31.39.11,1.46-3.14-1.66-6.07-3-8.61C40.91,24,40.51,24.1,40.63,24.37Z"/><path class="cls-2" d="M40.91,26.66c-.08-.29-.5-.11-.42.17h0a13.31,13.31,0,0,0,2.62,5.08c.2.24.58-.05.39-.29A13.64,13.64,0,0,1,40.91,26.66Z"/><path class="cls-2" d="M40.79,64.36h0a18.76,18.76,0,0,0,6.12-11.11c.06-.36-.49-.43-.56-.08a18.76,18.76,0,0,1-5.78,10.9C40.4,64.23,40.62,64.52,40.79,64.36Z"/><path class="cls-2" d="M49.9,43.39c-.09-.37-.68-.3-.59.08a20.87,20.87,0,0,1-4.84,19.46c-.18.2.15.44.33.25h0A20.65,20.65,0,0,0,49.9,43.39Z"/><path class="cls-2" d="M48.81,26.61C47.4,22.42,43,20.53,41.33,16.48a.25.25,0,0,0-.46.19c1.48,4.54,6.53,6.39,7.63,11.19,1,4.31-1.59,8.71-.13,12.8.11.33.58.12.49-.2C47.5,36,50.39,31.27,48.81,26.61Z"/><path class="cls-2" d="M41.07,15.74h0c-.16-.45-.33-.9-.5-1.34a.2.2,0,0,0-.37.15c.15.45.31.91.47,1.35C40.77,16.16,41.16,16,41.07,15.74Z"/><path class="cls-2" d="M23.73,41.21h0a33.71,33.71,0,0,0,.62-5.39.2.2,0,0,0-.19-.24.21.21,0,0,0-.24.18,33.57,33.57,0,0,0-.7,5.38.26.26,0,0,0,.51.07Z"/><path class="cls-2" d="M19.19,19.47a.24.24,0,0,0-.3.38h0a12.07,12.07,0,0,1,3.4,5.2c.12.31.63.18.55-.15A9.67,9.67,0,0,0,19.19,19.47Z"/><path class="cls-2" d="M17.34,24.69c-3.42-2.42-6.18-.63-8,2.49A20.11,20.11,0,0,0,6.89,42.36c.66,3,1.47,7.32,5.47,6.7,4.4-.67,6.07-7.35,6.48-10.88C19.22,35,19.32,29,16.13,27c-3-1.92-5,1.05-6.08,3.55a.24.24,0,0,0,.13.31.25.25,0,0,0,.32-.12q1.27-4.09,7.05-.59a17.37,17.37,0,0,1,.79,4.11c.19,2.65,0,6.76-1.47,9.07a4.11,4.11,0,0,1-3.6,3.18,14.94,14.94,0,0,1-3.42-1.89A7.6,7.6,0,0,1,7,39.74a21,21,0,0,1,0-5.19c.33-2.28,1.5-6.69,3.45-8.13,8.23-6.1,9.69,3.87,9.81,7.64C20.43,40,19,47.22,13.73,50.65c-.25.16,0,.5.27.35h0C20.72,46.89,24.76,29.93,17.34,24.69Z"/><path class="cls-2" d="M12.06,44.18c-.31,0-.26.44,0,.51h0c4.39,1.06,5.74-5.74,5.59-8.71-.12-2.35-1.8-7.91-5.23-5.28a.32.32,0,0,0,0,.45.31.31,0,0,0,.36.1c3.83-1.82,4,4.61,3.81,6.6C16.34,40.52,15.3,44,12.06,44.18Z"/><path class="cls-2" d="M8.67,33.7h0C7.92,36.8,7.55,41.79,10.45,44a.24.24,0,0,0,.34,0,.23.23,0,0,0,0-.29c-2.32-3-2.4-6.28-1.74-9.89C9.1,33.51,8.73,33.47,8.67,33.7Z"/><path class="cls-2" d="M10,39.76h0c0,1.43.61,3.47,2.47,3.22s2.82-3,3.16-4.48c.44-1.83.6-4.9-1.08-6.21s-3,.44-3.48,1.89a.25.25,0,0,0,.46.19c.35-1.15,1.33-1.58,3-1.27a4.24,4.24,0,0,1,.71,2.06A8.68,8.68,0,0,1,15,38.37a7,7,0,0,1-1.27,3c-.59,1-1.6,1-3-.1a5.19,5.19,0,0,1-.24-1.46C10.49,39.49,10,39.48,10,39.76Z"/><path class="cls-2" d="M10.9,36.43c.06-.25-.35-.36-.43-.12s-.17.42-.24.63a.26.26,0,0,0,.15.33.27.27,0,0,0,.34-.15s0,0,0,0h0C10.78,36.86,10.85,36.65,10.9,36.43Z"/><path class="cls-2" d="M13,40h0a6.27,6.27,0,0,0,.9-4.51.23.23,0,0,0-.46.07,7.46,7.46,0,0,1-.81,4.22C12.49,40,12.85,40.23,13,40Z"/><path class="cls-2" d="M25.18,42.86c.05-.22-.33-.33-.39-.11C23,48.94,19.72,54.22,13.68,56.93a.3.3,0,0,0-.13.39.29.29,0,0,0,.35.14h0C20.14,55.45,23.78,48.87,25.18,42.86Z"/><path class="cls-2" d="M25.75,36.87c0-.25-.39-.19-.39.06A20.85,20.85,0,0,1,25,41.46c-.05.27.36.32.42.06h0A16.9,16.9,0,0,0,25.75,36.87Z"/><path class="cls-2" d="M19.55,55.72c-.55.5-.59.55-1.11,1.09-.22.23.17.52.39.3a13.15,13.15,0,0,0,1-1.09C20,55.84,19.73,55.55,19.55,55.72Z"/><polygon class="cls-2" points="18.36 16.48 18.36 16.48 18.36 16.48 18.36 16.48"/><path class="cls-2" d="M25.16,24.31c-.27-3.8-2.76-7.7-6.75-8.22a.2.2,0,1,0-.05.39h0c4.17.8,5.2,4.46,6.31,8C24.77,24.73,25.18,24.58,25.16,24.31Z"/><path class="cls-2" d="M19.66,14.72a4.15,4.15,0,0,0,1.34.4c.26.06.36-.34.12-.45a4.25,4.25,0,0,0-1.33-.44c-.29-.07-.4.38-.13.49Z"/><path class="cls-2" d="M21.83,15.37c-.2-.11-.4.23-.21.37h0A10.42,10.42,0,0,1,26.07,23a.23.23,0,0,0,.27.18.22.22,0,0,0,.19-.24A9,9,0,0,0,21.83,15.37Z"/><path class="cls-2" d="M21.42,14.32a11.78,11.78,0,0,1,4.68,4,.22.22,0,0,0,.32,0,.21.21,0,0,0,.06-.25,8.4,8.4,0,0,0-4.85-4.3.27.27,0,0,0-.35.14.26.26,0,0,0,.14.35Z"/><path class="cls-2" d="M24.36,14.12h0l.43.09c.25.06.35-.33.12-.42l-.4-.18a.27.27,0,0,0-.15.51Z"/><path class="cls-2" d="M30.26,23.84a14,14,0,0,0-4.32-9.3c-.18-.18-.5.12-.32.31h0a17.5,17.5,0,0,1,4.18,9,.22.22,0,0,0,.27.19A.23.23,0,0,0,30.26,23.84Z"/><path class="cls-2" d="M30.24,19.87a.23.23,0,0,0,.43-.12,11.83,11.83,0,0,0-4.81-7.29.21.21,0,0,0-.3,0,.22.22,0,0,0,0,.3A14.43,14.43,0,0,1,30.24,19.87Z"/><path class="cls-2" d="M27.61,12.23a22.76,22.76,0,0,1,3.09,4.09c.13.21.48,0,.37-.21a15.52,15.52,0,0,0-3.16-4.17c-.18-.17-.47.12-.3.29Z"/><path class="cls-2" d="M29.2,10.76c-.24-.16-.52.19-.28.36h0a10.86,10.86,0,0,1,4.31,6.8.22.22,0,0,0,.24.18.23.23,0,0,0,.18-.24A9.92,9.92,0,0,0,29.2,10.76Z"/><path class="cls-2" d="M37.24,27.14c-1.61-5.2-.53-11.94-5.29-15.65a.24.24,0,0,0-.33.06.23.23,0,0,0,0,.32c4.78,3.76,3.2,10.35,5.18,15.44C36.94,27.57,37.32,27.4,37.24,27.14Z"/><path class="cls-2" d="M34.88,47.68a28.62,28.62,0,0,1-2.09,8.14.23.23,0,0,0,.14.29A.22.22,0,0,0,33.2,56h0a21.39,21.39,0,0,0,2.08-8.27A.2.2,0,0,0,34.88,47.68Z"/><path class="cls-2" d="M31.27,64.78c.64-.73,1.28-1.46,1.89-2.21.17-.2-.16-.44-.32-.24-.63.72-1.25,1.47-1.87,2.21C30.81,64.73,31.11,65,31.27,64.78Z"/><path class="cls-2" d="M34.06,61.42h0a39.16,39.16,0,0,0,3.34-8.35A.2.2,0,0,0,37,53a57.24,57.24,0,0,1-3.32,8.3C33.58,61.5,33.94,61.65,34.06,61.42Z"/><path class="cls-2" d="M37.43,55.9A26.06,26.06,0,0,1,31,66.7c-.19.18.13.51.32.32h0a23.17,23.17,0,0,0,6.45-11C37.86,55.79,37.5,55.69,37.43,55.9Z"/><path class="cls-2" d="M31,50.4a27.36,27.36,0,0,1-4.39,10.43c-.17.25.2.53.37.29h0a24.24,24.24,0,0,0,4.41-10.66C31.41,50.2,31,50.16,31,50.4Z"/><path class="cls-2" d="M18.58,58.26c-.59.49-1.14,1-1.7,1.53-.23.22.06.61.3.39h0c.58-.53,1.14-1.07,1.69-1.63C19,58.38,18.76,58.11,18.58,58.26Z"/><path class="cls-2" d="M17.34,57.74a.25.25,0,0,0-.32,0,6.48,6.48,0,0,0-.93.61c-.29.21,0,.64.33.44h0a8.26,8.26,0,0,0,.88-.68A.24.24,0,0,0,17.34,57.74Z"/><path class="cls-2" d="M18.44,60.07c-.23.15-.44.31-.65.47a.25.25,0,0,0,0,.35.25.25,0,0,0,.33,0c.21-.16.42-.33.62-.51a.22.22,0,0,0,0-.31A.22.22,0,0,0,18.44,60.07Z"/><path class="cls-2" d="M19.67,59.55h0a7.77,7.77,0,0,0,2.19-2.48c.11-.2-.21-.38-.34-.2a10.17,10.17,0,0,1-2.12,2.32.23.23,0,0,0,0,.32A.22.22,0,0,0,19.67,59.55Z"/><path class="cls-2" d="M21.56,59.55c.13-.22-.22-.41-.37-.22a10.84,10.84,0,0,1-2.05,2.12c-.24.19.05.55.3.38A6.52,6.52,0,0,0,21.56,59.55Z"/><path class="cls-2" d="M22,60.77a20.89,20.89,0,0,0-1.58,1.81c-.21.25.18.54.39.3a22.38,22.38,0,0,0,1.55-1.83C22.49,60.81,22.16,60.57,22,60.77Z"/><path class="cls-2" d="M22.17,63.07l-.56.28a.25.25,0,1,0,.22.46l0,0,.53-.33C22.62,63.33,22.4,63,22.17,63.07Z"/><path class="cls-2" d="M26,58.28c-1.12,1.33-2.15,2.74-3.19,4.13a.24.24,0,0,0,.05.33.25.25,0,0,0,.32,0h0c1.08-1.37,2.17-2.73,3.17-4.16a.21.21,0,0,0,0-.3A.22.22,0,0,0,26,58.28Z"/><path class="cls-2" d="M24.65,62.29c-.5.54-1,1.09-1.45,1.65-.21.24.17.53.38.3.48-.56,1-1.1,1.43-1.67C25.19,62.34,24.85,62.08,24.65,62.29Z"/><path class="cls-2" d="M44.88,20a.21.21,0,0,0,0-.25A16,16,0,0,1,42.2,13.8c-.06-.28-.49-.23-.44.06A12.64,12.64,0,0,0,44.58,20,.21.21,0,0,0,44.88,20Z"/><path class="cls-2" d="M57.23,45.18h0a4,4,0,0,0-.06,1.2c0,.29.4.24.46,0a3.55,3.55,0,0,0,.18-1.12.29.29,0,1,0-.58-.08Z"/><path class="cls-2" d="M57.21,48.38c.08-.31-.41-.37-.49-.07h0a69.49,69.49,0,0,1-4.67,12c-.11.24.27.47.41.24A45.22,45.22,0,0,0,57.21,48.38Z"/><path class="cls-2" d="M49.09,17.49a.24.24,0,0,0-.05.32,9.76,9.76,0,0,1,1.47,3.11c.07.24.43.12.41-.11a5.42,5.42,0,0,0-1.5-3.29A.24.24,0,0,0,49.09,17.49Z"/><path class="cls-2" d="M50.11,17.06a4,4,0,0,0,.28.75.23.23,0,0,0,.3.11.22.22,0,0,0,.13-.23,6.17,6.17,0,0,0-.2-.85c-.1-.33-.62-.12-.51.22Z"/><path class="cls-2" d="M53.71,25.71a.2.2,0,0,0,.17-.22,18.66,18.66,0,0,0-2.31-6.67c-.11-.21-.45-.07-.35.14a32.07,32.07,0,0,1,2.26,6.59A.2.2,0,0,0,53.71,25.71Z"/><path class="cls-2" d="M56.12,30.71a.22.22,0,0,0,.18-.24,41,41,0,0,0-3.22-11.89.23.23,0,0,0-.42.18,96.05,96.05,0,0,1,3.19,11.77A.23.23,0,0,0,56.12,30.71Z"/><path class="cls-2" d="M56.53,25.18a.22.22,0,0,0,.12-.28A19.43,19.43,0,0,0,55.94,23a.24.24,0,0,0-.44.18,15.92,15.92,0,0,0,.75,1.92A.21.21,0,0,0,56.53,25.18Z"/><path class="cls-2" d="M56.5,26.48h0c.21,1,.39,2.07.68,3.09.06.24.45.13.42-.12-.16-1-.42-2-.65-3C56.89,26.15,56.44,26.2,56.5,26.48Z"/><path class="cls-2" d="M50.14,35.6a.21.21,0,0,0-.18-.23.2.2,0,0,0-.24.18h0a17.55,17.55,0,0,0,.57,7.52c.07.24.48.13.43-.12A26.29,26.29,0,0,1,50.14,35.6Z"/><path class="cls-2" d="M51.43,38.17a.22.22,0,0,0-.19.25c0,.33.09.66.16,1a.22.22,0,0,0,.25.16.2.2,0,0,0,.16-.21c0-.33-.08-.66-.13-1A.23.23,0,0,0,51.43,38.17Z"/><polygon class="cls-2" points="51.23 38.42 51.24 38.42 51.23 38.42 51.23 38.42"/><path class="cls-2" d="M56.36,40.86a.22.22,0,0,0,.22-.12A11.56,11.56,0,0,0,57,35.11a.24.24,0,0,0-.28-.2.25.25,0,0,0-.2.26h0a16.65,16.65,0,0,1-.31,5.45A.21.21,0,0,0,56.36,40.86Z"/><path class="cls-2" d="M54.67,34.4c.13.23.52.09.39-.16s-.17-.38-.26-.57-.59-.08-.43.18h0C54.46,34,54.57,34.22,54.67,34.4Z"/><path class="cls-2" d="M55.16,41.35c0-.64,0-1.28-.08-1.91,0-.28-.44-.22-.42.06h0c0,.63.05,1.26.1,1.9C54.79,41.66,55.17,41.6,55.16,41.35Z"/><path class="cls-2" d="M27.38,40a.21.21,0,0,0,.2-.15,38.47,38.47,0,0,0,0-8.24.22.22,0,0,0-.43.06,52.54,52.54,0,0,1,0,8.13A.2.2,0,0,0,27.38,40Z"/><path class="cls-2" d="M28.89,35.77a3.71,3.71,0,0,0-.11-1,.29.29,0,0,0-.34-.23.29.29,0,0,0-.23.31h0a6.24,6.24,0,0,0,.23,1C28.51,36.18,28.9,36,28.89,35.77Z"/><path class="cls-2" d="M28.81,41.2a6.74,6.74,0,0,0,.13-2.1c0-.28-.47-.22-.44.06a6.06,6.06,0,0,1-.09,2C28.37,41.41,28.75,41.45,28.81,41.2Z"/><path class="cls-2" d="M29.68,37.81h0c-.05.61-.1,1.22-.14,1.83,0,.25.36.3.38,0,.06-.61.1-1.22.14-1.83C30.08,37.61,29.7,37.56,29.68,37.81Z"/><path class="cls-2" d="M40.26,44.52a17.72,17.72,0,0,1,.1,8.16.22.22,0,0,0,.2.25.23.23,0,0,0,.23-.13,13.06,13.06,0,0,0-.17-8.42C40.54,44.14,40.2,44.29,40.26,44.52Z"/><path class="cls-2" d="M41.61,47.3c0,.87.1,1.73.19,2.59,0,.26.39.19.39,0,0-.87,0-1.74-.09-2.61C42.08,46.91,41.6,47,41.61,47.3Z"/><path class="cls-2" d="M43,48.29c-.31-.1-.51.36-.21.46S43.27,48.39,43,48.29Z"/><path class="cls-2" d="M36.78,70.82a2.8,2.8,0,0,1-.23,2.26.24.24,0,0,0,.13.31.25.25,0,0,0,.28-.07,2.75,2.75,0,0,0,.31-2.7C37.15,70.29,36.68,70.5,36.78,70.82Z"/><path class="cls-2" d="M39.93,70.53a.36.36,0,0,0-.2-.35l-.2-.06a.31.31,0,0,0-.32,0l-.16.14a.32.32,0,0,0,0,.44.3.3,0,0,0,.17.1.33.33,0,0,1,.08-.24c.06.06.11.13.18.19h0a.34.34,0,0,1-.26,0c0,.15.1.28.28.24l.19-.06a.32.32,0,0,0,.27-.27C39.92,70.67,39.92,70.6,39.93,70.53Z"/><path class="cls-2" d="M40.36,72.27a.26.26,0,0,0-.4.32l0,0h0l.5.44c.19.18.5-.12.32-.31S40.5,72.43,40.36,72.27Z"/><path class="cls-2" d="M42.86,69.37c-.12-.25-.51-.08-.39.16h0l.39.74c.13.23.49.08.37-.15S43,69.61,42.86,69.37Z"/><path class="cls-2" d="M45.75,68.06a.26.26,0,0,0-.42.32h0a7.68,7.68,0,0,0,.69.82.22.22,0,0,0,.32,0,.22.22,0,0,0,0-.31A9,9,0,0,0,45.75,68.06Z"/><path class="cls-2" d="M31.82,70a.34.34,0,0,0-.38.1h0a1.61,1.61,0,0,0-.34,1.78.3.3,0,0,0,.39.15.3.3,0,0,0,.17-.22A2.92,2.92,0,0,1,32,70.41.33.33,0,0,0,31.82,70Z"/><path class="cls-2" d="M28.46,69.78h0a4.2,4.2,0,0,0,.1.93c.05.3.53.33.55,0a5,5,0,0,0,0-1C29.13,69.24,28.44,69.34,28.46,69.78Z"/><path class="cls-2" d="M15.69,64.09a10,10,0,0,0-1.63,1.69c-.24.31.2.79.5.51h0a9.71,9.71,0,0,0,1.54-1.78C16.28,64.25,16,63.87,15.69,64.09Z"/><path class="cls-2" d="M14.47,62.74c.21-.21-.13-.49-.35-.35a6.65,6.65,0,0,0-.88.62c-.32.25.07.76.39.5h0A8.6,8.6,0,0,0,14.47,62.74Z"/><path class="cls-2" d="M10.47,59A14.59,14.59,0,0,0,9,60.45c-.32.33.25.77.57.44h0a12.35,12.35,0,0,0,1.32-1.48C11,59.16,10.72,58.82,10.47,59Z"/><path class="cls-2" d="M7.65,57c-.08.19-.15.37-.23.55a.31.31,0,0,0,.19.41A.31.31,0,0,0,8,57.8a.14.14,0,0,0,0-.06c0-.19.09-.38.13-.57S7.76,56.74,7.65,57Z"/><path class="cls-2" d="M5.49,52.44a19.21,19.21,0,0,0-1.89.9c-.35.18-.13.73.23.56h0a19.65,19.65,0,0,0,1.93-1C6,52.73,5.77,52.33,5.49,52.44Z"/><path class="cls-2" d="M5.15,50.8c.25-.16,0-.57-.26-.46a8,8,0,0,0-1.15.53c-.36.19-.11.78.25.59H4A12.14,12.14,0,0,0,5.15,50.8Z"/><path class="cls-2" d="M3.45,48l-.39.15a.29.29,0,1,0,.29.51l.35-.23C3.94,48.3,3.71,47.92,3.45,48Z"/><path class="cls-2" d="M3.74,44.31a13.74,13.74,0,0,0-1.69.37c-.37.09-.31.69.08.61a15,15,0,0,0,1.75-.46C4.18,44.73,4,44.27,3.74,44.31Z"/><path class="cls-2" d="M1.89,43.25c.34-.11.67-.22,1-.35s.16-.58-.13-.51c-.45.1-.68.16-1.11.29s-.14.68.24.57Z"/><path class="cls-2" d="M3.5,28.65C2.44,28.37,1.36,28.18.28,28c-.33-.06-.39.46-.07.52,1.08.22,2.15.47,3.23.62C3.74,29.14,3.77,28.72,3.5,28.65Z"/><path class="cls-2" d="M1.2,31.33h0A13.45,13.45,0,0,0,3,31.54.26.26,0,0,0,3.06,31a15.52,15.52,0,0,0-1.79-.29A.29.29,0,0,0,1,31,.3.3,0,0,0,1.2,31.33Z"/><path class="cls-2" d="M2.74,26.41c.53,0,.75,0,1.29,0,.27,0,.26-.45,0-.47a8.35,8.35,0,0,0-1.22-.09C2.47,25.86,2.4,26.39,2.74,26.41Z"/><path class="cls-2" d="M4.12,23.8h0a16.09,16.09,0,0,0,1.8.52c.3.06.41-.4.14-.52a16.66,16.66,0,0,0-1.68-.58C4,23.1,3.73,23.67,4.12,23.8Z"/><path class="cls-2" d="M9.22,13.48c.75.56,1.5,1.14,2.28,1.66a.23.23,0,0,0,.33-.05.24.24,0,0,0,0-.33c-.73-.59-1.49-1.14-2.25-1.7a.26.26,0,0,0-.32.42Z"/><path class="cls-2" d="M14.06,13.18c.26.13.41-.27.17-.41-.52-.31-1.05-.59-1.59-.87-.28-.15-.47.31-.19.46C13,12.64,13.5,12.92,14.06,13.18Z"/><path class="cls-2" d="M14.52,10.8h0a12,12,0,0,0,1.33.71.25.25,0,0,0,.25-.43c-.44-.29-.89-.56-1.36-.81S14.21,10.61,14.52,10.8Z"/><path class="cls-2" d="M16.29,6.61c.16.47.32.93.52,1.39.11.3.53.11.44-.19a14.67,14.67,0,0,0-.46-1.42c-.11-.33-.61-.12-.5.22Z"/><path class="cls-2" d="M17.1,10.05h0a6.07,6.07,0,0,0,.7.82.23.23,0,0,0,.34,0,.24.24,0,0,0,0-.33,5.54,5.54,0,0,0-.65-.86.27.27,0,0,0-.38-.05A.28.28,0,0,0,17.1,10.05Z"/><path class="cls-2" d="M18.86,8.35c.13.25.27.5.41.74s.56.1.43-.18-.22-.51-.35-.76-.66-.09-.49.2Z"/><path class="cls-2" d="M34.29,1.15a.29.29,0,0,0,.4,0,.28.28,0,0,0,.08-.31V.39c.11-.44-.63-.55-.71-.09h0C34,.77,34,.81,34.29,1.15Z"/><path class="cls-2" d="M34.33,2.86h0a4.21,4.21,0,0,0,.06,2.67.24.24,0,0,0,.46-.13,5.08,5.08,0,0,1-.05-2.48C34.87,2.63,34.4,2.57,34.33,2.86Z"/><path class="cls-2" d="M36.17,5.3c.17-.47.32-.94.47-1.41.09-.29-.35-.47-.44-.19-.15.48-.3,1-.43,1.43C35.69,5.39,36.08,5.57,36.17,5.3Z"/><path class="cls-2" d="M31.21,5.76a.22.22,0,0,0,.18-.23c-.05-.44-.11-.88-.19-1.32A.22.22,0,0,0,30.93,4a.23.23,0,0,0-.19.25c.07.44.14.87.23,1.31A.21.21,0,0,0,31.21,5.76Z"/><path class="cls-2" d="M54.36,13.42h0c.86-.89,1.73-1.78,2.55-2.71.17-.19-.13-.49-.31-.31-.91.87-1.76,1.8-2.63,2.72C53.75,13.35,54.15,13.65,54.36,13.42Z"/><path class="cls-2" d="M56.74,13.87c-.42.39-.59.56-1,1-.23.24.18.56.41.32h0c.31-.31.61-.63.9-1C57.22,14,56.92,13.69,56.74,13.87Z"/><path class="cls-2" d="M57.06,17.34h0l.43-.51c.16-.19-.12-.49-.32-.32l-.49.44A.27.27,0,1,0,57.06,17.34Z"/><path class="cls-2" d="M59.12,15.51l0,0h0c.3-.32.59-.65.89-1,.16-.17-.12-.46-.29-.29l-1,.92a.25.25,0,1,0,.32.38Z"/><path class="cls-2" d="M58.78,18.46h0c.15-.15.29-.32.45-.48s-.12-.45-.29-.29l-.48.46a.21.21,0,0,0,0,.31A.22.22,0,0,0,58.78,18.46Z"/><path class="cls-2" d="M53.2,12.59h0a16.48,16.48,0,0,0,.92-1.89c.09-.26-.28-.51-.43-.26a18.49,18.49,0,0,0-1,1.93C52.55,12.7,53,12.89,53.2,12.59Z"/><path class="cls-2" d="M50.68,11.88h0l.74-.69c.26-.15,0-.55-.24-.43-.66.3-.52.18-1,.76C50,11.82,50.48,12.18,50.68,11.88Z"/><path class="cls-2" d="M61.74,25.79h0a32.17,32.17,0,0,0,3.43-1.16c.22-.09.13-.47-.11-.41a36,36,0,0,0-3.55,1C61.14,25.36,61.38,25.9,61.74,25.79Z"/><path class="cls-2" d="M61.38,24h0c.52-.35,1-.7,1.57-1.07.24-.18,0-.52-.29-.37-.54.33-1.06.68-1.6,1C60.78,23.82,61.1,24.23,61.38,24Z"/><path class="cls-2" d="M60.74,22h0l.74-.41c.24-.13.09-.52-.17-.4l-.76.36C60.27,21.72,60.48,22.18,60.74,22Z"/><path class="cls-2" d="M64.47,26.9c.3-.09.15-.56-.14-.52a4.54,4.54,0,0,0-1.31.25c-.35.09-.3.63.08.57h0A7,7,0,0,0,64.47,26.9Z"/><path class="cls-2" d="M63.41,29.08a.29.29,0,0,0,.35.46h0a2.18,2.18,0,0,1,1.52-.44c.3,0,.24-.42,0-.48A2,2,0,0,0,63.41,29.08Z"/><path class="cls-2" d="M64.35,31.69h0a1.3,1.3,0,0,0,1.43.08.25.25,0,0,0,.13-.33.26.26,0,0,0-.26-.15l-1.06-.15C64.23,31,64,31.5,64.35,31.69Z"/><path class="cls-2" d="M64.12,45.1h0a10.09,10.09,0,0,0,1.79.49.26.26,0,0,0,.29-.22.28.28,0,0,0-.15-.27,11.13,11.13,0,0,0-1.67-.61C64,44.38,63.71,45,64.12,45.1Z"/><path class="cls-2" d="M65.41,47.11c-.65-.25-1.31-.46-2-.67-.32-.1-.54.39-.21.5h0c.69.22,1.36.43,2.06.61C65.54,47.61,65.64,47.2,65.41,47.11Z"/><path class="cls-2" d="M62.39,49.75a.3.3,0,0,0-.38.18.3.3,0,0,0,.15.37h0a23.07,23.07,0,0,1,3.65,2.08c.2.13.51-.11.32-.31A9.12,9.12,0,0,0,62.39,49.75Z"/><path class="cls-2" d="M63.89,49c.27.06.38-.36.13-.46l-.56-.21a.27.27,0,0,0-.34.16.26.26,0,0,0,.16.34h0Z"/><path class="cls-2" d="M61.83,53.72a.28.28,0,0,0-.34.44h0c.5.37,1,.74,1.54,1.08a.24.24,0,0,0,.29-.38C62.85,54.45,62.35,54.09,61.83,53.72Z"/><path class="cls-2" d="M60.48,56.73c-.34-.11-.55.4-.22.5S60.82,56.83,60.48,56.73Z"/><path class="cls-2" d="M61.31,59.6c-.15-.3-.64-.09-.48.2h0c.27.51.54,1,.83,1.52.13.22.48,0,.38-.21C61.81,60.6,61.56,60.1,61.31,59.6Z"/><path class="cls-2" d="M58.9,60c-.25-.2-.57.21-.3.39h0l.78.52a.22.22,0,0,0,.27-.34Z"/><path class="cls-2" d="M54.8,63.61h0c.33.11.54-.38.21-.49S54.48,63.5,54.8,63.61Z"/><path class="cls-2" d="M51.32,65.47c-.15-.29-.63-.09-.47.2h0q.28.56.6,1.11c.14.25.55.1.42-.18S51.51,65.84,51.32,65.47Z"/><path class="cls-2" d="M48.27,67a.28.28,0,0,0-.13.36l0,0h0l.42.72c.13.22.49,0,.39-.22l-.35-.77A.28.28,0,0,0,48.27,67Z"/><path class="cls-2" d="M65.08,39.77c-.36,0-.27.64.08.56h0l.65-.15a.24.24,0,1,0-.07-.47Z"/><path class="cls-2" d="M65.25,37.74l.42-.52c.17-.22-.14-.54-.36-.35l-.51.42C64.46,37.59,65,38.09,65.25,37.74Z"/><path class="cls-2" d="M65.35,34.56c-.33-.11-.55.4-.21.51S65.69,34.67,65.35,34.56Z"/><path class="cls-2" d="M39.71,6.12h0c.17-.53.21-.68.34-1.21.06-.26-.35-.36-.44-.12a7.35,7.35,0,0,0-.4,1.11C39.1,6.24,39.6,6.45,39.71,6.12Z"/><path class="cls-2" d="M42.68,7.69c.13-.4.24-.81.33-1.22s-.38-.39-.48-.13a7.4,7.4,0,0,0-.41,1.11C42,7.82,42.56,8.07,42.68,7.69Z"/><path class="cls-2" d="M46.22,8.41h0a2.54,2.54,0,0,0,0-.29A.3.3,0,0,0,46,7.81a.28.28,0,0,0-.28.16c0,.09-.1.18-.14.27C45.35,8.66,46.16,8.93,46.22,8.41Z"/><path class="cls-2" d="M27.47,3.58l.15.65a.27.27,0,1,0,.54-.08c0-.22,0-.44,0-.66,0-.43-.75-.32-.65.09Z"/><path class="cls-2" d="M28.32,6.06c.1.32.2.64.29,1a.23.23,0,0,0,.25.19A.22.22,0,0,0,29,7a1.25,1.25,0,0,0-.28-1.22c-.14-.25-.58,0-.44.26Z"/><path class="cls-2" d="M25.89,6c.16.42.32.85.49,1.27a.22.22,0,0,0,.26.17.21.21,0,0,0,.17-.23,3.06,3.06,0,0,0-.51-1.52c-.17-.28-.59,0-.41.31Z"/><path class="cls-2" d="M23.2,7.14c-.29-.09-.47.35-.17.44S23.49,7.24,23.2,7.14Z"/><path class="cls-2" d="M7.18,18.41a6.28,6.28,0,0,0,.48.78c.15.24.51,0,.42-.24a4.09,4.09,0,0,0-.34-.77c-.17-.37-.75-.11-.56.23Z"/><path class="cls-2" d="M6.6,20.2h0l.57.12c.26.05.36-.35.13-.45l-.54-.24C6.37,19.46,6.16,20.11,6.6,20.2Z"/><path class="cls-2" d="M1.33,36.67c-.32-.11-.53.37-.2.48S1.65,36.77,1.33,36.67Z"/></svg>