<?xml version="1.0" encoding="utf-8"?>
<!-- Generator: Adobe Illustrator 25.2.3, SVG Export Plug-In . SVG Version: 6.00 Build 0)  -->
<svg version="1.1" id="Layer_1" xmlns="http://www.w3.org/2000/svg" xmlns:xlink="http://www.w3.org/1999/xlink" x="0px" y="0px"
	 viewBox="0 0 105 105" style="enable-background:new 0 0 105 105;" xml:space="preserve">
<style type="text/css">
	.st0{opacity:0.5;}
	.st1{fill:#D1D1D1;}
	.st2{fill:url(#Path_51135_1_);}
	.st3{fill:url(#Path_51136_1_);}
	.st4{fill:url(#Path_51137_1_);}
	.st5{fill:url(#Path_51138_2_);}
	.st6{fill:url(#Path_51138_3_);}
	.st7{fill:url(#Path_51140_1_);}
</style>
<g id="Group_40366" transform="translate(2837.616 582.918)" class="st0">
	<path id="Path_60557" class="st1" d="M-2809.8-510.2c0,0,0.6,0.3,1.6,0.7c0.6,0.2,1.3,0.4,2,0.5c0.4,0.1,0.8,0.1,1.3,0.1
		c0.4,0,1,0.1,1.1-0.2c0-0.2,0-0.4-0.1-0.6c-0.1-0.2-0.3-0.4-0.5-0.6c-0.3-0.3-0.4-0.6-0.4-1c-0.1-0.7,0.8-0.3,1-0.3
		c1.2,0.4,2.2,1.3,3.4,1.8c1.2,0.5,2.6,0.4,3.8-0.2c0.5-0.2,0.7-0.9,0.5-1.4c0,0,0-0.1-0.1-0.1c-0.3-0.6-0.8-1.2-1.4-1.5
		c-1.3-0.7-2.7-1.2-4.1-1.6l-4-1.2c-0.6-0.2-1.2-0.3-1.8-0.2c-0.5,0.1-0.9,0.5-0.9,1c0,0.5,0.4,1.1,0.3,1.7
		c-0.1,0.6-0.5,1.1-1.1,1.4c-0.9,0.3-1.9,0.4-2.8,0.3l-2.1-0.1c-0.6,0-1.2-0.1-1.8-0.2c0.6-0.1,1.2-0.1,1.8-0.1l2.1,0
		c0.9,0.1,1.8,0,2.6-0.3c0.4-0.2,0.7-0.6,0.8-1c0.1-0.4-0.2-0.9-0.3-1.6c0-0.8,0.6-1.4,1.3-1.6c0.7-0.1,1.4,0,2.1,0.2l4,1.2
		c1.5,0.3,2.9,0.9,4.3,1.6c0.7,0.4,1.3,1,1.7,1.8c0.2,0.4,0.2,0.9,0.1,1.3c-0.1,0.4-0.4,0.8-0.9,1c-1.3,0.7-2.9,0.8-4.3,0.2
		c-1.3-0.6-2.2-1.5-3.3-1.9c-0.4-0.2-0.3-0.1,0,0.4c0.3,0.4,0.9,0.9,0.7,1.6c-0.1,0.3-0.5,0.5-0.8,0.5c-0.3,0-0.5,0-0.7,0
		c-0.4,0-0.9-0.1-1.3-0.2c-0.7-0.1-1.4-0.3-2-0.6c-0.4-0.2-0.8-0.4-1.2-0.6C-2809.7-510-2809.8-510.1-2809.8-510.2z"/>
	<path id="Path_60558" class="st1" d="M-2807.5-510.1c-0.1,0.2-1.1-0.1-2.4-0.4s-2.3-0.5-2.3-0.7s1.1-0.2,2.5,0.1
		S-2807.4-510.3-2807.5-510.1z"/>
	<path id="Path_60559" class="st1" d="M-2805.6-510c-0.1,0.2-0.8-0.1-1.7-0.5s-1.5-0.9-1.4-1.1s0.8,0.1,1.7,0.5
		S-2805.5-510.2-2805.6-510z"/>
	<path id="Path_60560" class="st1" d="M-2804.5-510.4c-0.1,0.2-1.1-0.1-2.2-0.7s-2-1.1-1.9-1.2s1.1,0.1,2.2,0.7
		C-2805.3-511.2-2804.4-510.6-2804.5-510.4z"/>
	<path id="Path_60561" class="st1" d="M-2802.5-510.7c-0.1,0.2-1.4-0.6-3-1.3c-1.6-0.8-3-1.3-2.9-1.5s1.5,0.1,3.2,0.9
		C-2803.6-511.8-2802.4-510.8-2802.5-510.7z"/>
	<path id="Path_60562" class="st1" d="M-2798.7-509.8c-0.1,0.2-2.3-0.8-5-2.1c-2.7-1.2-4.9-2.2-4.8-2.3s2.4,0.5,5.1,1.8
		C-2800.7-511.2-2798.6-510-2798.7-509.8z"/>
	<path id="Path_60563" class="st1" d="M-2796.6-509.9c-0.1,0.2-2.7-1-5.8-2.6c-3.1-1.6-5.6-3-5.5-3.1s2.7,1,5.8,2.6
		C-2799-511.5-2796.6-510.1-2796.6-509.9z"/>
	<path id="Path_60564" class="st1" d="M-2797.4-511.1c-0.1,0.2-1.8-0.6-3.9-1.6s-3.8-1.7-3.7-1.9s1.9,0.4,4,1.3
		S-2797.3-511.2-2797.4-511.1z"/>
	<path id="Path_60565" class="st1" d="M-2799.4-512.9c-0.1,0.2-1-0.2-2.1-0.7s-2-0.8-2-1s1.1,0,2.2,0.4S-2799.3-513.1-2799.4-512.9z
		"/>
	<path id="Path_60566" class="st1" d="M-2834.8-521.5c0,0,0.1-0.1,0.4-0.2c0.4-0.2,0.8-0.2,1.3-0.2c1.6,0.2,3.1,0.8,4.3,1.9
		c0.8,0.7,1.7,1.2,2.7,1.7c1,0.5,2.3,0.6,3.4,0.3c1.3-0.5,2.8-0.6,4.2-0.3c0.7,0.2,1.4,0.5,2.1,1c0.8,0.5,1.2,1.3,1.2,2.2
		c-0.1,0.3-0.3,0.6-0.6,0.8c-0.3,0.1-0.5,0.2-0.8,0.2l-1.4,0.2c-1,0.1-1.9,0.2-2.8,0.3c-0.9,0.1-1.8,0.1-2.7,0.2l-1.3,0l-0.8,0
		l0.9,1.6c0.2,0.3,0.4,0.7,0.5,1.1c0,0.3-0.1,0.5-0.3,0.7c-0.2,0.1-0.4,0.2-0.6,0.2c-1.2,0-2.3-0.2-3.5-0.5
		c-0.7-0.2-1.4-0.5-2.1-0.8c-0.2-0.1-0.5-0.2-0.7-0.4c0-0.1,1,0.5,2.9,0.9c1.1,0.3,2.2,0.4,3.4,0.4c0.3,0,0.4-0.1,0.4-0.4
		c-0.1-0.3-0.2-0.6-0.4-0.9l-1.5-2.4l1.7,0l1.3-0.1l2.6-0.2c0.9-0.1,1.8-0.2,2.8-0.3l1.4-0.2c0.5,0,0.8-0.2,0.9-0.5
		c0.1-1.2-1.5-2.1-2.7-2.4c-1.3-0.3-2.6-0.2-3.9,0.2c-1.3,0.4-2.6,0.3-3.8-0.4c-1-0.5-1.9-1.2-2.7-1.9c-1.1-1-2.5-1.7-4-2
		C-2833.7-521.7-2834.2-521.7-2834.8-521.5z"/>
	<path id="Path_60567" class="st1" d="M-2827.3-510.6c-0.1,0.2-0.8,0-1.7-0.4s-1.5-0.8-1.5-1s0.8,0,1.7,0.4
		S-2827.2-510.7-2827.3-510.6z"/>
	<path id="Path_60568" class="st1" d="M-2826.4-511.8c-0.1,0.2-1.3-0.1-2.9-0.6c-1.5-0.5-2.7-1.1-2.7-1.2s1.3,0.1,2.9,0.6
		S-2826.4-512-2826.4-511.8z"/>
	<path id="Path_60569" class="st1" d="M-2826.1-512.9c-0.1,0.2-1.4-0.1-3-0.7s-2.9-1.1-2.8-1.3s1.4,0.1,3,0.7
		S-2826.1-513.1-2826.1-512.9z"/>
	<path id="Path_60570" class="st1" d="M-2823.6-514c0,0.2-2.2-0.3-4.8-1.1s-4.6-1.9-4.5-2s2.2,0.5,4.7,1.4S-2823.5-514.2-2823.6-514
		z"/>
	<path id="Path_60571" class="st1" d="M-2818-514.4c0,0.2-3.7-0.7-8.2-2s-8.1-2.4-8-2.6s3.7,0.7,8.2,2S-2818-514.5-2818-514.4z"/>
	<path id="Path_60572" class="st1" d="M-2821.2-516.5c0,0.2-2.9-0.5-6.3-1.5s-6.2-1.9-6.1-2.1s2.9,0.5,6.3,1.5
		S-2821.1-516.7-2821.2-516.5z"/>
	<path id="Path_60573" class="st1" d="M-2818.1-516.4c-0.1,0.2-0.9,0.1-1.9-0.2s-1.7-0.7-1.7-0.8s0.9-0.1,1.9,0.2
		S-2818.1-516.6-2818.1-516.4z"/>
	<path id="Path_60574" class="st1" d="M-2801.1-499c-0.4,0-0.8,0-1.2-0.1c-1-0.2-2.1-0.4-3-0.8c-2.5-0.9-5.6-2.9-9.3-4.5
		c-3.1-1.4-6.5-2.2-9.8-2.4c-2.6-0.2-4.2,0-4.2-0.1c0.4-0.1,0.7-0.2,1.1-0.2c1-0.1,2.1-0.1,3.1-0.1c3.5,0.1,6.9,0.9,10.1,2.3
		c3.7,1.7,6.7,3.7,9.2,4.7C-2803.9-499.8-2802.5-499.4-2801.1-499z"/>
	<path id="Path_60575" class="st1" d="M-2809.9-500.2c-0.1,0.2-3.3-1.4-7.5-1.9c-4.3-0.6-7.8,0.2-7.8,0c0.7-0.3,1.5-0.5,2.3-0.6
		c1.9-0.3,3.7-0.3,5.6,0c1.9,0.2,3.7,0.7,5.4,1.4C-2811.2-501-2810.6-500.7-2809.9-500.2z"/>
	<path id="Path_60576" class="st1" d="M-2781.1-487.5c-0.4,0.2-0.9,0.3-1.4,0.3c-1.3,0.2-2.6,0.2-3.9,0.1c-3.3-0.1-7.8-1.4-12.5-3.2
		c-3.9-1.7-8-2.9-12.2-3.8c-1.7-0.3-3.5-0.4-5.3-0.5c0.5-0.1,0.9-0.2,1.4-0.2c1.3,0,2.6,0,3.9,0.2c3.3,0.4,7.7,1.9,12.3,3.7
		c3.9,1.6,8.1,2.8,12.3,3.3C-2784.6-487.4-2782.8-487.4-2781.1-487.5z"/>
	<path id="Path_60577" class="st1" d="M-2780.1-486.6c-0.4,0.2-0.8,0.3-1.2,0.3c-1.1,0.2-2.3,0.3-3.4,0.3c-3.8-0.1-7.5-0.7-11-1.8
		c-4.2-1.2-7.9-2.5-10.7-3.1c-2.8-0.6-4.5-0.7-4.5-0.8c0.4-0.1,0.8-0.1,1.2,0c1.1,0.1,2.3,0.2,3.4,0.4c3.6,0.8,7.2,1.7,10.8,2.9
		c3.5,1.1,7.2,1.8,10.9,2C-2781.9-486.3-2780.2-486.8-2780.1-486.6z"/>
	<path id="Path_60578" class="st1" d="M-2760.7-499.9c0,0.1-1.8-0.7-4.8-1.5c-3.9-1.1-8-1.3-12-0.7c-2.3,0.4-4.5,1.1-6.6,1.4
		c-1.8,0.3-3.7,0.4-5.5,0.4c-1.6,0-2.8-0.1-3.7-0.2c-0.5,0-0.9-0.1-1.4-0.2c0-0.4,7.8,0.8,17.1-2.1c4.1-0.6,8.3-0.3,12.3,0.9
		c1.2,0.4,2.4,0.8,3.5,1.3C-2761.5-500.4-2761.1-500.1-2760.7-499.9z"/>
	<path id="Path_60579" class="st1" d="M-2754.8-500.5c-0.7,0.8-1.5,1.4-2.5,1.8c-1,0.5-2.1,0.8-3.2,1c-1.4,0.2-2.8,0.2-4.1,0
		c-2.9-0.4-5.4-1.1-7.2-1.4c-1.8-0.3-3-0.2-3-0.3c1-0.2,2.1-0.3,3.1-0.1c1.9,0.1,4.5,0.8,7.3,1.2c2.4,0.4,4.8,0.1,7.1-0.8
		C-2755.8-499.9-2754.9-500.6-2754.8-500.5z"/>
	<path id="Path_60580" class="st1" d="M-2744.6-504.7c0,0.1-1-0.1-2.5-0.1c-2,0.2-4,0.5-6,1.1c-2,0.6-4.1,0.9-6.2,0.8
		c-0.9,0-1.7-0.2-2.5-0.6c0-0.1,1,0.2,2.5,0.2c2-0.1,4-0.4,6-1c2-0.6,4.1-0.9,6.1-0.9C-2746.3-505.3-2745.4-505.1-2744.6-504.7z"/>
	<path id="Path_60581" class="st1" d="M-2780.8-492.8c0-0.1,1.8,0.4,4.6,1.1c2.8,0.6,6.8,1.5,11.1,0.4c2-0.6,3.9-1.3,5.8-2.1
		c1.6-0.7,3.2-1.2,4.9-1.6c1.1-0.2,2.3-0.3,3.5-0.2c0.4,0,0.8,0.1,1.2,0.3c-1.5-0.1-3.1,0.1-4.6,0.4c-1.6,0.4-3.2,1-4.7,1.7
		c-1.9,0.9-3.9,1.6-5.9,2.2c-4.4,1.1-8.6,0.1-11.3-0.6c-1.4-0.4-2.5-0.7-3.3-1C-2780.1-492.4-2780.4-492.6-2780.8-492.8z"/>
	<path id="Path_60582" class="st1" d="M-2777.7-489.5c0-0.1,1.3,0.2,3.4,0.5c2.7,0.4,5.5,0.2,8.1-0.5c1.5-0.5,2.9-1.2,4.2-1.7
		c1.2-0.5,2.4-0.8,3.6-1.1c1.1-0.3,2.3-0.4,3.4-0.4c-1.1,0.3-2.2,0.6-3.3,0.8c-1.2,0.3-2.4,0.7-3.5,1.2c-1.4,0.7-2.8,1.3-4.2,1.8
		c-2.7,0.8-5.6,0.9-8.4,0.3C-2775.5-488.7-2776.6-489-2777.7-489.5z"/>
	<path id="Path_60583" class="st1" d="M-2770.6-487.1c0-0.2,2.4-1,5.5-1.7c3.1-0.8,5.7-1.3,5.7-1.1s-2.4,1-5.5,1.7
		C-2768-487.5-2770.6-487-2770.6-487.1z"/>
	<path id="Path_60584" class="st1" d="M-2735.5-518.8c-0.4-0.1-0.8-0.2-1.1-0.4c-1.1-0.3-2.2-0.6-3.3-0.7c-4.2-0.4-8.4-0.3-12.5,0.5
		c-0.7,0-1.3,0.2-1.9,0.4c-0.6,0.2-0.8,0.9-1.2,1.5c-0.9,1.3-2.3,2.2-3.9,2.4c-1.6,0.2-3.3,0.1-4.9-0.3c-1.6-0.4-3.3-0.6-5.1-0.9
		l-10.9-1.8c-0.9-0.2-1.9-0.3-2.8-0.4c-0.9-0.1-1.7,0.4-2,1.2c-0.2,0.8,0.5,1.6,1.2,2.3c0.8,0.7,1.5,1.4,2.1,2.3
		c0.3,0.4,0.6,0.9,0.8,1.3c0.2,0.3,0.2,0.6,0.2,0.9c-0.1,0.4-0.3,0.7-0.6,0.8c-1,0.4-1.9,0.7-2.8,1.1c-0.8,0.3-1.7,1.1-1.1,1.6
		c0.3,0.2,0.8,0.4,1.2,0.4c0.5,0.1,0.9,0.1,1.4,0.1c1.8,0,3.6-0.6,5.1-1.6c1.5-1,2.4-2.7,4.1-3.6c1.5-0.8,3.2-1.4,4.9-1.7
		c1.6-0.4,3.3-0.6,4.9-0.4c0.8,0.1,1.6,0.6,2.1,1.2c0.4,0.6,0.9,1.1,1.4,1.6c1,0.9,2.3,1.5,3.6,2c2.2,0.9,4.6,1.3,7,1.2
		c2.1-0.2,3.9-0.5,5.4-0.7l3.4-0.5l0.9-0.1c0.1,0,0.2,0,0.3,0c-0.1,0-0.2,0.1-0.3,0.1l-0.9,0.2l-3.4,0.6c-1.5,0.2-3.2,0.6-5.4,0.8
		c-2.4,0.1-4.9-0.3-7.1-1.1c-1.4-0.4-2.6-1.1-3.7-2c-0.6-0.5-1.1-1.1-1.5-1.7c-0.5-0.6-1.1-0.9-1.8-1c-1.6-0.1-3.2,0.1-4.7,0.5
		c-1.7,0.3-3.3,0.8-4.8,1.6c-1.5,0.8-2.5,2.4-4,3.5c-1.6,1.1-3.5,1.7-5.5,1.7c-0.5,0-1,0-1.5-0.1c-0.5,0-1.1-0.2-1.5-0.6
		c-0.2-0.2-0.4-0.5-0.4-0.9c0-0.3,0.1-0.6,0.3-0.9c0.4-0.4,0.8-0.7,1.3-0.9c0.9-0.4,1.9-0.7,2.8-1.1c0.7-0.3-0.2-1.3-0.7-2.1
		c-0.6-0.8-1.3-1.5-2-2.2c-0.4-0.4-0.7-0.8-1-1.2c-0.3-0.5-0.4-1.1-0.3-1.7c0.4-1.1,1.5-1.8,2.6-1.7c1,0.1,2,0.2,2.9,0.4l10.9,1.8
		c1.7,0.3,3.4,0.5,5.1,0.9c1.5,0.4,3.1,0.5,4.7,0.3c1.4-0.2,2.8-1,3.6-2.2c0.4-0.6,0.7-1.4,1.5-1.7c0.7-0.2,1.4-0.4,2.1-0.4
		c5.3-0.7,9.7-0.8,12.6-0.3C-2738.4-519.9-2736.9-519.5-2735.5-518.8z"/>
	<path id="Path_60585" class="st1" d="M-2736.6-514.5c0.1,0.1-1,1.7-2.9,3.2c-0.8,0.6-1.7,1.2-2.7,1.6c-0.8,0.3-1.3,0.2-1.3,0.1
		s0.5-0.1,1.1-0.5c0.9-0.5,1.7-1.1,2.5-1.7C-2738-513.3-2736.7-514.7-2736.6-514.5z"/>
	<path id="Path_60586" class="st1" d="M-2736.9-515.6c0.1,0.1-2,2.2-5,4.3c-3,2-5.8,3.2-5.8,3c-0.1-0.2,2.5-1.5,5.5-3.5
		S-2737-515.7-2736.9-515.6z"/>
	<path id="Path_60587" class="st1" d="M-2738.1-515.9c0.1,0.1-2,2.5-5.2,4.5c-3.2,2.1-6.3,2.9-6.3,2.8c-0.1-0.2,2.8-1.3,6-3.3
		C-2740.5-513.9-2738.3-516-2738.1-515.9z"/>
	<path id="Path_60588" class="st1" d="M-2739.7-516.8c0.1,0.1-2.6,2.6-6.4,5.1c-3.8,2.5-7.2,3.9-7.3,3.7c-0.1-0.2,3.2-1.8,7-4.3
		C-2742.7-514.6-2739.8-516.9-2739.7-516.8z"/>
	<path id="Path_60589" class="st1" d="M-2739.9-518.2c-0.6,0.8-1.3,1.4-2,2c-1.8,1.5-3.6,2.9-5.6,4.1c-2,1.2-4,2.3-6.2,3.2
		c-0.9,0.4-1.8,0.7-2.7,0.9c-0.1-0.2,4-1.8,8.5-4.7C-2743.3-515.5-2740.1-518.4-2739.9-518.2z"/>
	<path id="Path_60590" class="st1" d="M-2742.8-517.8c-0.5,0.7-1.1,1.2-1.8,1.7c-1.2,1-2.9,2.3-4.8,3.6c-2,1.3-3.8,2.4-5.2,3.1
		c-0.5,0.3-1.1,0.6-1.7,0.7c-0.5,0-0.7-0.1-0.7-0.2c0.1,0.5,3.3-1.6,7.2-4.2C-2745.9-515.6-2742.9-517.9-2742.8-517.8z"/>
	<path id="Path_60591" class="st1" d="M-2745.3-518.5c0.1,0.1-2.6,2.2-6,4.7c-1.7,1.2-3.2,2.3-4.4,3c-0.6,0.5-1.4,0.7-2.2,0.7
		c0-0.1,0.8-0.3,1.9-1s2.6-2,4.3-3.2C-2748.2-516.7-2745.4-518.6-2745.3-518.5z"/>
	<path id="Path_60592" class="st1" d="M-2749.3-519c0.1,0.1-2.4,2.1-5.5,4.3c-1.3,1-2.7,1.9-4.2,2.7c-0.6,0.4-1.3,0.6-2,0.6
		c0.6-0.4,1.2-0.7,1.8-1c1.1-0.6,2.4-1.7,4-2.8C-2752-517.4-2749.4-519.1-2749.3-519z"/>
	<path id="Path_60593" class="st1" d="M-2752.5-518.2c0.1,0.1-1.9,1.8-4.6,3.5c-2.7,1.7-5,2.8-5.1,2.7c-0.1-0.2,2.1-1.5,4.8-3.2
		S-2752.6-518.3-2752.5-518.2z"/>
	<path id="Path_60594" class="st1" d="M-2759-515.6c0.1,0.1-1,1-2.5,1.7s-2.8,1.1-2.8,0.9s1.1-0.8,2.6-1.5
		C-2760.2-515.2-2759-515.8-2759-515.6z"/>
	<path id="Path_60595" class="st1" d="M-2762.7-515.1c0.1,0.1-0.5,0.7-1.5,1.2c-1,0.4-1.8,0.5-1.9,0.3s0.7-0.5,1.6-0.9
		C-2763.6-514.9-2762.8-515.3-2762.7-515.1z"/>
	<path id="Path_60596" class="st1" d="M-2766.3-515c0.1,0.1-0.7,0.9-1.9,1.3s-2.3,0.3-2.3,0.1s1-0.3,2.1-0.7
		S-2766.4-515.1-2766.3-515z"/>
	<path id="Path_60597" class="st1" d="M-2770.3-514.6c0.1,0.1-1.5,1.2-3.7,2.2s-4,1.4-4.1,1.3s1.7-0.9,3.8-1.9
		S-2770.4-514.8-2770.3-514.6z"/>
	<path id="Path_60598" class="st1" d="M-2770.1-515.2c0.1,0.2-2.9,1.7-6.8,3.1s-7.2,2.2-7.2,2s3.1-1.2,7-2.6
		S-2770.1-515.4-2770.1-515.2z"/>
	<path id="Path_60599" class="st1" d="M-2771-516.2c0.1,0.2-2.8,1.6-6.6,2.9s-7,2-7,1.8s3-1.1,6.8-2.4S-2771-516.4-2771-516.2z"/>
	<path id="Path_60600" class="st1" d="M-2773.8-516.6c0.1,0.2-2.2,1.4-5.2,2.5s-5.5,1.7-5.6,1.6s2.4-1.1,5.3-2.2
		S-2773.8-516.8-2773.8-516.6z"/>
	<path id="Path_60601" class="st1" d="M-2776.7-516.6c0.1,0.2-2,1.1-4.6,2s-4.8,1.3-4.9,1.2s2.1-0.9,4.7-1.8
		S-2776.8-516.8-2776.7-516.6z"/>
	<path id="Path_60602" class="st1" d="M-2779.1-517.1c0.1,0.2-1.5,1-3.7,1.6s-3.9,0.8-4,0.6s1.7-0.6,3.8-1.2
		S-2779.2-517.3-2779.1-517.1z"/>
	<path id="Path_60603" class="st1" d="M-2782.2-517.3c0.1,0.2-1,0.9-2.6,1.3s-2.9,0.4-2.9,0.2s1.2-0.4,2.7-0.9
		S-2782.3-517.5-2782.2-517.3z"/>
	<path id="Path_60604" class="st1" d="M-2784.4-518.1c0.1,0.2-0.9,0.7-2.2,1s-2.4,0.3-2.5,0.1s1-0.4,2.3-0.8
		S-2784.4-518.3-2784.4-518.1z"/>
	<path id="Path_60605" class="st1" d="M-2786.1-518.5c0,0.2-0.4,0.3-0.9,0.3s-0.9-0.1-0.9-0.3s0.4-0.3,0.9-0.3
		S-2786.1-518.7-2786.1-518.5z"/>
	<path id="Path_60606" class="st1" d="M-2779.5-508.8c0.1,0.1-1.7,1.2-4.1,1.9s-4.5,0.7-4.5,0.5c0-0.2,2-0.4,4.4-1.1
		S-2779.6-509-2779.5-508.8z"/>
	<path id="Path_60607" class="st1" d="M-2780-509.9c0.1,0.2-1.8,0.9-4.1,1.5c-1,0.3-2,0.6-3,0.7c-0.8,0.1-1.3-0.1-1.3-0.2
		s0.5-0.1,1.2-0.2s1.8-0.5,2.9-0.9C-2782-509.6-2780.1-510-2780-509.9z"/>
	<path id="Path_60608" class="st1" d="M-2782.6-509.8c0.1,0.2-0.5,0.5-1.2,0.6s-1.3,0-1.3-0.2s0.6-0.3,1.2-0.4
		S-2782.6-510-2782.6-509.8z"/>
	<path id="Path_60609" class="st1" d="M-2747.2-525.3c-1.2-0.1-2.3,0-3.5,0.1c-1.1,0.2-2.4,0.5-3.9,0.9c-1.7,0.5-3.5,0.8-5.4,0.9
		c-2,0.1-4.2-0.2-6.6-0.1c-2.5,0.2-5,0.5-7.4,1c-2.7,0.6-5.5,0.8-8.3,0.8c-2.9-0.1-5.9-0.6-8.9-0.7c-6.1-0.2-11.9,0.4-17.3,0.4
		c-4.7,0-9.4-0.7-13.9-2.3c-3.8-1.3-6.9-2-9.2-1.9c-1.2,0-2.3,0.2-3.4,0.5c1.1-0.5,2.2-0.7,3.4-0.8c2.3-0.2,5.6,0.5,9.3,1.7
		c4.4,1.5,9.1,2.2,13.8,2.1c5.3,0.1,11.1-0.6,17.3-0.4c3.1,0,6.1,0.6,8.9,0.7c2.8,0,5.5-0.2,8.2-0.7c2.5-0.5,5-0.8,7.5-1
		c2.4-0.1,4.6,0.2,6.6,0.2c1.8,0,3.6-0.3,5.3-0.8c1.3-0.4,2.7-0.6,4-0.9c0.9-0.1,1.7-0.1,2.6-0.1
		C-2747.8-525.5-2747.5-525.4-2747.2-525.3z"/>
	<path id="Path_60610" class="st1" d="M-2757.9-524.7c-0.3-0.1-0.5-0.2-0.7-0.4c-0.5-0.2-1.2-0.6-2.1-1c-2.6-1-5.4-1.6-8.2-1.7
		c-7.1-0.2-17,0.6-27.9,0.1c-5.1-0.2-10.2-1-15.2-2.2c-2.3-0.6-4.4-1.3-6.4-1.9c-1.9-0.5-3.8-0.8-5.7-0.9c-3.6-0.2-6.4-0.1-8.4,0
		l-2.3,0.1c-0.3,0-0.5,0-0.8,0c0.3-0.1,0.5-0.1,0.8-0.1c0.5-0.1,1.3-0.2,2.3-0.2c2.8-0.2,5.6-0.3,8.5-0.2c2,0,3.9,0.3,5.8,0.9
		c2,0.6,4.1,1.3,6.4,1.9c5,1.2,10,1.9,15.1,2.1c10.9,0.6,20.7-0.2,27.9,0.1c2.8,0.1,5.6,0.7,8.2,1.9c0.7,0.3,1.4,0.7,2,1.1
		C-2758.3-525-2758.1-524.9-2757.9-524.7z"/>
	<path id="Path_60611" class="st1" d="M-2757.2-525.2c0.1,0.1-1,0.9-2.7,1.2c-1.6,0.3-2.9-0.1-2.9-0.3c0-0.2,1.3-0.1,2.8-0.4
		C-2758.5-524.9-2757.3-525.4-2757.2-525.2z"/>
	<path id="Path_60612" class="st1" d="M-2758.5-526.1c0.1,0.2-1.5,1-3.5,1.6s-3.7,0.9-3.8,0.8s1.6-0.7,3.5-1.4
		C-2760.2-525.8-2758.6-526.3-2758.5-526.1z"/>
	<path id="Path_60613" class="st1" d="M-2761.9-526.4c0.1,0.2-1.2,0.9-2.8,1.5s-3.1,0.8-3.2,0.6c0-0.2,1.3-0.6,2.9-1.2
		S-2761.9-526.6-2761.9-526.4z"/>
	<path id="Path_60614" class="st1" d="M-2765.3-527.1c0.1,0.2-1.8,1.2-4.3,2.1c-2.5,0.9-4.6,1.4-4.6,1.2s2-0.9,4.4-1.8
		S-2765.4-527.3-2765.3-527.1z"/>
	<path id="Path_60615" class="st1" d="M-2770.6-527.2c0.1,0.2-2.1,1.3-4.9,2.4s-5.2,1.7-5.2,1.6s2.2-1.1,5-2.2
		S-2770.7-527.4-2770.6-527.2z"/>
	<path id="Path_60616" class="st1" d="M-2775.2-527c0.1,0.1-1.9,1.4-4.5,2.6s-4.9,1.6-5,1.5s2.1-0.9,4.7-2S-2775.3-527.2-2775.2-527
		z"/>
	<path id="Path_60617" class="st1" d="M-2778.8-527.1c0.1,0.2-2.1,1.2-4.8,2.4s-5,1.9-5,1.8s2.1-1.2,4.8-2.4
		S-2778.8-527.3-2778.8-527.1z"/>
	<path id="Path_60618" class="st1" d="M-2782.3-527c0.1,0.2-2,1.3-4.5,2.5c-1.1,0.6-2.3,1-3.5,1.2c-0.9,0.2-1.5,0.1-1.6,0
		c0-0.1,0.6-0.2,1.4-0.5c1.1-0.4,2.3-0.8,3.3-1.4C-2784.5-526.3-2782.3-527.2-2782.3-527z"/>
	<path id="Path_60619" class="st1" d="M-2786.8-526.9c0.1,0.1-1.9,1.4-4.5,2.4s-4.9,1.4-5,1.2c0-0.2,2.1-0.8,4.7-1.8
		S-2786.9-527.1-2786.8-526.9z"/>
	<path id="Path_60620" class="st1" d="M-2790.5-526.8c0.1,0.2-2.1,1.3-4.9,2.3s-5.2,1.5-5.2,1.4s2.2-1,5-2
		S-2790.5-526.9-2790.5-526.8z"/>
	<path id="Path_60621" class="st1" d="M-2792.8-527.4c0.1,0.2-2.6,1.5-6.1,2.7s-6.4,2-6.4,1.8s2.8-1.2,6.2-2.4
		S-2792.9-527.6-2792.8-527.4z"/>
	<path id="Path_60622" class="st1" d="M-2797.1-527.4c0.1,0.2-2.8,1.3-6.5,2.6c-1.5,0.6-3.1,1-4.7,1.4c-0.7,0.2-1.4,0.2-2.1,0
		c0-0.1,0.8-0.1,2-0.5s2.8-0.9,4.6-1.6C-2800.2-526.7-2797.2-527.5-2797.1-527.4z"/>
	<path id="Path_60623" class="st1" d="M-2800.2-527.5c0.1,0.2-2.6,1.3-6,2.3s-6.3,1.3-6.3,1.1s2.8-0.8,6.2-1.7
		S-2800.3-527.6-2800.2-527.5z"/>
	<path id="Path_60624" class="st1" d="M-2802.6-528.6c0,0.2-3.3,1.3-7.6,2.5s-7.7,2-7.7,1.9s3.3-1.3,7.6-2.5
		S-2802.7-528.8-2802.6-528.6z"/>
	<path id="Path_60625" class="st1" d="M-2807.9-528.5c0.1,0.2-2.6,1.2-6.1,2s-6.3,1.1-6.3,0.9s2.8-0.7,6.2-1.5
		S-2808-528.7-2807.9-528.5z"/>
	<path id="Path_60626" class="st1" d="M-2812.4-528.9c0,0.2-2.8,1-6.2,1.9c-1.7,0.4-3.3,0.8-4.5,1c-1.2,0.2-2,0.1-1.9,0
		s0.7-0.1,1.8-0.4s2.7-0.8,4.4-1.2C-2815.3-528.5-2812.5-529.1-2812.4-528.9z"/>
	<path id="Path_60627" class="st1" d="M-2816.1-529.4c0.1,0.2-2.3,1-5.2,1.8s-5.4,1.3-5.4,1.2s2.3-1,5.2-1.8
		S-2816.2-529.6-2816.1-529.4z"/>
	<path id="Path_60628" class="st1" d="M-2817.3-530c0,0.2-2.4,0.8-5.5,1.6s-5.5,1.4-5.6,1.2s2.4-1.1,5.4-1.9
		S-2817.3-530.2-2817.3-530z"/>
	<path id="Path_60629" class="st1" d="M-2819-530.5c0,0.2-2.8,0.6-6.1,1.3s-6.1,1.5-6.1,1.3c-0.1-0.2,2.6-1.2,6-1.9
		S-2819-530.6-2819-530.5z"/>
	<path id="Path_60630" class="st1" d="M-2821.4-530.5c0,0.2-2.7,0.4-6,1s-5.9,1.5-5.9,1.3c-0.1-0.2,2.5-1.3,5.8-1.9
		S-2821.4-530.7-2821.4-530.5z"/>
	<path id="Path_60631" class="st1" d="M-2824.5-530.7c0,0.2-2.2,0.4-4.9,0.9s-4.8,1.1-4.9,1c-0.1-0.2,2-1.1,4.8-1.6
		S-2824.5-530.9-2824.5-530.7z"/>
	<path id="Path_60632" class="st1" d="M-2828.2-531.7c0,0.2-1.1,0.4-2.3,0.9s-2.3,0.9-2.4,0.8s0.8-0.9,2.2-1.4
		S-2828.2-531.8-2828.2-531.7z"/>
	<path id="Path_60633" class="st1" d="M-2734.6-529.4c0.1,0.1-1.3,0.7-3.5,0.5c-1.1-0.1-2.4,0-3.8,0c-0.7,0-1.4,0-2.1,0.2
		c-0.7,0.2-1.2,0.8-0.9,1.4c0.3,0.7,0.7,1.4,1.3,1.3c0.7-0.1,1.4-0.4,2.1-0.6c1.2-0.4,2.5-0.7,3.8-0.8c0.9-0.1,1.7-0.1,2.6-0.1
		c0.3,0,0.6,0,0.9,0.1c0,0.1-1.3,0.1-3.5,0.4c-1.2,0.2-2.4,0.5-3.6,0.9c-0.7,0.3-1.5,0.6-2.2,0.7c-0.5,0-1-0.2-1.3-0.5
		c-0.3-0.3-0.5-0.8-0.6-1.2c-0.2-0.5-0.1-1,0.2-1.4c0.3-0.4,0.7-0.7,1.1-0.8c0.8-0.2,1.5-0.2,2.3-0.2c1.3,0,2.6,0,3.8,0.1
		C-2736.9-529.3-2735.8-529.3-2734.6-529.4z"/>
	<path id="Path_60634" class="st1" d="M-2759.2-533c1.1-0.6,2.2-1,3.3-1.3c2.8-0.8,5.6-1.3,8.5-1.5c2.9-0.2,5.8-0.1,8.6,0.4
		c1.2,0.1,2.4,0.4,3.5,0.8c-1.2-0.1-2.4-0.2-3.5-0.4c-2.8-0.3-5.7-0.4-8.5-0.2c-2.8,0.2-5.6,0.6-8.4,1.3
		C-2756.9-533.5-2758.1-533.2-2759.2-533z"/>
	<path id="Path_60635" class="st1" d="M-2745.9-537.6c0-0.2,2.4-0.6,5.5-0.5c3.1,0.2,5.5,0.9,5.4,1.1c0,0.2-2.5-0.3-5.5-0.4
		C-2743.4-537.6-2745.9-537.4-2745.9-537.6z"/>
	<path id="Path_60636" class="st1" d="M-2789-536.8c0.4-0.6,0.9-1.1,1.5-1.5c1.6-1.1,3.5-1.9,5.5-2.1c2.9-0.2,5.8-0.1,8.7,0.4
		c3.5,0.3,7.1,0.2,10.6-0.3c6.4-0.7,12.9-0.8,19.4-0.5c2.5,0.1,4.5,0.3,5.9,0.5c0.7,0.1,1.2,0.2,1.6,0.2c0.2,0,0.4,0.1,0.5,0.1
		c-0.7,0-1.4,0-2.2-0.1c-1.4-0.1-3.4-0.2-5.9-0.3c-6.4-0.2-12.9,0-19.3,0.7c-3.5,0.5-7.1,0.6-10.7,0.3c-2.8-0.5-5.7-0.6-8.6-0.5
		c-1.9,0.2-3.8,0.8-5.4,1.8C-2788-537.7-2788.5-537.3-2789-536.8z"/>
	<path id="Path_60637" class="st1" d="M-2833.9-541.1c0.6-0.2,1.1-0.4,1.7-0.5c1.6-0.4,3.2-0.7,4.8-0.9c5.3-0.7,10.8-0.6,16,0.5
		c2.9,0.6,5.7,1.5,8.4,2.8c0.6,0.3,1.2,0.6,1.8,1l1.4,1.2c0.9,0.7,1.9,1,3,1.1c1.6,0,3.2-0.3,4.6-1c0.5-0.3,1.1-0.5,1.7-0.6
		c-0.5,0.3-1,0.6-1.6,0.9c-1.5,0.8-3.1,1.2-4.8,1.2c-1.2,0-2.3-0.4-3.3-1.1l-1.5-1.2c-0.5-0.4-1.1-0.7-1.7-0.9
		c-2.7-1.2-5.5-2.1-8.3-2.7c-5.2-1-10.6-1.3-15.9-0.7c-2,0.2-3.7,0.5-4.8,0.7C-2832.7-541.2-2833.3-541.1-2833.9-541.1z"/>
	<path id="Path_60638" class="st1" d="M-2814-543.5c0,0.1-1.1-0.3-2.9-0.6c-2.4-0.3-4.7-0.3-7.1,0c-2.8,0.4-5.3,0.9-7.1,1.2
		c-1,0.2-2,0.3-3,0.3c0.9-0.3,1.9-0.6,2.9-0.8c1.8-0.4,4.3-1,7.1-1.4c2.4-0.3,4.9-0.3,7.2,0.2C-2815.8-544.4-2814.9-544-2814-543.5z
		"/>
	<path id="Path_60639" class="st1" d="M-2816.5-548.5c0,0.2-3.2-0.2-7.2,0.1c-3.9,0.2-7.1,1-7.1,0.8c-0.1-0.2,3.1-1.2,7.1-1.5
		C-2819.7-549.3-2816.5-548.6-2816.5-548.5z"/>
	<path id="Path_60640" class="st1" d="M-2782.2-544.8c0,0-0.3,0.1-0.9,0.3c-0.8,0.2-1.7,0.3-2.5,0.3c-2.8-0.1-5.5-0.6-8.1-1.4
		c-2.6-0.8-5.2-1.4-7.9-1.5c-2.1,0-3.3,0.3-3.3,0.2c0,0,0.3-0.2,0.9-0.3c0.3-0.1,0.7-0.2,1.1-0.2c0.5-0.1,0.9-0.1,1.4-0.1
		c2.8,0.1,5.5,0.5,8.1,1.4c2.6,0.8,5.2,1.4,7.9,1.6C-2783.5-544.6-2782.2-544.9-2782.2-544.8z"/>
	<path id="Path_60641" class="st1" d="M-2807.5-554c-1.1-0.1-2.2-0.3-3.3-0.6c-2.6-0.6-5.2-0.9-7.9-0.7c-1.5,0.2-2.9,0.5-4.3,0.9
		c-1.2,0.3-2.4,0.5-3.6,0.6c-1.1,0.2-2.3,0.1-3.4-0.1c0-0.1,1.3-0.1,3.3-0.4c1.2-0.2,2.4-0.4,3.5-0.7c1.4-0.4,2.9-0.7,4.4-0.9
		c2.7-0.2,5.5,0.1,8.1,0.9C-2809.6-554.8-2808.5-554.5-2807.5-554z"/>
	<path id="Path_60642" class="st1" d="M-2814.7-556.4c0,0.2-3.2-0.1-7,0.4c-3.9,0.5-6.8,1.7-6.9,1.5c-0.1-0.1,2.9-1.6,6.8-2.1
		C-2817.9-557.2-2814.7-556.6-2814.7-556.4z"/>
	<path id="Path_60643" class="st1" d="M-2815.8-558.2c0,0.2-3.1-0.1-6.9,0.4c-3.8,0.4-6.7,1.3-6.8,1.1c-0.1-0.1,2.9-1.4,6.7-1.8
		C-2818.9-558.9-2815.8-558.4-2815.8-558.2z"/>
	<path id="Path_60644" class="st1" d="M-2782.2-555.5c0.2,0.3,0.2,0.6,0.1,1c-0.1,0.9-0.6,1.7-1.4,2.3c-1.1,0.8-2.6,1-3.9,0.6
		c-1.6-0.4-3-1.1-4.4-2c-2.4-1.5-5.2-2.2-8-2.2c-1.2,0-2.4,0-3.6-0.1c1.2-0.2,2.4-0.4,3.6-0.3c1.3,0,2.6,0.1,3.9,0.3
		c1.6,0.3,3.1,0.9,4.5,1.8c1.3,0.9,2.7,1.5,4.2,2c1.2,0.4,2.5,0.2,3.5-0.4c0.7-0.4,1.2-1.1,1.4-1.9
		C-2782.2-555.2-2782.2-555.5-2782.2-555.5z"/>
	<path id="Path_60645" class="st1" d="M-2781.8-555.7c0.1,0,0.3,0.8-0.5,1.7c-0.8,0.9-2.6,1.2-4.1,0.6c-1.9-0.6-3.7-1.4-5.3-2.5
		c0.1-0.2,2.5,0.8,5.5,1.9c1.2,0.6,2.6,0.5,3.7-0.3C-2781.9-555-2781.9-555.7-2781.8-555.7z"/>
	<path id="Path_60646" class="st1" d="M-2782.7-556.6c0.1,0-0.1,0.4-0.6,0.9c-0.7,0.5-1.5,0.8-2.3,0.8c-1.1,0-2.3-0.3-3.2-1
		c0.1-0.2,1.5,0.3,3.2,0.4c0.7,0,1.4-0.2,2.1-0.5C-2783-556.4-2782.8-556.6-2782.7-556.6z"/>
	<path id="Path_60647" class="st1" d="M-2761.8-554.7c-0.4,0.8-0.9,1.5-1.7,2c-0.8,0.6-1.8,0.9-2.8,0.9c-0.6,0-1.2-0.2-1.7-0.5
		c-0.5-0.3-1-0.8-1.4-1.3c-0.6-0.9-1.4-1.7-2.4-2.2c-0.8-0.3-1.7-0.4-2.6-0.3c-1.6,0.1-2.5,0.5-2.5,0.4c0.8-0.4,1.6-0.7,2.5-0.8
		c1-0.2,2-0.1,2.9,0.2c1.1,0.5,2,1.3,2.6,2.4c0.6,0.9,1.5,1.5,2.6,1.6c0.9,0,1.8-0.2,2.5-0.7
		C-2763.1-553.6-2762.4-554.1-2761.8-554.7z"/>
	<path id="Path_60648" class="st1" d="M-2762.9-553.9c-0.4,0.5-1,0.9-1.6,1.1c-0.7,0.2-1.5,0.2-2.1-0.2c-0.7-0.5-1.3-1.1-1.8-1.8
		c-0.4-0.7-1-1.2-1.6-1.7c-0.5-0.3-1.2-0.5-1.8-0.6c-0.6,0-1.2,0-1.8-0.2c0.6-0.2,1.2-0.4,1.9-0.3c0.7,0,1.4,0.2,2.1,0.5
		c0.7,0.5,1.3,1.1,1.8,1.8c0.4,0.7,1,1.2,1.6,1.7c0.5,0.3,1.1,0.5,1.7,0.3C-2763.6-553.6-2763-554-2762.9-553.9z"/>
	<path id="Path_60649" class="st1" d="M-2761.8-555.4c0.1,0-0.3,0.5-1.1,0.8c-1.1,0.3-2.2,0.2-3.2-0.3c-0.9-0.5-1.8-1.1-2.7-1.7
		c-0.6-0.5-1.1-0.7-1-0.8s0.5,0,1.3,0.4s1.7,1,2.7,1.5c0.9,0.4,1.9,0.6,2.9,0.5C-2762.3-555.2-2761.9-555.5-2761.8-555.4z"/>
	<path id="Path_60650" class="st1" d="M-2756.2-546c1.1-0.2,2.2-0.3,3.3-0.3c2.7,0,5.3,0.2,7.9,0.7c2.6,0.5,5.2,1.3,7.6,2.3l1.3,0.6
		c0.4,0.1,0.7,0.4,0.9,0.7c0.1,0.2,0.1,0.5-0.1,0.7c-0.1,0.1-0.2,0.1-0.2,0.1c0.2-0.2,0.2-0.5,0.1-0.7c-0.2-0.4-1.1-0.6-2.1-1
		c-2.5-0.9-5-1.6-7.6-2.1c-2.6-0.5-5.2-0.8-7.8-0.9C-2754-545.9-2755.1-545.9-2756.2-546z"/>
	<path id="Path_60651" class="st1" d="M-2749.8-546.9c0-0.2,3.7-0.3,7.9,1.1c1.8,0.6,3.6,1.3,5.3,2.1c0.7,0.3,1.4,0.7,2.1,1.1
		c-0.1,0.2-3.4-1.3-7.5-2.6C-2744.6-545.9-2747.1-546.5-2749.8-546.9z"/>
	<path id="Path_60652" class="st1" d="M-2749.6-549c0-0.2,3.4-0.5,7.4,0.5c1.7,0.4,3.4,1,4.9,1.8c0.5,0.2,0.9,0.6,1.2,1.1
		c0.2,0.3,0.2,0.6,0.2,0.6c-0.4-0.6-0.9-1-1.6-1.3c-1.6-0.7-3.2-1.2-4.9-1.6C-2746.3-548.8-2749.6-548.8-2749.6-549z"/>
	<path id="Path_60653" class="st1" d="M-2749.5-550.9c0-0.2,3-0.3,6.5,0.6c3.5,0.8,6.1,2.2,6.1,2.4c-0.1,0.2-2.8-0.9-6.2-1.7
		C-2746.6-550.5-2749.5-550.7-2749.5-550.9z"/>
	<path id="Path_60654" class="st1" d="M-2747.5-552.1c0-0.2,2,0.3,4.4,1s4.3,1.5,4.2,1.6c-0.1,0.2-2-0.3-4.4-1
		C-2745.6-551.2-2747.5-552-2747.5-552.1z"/>
	<path id="Path_60655" class="st1" d="M-2754.2-567c0,0.1-1.8-0.1-4.6-0.3c-3.7-0.3-7.5-0.3-11.2,0c-3.7,0.2-7.4,0.7-11.1,1.5
		c-2.8,0.6-4.5,1-4.6,0.9c0.4-0.2,0.8-0.4,1.2-0.4c0.8-0.3,1.9-0.6,3.3-0.9c3.7-0.9,7.4-1.4,11.1-1.7c3.8-0.2,7.5-0.2,11.3,0.2
		c1.4,0.2,2.6,0.3,3.4,0.5C-2755-567.2-2754.6-567.1-2754.2-567z"/>
	<path id="Path_60656" class="st1" d="M-2759.1-568.7c-1.3,0.1-2.7,0.1-4,0.1c-2.5,0-5.9,0.1-9.7,0.5s-7.2,0.9-9.6,1.4
		c-1.3,0.3-2.6,0.6-4,0.7c0.3-0.2,0.7-0.3,1-0.4c0.7-0.2,1.6-0.5,2.9-0.8c3.2-0.8,6.4-1.3,9.6-1.6c3.2-0.3,6.5-0.4,9.8-0.3
		c1.2,0.1,2.3,0.1,3,0.2C-2759.8-568.9-2759.4-568.9-2759.1-568.7z"/>
	<path id="Path_60657" class="st1" d="M-2758.9-570.1c-1.3,0.1-2.7,0.2-4,0.2c-2.5,0.1-5.9,0.2-9.6,0.7s-7.1,1.1-9.5,1.6
		c-1.3,0.3-2.6,0.6-3.9,0.8c0.3-0.2,0.6-0.3,1-0.4c0.7-0.2,1.6-0.5,2.8-0.8c3.1-0.8,6.3-1.4,9.5-1.8c3.2-0.4,6.4-0.5,9.7-0.5
		c1.2,0,2.2,0.1,2.9,0.1C-2759.6-570.3-2759.3-570.2-2758.9-570.1z"/>
	<path id="Path_60658" class="st1" d="M-2762.9-571.5c0,0.1-1.6,0.1-4.2,0.2c-3.3,0.1-6.6,0.5-9.9,1c-3.8,0.6-7.2,1.7-9.8,2.2
		c-1,0.2-2,0.3-3,0.4c-0.4,0-0.8,0-1.1-0.1c0-0.1,1.6-0.1,4.1-0.7c2.5-0.6,5.9-1.7,9.8-2.4c3.3-0.6,6.7-0.9,10-0.9
		c1.3,0,2.3,0.1,3.1,0.1C-2763.6-571.7-2763.2-571.6-2762.9-571.5z"/>
	<path id="Path_60659" class="st1" d="M-2764.1-573.9c-1.3,0.2-2.7,0.3-4,0.3c-2.5,0.1-5.9,0.4-9.7,0.9s-7.2,1.2-9.6,1.7
		c-1.3,0.4-2.6,0.6-4,0.8c0.3-0.2,0.7-0.3,1-0.4c0.7-0.2,1.6-0.5,2.8-0.8c3.2-0.8,6.4-1.5,9.6-1.9c3.2-0.4,6.5-0.7,9.8-0.7
		c1.3,0,2.3,0,3,0.1C-2764.8-574-2764.5-574-2764.1-573.9z"/>
	<path id="Path_60660" class="st1" d="M-2765.5-575c-1.4,0.2-2.7,0.3-4.1,0.4c-2.5,0.2-6,0.5-9.8,1.2s-7.2,1.4-9.6,2
		c-1.3,0.4-2.6,0.7-4,1c0.3-0.2,0.7-0.4,1-0.4c0.7-0.3,1.6-0.6,2.8-0.9c3.2-0.9,6.4-1.7,9.6-2.2c3.3-0.5,6.6-0.9,9.9-1
		c1.3,0,2.3,0,3,0C-2766.3-575.1-2765.9-575.1-2765.5-575z"/>
	<path id="Path_60661" class="st1" d="M-2766.9-575.4c-1.3,0.2-2.6,0.3-3.9,0.3c-2.4,0.2-5.7,0.5-9.3,1s-6.8,1.4-9.1,2
		c-1.2,0.4-2.5,0.7-3.8,1c1.2-0.6,2.4-1.1,3.6-1.4c3-0.9,6-1.7,9.1-2.2c3.1-0.5,6.2-0.8,9.4-0.9
		C-2769.5-575.6-2768.2-575.6-2766.9-575.4z"/>
	<path id="Path_60662" class="st1" d="M-2768.3-577.3c-1.3,0.3-2.6,0.4-3.8,0.5c-2.4,0.3-5.6,0.7-9.2,1.4s-6.8,1.5-9.1,2.2
		c-1.2,0.4-2.5,0.7-3.8,1c1.2-0.6,2.4-1.1,3.6-1.4c3-1,6-1.8,9.1-2.4c3.1-0.6,6.2-1,9.3-1.3
		C-2770.9-577.4-2769.6-577.5-2768.3-577.3z"/>
	<path id="Path_60663" class="st1" d="M-2772.4-577.8c-1.1,0.2-2.2,0.4-3.4,0.5c-2.1,0.3-5,0.6-8.1,1.2s-6,1.3-8,1.8
		c-1.1,0.3-2.2,0.6-3.3,0.8c1-0.5,2.1-0.9,3.2-1.2c2.6-0.8,5.3-1.5,8-2c2.7-0.5,5.5-0.9,8.2-1.1
		C-2774.7-577.9-2773.5-577.9-2772.4-577.8z"/>
	<path id="Path_60664" class="st1" d="M-2777.5-578.4c-1.1,0.2-2.1,0.4-3.2,0.4c-2,0.2-4.7,0.6-7.7,1.2s-5.7,1.2-7.6,1.8
		c-1,0.3-2.1,0.6-3.1,0.8c1-0.5,2-0.9,3-1.2c2.5-0.8,5-1.5,7.6-2c2.6-0.5,5.2-0.8,7.8-1C-2779.6-578.6-2778.5-578.6-2777.5-578.4z"
		/>
	<path id="Path_60665" class="st1" d="M-2779.4-578.8c-1,0.2-2.1,0.4-3.1,0.4c-2.5,0.3-5,0.7-7.5,1.3c-2.5,0.6-4.9,1.3-7.3,2.1
		c-1,0.4-2,0.7-3,1c0.9-0.6,1.8-1.1,2.8-1.4c2.4-1,4.8-1.8,7.3-2.3c2.5-0.6,5-0.9,7.6-1.1C-2781.6-579-2780.5-579-2779.4-578.8z"/>
	<path id="Path_60666" class="st1" d="M-2782.8-579.3c-0.9,0.2-1.9,0.4-2.9,0.4c-1.8,0.2-4.2,0.6-6.8,1.1s-5,1.2-6.7,1.7
		c-0.9,0.3-1.8,0.7-2.6,1.2c-0.1,0,0.7-1,2.4-1.6c2.2-0.8,4.4-1.5,6.7-1.9c2.3-0.5,4.6-0.8,6.9-0.9
		C-2784.7-579.5-2783.7-579.5-2782.8-579.3z"/>
	<path id="Path_60667" class="st1" d="M-2786.3-580c0,0.2-4-0.1-8.9,1c-4.8,1-8.4,2.8-8.5,2.6c0.7-0.6,1.5-1,2.3-1.3
		c2-0.9,4-1.5,6.1-2c2.1-0.4,4.2-0.6,6.4-0.6C-2788-580.3-2787.1-580.2-2786.3-580z"/>
	<path id="Path_60668" class="st1" d="M-2791.9-578.2c0,0.2-0.3,0.4-0.8,0.4s-0.8-0.1-0.8-0.2s0.3-0.4,0.8-0.4
		S-2792-578.3-2791.9-578.2z"/>
	<path id="Path_60669" class="st1" d="M-2752.7-557.4c-0.3,0-0.6-0.1-0.9-0.2c-0.2,0-0.4-0.1-0.5-0.2c-0.2-0.2-0.1-0.5,0.1-0.7
		c0,0,0.1,0,0.1-0.1c0.5-0.2,1.1,0,1.3,0.4c0,0.1,0.1,0.2,0.1,0.3c0.1,0.4-0.1,0.7-0.3,1c-0.3,0.2-0.7,0.4-1.1,0.3
		c-0.8-0.1-1.5-0.6-1.8-1.4c-0.2-0.9,0.3-1.8,1.2-2c0,0,0.1,0,0.1,0c0.9-0.1,1.8,0.2,2.5,0.8c0.7,0.6,1,1.6,0.6,2.5
		c-0.4,0.8-1.2,1.3-2.1,1.3c-1.3,0.1-2.7-0.2-3.8-0.9c-0.8-0.4-1.4-1.1-1.9-1.9c-0.2-0.3-0.3-0.6-0.3-0.9c0.5,1,1.3,1.9,2.3,2.4
		c1.1,0.6,2.3,0.8,3.5,0.7c0.7,0,1.3-0.4,1.5-1c0.2-0.7,0-1.4-0.5-1.9c-0.5-0.5-1.2-0.8-1.9-0.7c-0.6,0.1-1,0.6-0.9,1.2
		c0,0,0,0,0,0.1c0.2,0.5,0.7,0.9,1.2,1c0.6,0.1,0.9-0.3,0.9-0.7c-0.1-0.3-0.4-0.6-0.7-0.5c0,0-0.1,0-0.1,0c-0.3,0.1,0,0.4,0.3,0.4
		C-2753.3-557.8-2753-557.6-2752.7-557.4z"/>
	<path id="Path_60670" class="st1" d="M-2745.1-556.5c0-0.2,1.7,0,3.5,1.2s2.6,2.6,2.5,2.7c-0.2,0.1-1.2-1.1-2.8-2.2
		C-2743.5-555.8-2745.1-556.3-2745.1-556.5z"/>
	<path id="Path_60671" class="st1" d="M-2748.3-559.4c0.1-0.2,1.6,0.3,3.4,1.1s3.2,1.5,3.1,1.7c-0.1,0.2-1.6-0.3-3.4-1.1
		S-2748.4-559.3-2748.3-559.4z"/>
	<path id="Path_60672" class="st1" d="M-2806.4-562.7c-1,0-2,0-3-0.1c-2.4-0.1-4.9-0.1-7.3,0.1c-2.4,0.1-4.8,0.6-7.1,1.3
		c-0.9,0.4-1.8,0.9-2.6,1.4c0.6-0.9,1.5-1.5,2.4-1.9c2.3-0.8,4.8-1.3,7.2-1.5c2.5-0.2,4.9-0.2,7.4,0.1
		C-2808.4-563.2-2807.4-563.1-2806.4-562.7z"/>
	<path id="Path_60673" class="st1" d="M-2814.1-565c0,0.2-2.9,0.4-6.3,1.1c-3.5,0.7-6.2,1.7-6.2,1.6c-0.1-0.1,2.6-1.4,6.1-2.2
		C-2817.1-565.3-2814.1-565.1-2814.1-565z"/>
	<path id="Path_60674" class="st1" d="M-2812.7-567.7c0,0.2-2.6,0.1-5.6,0.6c-3.1,0.5-5.4,1.4-5.5,1.2c-0.1-0.1,2.2-1.4,5.4-1.9
		C-2815.3-568.3-2812.7-567.9-2812.7-567.7z"/>
	<path id="Path_60675" class="st1" d="M-2812-569c0,0.2-1.9,0.4-4.3,0.8s-4.2,0.8-4.3,0.6s1.8-0.9,4.2-1.3S-2812-569.2-2812-569z"/>
	<path id="Path_60676" class="st1" d="M-2809.1-570.3c0,0.2-2,0.2-4.5,0.5s-4.4,0.8-4.5,0.6c-0.1-0.2,1.9-0.9,4.4-1.3
		S-2809.1-570.5-2809.1-570.3z"/>
	<path id="Path_60677" class="st1" d="M-2806.2-572.3c0,0.2-2.1,0.2-4.6,0.5s-4.5,0.6-4.6,0.5c0-0.2,1.9-0.8,4.5-1.1
		S-2806.2-572.5-2806.2-572.3z"/>
	<path id="Path_60678" class="st1" d="M-2828.1-534.4c0,0.2-1.8,0.7-4,1.2c-0.9,0.1-1.9,0.5-2.7,0.9c-0.6,0.4-0.8,0.8-0.9,0.7
		c-0.1,0,0-0.6,0.7-1.1c0.8-0.6,1.8-1,2.8-1.2C-2830-534.3-2828.1-534.5-2828.1-534.4z"/>
	<path id="Path_60679" class="st1" d="M-2826.9-536.8c0,0.2-1.9,0.5-4.1,1.1s-4,1.4-4.1,1.2c-0.1-0.1,1.6-1.2,3.9-1.8
		S-2827-536.9-2826.9-536.8z"/>
	<path id="Path_60680" class="st1" d="M-2826-539.5c0,0.2-2.1,0.8-4.7,1.5c-1.1,0.3-2.1,0.7-3.1,1.3c-0.7,0.5-1.1,0.9-1.2,0.8
		c-0.1,0,0.2-0.6,0.9-1.2c1-0.7,2-1.2,3.2-1.5C-2828.2-539.2-2826-539.6-2826-539.5z"/>
	<path id="Path_60681" class="st1" d="M-2824.9-541.7c0,0.2-2.3,0.6-5.1,1.6c-1.6,0.7-3.1,1.5-4.6,2.5c-0.2-0.1,1.5-2.1,4.3-3.1
		C-2828.6-541.4-2826.8-541.8-2824.9-541.7z"/>
	<path id="Path_60682" class="st1" d="M-2825.2-544.5c0,0.2-2.3,1-5.3,1.8c-1.3,0.3-2.5,0.8-3.6,1.4c-0.9,0.5-1.3,0.9-1.3,0.9
		c-0.1,0,0.2-0.6,1.1-1.3c1.1-0.7,2.4-1.3,3.7-1.6C-2827.7-544.2-2825.3-544.7-2825.2-544.5z"/>
	<path id="Path_60683" class="st1" d="M-2823.5-547.5c0,0.2-2.5,0.4-5.4,1.5c-2.9,1.1-4.9,2.6-5.1,2.4c-0.1-0.1,1.8-1.9,4.8-3
		C-2826.1-547.7-2823.5-547.6-2823.5-547.5z"/>
	<path id="Path_60684" class="st1" d="M-2822.7-550.1c0,0.2-2.9,0.6-6.3,1.7c-1.5,0.4-2.9,1-4.2,1.7c-1,0.6-1.5,1.1-1.6,1.1
		c-0.1,0,0.3-0.8,1.3-1.5c1.3-0.8,2.8-1.4,4.3-1.9C-2825.7-550.1-2822.7-550.2-2822.7-550.1z"/>
	<path id="Path_60685" class="st1" d="M-2821.5-552.1c0,0.2-3,0.3-6.4,1.4c-3.5,1-6,2.6-6.1,2.4c-0.1-0.1,2.4-1.9,5.9-3
		C-2824.6-552.4-2821.5-552.2-2821.5-552.1z"/>
	<path id="Path_60686" class="st1" d="M-2821.7-554.4c0,0.2-2.4,0.5-5.3,1.4c-2.9,0.9-5.1,2-5.2,1.8c-0.1-0.1,2-1.6,5-2.5
		C-2824.2-554.5-2821.7-554.5-2821.7-554.4z"/>
	<path id="Path_60687" class="st1" d="M-2797.9-487c0,0.2-2.4,0.2-5.3,0.1s-5.3-0.4-5.2-0.6s2.4-0.2,5.3-0.1
		S-2797.9-487.2-2797.9-487z"/>
	<path id="Path_60688" class="st1" d="M-2803.1-489.7c0,0.2-2.2,0.5-4.9,0.4s-4.9-0.7-4.8-0.8c0-0.2,2.2,0.1,4.8,0.2
		S-2803.1-489.8-2803.1-489.7z"/>
	<path id="Path_60689" class="st1" d="M-2808.9-492.2c0,0.2-1.8,0.4-4,0.3s-4-0.5-4-0.7s1.8,0,4,0.1S-2808.9-492.4-2808.9-492.2z"/>
	<path id="Path_60690" class="st1" d="M-2812.2-495c0,0.2-1.8,0.5-4,0.3s-3.9-0.7-3.9-0.9s1.8,0.1,3.9,0.2S-2812.3-495.2-2812.2-495
		z"/>
	<path id="Path_60691" class="st1" d="M-2814.3-497.6c0,0.2-2,0.3-4.4,0.3s-4.4-0.1-4.4-0.3s2-0.3,4.4-0.3
		S-2814.3-497.8-2814.3-497.6z"/>
	<path id="Path_60692" class="st1" d="M-2817.4-500.1c0,0.2-1.7,0.2-3.8,0.3s-3.8,0.1-3.8,0s1.7-0.5,3.8-0.6
		S-2817.4-500.2-2817.4-500.1z"/>
	<path id="Path_60693" class="st1" d="M-2819.4-501.9c0,0.2-1.6,0.2-3.6,0.3s-3.6,0.2-3.6,0s1.6-0.5,3.6-0.6
		S-2819.4-502-2819.4-501.9z"/>
	<path id="Path_60694" class="st1" d="M-2818.4-503.8c0,0.2-1.8,0.3-4.1,0.3s-4.1-0.1-4.1-0.3s1.8-0.3,4.1-0.3
		S-2818.4-504-2818.4-503.8z"/>
	<path id="Path_60695" class="st1" d="M-2821.4-506c0,0.2-1.3,0.2-2.8,0.3s-2.8,0.1-2.8,0s1.2-0.5,2.8-0.6S-2821.4-506.2-2821.4-506
		z"/>
	<path id="Path_60696" class="st1" d="M-2755.7-497.6c0-0.2,3-1,6.7-2.2s6.6-2.4,6.7-2.2c0.1,0.2-2.8,1.6-6.5,2.8
		S-2755.7-497.5-2755.7-497.6z"/>
	<path id="Path_60697" class="st1" d="M-2751.6-501.6c-0.1-0.2,1.9-1,4.3-1.8s4.5-1.4,4.5-1.2c0.1,0.2-1.9,1-4.3,1.8
		C-2749.5-502-2751.5-501.5-2751.6-501.6z"/>
	<path id="Path_60698" class="st1" d="M-2747.5-505c-0.1-0.2,1.4-0.8,3.2-1.3c1.8-0.6,3.4-0.9,3.4-0.7s-1.4,0.8-3.2,1.3
		C-2745.9-505.2-2747.4-504.9-2747.5-505z"/>
	<path id="Path_60699" class="st1" d="M-2742.9-508.2c0-0.2,0.5-0.5,1.3-0.8s1.4-0.5,1.4-0.3c0.1,0.2-0.4,0.6-1.2,0.9
		C-2742.2-508.1-2742.9-508-2742.9-508.2z"/>
	<path id="Path_60700" class="st1" d="M-2732.6-530.4c0,29-23.5,52.5-52.5,52.5c-29,0-52.5-23.5-52.5-52.5c0-29,23.5-52.5,52.5-52.5
		C-2756.1-582.9-2732.6-559.4-2732.6-530.4z M-2834.8-530.4c0,27.4,22.3,49.7,49.7,49.7c27.4,0,49.7-22.3,49.7-49.7
		c0-27.4-22.3-49.7-49.7-49.7C-2812.6-580.1-2834.8-557.9-2834.8-530.4z"/>
	<g id="Group_40364" transform="translate(-2090.739 3254.657)">
		<path id="Path_60702" class="st1" d="M-708.5-3736.9c-0.2-0.2-0.2-0.5,0-0.7c0.2-0.2,0.5-0.2,0.7,0c0,0,0,0,0,0
			c0.2,0.2,0.2,0.5,0,0.7C-708-3736.8-708.3-3736.8-708.5-3736.9C-708.5-3736.9-708.5-3736.9-708.5-3736.9z"/>
	</g>
</g>
<linearGradient id="Path_51135_1_" gradientUnits="userSpaceOnUse" x1="-235.3623" y1="450.6968" x2="-233.6453" y2="453.1668" gradientTransform="matrix(24.55 0 0 -17.071 5809.7568 7769.1777)">
	<stop  offset="0" style="stop-color:#00FF36"/>
	<stop  offset="0" style="stop-color:#00FE38"/>
	<stop  offset="1" style="stop-color:#0168FF"/>
</linearGradient>
<path id="Path_51135" class="st2" d="M40,47.4l0.1,0.5l2.5,16.3l0,0.1l0,0.2h4v-1.2h-2.9l-1.9-12.8l6.5,5.5l0.2,0.2l0.1-0.2l3.8-6.4
	l3.8,6.4l0.1,0.2l0.2-0.2l6.5-5.5l-1.9,12.7H58v1.2h4l0-0.2l2.5-16.4l0.1-0.5l-0.4,0.3l-7.6,6.5l-3.8-6.4l-0.1-0.1h-0.8l-0.1,0.1
	l-3.8,6.4l-7.6-6.5L40,47.4z"/>
<linearGradient id="Path_51136_1_" gradientUnits="userSpaceOnUse" x1="-196.6258" y1="163.9127" x2="-187.8138" y2="197.8597" gradientTransform="matrix(4.782 0 0 -1.241 976.4839 283.3288)">
	<stop  offset="0" style="stop-color:#00FF36"/>
	<stop  offset="0" style="stop-color:#00FE38"/>
	<stop  offset="1" style="stop-color:#0168FF"/>
</linearGradient>
<path id="Path_51136" class="st3" d="M50.1,63.2h-0.2v1.2h4.8v-1.2H50.1z"/>
<linearGradient id="Path_51137_1_" gradientUnits="userSpaceOnUse" x1="-208.8553" y1="411.7031" x2="-202.1622" y2="418.3941" gradientTransform="matrix(6.298 0 0 -6.298 1335.6271 2656.8594)">
	<stop  offset="0" style="stop-color:#00FF36"/>
	<stop  offset="0" style="stop-color:#00FE38"/>
	<stop  offset="1" style="stop-color:#0168FF"/>
</linearGradient>
<path id="Path_51137" class="st4" d="M40.8,46.6c1.7,0,3.1-1.4,3.1-3.1c0-1.7-1.4-3.1-3.1-3.1s-3.1,1.4-3.1,3.1
	C37.6,45.2,39,46.6,40.8,46.6L40.8,46.6z M40.8,41.5c1.1,0,1.9,0.9,1.9,1.9c0,1.1-0.9,1.9-1.9,1.9c-1.1,0-1.9-0.9-1.9-1.9
	c0-0.5,0.2-1,0.6-1.3C39.8,41.7,40.3,41.5,40.8,41.5z"/>
<linearGradient id="Path_51138_2_" gradientUnits="userSpaceOnUse" x1="-209.7704" y1="410.7882" x2="-203.0774" y2="417.4792" gradientTransform="matrix(6.298 0 0 -6.298 1347.1521 2656.8594)">
	<stop  offset="0" style="stop-color:#00FF36"/>
	<stop  offset="0" style="stop-color:#00FE38"/>
	<stop  offset="1" style="stop-color:#0168FF"/>
</linearGradient>
<path id="Path_51138" class="st5" d="M52.3,46.6c1.7,0,3.1-1.4,3.1-3.1c0-1.7-1.4-3.1-3.1-3.1s-3.1,1.4-3.1,3.1
	C49.1,45.2,50.6,46.6,52.3,46.6L52.3,46.6z M52.3,41.5c1.1,0,1.9,0.9,1.9,1.9c0,1.1-0.9,1.9-1.9,1.9c-1.1,0-1.9-0.9-1.9-1.9l0,0
	C50.4,42.4,51.2,41.5,52.3,41.5C52.3,41.5,52.3,41.5,52.3,41.5L52.3,41.5z"/>
<linearGradient id="Path_51138_3_" gradientUnits="userSpaceOnUse" x1="-207.9051" y1="410.7881" x2="-201.2121" y2="417.4791" gradientTransform="matrix(6.298 0 0 -6.298 1347.1521 2656.8594)">
	<stop  offset="0" style="stop-color:#00FF36"/>
	<stop  offset="0" style="stop-color:#00FE38"/>
	<stop  offset="1" style="stop-color:#0168FF"/>
</linearGradient>
<path id="Path_51138_1_" class="st6" d="M64,46.6c1.7,0,3.1-1.4,3.1-3.1s-1.4-3.1-3.1-3.1c-1.7,0-3.1,1.4-3.1,3.1S62.3,46.6,64,46.6
	L64,46.6z M64,41.5c1.1,0,1.9,0.9,1.9,1.9c0,1.1-0.9,1.9-1.9,1.9c-1.1,0-1.9-0.9-1.9-1.9l0,0C62.1,42.4,63,41.5,64,41.5
	C64,41.5,64,41.5,64,41.5L64,41.5z"/>
<linearGradient id="Path_51140_1_" gradientUnits="userSpaceOnUse" x1="-240.8746" y1="467.0607" x2="-240.1896" y2="467.7467" gradientTransform="matrix(61.5783 0 0 -61.5864 14863.1279 28838.918)">
	<stop  offset="0" style="stop-color:#00FF36"/>
	<stop  offset="0" style="stop-color:#00FE38"/>
	<stop  offset="1" style="stop-color:#0168FF"/>
</linearGradient>
<path id="Path_51140" class="st7" d="M79,37.4c-2.5-4.4-6.1-8.2-10.4-10.9h-0.1l-0.2-0.1l-0.1,0.2l-0.5,0.7l-0.1,0.2l0.2,0.1H68
	c1.7,1.1,3.3,2.3,4.7,3.7l-3.9,3.9c-4.3-4.1-9.9-6.4-15.8-6.5V23c2.7,0.1,5.5,0.5,8.1,1.3h0.1l0.2,0.1v-0.2l0.3-0.8v-0.2l-0.2-0.1
	h-0.1c-16.2-5-33.5,4.1-38.5,20.3S26.9,76.9,43.2,82c16.2,5,33.5-4.1,38.5-20.3C84.2,53.5,83.2,44.8,79,37.4z M51.7,28.5
	C45.8,28.7,40.2,31,36,35.1l-3.9-3.9c5.3-5.1,12.3-8,19.6-8.1L51.7,28.5z M35.1,35.9c-4.1,4.3-6.5,9.9-6.6,15.8h-5.5
	c0.1-7.4,3-14.5,8.2-19.8L35.1,35.9z M28.5,52.9c0.1,5.9,2.5,11.6,6.5,15.8l-3.9,3.9c-5.1-5.3-8.1-12.3-8.2-19.7L28.5,52.9z
	 M32,73.6l3.9-3.9c4.3,4.1,9.9,6.4,15.8,6.5v5.6C44.3,81.6,37.3,78.7,32,73.6L32,73.6z M52.3,29.8c12.5,0,22.6,10.1,22.6,22.6
	S64.8,75,52.3,75S29.7,64.8,29.7,52.4S39.8,29.8,52.3,29.8L52.3,29.8z M52.9,76.2c5.9-0.1,11.6-2.5,15.8-6.6l3.9,3.9
	c-5.3,5.2-12.4,8.1-19.8,8.3V76.2z M69.6,68.7c4.1-4.3,6.4-9.9,6.5-15.8h5.6c-0.1,7.4-3.1,14.4-8.2,19.7L69.6,68.7z M73.5,32
	c1.7,1.8,3.2,3.8,4.4,5.9c2.4,4.2,3.7,8.9,3.8,13.8h-5.6c-0.2-5.9-2.5-11.4-6.5-15.7L73.5,32z M22,55.4c0.2,1.5,0.4,3,0.8,4.4
	C22.4,58.4,22.1,56.9,22,55.4L22,55.4z M24.7,65.4c0.4,0.9,0.9,1.8,1.4,2.6C25.6,67.1,25.2,66.3,24.7,65.4L24.7,65.4z M78.5,68
	c0.5-0.8,1-1.7,1.4-2.6C79.4,66.3,79,67.2,78.5,68L78.5,68z M81.9,59.8c0.4-1.5,0.6-2.9,0.8-4.4C82.5,56.9,82.2,58.4,81.9,59.8
	L81.9,59.8z"/>
</svg>
