<svg xmlns="http://www.w3.org/2000/svg" width="228.344" height="48.059" viewBox="0 0 228.344 48.059">
  <g id="Group_65816" data-name="Group 65816" transform="translate(2262.248 4009.123)">
    <g id="Group_65775" data-name="Group 65775" transform="translate(-2262.248 -4009.123)">
      <path id="Path_183311" data-name="Path 183311" d="M-2217.622-3973.67c-.087.084-.109-.015-.138-.057-.182-.259-.347-.529-.517-.8-.583-.916-1.175-1.826-1.76-2.741q-1.5-2.344-3.007-4.683c-.631-.984-1.26-1.97-1.9-2.951-.694-1.072-1.375-2.152-2.072-3.221-.114-.174-.117-.177-.227.01q-1.574,2.666-3.144,5.334c-.262.448-.292.3.019.8q1.117,1.8,2.231,3.607,1.657,2.677,3.314,5.357,1.4,2.261,2.8,4.521l.488.792a.252.252,0,0,1,.064.181,1.1,1.1,0,0,1-.355.232c-.4.234-.79.467-1.191.69-.056.031-.108.078-.181.06l-.01-.009a1.936,1.936,0,0,1-.3-.426c-.912-1.442-1.831-2.88-2.743-4.321q-1.578-2.5-3.162-4.988c-.8-1.26-1.6-2.515-2.4-3.777a.192.192,0,0,0-.093-.1,1.155,1.155,0,0,0-.17.262c-.764,1.3-1.534,2.6-2.3,3.9q-.712,1.21-1.428,2.418a.3.3,0,0,0,.007.359c.553.85,1.092,1.709,1.638,2.563.814,1.271,1.619,2.548,2.432,3.819q.975,1.523,1.942,3.049a4.625,4.625,0,0,1,.465.777v0c-.029.09-.111.12-.182.161q-2.118,1.233-4.24,2.457c-.547.317-1.091.638-1.641.949a1.29,1.29,0,0,1-1.267.023c-.549-.275-1.068-.605-1.6-.91-1.568-.9-3.13-1.8-4.7-2.7-.28-.16-.559-.32-.835-.485-.058-.035-.137-.058-.132-.151v0q1.212-2.06,2.424-4.12,2.793-4.736,5.587-9.471,3.8-6.435,7.59-12.87c.042-.071.082-.142.135-.233h-.687l-3.294.011c-.949,0-1.9.011-2.846.01a.254.254,0,0,0-.253.142q-3.892,6.432-7.791,12.858-3.189,5.262-6.378,10.527l-1.43,2.363c-.051.085-.093.126-.146.131a.275.275,0,0,1-.158-.057q-.734-.443-1.486-.856c-.064-.036-.1-.065-.11-.1s.006-.081.046-.145q.757-1.207,1.511-2.415,1.28-2.048,2.557-4.1l11.369-18.229c.024-.039.046-.078.083-.141-.436-.013-.85-.03-1.263-.036a24.165,24.165,0,0,0-2.449-.006,7.57,7.57,0,0,0-3.331.962,4.288,4.288,0,0,0-1.41,1.369q-4.37,6.777-8.746,13.551c-.034.053-.076.1-.114.154l-.008-.01c-.072-.09-.042-.2-.042-.3,0-3.77.01-7.54-.007-11.311-.007-1.354-.031-2.707-.03-4.06a1.592,1.592,0,0,1,.847-1.486q3.946-2.277,7.885-4.565,3.787-2.193,7.577-4.381c.5-.29.993-.6,1.508-.86a1.421,1.421,0,0,1,1.42.042q4.4,2.522,8.8,5.056,4.051,2.327,8.1,4.655a1.61,1.61,0,0,1,.809,1,1.263,1.263,0,0,1,.037.337q0,8,0,16v.34A.641.641,0,0,1-2217.622-3973.67Z" transform="translate(2257.503 4004.403)" fill="#2d374b"/>
      <path id="Path_183312" data-name="Path 183312" d="M-2219.394-3994.835q0,4.637,0,9.273,0,1.453,0,2.907,0,3.082,0,6.164,0,.572,0,1.145a4.892,4.892,0,0,1-.067.816,4.375,4.375,0,0,1-1.364,2.494,5.531,5.531,0,0,1-1.079.692q-3.985,2.312-7.974,4.617l-1.615.935-2.413,1.4-3.823,2.214c-.448.259-.892.527-1.345.776a2.872,2.872,0,0,1-1.023.294,4.969,4.969,0,0,1-.722.045,4.442,4.442,0,0,1-2.242-.635c-1.55-.911-3.111-1.8-4.672-2.7q-.751-.429-1.5-.861c-.284-.163-.565-.331-.85-.491a.2.2,0,0,1-.059-.044c-.021-.025-.02-.055.009-.1q.731-1.227,1.456-2.457c.006-.009.019-.014.029-.021a2.47,2.47,0,0,0,.541.338l.531.306q3.09,1.782,6.188,3.552a1.266,1.266,0,0,0,.572.172,1.113,1.113,0,0,0,.61-.15c2.03-1.161,4.05-2.34,6.073-3.512.025-.015.048-.034.072-.05a.049.049,0,0,1,0-.011c.022-.05.072-.066.114-.09,1.925-1.121,3.855-2.233,5.78-3.352a.555.555,0,0,1,.227-.1c.472-.236.916-.522,1.375-.781.114-.064.227-.131.34-.2a.282.282,0,0,1,.14-.133c.979-.572,1.958-1.142,2.943-1.7a1.291,1.291,0,0,0,.7-1.2c0-.943,0-1.885,0-2.827a.356.356,0,0,1,.048-.257c0-.083.005-.167.005-.25v-.438q0-2.081,0-4.162,0-5.8,0-11.594a1.547,1.547,0,0,0-.356-1.056l0,0a1.811,1.811,0,0,0-.478-.383q-4.135-2.37-8.263-4.75l-.859-.494q-3.878-2.23-7.759-4.458a1.487,1.487,0,0,0-.715-.211,1.5,1.5,0,0,0-.779.215c-.916.522-1.827,1.052-2.739,1.581q-2.909,1.683-5.817,3.369l-1.2.695q-3.593,2.082-7.187,4.164a1.571,1.571,0,0,0-.358.28,1.394,1.394,0,0,0-.371.99q0,4.2.015,8.392,0,1.717.007,3.434,0,1.987.008,3.974c0,.006,0,.012-.008.018a4.889,4.889,0,0,1-.464.753c-.76,1.181-1.528,2.355-2.294,3.532-.052.08-.108.158-.168.245l-.019.028c-.066-.054-.048-.123-.048-.182q0-.875,0-1.75,0-2.993,0-5.986,0-1.618,0-3.234,0-4.671.011-9.342a4.616,4.616,0,0,1,.03-.511,4.031,4.031,0,0,1,.415-1.373,4.618,4.618,0,0,1,1.192-1.449,11.859,11.859,0,0,1,1.66-1.008q3.708-2.166,7.429-4.311l.735-.426,6.372-3.693c.49-.284.977-.571,1.472-.843a4.146,4.146,0,0,1,1.634-.49l.024,0c.061-.005.121-.01.183-.013s.137-.006.205-.007h.134l.064,0q.163,0,.324.019l.024,0a3.994,3.994,0,0,1,1.33.363c.472.224.916.509,1.37.769q2.014,1.154,4.027,2.311l2.75,1.583,1.568.9q2.012,1.157,4.026,2.313c1.289.742,2.593,1.462,3.86,2.241a4.037,4.037,0,0,1,1.562,1.739,5.007,5.007,0,0,1,.381,1.175c.013.063.023.127.033.192A4.981,4.981,0,0,1-2219.394-3994.835Z" transform="translate(2262.248 4009.123)" fill="#94bcda"/>
      <path id="Path_183313" data-name="Path 183313" d="M-2222.336-3972.223c-.052.091-.093.162-.135.233q-3.794,6.435-7.59,12.87l-5.587,9.472q-1.214,2.059-2.424,4.12v0c-.01.007-.023.012-.029.021q-.728,1.229-1.456,2.456c-.029.049-.03.08-.009.1l-1.615-.935-3.98-2.3c.052-.005.094-.046.146-.131l1.43-2.362q3.186-5.265,6.378-10.527,3.9-6.428,7.791-12.858a.255.255,0,0,1,.253-.142c.949,0,1.9-.007,2.846-.01l3.293-.011Z" transform="translate(2251.668 3986.274)" fill="#fdfdfd"/>
      <path id="Path_183314" data-name="Path 183314" d="M-2247.353-3912.673c.306.172.605.357.911.53l-1.43,2.363c-.051.085-.093.126-.146.131l-1.754-1.016c-.01-.037.006-.081.046-.145q.757-1.207,1.511-2.415l.382.223a.282.282,0,0,1,.14.133C-2247.579-3912.8-2247.467-3912.737-2247.353-3912.673Z" transform="translate(2254.524 3949.742)" fill="#2d374b"/>
      <path id="Path_183315" data-name="Path 183315" d="M-2225.474-3901.475l-.531-.306a2.489,2.489,0,0,1-.542-.337v0l.957.557C-2225.545-3901.542-2225.495-3901.525-2225.474-3901.475Z" transform="translate(2240.141 3942.868)" fill="#94bcda"/>
      <path id="Path_183316" data-name="Path 183316" d="M-2241.813-3972.344c-.036.063-.059.1-.083.141l-11.369,18.229q-1.278,2.049-2.558,4.1-.755,1.208-1.511,2.415c-.04.064-.056.107-.046.144l-2.24-1.3a5.508,5.508,0,0,1-1.078-.692,4.377,4.377,0,0,1-1.364-2.494c.06-.086.116-.165.168-.245.766-1.177,1.534-2.351,2.294-3.532a4.892,4.892,0,0,0,.464-.753v-.027l.008.009c.038-.051.079-.1.114-.154q4.374-6.775,8.746-13.551a4.289,4.289,0,0,1,1.41-1.368,7.566,7.566,0,0,1,3.331-.962,24.165,24.165,0,0,1,2.449.006C-2242.663-3972.375-2242.25-3972.357-2241.813-3972.344Z" transform="translate(2262.133 3986.396)" fill="#fdfdfd"/>
      <path id="Path_183317" data-name="Path 183317" d="M-2178.7-3952.3c0,1.072.014,2.143-.005,3.215a1.169,1.169,0,0,1-.591,1.033q-1.614.942-3.233,1.874-3.026-4.89-6.052-9.781-1.526-2.468-3.052-4.937a.227.227,0,0,1,0-.273q1.692-2.859,3.378-5.72c.021-.036.045-.069.084-.129.138.211.268.4.394.6l5.221,8.131,3.793,5.906A.863.863,0,0,0-2178.7-3952.3Z" transform="translate(2218.554 3983.053)" fill="#4b9eee"/>
      <path id="Path_183318" data-name="Path 183318" d="M-2192.839-3932a7.684,7.684,0,0,1-.819.5q-1.736,1.016-3.481,2.018c-.606.35-1.216.694-1.824,1.041q-.977-1.527-1.954-3.055-2.3-3.6-4.591-7.2a.232.232,0,0,1,0-.284q1.937-3.275,3.867-6.552a.381.381,0,0,1,.12-.16l1.608,2.533,7.026,11.069C-2192.872-3932.06-2192.856-3932.027-2192.839-3932Z" transform="translate(2227.146 3969.846)" fill="#4b9eee"/>
    </g>
    <g id="Group_65776" data-name="Group 65776" transform="translate(-2212.308 -3991.815)">
      <path id="Path_183319" data-name="Path 183319" d="M-1713.987-3956.473q0-2.422,0-4.843c0-.1,0-.2,0-.3.027-1.433.4-1.8,1.844-1.815.593-.006,1.187.023,1.779,0a1.84,1.84,0,0,1,1.938,1.281c1.1,2.593,2.228,5.17,3.347,7.753.144.332.3.661.434,1,.092.226.194.413.485.408s.383-.194.479-.417c1.234-2.856,2.5-5.7,3.7-8.57a2.013,2.013,0,0,1,2.176-1.457c.673.043,1.352-.006,2.025.031.866.048,1.2.374,1.322,1.236a6.11,6.11,0,0,1,.037.838q0,5.041,0,10.081c0,.678-.043.718-.736.72-.428,0-.857.005-1.285,0-.6-.006-.649-.05-.649-.647q0-4.422,0-8.845c0-.1,0-.2,0-.3-.007-.177.032-.387-.219-.431s-.354.112-.441.309c-.43.961-.867,1.921-1.3,2.881q-1.188,2.634-2.373,5.268a4.55,4.55,0,0,1-.63,1.057,1.751,1.751,0,0,1-1.173.659,10,10,0,0,1-1.775.023,2.191,2.191,0,0,1-1.873-1.545c-.85-1.856-1.683-3.72-2.522-5.58l-1.218-2.7c-.089-.2-.171-.418-.448-.372-.311.052-.238.315-.238.515q-.006,4.373,0,8.747c0,.958,0,.958-.935.957-.379,0-.759-.015-1.136,0-.444.022-.615-.158-.611-.61C-1713.977-3952.916-1713.987-3954.694-1713.987-3956.473Z" transform="translate(1872.827 3963.53)" fill="#fff"/>
      <path id="Path_183320" data-name="Path 183320" d="M-1999.432-3956.942q0-2.866,0-5.732c0-.6.115-.727.722-.728q5.262,0,10.524.006a5.847,5.847,0,0,1,1.516.183,2.278,2.278,0,0,1,1.786,1.9,7.774,7.774,0,0,1,.018,2.557,2.184,2.184,0,0,1-.765,1.348c-.21.179-.31.294-.017.509a2.252,2.252,0,0,1,.929,1.877,10.19,10.19,0,0,1-.1,2.461,2.379,2.379,0,0,1-2.176,1.979,7.379,7.379,0,0,1-.984.073q-5.336.008-10.673,0c-.693,0-.786-.1-.787-.805Q-1999.434-3954.126-1999.432-3956.942Zm6.991,3.924v0c1.217,0,2.434.011,3.651,0,1.03-.013,1.343-.345,1.356-1.382,0-.1,0-.2,0-.3-.038-.933-.363-1.305-1.288-1.315-2.516-.025-5.032-.011-7.548-.022-.284,0-.367.1-.362.375.014.707.023,1.415,0,2.121-.015.417.147.539.548.532C-1994.876-3953.031-1993.658-3953.018-1992.442-3953.018Zm0-5.015c.247,0,.494,0,.741,0,1.021,0,2.043.013,3.063-.023.844-.03,1.146-.376,1.157-1.2q0-.173,0-.346c0-.89-.316-1.25-1.206-1.257-2.5-.019-5.007,0-7.511-.017-.361,0-.45.16-.444.481.013.642.019,1.285,0,1.927-.012.341.092.453.445.448C-1994.943-3958.046-1993.691-3958.033-1992.439-3958.033Z" transform="translate(2049.572 3963.505)" fill="#fff"/>
      <path id="Path_183321" data-name="Path 183321" d="M-2062.179-3956.913q0-2.816,0-5.632c0-.752.1-.86.853-.861q4.692,0,9.385,0a7.546,7.546,0,0,1,1.862.2,2.775,2.775,0,0,1,2.156,2.26,9.786,9.786,0,0,1,.049,3.488,2.772,2.772,0,0,1-2.216,2.481c-.36.088-.383.191-.152.471.921,1.118,1.824,2.251,2.731,3.379.112.139.272.277.167.478-.091.174-.281.143-.443.143-.675,0-1.351-.013-2.025.007a.863.863,0,0,1-.79-.392c-.834-1.124-1.694-2.227-2.531-3.348a.73.73,0,0,0-.657-.334c-1.712.013-3.425.019-5.137,0-.387,0-.467.129-.458.483.021.988-.012,1.976.017,2.963.015.488-.187.646-.642.631-.51-.018-1.021-.019-1.531,0-.461.02-.646-.157-.642-.633.017-1.926.007-3.852.007-5.779Zm6.7-3.976v0c-1.1,0-2.206.018-3.309-.009-.44-.01-.617.1-.6.576.032,1,.031,2.008,0,3.011-.012.425.141.525.537.521,2.091-.016,4.181-.006,6.272-.012a6.062,6.062,0,0,0,.884-.073,1.224,1.224,0,0,0,1.068-1.018,5.293,5.293,0,0,0,.063-1.279c-.006-1.229-.482-1.71-1.7-1.719C-2053.335-3960.895-2054.405-3960.888-2055.475-3960.888Z" transform="translate(2088.426 3963.508)" fill="#fff"/>
      <path id="Path_183322" data-name="Path 183322" d="M-1841.936-3956.936q0-2.865,0-5.73c0-.608.117-.739.711-.739q4.866,0,9.732.006a8.914,8.914,0,0,1,1.229.1,2.832,2.832,0,0,1,2.565,2.374,9.333,9.333,0,0,1,.024,3.581,2.732,2.732,0,0,1-2.171,2.352c-.414.1-.374.231-.152.5q1.33,1.624,2.637,3.266c.127.159.353.31.229.552s-.378.154-.581.156c-.626.009-1.252-.014-1.877.008a.864.864,0,0,1-.789-.395c-.837-1.122-1.7-2.226-2.532-3.348a.728.728,0,0,0-.658-.332c-1.7.012-3.392.017-5.088,0-.387,0-.515.11-.506.5.023,1,0,2.009.012,3.013.006.4-.153.571-.554.56-.527-.015-1.054,0-1.581,0-.6-.005-.651-.057-.652-.646Q-1841.937-3954.047-1841.936-3956.936Zm6.683-3.953v0c-1.1,0-2.2.019-3.306-.009-.446-.011-.616.115-.6.578q.042,1.505,0,3.01c-.011.424.148.524.543.521,2.106-.016,4.212-.005,6.318-.01a4.767,4.767,0,0,0,.736-.06,1.272,1.272,0,0,0,1.2-1.325c.021-.328.011-.658.01-.987,0-1.233-.468-1.71-1.693-1.719C-1833.114-3960.9-1834.183-3960.889-1835.253-3960.889Z" transform="translate(1952.05 3963.508)" fill="#fff"/>
      <path id="Path_183323" data-name="Path 183323" d="M-1779.958-3958.636c0-1.384.016-2.768-.009-4.151-.009-.486.184-.65.641-.633.51.018,1.022.023,1.532,0,.481-.023.627.184.623.647-.017,2.306-.013,4.612-.005,6.918a9.214,9.214,0,0,0,.088,1.23,1.419,1.419,0,0,0,1.352,1.407,44.562,44.562,0,0,0,7.15,0c.91-.071,1.336-.648,1.391-1.635.049-.87.033-1.745.035-2.618,0-1.763,0-3.525,0-5.288,0-.566.092-.652.663-.657.527,0,1.054,0,1.581,0,.389-.007.564.151.562.559-.012,2.669-.008,5.337-.016,8.006a6.341,6.341,0,0,1-.216,1.563,3.461,3.461,0,0,1-3.488,2.683,61.154,61.154,0,0,1-8.1,0c-2.414-.163-3.657-1.495-3.758-3.929-.056-1.365-.01-2.734-.01-4.1Z" transform="translate(1913.678 3963.518)" fill="#fff"/>
      <path id="Path_183324" data-name="Path 183324" d="M-2115.213-3950.672c-1.141.335-1.754-.265-2.084-1.244-.4-1.182-1.164-1.485-2.383-1.42-2.183.117-4.378.04-6.567.025a.694.694,0,0,0-.731.431c-.293.607-.64,1.188-.942,1.791a.692.692,0,0,1-.708.419c-.658-.014-1.317,0-1.975-.006-.562-.005-.617-.117-.321-.661q2-3.663,4-7.323c.631-1.156,1.256-2.314,1.891-3.468a3.135,3.135,0,0,1,4.088-1.219,2.408,2.408,0,0,1,.969,1.027q2.255,4.085,4.506,8.171c.524.951,1.051,1.9,1.572,2.854.287.524.229.614-.372.62-.165,0-.329,0-.494,0Zm-7.235-4.721c.938,0,1.877,0,2.815,0,.308,0,.389-.089.232-.376-.893-1.631-1.774-3.268-2.669-4.9-.225-.409-.49-.408-.714.006-.877,1.621-1.74,3.249-2.617,4.87-.161.3-.114.4.237.4C-2124.259-3955.4-2123.353-3955.392-2122.448-3955.393Z" transform="translate(2131.102 3963.672)" fill="#fff"/>
      <path id="Path_183325" data-name="Path 183325" d="M-1897.793-3963.407q3.434,0,6.868,0c.642,0,.708.067.713.7,0,.428-.017.857.007,1.284.027.471-.169.646-.637.642-1.663-.015-3.327.012-4.99-.018-.478-.009-.606.124-.6.6.021,2.981.011,5.962.011,8.943,0,.709-.035.742-.763.744-.461,0-.922,0-1.383,0-.574,0-.657-.08-.657-.657q0-4.3,0-8.6c0-1.02,0-1.021-1-1.021-1.515,0-3.031,0-4.546,0-.574,0-.667-.094-.674-.651-.006-.428-.006-.856,0-1.285.005-.589.1-.686.7-.686Q-1901.276-3963.41-1897.793-3963.407Z" transform="translate(1991.382 3963.508)" fill="#fff"/>
      <path id="Path_183326" data-name="Path 183326" d="M-1936.236-3956.943v-5.779c0-.61.064-.677.68-.682.527,0,1.054,0,1.581,0,.366,0,.528.153.528.539q-.012,5.9,0,11.806c0,.405-.154.568-.553.558-.543-.015-1.087-.019-1.63,0-.445.016-.614-.163-.61-.612.015-1.943.006-3.886.006-5.829Z" transform="translate(2010.443 3963.507)" fill="#fff"/>
    </g>
  </g>
</svg>
