<svg id="Layer_1" data-name="Layer 1" xmlns="http://www.w3.org/2000/svg" viewBox="0 0 600 141.6"><defs><style>.cls-1,.cls-2{fill:#fff;}.cls-2{isolation:isolate;opacity:0.3;}</style></defs><path class="cls-1" d="M8.1,40v61.5L0,106.2V35.3Z"/><path class="cls-1" d="M122.8,35.4l-8.1,4.7L61.4,9.3V0Z"/><path class="cls-1" d="M122.8,106.2,61.4,141.6v-9.3l53.3-30.8Z"/><path class="cls-2" d="M61.4,132.3v9.3L.1,106.2l8.1-4.7Z"/><path class="cls-2" d="M122.8,35.4v70.9l-8.1-4.7V40.1Z"/><path class="cls-2" d="M61.4,0V9.3L8.1,40.1,0,35.4Z"/><path class="cls-1" d="M61.4,39.1l21.1,6.4a1.21,1.21,0,0,1,.7.7,1.64,1.64,0,0,1,.1,1,1.56,1.56,0,0,1-.6.8,1.49,1.49,0,0,1-.9.2L61.4,42.1,41.1,48.2a1,1,0,0,1-.9-.2,1.24,1.24,0,0,1-.6-.8,1.18,1.18,0,0,1,.1-1,1.58,1.58,0,0,1,.7-.7Z"/><path class="cls-1" d="M91.9,49.2a1.23,1.23,0,0,0-.4-.8,2,2,0,0,0-.8-.4,2,2,0,0,0-.8.1.9.9,0,0,0-.6.6L77.1,72.6H45.8L33.6,48.8a1.7,1.7,0,0,0-.6-.6,1.88,1.88,0,0,0-.8-.2A1.41,1.41,0,0,0,31,49.2a60.5,60.5,0,0,0,1.2,23.2c3,11.9,10.6,25.8,28.6,34.6l.6.3.6-.3c18-8.8,25.7-22.7,28.7-34.6A60.4,60.4,0,0,0,91.9,49.2ZM34.8,71.8A59.14,59.14,0,0,1,33.2,54L43.8,74.7l14.4,27.9A48.17,48.17,0,0,1,34.8,71.8Zm26.6,31.1L47.2,75.4H75.6ZM88,71.8a47.89,47.89,0,0,1-23.5,30.8L79,74.7,89.6,54A56.61,56.61,0,0,1,88,71.8Z"/><path class="cls-1" d="M165,76.3a10,10,0,0,0,2.9,2,6.65,6.65,0,0,0,3.4.6h44.3v-6H171.3a2.75,2.75,0,0,1-2.9-2.9V34.4a4.25,4.25,0,0,1,.2-1.1,2.84,2.84,0,0,1,.6-.9,5.5,5.5,0,0,1,.9-.7,2.15,2.15,0,0,1,1.1-.2h44.4v-6H171.3a8,8,0,0,0-3.4.7,8.5,8.5,0,0,0-4.8,4.8,9.83,9.83,0,0,0-.7,3.4V70a9.74,9.74,0,0,0,.6,3.4,10,10,0,0,0,2,2.9Zm85-50.8V78.9h48.8v-6H256.1V55.2h34.3V49.1H256.1V31.4h42.7v-6H250Zm83.1,53.4V25.6h44.5a9.19,9.19,0,0,1,6.3,2.6,8.77,8.77,0,0,1,2.6,6.3V50.1a8,8,0,0,1-.7,3.4,8.5,8.5,0,0,1-4.8,4.8,7.89,7.89,0,0,1-3.4.6h-8.2l16.8,19.8v.1h-7.9L361.6,58.9l-22.5-.1V78.7h-6ZM342,53h35.6a4.25,4.25,0,0,0,1.1-.2,2.84,2.84,0,0,0,.9-.6,2.36,2.36,0,0,0,.6-.9,3.59,3.59,0,0,0,.2-1.1V34.5a4.25,4.25,0,0,0-.2-1.1,2.84,2.84,0,0,0-.6-.9,3.11,3.11,0,0,0-.9-.7,2,2,0,0,0-1.1-.2H342a3.59,3.59,0,0,0-1.1.2,2.18,2.18,0,0,0-.9.7,2.36,2.36,0,0,0-.6.9,3.59,3.59,0,0,0-.2,1.1V50.1a4.25,4.25,0,0,0,.2,1.1,1.8,1.8,0,0,0,.6.9,2.52,2.52,0,0,0,2,.9Zm99.9-21.5V78.9h6V31.5h23.7v-6H418.2v6Zm61.4-6h6.1V78.9h-6.1Zm42.7,0V78.9h6.1V55.2h17.2l19.9,23.7H597v-.1L574.6,52.2l22.3-26.6v-.1h-7.7L569.3,49.2H552.1V25.5Z"/><path class="cls-1" d="M509.5,79h-6.3V25.4h6.3Zm-6.1-.2h5.9V25.6h-5.9Zm93.7.2h-7.9L569.3,55.4H552.2V79.1h-6.3V25.5h6.3V49.2h17l19.9-23.7H597v.2h0L574.7,52.3l22.4,26.6Zm-7.8-.2h7.6L574.5,52.2l.1-.1,22.2-26.5h-7.5L569.4,49.3H552V25.6h-5.9V78.8H552V55.1h17.4ZM448,79h-6.2V31.6H418.1V25.4h53.6v6.2H448V79Zm-6-.2h5.8V31.4h23.7V25.6H418.3v5.8H442Zm-55.7.2h-8.1L361.5,59.2l-22.3-.1v20H333V25.5h44.6a8.69,8.69,0,0,1,6.3,2.7,9.49,9.49,0,0,1,2.7,6.3V50.2a8.79,8.79,0,0,1-2.7,6.4,10,10,0,0,1-2.9,2,8.42,8.42,0,0,1-3.5.7h-7.9L386.2,79Zm-8-.2H386L369.2,58.9h8.4a8.29,8.29,0,0,0,3.4-.7,7.74,7.74,0,0,0,2.8-1.9,8.12,8.12,0,0,0,1.9-2.9,9.83,9.83,0,0,0,.7-3.4V34.4a9.14,9.14,0,0,0-2.6-6.2,9,9,0,0,0-6.2-2.6H333.2V78.8H339v-20l22.6.1h0Zm-79.4.2h-49V25.4h49v6.2H256.2V49h34.3v6.3H256.2V72.8h42.7Zm-48.7-.2h48.5V73H256V55.1h34.3V49.2H256V31.3h42.7V25.5H250.2Zm-34.4.2H171.3a8.79,8.79,0,0,1-6.4-2.7,10,10,0,0,1-2-2.9,8.42,8.42,0,0,1-.7-3.5V34.3a8.79,8.79,0,0,1,2.7-6.4,10,10,0,0,1,2.9-2,8.42,8.42,0,0,1,3.5-.7h44.5v6.2H171.3a4.25,4.25,0,0,0-1.1.2,2.84,2.84,0,0,0-.9.6,1.46,1.46,0,0,0-.6.9,3.55,3.55,0,0,0-.2,1V69.7a4.25,4.25,0,0,0,.2,1.1,1.8,1.8,0,0,0,.6.9,2.36,2.36,0,0,0,.9.6,3.59,3.59,0,0,0,1.1.2h44.5Zm-50.7-2.8a8.12,8.12,0,0,0,2.9,1.9,7.89,7.89,0,0,0,3.4.6h44.2V72.9H171.3a3.49,3.49,0,0,1-2.2-.8,3.1,3.1,0,0,1-.9-2.2V34.3a3.59,3.59,0,0,1,.2-1.1,3.33,3.33,0,0,1,.6-1,3.59,3.59,0,0,1,1-.7,2.54,2.54,0,0,1,1.2-.2h44.2V25.5H171.3a8,8,0,0,0-3.4.7,9.1,9.1,0,0,0-2.9,1.9,8.12,8.12,0,0,0-1.9,2.9,9.83,9.83,0,0,0-.7,3.4V70a9.74,9.74,0,0,0,.6,3.4,12.07,12.07,0,0,0,2.1,2.8ZM377.6,53.1H342a3.1,3.1,0,0,1-2.2-.9,2.07,2.07,0,0,1-.6-1,4.25,4.25,0,0,1-.2-1.1V34.5a3.59,3.59,0,0,1,.2-1.1,3.33,3.33,0,0,1,.6-1,3.59,3.59,0,0,1,1-.7,2.54,2.54,0,0,1,1.2-.2h35.6a3.59,3.59,0,0,1,1.1.2,2.18,2.18,0,0,1,.9.7,2.07,2.07,0,0,1,.6,1,4.25,4.25,0,0,1,.2,1.1V50.1a3.59,3.59,0,0,1-.2,1.1,3.33,3.33,0,0,1-.6,1,2.07,2.07,0,0,1-1,.6,1.69,1.69,0,0,1-1,.3ZM342,31.7a4.25,4.25,0,0,0-1.1.2,2.84,2.84,0,0,0-.9.6,2.36,2.36,0,0,0-.6.9,3.55,3.55,0,0,0-.2,1V50a3,3,0,0,0,.2,1,2.36,2.36,0,0,0,.6.9,3,3,0,0,0,2,.8h35.6a3,3,0,0,0,1-.2,2.36,2.36,0,0,0,.9-.6,1.46,1.46,0,0,0,.6-.9,3.55,3.55,0,0,0,.2-1V34.4a3,3,0,0,0-.2-1,2.36,2.36,0,0,0-.6-.9,1.46,1.46,0,0,0-.9-.6,3.59,3.59,0,0,0-1.1-.2Z"/><path class="cls-1" d="M180.1,112.4h-2v-.7a1,1,0,0,0-1-1H165.4a1,1,0,0,0-1,1v4a1.08,1.08,0,0,0,.3.7.91.91,0,0,0,.7.3h11.8a3.59,3.59,0,0,1,1.1.2,3.33,3.33,0,0,1,1,.6,2.07,2.07,0,0,1,.6,1,4.25,4.25,0,0,1,.2,1.1v4a3.59,3.59,0,0,1-.2,1.1,3.33,3.33,0,0,1-.6,1,2.07,2.07,0,0,1-1,.6,4.25,4.25,0,0,1-1.1.2H165.4a3.59,3.59,0,0,1-1.1-.2,3.33,3.33,0,0,1-1-.6,2.07,2.07,0,0,1-.6-1,4.25,4.25,0,0,1-.2-1.1v-.8h2v.7a1,1,0,0,0,1,1h11.8a1,1,0,0,0,1-1v-4a1.08,1.08,0,0,0-.3-.7.91.91,0,0,0-.7-.3H165.4a3.59,3.59,0,0,1-1.1-.2,3.33,3.33,0,0,1-1-.6,1.7,1.7,0,0,1-.6-1,4.25,4.25,0,0,1-.2-1.1v-4a3.59,3.59,0,0,1,.2-1.1,3.33,3.33,0,0,1,.6-1,2.07,2.07,0,0,1,1-.6,4.25,4.25,0,0,1,1.1-.2h11.8a3.59,3.59,0,0,1,1.1.2,3.33,3.33,0,0,1,1,.6,2.07,2.07,0,0,1,.6,1,4.25,4.25,0,0,1,.2,1.1Z"/><path class="cls-1" d="M177.2,126.5H165.4a5,5,0,0,1-1.2-.2,2.29,2.29,0,0,1-1-.7,3.59,3.59,0,0,1-.7-1,2.54,2.54,0,0,1-.2-1.2v-.8h2.3v.8a.86.86,0,0,0,.3.6c.2.2.4.2.6.3h11.8a.86.86,0,0,0,.6-.3c.2-.2.2-.4.3-.6v-4a.86.86,0,0,0-.3-.6.73.73,0,0,0-.6-.2H165.4a3.07,3.07,0,0,1-3.1-3.1v-4a5,5,0,0,1,.2-1.2,3.51,3.51,0,0,1,1.7-1.7,2.54,2.54,0,0,1,1.2-.2h11.8a5,5,0,0,1,1.2.2,3.51,3.51,0,0,1,1.7,1.7,2.54,2.54,0,0,1,.2,1.2v.8H178v-.8a.86.86,0,0,0-.3-.6c-.2-.2-.4-.2-.6-.3H165.4a.86.86,0,0,0-.6.3c-.2.2-.2.4-.3.6v4a.86.86,0,0,0,.3.6.73.73,0,0,0,.6.2h11.8a3.07,3.07,0,0,1,3.1,3.1v4a5,5,0,0,1-.2,1.2,3.51,3.51,0,0,1-1.7,1.7A2.54,2.54,0,0,1,177.2,126.5Zm-14.6-3.6v.6a4.25,4.25,0,0,0,.2,1.1,1.8,1.8,0,0,0,.6.9,2.36,2.36,0,0,0,.9.6,3.59,3.59,0,0,0,1.1.2h11.8a4.25,4.25,0,0,0,1.1-.2,1.8,1.8,0,0,0,.9-.6,2.36,2.36,0,0,0,.6-.9,3.59,3.59,0,0,0,.2-1.1v-4a3,3,0,0,0-.8-2,2.79,2.79,0,0,0-2-.8H165.4a1.14,1.14,0,0,1-.8-.3,1.08,1.08,0,0,1-.3-.7v-4a1,1,0,0,1,1.1-1.1h11.8a1,1,0,0,1,1.1,1.1v.5H180v-.6a4.25,4.25,0,0,0-.2-1.1,1.8,1.8,0,0,0-.6-.9,2.36,2.36,0,0,0-.9-.6,3.59,3.59,0,0,0-1.1-.2H165.4a4.25,4.25,0,0,0-1.1.2,1.8,1.8,0,0,0-.9.6,2.36,2.36,0,0,0-.6.9,3.59,3.59,0,0,0-.2,1.1v4a3,3,0,0,0,.8,2,2.79,2.79,0,0,0,2,.8h11.8a1.14,1.14,0,0,1,.8.3,1.08,1.08,0,0,1,.3.7v4a1,1,0,0,1-1.1,1.1H165.4a1,1,0,0,1-1.1-1.1v-.6Z"/><path class="cls-1" d="M177.2,126.5H165.4a5,5,0,0,1-1.2-.2,3.51,3.51,0,0,1-1.7-1.7,5,5,0,0,1-.2-1.2v-.8h2.1v.8a.71.71,0,0,0,.3.6.86.86,0,0,0,.6.3h11.8a.71.71,0,0,0,.6-.3.86.86,0,0,0,.3-.6v-4a.71.71,0,0,0-.3-.6.86.86,0,0,0-.6-.3H165.4a2.72,2.72,0,0,1-2.1-.9,2.88,2.88,0,0,1-.9-2.1v-4a5,5,0,0,1,.2-1.2,3.51,3.51,0,0,1,1.7-1.7,2.54,2.54,0,0,1,1.2-.2h11.8a5,5,0,0,1,1.2.2,2.29,2.29,0,0,1,1,.7,3.59,3.59,0,0,1,.7,1,5,5,0,0,1,.2,1.2v.8h-2.1v-.8a.71.71,0,0,0-.3-.6.86.86,0,0,0-.6-.3h-12a.71.71,0,0,0-.6.3.86.86,0,0,0-.3.6v4a.71.71,0,0,0,.3.6.86.86,0,0,0,.6.3h11.8a2.72,2.72,0,0,1,2.1.9,2.88,2.88,0,0,1,.9,2.1v4a5,5,0,0,1-.2,1.2,2.29,2.29,0,0,1-.7,1,2.74,2.74,0,0,1-2.1.9Zm-14.7-3.7v.6a3.59,3.59,0,0,0,.2,1.1,2,2,0,0,0,.6.9,2.36,2.36,0,0,0,.9.6,4.25,4.25,0,0,0,1.1.2h11.8a3.59,3.59,0,0,0,1.1-.2,2,2,0,0,0,.9-.6,2.36,2.36,0,0,0,.6-.9,3.59,3.59,0,0,0,.2-1.1v-4a2.79,2.79,0,0,0-.8-2,3,3,0,0,0-2-.8H165.4a1,1,0,0,1-1-1v-4a1,1,0,0,1,1-1h11.8a1,1,0,0,1,1,1v.6h1.9v-.6a3.59,3.59,0,0,0-.2-1.1,2,2,0,0,0-.6-.9,2.36,2.36,0,0,0-.9-.6,4.25,4.25,0,0,0-1.1-.2H165.4a3.59,3.59,0,0,0-1.1.2,2,2,0,0,0-.9.6,2.36,2.36,0,0,0-.6.9,4.25,4.25,0,0,0-.2,1.1v4a2.79,2.79,0,0,0,.8,2,3,3,0,0,0,2,.8h11.8a1,1,0,0,1,1,1v4a1,1,0,0,1-1,1H165.4a1,1,0,0,1-1-1v-.6Z"/><path class="cls-1" d="M177.2,126.6H165.4a5,5,0,0,1-1.2-.2,3.51,3.51,0,0,1-1.7-1.7,2.54,2.54,0,0,1-.2-1.2v-.9h2.4v.9a.68.68,0,0,0,.7.7h11.8a.68.68,0,0,0,.7-.7v-4a.68.68,0,0,0-.7-.7H165.4a3.07,3.07,0,0,1-3.1-3.1v-4a5,5,0,0,1,.2-1.2,3.51,3.51,0,0,1,1.7-1.7,2.54,2.54,0,0,1,1.2-.2h11.8a5,5,0,0,1,1.2.2,3.51,3.51,0,0,1,1.7,1.7,2.54,2.54,0,0,1,.2,1.2v.9h-2.4v-.9a.68.68,0,0,0-.7-.7H165.4a.68.68,0,0,0-.7.7v4a.68.68,0,0,0,.7.7h11.8a3.07,3.07,0,0,1,3.1,3.1v4a5,5,0,0,1-.2,1.2,3.51,3.51,0,0,1-1.7,1.7A5,5,0,0,1,177.2,126.6ZM162.7,123v.5a4.25,4.25,0,0,0,.2,1.1,2.76,2.76,0,0,0,1.5,1.5,3.59,3.59,0,0,0,1.1.2h11.8a4.25,4.25,0,0,0,1.1-.2,2.76,2.76,0,0,0,1.5-1.5,3.59,3.59,0,0,0,.2-1.1v-4a2.73,2.73,0,0,0-2.7-2.7h-12a1,1,0,0,1-1.1-1.1v-4a1,1,0,0,1,1.1-1.1h11.8a1,1,0,0,1,1.1,1.1v.5h1.6v-.5a4.25,4.25,0,0,0-.2-1.1,2.76,2.76,0,0,0-1.5-1.5,3.59,3.59,0,0,0-1.1-.2H165.4a4.25,4.25,0,0,0-1.1.2,2.76,2.76,0,0,0-1.5,1.5,3.59,3.59,0,0,0-.2,1.1v4a2.73,2.73,0,0,0,2.7,2.7h11.8a1,1,0,0,1,1.1,1.1v4a1,1,0,0,1-1.1,1.1H165.4a1,1,0,0,1-1.1-1.1V123Z"/><path class="cls-1" d="M202.6,110.7H188.5v5.9h11.3v2H188.5v5.9h14.1v2H186.5V108.8h16.1Z"/><path class="cls-1" d="M202.7,126.5H186.4V108.6h16.4v2.3H188.6v5.6H200v2.3H188.6v5.6h14.1Zm-16.1-.2h15.9v-1.7H188.4v-6.1h11.4v-1.8H188.4v-6.1h14.1v-1.7H186.6Z"/><path class="cls-1" d="M202.7,126.5H186.4V108.7h16.3v2.1H188.6v5.7H200v2.1H188.6v5.7h14.2v2.2Zm-16.1-.2h16v-1.9H188.4v-5.9h11.4v-1.9H188.4v-6h14.1v-1.8h-16Z"/><path class="cls-1" d="M202.8,126.6H186.3v-18h16.5V111H188.7v5.5h11.4v2.4H188.7v5.5h14.1Zm-16.1-.4h15.7v-1.6H188.3v-6.2h11.4v-1.7H188.3v-6.2h14.1v-1.6H186.7Z"/><path class="cls-1" d="M211.9,110.7a1,1,0,0,0-1,1v11.8a1,1,0,0,0,1,1h14.7v2H211.9a3.59,3.59,0,0,1-1.1-.2,3.33,3.33,0,0,1-1-.6,2.07,2.07,0,0,1-.6-1,4.25,4.25,0,0,1-.2-1.1V111.8a3.59,3.59,0,0,1,.2-1.1,3.33,3.33,0,0,1,.6-1,2.07,2.07,0,0,1,1-.6,4.25,4.25,0,0,1,1.1-.2h14.7v2H211.9Z"/><path class="cls-1" d="M226.7,126.5H211.9a5,5,0,0,1-1.2-.2,3.51,3.51,0,0,1-1.7-1.7,2.54,2.54,0,0,1-.2-1.2V111.6a5,5,0,0,1,.2-1.2,3.51,3.51,0,0,1,1.7-1.7,2.54,2.54,0,0,1,1.2-.2h14.8v2.3H211.9a.86.86,0,0,0-.6.3c-.2.2-.2.4-.3.6v11.8a.86.86,0,0,0,.3.6c.2.2.4.2.6.3h14.8Zm-14.8-17.6a4.25,4.25,0,0,0-1.1.2,1.8,1.8,0,0,0-.9.6,2.36,2.36,0,0,0-.6.9,3.59,3.59,0,0,0-.2,1.1v11.8a4.25,4.25,0,0,0,.2,1.1,1.8,1.8,0,0,0,.6.9,2.36,2.36,0,0,0,.9.6,3.59,3.59,0,0,0,1.1.2h14.5v-1.7H211.9a1,1,0,0,1-1.1-1.1V111.7a1,1,0,0,1,1.1-1.1h14.5v-1.7Z"/><path class="cls-1" d="M226.6,126.5H211.9a5,5,0,0,1-1.2-.2,3.51,3.51,0,0,1-1.7-1.7,5,5,0,0,1-.2-1.2V111.6a5,5,0,0,1,.2-1.2,3.51,3.51,0,0,1,1.7-1.7,5,5,0,0,1,1.2-.2h14.7v2.1H211.9a.71.71,0,0,0-.6.3.86.86,0,0,0-.3.6v11.8a.71.71,0,0,0,.3.6.86.86,0,0,0,.6.3h14.7Zm-14.7-17.7a3.59,3.59,0,0,0-1.1.2,2,2,0,0,0-.9.6,2.36,2.36,0,0,0-.6.9,4.25,4.25,0,0,0-.2,1.1v11.8a3.59,3.59,0,0,0,.2,1.1,2,2,0,0,0,.6.9,2.84,2.84,0,0,0,.9.6,4.25,4.25,0,0,0,1.1.2h14.6v-1.9H211.9a1,1,0,0,1-1-1V111.5a1,1,0,0,1,1-1h14.6v-1.7Z"/><path class="cls-1" d="M226.7,126.6H211.9a5,5,0,0,1-1.2-.2,3.51,3.51,0,0,1-1.7-1.7,2.54,2.54,0,0,1-.2-1.2V111.7a5,5,0,0,1,.2-1.2,3.51,3.51,0,0,1,1.7-1.7,2.54,2.54,0,0,1,1.2-.2h14.9V111H211.9a.68.68,0,0,0-.7.7v11.8a.68.68,0,0,0,.7.7h14.9v2.4Zm-14.8-17.7a4.25,4.25,0,0,0-1.1.2,2.76,2.76,0,0,0-1.5,1.5,3.59,3.59,0,0,0-.2,1.1v11.8a4.25,4.25,0,0,0,.2,1.1,2.76,2.76,0,0,0,1.5,1.5,3.59,3.59,0,0,0,1.1.2h14.5v-1.6H211.9a1,1,0,0,1-1.1-1.1V111.8a1,1,0,0,1,1.1-1.1h14.5v-1.6H211.9Z"/><path class="cls-1" d="M248.4,108.7h2v14.7a3.59,3.59,0,0,1-.2,1.1,3.33,3.33,0,0,1-.6,1,2.07,2.07,0,0,1-1,.6,4.25,4.25,0,0,1-1.1.2H235.7a3.59,3.59,0,0,1-1.1-.2,3.33,3.33,0,0,1-1-.6,2.07,2.07,0,0,1-.6-1,4.25,4.25,0,0,1-.2-1.1V108.7h2v14.7a1,1,0,0,0,1,1h11.8a1,1,0,0,0,1-1V108.7Z"/><path class="cls-1" d="M247.5,126.5H235.7a5,5,0,0,1-1.2-.2,3.51,3.51,0,0,1-1.7-1.7,2.54,2.54,0,0,1-.2-1.2V108.6h2.3v14.9a.86.86,0,0,0,.3.6c.2.2.4.2.6.3h11.8a.86.86,0,0,0,.6-.3c.2-.2.2-.4.3-.6V108.6h2.3v14.9a5,5,0,0,1-.2,1.2,3.51,3.51,0,0,1-1.7,1.7A7.6,7.6,0,0,1,247.5,126.5Zm-14.6-17.6v14.6a4.25,4.25,0,0,0,.2,1.1,1.8,1.8,0,0,0,.6.9,2.36,2.36,0,0,0,.9.6,3.59,3.59,0,0,0,1.1.2h11.8a4.25,4.25,0,0,0,1.1-.2,1.8,1.8,0,0,0,.9-.6,2.36,2.36,0,0,0,.6-.9,3.59,3.59,0,0,0,.2-1.1V108.9h-1.7v14.6a1,1,0,0,1-1.1,1.1H235.7a1,1,0,0,1-1.1-1.1V108.9Z"/><path class="cls-1" d="M247.5,126.5H235.7a5,5,0,0,1-1.2-.2,2.29,2.29,0,0,1-1-.7,3.59,3.59,0,0,1-.7-1,5,5,0,0,1-.2-1.2V108.6h2.1v14.8a.71.71,0,0,0,.3.6.86.86,0,0,0,.6.3h11.8a.71.71,0,0,0,.6-.3.86.86,0,0,0,.3-.6V108.6h2.1v14.8a5,5,0,0,1-.2,1.2,3.33,3.33,0,0,1-.6,1,3.59,3.59,0,0,1-1,.7A5.16,5.16,0,0,1,247.5,126.5Zm-14.7-17.7v14.7a3.59,3.59,0,0,0,.2,1.1,2,2,0,0,0,.6.9,2.36,2.36,0,0,0,.9.6,4.25,4.25,0,0,0,1.1.2h11.8a3.59,3.59,0,0,0,1.1-.2,2,2,0,0,0,.9-.6,2.36,2.36,0,0,0,.6-.9,4.25,4.25,0,0,0,.2-1.1V108.8h-1.9v14.7a1,1,0,0,1-1,1H235.5a1,1,0,0,1-1-1V108.8Z"/><path class="cls-1" d="M247.5,126.6H235.7a5,5,0,0,1-1.2-.2,3.51,3.51,0,0,1-1.7-1.7,2.54,2.54,0,0,1-.2-1.2V108.6H235v14.9a.68.68,0,0,0,.7.7h11.8a.68.68,0,0,0,.7-.7V108.6h2.4v14.9a5,5,0,0,1-.2,1.2,3.51,3.51,0,0,1-1.7,1.7A5,5,0,0,1,247.5,126.6Zm-14.6-17.7v14.5a4.25,4.25,0,0,0,.2,1.1,2.76,2.76,0,0,0,1.5,1.5,3.59,3.59,0,0,0,1.1.2h11.8a4.25,4.25,0,0,0,1.1-.2,2.76,2.76,0,0,0,1.5-1.5,3.59,3.59,0,0,0,.2-1.1V108.9h-1.6v14.5a1,1,0,0,1-1.1,1.1H235.8a1,1,0,0,1-1.1-1.1V108.9Z"/><path class="cls-1" d="M274.4,116.9a3.59,3.59,0,0,1-.2,1.1,3.33,3.33,0,0,1-.6,1,2.07,2.07,0,0,1-1,.6,4.25,4.25,0,0,1-1.1.2h-2.7l5.5,6.6h-2.6l-5.5-6.6h-6.5a3.75,3.75,0,0,1-1-.1v6.7h-2V108.8h14.7a3.59,3.59,0,0,1,1.1.2,3.33,3.33,0,0,1,1,.6,2.07,2.07,0,0,1,.6,1,4.25,4.25,0,0,1,.2,1.1Zm-2.9.9a.76.76,0,0,0,.4-.1c.1,0,.2-.1.3-.2s.2-.2.2-.3.1-.2.1-.4v-5.2a1.08,1.08,0,0,0-.3-.7.91.91,0,0,0-.7-.3H259.7a1,1,0,0,0-1,1v5.2a1.08,1.08,0,0,0,.3.7.91.91,0,0,0,.7.3Z"/><path class="cls-1" d="M274.6,126.5h-3l-5.5-6.6h-6.4a2,2,0,0,1-.8-.1v6.7h-2.3V108.6h14.9a3.07,3.07,0,0,1,3.1,3.1v5.2a3.07,3.07,0,0,1-3.1,3.1h-2.4Zm-2.8-.2h2.3l-5.5-6.6h3a3,3,0,0,0,2-.8,2.79,2.79,0,0,0,.8-2v-5.2a3,3,0,0,0-.8-2,2.79,2.79,0,0,0-2-.8H257v17.4h1.7v-6.7h.3c.3,0,.5.1.8.1h6.5Zm-.3-8.3H259.7a1.14,1.14,0,0,1-.8-.3,1.08,1.08,0,0,1-.3-.7v-5.2a1,1,0,0,1,1.1-1.1h11.8a.78.78,0,0,1,.7.3,1.14,1.14,0,0,1,.3.8V117a.91.91,0,0,1-.3.7A4.88,4.88,0,0,1,271.5,118Zm-11.8-7.1a.86.86,0,0,0-.6.3c-.2.2-.2.4-.3.6V117a.86.86,0,0,0,.3.6.73.73,0,0,0,.6.2h11.8a1.42,1.42,0,0,0,.6-.2.73.73,0,0,0,.2-.6v-5.2a1.42,1.42,0,0,0-.2-.6c-.2-.2-.4-.2-.6-.3Z"/><path class="cls-1" d="M274.5,126.5h-2.8l-5.5-6.6h-6.4a2,2,0,0,1-.8-.1h0v6.7h-2.1V108.7h14.8a2.72,2.72,0,0,1,2.1.9,2.88,2.88,0,0,1,.9,2.1v5.2a2.72,2.72,0,0,1-.9,2.1,2.88,2.88,0,0,1-2.1.9h-2.6Zm-2.8-.2h2.5l-5.5-6.6h2.8a2.79,2.79,0,0,0,2-.8,3,3,0,0,0,.8-2v-5.2a2.79,2.79,0,0,0-.8-2,3,3,0,0,0-2-.8H256.8v17.5h1.9v-6.7h.2c.3,0,.5.1.8.1h6.5Zm-.2-8.4H259.7a1,1,0,0,1-1-1v-5.2a1,1,0,0,1,1-1h11.8a1,1,0,0,1,1,1v5.2a.6.6,0,0,1-.1.4c-.1.1-.1.2-.2.3s-.2.2-.3.2A.76.76,0,0,1,271.5,117.9Zm-11.8-7.1a.71.71,0,0,0-.6.3.86.86,0,0,0-.3.6v5.2a.71.71,0,0,0,.3.6.86.86,0,0,0,.6.3h11.8a.71.71,0,0,0,.6-.3.86.86,0,0,0,.3-.6v-5.2a.71.71,0,0,0-.3-.6.86.86,0,0,0-.6-.3Z"/><path class="cls-1" d="M274.7,126.6h-3.1l-5.5-6.6h-6.4a2.2,2.2,0,0,1-.8-.1v6.6h-2.4v-18h14.9a3.07,3.07,0,0,1,3.1,3.1v5.2a3.07,3.07,0,0,1-3.1,3.1h-2.3Zm-2.9-.4h2.1l-5.5-6.6h3.1a2.73,2.73,0,0,0,2.7-2.7v-5.2a2.73,2.73,0,0,0-2.7-2.7H257v17.3h1.6v-6.7h.3c.3,0,.5.1.8.1h6.6Zm-.3-8.2H259.7a1,1,0,0,1-1.1-1.1v-5.2a1,1,0,0,1,1.1-1.1h11.8a1,1,0,0,1,1.1,1.1v5.2a1,1,0,0,1-1.1,1.1Zm-11.8-7.1a.68.68,0,0,0-.7.7v5.2a.68.68,0,0,0,.7.7h11.8a.68.68,0,0,0,.7-.7v-5.2a.68.68,0,0,0-.7-.7Z"/><path class="cls-1" d="M280.7,108.7h2v17.7h-2Z"/><path class="cls-1" d="M282.8,126.5h-2.3V108.6h2.3Zm-1.9-.2h1.7V108.9h-1.7Z"/><path class="cls-1" d="M282.8,126.5h-2.1V108.7h2.1Zm-2-.2h1.9V108.8h-1.9Z"/><path class="cls-1" d="M282.9,126.6h-2.4v-18h2.4Zm-2-.4h1.6V108.9h-1.6Z"/><path class="cls-1" d="M306.6,108.7v2h-7.8v15.7h-2V110.7h-7.9v-2Z"/><path class="cls-1" d="M298.9,126.5h-2.3V110.8h-7.8v-2.3h17.9v2.3h-7.8v15.7Zm-2-.2h1.7V110.6h7.8v-1.7H289v1.7h7.9Z"/><path class="cls-1" d="M298.8,126.5h-2.1V110.8h-7.9v-2.1h17.8v2.1h-7.8Zm-2-.2h1.9V110.6h7.8v-1.8H289v1.9h7.9v15.6Z"/><path class="cls-1" d="M298.9,126.6h-2.4V110.9h-7.9v-2.4h18v2.4h-7.8v15.7Zm-2-.4h1.6V110.5h7.8v-1.6H289v1.6h7.9Z"/><path class="cls-1" d="M329.4,108.7l-8.1,11v6.7h-2v-6.6c-2.6-3.6-5.4-7.4-8.1-11h2.3l6.8,8.6c2.1-2.7,4.6-5.9,6.8-8.6h2.3Z"/><path class="cls-1" d="M321.4,126.5h-2.3v-6.7c-2.6-3.6-5.4-7.3-8-10.9l-.2-.3h2.6l6.8,8.6c1.7-2.1,3.5-4.5,5.3-6.8l1.4-1.8h2.6l-.1.2-8.1,11Zm-2-.2h1.7v-6.6h0l8-10.8h-2l-1.4,1.7c-1.8,2.3-3.7,4.7-5.4,6.9l-.1.1-6.9-8.7h-2c2.7,3.6,5.4,7.3,8,10.8h0Z"/><path class="cls-1" d="M321.3,126.5h-2.1v-6.7c-2.6-3.6-5.4-7.3-8.1-10.9l-.1-.2h2.4l6.8,8.6c1.7-2.2,3.5-4.5,5.3-6.8l1.4-1.8h2.5l-.1.1-8.1,11Zm-2-.2h1.9v-6.6l8-10.9H327l-1.4,1.7c-1.8,2.3-3.7,4.7-5.4,6.9v.1l-.1-.1-6.8-8.6h-2.1c2.7,3.6,5.4,7.3,8,10.9Z"/><path class="cls-1" d="M321.4,126.6H319v-6.8c-2.5-3.5-5.1-7-8-10.9l-.3-.4h2.8l6.7,8.5c1.5-1.9,3.1-4,4.7-6l2-2.5h2.8l-8.3,11.3Zm-2-.4H321v-6.5h0l7.9-10.7H327l-1.4,1.7c-2,2.5-3.7,4.8-5.4,6.9l-.1.2-.1-.2-6.8-8.6h-1.8c2.5,3.4,5.3,7.2,7.9,10.7h0v.1Z"/><path class="cls-1" d="M345.9,108.7h2v15.7h15.7v2H345.9Z"/><path class="cls-1" d="M363.7,126.5H345.8V108.6h2.3v15.7h15.7Zm-17.6-.2h17.4v-1.7H347.8V108.8h-1.7Z"/><path class="cls-1" d="M363.7,126.5H345.9V108.7H348v15.7h15.7Zm-17.7-.2h17.5v-1.9H347.8V108.8h-1.9v17.5Z"/><path class="cls-1" d="M363.8,126.6h-18V108.5h2.4v15.7h15.6Zm-17.7-.4h17.3v-1.6H347.7V108.9h-1.6Z"/><path class="cls-1" d="M384.9,110.7H370.8v5.9h11.4v2H370.8v5.9h14.1v2H368.8V108.8h16.1Z"/><path class="cls-1" d="M385,126.5H368.6V108.6H385v2.3H370.9v5.6h11.4v2.3H370.9v5.6H385Zm-16.1-.2h15.9v-1.7H370.7v-6.1h11.4v-1.8H370.7v-6.1h14.1v-1.7H368.9Z"/><path class="cls-1" d="M384.9,126.5H368.7V108.7h16.2v2.1H370.8v5.7h11.4v2.1H370.8v5.7h14.1Zm-16.1-.2h16v-1.9H370.7v-5.9h11.4v-1.9H370.7v-6h14.1v-1.8h-16Z"/><path class="cls-1" d="M385.1,126.6H368.6v-18h16.5V111H371v5.5h11.4v2.4H371v5.5h14.1Zm-16.2-.4h15.8v-1.6H370.5v-6.2h11.4v-1.7H370.5v-6.2h14.1v-1.6H368.8Z"/><path class="cls-1" d="M406,108.7a3.59,3.59,0,0,1,1.1.2,5.3,5.3,0,0,1,1,.6,2.07,2.07,0,0,1,.6,1,4.25,4.25,0,0,1,.2,1.1v14.7h-2v-6.5H393.2v6.5h-2V111.6a3.59,3.59,0,0,1,.2-1.1,3.33,3.33,0,0,1,.6-1,2.07,2.07,0,0,1,1-.6,4.25,4.25,0,0,1,1.1-.2Zm.9,9.3v-6.3a1,1,0,0,0-1-1H394.1a1,1,0,0,0-1,1V118Z"/><path class="cls-1" d="M409,126.5h-2.2V120H393.4v6.5h-2.3V111.6a5,5,0,0,1,.2-1.2,2.29,2.29,0,0,1,.7-1,3.59,3.59,0,0,1,1-.7,2.54,2.54,0,0,1,1.2-.2H406a5,5,0,0,1,1.2.2,3.51,3.51,0,0,1,1.7,1.7,2.54,2.54,0,0,1,.2,1.2Zm-2-.2h1.7V111.7a4.25,4.25,0,0,0-.2-1.1,1.8,1.8,0,0,0-.6-.9,2.36,2.36,0,0,0-.9-.6,3.59,3.59,0,0,0-1.1-.2H394.1a4.25,4.25,0,0,0-1.1.2,1.8,1.8,0,0,0-.9.6,2.36,2.36,0,0,0-.6.9,3.59,3.59,0,0,0-.2,1.1v14.6H393v-6.5h13.9Zm0-8.2H393.1v-6.4a1,1,0,0,1,1.1-1.1H406a1,1,0,0,1,1.1,1.1Zm-13.7-.3h13.5v-6.2a.86.86,0,0,0-.3-.6c-.2-.2-.4-.2-.6-.3H394.1a.86.86,0,0,0-.6.3c-.2.2-.2.4-.3.6Z"/><path class="cls-1" d="M409,126.5h-2.2V120H393.2v6.5h-2.1V111.7a5,5,0,0,1,.2-1.2,2.29,2.29,0,0,1,.7-1,3.59,3.59,0,0,1,1-.7,2.54,2.54,0,0,1,1.2-.2H406a5,5,0,0,1,1.2.2,2.29,2.29,0,0,1,1,.7,3.59,3.59,0,0,1,.7,1,2.54,2.54,0,0,1,.2,1.2v14.8Zm-2-.2h1.9V111.6a3.59,3.59,0,0,0-.2-1.1,2,2,0,0,0-.6-.9,2.36,2.36,0,0,0-.9-.6,3.59,3.59,0,0,0-1.1-.2H394.3a3.59,3.59,0,0,0-1.1.2,2,2,0,0,0-.9.6,2.36,2.36,0,0,0-.6.9,4.25,4.25,0,0,0-.2,1.1v14.7h1.9v-6.5h13.8v6.5Zm0-8.3H393.2v-6.3a1,1,0,0,1,1-1H406a1,1,0,0,1,1,1Zm-13.7-.1h13.5v-6.2a.71.71,0,0,0-.3-.6.86.86,0,0,0-.6-.3H394.1a.71.71,0,0,0-.6.3.86.86,0,0,0-.3.6Z"/><path class="cls-1" d="M409.1,126.6h-2.4v-6.5H393.4v6.5H391V111.7a5,5,0,0,1,.2-1.2,3.51,3.51,0,0,1,1.7-1.7,2.54,2.54,0,0,1,1.2-.2h11.8a5,5,0,0,1,1.2.2,3.51,3.51,0,0,1,1.7,1.7,2.54,2.54,0,0,1,.2,1.2Zm-2-.4h1.6V111.7a4.25,4.25,0,0,0-.2-1.1,2.76,2.76,0,0,0-1.5-1.5,3.59,3.59,0,0,0-1.1-.2H394.1a4.25,4.25,0,0,0-1.1.2,2.76,2.76,0,0,0-1.5,1.5,3.59,3.59,0,0,0-.2,1.1v14.5h1.6v-6.4H407v6.4Zm0-8H393v-6.5a1,1,0,0,1,1.1-1.1h11.8a1,1,0,0,1,1.1,1.1v6.5Zm-13.7-.4h13.3v-6.1a.68.68,0,0,0-.7-.7H394.2a.68.68,0,0,0-.7.7v6.1Z"/><path class="cls-1" d="M430.2,108.7a3.59,3.59,0,0,1,1.1.2,3.33,3.33,0,0,1,1,.6,2.07,2.07,0,0,1,.6,1,4.25,4.25,0,0,1,.2,1.1v11.8a3.59,3.59,0,0,1-.2,1.1,3.33,3.33,0,0,1-.6,1,2.07,2.07,0,0,1-1,.6,4.25,4.25,0,0,1-1.1.2H415.5V108.6h14.7Zm.9,3a1,1,0,0,0-1-1H418.3a1,1,0,0,0-1,1v11.8a1,1,0,0,0,1,1h11.8a1,1,0,0,0,1-1Z"/><path class="cls-1" d="M430.2,126.5H415.3V108.6h14.9a5,5,0,0,1,1.2.2,3.51,3.51,0,0,1,1.7,1.7,2.54,2.54,0,0,1,.2,1.2v11.8a5,5,0,0,1-.2,1.2,3.51,3.51,0,0,1-1.7,1.7A4.87,4.87,0,0,1,430.2,126.5Zm-14.6-.2h14.6a4.25,4.25,0,0,0,1.1-.2,1.8,1.8,0,0,0,.9-.6,2.36,2.36,0,0,0,.6-.9,3.59,3.59,0,0,0,.2-1.1V111.7a4.25,4.25,0,0,0-.2-1.1,1.8,1.8,0,0,0-.6-.9,2.36,2.36,0,0,0-.9-.6,3.59,3.59,0,0,0-1.1-.2H415.6Zm14.6-1.7H418.4a1,1,0,0,1-1.1-1.1V111.7a1,1,0,0,1,1.1-1.1h11.8a1,1,0,0,1,1.1,1.1v11.8a1.14,1.14,0,0,1-.3.8A6.89,6.89,0,0,0,430.2,124.6Zm-11.8-13.7a.86.86,0,0,0-.6.3c-.2.2-.2.4-.3.6v11.8a.86.86,0,0,0,.3.6c.2.2.4.2.6.3h11.8a.86.86,0,0,0,.6-.3c.2-.2.2-.4.3-.6V111.8a.86.86,0,0,0-.3-.6c-.2-.2-.4-.2-.6-.3Z"/><path class="cls-1" d="M430.2,126.5H415.4V108.7h14.8a5,5,0,0,1,1.2.2,2.29,2.29,0,0,1,1,.7,3.59,3.59,0,0,1,.7,1,5,5,0,0,1,.2,1.2v11.8a5,5,0,0,1-.2,1.2,2.29,2.29,0,0,1-.7,1,3.59,3.59,0,0,1-1,.7A4.74,4.74,0,0,0,430.2,126.5Zm-14.7-.2h14.7a3.59,3.59,0,0,0,1.1-.2,2,2,0,0,0,.9-.6,2.36,2.36,0,0,0,.6-.9,4.25,4.25,0,0,0,.2-1.1V111.7a3.59,3.59,0,0,0-.2-1.1,2,2,0,0,0-.6-.9,2.36,2.36,0,0,0-.9-.6,4.25,4.25,0,0,0-1.1-.2H415.5Zm14.7-1.8H418.4a1,1,0,0,1-1-1V111.7a1,1,0,0,1,1-1h11.8a1,1,0,0,1,1,1v11.8a.91.91,0,0,1-.3.7A1.08,1.08,0,0,1,430.2,124.5Zm-11.8-13.7a.71.71,0,0,0-.6.3.86.86,0,0,0-.3.6v11.8a.71.71,0,0,0,.3.6.86.86,0,0,0,.6.3h11.8a.71.71,0,0,0,.6-.3.86.86,0,0,0,.3-.6V111.7a.71.71,0,0,0-.3-.6.86.86,0,0,0-.6-.3Z"/><path class="cls-1" d="M430.2,126.6H415.3v-18h14.9a5,5,0,0,1,1.2.2,3.51,3.51,0,0,1,1.7,1.7,2.54,2.54,0,0,1,.2,1.2v11.8a5,5,0,0,1-.2,1.2,3.51,3.51,0,0,1-1.7,1.7A2.54,2.54,0,0,1,430.2,126.6Zm-14.6-.4h14.5a4.25,4.25,0,0,0,1.1-.2,2.76,2.76,0,0,0,1.5-1.5,3.59,3.59,0,0,0,.2-1.1V111.6a4.25,4.25,0,0,0-.2-1.1,2.76,2.76,0,0,0-1.5-1.5,3.59,3.59,0,0,0-1.1-.2H415.6Zm14.6-1.6H418.4a1,1,0,0,1-1.1-1.1V111.7a1,1,0,0,1,1.1-1.1h11.8a1,1,0,0,1,1.1,1.1v11.8a1.14,1.14,0,0,1-.3.8A1.33,1.33,0,0,1,430.2,124.6Zm-11.8-13.7a.68.68,0,0,0-.7.7v11.8a.68.68,0,0,0,.7.7h11.8a.68.68,0,0,0,.7-.7V111.6a.68.68,0,0,0-.7-.7Z"/><path class="cls-1" d="M455.7,110.7H441.6v5.9H453v2H441.6v5.9h14.1v2H439.6V108.8h16.1Z"/><path class="cls-1" d="M455.8,126.5H439.4V108.6h16.4v2.3H441.7v5.6h11.4v2.3H441.7v5.6h14.1Zm-16.1-.2h15.9v-1.7H441.5v-6.1h11.3v-1.8H441.4v-6.1h14.1v-1.7H439.6v17.4Z"/><path class="cls-1" d="M455.8,126.5H439.5V108.7h16.3v2.1H441.7v5.7h11.4v2.1H441.7v5.7h14.1Zm-16.2-.2h16v-1.9H441.5v-5.9h11.4v-1.9H441.5v-6h14.1v-1.8h-16Z"/><path class="cls-1" d="M455.9,126.6H439.4v-18h16.5V111H441.8v5.5h11.4v2.4H441.8v5.5h14.1Zm-16.1-.4h15.8v-1.6H441.5v-6.2h11.3v-1.7H441.4v-6.2h14.1v-1.6H439.8Z"/><path class="cls-1" d="M479.6,116.9a3.59,3.59,0,0,1-.2,1.1,3.33,3.33,0,0,1-.6,1,2.07,2.07,0,0,1-1,.6,4.25,4.25,0,0,1-1.1.2H474l5.5,6.6h-2.6l-5.5-6.6h-6.5a3.75,3.75,0,0,1-1-.1v6.7h-2V108.8h14.7a3.59,3.59,0,0,1,1.1.2,3.33,3.33,0,0,1,1,.6,2.07,2.07,0,0,1,.6,1,4.25,4.25,0,0,1,.2,1.1Zm-2.9.9a1.08,1.08,0,0,0,.7-.3.91.91,0,0,0,.3-.7v-5.2a1.08,1.08,0,0,0-.3-.7.91.91,0,0,0-.7-.3H464.9a1,1,0,0,0-1,1v5.2a1.08,1.08,0,0,0,.3.7.91.91,0,0,0,.7.3Z"/><path class="cls-1" d="M479.8,126.5h-3l-5.5-6.6h-6.4a2,2,0,0,1-.8-.1v6.7h-2.3V108.6h14.9a3.07,3.07,0,0,1,3.1,3.1v5.2a3.07,3.07,0,0,1-3.1,3.1h-2.4Zm-2.8-.2h2.3l-5.5-6.6h3a3,3,0,0,0,2-.8,2.79,2.79,0,0,0,.8-2v-5.2a3,3,0,0,0-.8-2,2.79,2.79,0,0,0-2-.8H462.2v17.4h1.7v-6.7h.3c.3,0,.5.1.8.1h6.5Zm-.3-8.3H464.9a1.14,1.14,0,0,1-.8-.3,1.08,1.08,0,0,1-.3-.7v-5.2a1,1,0,0,1,1.1-1.1h11.8a1,1,0,0,1,1.1,1.1V117a.91.91,0,0,1-.3.7C477.3,117.9,477,117.9,476.7,118Zm-11.8-7.1a.86.86,0,0,0-.6.3.73.73,0,0,0-.2.6V117a.86.86,0,0,0,.3.6.73.73,0,0,0,.6.2h11.8a1.42,1.42,0,0,0,.6-.2.73.73,0,0,0,.2-.6v-5.2a1.42,1.42,0,0,0-.2-.6c-.2-.2-.4-.2-.6-.3Z"/><path class="cls-1" d="M479.7,126.5h-2.8l-5.5-6.6h-6.5a2,2,0,0,1-.8-.1h0v6.7H462V108.7h14.8a2.72,2.72,0,0,1,2.1.9,2.88,2.88,0,0,1,.9,2.1v5.2a2.72,2.72,0,0,1-.9,2.1,2.88,2.88,0,0,1-2.1.9h-2.6Zm-2.7-.2h2.5l-5.5-6.6h2.8a2.79,2.79,0,0,0,2-.8,3,3,0,0,0,.8-2v-5.2a2.79,2.79,0,0,0-.8-2,3,3,0,0,0-2-.8H462.1v17.5H464v-6.7h.2c.3,0,.6.1.8.1h6.5Zm-.3-8.4H464.9a1,1,0,0,1-1-1v-5.2a1,1,0,0,1,1-1h11.8a1,1,0,0,1,1,1v5.2a.6.6,0,0,1-.1.4c-.1.1-.1.2-.2.3s-.2.2-.3.2A.6.6,0,0,1,476.7,117.9Zm-11.8-7.1a.71.71,0,0,0-.6.3.86.86,0,0,0-.3.6v5.2a.71.71,0,0,0,.3.6.86.86,0,0,0,.6.3h11.8a1.06,1.06,0,0,0,.9-.9v-5.2a.71.71,0,0,0-.3-.6.86.86,0,0,0-.6-.3Z"/><path class="cls-1" d="M480,126.6h-3.2l-5.5-6.6h-6.4a2.2,2.2,0,0,1-.8-.1v6.6h-2.3v-18h14.9a3.07,3.07,0,0,1,3.1,3.1v5.2a3.07,3.07,0,0,1-3.1,3.1h-2.3Zm-3-.4h2.1l-5.5-6.6h3.1a2.73,2.73,0,0,0,2.7-2.7v-5.2a2.73,2.73,0,0,0-2.7-2.7H462.2v17.3h1.6v-6.7h.3c.3,0,.5.1.8.1h6.6Zm-.3-8.2H464.9a1,1,0,0,1-1.1-1.1v-5.2a1,1,0,0,1,1.1-1.1h11.8a1,1,0,0,1,1.1,1.1v5.2a1,1,0,0,1-1.1,1.1Zm-11.8-7.1a.68.68,0,0,0-.7.7v5.2a.68.68,0,0,0,.7.7h11.8a.68.68,0,0,0,.7-.7v-5.2a.68.68,0,0,0-.7-.7Z"/><path class="cls-1" d="M502.7,117.2a3.59,3.59,0,0,1,.7,1,2.66,2.66,0,0,1,.3,1.2v4.1a3.59,3.59,0,0,1-.2,1.1,3.33,3.33,0,0,1-.6,1,2.07,2.07,0,0,1-1,.6,4.25,4.25,0,0,1-1.1.2H486.1V108.7h14a3.59,3.59,0,0,1,1.1.2,3.33,3.33,0,0,1,1,.6,2.07,2.07,0,0,1,.6,1,4.25,4.25,0,0,1,.2,1.1v3.8a2.77,2.77,0,0,1-.3,1.3ZM489,110.7a1,1,0,0,0-1,1v3.8a1,1,0,0,0,1,1h11a1,1,0,0,0,1-1v-3.8a1.08,1.08,0,0,0-.3-.7.91.91,0,0,0-.7-.3Zm12.7,8.6a1,1,0,0,0-1-1H488.9a1,1,0,0,0-1,1v4.1a1,1,0,0,0,1,1h11.8a1,1,0,0,0,1-1Z"/><path class="cls-1" d="M500.7,126.5H485.8V108.6h14.1a5,5,0,0,1,1.2.2,3.51,3.51,0,0,1,1.7,1.7,2.54,2.54,0,0,1,.2,1.2v3.8a2.77,2.77,0,0,1-.3,1.3l.1.3a2.29,2.29,0,0,1,.7,1,2.66,2.66,0,0,1,.3,1.2v4.1a5,5,0,0,1-.2,1.2,3.51,3.51,0,0,1-1.7,1.7A2.54,2.54,0,0,1,500.7,126.5Zm-14.6-.2h14.6a4.25,4.25,0,0,0,1.1-.2,1.46,1.46,0,0,0,.9-.6,2.36,2.36,0,0,0,.6-.9,3.59,3.59,0,0,0,.2-1.1v-4.1a2,2,0,0,0-.3-1.1,3.59,3.59,0,0,0-.7-1h0l-.1-.5h0a2.66,2.66,0,0,0,.3-1.2v-3.8a4.25,4.25,0,0,0-.2-1.1,1.8,1.8,0,0,0-.6-.9,2.36,2.36,0,0,0-.9-.6,3.59,3.59,0,0,0-1.1-.2H486.1Zm14.6-1.8H488.9a1,1,0,0,1-1.1-1.1v-4.1a1,1,0,0,1,1.1-1.1h11.8a1,1,0,0,1,1.1,1.1v4.1a1,1,0,0,1-1.1,1.1Zm-11.8-6a1.42,1.42,0,0,0-.6.2c-.2.2-.2.4-.3.6v4.1a.86.86,0,0,0,.3.6c.2.2.4.2.6.3h11.8a.86.86,0,0,0,.6-.3.73.73,0,0,0,.2-.6v-4.1a1.42,1.42,0,0,0-.2-.6c-.2-.2-.4-.2-.6-.3H488.9Zm11.1-2H489a1,1,0,0,1-1.1-1.1v-3.8a1,1,0,0,1,1.1-1.1h11a.91.91,0,0,1,.7.3,1.14,1.14,0,0,1,.3.8v3.8a1.14,1.14,0,0,1-.3.8A1.08,1.08,0,0,1,500,116.5Zm-11.1-5.6a.86.86,0,0,0-.6.3c-.2.2-.2.4-.3.6v3.8a.86.86,0,0,0,.3.6c.2.2.4.2.6.3h11a.86.86,0,0,0,.6-.3,1.42,1.42,0,0,0,.2-.6v-3.8a1.42,1.42,0,0,0-.2-.6c-.2-.2-.4-.2-.6-.3Z"/><path class="cls-1" d="M500.7,126.5H485.9V108.7h14a5,5,0,0,1,1.2.2,3.51,3.51,0,0,1,1.7,1.7,2.54,2.54,0,0,1,.2,1.2v3.8a2.77,2.77,0,0,1-.3,1.3l.1.4a2.29,2.29,0,0,1,.7,1,2.66,2.66,0,0,1,.3,1.2v4.1a5,5,0,0,1-.2,1.2,3.33,3.33,0,0,1-.6,1,3.59,3.59,0,0,1-1,.7A5.63,5.63,0,0,0,500.7,126.5Zm-14.6-.2h14.7a3.59,3.59,0,0,0,1.1-.2,2.84,2.84,0,0,0,.9-.6,2.36,2.36,0,0,0,.6-.9,4.25,4.25,0,0,0,.2-1.1v-4.1a2.66,2.66,0,0,0-.3-1.2,3.59,3.59,0,0,0-.7-1h0l-.1-.5h0a2.77,2.77,0,0,0,.3-1.3v-3.8a3.59,3.59,0,0,0-.2-1.1,2,2,0,0,0-.6-.9,2.36,2.36,0,0,0-.9-.6,4.25,4.25,0,0,0-1.1-.2H486.1Zm14.6-1.8H488.9a1,1,0,0,1-1-1v-4.1a1,1,0,0,1,1-1h11.8a1,1,0,0,1,1,1v4.1a.91.91,0,0,1-.3.7A.78.78,0,0,1,500.7,124.5Zm-11.8-6a.71.71,0,0,0-.6.3.86.86,0,0,0-.3.6v4.1a.71.71,0,0,0,.3.6.86.86,0,0,0,.6.3h11.8a.71.71,0,0,0,.6-.3.86.86,0,0,0,.3-.6v-4.1a.71.71,0,0,0-.3-.6.86.86,0,0,0-.6-.3Zm11.1-2H489a1,1,0,0,1-1-1v-3.8a1,1,0,0,1,1-1h11a1,1,0,0,1,1,1v3.8a.91.91,0,0,1-.3.7A2.12,2.12,0,0,1,500,116.5Zm-11.1-5.7a.71.71,0,0,0-.6.3.86.86,0,0,0-.3.6v3.8a.71.71,0,0,0,.3.6.86.86,0,0,0,.6.3h11a1.06,1.06,0,0,0,.9-.9v-3.8a.71.71,0,0,0-.3-.6.86.86,0,0,0-.6-.3Z"/><path class="cls-1" d="M500.7,126.6H485.8v-18H500a5,5,0,0,1,1.2.2,3.51,3.51,0,0,1,1.7,1.7,2.54,2.54,0,0,1,.2,1.2v3.8a2.77,2.77,0,0,1-.3,1.3l.1.3a2.29,2.29,0,0,1,.7,1,2.66,2.66,0,0,1,.3,1.2v4.1a5,5,0,0,1-.2,1.2,3.51,3.51,0,0,1-1.7,1.7A3.08,3.08,0,0,1,500.7,126.6Zm-14.5-.4h14.5a4.25,4.25,0,0,0,1.1-.2,2.76,2.76,0,0,0,1.5-1.5,3.59,3.59,0,0,0,.2-1.1v-4.1a3.59,3.59,0,0,0-.2-1.1,2.18,2.18,0,0,0-.7-.9h0l-.1-.5h0a2.66,2.66,0,0,0,.3-1.2v-3.8a4.25,4.25,0,0,0-.2-1.1,2.76,2.76,0,0,0-1.5-1.5,3.59,3.59,0,0,0-1.1-.2H486.2Zm14.5-1.6H488.9a1,1,0,0,1-1.1-1.1v-4.1a1,1,0,0,1,1.1-1.1h11.8a1,1,0,0,1,1.1,1.1v4.1a1,1,0,0,1-1.1,1.1Zm-11.8-6a.68.68,0,0,0-.7.7v4.1a.68.68,0,0,0,.7.7h11.8a.68.68,0,0,0,.7-.7v-4.1a.68.68,0,0,0-.7-.7Zm11.1-2H489a1,1,0,0,1-1.1-1.1v-3.8a1,1,0,0,1,1.1-1.1h11a1,1,0,0,1,1.1,1.1v3.8a1,1,0,0,1-1.1,1.1Zm-11.1-5.7a.68.68,0,0,0-.7.7v3.8a.68.68,0,0,0,.7.7h11a.68.68,0,0,0,.7-.7v-3.8a.68.68,0,0,0-.7-.7Z"/><path class="cls-1" d="M524.7,108.7a3.59,3.59,0,0,1,1.1.2,3.33,3.33,0,0,1,1,.6,2.07,2.07,0,0,1,.6,1,4.25,4.25,0,0,1,.2,1.1v11.8a3.59,3.59,0,0,1-.2,1.1,3.33,3.33,0,0,1-.6,1,2.07,2.07,0,0,1-1,.6,4.25,4.25,0,0,1-1.1.2H512.9a3.59,3.59,0,0,1-1.1-.2,3.33,3.33,0,0,1-1-.6,2.07,2.07,0,0,1-.6-1,4.25,4.25,0,0,1-.2-1.1V111.6a3.59,3.59,0,0,1,.2-1.1,3.33,3.33,0,0,1,.6-1,2.07,2.07,0,0,1,1-.6,4.25,4.25,0,0,1,1.1-.2Zm0,15.7a1,1,0,0,0,1-1V111.6a1,1,0,0,0-1-1H512.9a1,1,0,0,0-1,1v11.8a1,1,0,0,0,1,1Z"/><path class="cls-1" d="M524.7,126.5H512.9a5,5,0,0,1-1.2-.2,2.29,2.29,0,0,1-1-.7,3.59,3.59,0,0,1-.7-1,2.54,2.54,0,0,1-.2-1.2V111.6a5,5,0,0,1,.2-1.2,3.51,3.51,0,0,1,1.7-1.7,2.54,2.54,0,0,1,1.2-.2h11.8a5,5,0,0,1,1.2.2,3.51,3.51,0,0,1,1.7,1.7,2.54,2.54,0,0,1,.2,1.2v11.8a5,5,0,0,1-.2,1.2,3.51,3.51,0,0,1-1.7,1.7A2.54,2.54,0,0,1,524.7,126.5Zm-11.8-17.6a4.25,4.25,0,0,0-1.1.2,1.8,1.8,0,0,0-.9.6,2.36,2.36,0,0,0-.6.9,3.59,3.59,0,0,0-.2,1.1v11.8a4.25,4.25,0,0,0,.2,1.1,1.8,1.8,0,0,0,.6.9,2.36,2.36,0,0,0,.9.6,3.59,3.59,0,0,0,1.1.2h11.8a4.25,4.25,0,0,0,1.1-.2,1.8,1.8,0,0,0,.9-.6,2.36,2.36,0,0,0,.6-.9,3.59,3.59,0,0,0,.2-1.1V111.7a4.25,4.25,0,0,0-.2-1.1,1.8,1.8,0,0,0-.6-.9,2.36,2.36,0,0,0-.9-.6,3.59,3.59,0,0,0-1.1-.2Zm11.8,15.7H512.9a1,1,0,0,1-1.1-1.1V111.7a1,1,0,0,1,1.1-1.1h11.8a1,1,0,0,1,1.1,1.1v11.8a1.14,1.14,0,0,1-.3.8A6.89,6.89,0,0,1,524.7,124.6Zm-11.8-13.7a.86.86,0,0,0-.6.3c-.2.2-.2.4-.3.6v11.8a.86.86,0,0,0,.3.6c.2.2.4.2.6.3h11.8a.86.86,0,0,0,.6-.3c.2-.2.2-.4.3-.6V111.8a.86.86,0,0,0-.3-.6c-.2-.2-.4-.2-.6-.3Z"/><path class="cls-1" d="M524.7,126.5H512.9a5,5,0,0,1-1.2-.2,3.51,3.51,0,0,1-1.7-1.7,2.54,2.54,0,0,1-.2-1.2V111.6a5,5,0,0,1,.2-1.2,2.29,2.29,0,0,1,.7-1,3.59,3.59,0,0,1,1-.7,2.54,2.54,0,0,1,1.2-.2h11.8a5,5,0,0,1,1.2.2,2.29,2.29,0,0,1,1,.7,3.59,3.59,0,0,1,.7,1,5,5,0,0,1,.2,1.2v11.8a5,5,0,0,1-.2,1.2,3.51,3.51,0,0,1-1.7,1.7A5,5,0,0,1,524.7,126.5Zm-11.8-17.7a3.59,3.59,0,0,0-1.1.2,2,2,0,0,0-.9.6,2.36,2.36,0,0,0-.6.9,4.25,4.25,0,0,0-.2,1.1v11.8a3.59,3.59,0,0,0,.2,1.1,2,2,0,0,0,.6.9,2.36,2.36,0,0,0,.9.6,4.25,4.25,0,0,0,1.1.2h11.8a3.59,3.59,0,0,0,1.1-.2,2.84,2.84,0,0,0,.9-.6,2.36,2.36,0,0,0,.6-.9,4.25,4.25,0,0,0,.2-1.1V111.6a3.59,3.59,0,0,0-.2-1.1,2,2,0,0,0-.6-.9,2.36,2.36,0,0,0-.9-.6,3.59,3.59,0,0,0-1.1-.2Zm11.8,15.7H512.9a1,1,0,0,1-1-1V111.7a1,1,0,0,1,1-1h11.8a1,1,0,0,1,1,1v11.8a1,1,0,0,1-1,1Zm-11.8-13.7a.71.71,0,0,0-.6.3.86.86,0,0,0-.3.6v11.8a.71.71,0,0,0,.3.6.86.86,0,0,0,.6.3h11.8a.71.71,0,0,0,.6-.3.86.86,0,0,0,.3-.6V111.7a.71.71,0,0,0-.3-.6.86.86,0,0,0-.6-.3Z"/><path class="cls-1" d="M524.7,126.6H512.9a5,5,0,0,1-1.2-.2,3.51,3.51,0,0,1-1.7-1.7,2.54,2.54,0,0,1-.2-1.2V111.7a5,5,0,0,1,.2-1.2,3.51,3.51,0,0,1,1.7-1.7,2.54,2.54,0,0,1,1.2-.2h11.8a5,5,0,0,1,1.2.2,3.51,3.51,0,0,1,1.7,1.7,2.54,2.54,0,0,1,.2,1.2v11.8a5,5,0,0,1-.2,1.2,3.51,3.51,0,0,1-1.7,1.7A5,5,0,0,1,524.7,126.6Zm-11.8-17.7a4.25,4.25,0,0,0-1.1.2,2.76,2.76,0,0,0-1.5,1.5,3.59,3.59,0,0,0-.2,1.1v11.8a4.25,4.25,0,0,0,.2,1.1,2.76,2.76,0,0,0,1.5,1.5,3.59,3.59,0,0,0,1.1.2h11.8a4.25,4.25,0,0,0,1.1-.2,2.76,2.76,0,0,0,1.5-1.5,3.59,3.59,0,0,0,.2-1.1V111.7a4.25,4.25,0,0,0-.2-1.1,2.76,2.76,0,0,0-1.5-1.5,3.59,3.59,0,0,0-1.1-.2Zm11.8,15.7H512.9a1,1,0,0,1-1.1-1.1V111.7a1,1,0,0,1,1.1-1.1h11.8a1,1,0,0,1,1.1,1.1v11.8a1,1,0,0,1-1.1,1.1Zm-11.8-13.7a.68.68,0,0,0-.7.7v11.8a.68.68,0,0,0,.7.7h11.8a.68.68,0,0,0,.7-.7V111.6a.68.68,0,0,0-.7-.7Z"/><path class="cls-1" d="M548.8,108.7a3.59,3.59,0,0,1,1.1.2,3.33,3.33,0,0,1,1,.6,2.07,2.07,0,0,1,.6,1,4.25,4.25,0,0,1,.2,1.1v14.7h-2v-6.5H536v6.5h-2V111.6a3.59,3.59,0,0,1,.2-1.1,5.3,5.3,0,0,1,.6-1,2.07,2.07,0,0,1,1-.6,4.25,4.25,0,0,1,1.1-.2Zm1,9.3v-6.3a1,1,0,0,0-1-1H537a1,1,0,0,0-1,1V118Z"/><path class="cls-1" d="M551.9,126.5h-2.3V120H536.2v6.5h-2.3V111.6a5,5,0,0,1,.2-1.2,3.51,3.51,0,0,1,1.7-1.7,2.54,2.54,0,0,1,1.2-.2h11.8a5,5,0,0,1,1.2.2,3.51,3.51,0,0,1,1.7,1.7,2.54,2.54,0,0,1,.2,1.2Zm-2-.2h1.7V111.7a4.25,4.25,0,0,0-.2-1.1,1.8,1.8,0,0,0-.6-.9,2.36,2.36,0,0,0-.9-.6,3.59,3.59,0,0,0-1.1-.2H537a4.25,4.25,0,0,0-1.1.2,1.46,1.46,0,0,0-.9.6,2.36,2.36,0,0,0-.6.9,3.59,3.59,0,0,0-.2,1.1v14.6h1.7v-6.5h14Zm0-8.2h-14v-6.4a1,1,0,0,1,1.1-1.1h11.8a1,1,0,0,1,1.1,1.1Zm-13.7-.3h13.4v-6.2a.86.86,0,0,0-.3-.6c-.2-.2-.4-.2-.6-.3H536.9a.86.86,0,0,0-.6.3c-.2.2-.2.4-.3.6v6.2Z"/><path class="cls-1" d="M551.8,126.5h-2.1V120H536.1v6.5H534V111.7a5,5,0,0,1,.2-1.2,2.29,2.29,0,0,1,.7-1,3.59,3.59,0,0,1,1-.7,2.54,2.54,0,0,1,1.2-.2h11.7a5,5,0,0,1,1.2.2,2.29,2.29,0,0,1,1,.7,3.59,3.59,0,0,1,.7,1,5,5,0,0,1,.2,1.2v14.8Zm-2-.2h1.9V111.6a3.59,3.59,0,0,0-.2-1.1,2,2,0,0,0-.6-.9,2.36,2.36,0,0,0-.9-.6,3.59,3.59,0,0,0-1.1-.2H537.1a3.59,3.59,0,0,0-1.1.2,2,2,0,0,0-.9.6,2.36,2.36,0,0,0-.6.9,4.25,4.25,0,0,0-.2,1.1v14.7h1.9v-6.5h13.6Zm0-8.3H536v-6.3a1,1,0,0,1,1-1h11.8a1,1,0,0,1,1,1Zm-13.7-.1h13.6v-6.2a.71.71,0,0,0-.3-.6.86.86,0,0,0-.6-.3H537a.71.71,0,0,0-.6.3.86.86,0,0,0-.3.6Z"/><path class="cls-1" d="M551.9,126.6h-2.4v-6.5H536.2v6.5h-2.4V111.7a5,5,0,0,1,.2-1.2,3.51,3.51,0,0,1,1.7-1.7,2.54,2.54,0,0,1,1.2-.2h11.9a5,5,0,0,1,1.2.2,3.51,3.51,0,0,1,1.7,1.7,2.54,2.54,0,0,1,.2,1.2Zm-2-.4h1.6V111.7a4.25,4.25,0,0,0-.2-1.1,2.76,2.76,0,0,0-1.5-1.5,3.59,3.59,0,0,0-1.1-.2H536.9a4.25,4.25,0,0,0-1.1.2,2.76,2.76,0,0,0-1.5,1.5,3.59,3.59,0,0,0-.2,1.1v14.5h1.6v-6.4h14.1v6.4Zm0-8H535.8v-6.5a1,1,0,0,1,1.1-1.1h11.9a1,1,0,0,1,1.1,1.1v6.5Zm-13.6-.4h13.3v-6.1a.68.68,0,0,0-.7-.7H537.1a.68.68,0,0,0-.7.7v6.1Z"/><path class="cls-1" d="M575.9,116.9a3.59,3.59,0,0,1-.2,1.1,8.79,8.79,0,0,1-.6,1,2.07,2.07,0,0,1-1,.6,4.25,4.25,0,0,1-1.1.2h-2.7l5.5,6.6h-2.6l-5.5-6.6h-6.5a3.75,3.75,0,0,1-1-.1v6.7h-2V108.8h14.7a3.59,3.59,0,0,1,1.1.2,3.33,3.33,0,0,1,1,.6,2.07,2.07,0,0,1,.6,1,4.25,4.25,0,0,1,.2,1.1Zm-3,.9a1.08,1.08,0,0,0,.7-.3.91.91,0,0,0,.3-.7v-5.2a1.08,1.08,0,0,0-.3-.7.91.91,0,0,0-.7-.3H561.1a1,1,0,0,0-1,1v5.2a1.08,1.08,0,0,0,.3.7.91.91,0,0,0,.7.3Z"/><path class="cls-1" d="M576,126.5h-3l-5.5-6.6h-6.4a2,2,0,0,1-.8-.1v6.7H558V108.6h14.9a3.07,3.07,0,0,1,3.1,3.1v5.2a3.07,3.07,0,0,1-3.1,3.1h-2.4Zm-2.8-.2h2.3l-5.5-6.6h3a3,3,0,0,0,2-.8,2.79,2.79,0,0,0,.8-2v-5.2a3,3,0,0,0-.8-2,2.79,2.79,0,0,0-2-.8H558.4v17.4h1.7v-6.7h.3c.3,0,.5.1.8.1h6.5Zm-.3-8.3H561.1a1.14,1.14,0,0,1-.8-.3,1.08,1.08,0,0,1-.3-.7v-5.2a1,1,0,0,1,1.1-1.1h11.8a.78.78,0,0,1,.7.3,1.14,1.14,0,0,1,.3.8V117a.91.91,0,0,1-.3.7C573.4,117.9,573.2,117.9,572.9,118Zm-11.8-7.1a.86.86,0,0,0-.6.3.73.73,0,0,0-.2.6V117a.86.86,0,0,0,.3.6.73.73,0,0,0,.6.2H573a1.42,1.42,0,0,0,.6-.2.73.73,0,0,0,.2-.6v-5.2a1.42,1.42,0,0,0-.2-.6c-.2-.2-.4-.2-.6-.3Z"/><path class="cls-1" d="M575.9,126.5h-2.8l-5.5-6.6h-6.4a2,2,0,0,1-.8-.1h0v6.7h-2.1V108.7h14.8a2.72,2.72,0,0,1,2.1.9,2.88,2.88,0,0,1,.9,2.1v5.2a2.72,2.72,0,0,1-.9,2.1,2.88,2.88,0,0,1-2.1.9h-2.6Zm-2.7-.2h2.5l-5.5-6.6H573a3.59,3.59,0,0,0,1.1-.2,2.84,2.84,0,0,0,.9-.6,2.36,2.36,0,0,0,.6-.9,3.59,3.59,0,0,0,.2-1.1v-5.2a2.79,2.79,0,0,0-.8-2,3,3,0,0,0-2-.8H558.3v17.5h1.9v-6.7h.2c.3,0,.6.1.8.1h6.5Zm-.3-8.4H561.1a1,1,0,0,1-1-1v-5.2a1,1,0,0,1,1-1h11.8a1,1,0,0,1,1,1v5.2a.6.6,0,0,1-.1.4c-.1.1-.1.2-.2.3s-.2.2-.3.2S573.1,117.9,572.9,117.9Zm-11.8-7.1a.71.71,0,0,0-.6.3.86.86,0,0,0-.3.6v5.2a.71.71,0,0,0,.3.6.86.86,0,0,0,.6.3h11.8a1.06,1.06,0,0,0,.9-.9v-5.2a.71.71,0,0,0-.3-.6.86.86,0,0,0-.6-.3Z"/><path class="cls-1" d="M576.2,126.6h-3.1l-5.5-6.6h-6.4a2.2,2.2,0,0,1-.8-.1v6.6H558v-18h14.9a3.07,3.07,0,0,1,3.1,3.1v5.2a3.07,3.07,0,0,1-3.1,3.1h-2.3Zm-3-.4h2.1l-5.5-6.6h3.1a2.73,2.73,0,0,0,2.7-2.7v-5.2a2.73,2.73,0,0,0-.8-1.9,2.79,2.79,0,0,0-2-.8H558.3v17.3h1.6v-6.7h.3c.3,0,.5.1.8.1h6.6Zm-.3-8.2H561.1a1,1,0,0,1-1.1-1.1v-5.2a1,1,0,0,1,1.1-1.1h11.8a1,1,0,0,1,1.1,1.1v5.2a1,1,0,0,1-1.1,1.1Zm-11.8-7.1a.68.68,0,0,0-.7.7v5.2a.68.68,0,0,0,.7.7h11.8a.68.68,0,0,0,.7-.7v-5.2a.68.68,0,0,0-.7-.7Z"/><path class="cls-1" d="M596.9,108.7a3.59,3.59,0,0,1,1.1.2,3.33,3.33,0,0,1,1,.6,2.07,2.07,0,0,1,.6,1,2.15,2.15,0,0,1,.2,1.1v11.8a3.59,3.59,0,0,1-.2,1.1,3.33,3.33,0,0,1-.6,1,2.07,2.07,0,0,1-1,.6,4.25,4.25,0,0,1-1.1.2H582.2V108.6h14.7Zm1,3a1,1,0,0,0-1-1H585.1a1,1,0,0,0-1,1v11.8a1,1,0,0,0,1,1h11.8a1,1,0,0,0,1-1Z"/><path class="cls-1" d="M596.9,126.5H582V108.6h14.9a5,5,0,0,1,1.2.2,3.51,3.51,0,0,1,1.7,1.7,2.54,2.54,0,0,1,.2,1.2v11.8a5,5,0,0,1-.2,1.2,3.51,3.51,0,0,1-1.7,1.7A4.87,4.87,0,0,1,596.9,126.5Zm-14.6-.2h14.6a4.25,4.25,0,0,0,1.1-.2,1.8,1.8,0,0,0,.9-.6,2.36,2.36,0,0,0,.6-.9,3.59,3.59,0,0,0,.2-1.1V111.7a4.25,4.25,0,0,0-.2-1.1,1.8,1.8,0,0,0-.6-.9,2.36,2.36,0,0,0-.9-.6,3.59,3.59,0,0,0-1.1-.2H582.3Zm14.6-1.7H585.1a1,1,0,0,1-1.1-1.1V111.7a1,1,0,0,1,1.1-1.1h11.8a1,1,0,0,1,1.1,1.1v11.8a1.14,1.14,0,0,1-.3.8A6.89,6.89,0,0,1,596.9,124.6Zm-11.8-13.7a.86.86,0,0,0-.6.3c-.2.2-.2.4-.3.6v11.8a.86.86,0,0,0,.3.6c.2.2.4.2.6.3h11.8a.86.86,0,0,0,.6-.3c.2-.2.2-.4.3-.6V111.8a.86.86,0,0,0-.3-.6c-.2-.2-.4-.2-.6-.3Z"/><path class="cls-1" d="M596.9,126.5H582.1V108.7h14.8a5,5,0,0,1,1.2.2,2.29,2.29,0,0,1,1,.7,3.59,3.59,0,0,1,.7,1,2.54,2.54,0,0,1,.2,1.2v11.8a5,5,0,0,1-.2,1.2,2.29,2.29,0,0,1-.7,1,3.59,3.59,0,0,1-1,.7A4.82,4.82,0,0,0,596.9,126.5Zm-14.6-.2H597a3.59,3.59,0,0,0,1.1-.2,2,2,0,0,0,.9-.6,2.36,2.36,0,0,0,.6-.9,4.25,4.25,0,0,0,.2-1.1V111.7a3.59,3.59,0,0,0-.2-1.1,2,2,0,0,0-.6-.9,2.36,2.36,0,0,0-.9-.6,3.59,3.59,0,0,0-1.1-.2H582.3Zm14.6-1.8H585.1a1,1,0,0,1-1-1V111.7a.91.91,0,0,1,.3-.7,1.08,1.08,0,0,1,.7-.3h11.8a1,1,0,0,1,1,1v11.8a1,1,0,0,1-1,1Zm-11.8-13.7a.71.71,0,0,0-.6.3.86.86,0,0,0-.3.6v11.8a.71.71,0,0,0,.3.6.86.86,0,0,0,.6.3h11.8a.71.71,0,0,0,.6-.3.86.86,0,0,0,.3-.6V111.7a.71.71,0,0,0-.3-.6.86.86,0,0,0-.6-.3Z"/><path class="cls-1" d="M596.9,126.6H582v-18h14.9a5,5,0,0,1,1.2.2,3.51,3.51,0,0,1,1.7,1.7,2.54,2.54,0,0,1,.2,1.2v11.8a5,5,0,0,1-.2,1.2,3.51,3.51,0,0,1-1.7,1.7A5,5,0,0,1,596.9,126.6Zm-14.5-.4h14.5a4.25,4.25,0,0,0,1.1-.2,2.76,2.76,0,0,0,1.5-1.5,3.59,3.59,0,0,0,.2-1.1V111.6a4.25,4.25,0,0,0-.2-1.1A2.76,2.76,0,0,0,598,109a3.59,3.59,0,0,0-1.1-.2H582.4Zm14.5-1.6H585.1a1,1,0,0,1-1.1-1.1V111.7a1,1,0,0,1,1.1-1.1h11.8a1,1,0,0,1,1.1,1.1v11.8a1,1,0,0,1-1.1,1.1Zm-11.8-13.7a.68.68,0,0,0-.7.7v11.8a.68.68,0,0,0,.7.7h11.8a.68.68,0,0,0,.7-.7V111.6a.68.68,0,0,0-.7-.7Z"/></svg>