<svg xmlns="http://www.w3.org/2000/svg" width="195.307" height="50" viewBox="0 0 195.307 50">
  <g id="Group_65801" data-name="Group 65801" transform="translate(-1040.788 -4589)">
    <g id="Group_36857" data-name="Group 36857" transform="translate(-52.862 -644.65)">
      <g id="Group_36816" data-name="Group 36816" transform="translate(1093.65 5233.65)">
        <path id="Ellipse_1446" data-name="Ellipse 1446" d="M25,0A25,25,0,1,1,0,25,25,25,0,0,1,25,0Z" transform="translate(0)" fill="#004dfe"/>
        <path id="Path_76521" data-name="Path 76521" d="M578.609,3221.376c-1.1,0-2.2-.022-3.3.01-.54.016-.815-.11-.968-.7a7.931,7.931,0,0,0-8.3-6.029,8.073,8.073,0,1,0,8.266,10.263c.185-.688.41-.913,1.114-.9,2.167.045,4.335.037,6.5,0,.645-.01.887.129.78.828a16.278,16.278,0,1,1-19.646-18.053c8.827-2.015,18.128,4.162,19.493,13.083.229,1.5.229,1.5-1.327,1.5Z" transform="translate(-541.499 -3197.692)" fill="#fefefe"/>
      </g>
    </g>
    <g id="Group_40086" data-name="Group 40086" transform="translate(893.604 4452.031)">
      <path id="Path_70225" data-name="Path 70225" d="M242.614,161.326a8.135,8.135,0,0,0-3.3-5.214,10.409,10.409,0,0,0-4.412-1.649,10.781,10.781,0,0,0-5.437.713c-.312-.045-.134-.312-.134-.446v-9.27a.964.964,0,0,0-.045-.49h-4.056a.963.963,0,0,0-.045.49v26.428a2.168,2.168,0,0,0,.045.535,17.034,17.034,0,0,0,5.571,1.159,15.5,15.5,0,0,0,3.788-.134,10.006,10.006,0,0,0,6.061-3.3,9.092,9.092,0,0,0,2.139-5.972v-1.025A6.365,6.365,0,0,0,242.614,161.326Zm-5.749,7.131a5.684,5.684,0,0,1-3.075,1.471,9.212,9.212,0,0,1-4.412-.223V158.919a7.627,7.627,0,0,1,2.941-.8,5.033,5.033,0,0,1,1.159,0,5.234,5.234,0,0,1,4.991,4.234A6.439,6.439,0,0,1,236.865,168.456Z" transform="translate(49.562 0.003)" fill="#fff"/>
      <path id="Path_70226" data-name="Path 70226" d="M210.839,155.319a2.023,2.023,0,0,0,.227-.9,9.052,9.052,0,0,1,7.755-7.215,10.786,10.786,0,0,1,6.3.887c.29.143.415.227.152.553a8.586,8.586,0,0,0-1.328,2.246c-.125.312-.267.334-.57.236a7.208,7.208,0,0,0-4.742-.013,5.037,5.037,0,0,0-3.231,3.213,6.737,6.737,0,0,0,.094,4.942,5.5,5.5,0,0,0,5.063,3.4,7.365,7.365,0,0,0,3.106-.41c.2-.071.308-.085.41.138A11.882,11.882,0,0,0,225.8,165a9.544,9.544,0,0,1-3.369,1.15,10.788,10.788,0,0,1-7.126-1.163,8.715,8.715,0,0,1-4.359-6.654c-.018-.116.036-.258-.107-.343Z" transform="translate(0 7.311)" fill="#fff"/>
      <path id="Path_70227" data-name="Path 70227" d="M225.279,144.969q0,13.343,0,26.686c0,.254-.009.508-.013.762-.143-.183-.076-.4-.076-.6q-.007-13.43,0-26.851Z" transform="translate(49.535 0)" fill="#fff"/>
      <path id="Path_70228" data-name="Path 70228" d="M226.292,155.2c-.076.062-.156.067-.169-.045a3.43,3.43,0,0,1-.013-.428q-.007-4.88-.013-9.76h.1q0,4.847,0,9.693C226.194,154.84,226.118,155.045,226.292,155.2Z" transform="translate(52.737 0)" fill="#fff"/>
      <path id="Path_70229" data-name="Path 70229" d="M231.712,151.256a8.758,8.758,0,0,0-6.774-4.1,9.466,9.466,0,0,0-7.933,2.5,9.138,9.138,0,0,0-2.763,5.972,10.015,10.015,0,0,0,1.693,6.908c3.12,4.412,9.671,4.769,13.459,2.05a9.193,9.193,0,0,0,3.833-7.576A10.178,10.178,0,0,0,231.712,151.256Zm-4.011,9.715a5.091,5.091,0,0,1-5.17,1.693,4.831,4.831,0,0,1-3.833-3.61,7.11,7.11,0,0,1,.579-5.927,4.755,4.755,0,0,1,5.08-2.451,4.844,4.844,0,0,1,4.234,3.253,6.646,6.646,0,0,1,.446,2.808A6.26,6.26,0,0,1,227.7,160.972Z" transform="translate(11.576 7.31)" fill="#fff"/>
      <path id="Path_70230" data-name="Path 70230" d="M253.2,153.034a6.941,6.941,0,0,0-3.565-5.081,8.8,8.8,0,0,0-4.635-.847,8.238,8.238,0,0,0-7.4,5.036,10.564,10.564,0,0,0-.847,6.418,8.415,8.415,0,0,0,5.259,6.952,11.82,11.82,0,0,0,6.328.624,10.117,10.117,0,0,0,4.1-1.337c.178-.089.357-.178.357-.4-.044-1.114,0-2.228,0-3.387-.223.134-.357.178-.49.267a10.073,10.073,0,0,1-7.754,1.159,5.168,5.168,0,0,1-3.877-4.323c-.045-.4,0-.535.4-.49h11.988c.178,0,.4.045.4-.312A23.019,23.019,0,0,0,253.2,153.034Zm-12.434,1.916c.535-3.387,3.3-5.3,6.6-4.1a3.118,3.118,0,0,1,1.872,2.139,5.869,5.869,0,0,1,.357,1.961Z" transform="translate(89.025 7.315)" fill="#fff"/>
      <path id="Path_70231" data-name="Path 70231" d="M220.79,157.208c0-2.705,0-5.41-.009-8.111a.537.537,0,0,1,.428-.611,24.122,24.122,0,0,1,9.065-1.377,9.087,9.087,0,0,1,3.249.709,5.517,5.517,0,0,1,3.285,4.532,11.616,11.616,0,0,1,.111,1.8c0,3.739-.009,7.474.009,11.213,0,.414-.094.539-.522.526-1.038-.031-2.077-.027-3.111,0-.37.009-.45-.111-.45-.459.013-3.646.009-7.287.009-10.928a4.044,4.044,0,0,0-.472-2.112,3.321,3.321,0,0,0-2.9-1.555,13.994,13.994,0,0,0-4.082.365c-.365.085-.508.214-.5.628.018,4.5,0,9,.018,13.5,0,.423-.089.575-.544.557-1.038-.036-2.077-.027-3.111,0-.383.009-.481-.107-.477-.481C220.795,162.676,220.79,159.944,220.79,157.208Z" transform="translate(34.365 7.316)" fill="#fff"/>
      <path id="Path_70232" data-name="Path 70232" d="M244.071,158.917c0-2.05.045-4.1,0-6.15a5.3,5.3,0,0,0-4.412-5.437,12.934,12.934,0,0,0-3.476-.223,12.564,12.564,0,0,0-4.59,1.248c-.223.134-.4.178-.4.49v2.941c0,.267.044.312.312.178a13.023,13.023,0,0,1,1.382-.624,8.293,8.293,0,0,1,5.081-.49,2.46,2.46,0,0,1,2.05,2.139,8.771,8.771,0,0,1,.044,1.872c0,.267-.178.223-.312.223h-1.916a13.4,13.4,0,0,0-4.947.8,5.139,5.139,0,0,0-2.674,7.576,5.476,5.476,0,0,0,3.521,2.317,22.165,22.165,0,0,0,10.117-.223c.312-.045.267-.267.267-.446v-6.195Zm-4.011.223v3.476c0,.223,0,.4-.267.4a10.812,10.812,0,0,1-4.145-.089,2.6,2.6,0,0,1-2.006-1.693,2.351,2.351,0,0,1,1.694-2.941,8.686,8.686,0,0,1,3.387-.49c.446,0,1.025-.178,1.292.089C240.194,158.16,240.06,158.739,240.06,159.14Z" transform="translate(64.238 7.314)" fill="#fff"/>
      <path id="Path_70233" data-name="Path 70233" d="M233.593,160.928a12.066,12.066,0,0,0,2.687,1.471,7.217,7.217,0,0,0,4.448.379,1.831,1.831,0,0,0,1.506-1.644,1.926,1.926,0,0,0-1.047-2.023,10.435,10.435,0,0,0-2.656-.923,14.408,14.408,0,0,1-2.086-.677,4.608,4.608,0,0,1-3.057-3.926,5.289,5.289,0,0,1,2.081-5.308,6.461,6.461,0,0,1,3.115-1.11,10.251,10.251,0,0,1,6.253,1.1.62.62,0,0,1,.374.637c-.018,1.079,0,2.161,0,3.262-.227.031-.352-.143-.495-.241a8.319,8.319,0,0,0-4.461-1.524,3.963,3.963,0,0,0-1.774.294,1.874,1.874,0,0,0-1.185,1.6,1.789,1.789,0,0,0,.887,1.778,8.723,8.723,0,0,0,2.634.949,13.122,13.122,0,0,1,2.309.771,4.852,4.852,0,0,1,3.088,5.366,5.006,5.006,0,0,1-4.269,4.826,11.553,11.553,0,0,1-7.866-.887.758.758,0,0,1-.49-.811C233.61,163.2,233.593,162.109,233.593,160.928Z" transform="translate(77.761 7.313)" fill="#fff"/>
      <path id="Path_70234" data-name="Path 70234" d="M223.173,156.346c0,2.91-.013,5.82.013,8.73,0,.437-.129.521-.535.513-1.07-.027-2.139-.022-3.2,0-.321.009-.4-.089-.4-.4q.013-8.8,0-17.6c0-.352.116-.41.437-.406,1.083.018,2.166.022,3.253,0,.357-.009.446.08.446.441C223.164,150.526,223.173,153.436,223.173,156.346Z" transform="translate(28.368 7.621)" fill="#fff"/>
      <path id="Path_70235" data-name="Path 70235" d="M224.086,147.9a2.594,2.594,0,0,1-2.58,2.585,2.574,2.574,0,1,1-.013-5.147A2.587,2.587,0,0,1,224.086,147.9Z" transform="translate(27.95 1.282)" fill="#fff"/>
      <path id="Path_70236" data-name="Path 70236" d="M229.129,150.07v-1.016A1.38,1.38,0,0,1,229.129,150.07Z" transform="translate(63.221 14.12)" fill="#fff"/>
      <path id="Path_70237" data-name="Path 70237" d="M226.177,148.1v10.785c-.045-.045-.089-.089-.045-.178V148.278A.11.11,0,0,1,226.177,148.1Z" transform="translate(52.763 10.823)" fill="#fff"/>
      <path id="Path_70238" data-name="Path 70238" d="M226.2,148.1v10.785c-.045-.045-.089-.089-.045-.178a.759.759,0,0,1-.044-.312v-9.8c0-.089-.045-.223.044-.312A.11.11,0,0,1,226.2,148.1Z" transform="translate(52.742 10.823)" fill="#fff"/>
      <path id="Path_70239" data-name="Path 70239" d="M227.929,147.988l-1.145.009A1.862,1.862,0,0,1,227.929,147.988Z" transform="translate(55.115 10.137)" fill="#fff"/>
      <path id="Path_70240" data-name="Path 70240" d="M246.354,148.85a.982.982,0,0,1-.357.045h-8.334a.164.164,0,0,1-.134-.045Z" transform="translate(92.26 13.415)" fill="#fff"/>
      <path id="Path_70241" data-name="Path 70241" d="M246.354,148.85c-.134.134-.312.089-.49.089h-7.888a.661.661,0,0,1-.312-.045.164.164,0,0,1-.134-.045Z" transform="translate(92.26 13.415)" fill="#fff"/>
    </g>
  </g>
</svg>
