<svg xmlns="http://www.w3.org/2000/svg" width="186.638" height="34.771" viewBox="0 0 186.638 34.771">
  <g id="Group_65802" data-name="Group 65802" transform="translate(0)">
    <g id="Group_40071" data-name="Group 40071" transform="translate(0 0)">
      <path id="Path_70153" data-name="Path 70153" d="M-1252.416-633.709l-2.3,8.679-8.829-2.851-1.2.947-4.083,1.835-2.983.069-2.984-.069-4.083-1.835-1.2-.947-8.829,2.851-2.3-8.679,2.914-8.242-1.638-2.064.713-.617-1.107-1.021.82-.735-1.022-.936.681-.489-1.063-6.254,1.83-5.735,11.614,4.906h11.3l11.615-4.906,1.829,5.735-1.063,6.254.681.489-1.022.936.82.735-1.107,1.021.713.617-1.638,2.064Z" transform="translate(1291.195 659.802)" fill="#ff9700"/>
      <g id="Group_40070" data-name="Group 40070" transform="translate(0 0)">
        <path id="Path_70154" data-name="Path 70154" d="M-1247.066-580.547l-1.09,4.18-1.17-2.415-2.76,1.264-3.468-3.349Z" transform="translate(1263.983 599.534)" fill="#e97709"/>
        <path id="Path_70155" data-name="Path 70155" d="M-1255.848-551.724l-.872,6.361-3.893-6.254Z" transform="translate(1267.846 577.284)" fill="#e97709"/>
        <path id="Path_70156" data-name="Path 70156" d="M-1237.426-569.637l-3.829-1.02-.245-.065.139-.064,0,0,2.76-1.264Z" transform="translate(1253.253 592.804)" fill="#393939"/>
        <path id="Path_70157" data-name="Path 70157" d="M-1252-576.665v3.412l-3.574-6.669.227.205,3.241,2.922-.139.064Z" transform="translate(1264 598.813)" fill="#fb8818"/>
        <path id="Path_70158" data-name="Path 70158" d="M-1273.982-649.067l-3.657,3.146-.1.042-9.577,3.928-1.639-2.064.713-.616-1.106-1.021.819-.734-1.021-.936.681-.489-1.064-6.254,1.83-5.734Z" transform="translate(1290.234 659.801)" fill="#985726"/>
        <path id="Path_70159" data-name="Path 70159" d="M-1268.074-649.067-1282.2-659.8l11.615,4.905Z" transform="translate(1284.327 659.801)" fill="#f98a04"/>
        <path id="Path_70160" data-name="Path 70160" d="M-1280.07-545.02l-8.828,2.85-2.3-8.679,7.233-.426Z" transform="translate(1291.196 576.941)" fill="#fc8a03"/>
        <path id="Path_70161" data-name="Path 70161" d="M-1238.642-549.118l-5.509,3.755.872-6.361Z" transform="translate(1255.277 577.284)" fill="#fc8a03"/>
        <path id="Path_70162" data-name="Path 70162" d="M-1222.642-570.742l-1.632-4.594,1.09-4.18Z" transform="translate(1240.101 598.504)" fill="#fb8917"/>
        <path id="Path_70163" data-name="Path 70163" d="M-1235-560.539l-.824.4-4.637-2.606v-3.412l3.829,1.02Z" transform="translate(1252.462 588.301)" fill="#ff9800"/>
        <path id="Path_70164" data-name="Path 70164" d="M-1238.642-540.7l-.358,2.817-.067.533v1.814l-3.9-.734-1.181-.675Z" transform="translate(1255.277 568.871)" fill="#e3cdc1"/>
        <path id="Path_70165" data-name="Path 70165" d="M-1279.116-610.745l-3.651,4.264,3.468,3.349,0,0-3.241-2.922-.228-.205,3.574,6.669-4.765.106-7.233.426,2.915-8.243,9.577-3.928.1-.042,3.657-3.146Z" transform="translate(1291.196 625.148)" fill="#ff9800"/>
        <path id="Path_70166" data-name="Path 70166" d="M-1247.066-606.161l-8.488-.319,3.651-4.264,4.173-3.67.013.157Z" transform="translate(1263.983 625.148)" fill="#fa7c00"/>
        <path id="Path_70167" data-name="Path 70167" d="M-1227.624-527.265l-1.2.947-4.083,1.835-2.984.069-2.984-.069-4.083-1.835-1.2-.947,1.181.675,3.9.735v-1.814l.433-.35h5.495l.433.35v1.814l3.9-.735Z" transform="translate(1255.278 559.186)" fill="#d1bcb0"/>
        <path id="Path_70168" data-name="Path 70168" d="M-1198.751-580.547l1.09,4.18,1.17-2.415,2.76,1.264,3.468-3.349Z" transform="translate(1220.615 599.534)" fill="#e97709"/>
        <path id="Path_70169" data-name="Path 70169" d="M-1177.952-551.724l.872,6.361,3.893-6.254Z" transform="translate(1204.734 577.284)" fill="#e97709"/>
        <path id="Path_70170" data-name="Path 70170" d="M-1194.142-569.637l3.829-1.02.245-.065-.139-.064,0,0-2.76-1.264Z" transform="translate(1217.095 592.804)" fill="#393939"/>
        <path id="Path_70171" data-name="Path 70171" d="M-1177.952-576.665v3.412l3.574-6.669-.227.205-3.241,2.922.139.064Z" transform="translate(1204.734 598.813)" fill="#fb8818"/>
        <path id="Path_70172" data-name="Path 70172" d="M-1195.942-649.067l3.657,3.146.1.042,9.577,3.928,1.638-2.064-.713-.616,1.106-1.021-.819-.734,1.021-.936-.682-.489,1.064-6.254-1.83-5.734Z" transform="translate(1218.469 659.801)" fill="#985726"/>
        <path id="Path_70173" data-name="Path 70173" d="M-1195.942-649.067l14.125-10.734-11.614,4.905Z" transform="translate(1218.469 659.801)" fill="#f98a04"/>
        <path id="Path_70174" data-name="Path 70174" d="M-1174.265-545.02l8.828,2.85,2.3-8.679-7.233-.426Z" transform="translate(1201.919 576.941)" fill="#fc8a03"/>
        <path id="Path_70175" data-name="Path 70175" d="M-1197.56-549.118l5.509,3.755-.872-6.361Z" transform="translate(1219.705 577.284)" fill="#fc8a03"/>
        <path id="Path_70176" data-name="Path 70176" d="M-1201.044-570.742l1.632-4.594-1.09-4.18Z" transform="translate(1222.365 598.504)" fill="#fb8917"/>
        <path id="Path_70177" data-name="Path 70177" d="M-1201.044-560.539l.824.4,4.637-2.606v-3.412l-3.829,1.02Z" transform="translate(1222.365 588.301)" fill="#ff9800"/>
        <path id="Path_70178" data-name="Path 70178" d="M-1216.3-538.66l-.433-.35h-5.495l-.433.35.068-.533.358-2.818.824-.4h3.862l.824.4.358,2.818Z" transform="translate(1238.867 570.177)" fill="#393939"/>
        <path id="Path_70179" data-name="Path 70179" d="M-1197.56-540.7l.358,2.817.067.533v1.814l3.9-.734,1.181-.675Z" transform="translate(1219.705 568.871)" fill="#e3cdc1"/>
        <path id="Path_70180" data-name="Path 70180" d="M-1191.769-610.745l3.65,4.264-3.467,3.349,0,0,3.241-2.922.228-.205-3.574,6.669,4.765.106,7.233.426-2.915-8.243-9.577-3.928-.1-.042-3.657-3.146Z" transform="translate(1218.469 625.148)" fill="#ff9800"/>
        <path id="Path_70181" data-name="Path 70181" d="M-1198.751-606.161l8.488-.319-3.65-4.264-4.173-3.67-.013.157Z" transform="translate(1220.615 625.148)" fill="#fa7c00"/>
        <path id="Path_70182" data-name="Path 70182" d="M-1221.795-639.058l-2.51,5.828-.013.157-.652,8.1-.542,8.774h-3.862l-.542-8.774-.652-8.1-.012-.157-2.511-5.828Z" transform="translate(1246.833 643.964)" fill="#ff9700"/>
      </g>
    </g>
    <path id="Path_70183" data-name="Path 70183" d="M-650.729-591.061c-1.559,1.409-1.247,1.129-.079,2.273q2.963,2.9,5.951,5.78c.19.184.331.462.662.446v.606a15.415,15.415,0,0,1-2.556.064c-.274.007-.448-.2-.632-.378-2.023-1.929-4.016-3.889-6.046-5.811-.122-.115-.225-.318-.425-.259-.26.077-.187.329-.188.517-.007,1.741-.032,3.483.012,5.223.015.589-.181.774-.73.722-.3-.028-.605,0-.908-.005-.78-.005-.858-.059-.86-.87q-.02-6.7,0-13.4c0-.856.117-.951.97-.951,1.666,0,1.508-.137,1.511,1.5q0,1.514,0,3.028a3.13,3.13,0,0,0,.166,1.13,2.013,2.013,0,0,0,.857-.623c1.475-1.484,3-2.921,4.471-4.4a1.864,1.864,0,0,1,1.54-.64c.5.037,1.009,0,1.514.011.195,0,.437-.046.536.181s-.1.378-.239.506c-1.293,1.166-2.462,2.462-3.744,3.639C-649.553-592.217-650.113-591.61-650.729-591.061Z" transform="translate(830.834 609.801)" fill="#fff"/>
    <path id="Path_70184" data-name="Path 70184" d="M-834.052-593.133c-.6.452-.554,1.168-.763,1.748-.447,1.242-.812,2.513-1.22,3.769a.591.591,0,0,1-.223.294,1.576,1.576,0,0,1-2.158-.882c-.252-.842-.535-1.675-.816-2.508a18.164,18.164,0,0,0-.855-2.387c-.314.174-.263.443-.262.688q.013,4.656.031,9.312c0,.94-.02.969-.977.952-1.539-.027-1.544-.027-1.546-1.571,0-4.265.011-8.531-.015-12.8,0-.6.178-.829.766-.8a10.031,10.031,0,0,0,1.815-.013,1.223,1.223,0,0,1,1.516,1.018c.4,1.369.823,2.734,1.24,4.1.061.2,0,.5.323.517s.3-.278.37-.482c.495-1.517,1-3.031,1.475-4.553a.707.707,0,0,1,.758-.582c.858.006,1.717.014,2.574,0,.436-.008.564.193.564.6q-.009,6.966,0,13.932c0,.467-.115.652-.648.639-1.822-.047-1.819-.021-1.814-1.82q.013-4.164.012-8.328A1.3,1.3,0,0,0-834.052-593.133Z" transform="translate(965.127 609.97)" fill="#fff"/>
    <path id="Path_70185" data-name="Path 70185" d="M-1018.9-589.54c0-2.22.017-4.441-.011-6.661-.008-.62.178-.831.82-.822,2.649.035,5.3.016,7.95.021.92,0,.874.009.929,1.176.036.759-.336.808-.925.8-1.817-.026-3.634.013-5.451-.026-.645-.014-.844.226-.82.832.032.831.038,1.667,0,2.5-.028.586.163.807.768.8,1.564-.029,3.129,0,4.694,0,.8,0,.81.054.846,1.192.019.611-.167.864-.816.851-1.564-.031-3.129.02-4.694-.008-.645-.011-.828.256-.809.857.035,1.059.063,2.123,0,3.178-.046.747.272.9.922.888,1.842-.032,3.684-.024,5.526-.028.343,0,.8-.131.935.284a2.678,2.678,0,0,1,.011,1.624c-.069.214-.333.18-.536.18-2.9,0-5.8-.01-8.707.012-.587,0-.646-.284-.643-.754.014-2.3.006-4.593.006-6.889Z" transform="translate(1092.026 609.732)" fill="#fff"/>
    <path id="Path_70186" data-name="Path 70186" d="M-895.894-583c-.209-.5-.26-1.022-.419-1.525-.6-1.89-1.237-3.77-1.734-5.688-.581-2.231-1.268-4.434-1.879-6.657-.087-.316-.207-.5-.545-.5-.807.006-1.614.008-2.421.022a.474.474,0,0,0-.522.344c-.4,1.421-.838,2.831-1.2,4.264-.391,1.552-.9,3.072-1.318,4.618s-.916,3.052-1.329,4.591c-.366,1.365-.3,1.357,1.19,1.385a.76.76,0,0,0,.9-.648c.282-1.064.639-2.111.927-3.175.112-.4.288-.609.72-.606,1.212.006,2.424-.014,3.633-.014a.793.793,0,0,1,.849.692c.154.662.335,1.318.505,1.977.45,1.765.45,1.765,1.645,1.745.126,0,.251,0,.377,0C-895.8-582.153-895.618-582.345-895.894-583Zm-4.644-5.654c-.4-.011-.807,0-1.209,0-1.672.02-1.7.014-1.282-1.578.333-1.259.732-2.5,1.1-3.756.044-.148.086-.313.282-.279a.367.367,0,0,1,.315.29c.26,1.614.922,3.119,1.268,4.711C-899.971-588.84-900.083-588.636-900.538-588.65Z" transform="translate(1011.684 609.976)" fill="#fff"/>
    <path id="Path_70187" data-name="Path 70187" d="M-767-583.515c-.394-1.352-.768-2.706-1.176-4.054-.9-2.977-1.818-5.948-2.583-8.963a1.027,1.027,0,0,0-1.223-.924,6.845,6.845,0,0,1-1.435,0,.93.93,0,0,0-1.125.84c-.31,1.337-.751,2.641-1.145,3.957q-1.345,4.5-2.6,9.03c-.36,1.3-.55,1.391.988,1.435.774.022,1.081-.232,1.246-.924.246-1.025.561-2.033.815-3.058.081-.324.212-.477.553-.477q1.931,0,3.862-.011a.688.688,0,0,1,.715.553c.271.882.564,1.759.771,2.658.274,1.189.254,1.209,1.438,1.217C-766.6-582.1-766.666-582.382-767-583.515Zm-4.37-5.116c-.478.014-.955,0-1.432,0-.427,0-.857.02-1.282-.006-.4-.025-.491-.268-.385-.634q.716-2.433,1.416-4.875c.067-.229.109-.464.4-.449s.3.265.369.489c.447,1.583.882,3.169,1.371,4.738C-770.748-588.86-770.857-588.645-771.365-588.631Z" transform="translate(918.769 610.054)" fill="#fff"/>
    <path id="Path_70188" data-name="Path 70188" d="M-714.486-590.718l-.744-.472a3.827,3.827,0,0,1,.533-6.4,5.654,5.654,0,0,1,6.211.344,3.625,3.625,0,0,1,1.363,2.2c.114.46-.083.685-.52.71s-.905-.016-1.357-.024c-.38-.007-.5-.351-.663-.645a2.366,2.366,0,0,0-2.3-1.159,2.275,2.275,0,0,0-2.11,1.242c-.474.924.036,1.742,1.144,2.364a40.348,40.348,0,0,0,3.947,2.01c2.654,1.125,2.764,5.363.491,6.872-2.164,1.437-6.157,1.26-7.856-.813a3.088,3.088,0,0,1-.706-2.019c0-.209.02-.441.241-.512a7.109,7.109,0,0,1,1.5-.077c.652-.068.764.449.983.858a2.834,2.834,0,0,0,2.722,1.465,3.5,3.5,0,0,0,1.886-1.045,1.7,1.7,0,0,0-.025-2.212,7.743,7.743,0,0,0-2.46-1.561C-712.935-590.015-713.758-590.272-714.486-590.718Z" transform="translate(874.452 610.69)" fill="#fff"/>
    <path id="Path_70189" data-name="Path 70189" d="M-1082.089-593.139a2.31,2.31,0,0,0-.138,1.259c0,3.053-.006,6.106.019,9.158,0,.579-.129.867-.763.719-.5-.116-1.173.3-1.465-.135-.236-.349-.064-.976-.064-1.48,0-4.188.011-8.377-.016-12.565,0-.63.177-.844.8-.806.754.046,1.513,0,2.27.006.289,0,.546.042.654.383.5,1.591,1.024,3.178,1.527,4.77.075.239.058.538.4.552s.348-.273.424-.518c.5-1.627,1.021-3.247,1.523-4.873.09-.29.3-.309.53-.31.883,0,1.766.007,2.649-.007.4-.006.5.149.5.545q-.012,6.924.021,13.849c0,.458-.137.606-.607.6-1.731,0-1.739.012-1.716-1.694.038-2.875-.083-5.751.057-8.625.013-.278.106-.7-.3-.748-.448-.056-.342.395-.43.657q-.677,2.024-1.359,4.047c-.024.071-.092.14-.088.206.068,1.159-.737,1.018-1.479,1.028-.529.007-.746-.13-.892-.719a37.487,37.487,0,0,0-1.234-3.7,3.768,3.768,0,0,1-.231-.87A.809.809,0,0,0-1082.089-593.139Z" transform="translate(1139.341 609.71)" fill="#fff"/>
    <path id="Path_70190" data-name="Path 70190" d="M-957.138-588.413c0-1.944-.02-3.888.01-5.831.01-.667-.244-.9-.892-.869-.857.036-1.718-.026-2.574.014-.626.029-.879-.185-.806-.822.059-.519-.173-1.111.771-1.1,3.13.048,6.261.032,9.392.013.524,0,.635.215.644.677.025,1.205.041,1.207-1.167,1.213-.707,0-1.417.048-2.12-.01-.76-.062-1.008.2-.993.973.044,2.372.013,4.746.013,7.119,0,1.414-.013,2.828.01,4.241.009.541-.069.812-.74.781-1.547-.073-1.548-.029-1.546-1.63S-957.137-586.823-957.138-588.413Z" transform="translate(1050.579 609.728)" fill="#fff"/>
  </g>
</svg>
