<svg xmlns="http://www.w3.org/2000/svg" width="51.883" height="73.578" viewBox="0 0 51.883 73.578">
  <g id="DLX7MF.tif" transform="translate(-4747.799 -112)">
    <g id="Group_65782" data-name="Group 65782">
      <path id="Path_183338" data-name="Path 183338" d="M4799.677,159.45a7.487,7.487,0,0,1-1.894,3.177c-1.989,1.89-7.055,1.789-9.148-.748-10.476-12.7-21.061-25.307-31.608-37.948-.052-.062-.1-.127-.156-.183-.235-.227-.382-.67-.816-.477-.371.164-.235.56-.235.863q-.007,13.979,0,27.957c0,.308-.117.7.245.864s.576-.185.808-.386q4.629-4,9.253-8.018c.323-.279.651-.552.972-.833a1.121,1.121,0,0,1,1.592-.061,1.135,1.135,0,0,1,.157,1.649c-.723,1.089-1.456,2.171-2.186,3.255q-4.359,6.469-8.72,12.939a5.453,5.453,0,0,1-5.637,2.357,5.389,5.389,0,0,1-4.39-4.339,4.913,4.913,0,0,1-.1-1.112q-.007-20.426,0-40.853a5.507,5.507,0,0,1,5.522-5.548c2.1-.053,3.981.292,5.4,2,1.024,1.231,2.056,2.455,3.081,3.684l28.764,34.485c.1.123.21.241.312.364a.434.434,0,0,0,.492.176.4.4,0,0,0,.284-.43c0-.16,0-.32,0-.48q0-13.938,0-27.877c0-.327.148-.752-.266-.925-.364-.152-.572.207-.8.407q-4.692,4.056-9.375,8.122c-.242.21-.492.411-.726.629a1.187,1.187,0,0,1-1.719.133c-.513-.416-.536-1.041-.079-1.725q1.867-2.793,3.751-5.577c2.295-3.406,4.613-6.8,6.877-10.224a5.445,5.445,0,0,1,5.645-2.684,5.311,5.311,0,0,1,4.585,4.227.915.915,0,0,0,.119.2Z" fill="#fff"/>
      <path id="Path_183339" data-name="Path 183339" d="M4747.812,185.566c0-4.058.012-8.116-.013-12.174,0-.614.147-.786.791-.833a2.63,2.63,0,0,1,2.672,1.463c1.578,2.566,3.255,5.071,4.9,7.6.142.218.231.483.375.561v-8.191c0-1.4.432-1.723,1.8-1.4.48.113.352.472.352.763q.011,5.727,0,11.454a.991.991,0,0,1-.159.76h-1.921a3.358,3.358,0,0,1-1.291-1.26c-1.257-1.98-2.539-3.945-3.813-5.914q-.813-1.259-1.63-2.513c.063,3.261.077,6.473.011,9.687Z" fill="#fff"/>
      <path id="Path_183340" data-name="Path 183340" d="M4789.592,185.566a3.706,3.706,0,0,1-.127-1.652c-.021-1.413.009-2.827-.014-4.239-.011-.616.221-.859.846-.848,1.518.028,3.037.025,4.555,0a2.058,2.058,0,0,0,2.262-1.894,1.967,1.967,0,0,0-1.935-2.264c-1.3-.086-2.607-.054-3.911-.084a1.679,1.679,0,0,1-1.726-1.26c-.136-.468-.025-.739.493-.738,1.865,0,3.734-.076,5.593.036a3.685,3.685,0,0,1,3.6,3.514,3.732,3.732,0,0,1-2.653,4.347c-.142.05-.28.113-.5.2l3.6,4.555c-.013.158.088.351-.241.331-.611-.036-1.227-.01-1.84-.01a4.175,4.175,0,0,1-1.26-1.188c-.663-.9-1.4-1.748-2.018-2.681a1.932,1.932,0,0,0-1.977-.966c-.58.046-.767.161-.764.766a29.787,29.787,0,0,1-.064,4.069Z" fill="#fff"/>
      <path id="Path_183341" data-name="Path 183341" d="M4774.385,185.566a9.587,9.587,0,0,1,.787-2.325c1.268-3.3,2.563-6.6,3.811-9.908a.972.972,0,0,1,1.1-.757c2.371.09,1.731-.415,2.609,1.8,1.34,3.388,2.639,6.792,3.952,10.191a1.851,1.851,0,0,1,.228.995h-2.081c-.115-.268-.238-.532-.342-.8q-1.731-4.542-3.458-9.086c-.074-.193-.08-.49-.316-.507-.313-.022-.3.316-.38.522-.377.965-.731,1.939-1.113,2.9-.919,2.318-1.684,4.7-2.715,6.972Z" fill="#fff"/>
      <path id="Path_183342" data-name="Path 183342" d="M4762.7,185.566c-.179-2.369-.041-4.74-.073-7.11-.006-.4.229-.557.616-.556q3.4.008,6.795,0c.4,0,.559.142.593.554.122,1.487.117,1.506-1.367,1.506-1.279,0-2.558.021-3.837-.01-.533-.013-.7.181-.68.7.032.746.035,1.5,0,2.24-.026.538.193.692.7.685,1.6-.021,3.2.032,4.8-.025.732-.026.96.23.867.912-.05.367-.058.74-.085,1.11Z" fill="#fff"/>
      <path id="Path_183343" data-name="Path 183343" d="M4766.9,172.588c1.174,0,2.348.025,3.521-.012.525-.016.7.151.693.674-.029,1.623.1,1.323-1.3,1.337-1.787.018-3.574.011-5.361,0a1.727,1.727,0,0,1-1.742-1.145c-.166-.527-.109-.881.591-.863C4764.5,172.61,4765.7,172.588,4766.9,172.588Z" fill="#fff"/>
    </g>
  </g>
</svg>
