<svg xmlns="http://www.w3.org/2000/svg" width="121.308" height="36.067" viewBox="0 0 121.308 36.067">
  <g id="Group_65815" data-name="Group 65815" transform="translate(-39.692 -4.913)">
    <path id="Path_183377" data-name="Path 183377" d="M6522.614,944.38a1.437,1.437,0,0,1-.887-.305,34.851,34.851,0,0,0-3.913-2.348c-.568-.31-1.059-.578-1.431-.8-.1-.06-.253-.142-.429-.238-1.711-.929-6.262-3.4-7.382-8.56-1.076-4.95-1.059-16.9-1.054-18.246a1.441,1.441,0,0,1,1.514-1.434c.3.015.622.023.948.023a19.647,19.647,0,0,0,11.78-3.88,1.445,1.445,0,0,1,1.715,0,19.648,19.648,0,0,0,11.779,3.88c.326,0,.645-.008.948-.023a1.442,1.442,0,0,1,1.514,1.433c0,.536.047,13.185-1.054,18.247h0c-1.124,5.163-5.67,7.631-7.382,8.559-.176.1-.328.181-.431.241-.37.217-.857.482-1.423.792a34.846,34.846,0,0,0-3.922,2.354A1.438,1.438,0,0,1,6522.614,944.38ZM6510.4,915.349c.019,3.506.153,12.338.985,16.166.843,3.872,4.286,5.741,5.94,6.639.2.108.371.2.517.287.333.2.8.454,1.351.752,1.092.6,2.385,1.3,3.422,1.98,1.038-.679,2.334-1.385,3.429-1.987.542-.3,1.012-.553,1.343-.747.146-.086.318-.181.517-.287,1.655-.9,5.1-2.766,5.94-6.639.837-3.849.968-12.664.986-16.165a21.361,21.361,0,0,0-24.429,0Zm24.851,16.472Z" transform="translate(-6467.825 -903.399)" fill="#169aff"/>
    <text id="Trust_Wallet" data-name="Trust Wallet" transform="translate(77 29.499)" fill="#169aff" font-size="16" font-family="MyriadPro-Bold, Myriad Pro" font-weight="700"><tspan x="0" y="0">Trust Wallet</tspan></text>
  </g>
</svg>
