<svg id="Layer_1" data-name="Layer 1" xmlns="http://www.w3.org/2000/svg" viewBox="0 0 94.66 95.91"><defs><style>.cls-1{fill:#0168ff;fill-rule:evenodd;}</style></defs><path id="Path_72517" data-name="Path 72517" class="cls-1" d="M12.46,64.49c-9.84-27.12,10.71-57.21,41-50C82.21,21.26,89.35,53.3,71.6,74.64c-.35.42.29.89.65.51,20.89-21.77,9.74-57-20.5-62.56C21.84,7.13.07,37.93,12,64.7a.27.27,0,0,0,.37.13.27.27,0,0,0,.14-.34Z"/><path id="Path_72518" data-name="Path 72518" class="cls-1" d="M11.12,62.67C20.27,88.07,54.76,93,73,74.44c.34-.34-.22-.9-.6-.6C52.51,90.13,23.28,87.09,11.65,62.45a.29.29,0,0,0-.38-.15.29.29,0,0,0-.15.38Z"/><path id="Path_72519" data-name="Path 72519" class="cls-1" d="M10,42.29l.28.07c.23.06.33-.31.11-.39l-.28-.11a.22.22,0,0,0-.28.13.21.21,0,0,0,.13.29Z"/><path id="Path_72520" data-name="Path 72520" class="cls-1" d="M17.41,26.53a3.71,3.71,0,0,0,3.95-.07c.2-.12,0-.44-.2-.35a3.66,3.66,0,0,1-3.57,0C17.33,26,17.15,26.39,17.41,26.53Z"/><path id="Path_72521" data-name="Path 72521" class="cls-1" d="M22.33,25.89c.65,0,1.29,0,1.94,0,.23,0,.23-.41,0-.41-.65,0-1.29,0-1.94,0-.22,0-.22.4,0,.4Z"/><path id="Path_72522" data-name="Path 72522" class="cls-1" d="M26.55,25.27a8.51,8.51,0,0,0,5.91-1.78,36.2,36.2,0,0,1,3.32-2.29c2.44-1.32,4.76-.7,7.18.33a.2.2,0,0,0,.26-.11.19.19,0,0,0-.1-.26c-2.49-1.13-4.68-1.78-7.23-.55-3.37,1.63-5.15,4.21-9.28,4.19-.29,0-.38.45-.06.47Z"/><path id="Path_72523" data-name="Path 72523" class="cls-1" d="M45.27,22.32c5.5,1.8,12.17,5.74,17,.49.17-.19-.13-.49-.31-.32-5.15,4.73-11,1.28-16.58-.51-.22-.07-.37.27-.14.34Z"/><path id="Path_72524" data-name="Path 72524" class="cls-1" d="M62.85,22.23a14.76,14.76,0,0,1,7.66.4c.27.07.36-.35.12-.47a11.43,11.43,0,0,0-7.84-.41C62.49,21.83,62.54,22.31,62.85,22.23Z"/><path id="Path_72525" data-name="Path 72525" class="cls-1" d="M16.43,28.59a7.41,7.41,0,0,0,4.54,0c.23-.07.08-.41-.15-.35a7.38,7.38,0,0,1-4.19-.09c-.31-.09-.51.36-.2.46Z"/><path id="Path_72526" data-name="Path 72526" class="cls-1" d="M22,28.3c2.49-1.31,5.34-.26,7.91-1.24,2.75-1,4.49-3.51,7.48-4.1a.27.27,0,0,0,.21-.32.26.26,0,0,0-.29-.22c-2.86.25-4.57,2.63-7,3.83-2.7,1.34-5.82.2-8.47,1.65-.24.13-.09.53.17.4Z"/><path id="Path_72527" data-name="Path 72527" class="cls-1" d="M40.13,22.74c4,.91,7.46,4,11.7,3.86a.22.22,0,0,0,0-.44c-4.24-.35-7.54-3.1-11.64-3.92C39.88,22.18,39.82,22.67,40.13,22.74Z"/><path id="Path_72528" data-name="Path 72528" class="cls-1" d="M53.24,26.68A9.49,9.49,0,0,0,60,26.59c3.87-1.55,5.81-4.85,10.52-3.1a.25.25,0,0,0,.32-.14.26.26,0,0,0-.12-.32,6.76,6.76,0,0,0-6.1.14A32.88,32.88,0,0,0,61.79,25a9.57,9.57,0,0,1-8.38,1.27C53.16,26.22,53,26.59,53.24,26.68Z"/><path id="Path_72529" data-name="Path 72529" class="cls-1" d="M40.23,25.28C47,26.5,53.83,30.91,60.76,28a.2.2,0,0,0,.1-.27.21.21,0,0,0-.26-.1c-7,2.77-13.53-1.6-20.33-2.78C40,24.83,40,25.23,40.23,25.28Z"/><path id="Path_72530" data-name="Path 72530" class="cls-1" d="M62.46,27.13c.22.07.37-.26.15-.33S62.24,27.06,62.46,27.13Z"/><path id="Path_72531" data-name="Path 72531" class="cls-1" d="M64.51,25.6c.22.07.36-.27.14-.34S64.28,25.53,64.51,25.6Z"/><path id="Path_72532" data-name="Path 72532" class="cls-1" d="M64.72,25.6a6.87,6.87,0,0,1,5.67-1.73.25.25,0,0,0,.27-.22.23.23,0,0,0-.2-.26,7,7,0,0,0-6,1.92C64.32,25.47,64.54,25.76,64.72,25.6Z"/><path id="Path_72533" data-name="Path 72533" class="cls-1" d="M37.45,24c-2.19.6-4.05,2.52-5.81,3.86-3,2.29-5.83,1.1-9.23,1.19-.23,0-.23.39,0,.41,2.46.18,5.32,1.07,7.7.12,2.78-1.13,4.74-3.83,7.47-5.11.24-.1.16-.54-.12-.46Z"/><path id="Path_72534" data-name="Path 72534" class="cls-1" d="M27.32,17c5.87,2.95,10.43-2.58,16.66-1,2.41.63,4.56,1.86,7.11,1.88s4.36-1.28,6.91-2c.26-.07.21-.47-.06-.41-1.85.42-3.49,1.53-5.38,1.81-3.36.5-6.25-1.38-9.41-2.1C37.54,14,33.34,19.14,27.5,16.59a.23.23,0,0,0-.18.43Z"/><path id="Path_72535" data-name="Path 72535" class="cls-1" d="M29.76,15.57a2.84,2.84,0,0,0,3.39.84c.24-.09.09-.43-.15-.36a2.35,2.35,0,0,1-2.8-.82c-.23-.28-.68.06-.44.34Z"/><path id="Path_72536" data-name="Path 72536" class="cls-1" d="M40.8,14.79c5.1.15,10.73,3.5,15.36,0a.31.31,0,0,0,.06-.43.31.31,0,0,0-.44-.06h0c-4.39,3.37-10.05.24-14.93.18-.23,0-.28.35-.05.36Z"/><path id="Path_72537" data-name="Path 72537" class="cls-1" d="M35.41,15.65a2.75,2.75,0,0,1,1.68-.57.23.23,0,0,0,.19-.25.25.25,0,0,0-.19-.19,2.75,2.75,0,0,0-2,.58c-.27.2.05.62.33.42Z"/><path id="Path_72538" data-name="Path 72538" class="cls-1" d="M10.17,53.44c6.85-10.44,19-3.33,28.55-6.8,3.27-1.19,2-1.3,5.05-2.83,8-4,12.93-4.79,21.1-2,.25.09.42-.29.16-.39-4-1.56-8.28-3.12-12.68-2.4C46.06,40,42,45.64,35.69,46.94c-9,1.85-19.84-3.24-25.87,6.23-.15.24.2.51.35.27Z"/><path id="Path_72539" data-name="Path 72539" class="cls-1" d="M67.15,41.92a16.11,16.11,0,0,0,13.49.43.28.28,0,0,0-.22-.51,16,16,0,0,1-13.06-.42c-.32-.15-.53.35-.21.5Z"/><path id="Path_72540" data-name="Path 72540" class="cls-1" d="M79.89,38.91a39.53,39.53,0,0,1-6.61-.41c-1.78-.28-4.93-.59-6.28-1.92-4.89-4.84,2.14-9.14,5.89-11a.28.28,0,0,0-.22-.51c-3.78,1.54-9.41,4.93-7.62,10S75.87,39.61,80,39.52c.4,0,.31-.62-.09-.61Z"/><path id="Path_72541" data-name="Path 72541" class="cls-1" d="M72.37,26.44c-1.16.78-2.33,1.58-3.44,2.44-.21.16,0,.46.25.32,1.19-.75,2.33-1.57,3.47-2.4.23-.17,0-.52-.28-.36Z"/><path id="Path_72542" data-name="Path 72542" class="cls-1" d="M66.93,34.29a13.08,13.08,0,0,0,13,3.43c.31-.09.16-.62-.15-.54A13.08,13.08,0,0,1,67.15,34c-.16-.16-.38.12-.22.29Z"/><path id="Path_72543" data-name="Path 72543" class="cls-1" d="M72.24,27.64C71,28.8,69.7,29.94,68.6,31.21c-.7.8-1.12,1.59-.48,2.56,1.4,2.12,5.28,3.08,7.63,2.77a.22.22,0,0,0,.18-.25.24.24,0,0,0-.19-.18c-2-.13-5.16-.35-6.57-2.12-1.68-2.11,2.06-4.63,3.4-6,.19-.2-.14-.53-.33-.34Z"/><path id="Path_72544" data-name="Path 72544" class="cls-1" d="M71.53,29.74a2.53,2.53,0,0,0-.81,3.38,3.93,3.93,0,0,0,3.75,1.74c.25,0,.25-.42,0-.44A4.65,4.65,0,0,1,72.39,34c-1.38-.84-2.31-2.73-.59-3.94.23-.16,0-.51-.27-.35Z"/><path id="Path_72545" data-name="Path 72545" class="cls-1" d="M65.56,27.46c-1.72,1.48-4.46,3.81-4.35,6.32.1,2.09,2.21,3.78,3.92,4.62a.26.26,0,0,0,.34-.13.27.27,0,0,0-.08-.31c-1.42-1.1-3.31-2.05-3.52-4-.26-2.4,2.26-4.7,3.93-6.16C66,27.6,65.74,27.31,65.56,27.46Z"/><path id="Path_72546" data-name="Path 72546" class="cls-1" d="M60.06,30.51A4.51,4.51,0,0,0,60.34,36a.19.19,0,0,0,.27,0,.2.2,0,0,0,0-.28,4.32,4.32,0,0,1-.22-5c.15-.26-.2-.54-.37-.29Z"/><path id="Path_72547" data-name="Path 72547" class="cls-1" d="M70.83,41a14.92,14.92,0,0,0,9.59,0c.25-.1.14-.53-.13-.47a18.59,18.59,0,0,1-9.34,0C70.7,40.51,70.57,40.94,70.83,41Z"/><path id="Path_72548" data-name="Path 72548" class="cls-1" d="M68.05,26.08a9.59,9.59,0,0,1,4.07-1.49c.25-.05.28-.45,0-.47a6.25,6.25,0,0,0-4.41,1.52.28.28,0,0,0,.34.44Z"/><path id="Path_72549" data-name="Path 72549" class="cls-1" d="M19,24.68c2.86.49,5.6-.54,8.33-1.33,1.38-.39,3.17-.63,4.37-1.49.76-.54,1.23-1.8,2.23-1.91.23,0,.24-.4,0-.4a1.1,1.1,0,0,0-1,.27c-1.18.78-1.84,1.91-3.31,2.38-3.38,1.06-6.95,2.38-10.53,1.92a.28.28,0,0,0-.31.26.29.29,0,0,0,.23.3Z"/><path id="Path_72550" data-name="Path 72550" class="cls-1" d="M22.07,23.06c2.27-.28,9.05-1.88,6-5.48a.26.26,0,1,0-.41.31h0c1.23,1.86-.58,3.24-2.17,3.84a20.32,20.32,0,0,1-3.51.9.22.22,0,0,0-.18.25.25.25,0,0,0,.24.18Z"/><path id="Path_72551" data-name="Path 72551" class="cls-1" d="M23.16,21.42a7.1,7.1,0,0,0,3.85-2c.18-.18-.12-.47-.31-.31A8.78,8.78,0,0,1,23.1,21c-.29.07-.24.52.06.46Z"/><path id="Path_72552" data-name="Path 72552" class="cls-1" d="M12.72,64.82C16.44,54.4,25.24,51.56,35.39,51.06a20.85,20.85,0,0,0,7.94-1.48c4.92-2.29,6.81-7.18,13.49-6.47a.23.23,0,0,0,.26-.19.23.23,0,0,0-.19-.26c-3.79-.78-6.1.75-9.11,3-6.39,4.71-11.35,4.07-18.61,5.12-8,1.17-14.38,6.1-17,13.84-.12.36.41.59.54.23Z"/><path id="Path_72553" data-name="Path 72553" class="cls-1" d="M11.44,61.91A23.07,23.07,0,0,1,31,49c.24,0,.19-.38,0-.37A22.47,22.47,0,0,0,11,61.74c-.11.26.28.42.41.17Z"/><path id="Path_72554" data-name="Path 72554" class="cls-1" d="M32.05,49.28c5.54.3,11.42-1.45,15.27-5.61.17-.17-.11-.45-.29-.29-4.36,3.57-9.17,5.76-14.92,5.5-.26,0-.32.39-.06.4Z"/><path id="Path_72555" data-name="Path 72555" class="cls-1" d="M11.12,57.8A36.45,36.45,0,0,1,22.54,49c.23-.12.09-.47-.15-.37a32.22,32.22,0,0,0-11.56,8.94c-.16.18.13.4.29.22Z"/><path id="Path_72556" data-name="Path 72556" class="cls-1" d="M9.94,55.88a9.53,9.53,0,0,1,2.52-2.66c.22-.15,0-.44-.23-.31a7.53,7.53,0,0,0-2.65,2.7c-.14.24.2.52.36.27Z"/><path id="Path_72557" data-name="Path 72557" class="cls-1" d="M14.37,51.4a22.76,22.76,0,0,1,4.45-2.27c.25-.1.08-.48-.17-.38a20.58,20.58,0,0,0-4.52,2.33c-.22.14,0,.46.24.32Z"/><path id="Path_72558" data-name="Path 72558" class="cls-1" d="M15,65.24C18.86,59.35,24.61,53.35,32,52.57c.24,0,.25-.42,0-.42-7.17,0-14.12,7-17.36,12.84-.13.24.27.48.42.24Z"/><path id="Path_72559" data-name="Path 72559" class="cls-1" d="M35.49,52.11A23.41,23.41,0,0,0,47,50a.2.2,0,0,0-.15-.38,28.07,28.07,0,0,1-11.26,2.07c-.27,0-.34.41,0,.43Z"/><path id="Path_72560" data-name="Path 72560" class="cls-1" d="M49.8,47.69l3.91-1.61a.19.19,0,0,0,.11-.25.21.21,0,0,0-.26-.11l-3.91,1.63a.18.18,0,0,0-.08.24.19.19,0,0,0,.23.1Z"/><path id="Path_72561" data-name="Path 72561" class="cls-1" d="M69.64,46.8A31.69,31.69,0,0,0,82,50.55a.28.28,0,0,0,.08-.56A36.68,36.68,0,0,1,69.8,46.43c-.23-.12-.39.25-.16.37Z"/><path id="Path_72562" data-name="Path 72562" class="cls-1" d="M64.88,44C70.66,44.66,76,50.77,82,48.53c.26-.09.15-.53-.12-.46-6.34,1.52-10.9-4-17-4.54a.25.25,0,0,0-.27.22A.25.25,0,0,0,64.88,44Z"/><path id="Path_72563" data-name="Path 72563" class="cls-1" d="M71.83,44.88a15.26,15.26,0,0,0,9.25,1.75.26.26,0,0,0,.21-.31.25.25,0,0,0-.27-.21,17,17,0,0,1-9-1.6c-.24-.1-.38.25-.16.37Z"/><path id="Path_72564" data-name="Path 72564" class="cls-1" d="M75.26,44.73A7,7,0,0,0,81.53,44c.23-.15,0-.55-.24-.42a7,7,0,0,1-5.84.73C75.16,44.2,75,44.63,75.26,44.73Z"/><path id="Path_72565" data-name="Path 72565" class="cls-1" d="M16.24,69.75c1.05-.4,2.11-.8,3.15-1.22a.2.2,0,0,0-.15-.36c-1.06.36-2.13.74-3.19,1.13-.29.11-.11.55.19.45Z"/><path id="Path_72566" data-name="Path 72566" class="cls-1" d="M21.26,67.78c8.56-1.9,15.46,3.31,23.81,3.07,10.82-.31,17.32-5.28,27.66,3,.31.25.68-.23.38-.48C66.79,68,60.28,67,52.28,68.81c-7.23,1.64-12.13.76-19.23-1-4.25-1-7.59-1.5-11.84-.54-.3.06-.24.53.05.46Z"/><path id="Path_72567" data-name="Path 72567" class="cls-1" d="M17.19,71.55C25,68.48,32,75,39.57,75.59c7.77.58,15.88-1.86,21.81,5.09.24.29.71-.07.47-.37C57.49,75,51.55,74.93,45.13,75c-4.45,0-8.36-.09-12.57-1.55-2.81-1-5.36-2.67-8.33-3.19a11.07,11.07,0,0,0-7.19.93.2.2,0,0,0-.12.26.21.21,0,0,0,.27.12Z"/><path id="Path_72568" data-name="Path 72568" class="cls-1" d="M22,69.34c7.24.63,13.69,3.81,21,4.2,8,.44,15.62-.85,22,5.27.27.26.62-.2.36-.46C60.72,73.77,55.23,73.13,48.94,73c-3.92-.07-7.86.24-11.76-.46C31.85,71.6,27.45,69.28,22,69c-.22,0-.28.33,0,.35Z"/><path id="Path_72569" data-name="Path 72569" class="cls-1" d="M26.23,68.5A100.43,100.43,0,0,0,41.55,72c6.22.74,13.58-1.78,19.46,0,.25.07.4-.29.16-.37-5.19-1.78-10.58.43-16,.2-6.42-.26-12.69-2-18.85-3.67-.23-.06-.35.34-.12.41Z"/><path id="Path_72570" data-name="Path 72570" class="cls-1" d="M63,72.6c2.91.35,4.91,2.21,6.86,4.23.27.28.76-.09.49-.37-2-2.06-4.26-4.2-7.3-4.31-.28,0-.36.42-.05.45Z"/><path id="Path_72571" data-name="Path 72571" class="cls-1" d="M56.44,72.74A15.3,15.3,0,0,1,67.38,78c.21.23.59,0,.38-.29A14.74,14.74,0,0,0,56.5,72.34c-.25,0-.31.38,0,.4Z"/><path id="Path_72572" data-name="Path 72572" class="cls-1" d="M60.11,69.82a14.9,14.9,0,0,0,1.76.53c.23.05.33-.31.11-.41a14.54,14.54,0,0,0-1.69-.56c-.29-.08-.49.33-.19.44Z"/><path id="Path_72573" data-name="Path 72573" class="cls-1" d="M63.93,70.78a11.48,11.48,0,0,1,6.87,4.5c.16.21.47,0,.33-.26A10.81,10.81,0,0,0,64,70.38c-.26,0-.3.34,0,.4Z"/><path id="Path_72574" data-name="Path 72574" class="cls-1" d="M58.76,76.2a4.26,4.26,0,0,1,2.07,1c.2.14.43-.15.24-.29a5.71,5.71,0,0,0-2.27-1c-.22-.06-.27.3,0,.35Z"/><path id="Path_72575" data-name="Path 72575" class="cls-1" d="M61.53,78a2.52,2.52,0,0,1,1.39,2c0,.25.45.2.4-.05a3.09,3.09,0,0,0-1.55-2.22c-.21-.13-.45.17-.24.3Z"/><path id="Path_72576" data-name="Path 72576" class="cls-1" d="M38.46,68.34c6.95,1.42,13.7-2,20.66-1a.21.21,0,0,0,.06-.41c-7-1.25-13.68,2.31-20.67,1-.24,0-.28.33,0,.38Z"/><path id="Path_72577" data-name="Path 72577" class="cls-1" d="M63.63,67.73a18.33,18.33,0,0,1,10,5.06c.25.24.57-.18.33-.42a17.79,17.79,0,0,0-10.28-5.1.23.23,0,0,0-.26.21.26.26,0,0,0,.2.26Z"/><path id="Path_72578" data-name="Path 72578" class="cls-1" d="M70.09,67.82a11.92,11.92,0,0,1,4.3,3.2c.17.2.5,0,.33-.25a10.64,10.64,0,0,0-4.47-3.31.21.21,0,0,0-.26.11.2.2,0,0,0,.11.25Z"/><path id="Path_72579" data-name="Path 72579" class="cls-1" d="M45.13,76.89c5,0,11.57,0,14.86,4.48a.25.25,0,0,0,.4-.3c-3.29-4.73-10.09-4.64-15.26-4.61C44.89,76.46,44.88,76.89,45.13,76.89Z"/><path id="Path_72580" data-name="Path 72580" class="cls-1" d="M18.56,72.44a9.53,9.53,0,0,1,5.24-.14.22.22,0,0,0,.11-.41,7.8,7.8,0,0,0-5.53.11c-.29.1-.11.53.18.44Z"/><path id="Path_72581" data-name="Path 72581" class="cls-1" d="M19.26,74.25a9.66,9.66,0,0,0,1.39-.52c.24-.1.14-.52-.12-.45a10.62,10.62,0,0,0-1.49.43c-.35.13-.13.64.22.54Z"/><path id="Path_72582" data-name="Path 72582" class="cls-1" d="M22.27,73.66a3.06,3.06,0,0,1,2.39-.16c.26.07.34-.33.12-.43a2.89,2.89,0,0,0-2.71.13c-.28.15-.09.6.2.46Z"/><path id="Path_72583" data-name="Path 72583" class="cls-1" d="M36.91,82.16a88.72,88.72,0,0,0,14.84.66.24.24,0,0,0,.19-.26.22.22,0,0,0-.19-.18c-4.94-.23-9.86-.22-14.79-.6a.19.19,0,0,0-.05.38Z"/><path id="Path_72584" data-name="Path 72584" class="cls-1" d="M54.08,82.14c.66-.1,1.31-.18,2-.31A.22.22,0,0,0,56,81.4c-.66.09-1.31.22-2,.35a.19.19,0,0,0-.17.22.19.19,0,0,0,.22.17Z"/><path id="Path_72585" data-name="Path 72585" class="cls-1" d="M27.57,78.74a7.91,7.91,0,0,0,4.34,1.37c.26,0,.34-.4.05-.43a10,10,0,0,1-4.1-1.32c-.26-.15-.55.21-.29.38Z"/><path id="Path_72586" data-name="Path 72586" class="cls-1" d="M67.26,63l.57.16c.25.07.42-.28.16-.37l-.56-.2C67.16,62.53,67,63,67.26,63Z"/><path id="Path_72587" data-name="Path 72587" class="cls-1" d="M73.88,65.77a8.21,8.21,0,0,1,3,2.13c.21.22.58-.06.38-.28A8.49,8.49,0,0,0,74,65.41a.2.2,0,0,0-.25.1.19.19,0,0,0,.1.26Z"/><path id="Path_72588" data-name="Path 72588" class="cls-1" d="M67.05,60.78a29.67,29.67,0,0,1,9.93,5,.19.19,0,1,0,.23-.31,25.24,25.24,0,0,0-10.07-5c-.21,0-.32.33-.09.39Z"/><path id="Path_72589" data-name="Path 72589" class="cls-1" d="M72.14,61.42a40.58,40.58,0,0,1,5.25,3.09c.21.14.44-.16.24-.3a30.82,30.82,0,0,0-5.34-3.15c-.22-.11-.37.25-.15.36Z"/><path id="Path_72590" data-name="Path 72590" class="cls-1" d="M68.59,57.86c.69.21,1.36.43,2.06.61.22.06.32-.31.1-.4-.65-.24-1.31-.45-2-.66-.29-.09-.48.35-.19.45Z"/><path id="Path_72591" data-name="Path 72591" class="cls-1" d="M73.27,59.65c1.64,1.05,3.27,2.12,4.94,3.11.21.12.46-.17.24-.32-1.62-1.07-3.3-2.06-5-3.08-.2-.13-.43.16-.22.29Z"/><path id="Path_72592" data-name="Path 72592" class="cls-1" d="M74.16,59q2.19,1,4.41,1.89a.2.2,0,0,0,.25-.12.18.18,0,0,0-.09-.24c-1.46-.67-2.93-1.3-4.39-1.93a.22.22,0,0,0-.28.13.21.21,0,0,0,.1.27Z"/><path id="Path_72593" data-name="Path 72593" class="cls-1" d="M77.16,58.38c.57.18,1.13.36,1.72.52.23.07.4-.28.15-.37-.56-.2-1.12-.38-1.69-.56-.27-.08-.45.32-.18.41Z"/><path id="Path_72594" data-name="Path 72594" class="cls-1" d="M11.11,48.25c.24.08.4-.29.16-.36S10.87,48.17,11.11,48.25Z"/><path id="Path_72595" data-name="Path 72595" class="cls-1" d="M12.24,48.31a17.36,17.36,0,0,0,1.52-.85c.22-.14,0-.48-.22-.38A15,15,0,0,0,12,47.8c-.32.16-.1.68.21.51Z"/><path id="Path_72596" data-name="Path 72596" class="cls-1" d="M14.81,46.87a12.16,12.16,0,0,1,8.08-1.13c.24,0,.36-.35.12-.43a10.6,10.6,0,0,0-8.36,1.19c-.22.12-.07.49.16.37Z"/><path id="Path_72597" data-name="Path 72597" class="cls-1" d="M12.57,46.51a15.15,15.15,0,0,1,8-2.19c.26,0,.23-.38,0-.42a11.35,11.35,0,0,0-8.3,2.22c-.27.19,0,.56.3.39Z"/><path id="Path_72598" data-name="Path 72598" class="cls-1" d="M14.55,44a3.64,3.64,0,0,1,2.56-.66.2.2,0,0,0,.23-.19.2.2,0,0,0-.17-.23,3.1,3.1,0,0,0-2.88.74.2.2,0,0,0,0,.3A.22.22,0,0,0,14.55,44Z"/><path id="Path_72599" data-name="Path 72599" class="cls-1" d="M13.81,42.17a40.31,40.31,0,0,1,6-1.43.2.2,0,0,0,.17-.23.22.22,0,0,0-.23-.17h0a27.68,27.68,0,0,0-6.15,1.46c-.25.08-.09.45.16.37Z"/><path id="Path_72600" data-name="Path 72600" class="cls-1" d="M13.42,38.31c3.19-.4,6.46-.8,9.59-1.51a.19.19,0,0,0,.17-.21.2.2,0,0,0-.22-.17c-3.2.28-6.43.9-9.59,1.48a.2.2,0,0,0-.16.25.22.22,0,0,0,.21.16Z"/><path id="Path_72601" data-name="Path 72601" class="cls-1" d="M15.29,36.46c1.19-.12,2.38-.23,3.56-.41a.2.2,0,0,0,.17-.24.2.2,0,0,0-.22-.17c-1.2.08-2.38.24-3.57.38a.22.22,0,0,0-.19.25.21.21,0,0,0,.25.19Z"/><path id="Path_72602" data-name="Path 72602" class="cls-1" d="M15.49,34.75A26.53,26.53,0,0,0,23,34c.26-.07.22-.45,0-.41a71.55,71.55,0,0,1-7.44.75c-.25,0-.25.45,0,.45Z"/><path id="Path_72603" data-name="Path 72603" class="cls-1" d="M18.06,32.66c.75-.06,1.5-.13,2.25-.22.26,0,.2-.41,0-.4-.76.05-1.51.12-2.26.19-.28,0-.23.46.05.43Z"/><path id="Path_72604" data-name="Path 72604" class="cls-1" d="M28.74,46A15.28,15.28,0,0,0,43.8,41.55c.15-.17-.11-.44-.29-.29A16.72,16.72,0,0,1,28.8,45.54c-.28,0-.32.35-.06.42Z"/><path id="Path_72605" data-name="Path 72605" class="cls-1" d="M34,44.33a17.81,17.81,0,0,0,5.75-1.39.2.2,0,0,0,.1-.26.19.19,0,0,0-.24-.1A19.39,19.39,0,0,1,34,44c-.23,0-.18.39,0,.37Z"/><path id="Path_72606" data-name="Path 72606" class="cls-1" d="M46.75,40A22.56,22.56,0,0,1,57.2,37.88c.31,0,.38-.46.06-.49a21,21,0,0,0-10.67,2.2c-.24.12-.08.49.16.38Z"/><path id="Path_72607" data-name="Path 72607" class="cls-1" d="M36,66.16A41.61,41.61,0,0,0,54.27,65c.25-.08.14-.51-.12-.45a46,46,0,0,1-18,1.2.2.2,0,0,0-.22.16.19.19,0,0,0,.16.22h0Z"/><path id="Path_72608" data-name="Path 72608" class="cls-1" d="M42.77,65c1.72-.16,3.45-.29,5.16-.54a.2.2,0,0,0,.17-.24.19.19,0,0,0-.22-.17c-1.73.09-3.45.32-5.17.5C42.42,64.55,42.48,65,42.77,65Z"/><path id="Path_72609" data-name="Path 72609" class="cls-1" d="M32.23,53.79C38.9,53.58,46,53,51.36,48.69a.18.18,0,0,0,0-.27.2.2,0,0,0-.26,0c-5.61,4-12.3,4.48-18.95,5-.28,0-.22.44.06.43Z"/><path id="Path_72610" data-name="Path 72610" class="cls-1" d="M39,55.23a39.26,39.26,0,0,0,12.1-3.72.25.25,0,0,0,.13-.32.25.25,0,0,0-.32-.13h0a57.75,57.75,0,0,1-12,3.75.22.22,0,0,0-.18.25.21.21,0,0,0,.24.17Z"/><path id="Path_72611" data-name="Path 72611" class="cls-1" d="M41.6,57a35.72,35.72,0,0,1,3.82-1.29c.22-.07.12-.44-.11-.39a20.21,20.21,0,0,0-3.87,1.29.22.22,0,0,0-.12.28.21.21,0,0,0,.28.11Z"/><path id="Path_72612" data-name="Path 72612" class="cls-1" d="M14.91,66.39c1.56,1,3.27.28,4.94-.17,2.49-.68,5-1.27,7.48-2.09a.24.24,0,0,0,.12-.32.25.25,0,0,0-.25-.14c-1.69.36-3.35.87-5,1.32-2,.56-5,2.09-7,1-.23-.14-.47.27-.24.42Z"/><path id="Path_72613" data-name="Path 72613" class="cls-1" d="M21.36,58.68a10.17,10.17,0,0,0-4,5.5.27.27,0,0,0,.15.35.28.28,0,0,0,.13,0A13.46,13.46,0,0,0,23.39,63a.21.21,0,0,0,.12-.29.23.23,0,0,0-.29-.12A21.59,21.59,0,0,1,17.57,64l.27.36A10.25,10.25,0,0,1,21.6,59c.2-.15,0-.45-.24-.31Z"/><path id="Path_72614" data-name="Path 72614" class="cls-1" d="M28.67,63.87c1.32.11,2.64.24,4,.26.31,0,.39-.46.07-.5-1.31-.16-2.64-.2-4-.27C28.41,63.35,28.34,63.85,28.67,63.87Z"/><path id="Path_72615" data-name="Path 72615" class="cls-1" d="M26.11,8.45a25.7,25.7,0,0,0,2.37,2.63c.22.21.54-.13.37-.36A24.5,24.5,0,0,0,26.58,8.1c-.25-.26-.71.06-.46.35Z"/><path id="Path_72616" data-name="Path 72616" class="cls-1" d="M28.69.35a21.53,21.53,0,0,0,3.37,8.36.29.29,0,0,0,.4,0,.3.3,0,0,0,.09-.33A84.87,84.87,0,0,1,29.28.19c-.09-.34-.67-.19-.59.16Z"/><path id="Path_72617" data-name="Path 72617" class="cls-1" d="M33.39,5.08c.31.94.63,1.88,1,2.8.12.3.53.11.44-.19-.28-1-.61-1.88-.94-2.82C33.77,4.53,33.27,4.75,33.39,5.08Z"/><path id="Path_72618" data-name="Path 72618" class="cls-1" d="M4.09,25.2a22.74,22.74,0,0,0,7.05,1.56c.42,0,.52-.61.08-.65A31.52,31.52,0,0,1,4.3,24.69c-.33-.12-.56.38-.21.51Z"/><path id="Path_72619" data-name="Path 72619" class="cls-1" d="M6,28.9a5,5,0,0,0,3.72.58.25.25,0,0,0,.21-.29A.24.24,0,0,0,9.69,29a6.85,6.85,0,0,1-3.43-.6c-.34-.16-.54.35-.23.52Z"/><path id="Path_72620" data-name="Path 72620" class="cls-1" d="M10,22.05a6.34,6.34,0,0,0,3.34,1.68c.26,0,.39-.38.13-.46a7.83,7.83,0,0,1-3.14-1.64c-.26-.23-.59.19-.33.42Z"/><path id="Path_72621" data-name="Path 72621" class="cls-1" d="M14.46,13.67c1.43,1.44,2.83,2.94,4.35,4.29.21.19.55-.14.36-.34-1.39-1.53-2.92-2.92-4.4-4.35-.24-.23-.54.17-.31.4Z"/><path id="Path_72622" data-name="Path 72622" class="cls-1" d="M20.57,14.25l1,.91c.21.19.55-.14.35-.35l-1-1c-.25-.25-.61.2-.35.44Z"/><path id="Path_72623" data-name="Path 72623" class="cls-1" d="M2.19,68.72a36.32,36.32,0,0,0,6.15-2.89c.29-.18,0-.55-.26-.47A36.28,36.28,0,0,0,1.94,68.1a.34.34,0,0,0,.26.62Z"/><path id="Path_72624" data-name="Path 72624" class="cls-1" d="M2.7,65.27a31.4,31.4,0,0,0,3.44-.85c.28-.09.15-.54-.14-.5a32.42,32.42,0,0,0-3.38.77c-.35.09-.29.66.08.58Z"/><path id="Path_72625" data-name="Path 72625" class="cls-1" d="M.32,55.17c1.85-.38,3.72-.75,5.54-1.25.35-.1.19-.68-.16-.61-1.84.34-3.65.82-5.47,1.28C-.12,54.68-.06,55.24.32,55.17Z"/><path id="Path_72626" data-name="Path 72626" class="cls-1" d="M4,51.25c.84.06,1.67.11,2.51.09.28,0,.27-.44,0-.48-.81-.1-1.62-.14-2.44-.17-.36,0-.44.53-.07.56Z"/><path id="Path_72627" data-name="Path 72627" class="cls-1" d="M7,77.78a49.15,49.15,0,0,0,5.2-4.69c.2-.22-.13-.52-.36-.36a50.3,50.3,0,0,0-5.23,4.66c-.22.23.15.58.39.39Z"/><path id="Path_72628" data-name="Path 72628" class="cls-1" d="M11.71,78.7c.88-.77,1.8-1.52,2.63-2.37.21-.21-.13-.54-.37-.36-.91.7-1.76,1.49-2.62,2.26-.3.25.06.72.35.47Z"/><path id="Path_72629" data-name="Path 72629" class="cls-1" d="M13.9,83.7a71.28,71.28,0,0,0,4.7-5.44c.16-.22-.14-.56-.35-.36-1.73,1.68-3.25,3.6-4.81,5.43C13.19,83.63,13.65,84,13.9,83.7Z"/><path id="Path_72630" data-name="Path 72630" class="cls-1" d="M24.29,84.35a24.34,24.34,0,0,0-.7,2.35c-.06.29.38.4.49.14.3-.74.54-1.48.77-2.25.11-.37-.44-.62-.56-.24Z"/><path id="Path_72631" data-name="Path 72631" class="cls-1" d="M28.45,85.68a7.74,7.74,0,0,1-1.83,4.91c-.18.23.14.57.37.37a6,6,0,0,0,2-5.28c0-.3-.55-.32-.55,0Z"/><path id="Path_72632" data-name="Path 72632" class="cls-1" d="M31.91,88c-.56,1.72-1.14,3.43-1.61,5.17-.07.24.33.35.42.12.61-1.68,1.12-3.39,1.65-5.09.09-.3-.36-.5-.46-.2Z"/><path id="Path_72633" data-name="Path 72633" class="cls-1" d="M37.73,86.86a64.06,64.06,0,0,0-.86,6.6.26.26,0,0,0,.23.28.25.25,0,0,0,.27-.21q.68-3.27,1-6.58a.33.33,0,0,0-.66-.09Z"/><path id="Path_72634" data-name="Path 72634" class="cls-1" d="M40,88.24c.06,1.06.11,2.13.23,3.19,0,.31.47.23.47-.06,0-1.07-.11-2.14-.18-3.2,0-.34-.54-.27-.52.07Z"/><path id="Path_72635" data-name="Path 72635" class="cls-1" d="M43.22,88.54a61.34,61.34,0,0,1,.59,7.17c0,.25.43.25.44,0a27.07,27.07,0,0,0-.54-7.24.24.24,0,0,0-.28-.21.25.25,0,0,0-.21.28Z"/><path id="Path_72636" data-name="Path 72636" class="cls-1" d="M46.73,88.53c.15.87.3,1.75.44,2.62,0,.27.46.22.42-.05-.13-.88-.25-1.76-.38-2.63,0-.32-.54-.25-.48.06Z"/><path id="Path_72637" data-name="Path 72637" class="cls-1" d="M53.92,88.19c.6,2.54,1.18,5.08,1.91,7.58.07.24.48.13.43-.12-.51-2.53-1.18-5-1.83-7.53C54.36,87.8,53.84,87.86,53.92,88.19Z"/><path id="Path_72638" data-name="Path 72638" class="cls-1" d="M57.6,87.64c.35,1.58.64,3.18,1.12,4.73.09.27.52.14.48-.13-.23-1.58-.67-3.13-1-4.68-.08-.36-.64-.29-.56.08Z"/><path id="Path_72639" data-name="Path 72639" class="cls-1" d="M61.77,86.6c.53.83,1.06,1.67,1.64,2.47.19.26.53,0,.38-.29-.5-.85-1.06-1.68-1.6-2.5-.19-.29-.61,0-.42.32Z"/><path id="Path_72640" data-name="Path 72640" class="cls-1" d="M76.68,21.38A33.47,33.47,0,0,0,83.48,16c.23-.22-.13-.52-.37-.37A32.86,32.86,0,0,0,76.39,21C76.23,21.18,76.46,21.5,76.68,21.38Z"/><path id="Path_72641" data-name="Path 72641" class="cls-1" d="M74.83,19.66a8.31,8.31,0,0,0,3.53-3.56c.12-.23-.25-.45-.4-.23a10.28,10.28,0,0,1-3.42,3.3c-.27.16,0,.65.29.49Z"/><path id="Path_72642" data-name="Path 72642" class="cls-1" d="M72.43,17.35c.49-.89,1-1.77,1.43-2.67.12-.23-.25-.46-.39-.23-.54.88-1,1.78-1.53,2.69-.17.3.32.51.49.21Z"/><path id="Path_72643" data-name="Path 72643" class="cls-1" d="M58.58,4.23a23.16,23.16,0,0,1-1.36,6.36c-.08.25.28.41.38.16A17.57,17.57,0,0,0,59,4.28c0-.27-.42-.34-.43,0Z"/><path id="Path_72644" data-name="Path 72644" class="cls-1" d="M61.08,8.06c-.44,1.34-.93,2.67-1.24,4-.05.26.35.35.45.12a38.81,38.81,0,0,0,1.3-4c.11-.34-.39-.56-.51-.22Z"/><path id="Path_72645" data-name="Path 72645" class="cls-1" d="M65,9.94c-.57,1.07-1.15,2.12-1.68,3.21-.13.27.29.43.43.18.6-1,1.15-2.12,1.71-3.19.14-.29-.31-.48-.46-.2Z"/><path id="Path_72646" data-name="Path 72646" class="cls-1" d="M49.22,4.29a8.73,8.73,0,0,0-.91,4.84c0,.29.51.31.52,0a12.71,12.71,0,0,1,.85-4.64.24.24,0,0,0-.15-.32.23.23,0,0,0-.31.12Z"/><path id="Path_72647" data-name="Path 72647" class="cls-1" d="M44.66,6.83l.8,1.48c.16.26.58.1.44-.19-.23-.5-.48-1-.74-1.5C45,6.3,44.49,6.52,44.66,6.83Z"/><path id="Path_72648" data-name="Path 72648" class="cls-1" d="M84.84,46.42a60.27,60.27,0,0,0,9.59-.5c.29-.05.31-.53,0-.54a61.3,61.3,0,0,0-9.67.45c-.4,0-.29.6.08.59Z"/><path id="Path_72649" data-name="Path 72649" class="cls-1" d="M83.86,43.66c1.57-.27,3.16-.48,4.71-.83a.23.23,0,0,0,.19-.27.22.22,0,0,0-.25-.19c-1.58.18-3.15.5-4.73.77a.26.26,0,0,0,.08.52Z"/><path id="Path_72650" data-name="Path 72650" class="cls-1" d="M84.34,38.79a3.73,3.73,0,0,1,3.14-.85c.29,0,.43-.41.14-.5a3.56,3.56,0,0,0-3.67.84C83.64,38.55,84,39.05,84.34,38.79Z"/><path id="Path_72651" data-name="Path 72651" class="cls-1" d="M81,31.51c2.88-1.09,5.84-2.11,8.62-3.46a.24.24,0,0,0,.12-.33.26.26,0,0,0-.31-.13c-2.94.93-5.79,2.23-8.63,3.42a.27.27,0,0,0-.13.36.28.28,0,0,0,.33.14Z"/><path id="Path_72652" data-name="Path 72652" class="cls-1" d="M80.43,29.42a15.34,15.34,0,0,1,4.2-1.86c.27-.09.14-.53-.14-.49A10.57,10.57,0,0,0,80.08,29C79.78,29.17,80.13,29.63,80.43,29.42Z"/><path id="Path_72653" data-name="Path 72653" class="cls-1" d="M79.78,27.41l1.47-.82c.25-.15.09-.56-.17-.43l-1.52.73c-.32.16-.1.7.22.52Z"/><path id="Path_72654" data-name="Path 72654" class="cls-1" d="M78.82,68.75a58.94,58.94,0,0,0,7.37,4.39A.24.24,0,0,0,86.5,73a.23.23,0,0,0-.07-.27,58.25,58.25,0,0,0-7.3-4.51c-.3-.17-.6.33-.31.52Z"/><path id="Path_72655" data-name="Path 72655" class="cls-1" d="M77.48,71.09a15.74,15.74,0,0,1,4.59,3.16c.2.19.51-.13.34-.34a11.09,11.09,0,0,0-4.72-3.32.27.27,0,0,0-.35.16.28.28,0,0,0,.14.35Z"/><path id="Path_72656" data-name="Path 72656" class="cls-1" d="M74.64,75.67a4.62,4.62,0,0,0,2.58,2.12.24.24,0,0,0,.19-.43,5.31,5.31,0,0,1-2.33-2c-.19-.31-.63,0-.44.33Z"/><path id="Path_72657" data-name="Path 72657" class="cls-1" d="M69.94,80.31a31.49,31.49,0,0,0,.87,3.44.28.28,0,0,0,.36.13.26.26,0,0,0,.15-.28,30.39,30.39,0,0,0-.77-3.37c-.1-.38-.71-.31-.61.08Z"/><path id="Path_72658" data-name="Path 72658" class="cls-1" d="M84,61.08A34.34,34.34,0,0,0,89,61a.28.28,0,0,0,0-.56,31.72,31.72,0,0,0-5,0c-.34,0-.35.61,0,.62Z"/><path id="Path_72659" data-name="Path 72659" class="cls-1" d="M84.08,56.25c.32.11.52-.38.21-.48S83.76,56.15,84.08,56.25Z"/><path id="Path_72660" data-name="Path 72660" class="cls-1" d="M85.24,57.19a2.9,2.9,0,0,1,3.15,1c.18.19.58,0,.43-.25A3,3,0,0,0,85,56.54c-.42.16-.15.77.28.65Z"/><path id="Path_72661" data-name="Path 72661" class="cls-1" d="M83.7,64.84a9.17,9.17,0,0,0,1,1c.23.19.58-.14.38-.37a9.26,9.26,0,0,0-1-1c-.23-.21-.61.15-.39.39Z"/></svg>