<svg id="Layer_1" data-name="Layer 1" xmlns="http://www.w3.org/2000/svg" viewBox="0 0 36.87 38.66"><defs><style>.cls-1{fill:#0168ff;fill-rule:evenodd;}</style></defs><path id="Path_71334" data-name="Path 71334" class="cls-1" d="M35.81,17.92C35.44,28.13,29.39,37.81,18,37.25,5.93,36.67.31,26.09,1.8,15.13c.06-.49-.68-.72-.85-.24C-2.89,26,5.42,37.65,16.9,38.6s21.73-9.12,19.72-20.68c-.08-.42-.79-.47-.81,0Z"/><path id="Path_71335" data-name="Path 71335" class="cls-1" d="M36.82,17.32C35.27,8.4,28.73.24,19.08,0,10.37-.21,2.51,7.39.58,15.5c-.1.41.59.6.71.2C3.57,8.11,10.8,1.47,19,1.58,28.32,1.7,33.8,9.2,35.93,17.44c.14.54,1,.46.89-.12Z"/><path id="Path_71336" data-name="Path 71336" class="cls-1" d="M23.66,4.27a5.84,5.84,0,0,0-5.32-.95c-.47.14-.22.8.21.78a7.38,7.38,0,0,1,4.5,1C23.59,5.38,24.2,4.65,23.66,4.27Z"/><path id="Path_71337" data-name="Path 71337" class="cls-1" d="M14.28,4.62a5.52,5.52,0,0,0-4,1.17.4.4,0,0,0,0,.56.4.4,0,0,0,.54.07,5.49,5.49,0,0,1,3.4-.94c.55,0,.67-.83.12-.86Z"/><path id="Path_71338" data-name="Path 71338" class="cls-1" d="M8.21,7.69A10.67,10.67,0,0,0,6,10c-.15.23.12.55.36.36A10.42,10.42,0,0,0,8.5,8C8.64,7.8,8.4,7.54,8.21,7.69Z"/><path id="Path_71339" data-name="Path 71339" class="cls-1" d="M30.82,9.81a10.44,10.44,0,0,0-4.15-4.5c-.3-.16-.51.29-.29.49a21.71,21.71,0,0,1,3.94,4.3c.18.27.66,0,.5-.29Z"/><path id="Path_71340" data-name="Path 71340" class="cls-1" d="M25.91,7.36a2.93,2.93,0,0,0-3.33-1.92c-.25,0-.28.47,0,.48a2.83,2.83,0,0,1,2.8,1.66.28.28,0,0,0,.52-.22Z"/><path id="Path_71341" data-name="Path 71341" class="cls-1" d="M19.53,5.84a7.73,7.73,0,0,0-4.59.08.26.26,0,0,0,.13.5,14.68,14.68,0,0,1,4.39,0C19.82,6.45,19.87,5.92,19.53,5.84Z"/><path id="Path_71342" data-name="Path 71342" class="cls-1" d="M12.64,8A27.8,27.8,0,0,0,8.75,9.76c-.28.18,0,.56.28.47a26.24,26.24,0,0,0,3.84-1.7A.3.3,0,0,0,13,8.14.28.28,0,0,0,12.64,8Z"/><path id="Path_71343" data-name="Path 71343" class="cls-1" d="M31.39,28.45a8.76,8.76,0,0,0,3-7c0-.32-.47-.27-.52,0a15.5,15.5,0,0,1-3,6.53c-.21.3.17.72.46.47Z"/><path id="Path_71344" data-name="Path 71344" class="cls-1" d="M33.91,20.17a4.45,4.45,0,0,0,.25-5.2c-.19-.27-.57,0-.48.27a5,5,0,0,1-.25,4.56c-.2.33.25.7.48.38Z"/><path id="Path_71345" data-name="Path 71345" class="cls-1" d="M31.75,22.35a22.37,22.37,0,0,0,.61-2.41.27.27,0,0,0-.22-.3.28.28,0,0,0-.29.16c-.27.78-.5,1.58-.69,2.38C31.08,22.52,31.65,22.68,31.75,22.35Z"/><path id="Path_71346" data-name="Path 71346" class="cls-1" d="M27.16,32.83a8.89,8.89,0,0,1-3.8,2.09c-.3.1-.15.56.15.53a6.1,6.1,0,0,0,4-2.21c.22-.24-.17-.65-.41-.41Z"/><path id="Path_71347" data-name="Path 71347" class="cls-1" d="M27.07,30c-.69.62-1.35,1.28-2,2-.2.22.14.56.37.37a26.59,26.59,0,0,0,2-1.85c.28-.27-.08-.76-.37-.49Z"/><path id="Path_71348" data-name="Path 71348" class="cls-1" d="M20.13,35.88A38.79,38.79,0,0,0,15,36a.3.3,0,0,0-.23.34.32.32,0,0,0,.23.23,37.18,37.18,0,0,0,5.17-.06c.33,0,.33-.57,0-.57Z"/><path id="Path_71349" data-name="Path 71349" class="cls-1" d="M18.43,34.06l-1.38,0c-.25-.13-.46.25-.25.42a1.46,1.46,0,0,0,1.89.05c.24-.15,0-.57-.26-.43Z"/><path id="Path_71350" data-name="Path 71350" class="cls-1" d="M21.38,33.91a8.84,8.84,0,0,0-1.25.22.28.28,0,0,0,.08.55,8.71,8.71,0,0,0,1.25-.15.32.32,0,0,0,.25-.37.33.33,0,0,0-.33-.25Z"/><path id="Path_71351" data-name="Path 71351" class="cls-1" d="M12.94,34.47a36.94,36.94,0,0,0-4.82-2.64c-.25-.11-.49.26-.25.42a36.9,36.9,0,0,0,4.8,2.67c.27.13.52-.3.27-.45Z"/><path id="Path_71352" data-name="Path 71352" class="cls-1" d="M10.18,30.55a4,4,0,0,1-2-1.54c-.18-.25-.54,0-.45.26A2.78,2.78,0,0,0,10,31.13C10.36,31.21,10.51,30.65,10.18,30.55Z"/><path id="Path_71353" data-name="Path 71353" class="cls-1" d="M5.14,28.19a68.18,68.18,0,0,1-2.22-8.45c0-.25-.49-.3-.49,0A18.49,18.49,0,0,0,4.6,28.42a.29.29,0,0,0,.39.14.31.31,0,0,0,.15-.37Z"/><path id="Path_71354" data-name="Path 71354" class="cls-1" d="M6.19,23.62a14.34,14.34,0,0,1-.75-4.26c0-.31-.48-.28-.54,0a7.33,7.33,0,0,0,.71,4.51A.32.32,0,0,0,6,24a.31.31,0,0,0,.16-.41Z"/><path id="Path_71355" data-name="Path 71355" class="cls-1" d="M4.21,16.38a8.36,8.36,0,0,1,1-4.83c.15-.31-.28-.51-.49-.29a5.44,5.44,0,0,0-1.09,5.28C3.73,16.87,4.25,16.71,4.21,16.38Z"/><path id="Path_71356" data-name="Path 71356" class="cls-1" d="M6,16.57a22.26,22.26,0,0,0,.84-2.78c.06-.3-.4-.41-.52-.14a22.74,22.74,0,0,0-.92,2.67c-.12.38.45.65.59.25Z"/><path id="Path_71357" data-name="Path 71357" class="cls-1" d="M10.72,10.6a28.43,28.43,0,0,0-2.55,2.1c-.2.2.12.46.33.33a25.86,25.86,0,0,0,2.58-2,.3.3,0,0,0,0-.41.28.28,0,0,0-.39-.05Z"/><path id="Path_71358" data-name="Path 71358" class="cls-1" d="M9.64,13.72a5.13,5.13,0,0,0-2,2c-.13.24.24.45.4.24A6.63,6.63,0,0,1,10,14.16c.31-.18,0-.61-.33-.44Z"/><path id="Path_71359" data-name="Path 71359" class="cls-1" d="M32.72,13.59a1.66,1.66,0,0,0-.27-1.38c-.12-.19-.46,0-.35.2.08.37.15.75.24,1.13a.19.19,0,0,0,.16.22.2.2,0,0,0,.22-.17Z"/><path id="Path_71360" data-name="Path 71360" class="cls-1" d="M25.6,3.93c-.56-.57-.32-.42-1.09-.65a.25.25,0,0,0-.32.15.26.26,0,0,0,.12.31l1,.62c.29.23.59-.19.34-.43Z"/><path id="Path_71361" data-name="Path 71361" class="cls-1" d="M16.39,2.41a12.22,12.22,0,0,0-2.73.66.26.26,0,0,0-.13.34.26.26,0,0,0,.26.15,12.79,12.79,0,0,0,2.73-.66.26.26,0,0,0,.13-.34.26.26,0,0,0-.26-.15Z"/><path id="Path_71362" data-name="Path 71362" class="cls-1" d="M15.92,4a7.59,7.59,0,0,0-1,.38c-.22.09-.13.48.12.42.46-.13.62-.17,1.08-.33.31-.1.12-.57-.2-.47Z"/><path id="Path_71363" data-name="Path 71363" class="cls-1" d="M15.33,8.75c-.93.42-1.87.81-2.78,1.29a.22.22,0,0,0-.1.28.2.2,0,0,0,.26.1c1-.36,1.87-.8,2.81-1.23C15.79,9.06,15.61,8.62,15.33,8.75Z"/><path id="Path_71364" data-name="Path 71364" class="cls-1" d="M22,8.11A4.06,4.06,0,0,0,18.64,8a.24.24,0,0,0-.11.32.23.23,0,0,0,.24.14,6.11,6.11,0,0,1,3.06.18.26.26,0,0,0,.2-.48Z"/><path id="Path_71365" data-name="Path 71365" class="cls-1" d="M31.14,13.07a3.92,3.92,0,0,0-2.63-2.29c-.28-.08-.35.35-.13.47a5.59,5.59,0,0,1,2.31,2.08.26.26,0,0,0,.45-.26Z"/><path id="Path_71366" data-name="Path 71366" class="cls-1" d="M28.05,9.59c-.55-.43-1.11-.84-1.69-1.23a.21.21,0,0,0-.31.05.22.22,0,0,0,0,.3c.54.44,1.09.84,1.67,1.25a.24.24,0,0,0,.29-.37Z"/><path id="Path_71367" data-name="Path 71367" class="cls-1" d="M25.91,9.86c-.45-.22-.91-.43-1.37-.63a.21.21,0,0,0-.17.39c.44.24.9.46,1.36.67.27.12.45-.3.18-.43Z"/><path id="Path_71368" data-name="Path 71368" class="cls-1" d="M21.63,10a8.53,8.53,0,0,0-3.45.11.21.21,0,1,0,.06.42h0a12.31,12.31,0,0,1,3.32-.06.24.24,0,1,0,.07-.47Z"/><path id="Path_71369" data-name="Path 71369" class="cls-1" d="M16.86,8a10.85,10.85,0,0,0-1.14,0c-.26,0-.26.44,0,.46a6.52,6.52,0,0,0,1.08.06c.29,0,.38-.46.06-.49Z"/><path id="Path_71370" data-name="Path 71370" class="cls-1" d="M15.56,11.15a3,3,0,0,0-1.52.48c-.21.12,0,.48.21.37a2.55,2.55,0,0,1,1.38-.37c.31,0,.24-.5-.07-.48Z"/><path id="Path_71371" data-name="Path 71371" class="cls-1" d="M31.92,17.77a2.09,2.09,0,0,0-1.42-2.59c-.23-.07-.49.25-.24.41a2.16,2.16,0,0,1,1.12,2.11.27.27,0,0,0,.24.3.29.29,0,0,0,.3-.23Z"/><path id="Path_71372" data-name="Path 71372" class="cls-1" d="M28.92,26.74a1.14,1.14,0,0,0,1-1.25,1.09,1.09,0,0,0-.24-.59c-.14-.22-.49,0-.46.2-.18.4-.34.8-.51,1.2a.24.24,0,0,0,0,.35A.26.26,0,0,0,28.92,26.74Z"/><path id="Path_71373" data-name="Path 71373" class="cls-1" d="M31.66,25.09a15.54,15.54,0,0,0,.55-1.88c.06-.29-.39-.4-.5-.14q-.34.91-.6,1.86C31,25.25,31.56,25.39,31.66,25.09Z"/><path id="Path_71374" data-name="Path 71374" class="cls-1" d="M28.07,15.21a2.9,2.9,0,0,0-1.13-1.65.24.24,0,0,0-.32,0,.23.23,0,0,0,0,.31,2.62,2.62,0,0,1,.93,1.49C27.69,15.73,28.16,15.53,28.07,15.21Z"/><path id="Path_71375" data-name="Path 71375" class="cls-1" d="M18.42,12.87a2.57,2.57,0,0,0-1.78.26.23.23,0,0,0-.09.31.24.24,0,0,0,.27.11l1.54-.19a.25.25,0,0,0,.28-.22.24.24,0,0,0-.22-.27Z"/><path id="Path_71376" data-name="Path 71376" class="cls-1" d="M17.12,32.17a13.81,13.81,0,0,0-2.5-.75.27.27,0,0,0-.14.51,14.41,14.41,0,0,0,2.48.82c.33.08.47-.46.16-.57Z"/><path id="Path_71377" data-name="Path 71377" class="cls-1" d="M30.37,30.55l-1.2,1.13a.21.21,0,0,0-.1.29.22.22,0,0,0,.27.12,2.08,2.08,0,0,0,1.47-1.35c.13-.29-.29-.45-.44-.19Z"/><path id="Path_71378" data-name="Path 71378" class="cls-1" d="M29.29,30A9.9,9.9,0,0,0,28.12,31c-.19.2.12.5.33.34a7.78,7.78,0,0,0,1.14-1c.22-.22-.05-.62-.3-.4Z"/><path id="Path_71379" data-name="Path 71379" class="cls-1" d="M7.42,22.88a23.14,23.14,0,0,0,.22-3.12c0-.29-.43-.25-.49,0a25.94,25.94,0,0,0-.34,3,.31.31,0,0,0,.61.08Z"/><path id="Path_71380" data-name="Path 71380" class="cls-1" d="M11.41,3.64a9,9,0,0,0-1.6.67.28.28,0,0,0-.16.37.28.28,0,0,0,.37.15,9.73,9.73,0,0,0,1.61-.66.28.28,0,0,0,.12-.38.27.27,0,0,0-.34-.14Z"/><path id="Path_71381" data-name="Path 71381" class="cls-1" d="M19.67,1.56c-1,0-2,0-3,.08a.22.22,0,0,0-.19.25.23.23,0,0,0,.19.19c1,.07,2,0,3,0,.36,0,.28-.57-.08-.57Z"/><path id="Path_71382" data-name="Path 71382" class="cls-1" d="M9.81,5.78A8.47,8.47,0,0,0,6,8.7.21.21,0,1,0,6.34,9,10.5,10.5,0,0,1,10,6.25a.25.25,0,0,0,.12-.34.25.25,0,0,0-.31-.13Z"/><path id="Path_71383" data-name="Path 71383" class="cls-1" d="M9,6A7.61,7.61,0,0,0,5.33,9.38c-.12.23.24.44.39.23A9,9,0,0,1,9.22,6.5.26.26,0,0,0,9,6Z"/><path id="Path_71384" data-name="Path 71384" class="cls-1" d="M2.76,15.05A6.39,6.39,0,0,1,4.3,11.53c.15-.19-.12-.49-.31-.32A5.79,5.79,0,0,0,2.26,15c0,.32.47.39.5.07Z"/><path id="Path_71385" data-name="Path 71385" class="cls-1" d="M2,19.57a6.48,6.48,0,0,1,.75-4.79c.15-.24-.17-.52-.35-.27a5.71,5.71,0,0,0-.93,5.2c.08.31.59.17.53-.14Z"/><path id="Path_71386" data-name="Path 71386" class="cls-1" d="M4.37,16.72a37,37,0,0,1,2.9-5.59c.14-.24-.17-.5-.35-.27a22.85,22.85,0,0,0-3,5.66c-.12.31.36.52.48.2Z"/><path id="Path_71387" data-name="Path 71387" class="cls-1" d="M6.76,12.16A12.56,12.56,0,0,1,10.36,8c.23-.18,0-.5-.27-.35A10.34,10.34,0,0,0,6.27,12c-.15.31.33.51.49.21Z"/><path id="Path_71388" data-name="Path 71388" class="cls-1" d="M13.57,6.31a11.24,11.24,0,0,0-6.3,2.53.21.21,0,0,0,0,.31.23.23,0,0,0,.29,0A13.46,13.46,0,0,1,13.64,6.8a.24.24,0,0,0,.21-.27.26.26,0,0,0-.28-.22Z"/><path id="Path_71389" data-name="Path 71389" class="cls-1" d="M1.51,20.76a21.45,21.45,0,0,1,1.05-4.32.22.22,0,0,0-.13-.29.23.23,0,0,0-.28.11A15.45,15.45,0,0,0,1,20.69a.27.27,0,0,0,.54.07Z"/><path id="Path_71390" data-name="Path 71390" class="cls-1" d="M18.07,2.24c-1.38.21-2.78.38-4.14.7a.25.25,0,0,0-.19.28.24.24,0,0,0,.25.19c1.39-.12,2.77-.4,4.15-.63.35-.06.28-.6-.07-.54Z"/><path id="Path_71391" data-name="Path 71391" class="cls-1" d="M22.31,2.74a7.68,7.68,0,0,0-3.82-.56.24.24,0,0,0,0,.48,12.58,12.58,0,0,1,3.6.61c.34.12.56-.4.22-.53Z"/><path id="Path_71392" data-name="Path 71392" class="cls-1" d="M30.35,6.48A7.76,7.76,0,0,0,26.78,4.6c-.27-.06-.37.35-.12.46a18.44,18.44,0,0,1,3.4,1.8.24.24,0,0,0,.29-.38Z"/><path id="Path_71393" data-name="Path 71393" class="cls-1" d="M33.05,12.21a4.1,4.1,0,0,0-4.25-4l-.28,0c-.25,0-.27.45,0,.46a4,4,0,0,1,4,3.55.27.27,0,0,0,.53-.07Z"/><path id="Path_71394" data-name="Path 71394" class="cls-1" d="M30.12,10.45a4.26,4.26,0,0,0-3.5-2.67c-.24,0-.37.35-.12.43a4.78,4.78,0,0,1,3.08,2.47c.16.34.7.12.54-.23Z"/><path id="Path_71395" data-name="Path 71395" class="cls-1" d="M26.33,8a4.08,4.08,0,0,0-3.48-2.65c-.23,0-.37.36-.11.44a4.5,4.5,0,0,1,3.09,2.42.28.28,0,0,0,.37.13A.27.27,0,0,0,26.33,8Z"/><path id="Path_71396" data-name="Path 71396" class="cls-1" d="M27.07,6.71a2.84,2.84,0,0,0-3-2.56c-.29,0-.25.44,0,.49a3,3,0,0,1,2.48,2.14C26.64,7.09,27.13,7.05,27.07,6.71Z"/><path id="Path_71397" data-name="Path 71397" class="cls-1" d="M23.6,7.71A2.91,2.91,0,0,0,20.14,6.5c-.27.09-.14.49.12.46a2.86,2.86,0,0,1,2.86,1.12.3.3,0,0,0,.43,0,.31.31,0,0,0,.05-.41Z"/><path id="Path_71398" data-name="Path 71398" class="cls-1" d="M20.24,7.32a2.31,2.31,0,0,0-3.19-.61L17,6.78a.24.24,0,0,0,0,.34.26.26,0,0,0,.27.07,1.94,1.94,0,0,1,2.57.49.3.3,0,0,0,.47-.36Z"/><path id="Path_71399" data-name="Path 71399" class="cls-1" d="M22.57,5.86c-1-.53-1.92-1.08-2.94-1.52-.24-.09-.46.25-.24.4.95.63,1.95,1.14,2.95,1.67.34.18.57-.37.23-.55Z"/><path id="Path_71400" data-name="Path 71400" class="cls-1" d="M18.59,4.75a4.6,4.6,0,0,0-3.84-.09c-.24.1-.15.51.12.46a5.82,5.82,0,0,1,3.48.17.3.3,0,0,0,.24-.54Z"/><path id="Path_71401" data-name="Path 71401" class="cls-1" d="M15.83,7.2c-.92.21-1.83.39-2.73.67-.26.08-.14.49.12.45C14.13,8.18,15,8,15.9,7.76,16.26,7.68,16.18,7.12,15.83,7.2Z"/><path id="Path_71402" data-name="Path 71402" class="cls-1" d="M16.35,3.54a6.26,6.26,0,0,0-3.94,1.77c-.18.19.12.46.33.32a7.92,7.92,0,0,1,3.69-1.52.28.28,0,0,0,.24-.33.28.28,0,0,0-.32-.24Z"/><path id="Path_71403" data-name="Path 71403" class="cls-1" d="M14.75,2.32a4.21,4.21,0,0,0-3.44,1.42c-.18.21.12.51.34.35A4.75,4.75,0,0,1,14.76,2.9c.32,0,.32-.58,0-.58Z"/><path id="Path_71404" data-name="Path 71404" class="cls-1" d="M13.42,2.16a2,2,0,0,0-2,.48.21.21,0,0,0,0,.3.22.22,0,0,0,.28,0l1.69-.33c.31.08.37-.41.07-.49Z"/><path id="Path_71405" data-name="Path 71405" class="cls-1" d="M13.4,4.61c-.74,0-1.47-.06-2.21-.06-.25,0-.25.42,0,.44.71.08,1.42.11,2.14.15.34,0,.41-.51.07-.53Z"/><path id="Path_71406" data-name="Path 71406" class="cls-1" d="M22.25,2.71c-.74-.17-1.47-.34-2.21-.49-.23,0-.35.35-.11.42.75.21,1.49.39,2.25.57.32.08.38-.42.07-.5Z"/><path id="Path_71407" data-name="Path 71407" class="cls-1" d="M25.55,2.83a7.8,7.8,0,0,0-3.44-.6c-.32,0-.3.51,0,.56a15.54,15.54,0,0,1,3.17.66c.41.15.68-.46.26-.62Z"/><path id="Path_71408" data-name="Path 71408" class="cls-1" d="M34.47,12c-.59-.73-1.2-1.44-1.86-2.11-.22-.22-.55.14-.38.38.53.75,1.14,1.42,1.74,2.12.26.3.76-.07.5-.39Z"/><path id="Path_71409" data-name="Path 71409" class="cls-1" d="M35.16,15.21A7.35,7.35,0,0,0,33.26,12c-.22-.21-.51.12-.36.35a11.94,11.94,0,0,1,1.69,3.07c.13.38.69.14.57-.24Z"/><path id="Path_71410" data-name="Path 71410" class="cls-1" d="M33.35,13.05c-.68-.9-1.35-1.81-2.09-2.66a.22.22,0,0,0-.32,0,.21.21,0,0,0,0,.31c.62.95,1.31,1.83,2,2.73a.28.28,0,0,0,.4,0,.27.27,0,0,0,.05-.38Z"/><path id="Path_71411" data-name="Path 71411" class="cls-1" d="M31.51,8.12A3.29,3.29,0,0,0,28,6.29c-.26,0-.29.49,0,.51A3.26,3.26,0,0,1,31,8.44C31.13,8.75,31.69,8.44,31.51,8.12Z"/><path id="Path_71412" data-name="Path 71412" class="cls-1" d="M28.6,5.48a4.37,4.37,0,0,0-3.74-2.3.26.26,0,0,0-.27.24.24.24,0,0,0,.21.26,4.78,4.78,0,0,1,3.32,2.17C28.32,6.19,28.81,5.82,28.6,5.48Z"/><path id="Path_71413" data-name="Path 71413" class="cls-1" d="M22.61,3.37a12.94,12.94,0,0,0-4.23-.61c-.29,0-.28.46,0,.49a22.45,22.45,0,0,1,4,.66C22.74,4,23,3.48,22.61,3.37Z"/><path id="Path_71414" data-name="Path 71414" class="cls-1" d="M16.07,4a3.33,3.33,0,0,0-2.46.18c-.25.12-.16.56.14.49a4.59,4.59,0,0,1,2.24,0c.39.1.47-.52.08-.62Z"/><path id="Path_71415" data-name="Path 71415" class="cls-1" d="M15.69,2a12.62,12.62,0,0,0-3.89,1.7c-.23.16,0,.48.26.35a14.16,14.16,0,0,1,3.7-1.55c.32-.08.25-.58-.07-.5Z"/><path id="Path_71416" data-name="Path 71416" class="cls-1" d="M10.59,5.29A12.4,12.4,0,0,0,5.86,8.58c-.16.18.11.47.29.3a16.44,16.44,0,0,1,4.63-3.15.24.24,0,0,0-.19-.44Z"/><path id="Path_71417" data-name="Path 71417" class="cls-1" d="M7.29,8.06c-.84.61-1.7,1.19-2.48,1.87a.23.23,0,0,0,0,.32.24.24,0,0,0,.32.05C6,9.75,6.79,9.12,7.62,8.5c.29-.21,0-.65-.33-.44Z"/><path id="Path_71418" data-name="Path 71418" class="cls-1" d="M4.07,12.06c.35.11.58-.42.23-.53S3.72,12,4.07,12.06Z"/><path id="Path_71419" data-name="Path 71419" class="cls-1" d="M7.48,7A12.56,12.56,0,0,1,10.9,5,.28.28,0,0,0,11,4.66a.28.28,0,0,0-.28-.16,7.39,7.39,0,0,0-3.67,2C6.8,6.72,7.17,7.22,7.48,7Z"/><path id="Path_71420" data-name="Path 71420" class="cls-1" d="M4.53,11.59c.68-.83,1.37-1.63,2-2.51a.24.24,0,0,0,0-.35.26.26,0,0,0-.35,0h0c-.74.77-1.4,1.61-2.08,2.44C3.79,11.52,4.28,11.9,4.53,11.59Z"/><path id="Path_71421" data-name="Path 71421" class="cls-1" d="M10.77,4.31c1.28-.44,2.55-.87,3.82-1.33.26-.1.09-.47-.16-.39-1.29.4-2.57.83-3.84,1.26-.31.1-.12.56.18.46Z"/><path id="Path_71422" data-name="Path 71422" class="cls-1" d="M15.94,2.88a6.05,6.05,0,0,1,2.55-.47c.32,0,.27-.45,0-.51a4.19,4.19,0,0,0-2.78.4c-.36.17-.13.74.24.58Z"/><path id="Path_71423" data-name="Path 71423" class="cls-1" d="M13,4.14c1.19-.14,2.38-.25,3.56-.45a.25.25,0,0,0-.07-.5c-1.19.08-2.38.25-3.57.4a.27.27,0,0,0-.22.32.26.26,0,0,0,.3.23Z"/><path id="Path_71424" data-name="Path 71424" class="cls-1" d="M12.39,5.16c.75-.39,1.5-.78,2.23-1.2.26-.14.11-.57-.18-.44-.77.35-1.51.74-2.26,1.12C11.86,4.81,12.07,5.32,12.39,5.16Z"/><path id="Path_71425" data-name="Path 71425" class="cls-1" d="M5.75,9.93A5.5,5.5,0,0,1,7.94,6.47C8.15,6.3,8,5.91,7.7,6a4.86,4.86,0,0,0-2.6,3.8.33.33,0,0,0,.29.36.33.33,0,0,0,.36-.27Z"/><path id="Path_71426" data-name="Path 71426" class="cls-1" d="M3.31,11.52c1-1.15,2-2.29,2.84-3.52a.23.23,0,0,0-.06-.33.23.23,0,0,0-.31,0c-1,1.09-2,2.29-2.93,3.45a.29.29,0,0,0,.46.36Z"/><path id="Path_71427" data-name="Path 71427" class="cls-1" d="M2.94,13.81a6.91,6.91,0,0,1,2.34-2.88c.23-.17,0-.58-.26-.44a5.49,5.49,0,0,0-2.7,3.06c-.16.4.46.67.62.26Z"/><path id="Path_71428" data-name="Path 71428" class="cls-1" d="M6,12A5.91,5.91,0,0,1,8.23,9.32a.24.24,0,0,0,0-.34A.23.23,0,0,0,8,8.91a4.87,4.87,0,0,0-2.55,2.83.31.31,0,0,0,.2.4A.34.34,0,0,0,6,12Z"/><path id="Path_71429" data-name="Path 71429" class="cls-1" d="M6.74,11.44c1-1,2-1.93,3-2.93.18-.2-.14-.53-.35-.35-1,.9-2,1.84-3,2.78-.3.27.09.78.38.5Z"/><path id="Path_71430" data-name="Path 71430" class="cls-1" d="M12.51,4.93a5.22,5.22,0,0,1,3.12-.59c.29,0,.46-.42.15-.52a4.27,4.27,0,0,0-3.53.49C11.87,4.52,12.13,5.15,12.51,4.93Z"/><path id="Path_71431" data-name="Path 71431" class="cls-1" d="M16.38,6.73a5.43,5.43,0,0,1,2.92-1,.25.25,0,0,0,.2-.28.26.26,0,0,0-.2-.21,4.26,4.26,0,0,0-3.31,1,.33.33,0,1,0,.39.52Z"/><path id="Path_71432" data-name="Path 71432" class="cls-1" d="M20.61,5.67c.94,0,1.88,0,2.82-.14.3,0,.31-.54,0-.56-1,0-1.93,0-2.9,0-.46,0-.37.72.09.71Z"/></svg>