<svg id="Layer_1" data-name="Layer 1" xmlns="http://www.w3.org/2000/svg" xmlns:xlink="http://www.w3.org/1999/xlink" viewBox="0 0 494 341"><defs><style>.cls-1,.cls-15{stroke-miterlimit:10;}.cls-1{fill:url(#radial-gradient);stroke:url(#radial-gradient-2);}.cls-2{fill:url(#radial-gradient-3);}.cls-3{opacity:0.8;fill:url(#radial-gradient-4);}.cls-4{fill:url(#radial-gradient-5);}.cls-15,.cls-5{fill:none;}.cls-6{mask:url(#mask);}.cls-7{fill:url(#radial-gradient-6);}.cls-8{clip-path:url(#clip-path);}.cls-9{mask:url(#mask-2);}.cls-10{fill:#ccf6ff;}.cls-11{mask:url(#mask-3);}.cls-12{fill:#c6c6ff;opacity:0.6;}.cls-13{fill:url(#linear-gradient);}.cls-14{fill:url(#radial-gradient-7);}.cls-15{stroke:#fff;stroke-width:2px;}.cls-16{fill:url(#radial-gradient-8);}.cls-17{fill:#fff;}.cls-18{clip-path:url(#clip-path-2);}.cls-19{mask:url(#mask-4);}</style><radialGradient id="radial-gradient" cx="294.21" cy="203.75" r="239.87" gradientTransform="matrix(-0.82, -0.58, 0.47, -0.67, 438.31, 509.67)" gradientUnits="userSpaceOnUse"><stop offset="0"/><stop offset="0.25" stop-color="#4c4c4c"/><stop offset="0.52" stop-color="#989898"/><stop offset="0.74" stop-color="#d0d0d0"/><stop offset="0.91" stop-color="#f2f2f2"/><stop offset="1" stop-color="#fff"/></radialGradient><radialGradient id="radial-gradient-2" cx="248.24" cy="171.98" r="179.56" gradientTransform="matrix(-0.54, -0.84, 0.83, -0.54, 240.63, 472.51)" gradientUnits="userSpaceOnUse"><stop offset="0" stop-color="#000046"/><stop offset="0.1" stop-color="#00024a"/><stop offset="0.21" stop-color="#000a57"/><stop offset="0.32" stop-color="#00166d"/><stop offset="0.44" stop-color="#00278c"/><stop offset="0.56" stop-color="#003db3"/><stop offset="0.67" stop-color="#0057e2"/><stop offset="0.69" stop-color="#005be9"/><stop offset="0.79" stop-color="#248ce7"/><stop offset="1" stop-color="#78ffe3"/></radialGradient><radialGradient id="radial-gradient-3" cx="2926.71" cy="-11159.65" r="184.63" gradientTransform="matrix(-1.54, -0.6, 0.54, -1.7, 10641.69, -17122.27)" gradientUnits="userSpaceOnUse"><stop offset="0" stop-color="#fff"/><stop offset="0.07" stop-color="#e0e0e0"/><stop offset="0.21" stop-color="#a6a6a6"/><stop offset="0.36" stop-color="#737373"/><stop offset="0.5" stop-color="#4a4a4a"/><stop offset="0.64" stop-color="#2a2a2a"/><stop offset="0.77" stop-color="#131313"/><stop offset="0.89" stop-color="#050505"/><stop offset="1"/></radialGradient><radialGradient id="radial-gradient-4" cx="-4192.1" cy="284.26" r="171.89" gradientTransform="matrix(-0.75, 0.32, -0.16, -0.55, -2858.42, 1554.75)" gradientUnits="userSpaceOnUse"><stop offset="0"/><stop offset="0.09" stop-color="#060606"/><stop offset="0.22" stop-color="#171717"/><stop offset="0.36" stop-color="#333"/><stop offset="0.52" stop-color="#5a5a5a"/><stop offset="0.68" stop-color="#8c8c8c"/><stop offset="0.86" stop-color="#c8c8c8"/><stop offset="1" stop-color="#fff"/></radialGradient><radialGradient id="radial-gradient-5" cx="2801.45" cy="-11416.48" r="184.63" gradientTransform="matrix(-1.54, -0.6, 0.54, -1.7, 11102.58, -17633.52)" xlink:href="#radial-gradient-3"/><mask id="mask" x="68.67" y="-7.58" width="359.13" height="359.13" maskUnits="userSpaceOnUse"><circle class="cls-1" cx="248.24" cy="171.98" r="179.06"/></mask><radialGradient id="radial-gradient-6" cx="271.01" cy="203.64" r="211.61" gradientTransform="matrix(-0.54, -0.84, 0.83, -0.54, 249.57, 540.24)" gradientUnits="userSpaceOnUse"><stop offset="0" stop-color="#1b9ffe"/><stop offset="0.15" stop-color="#1a9cfe" stop-opacity="0.99"/><stop offset="0.31" stop-color="#1592fe" stop-opacity="0.96"/><stop offset="0.47" stop-color="#0e82fe" stop-opacity="0.9"/><stop offset="0.64" stop-color="#046bff" stop-opacity="0.83"/><stop offset="0.69" stop-color="#0063ff" stop-opacity="0.8"/><stop offset="0.82" stop-color="#2fa0f4" stop-opacity="0.8"/><stop offset="1" stop-color="#78ffe3" stop-opacity="0.8"/></radialGradient><clipPath id="clip-path"><circle class="cls-5" cx="247.05" cy="170.17" r="170.5"/></clipPath><mask id="mask-2" x="-242.6" y="-233.97" width="691.02" height="621.17" maskUnits="userSpaceOnUse"><ellipse class="cls-2" cx="99.51" cy="76.14" rx="309.7" ry="342.39" transform="translate(13.49 167.25) rotate(-84.07)"/></mask><mask id="mask-3" x="104.33" y="14.36" width="200.87" height="172.43" maskUnits="userSpaceOnUse"><ellipse class="cls-3" cx="204.76" cy="100.58" rx="106.8" ry="78.15" transform="translate(-22.86 115.86) rotate(-30)"/></mask><linearGradient id="linear-gradient" x1="226.18" y1="107.74" x2="272.04" y2="244.94" gradientUnits="userSpaceOnUse"><stop offset="0" stop-color="#8bfeb7" stop-opacity="0"/><stop offset="1" stop-color="#24a9ff"/></linearGradient><radialGradient id="radial-gradient-7" cx="262.93" cy="185.55" r="100.08" gradientTransform="matrix(0.59, 0.81, -0.72, 0.53, 241.49, -125.12)" gradientUnits="userSpaceOnUse"><stop offset="0" stop-color="#8affd9" stop-opacity="0.8"/><stop offset="0.73" stop-color="#61cbf4" stop-opacity="0.8"/><stop offset="1" stop-color="#51b6ff" stop-opacity="0.8"/></radialGradient><radialGradient id="radial-gradient-8" cx="221.63" cy="160.09" r="64.32" gradientTransform="translate(201.72 -143.87) rotate(42.94) scale(1 1.31)" xlink:href="#radial-gradient-7"/><clipPath id="clip-path-2"><circle class="cls-5" cx="761.05" cy="170.17" r="170.5"/></clipPath><mask id="mask-4" x="271.4" y="-233.97" width="691.02" height="621.17" maskUnits="userSpaceOnUse"><ellipse class="cls-4" cx="613.51" cy="76.14" rx="309.7" ry="342.39" transform="translate(474.38 678.5) rotate(-84.07)"/></mask></defs><g class="cls-6"><circle class="cls-7" cx="247.05" cy="170.17" r="170.5"/></g><g class="cls-8"><g class="cls-9"><ellipse class="cls-10" cx="106.83" cy="81.19" rx="305.57" ry="341.93" transform="translate(15.03 179.06) rotate(-84.07)"/></g></g><g class="cls-11"><ellipse class="cls-12" cx="204.76" cy="100.58" rx="106.8" ry="78.15" transform="translate(-22.86 115.86) rotate(-30)"/></g><path class="cls-13" d="M493.19,92.58c-6.25-19.77-38-29.85-89.5-28.35-2.91.09-5.87.2-8.86.36a3.12,3.12,0,0,0-2.41,4.9l0,.05a1.88,1.88,0,0,0,1.68.82c3.29-.18,6.53-.33,9.72-.41s6.5-.13,9.62-.13c21.22,0,38.55,2.19,51.2,6.34s20.59,10.28,23.06,18.13c5.32,16.86-14.64,41.66-54.75,68-3,1.94-6,3.88-9.15,5.82-40.87,25.28-95.73,49.35-155.9,68.33S149,267.18,101,269.9c-3.66.21-7.26.38-10.8.48-48,1.39-78.55-7.47-83.86-24.32-6-18.88,19-45.83,63-73.1a1.94,1.94,0,0,0,.91-1.66v-2.48a1.92,1.92,0,0,0-2.94-1.65C20,196.44-6,225.87.91,247.77c5.83,18.48,34,28.47,79.69,28.47q4.77,0,9.79-.15c4.72-.13,9.58-.38,14.53-.7,47.79-3.13,105.62-14.84,164.74-33.47s113.21-42.19,154.14-67q6.4-3.85,12.33-7.77C479.15,138.8,499.42,112.33,493.19,92.58Z"/><rect class="cls-5" x="166.54" y="56.2" width="142.24" height="188.68"/><rect class="cls-5" x="130.12" y="68.71" width="201.43" height="201.43"/><path class="cls-14" d="M331.33,147.49v101a21.39,21.39,0,0,1-15,20.39,21.16,21.16,0,0,1-6.34,1H224.57a21.36,21.36,0,0,1-21.35-21.35v-101a5.74,5.74,0,0,1,1.16-3.49l34.94-46.6A5.82,5.82,0,0,1,244,95.07h46.62a5.51,5.51,0,0,1,1,.08,5.84,5.84,0,0,1,3.64,2.25L330.17,144A5.81,5.81,0,0,1,331.33,147.49Z"/><path class="cls-15" d="M331.33,147.49v101a21.39,21.39,0,0,1-15,20.39,21.16,21.16,0,0,1-6.34,1H224.57a21.36,21.36,0,0,1-21.35-21.35v-101a5.74,5.74,0,0,1,1.16-3.49l34.94-46.6A5.82,5.82,0,0,1,244,95.07h46.62a5.51,5.51,0,0,1,1,.08,5.84,5.84,0,0,1,3.64,2.25L330.17,144A5.81,5.81,0,0,1,331.33,147.49Z"/><g id="Path_10001" data-name="Path 10001"><path class="cls-16" d="M199.19,242.93l-60.41-60.4a21.4,21.4,0,0,1,0-30.21l71.39-71.38a5.79,5.79,0,0,1,3.3-1.65l57.66-8.24a5.82,5.82,0,0,1,4.94,1.65l32.95,33a5.86,5.86,0,0,1,1.65,4.94l-8.24,57.66a5.82,5.82,0,0,1-1.65,3.29l-71.39,71.4a21.39,21.39,0,0,1-30.2,0Z"/><path class="cls-15" d="M199.19,242.93l-60.41-60.4a21.4,21.4,0,0,1,0-30.21l71.39-71.38a5.79,5.79,0,0,1,3.3-1.65l57.66-8.24a5.82,5.82,0,0,1,4.94,1.65l32.95,33a5.86,5.86,0,0,1,1.65,4.94l-8.24,57.66a5.82,5.82,0,0,1-1.65,3.29l-71.39,71.4a21.39,21.39,0,0,1-30.2,0Z"/></g><rect class="cls-5" x="130.12" y="68.71" width="201.43" height="201.43"/><path id="Path_10003" data-name="Path 10003" class="cls-17" d="M201.94,207.24a5.82,5.82,0,0,1-1.41-6L228,118.91a5.82,5.82,0,1,1,11,3.68L211.58,205a5.81,5.81,0,0,1-7.36,3.68,5.73,5.73,0,0,1-2.28-1.4Z"/><path id="Path_10004" data-name="Path 10004" class="cls-17" d="M267.84,149.57a17.48,17.48,0,1,0,0,24.73h0A17.51,17.51,0,0,0,267.84,149.57Zm-8.24,16.49a5.83,5.83,0,1,1,0-8.24A5.84,5.84,0,0,1,259.6,166.06Z"/><path id="Path_10005" data-name="Path 10005" class="cls-17" d="M196.45,149.57a17.48,17.48,0,1,0,0,24.73h0A17.51,17.51,0,0,0,196.45,149.57Zm-8.24,16.49a5.83,5.83,0,1,1,0-8.24A5.84,5.84,0,0,1,188.21,166.06Z"/><path id="Path_10006" data-name="Path 10006" class="cls-17" d="M211.57,205,229,152.72l-18.42,18.42-10,30.14a5.82,5.82,0,0,0,11,3.68Z"/><path id="Path_10007" data-name="Path 10007" class="cls-17" d="M309,72.7a5.82,5.82,0,0,0-8.24,0l-32.95,32.94,8.24,8.24L309,80.94a5.84,5.84,0,0,0,0-8.24Z"/><path id="Path_10008" data-name="Path 10008" class="cls-17" d="M309,80.93a5.82,5.82,0,0,0,0-8.23h0L272,109.77l4.12,4.11Z"/><path id="Path_10009" data-name="Path 10009" class="cls-17" d="M280.19,123.84a5.85,5.85,0,0,1-4.12-1.71L259.6,105.66a5.82,5.82,0,0,1,8.23-8.24h0l16.48,16.47a5.84,5.84,0,0,1-4.12,10Z"/><path id="Path_10010" data-name="Path 10010" class="cls-17" d="M284.31,113.88l-8.24-8.24-8.24,8.24,8.24,8.24a5.83,5.83,0,0,0,8.24-8.24Z"/><g class="cls-18"><g class="cls-19"><ellipse class="cls-10" cx="620.83" cy="81.19" rx="305.57" ry="341.93" transform="translate(475.92 690.31) rotate(-84.07)"/></g></g></svg>