<svg id="Layer_1" data-name="Layer 1" xmlns="http://www.w3.org/2000/svg" xmlns:xlink="http://www.w3.org/1999/xlink" viewBox="0 0 45.26 42.74"><defs><style>.cls-1{fill:url(#linear-gradient);}.cls-2{fill:url(#linear-gradient-2);}.cls-3{fill:url(#linear-gradient-3);}.cls-4{fill:url(#linear-gradient-4);}.cls-5{fill:url(#linear-gradient-5);}.cls-6{fill:url(#linear-gradient-6);}.cls-7{fill:url(#linear-gradient-7);}.cls-8{fill:url(#linear-gradient-8);}</style><linearGradient id="linear-gradient" x1="3.73" y1="35.51" x2="35.43" y2="3.81" gradientUnits="userSpaceOnUse"><stop offset="0" stop-color="#00ff36"/><stop offset="0" stop-color="#00fe38"/><stop offset="1" stop-color="#0168ff"/></linearGradient><linearGradient id="linear-gradient-2" x1="-4.01" y1="27.77" x2="27.69" y2="-3.93" xlink:href="#linear-gradient"/><linearGradient id="linear-gradient-3" x1="16.22" y1="48" x2="47.91" y2="16.3" xlink:href="#linear-gradient"/><linearGradient id="linear-gradient-4" x1="-7.72" y1="24.06" x2="23.98" y2="-7.63" xlink:href="#linear-gradient"/><linearGradient id="linear-gradient-5" x1="9.81" y1="41.59" x2="41.51" y2="9.89" xlink:href="#linear-gradient"/><linearGradient id="linear-gradient-6" x1="2.4" y1="34.18" x2="34.1" y2="2.49" xlink:href="#linear-gradient"/><linearGradient id="linear-gradient-7" x1="19.92" y1="51.7" x2="51.62" y2="20.01" xlink:href="#linear-gradient"/><linearGradient id="linear-gradient-8" x1="0.45" y1="32.23" x2="32.15" y2="0.53" xlink:href="#linear-gradient"/></defs><path class="cls-1" d="M35.07,14.24H23.4l-.06-.34a.88.88,0,0,1,.11-.63.14.14,0,0,0,0-.06l.27-.66v0c.16-.4.33-.81.49-1.23a.46.46,0,0,0,0-.43.51.51,0,0,0-.39-.24h-.07c-.2,0-.34.13-.45.4s-.32.78-.48,1.16c-.28.7-.57,1.42-.89,2.13a.71.71,0,0,0,0,.65.76.76,0,0,0,.66.27c1.41,0,3,0,4.87,0h7c-.18.33-.49.88-.62,1.09L22,36.62a.33.33,0,0,0,0,.06c-.05.11-.9,1.59-1.53,2.61L20.67,38l.27-1.44c0-.13,0-.25.07-.37l.9-4.37,1.83-9c0-.19.09-.54,0-.69S23.23,22,23,22H11.68A.67.67,0,0,1,11,21c1.85-6.2,3.76-12.68,5.69-19.25a.88.88,0,0,1,1-.74h9.18l.59,0-.23.54c-.07.19-.14.37-.22.55l-.46,1.14a.7.7,0,0,0,0,.54A.42.42,0,0,0,26.7,4a.6.6,0,0,0,.22,0c.18,0,.34-.14.46-.43.28-.66.55-1.34.82-2h0l.28-.7c.14-.33.17-.59.07-.73a.88.88,0,0,0-.7-.21H16.78c-.6,0-.68.06-.85.65-.52,1.75-1,3.49-1.55,5.24C12.82,11.15,11.22,16.59,9.62,22a.89.89,0,0,0,0,.75.9.9,0,0,0,.71.24h0l5.34,0h6.11a.74.74,0,0,1,.63.23.83.83,0,0,1,.1.66c-.62,3-1.26,6.09-1.82,8.83v0l-1.88,9.15a.87.87,0,0,0,.16.86l0,0,0,0h.38l0,0,0,0a1.57,1.57,0,0,0,.33-.41c.14-.27.29-.52.44-.77s.12-.2.17-.3l15.12-26,0-.08a.69.69,0,0,0,.09-.66A.69.69,0,0,0,35.07,14.24ZM20.25,22.79h0Z"/><path class="cls-2" d="M3.11,21.85h1c.3,0,.69-.06.7-.49A.41.41,0,0,0,4.67,21a1,1,0,0,0-.6-.17H2.12l-1.34,0H.72a.78.78,0,0,0-.68.28v0l0,0v.33l0,0,0,0a.82.82,0,0,0,.69.28H.8c.39,0,.81,0,1.34,0h1ZM.78,21a1.85,1.85,0,0,0-.27,0,1.18,1.18,0,0,1,.21,0Zm-.39,0a.47.47,0,0,0-.22.17A.47.47,0,0,1,.39,21.06Z"/><path class="cls-3" d="M45.21,21.14a.73.73,0,0,0-.68-.28h-.05l-1.35,0H41.19a1,1,0,0,0-.61.17.47.47,0,0,0-.1.33c0,.43.4.49.69.49h1.95c.52,0,.94,0,1.34,0h.06a.8.8,0,0,0,.68-.28l0,0,0,0V21.2l0,0Z"/><path class="cls-4" d="M3.35,10.8l2,1.15,0,0,1,.6a.67.67,0,0,0,.3.11h0a.46.46,0,0,0,.46-.36c0-.18.06-.38-.28-.58-.91-.54-1.89-1.11-3.1-1.8a1,1,0,0,0-.42-.13.44.44,0,0,0-.39.24C2.92,10.24,2.89,10.53,3.35,10.8Z"/><path class="cls-5" d="M38.48,12.69a.58.58,0,0,0,.3-.09l2.62-1.5.6-.35a.54.54,0,0,0,.28-.35v0h0a.58.58,0,0,0-.15-.42.45.45,0,0,0-.33-.14.6.6,0,0,0-.28.08c-1.12.62-2.25,1.29-3.21,1.85a.57.57,0,0,0-.29.35.44.44,0,0,0,.06.35A.46.46,0,0,0,38.48,12.69ZM41.8,10h0a.37.37,0,0,0-.22,0A.45.45,0,0,1,41.8,10Z"/><path class="cls-6" d="M7.1,30.18A.47.47,0,0,0,6.77,30a.48.48,0,0,0-.26.07c-1.18.65-2.32,1.32-3.29,1.9a.45.45,0,0,0-.19.65.49.49,0,0,0,.42.26.47.47,0,0,0,.25-.07c.87-.49,1.75-1,2.59-1.49L7,31a.5.5,0,0,0,.25-.42h0A.51.51,0,0,0,7.1,30.18Zm-.33,0h0a.3.3,0,0,0-.2,0A.45.45,0,0,1,6.77,30.19Z"/><path class="cls-7" d="M41.93,31.93,40,30.83h0l-1.14-.66a.74.74,0,0,0-.33-.12h0a.45.45,0,0,0-.49.36.46.46,0,0,0,.26.58c1,.55,1.94,1.13,3.14,1.81a.78.78,0,0,0,.39.12.46.46,0,0,0,.39-.23.44.44,0,0,0,.06-.35A.69.69,0,0,0,41.93,31.93Z"/><path class="cls-8" d="M25.33,6.85a.53.53,0,0,0-.49.48.52.52,0,0,0,.13.35.48.48,0,0,0,.35.15h0a.47.47,0,0,0,.49-.48A.46.46,0,0,0,25.67,7a.45.45,0,0,0-.34-.15Z"/></svg>