<svg id="Layer_1" data-name="Layer 1" xmlns="http://www.w3.org/2000/svg" xmlns:xlink="http://www.w3.org/1999/xlink" viewBox="0 0 494 341"><defs><style>.cls-1,.cls-11,.cls-12{stroke-miterlimit:10;}.cls-1{fill:url(#radial-gradient);stroke:url(#radial-gradient-2);}.cls-2{fill:url(#radial-gradient-3);}.cls-15,.cls-3{opacity:0.8;}.cls-3{fill:url(#radial-gradient-4);}.cls-4{fill:url(#radial-gradient-5);}.cls-5{fill:none;}.cls-6{mask:url(#mask);}.cls-7{fill:url(#radial-gradient-6);}.cls-8{clip-path:url(#clip-path);}.cls-9{mask:url(#mask-2);}.cls-10{fill:#ccf6ff;}.cls-11,.cls-12{stroke:#fff;stroke-width:2px;}.cls-11{fill:url(#radial-gradient-7);}.cls-12{fill:url(#radial-gradient-8);}.cls-13{fill:url(#radial-gradient-9);}.cls-14{fill:#10afff;opacity:0.64;}.cls-15,.cls-16{fill:#fff;}.cls-16{opacity:0.67;}.cls-17{fill:#8bd8ff;}.cls-18{fill:#455cff;}.cls-19{mask:url(#mask-3);}.cls-20{fill:#c6c6ff;opacity:0.6;}.cls-21{fill:url(#linear-gradient);}.cls-22{clip-path:url(#clip-path-2);}.cls-23{mask:url(#mask-4);}</style><radialGradient id="radial-gradient" cx="294.21" cy="203.75" r="239.87" gradientTransform="matrix(-0.82, -0.58, 0.47, -0.67, 438.31, 509.67)" gradientUnits="userSpaceOnUse"><stop offset="0"/><stop offset="0.25" stop-color="#4c4c4c"/><stop offset="0.52" stop-color="#989898"/><stop offset="0.74" stop-color="#d0d0d0"/><stop offset="0.91" stop-color="#f2f2f2"/><stop offset="1" stop-color="#fff"/></radialGradient><radialGradient id="radial-gradient-2" cx="248.24" cy="171.98" r="179.56" gradientTransform="matrix(-0.54, -0.84, 0.83, -0.54, 240.63, 472.51)" gradientUnits="userSpaceOnUse"><stop offset="0" stop-color="#000046"/><stop offset="0.1" stop-color="#00024a"/><stop offset="0.21" stop-color="#000a57"/><stop offset="0.32" stop-color="#00166d"/><stop offset="0.44" stop-color="#00278c"/><stop offset="0.56" stop-color="#003db3"/><stop offset="0.67" stop-color="#0057e2"/><stop offset="0.69" stop-color="#005be9"/><stop offset="0.79" stop-color="#248ce7"/><stop offset="1" stop-color="#78ffe3"/></radialGradient><radialGradient id="radial-gradient-3" cx="2287.45" cy="-11416.48" r="184.63" gradientTransform="matrix(-1.54, -0.6, 0.54, -1.7, 9799.07, -17941.72)" gradientUnits="userSpaceOnUse"><stop offset="0" stop-color="#fff"/><stop offset="0.07" stop-color="#e0e0e0"/><stop offset="0.21" stop-color="#a6a6a6"/><stop offset="0.36" stop-color="#737373"/><stop offset="0.5" stop-color="#4a4a4a"/><stop offset="0.64" stop-color="#2a2a2a"/><stop offset="0.77" stop-color="#131313"/><stop offset="0.89" stop-color="#050505"/><stop offset="1"/></radialGradient><radialGradient id="radial-gradient-4" cx="-4119.9" cy="495.71" r="171.89" gradientTransform="matrix(-0.75, 0.32, -0.16, -0.55, -2771.63, 1648.58)" gradientUnits="userSpaceOnUse"><stop offset="0"/><stop offset="0.09" stop-color="#060606"/><stop offset="0.22" stop-color="#171717"/><stop offset="0.36" stop-color="#333"/><stop offset="0.52" stop-color="#5a5a5a"/><stop offset="0.68" stop-color="#8c8c8c"/><stop offset="0.86" stop-color="#c8c8c8"/><stop offset="1" stop-color="#fff"/></radialGradient><radialGradient id="radial-gradient-5" cx="2162.2" cy="-11673.31" r="184.63" gradientTransform="matrix(-1.54, -0.6, 0.54, -1.7, 10259.96, -18452.97)" xlink:href="#radial-gradient-3"/><mask id="mask" x="68.67" y="-7.58" width="359.13" height="359.13" maskUnits="userSpaceOnUse"><circle class="cls-1" cx="248.24" cy="171.98" r="179.06"/></mask><radialGradient id="radial-gradient-6" cx="271.01" cy="203.64" r="211.61" gradientTransform="matrix(-0.54, -0.84, 0.83, -0.54, 249.57, 540.24)" gradientUnits="userSpaceOnUse"><stop offset="0" stop-color="#1b9ffe"/><stop offset="0.15" stop-color="#1a9cfe" stop-opacity="0.99"/><stop offset="0.31" stop-color="#1592fe" stop-opacity="0.96"/><stop offset="0.47" stop-color="#0e82fe" stop-opacity="0.9"/><stop offset="0.64" stop-color="#046bff" stop-opacity="0.83"/><stop offset="0.69" stop-color="#0063ff" stop-opacity="0.8"/><stop offset="0.82" stop-color="#2fa0f4" stop-opacity="0.8"/><stop offset="1" stop-color="#78ffe3" stop-opacity="0.8"/></radialGradient><clipPath id="clip-path"><circle class="cls-5" cx="247.05" cy="170.17" r="170.5"/></clipPath><mask id="mask-2" x="-242.6" y="-233.97" width="691.02" height="621.17" maskUnits="userSpaceOnUse"><ellipse class="cls-2" cx="99.51" cy="76.14" rx="309.7" ry="342.39" transform="translate(13.49 167.25) rotate(-84.07)"/></mask><radialGradient id="radial-gradient-7" cx="250.03" cy="215.79" r="71.42" gradientUnits="userSpaceOnUse"><stop offset="0" stop-color="#8affd9" stop-opacity="0.8"/><stop offset="0.73" stop-color="#61cbf4" stop-opacity="0.8"/><stop offset="1" stop-color="#51b6ff" stop-opacity="0.8"/></radialGradient><radialGradient id="radial-gradient-8" cx="250.07" cy="151.88" r="68" xlink:href="#radial-gradient-7"/><radialGradient id="radial-gradient-9" cx="250.07" cy="213.08" r="52.35" gradientUnits="userSpaceOnUse"><stop offset="0" stop-color="#fff" stop-opacity="0.8"/><stop offset="0.14" stop-color="#f9feff" stop-opacity="0.8"/><stop offset="0.32" stop-color="#e7fbff" stop-opacity="0.8"/><stop offset="0.5" stop-color="#c9f5ff" stop-opacity="0.8"/><stop offset="0.69" stop-color="#a0eeff" stop-opacity="0.8"/><stop offset="0.89" stop-color="#6be4ff" stop-opacity="0.8"/><stop offset="1" stop-color="#4adeff" stop-opacity="0.8"/></radialGradient><mask id="mask-3" x="104.33" y="14.36" width="200.87" height="172.43" maskUnits="userSpaceOnUse"><ellipse class="cls-3" cx="204.76" cy="100.58" rx="106.8" ry="78.15" transform="translate(-22.86 115.86) rotate(-30)"/></mask><linearGradient id="linear-gradient" x1="226.18" y1="107.74" x2="272.04" y2="244.94" gradientUnits="userSpaceOnUse"><stop offset="0" stop-color="#8bfeb7" stop-opacity="0"/><stop offset="1" stop-color="#24a9ff"/></linearGradient><clipPath id="clip-path-2"><circle class="cls-5" cx="761.05" cy="170.17" r="170.5"/></clipPath><mask id="mask-4" x="271.4" y="-233.97" width="691.02" height="621.17" maskUnits="userSpaceOnUse"><ellipse class="cls-4" cx="613.51" cy="76.14" rx="309.7" ry="342.39" transform="translate(474.38 678.5) rotate(-84.07)"/></mask></defs><g class="cls-6"><circle class="cls-7" cx="247.05" cy="170.17" r="170.5"/></g><g class="cls-8"><g class="cls-9"><ellipse class="cls-10" cx="106.83" cy="81.19" rx="305.57" ry="341.93" transform="translate(15.03 179.06) rotate(-84.07)"/></g></g><rect class="cls-5" x="185.64" y="72.38" width="134.96" height="179.03"/><path class="cls-11" d="M343,176.39v73.37a5.45,5.45,0,0,1-5.44,5.44H162.52a5.45,5.45,0,0,1-5.44-5.44l0-73.37Z"/><path class="cls-12" d="M343.07,176.39a5.24,5.24,0,0,0-.08-.88,6.07,6.07,0,0,0-.21-.84L339,163.34l-10.75-32.26a5.43,5.43,0,0,0-5.17-3.72h-146a5.43,5.43,0,0,0-5.17,3.72l-14.52,43.59a5.25,5.25,0,0,0-.29,1.71h186Z"/><path class="cls-13" d="M315.82,192.75v0H250.07v0H184.31a5.43,5.43,0,0,0-5.43,5.43V228a5.43,5.43,0,0,0,5.43,5.44H315.82a5.44,5.44,0,0,0,5.44-5.44v-29.8A5.44,5.44,0,0,0,315.82,192.75Z"/><path class="cls-14" d="M297.3,149.15H202.85a5.45,5.45,0,1,0,0,10.89H297.3a5.45,5.45,0,1,0,0-10.89Z"/><path id="Path_9987" data-name="Path 9987" class="cls-15" d="M295.48,114.63a45.41,45.41,0,1,1-13.3-32.1A45.39,45.39,0,0,1,295.48,114.63Z"/><path id="Path_9988" data-name="Path 9988" class="cls-15" d="M295.48,114.63a45.46,45.46,0,0,0-45.41-45.4V160a45.46,45.46,0,0,0,45.41-45.4Z"/><path id="Path_9989" data-name="Path 9989" class="cls-16" d="M284.58,114.63a34.48,34.48,0,1,1-10.1-24.4A34.51,34.51,0,0,1,284.58,114.63Z"/><path id="Path_9990" data-name="Path 9990" class="cls-15" d="M284.58,114.63a34.54,34.54,0,0,0-34.51-34.5v69A34.55,34.55,0,0,0,284.58,114.63Z"/><path id="Path_9991" data-name="Path 9991" class="cls-17" d="M255.38,111c-.63-.22-1.28-.45-1.92-.69V98.56a5.11,5.11,0,0,1,1.77,1,3.63,3.63,0,0,0,5.45-4.79,12.57,12.57,0,0,0-7.22-3.72V89.23a3.64,3.64,0,1,0-7.27,0v2.26c-.23.05-.45.12-.68.19a12.23,12.23,0,0,0-8.39,9.59A10.87,10.87,0,0,0,240.71,112a26.81,26.81,0,0,0,5.48,3.2v15.34a11,11,0,0,1-4.84-2.07,3.63,3.63,0,0,0-4,6.08,17.59,17.59,0,0,0,8.81,3.3v2.25a3.64,3.64,0,1,0,7.27,0v-2.6a14.77,14.77,0,0,0,10.75-11.77A13,13,0,0,0,255.37,111Zm-10.18-4.74a3.76,3.76,0,0,1-.94-3.64,5.45,5.45,0,0,1,1.93-3.26v7.6a11.45,11.45,0,0,1-1-.7Zm11.85,18.25a7.5,7.5,0,0,1-3.6,5.21V118A5.62,5.62,0,0,1,257.05,124.49Z"/><path id="Path_9992" data-name="Path 9992" class="cls-18" d="M255.38,111c-.63-.22-1.28-.45-1.92-.69V98.56a5,5,0,0,1,1.77,1,3.63,3.63,0,0,0,5.45-4.8,12.63,12.63,0,0,0-7.22-3.72V89.23a3.64,3.64,0,0,0-3.39-3.64v58.09a3.64,3.64,0,0,0,3.39-3.62v-2.6a14.77,14.77,0,0,0,10.75-11.77A13,13,0,0,0,255.37,111Zm1.67,13.51a7.52,7.52,0,0,1-3.59,5.21V118A5.62,5.62,0,0,1,257.05,124.49Z"/><g class="cls-19"><ellipse class="cls-20" cx="204.76" cy="100.58" rx="106.8" ry="78.15" transform="translate(-22.86 115.86) rotate(-30)"/></g><path class="cls-21" d="M493.19,92.58c-6.25-19.77-38-29.85-89.5-28.35-2.91.09-5.87.2-8.86.36a3.12,3.12,0,0,0-2.41,4.9l0,.05a1.88,1.88,0,0,0,1.68.82c3.29-.18,6.53-.33,9.72-.41s6.5-.13,9.62-.13c21.22,0,38.55,2.19,51.2,6.34s20.59,10.28,23.06,18.13c5.32,16.86-14.64,41.66-54.75,68-3,1.94-6,3.88-9.15,5.82-40.87,25.28-95.73,49.35-155.9,68.33S149,267.18,101,269.9c-3.66.21-7.26.38-10.8.48-48,1.39-78.55-7.47-83.86-24.32-6-18.88,19-45.83,63-73.1a1.94,1.94,0,0,0,.91-1.66v-2.48a1.92,1.92,0,0,0-2.94-1.65C20,196.44-6,225.87.91,247.77c5.83,18.48,34,28.47,79.69,28.47q4.77,0,9.79-.15c4.72-.13,9.58-.38,14.53-.7,47.79-3.13,105.62-14.84,164.74-33.47s113.21-42.19,154.14-67q6.4-3.85,12.33-7.77C479.15,138.8,499.42,112.33,493.19,92.58Z"/><g class="cls-22"><g class="cls-23"><ellipse class="cls-10" cx="620.83" cy="81.19" rx="305.57" ry="341.93" transform="translate(475.92 690.31) rotate(-84.07)"/></g></g></svg>