<svg id="Layer_1" data-name="Layer 1" xmlns="http://www.w3.org/2000/svg" viewBox="0 0 806.66 806.66"><defs><style>.cls-1{fill:none;stroke:#0168ff;stroke-miterlimit:10;}</style></defs><path class="cls-1" d="M289.71,471.35a132.48,132.48,0,0,1,47.48-182.74"/><path class="cls-1" d="M440,530.6a132.56,132.56,0,0,1-132.5-36"/><path class="cls-1" d="M531.2,368.85A132.58,132.58,0,0,1,460,523"/><path class="cls-1" d="M356.26,279.54a132.57,132.57,0,0,1,171.17,77.54"/><path class="cls-1" d="M266.52,305.81a168.05,168.05,0,0,1,295.36,41.81"/><path class="cls-1" d="M565.73,360.13a168,168,0,1,1-312.94-31.46"/><path class="cls-1" d="M486,223.41A198,198,0,0,1,601.28,403.33c0,109.32-88.63,198-197.95,198a197.1,197.1,0,0,1-118.13-39.1"/><path class="cls-1" d="M269.25,548.94a197.42,197.42,0,0,1-63.86-145.61C205.39,294,294,205.39,403.33,205.39a199.14,199.14,0,0,1,33.89,2.89"/><path class="cls-1" d="M358.66,187.17c2.53-.52,5.09-1,7.66-1.44,120.18-20.44,234.17,60.41,254.61,180.59S560.52,600.49,440.35,620.93a221.35,221.35,0,0,1-53.2,2.59"/><path class="cls-1" d="M237.34,548.87a219.7,219.7,0,0,1-51.61-108.52C168.3,337.87,224.52,239.89,316,200.58"/><path class="cls-1" d="M356.36,619.06a220.14,220.14,0,0,1-56.11-20.54"/><path class="cls-1" d="M251.14,203.87a249.81,249.81,0,0,1,152.19-51.42c121.24,0,222.39,86,245.78,200.32"/><path class="cls-1" d="M199.72,256.73A252.43,252.43,0,0,1,219.12,233"/><path class="cls-1" d="M169.35,312.63a249.32,249.32,0,0,1,16-33.63"/><path class="cls-1" d="M651.74,368a252.81,252.81,0,0,1,2.47,35.34c0,138.56-112.32,250.88-250.88,250.88S152.45,541.89,152.45,403.33a251.74,251.74,0,0,1,6.66-57.65"/><path class="cls-1" d="M329,127.56a286.25,286.25,0,0,1,74.36-9.78c157.71,0,285.55,127.85,285.55,285.55a285.47,285.47,0,0,1-13,85.4"/><path class="cls-1" d="M131.36,316.09a286.31,286.31,0,0,1,167.53-178.6"/><path class="cls-1" d="M253.83,646.66A286,286,0,0,1,123.64,345.5"/><path class="cls-1" d="M296.26,668.13a285.26,285.26,0,0,1-28.72-13.54"/><path class="cls-1" d="M493.56,674.33A287,287,0,0,1,312,674"/><path class="cls-1" d="M662.66,523A286.58,286.58,0,0,1,510.28,668.18"/><path class="cls-1" d="M90.33,288.61c46.76-127.54,169.26-218.55,313-218.55,154.48,0,284.42,105.11,322.19,247.71"/><path class="cls-1" d="M495.14,723.8a333.52,333.52,0,0,1-91.81,12.8c-184.06,0-333.27-149.21-333.27-333.27A334.2,334.2,0,0,1,80,322.21"/><path class="cls-1" d="M728.65,476c-24.28,109.17-102.11,198.16-204.5,238"/><path class="cls-1" d="M729.67,335.4a337.1,337.1,0,0,1,3.42,116.52"/><path class="cls-1" d="M486.22,29.53a380.17,380.17,0,0,1,90.9,32.63"/><path class="cls-1" d="M362.84,784C176.05,764.38,29.28,610.41,20.91,420.48"/><path class="cls-1" d="M762.22,269.86a382.05,382.05,0,0,1,23.91,133.47c0,211.42-171.38,382.8-382.8,382.8H401"/><path class="cls-1" d="M631.17,95.69A384.58,384.58,0,0,1,743.74,228.06"/><path class="cls-1" d="M600.74,75.29q5.24,3.17,10.36,6.48"/><path class="cls-1" d="M83.22,193.34C151.64,89.25,269.46,20.53,403.33,20.53a385.4,385.4,0,0,1,61.36,4.89"/><path class="cls-1" d="M20.53,403.33a381.09,381.09,0,0,1,40.33-171.2"/><path class="cls-1" d="M479.43,799a405,405,0,0,1-76.1,7.17C180.85,806.16.5,625.81.5,403.33A401,401,0,0,1,44.75,219.6"/><path class="cls-1" d="M687.9,688.45A402.49,402.49,0,0,1,516.4,790.08"/><path class="cls-1" d="M742.69,620.47a405.67,405.67,0,0,1-34.05,45.67"/><path class="cls-1" d="M794.82,498.66A400.39,400.39,0,0,1,755.3,599.42"/><path class="cls-1" d="M804.2,363.29q1.95,19.75,2,40A404.85,404.85,0,0,1,797.68,486"/><path class="cls-1" d="M682.34,112.76A401.89,401.89,0,0,1,802.06,345.61"/><path class="cls-1" d="M589.25,45.88A403.72,403.72,0,0,1,662.7,95.1"/><path class="cls-1" d="M265.56,24.68a404.37,404.37,0,0,1,294.37,7.39"/><path class="cls-1" d="M63.58,186.8a404.53,404.53,0,0,1,173-150.26"/></svg>