<svg id="Layer_1" data-name="Layer 1" xmlns="http://www.w3.org/2000/svg" viewBox="0 0 95.5 95.24"><defs><style>.cls-1{fill:#02203d;}.cls-2{fill:#0168ff;fill-rule:evenodd;}</style></defs><circle class="cls-1" cx="43.89" cy="43.75" r="43.39"/><circle class="cls-1" cx="87.39" cy="87.14" r="7.42"/><path class="cls-2" d="M80.75,20.06l0-.23a.22.22,0,0,0-.23-.17c-.69-1.07-1.44-2.14-2.24-3.2a.34.34,0,0,0-.47-.09c-.27-.34-.53-.69-.81-1a.16.16,0,0,0-.11-.14q-.63-.73-1.29-1.44c0-.26,0-.52,0-.78s-.42-.24-.43,0v.3C58.61-4,30.59-4.4,12.5,12-5.1,27.89-3,56.44,11.85,73.55c0,.29,0,.58.09.87a.21.21,0,0,0,.24.19.22.22,0,0,0,.19-.25,1.62,1.62,0,0,0,0-.22c.16.18.31.36.47.53a10.47,10.47,0,0,0,.4,1.63.22.22,0,0,0,.29.11.21.21,0,0,0,.13-.23c-.06-.27-.09-.54-.14-.81l1,1c.05.41.09.82.16,1.23a.24.24,0,0,0,.27.18.23.23,0,0,0,.18-.24c0-.21,0-.42,0-.63.94.87,1.9,1.71,2.91,2.49a.46.46,0,0,0,.64-.13c.08.26.16.52.26.77a.21.21,0,0,0,.4-.11A13.69,13.69,0,0,1,19,78.18l1.09-.33a11,11,0,0,0,.49,3.55.24.24,0,0,0,.32.12.23.23,0,0,0,.14-.24c-.06-.37-.11-.73-.16-1.09l1.4-.62a13.88,13.88,0,0,0,.3,2.48.23.23,0,0,0,.26.18A.21.21,0,0,0,23,82a20.09,20.09,0,0,1-.17-2.68c.52-.23,1-.48,1.54-.73,0,.59.07,1.17.12,1.75l-.88.41a.22.22,0,0,0-.1.3.23.23,0,0,0,.28.11h0l.73-.31c0,.3,0,.59.07.89s.45.22.45-.06,0-.69,0-1c.5-.21,1-.41,1.48-.63,0,.79,0,1.57.09,2.35l-.16.08-.65-.25a.44.44,0,0,0-.34.8h0l.2.1a.22.22,0,0,0,.31.16h0a49.2,49.2,0,0,0,7.9,3l.26.2a.32.32,0,0,0,.37,0C71.87,96.14,102.07,53.65,80.75,20.06ZM74.89,69.78c-.18.77-.37,1.55-.57,2.32l-1.43,1.62c.41-1.54.77-3.1,1.08-4.67l1.53-2c-.16.74-.33,1.49-.5,2.23l-.13.18A.19.19,0,0,0,74.89,69.78Zm-11,6.72a21.5,21.5,0,0,1,1.69-2.43c-.11.6-.21,1.21-.32,1.82,0,.28.38.33.44.06.34-1.41.64-2.83.93-4.26.45-.57.89-1.14,1.33-1.72-.24,1.26-.47,2.51-.69,3.77L66,75.58a.24.24,0,0,0,.06.34.21.21,0,0,0,.13,0c-.36.56-.72,1.12-1.07,1.69A3.45,3.45,0,0,1,63.85,76.5Zm-2-3.11.27-1.28c.8-1,1.55-2.1,2.25-3.19-.27,1.26-.57,2.52-.89,3.77-.32.44-.62.89-.93,1.34A4.71,4.71,0,0,0,61.83,73.39Zm-9-4.79c.5-.4,1-.83,1.45-1.26-.16,1.07-.3,2.14-.43,3.21-.17.17-.35.34-.51.51-.29-.34-.55-.71-.82-1.08C52.62,69.52,52.72,69.06,52.82,68.6Zm-.73.77-.1-.14.15-.12A2.38,2.38,0,0,0,52.09,69.37Zm2.85-10.6A3.14,3.14,0,0,1,56,57.3c-.32,1.87-.66,3.74-1,5.62-.39.35-.79.69-1.17,1C54.21,62.24,54.58,60.5,54.94,58.77Zm1.14,1.65h0l1-.74c-.08.55-.17,1.1-.26,1.64-.38.32-.74.65-1.11,1L56,60.44S56.05,60.44,56.08,60.42Zm2.62-2.23a.21.21,0,0,0-.3,0c-.23.15-.45.32-.68.48q.12-.89.21-1.77a.23.23,0,0,0,.27,0h0l1.11-1.17c-.07,1.31-.18,2.61-.34,3.9-.52.41-1,.84-1.53,1.26l.21-1.56c.34-.26.68-.51,1-.78A.22.22,0,0,0,58.7,58.19Zm-2.39,6.27c-.37.39-.74.78-1.12,1.16.13-.8.27-1.61.39-2.41l1.09-.94C56.55,63,56.44,63.73,56.31,64.46ZM55,66.6c.37-.37.74-.74,1.09-1.12-.21,1.16-.43,2.31-.66,3.47l-1.05,1C54.63,68.85,54.84,67.73,55,66.6Zm1.8-2c.17-.2.34-.39.5-.59s-.15-.48-.35-.3c.12-.68.22-1.36.32-2l1.58-1.43A63.7,63.7,0,0,1,57.63,67l-1.51,1.36C56.38,67.11,56.61,65.87,56.83,64.64Zm-3.16.12h0c.4-.31.79-.63,1.18-1-.15.86-.29,1.71-.43,2.57-.46.45-.93.88-1.4,1.31C53.24,66.71,53.46,65.73,53.67,64.76Zm.08,6.55a.2.2,0,0,0,.2.17.21.21,0,0,0,.2-.15l.09-.48,1-1-.51,2.49a3.19,3.19,0,0,1-.45-.3,5.71,5.71,0,0,1-.68-.63Zm1.42,1.21c.26-1.08.5-2.16.74-3.25L57.4,67.9c-.29,1.09-.59,2.18-.94,3.26,0,0,0,0,0,0-.42.45-.84.9-1.25,1.36Zm6.25-8.35a.19.19,0,0,0-.29,0h0c-.42.32-.83.66-1.25,1l.39-2.49c.51-.46,1-.92,1.52-1.39C61.68,62.22,61.56,63.2,61.42,64.17Zm-.05.33c-.1.64-.2,1.28-.31,1.92l-1.68,1.73c.13-.77.25-1.55.37-2.32C60.29,65.38,60.82,64.93,61.37,64.5Zm-2.7,4.38c-.53.54-1.06,1.09-1.58,1.64.35-1.06.67-2.12.95-3.19l1-.9C58.92,67.25,58.79,68.06,58.67,68.88Zm-.14,1c-.13.85-.26,1.69-.37,2.54-.26,0-.53.07-.84.09-.57,0-1,.13-1.44.12C56.78,71.74,57.66,70.82,58.53,69.89Zm.67-.73,1.68-1.82c-.31,1.65-.64,3.3-1,5a.19.19,0,0,0,.11.21,3.86,3.86,0,0,0-1.39-.13C58.83,71.31,59,70.23,59.2,69.16Zm1.11,3.27a39.81,39.81,0,0,0,1.38-6l.06,0a.2.2,0,0,0,0-.28c.27-1.8.45-3.61.57-5.41l.9-.87c.19-.18,0-.49-.24-.32l-.61.53a.71.71,0,0,1,0-.14c0-.29-.44-.36-.46-.06h0c0,.22-.05.43-.07.65-.49.42-1,.86-1.47,1.3.38-2.45.74-4.9,1.13-7.35a.21.21,0,0,0-.2-.23.22.22,0,0,0-.23.18c-.45,2.67-.91,5.35-1.37,8L59.1,63c-.22.22.06.62.31.4h0l.16-.15c-.14.81-.26,1.62-.4,2.43l-.92.78a52.2,52.2,0,0,0,1.19-6.7l.41-.38c.19-.17,0-.49-.24-.32l-.09.08c.14-1.42.23-2.83.26-4.26,0-.26-.4-.32-.41,0h0c0,.1,0,.19,0,.28a.25.25,0,0,0-.09,0L58,56.44c0-.24.06-.47.08-.7a.22.22,0,0,0-.44-.06h0c-.13,1.12-.28,2.23-.44,3.35-.37.26-.73.54-1.1.81.15-1,.3-2,.46-3a10.15,10.15,0,0,0,.71-.77,4.43,4.43,0,0,0,1-2.15,3.94,3.94,0,0,0,.07-.77c.22-.17.44-.34.67-.5l0,.21a.21.21,0,0,0,.21.21.2.2,0,0,0,.2-.16l.12-.64,1.23-1c-.07.67-.14,1.33-.23,2a.2.2,0,0,0,.18.21.18.18,0,0,0,.2-.16c.14-.81.24-1.62.36-2.44l.91-.71a.21.21,0,0,0-.26-.34l-.56.42a106.24,106.24,0,0,0,.94-12.22l.72-.69c.18-.17,0-.48-.23-.31l-.48.45c0-.68,0-1.36,0-2,0,0,0,0,0-.06l.39-.4c0,.12,0,.24,0,.36s.38.19.38,0v-.77c.44-.48.88-1,1.29-1.48.17-.2-.14-.43-.3-.24-.32.37-.66.73-1,1.09,0-1.35,0-2.71,0-4.06.35-.37.71-.74,1-1.12,0,1.24,0,2.49-.07,3.73a.2.2,0,0,0,.39,0,34,34,0,0,0-.17-8.31,9.46,9.46,0,0,0,.87-1.56c-.09,5-.22,9.92-.48,14.88l-.82.81c0-.49,0-1,0-1.48,0-.28-.42-.22-.42,0h0c0,.63,0,1.26,0,1.88l-.54.54c-.22.2.06.57.28.37h0l.24-.23c-.06,2.07-.17,4.14-.36,6.21-.34.29-.67.6-1,.9s.05.61.3.4h0l.62-.53c-.11,1.06-.22,2.13-.36,3.19l0,0a.16.16,0,0,0,0,.26c-.18,1.28-.37,2.56-.59,3.84,0,.27.37.33.43,0q.38-2,.66-4c.46-.45.91-.91,1.36-1.39-.06.56-.1,1.12-.16,1.68l-.93,1.13a.22.22,0,0,0,.34.27h0l.51-.63c-.11.94-.24,1.87-.38,2.8l-.37.36c-.21.2.06.56.27.36h0c0,.12,0,.24,0,.36a.2.2,0,0,0,.19.21.2.2,0,0,0,.21-.16c0-.29.08-.58.13-.86l.08-.08c-.31,3.31-.73,6.6-1.22,9.87l0,0A.19.19,0,0,0,63,64c-.2,1.38-.43,2.76-.66,4.13-.33.43-.66.86-1,1.27-.16.2.14.43.31.24s.36-.44.55-.66l-.51,2.88-.77,1c-.23-.1-.48-.2-.73-.28A.16.16,0,0,0,60.31,72.43ZM56.6,49.18,56.35,49c.4-1.63.77-3.25,1.1-4.89l1-.79c-.42,2.14-.87,4.28-1.19,6.43l0,0A5.86,5.86,0,0,0,56.6,49.18Zm-10.91-9h0c-.29,1.69-.59,3.37-.83,5.07l-.32-.1a.27.27,0,0,0-.26,0c.46-2.81.75-5.64,1.1-8.46a.27.27,0,0,0-.54-.07h0c-.42,3.14-.93,6.29-1.17,9.45-.51.87-1.06,1.7-1.63,2.51.87-4.86,1.37-9.79,2-14.68a.27.27,0,1,0-.53-.07h0c-.66,4.94-1.49,9.88-1.93,14.84a.22.22,0,0,0,.18.24l.05,0c-.93,1.3-1.91,2.57-2.86,3.91-.64.91-.95,2.62-1.55,3.33a3.32,3.32,0,0,1-2.49.89c.35-1.39.57-2.82.83-4.23.06-.33-.45-.39-.51-.06h0c0,.22-.09.43-.13.65a.1.1,0,0,0-.09,0l-1.15.66c0-.6.11-1.2.17-1.79A.24.24,0,0,0,33.9,52l1-.55c0,.38-.08.76-.11,1.14a.22.22,0,0,0,.2.24.22.22,0,0,0,.23-.19c.24-1.6.45-3.21.65-4.82h0l.33-2.71c.42-.18.84-.37,1.25-.57-.38,2.85-.8,5.7-1.24,8.55a.19.19,0,0,0,.16.23c-.1.35-.21.69-.31,1s.29.41.37.16L37,52.85a.24.24,0,0,0-.24-.31q1.05-5.34,1.7-10.74l.66-.28a.21.21,0,0,0,.11-.27.2.2,0,0,0-.27-.1l-.45.17c.4-3.42.69-6.84.85-10.28a.23.23,0,0,0-.2-.25.24.24,0,0,0,.24-.18,49.34,49.34,0,0,0,1.2-8.71l.08,0h0c.4-.17.8-.33,1.21-.47-.17,3.13-.44,6.25-.86,9.36a.22.22,0,0,0,.44.06,69.19,69.19,0,0,0,1.06-9.63c.42-.13.85-.25,1.29-.34,0,.42,0,.85-.05,1.28l-.69.21c-.28.08-.1.5.17.42h0l.49-.14q-.29,6-1.12,11.92a.23.23,0,0,0,.2.25.23.23,0,0,0,.25-.19,79,79,0,0,0,1.31-12.17l1.27-.37-.09,1-.49.11c-.32.06-.25.57.07.5h0l.37-.08c-.32,3.37-.63,6.74-.86,10.12,0,.28.41.34.44.06.39-3.43.69-6.86,1-10.29l1.26-.25c-.47,4.42-1,8.85-1.28,13.28,0,.27.39.33.42.06.5-3.93.87-7.87,1.23-11.81,0,0,0,0,0,0h0l1-.24c0,1.85-.08,3.69-.22,5.53l0,0a.22.22,0,0,0-.12.29.23.23,0,0,0,.11.11c-.16,1.9-.36,3.81-.65,5.7a.19.19,0,0,0,.18.21.2.2,0,0,0,.21-.16c.36-2,.61-3.93.78-5.91A2.27,2.27,0,0,0,50.21,29a.21.21,0,0,0-.38-.16l-.68.69c.1-1.42.14-2.85.14-4.28a.23.23,0,0,0,.17,0L50.75,25c-.19,3.93-.53,7.86-1.06,11.76a.2.2,0,0,0,.19.21.2.2,0,0,0,.21-.16,84.68,84.68,0,0,0,1.13-11.9l1.18-.23c0,.49,0,1,0,1.45l0,0c-.29-.09-.48.35-.19.44a.23.23,0,0,0,.23-.05c0,.17,0,.34,0,.51l-.15.15c-.13.14,0,.29.14.32,0,.55,0,1.1,0,1.65-.27.17-.53.35-.8.51s-.09.56.17.42h0l.6-.35c-.15,3.11-.42,6.22-.83,9.31-.46.34-.93.66-1.41,1-.2.13,0,.49.22.37h0c.38-.2.74-.43,1.09-.66-.11.84-.24,1.67-.37,2.51l-1.44.92s0,0,0,.06c.24-1.65.46-3.29.7-4.93a.22.22,0,0,0-.44-.06c-.45,2.82-.95,5.64-1.31,8.48a.25.25,0,0,0,.22.27.24.24,0,0,0,.27-.21c0-.24.07-.48.11-.72a.26.26,0,0,0,.25.17h0a8.93,8.93,0,0,0,.9-.17l.08,0c-.11.52-.2,1-.31,1.57-.06.27.35.31.41.05.17-.64.31-1.28.45-1.93l1.7-1.11c-.13.89-.26,1.78-.41,2.67l-.84.56a.17.17,0,0,0-.08.19c-1.4-.18-2.62-.55-3.12-1.73a.26.26,0,0,0-.36-.13s0,0,0,0a.2.2,0,0,0-.15-.13h0l-2.27-.71c.34-1.69.61-3.41.89-5.13C46.23,39.94,45.74,39.87,45.69,40.18ZM31.55,59.68a26.66,26.66,0,0,0-.37,5.71.25.25,0,0,0,0,.11c-.23,1.18-.49,2.35-.62,3.55a.25.25,0,0,0,.22.27.24.24,0,0,0,.27-.21c.14-.52.25-1.06.35-1.59a2.62,2.62,0,0,0,1.32,2.09.41.41,0,0,0,0,.47c0,.32,0,.63,0,1l-1.16.84c0-.88,0-1.76,0-2.63,0-.31-.47-.39-.49-.07-.13,1.74-.24,3.5-.35,5.26L29.61,75a6.39,6.39,0,0,0,.66-4.19,5.05,5.05,0,0,0-.61-1.48.26.26,0,0,0,.07-.11c.17-.83.31-1.68.46-2.51l0,0a.17.17,0,0,0,0-.27c.47-2.6.86-5.23,1.21-7.86.26-.15.51-.31.76-.47a1.79,1.79,0,0,0-.2.26A5.66,5.66,0,0,0,31.55,59.68Zm7,19.25a.79.79,0,0,1-.34.34l.09-.82a.28.28,0,0,0-.25-.3.26.26,0,0,0-.3.23h0c0,.38-.09.75-.13,1.13a3.54,3.54,0,0,1-.38.09c.1-.8.17-1.61.2-2.41C38.27,77.45,38.91,77.84,38.52,78.93Zm-1.79.75-.85.09a23.5,23.5,0,0,0-.29-3.13,8.38,8.38,0,0,0,1.28.4C36.8,77.92,36.72,78.8,36.73,79.68ZM33,84.11a.38.38,0,0,0-.21.39c-.78-.2-1.57-.42-2.36-.66A11.89,11.89,0,0,0,32,83.07l0,.48a.23.23,0,0,0,.45.06l.15-.87.08,0C32.91,83.42,33.14,84,33,84.11Zm-6-4.94c0-.66,0-1.32-.05-2a3.54,3.54,0,0,0,.48-.23h0c0,.29.42.44.51.14a4,4,0,0,0,.17-.59l.12-.08a.33.33,0,0,0,.43,0h0l.22-.26c0,.69,0,1.39,0,2.09C28.23,78.54,27.6,78.86,27,79.17Zm-2.17-2.72c0-.34-.54-.27-.52.08h0a.53.53,0,0,0,0,.13l-.34-.11c.12-.13,0-.4-.17-.34l-.38.1a2.61,2.61,0,0,1-.28-.17c0-.2.05-.4.09-.6s-.41-.37-.48-.06h0c0,.11,0,.22-.07.33a4.69,4.69,0,0,1-.81-.85l.71-.31a.21.21,0,0,0-.16-.39l-.8.36a6.28,6.28,0,0,1-.45-.81.26.26,0,0,0-.34-.13.26.26,0,0,0-.15.26v0a9.19,9.19,0,0,0-1.21-.72l.2-.1c.23-.12.08-.48-.15-.37L19,73c-.28-.12-.56-.23-.85-.33l.24-.1c.28-.15.09-.61-.2-.47h0a3.53,3.53,0,0,1-.94.33h-.07a.28.28,0,0,0-.42.07A2.65,2.65,0,0,1,15.1,72c0-.14,0-.28,0-.42,0-.34-.49-.42-.54-.08a4.28,4.28,0,0,1-.9-2.14,27.18,27.18,0,0,0-.38-3.25c-.39-1.39-1.18-2.56-2.67-2.73a.21.21,0,0,0-.25.2.23.23,0,0,0,.13.23,3.91,3.91,0,0,1,.41.2,27.87,27.87,0,0,0-.28,5.7c-.37-.55-.72-1.12-1.07-1.69,0-1.77-.06-3.55-.15-5.3a.2.2,0,0,0-.18-.19.26.26,0,0,0-.18-.17h0A6.77,6.77,0,0,1,5.8,60.4,50.67,50.67,0,0,1,3,50.37a1.54,1.54,0,0,0,.74-.08c.52-.18.3-.3.79-.55a2.15,2.15,0,0,1,2.23,0c.64.28.71.58,1.4.29a.3.3,0,0,0,.15-.4.3.3,0,0,0-.3-.17H8a1.52,1.52,0,0,1-1.16-.53L8.3,48c0,.18,0,.36,0,.53s.48.24.47-.06,0-.51,0-.77l1.5-.95c0,.77,0,1.55,0,2.32l-.72.47a.19.19,0,0,0-.1.18,1.36,1.36,0,0,0-.68.16.28.28,0,0,0-.13.37.28.28,0,0,0,.27.15c1.33-.17,2.46,5,4.37,3.94.81.26,1.08-.37,1.51-1s-.66-1.15,1.17-1.46c-.06.58-.13,1.16-.19,1.75a.23.23,0,0,0,.21.25.23.23,0,0,0,.24-.19c.09-.59.16-1.19.25-1.78a14,14,0,0,1,1.32.62l.12.05c0,.45,0,.9,0,1.35,0,.24.4.24.42,0s.07-.76.1-1.14c1,.44,2.08.88,3.13,1.3a.35.35,0,0,0,.45-.2.19.19,0,0,0,.12-.16c.08-.7.17-1.4.26-2.1l.54-.28c.23-.12.08-.5-.17-.38l-.31.16.33-2.63.65-.29a.23.23,0,0,0,.11-.3.21.21,0,0,0-.28-.11l-.41.17q.36-2.72.75-5.42c.13-.09.27-.16.39-.25s0-.52-.28-.37h0L24,40l1.65-.87a100.41,100.41,0,0,0-1.47,14.38c0,.3.46.38.48.06.34-4.93.72-9.82,1.49-14.7.35-.19.71-.36,1.05-.56s.08-.49-.16-.38l-1,.48s-.05,0-.09,0a.21.21,0,0,0-.24.18h0v0c-.55.27-1.1.54-1.64.82l.24-1.47q2.18-1.07,4.3-2.17c-.66,4.35-1.34,8.71-1.92,13.07l-1.59.5c-.29.09-.11.53.18.43h0l1.35-.46c-.17,1.3-.34,2.6-.48,3.91a.21.21,0,0,0,.19.24.21.21,0,0,0,.23-.18c.25-1.39.47-2.79.69-4.19l.12,0c.22-.08.13-.33-.05-.37.68-4.39,1.25-8.8,1.86-13.2l.61-.32c.23-.12.09-.5-.16-.38l-.38.17c.1-.76.2-1.52.31-2.28a.24.24,0,0,0-.21-.27.25.25,0,0,0-.27.2h0c-.12.87-.26,1.74-.39,2.61q-2.14,1-4.27,2c.25-1.41.51-2.82.79-4.24a.2.2,0,0,0,.24-.17c.76-3.58,1.38-7.2,2-10.82l1.23-.42c-.38,3.21-.78,6.41-1,9.64a.22.22,0,0,0,.44.05c.5-3.29.84-6.6,1.21-9.91l.39-.14c.28-.1.1-.49-.17-.41l-.17.05c.05-.44.09-.87.14-1.31a.28.28,0,0,0-.25-.31.29.29,0,0,0-.31.23h0L28.74,21l-1.2.37.36-2.2c.78-.18,1.55-.38,2.32-.59a2.2,2.2,0,0,0,1.32.41,2.94,2.94,0,0,0,2.36-1.28c-.39,3-.76,6-1,9a.21.21,0,0,0,.42.06c.5-3.29.89-6.59,1.24-9.9a.33.33,0,0,0,0-.14,8.26,8.26,0,0,0,.63-1.78A1.84,1.84,0,0,0,35,13.18a3.48,3.48,0,0,0-.24-.28.2.2,0,0,0,.14-.14c.14-1,.26-2,.37-3l1.25-.44c0,.76,0,1.53,0,2.3-.41.11-.83.21-1.24.33s-.12.54.18.45h0l1.1-.31A.21.21,0,0,0,36.9,12v0l.76-.22c0,.35-.07.69-.09,1a.21.21,0,0,0,.2.23.21.21,0,0,0,.23-.17c.19-1.36.31-2.73.45-4.09,0-.31-.45-.38-.48-.06h0l-.27,2.59-.79.21c0-.79.05-1.57.06-2.36l.3-.11c.26-.09.09-.46-.16-.38l-.13,0c0-.44,0-.88,0-1.33,0,0,0,0,0-.07a5.72,5.72,0,0,1,2.4,3.07c-.06.66-.13,1.33-.2,2a.21.21,0,0,0,.18.24.23.23,0,0,0,.24-.19c0-.29.07-.59.1-.88,0,.12.06.24.08.37a6.77,6.77,0,0,1,.1.94l-1,.2c0-.3,0-.59,0-.89s-.51-.42-.52-.07h0l-.06,1.07-1.59.34,0-.6c0-.31-.47-.38-.49-.06h0c0,.26,0,.52,0,.78h0a.2.2,0,0,0,0,.4c-.27,4.21-.53,8.42-.67,12.64,0,.27.39.33.42.06.34-4.25.54-8.51.76-12.77l1.59-.28c0,.73-.07,1.47-.12,2.2l-1,.3c-.26.07-.1.45.16.38h0l.85-.24L38,18l-.53.13c-.28.07-.23.52.07.46l.43-.1c-.29,4.11-.67,8.22-1.11,12.33a.23.23,0,0,0,.21.25.22.22,0,0,0,.25-.18c.65-4.17,1.07-8.36,1.32-12.56L40.08,18q0,.71,0,1.41l-.84.23c-.25.07-.09.45.16.38l.68-.19A61.41,61.41,0,0,1,39,30.55a.19.19,0,0,0,.16.23.2.2,0,0,0-.22.2h0c-.23,3.55-.6,7.08-1,10.59l-1.29.5c.46-4,.88-8,1.34-12a.26.26,0,0,0-.51-.07c-.5,4.11-1,8.22-1.52,12.33l-1.32.54c.13-.94.26-1.87.38-2.8l1-.55c.24-.13.09-.52-.16-.4l-.81.41c.11-.82.2-1.65.3-2.48l.09,0a.21.21,0,0,0,0-.39q.41-3.78.74-7.55c0-.31-.46-.38-.49-.06h0c-.28,2.65-.63,5.3-1,7.93l-1,.52c.39-2.78.76-5.57,1.16-8.35a.27.27,0,0,0-.22-.29.25.25,0,0,0-.29.22h0C33.85,32,33.4,34.9,33,37.82l-1.09.56c-.24.13-.08.51.15.39h0l.86-.45c-.12.83-.23,1.67-.35,2.5l-1.36.7c.26-1.6.49-3.21.69-4.82A.19.19,0,0,0,32,37c.27.08.45-.33.17-.42a.23.23,0,0,0-.29.14c.39-3.2.66-6.41.78-9.63,0-.35-.53-.43-.54-.07-.28,5-.78,9.93-1.43,14.87a.3.3,0,0,0,0,.16c0,.13,0,.26,0,.39a.21.21,0,0,0,.18.24.23.23,0,0,0,.24-.19c0-.12,0-.24.05-.35l1.37-.7c-.12.84-.23,1.68-.34,2.52l-2.24.93a.24.24,0,0,0-.13.32.26.26,0,0,0,.32.12h0l2-.8c-.08.61-.15,1.21-.23,1.82l-.67.28a.26.26,0,0,0,.2.47h0l.39-.15-.06.53a.22.22,0,0,0,.2.24.23.23,0,0,0,.25-.18l.12-.79,1.09-.42c-.14,1-.27,1.95-.4,2.92-.78.43-1.56.86-2.36,1.26,0-.37.05-.74.06-1.11s-.42-.37-.45-.06L30,50.74l-1.35.64c-.23.11-.07.49.16.38h0L30,51.23c-.09.72-.17,1.44-.26,2.16-.48.18-1,.35-1.45.51.21-1.78.42-3.57.62-5.36.21,0,.31-.32.08-.39h0l.39-3.44a.28.28,0,0,0-.56-.07h0c-.39,3.17-.77,6.33-1.15,9.5l-.28.09c-.29.09-.11.52.18.44l0,0L27.37,56a4.22,4.22,0,0,0-4.8-2.19c-.27.06-.31.53,0,.53a4.68,4.68,0,0,1,4.63,3.17.49.49,0,0,0,0,.12.18.18,0,0,0,0,.25c0,.26-.07.52-.09.78a.29.29,0,0,0,.26.32,4.18,4.18,0,0,1-.5,1.56l-.15.08a.19.19,0,0,0-.1.27l0,0a5.72,5.72,0,0,1-.48.65c-.17.19.12.49.32.32h0a4.71,4.71,0,0,0,.89-1.13q.7-.31,1.38-.66c-.27,1.73-.56,3.45-.86,5.18l-.58.35c-.68-1.31-.91-2.57.25-3.64a.26.26,0,0,0,0-.35.24.24,0,0,0-.35,0c-1.46,1-1.57,2.62-.84,4.16.05.11.12.2.18.31l-.25.14c-.23.15,0,.5.28.35h0l.2-.12c.22.32.46.62.71.92l-.06.3c-.05.27.29.33.43.14a9.77,9.77,0,0,1,.63.81,5.81,5.81,0,0,1,.6,5.76.23.23,0,0,0-.26.22v.32a6,6,0,0,1-.31.55.28.28,0,0,0-.26.06h0l-.09.08a.29.29,0,0,0-.52.1h0a2.85,2.85,0,0,0-.11.39,4,4,0,0,1-2.73.7C24.8,76.65,24.8,76.55,24.79,76.45Zm-4.3-1.35-1.69.74a16.44,16.44,0,0,1,.13-2.1c.57.26,1.14.55,1.7.86h.05s-.07,0-.08.11h0A2.38,2.38,0,0,0,20.49,75.1Zm.59.19a4,4,0,0,0,1.13,1.35c-.5.14-1,.29-1.49.45A12.14,12.14,0,0,1,21,75.33Zm-2.89-1.86L17,74c0-.34.12-.68.2-1Zm-5.13-4c-.25.11-.48.23-.72.35.06-1.08.17-2.14.32-3.21C12.85,67.45,12.9,68.45,13.06,69.4Zm.09.48.06.26a10.08,10.08,0,0,0-.47,2.41L12.29,72c0-.55,0-1.1,0-1.65ZM7.43,62.45c.05.64.09,1.28.14,1.92-.39-.78-.76-1.57-1.11-2.38A5.74,5.74,0,0,0,7.43,62.45Zm.58.21a6,6,0,0,0,.94.2c0,1.36,0,2.74,0,4.11-.24-.41-.48-.82-.71-1.24C8.21,64.71,8.1,63.68,8,62.66Zm8.84-46.74a1.51,1.51,0,0,0,.61.4l-.79.32Zm2,.4.4-.16c-.13.6-.25,1.2-.38,1.8-.43.2-.88.37-1.31.58.12-.42.23-.84.35-1.26s-.37-.5-.45-.19h0c-.17.58-.33,1.17-.49,1.75l-1,.52c.17-.65.34-1.31.5-2C17.28,17.06,18.07,16.7,18.86,16.32Zm4.38-.54a.21.21,0,0,0,.26.19c-.07.24-.13.47-.19.71a.26.26,0,0,0-.33-.31c-.5.16-1,.36-1.48.54.05-.29.09-.58.14-.86s-.43-.39-.5-.07-.16.77-.24,1.15c-.49.18-1,.38-1.44.58.11-.61.21-1.22.32-1.83C21.24,15.06,23.11,13.72,23.24,15.78Zm4.11,3.48c-.13.76-.27,1.51-.41,2.27q-1,.33-2.07.69l.33-2.57a.19.19,0,0,0,.15,0h0C26,19.57,26.69,19.42,27.35,19.26ZM21.69,53.33l-1.45-.63,1.55-.81C21.76,52.37,21.72,52.85,21.69,53.33Zm-1.75-1a.21.21,0,0,0-.12.17l-1.33-.58c.22-2.47.46-4.93.78-7.37.43-.14.86-.29,1.28-.47-.3,1.7-.56,3.41-.77,5.12l-.9.39a.25.25,0,0,0,.19.47h0l.64-.28c-.06.58-.13,1.16-.19,1.73a.24.24,0,0,0,.22.26A.25.25,0,0,0,20,51.6c.12-.69.23-1.38.35-2.07l1.73-.76c-.09.87-.17,1.74-.24,2.62ZM13.7,53.48a.24.24,0,0,0-.31,0h0c-1.21,1.08-2-1.79-2.59-2.92,0-.42,0-.85,0-1.27l1.27-.82c0,.72,0,1.44.1,2.16l-.75.44c-.25.16,0,.52.29.37h0l.5-.29c0,.46.08.93.13,1.39a.2.2,0,0,0,.23.16.2.2,0,0,0,.17-.21c0-.54-.05-1.08-.07-1.62l1.26-.74c0,.63,0,1.27-.05,1.91,0,.28.44.36.45.06.06-.77.11-1.55.17-2.32.6-.36,1.2-.72,1.8-1.1-.09.77-.16,1.55-.25,2.32a2.91,2.91,0,0,0-.31,0C14.31,51,14.32,52.8,13.7,53.48ZM10.28,50a2.69,2.69,0,0,0-.29-.16l.28-.18C10.27,49.75,10.28,49.86,10.28,50Zm.52-3.59,1.29-.83c0,.78-.05,1.56-.05,2.35l-1.27.83C10.77,47.94,10.78,47.16,10.8,46.38ZM6.51,48.64l-.22-.16a.24.24,0,0,0,.26-.21c0-.55,0-1.09,0-1.63l1.61-1.06c0,.63,0,1.26.07,1.89L6.55,48.58S6.53,48.62,6.51,48.64Zm-3.69.8c0-.11,0-.21,0-.32L4.51,48v.14c0,.24.42.24.42,0s0-.28,0-.43L6.05,47c0,.43,0,.85,0,1.28a.19.19,0,0,0,0,.1,1.13,1.13,0,0,0-.63-.14C5.06,48.26,3.47,49.46,2.82,49.44Zm-.37-11.2.41-.35c-.1.69-.18,1.37-.26,2.06l-.28.2C2.35,39.51,2.39,38.87,2.45,38.24Zm2.48-7.92a.91.91,0,0,0-.16.11c.17-.74.34-1.48.53-2.22.32-.25.65-.48,1-.72-.32,1.64-.61,3.28-.85,4.94l-1.27.81c.14-.7.28-1.39.43-2.09.21-.15.42-.3.62-.47S5.18,30.16,4.93,30.32Zm1.85-7.15c.18-.12.36-.22.54-.33-.16.65-.31,1.3-.46,1.95l-.75.51C6.32,24.58,6.55,23.87,6.78,23.17Zm2.69-4.53h.06l-.42,1.28c-.2.13-.41.26-.61.41.07-.21.14-.41.2-.61C9,19.36,9.21,19,9.47,18.64ZM8.22,21.2c.21-.18.43-.35.65-.52-.09.27-.16.53-.25.8L8,21.81Zm2.3-.65c-.45.2-.89.4-1.33.62.09-.3.19-.6.28-.89a10.9,10.9,0,0,1,1.26-.67Zm11.56,5.81c.19-1,.36-1.92.54-2.88L24.25,23c-.21,1.48-.41,3-.61,4.45-.47.17-.94.35-1.4.55.05-.45.11-.89.15-1.35A.24.24,0,0,0,22.08,26.36Zm1.5,1.52c-.12,1-.24,1.92-.35,2.89l-1.61.85c.22-1,.41-2.08.55-3.13C22.64,28.27,23.11,28.07,23.58,27.88Zm-2.45,4-1.44.78c-.21.11-.07.46.15.35h0c.39-.22.79-.43,1.19-.64-.09.42-.18.85-.28,1.26-.05.25.32.29.39.06.14-.53.26-1,.38-1.58l1.67-.89a.21.21,0,0,0,.16.18c-.23.88-.45,1.76-.67,2.65L18.36,36.2l.24-2.07h0a.22.22,0,0,0,.24-.18c.22-1.38.42-2.75.63-4.12.71-.4,1.44-.77,2.17-1.11C21.52,29.78,21.34,30.84,21.13,31.88Zm-1.44,9.73c.09-.55.19-1.1.28-1.65l1.53-.73c-.12.54-.24,1.08-.35,1.62ZM21,41.46c-.14.67-.27,1.35-.39,2-.43.19-.87.36-1.31.52.08-.6.17-1.21.26-1.81ZM17.82,41l1.57-.75q-.18.84-.33,1.71l-1.43.74C17.69,42.12,17.76,41.56,17.82,41Zm2.27-1.69q.19-1,.42-2.07c.07-.3-.39-.35-.46-.07h0c-.18.81-.36,1.61-.53,2.43l-1.63.81c.14-1.23.28-2.46.41-3.69,1.42-.7,2.84-1.4,4.25-2.12-.31,1.31-.62,2.62-.91,3.94Zm-1.43-8a.22.22,0,0,0-.21.18h0q-.3,2.48-.63,4.95l-.33.17c-.24.12-.08.52.16.4h0l.11-.05c-.16,1.24-.33,2.49-.49,3.73l-1,.48c-.28.13-.1.57.18.43h0l.72-.34c-.31,2.38-.61,4.75-.89,7.13a.17.17,0,0,0-.22-.07l-1.57.91c.07-.85.13-1.7.21-2.55l.39-.26c.22-.16,0-.47-.25-.33l-.09,0c.39-4.49.92-8.95,1.75-13.41.11-.44.2-.89.29-1.33.64-.41,1.28-.81,1.94-1.19C18.72,30.6,18.69,31,18.66,31.34ZM12.61,48.11l1.45-1c-.06.81-.11,1.63-.14,2.44l-1.28.76C12.62,49.6,12.61,48.85,12.61,48.11ZM13,41.83l-.08.05c.12-1.05.28-2.1.48-3.16.05-.27-.36-.32-.41-.06h0c-.26,1.18-.47,2.37-.63,3.56l-1.46.92q.08-1.26.18-2.52a1.76,1.76,0,0,1,.2-.09.2.2,0,0,0-.15-.37h0c.17-2,.41-3.92.71-5.86l1.24-.7c.21-.12,0-.48-.22-.37L12,33.7c.18-1.11.38-2.23.6-3.34a.18.18,0,0,0,.21,0h0l1.78-1a8.61,8.61,0,0,0-.25,2.26c0,.23.4.23.4,0a9.59,9.59,0,0,1,.37-2.55l1.78-1c-.31,1.67-.6,3.35-.86,5h0a117.69,117.69,0,0,0-1.9,13.49l-1.49.94c0-1.71.1-3.41.28-5.12l.38-.26C13.48,42,13.24,41.7,13,41.83ZM6.62,46c0-.88.07-1.77.12-2.65h0a16.59,16.59,0,0,1,1.51-1.14c0,.91-.08,1.83-.08,2.74C7.67,45.28,7.14,45.63,6.62,46Zm1-23.35.77-.44c-.17.55-.35,1.11-.52,1.67a.19.19,0,0,0,.06.2c-.17.11-.34.22-.5.34.11-.52.21-1,.33-1.54A.18.18,0,0,0,7.63,22.64Zm1.22,1.49c-.1.41-.21.83-.31,1.25-.51.25-1,.54-1.49.83.07-.37.16-.74.24-1.12C7.81,24.77,8.33,24.46,8.85,24.13Zm.41,4.09h0l.84-.51c-.1.66-.22,1.31-.32,2l-1.66,1c.27-1.66.56-3.31.9-5,.51-.27,1-.53,1.55-.76-.13.72-.25,1.44-.38,2.16L9,27.87C8.74,28,9,28.37,9.26,28.22Zm3.5-2.11a.2.2,0,0,0,.28-.06c-.69,2.62-1.24,5.28-1.68,8l-.16.08a.27.27,0,0,0,.06.5q-.45,2.89-.69,5.82a14,14,0,0,0-1.7.82q.08-1.18.18-2.37l.3-.22c.21-.15,0-.46-.25-.32.07-.67.17-1.34.26-2l1.44-1c.22-.16,0-.48-.25-.34-.38.24-.75.5-1.12.75,0-.2.05-.4.08-.6s-.37-.33-.42,0h0c-.06.32-.09.65-.15,1l-1.7,1.16c.1-.9.2-1.8.32-2.7.61-.36,1.24-.69,1.88-1a.22.22,0,0,0,.1-.3.23.23,0,0,0-.28-.11c-.55.24-1.08.51-1.61.78.11-.81.22-1.63.35-2.44,1.45-.91,2.9-1.82,4.31-2.79.2-.13,0-.48-.21-.36-.62.35-1.23.73-1.84,1.1.13-.67.25-1.33.38-2Zm2.68.86a.21.21,0,0,0,.2-.16c.13-.66.27-1.31.41-2L17.64,24c-.22,1.12-.44,2.25-.65,3.37-.55.3-1.1.59-1.65.9,0,0,0-.09.05-.13a.23.23,0,0,0-.11-.28A.22.22,0,0,0,15,28h0c-.09.2-.16.41-.23.61l-2.1,1.21c.26-1.28.54-2.56.86-3.83a.17.17,0,0,0,.21,0l1.79-.92c-.1.55-.21,1.09-.3,1.65A.21.21,0,0,0,15.44,27ZM6.94,40.39l1.57-1.14c-.08.78-.16,1.55-.2,2.34a13.2,13.2,0,0,0-1.54,1.16C6.82,42,6.88,41.18,6.94,40.39Zm.23-2.58,1.68-1.14c-.1.68-.21,1.35-.29,2L7,39.81Zm3.48-13.27a.19.19,0,0,0-.13,0l-.33.13c.13-.56.25-1.12.37-1.68l.42-.27Zm-1,.33-.52.23c.09-.46.2-.92.3-1.37l.5-.34C9.87,23.88,9.77,24.38,9.68,24.87ZM8.39,26.12q-.56,2.5-1,5L6.07,32c.23-1.66.51-3.32.83-5C7.38,26.71,7.88,26.41,8.39,26.12ZM7.28,31.88c-.12.79-.23,1.59-.34,2.39-.42.24-.84.48-1.24.75.08-.78.18-1.56.28-2.34ZM6.84,35c-.11.92-.21,1.83-.3,2.75l-.2.13a.21.21,0,0,0,.14.38c-.06.69-.11,1.38-.16,2.07l-1.14.81c.11-1.79.25-3.57.44-5.35C6,35.46,6.43,35.21,6.84,35Zm-.57,5.93c-.12,1.82-.19,3.65-.21,5.48L5,47.11c0-1.82.09-3.63.19-5.43Zm2.55.94a16.44,16.44,0,0,1,1.7-.92c-.07.87-.12,1.74-.16,2.62L8.74,44.58C8.75,43.66,8.77,42.74,8.82,41.82Zm8.13-11c.23-1.06.46-2.13.67-3.2l.7-.41c.23-.14,0-.53-.24-.4l-.33.18c.21-1.12.43-2.24.64-3.36l1.39-.74c-.38,2.25-.72,4.51-1,6.78C18.18,30,17.56,30.42,17,30.82ZM18.5,23c.12-.67.24-1.35.37-2A.22.22,0,0,0,19,21h0q.61-.41,1.26-.78c-.14.71-.25,1.42-.38,2.13ZM19,20.43c.13-.72.26-1.43.38-2.15l1.43-.59c-.14.61-.27,1.23-.39,1.85C19.9,19.82,19.43,20.12,19,20.43Zm-1.2,3-1.58.83c.17-.79.35-1.58.53-2.36l.19-.12a.2.2,0,0,0-.07-.35c.18-.75.37-1.49.56-2.23.45-.22.91-.42,1.37-.62C18.43,20.15,18.1,21.77,17.77,23.39Zm-1.51-1.72-1.08.71c.21-.8.43-1.6.64-2.4.32-.18.65-.34,1-.51C16.61,20.2,16.43,20.93,16.26,21.67Zm-1.63,1.07-.36.24c-.22.14,0,.44.21.36-.13.54-.27,1.08-.39,1.62-.05.21.31.32.37.11.19-.68.36-1.37.55-2.05l1.12-.76c-.17.75-.33,1.49-.48,2.24l-1.78.94c.18-.13,0-.41-.24-.29l-.4.23c.37-1.51.72-3,1-4.54.32-.18.63-.39,1-.57C15,21.09,14.83,21.92,14.63,22.74Zm-1.89,2.93-2,1.17.75-4.18a.2.2,0,0,0-.1-.22l.52-.35c-.16.68-.32,1.36-.47,2-.06.25.33.3.4.05.2-.8.4-1.6.59-2.4a.23.23,0,0,0,.25,0h0c.31-.2.62-.37.93-.56C13.3,22.71,13,24.19,12.74,25.67Zm-.68-4.2c-.45.27-.9.56-1.35.84.1-.48.21-1,.3-1.44.44-.2.89-.38,1.33-.56C12.25,20.7,12.15,21.08,12.06,21.47Zm-2,1.22L9.63,23c.06-.28.12-.57.19-.86s-.38-.34-.46-.06h0c-.11.43-.21.86-.32,1.29l-.71.46c.21-.64.42-1.28.62-1.91.48-.26,1-.5,1.44-.73C10.29,21.67,10.2,22.18,10.1,22.69ZM6.71,25.45c-.09.38-.17.75-.24,1.13-.31.2-.6.41-.89.62.11-.42.23-.84.35-1.26ZM5.35,33.07c-.11.8-.22,1.6-.31,2.4-.5.35-1,.71-1.47,1.1.14-.9.3-1.8.47-2.69ZM5,36.21c-.18,1.77-.32,3.55-.4,5.33L2.81,42.81c.07-.86.16-1.71.26-2.56.43-.32.85-.63,1.26-1a.23.23,0,1,0-.28-.37c-.31.21-.6.43-.9.64.09-.72.19-1.45.3-2.17C3.94,37,4.45,36.59,5,36.21ZM2.3,40.67a.24.24,0,0,0,.22,0c-.09.84-.16,1.69-.23,2.54C2.27,42.36,2.28,41.51,2.3,40.67Zm.25,6.6,0-.93a.18.18,0,0,0,.15-.09h0c.28-.38.55-.77.81-1.16a.22.22,0,0,0-.06-.31.22.22,0,0,0-.3,0l-.57.75c0-.74.1-1.47.16-2.2L4.55,42.1c-.07,1.77-.08,3.54,0,5.31l-1.78,1.2C2.66,48.16,2.6,47.72,2.55,47.27Zm6.17-2,1.6-1.05c0,.67,0,1.35-.06,2l-1.5.95C8.74,46.52,8.72,45.88,8.72,45.24Zm2.18-1.45c.48-.32.95-.66,1.43-1-.1.79-.17,1.59-.22,2.38a.2.2,0,0,0-.2,0c-.37.22-.73.46-1.1.69C10.83,45.17,10.86,44.48,10.9,43.79Zm6.67-.61h.07L19,42.52c-.1.57-.2,1.14-.29,1.72l-.37.13c-.3.09-.12.54.18.45h0l.11,0a59.24,59.24,0,0,0-.67,6.9,11.18,11.18,0,0,0-1.35-.57Q17.1,47.16,17.57,43.18Zm2.87,5.75c.18-1,.35-2,.53-3l1.5-.56c-.13,1-.24,1.93-.35,2.89Zm2.1-4.09-1.48.52.27-1.58A16.12,16.12,0,0,0,22.81,43C22.71,43.61,22.62,44.22,22.54,44.84Zm-1.09-1.73.36-2,1.43-.74q-.18,1-.33,2C22.43,42.61,21.94,42.87,21.45,43.11Zm.48-2.67c.1-.52.2-1,.29-1.56l1.4-.67c-.1.5-.18,1-.27,1.5Zm.43-2.27c.25-1.3.52-2.59.8-3.89l.42-.21c.24-.12.09-.49-.15-.38l-.16.07c.22-1,.44-2,.68-2.94l1.39-.74q-.86,3.68-1.58,7.4ZM25.61,29l0,0c0,.16-.07.33-.11.49L24,30.33a.2.2,0,0,0-.29-.14c.13-.84.26-1.69.38-2.54l.9-.35c.23-.09.08-.44-.16-.36s-.44.17-.67.25c.21-1.47.4-2.94.59-4.41l2-.65C26.4,24.42,26,26.73,25.61,29ZM24.33,22.4l-1.61.54c.28-1.47.57-3,.84-4.43.46-.19.93-.37,1.4-.54Zm-2.71,4a.22.22,0,0,0,.19.24.12.12,0,0,0,.1,0c-.05.52-.11,1-.17,1.55-.74.33-1.46.69-2.17,1.07l1-6.8c.33-.17.66-.34,1-.52s.08-.5-.16-.38l-.74.37c.12-.72.23-1.44.35-2.16.58-.32,1.17-.62,1.78-.9A62.52,62.52,0,0,0,21.62,26.42Zm-.5-7.28c.09-.56.19-1.12.28-1.68.59-.22,1.18-.44,1.77-.64a.24.24,0,0,0,.14-.12c-.14.53-.27,1.06-.39,1.58C22.31,18.54,21.71,18.83,21.12,19.14Zm-5.73.52-1,.56.45-2.16,1.06-.43C15.75,18.31,15.57,19,15.39,19.66Zm-1.65,1-.88.53a.23.23,0,0,0-.25,0l0,0,.57-2.41,1.11-.44C14.09,19.07,13.91,19.84,13.74,20.62Zm-1.35-2.11a.24.24,0,0,0-.12.32.25.25,0,0,0,.31.13h0l.1-.05c-.07.31-.15.62-.22.93a.11.11,0,0,0-.08,0c-.42.14-.84.31-1.26.47.13-.65.26-1.3.38-1.95a10.29,10.29,0,0,0,3.2-2c-.1.41-.19.82-.28,1.23Zm-1.55.6a9.89,9.89,0,0,0-1.16.5l.31-1a5.38,5.38,0,0,0,1-.14C10.93,18.7,10.88,18.91,10.84,19.11Zm-3,2.08c-.07.24-.15.47-.22.71a.24.24,0,0,0,0,.15l-.48.31c.22-.4.44-.8.67-1.19ZM5.5,25.7l0,0a1.39,1.39,0,0,0,.06-.13Zm-.28.67.11-.06-.4,1.39L4.6,28C4.79,27.44,5,26.91,5.22,26.37Zm-1,2.77.42-.37c-.18.69-.34,1.38-.5,2.08l-.51.35C3.82,30.51,4,29.82,4.23,29.14ZM3.44,32,4,31.62c-.15.66-.27,1.33-.39,2L3,34C3.15,33.31,3.28,32.65,3.44,32Zm-.53,2.55h0l.51-.32c-.17.95-.33,1.9-.47,2.85-.16.14-.32.27-.47.42C2.61,36.52,2.74,35.54,2.91,34.56Zm30-26.11.61-.26c0,.57,0,1.13-.05,1.69l-.56.19c-.28.1-.1.54.18.44h0l.38-.13c0,.37,0,.75,0,1.12s.39.23.41,0c0-.43.07-.86.1-1.29l.78-.27c-.1.9-.2,1.81-.27,2.71-.86-.68-1.82-.67-1.81-2.59C32.65,9.51,32.88,9,32.88,8.45ZM30.51,3.84l0,.23-1.32.54a.7.7,0,0,1,0-.28C29.58,4.15,30,4,30.51,3.84Zm-.09.78c0,.41-.06.81-.06,1.22A5.53,5.53,0,0,1,29.43,5Zm5.79,1.82a.24.24,0,0,0-.22.17l-.44.18L35.64,6a.24.24,0,0,0-.22-.25.23.23,0,0,0-.25.19h0L35.05,7l-1,.4c0-.65,0-1.3.05-1.95.35-.15.7-.29,1-.45A2.19,2.19,0,0,1,36.21,6.44Zm.32.86c0,.52,0,1,0,1.55l-1.19.4c.07-.65.13-1.29.2-1.94L36.3,7l.08,0a.3.3,0,0,0,.17.08l.11,0a.17.17,0,0,0-.13.17ZM34.77,9.43,34,9.7l.09-1.76.92-.4C34.91,8.17,34.84,8.8,34.77,9.43Zm-.63-4.52V4.65a2.6,2.6,0,0,1,.4.1Zm-.49.19-1.2.48c0-.31,0-.61,0-.92a5.93,5.93,0,0,1,1.19,0ZM32.08,3.94a1.43,1.43,0,0,0-.23.2.36.36,0,0,0,.06.5s.08,0,.11,0C32,5,32,5.41,32,5.78l-1.07.45-.1-.07A17.41,17.41,0,0,0,31,4.4l1.14-.48ZM32,6.37c0,.19,0,.39,0,.58l-.52-.37Zm.82,1.46a1.68,1.68,0,0,0-.44-.54h0c0-.36,0-.73.07-1.1l1.2-.49c0,.65-.08,1.31-.1,2l-.7.31A.74.74,0,0,0,32.77,7.83ZM45.23,20.14c-.26,0-.52.06-.78.09,0-1.05,0-2.1,0-3.16a.18.18,0,0,0-.07-.15l.06,0A5.12,5.12,0,0,1,46,19l-.24,2.55-1.3.38c0-.41,0-.81,0-1.22l.84-.14a.23.23,0,0,0,.18-.27A.22.22,0,0,0,45.23,20.14Zm-4.54-.49L42,19.28c0,.51-.05,1-.07,1.54a13,13,0,0,0-1.3.52C40.68,20.78,40.69,20.21,40.69,19.65Zm0-.42c0-.46,0-.93,0-1.4l1.4-.35c0,.46,0,.92,0,1.39Zm2-.12,1.25-.35,0,1.55c-.43.08-.86.18-1.28.3C42.6,20.11,42.64,19.61,42.64,19.11Zm1.29-2h0c0,.41,0,.81,0,1.22l-1.26.34c0-.45,0-.91,0-1.37h0c.19,0,.15-.32,0-.39,0-.22,0-.45,0-.67a2.83,2.83,0,0,1,1.72.63A.27.27,0,0,0,43.93,17.14ZM42.06,17l-1.41.33c0-.58-.07-1.17-.11-1.75l.27-.08a6.64,6.64,0,0,0,.94.48,2.3,2.3,0,0,0,.33.15C42.07,16.44,42.07,16.73,42.06,17Zm-2,.47-1.42.35c0-.57.06-1.15.08-1.72L40,15.75Q40.06,16.62,40.07,17.49Zm0-3.2a.22.22,0,0,0-.12.22c0,.27,0,.55,0,.82l-1.23.34c0-.71,0-1.41,0-2.12l1.1-.23A5.17,5.17,0,0,0,40.06,14.29ZM37.55,44.07c-.42.14-.83.28-1.25.44.08-.62.15-1.24.22-1.86l1.3-.55C37.74,42.75,37.64,43.41,37.55,44.07ZM35,51s-.07,0-.1,0c-.62.33-1.24.65-1.87.95.18-.87.35-1.74.52-2.61.58-.33,1.15-.68,1.71-1C35.14,49.22,35.05,50.12,35,51Zm-2,6.16c-.46.3-.93.59-1.4.88.1-.78.21-1.55.3-2.33.46-.25.92-.49,1.37-.75C33.09,55.7,33,56.43,32.92,57.17ZM28.67,67.79l.84-.6c-.05.54-.12,1.07-.17,1.6C29.13,68.46,28.9,68.13,28.67,67.79Zm-.2-2.42,1.33-.82c-.09.7-.15,1.41-.23,2.11l-1.13.8-.35-.52C28.22,66.42,28.35,65.89,28.47,65.37Zm-.8.92c-.07-.11-.12-.21-.18-.32l.27-.17ZM29.87,64h0c-.42.24-.83.5-1.25.75q.57-2.58,1-5.18c.34-.19.68-.37,1-.57C30.34,60.71,30.09,62.38,29.87,64Zm-.21-4.94c.13-.81.24-1.62.34-2.43.36-.18.73-.36,1.08-.55l-.39,2.41C30.35,58.72,30,58.92,29.66,59.1Zm3-7-.41.19.18-1.45a.24.24,0,0,0-.22-.25.24.24,0,0,0-.25.19h0c-.09.59-.2,1.18-.3,1.77q-.63.28-1.29.54c.07-.72.12-1.44.17-2.16.78-.38,1.55-.79,2.31-1.22l-.3,2.19A.18.18,0,0,0,32.67,52.12Zm-1.09,1c-.14.8-.27,1.6-.41,2.4-.36.2-.73.38-1.1.57.1-.82.19-1.64.27-2.47C30.75,53.5,31.17,53.34,31.58,53.16Zm-2.33,3.4-1.4.68v0l.33-2.77c.49-.15,1-.31,1.45-.48C29.5,54.82,29.37,55.69,29.25,56.56Zm-1.31,1.1,1.24-.58c-.12.82-.25,1.65-.37,2.47l-1.18.58A4.89,4.89,0,0,0,27.94,57.66Zm4-2.49c.09-.77.19-1.53.28-2.29q.7-.32,1.38-.66c-.09.73-.2,1.46-.3,2.2Zm3.38-7.35-1.66,1c.17-1,.34-1.89.49-2.84l1.44-.58Zm-1.07-2.5c.1-.61.2-1.22.29-1.83l1.33-.55-.21,1.82Zm-.05-4.81-.39,2.71-1,.43c.13-.86.26-1.73.38-2.6Zm-.95,0c.12-.83.24-1.66.35-2.49l1-.52c-.11.83-.22,1.66-.34,2.49Zm.48,3.34c-.09.61-.17,1.22-.26,1.83l-1.08.45c.1-.62.2-1.24.29-1.85ZM31.5,72.38l1.16-.84c0,.63,0,1.27,0,1.9L31.47,74C31.48,73.48,31.5,72.93,31.5,72.38Zm1.07,1.7-.12,2.25-1.05.56c0-.74.05-1.49.06-2.23Zm2.69-1.45a4.24,4.24,0,0,1,0,.93c0,.36-.39.69-.46,1.06,0,0,0,.1,0,.15,0-.63,0-1.25.05-1.88Zm-3.19,9.84c-.35.19-.7.37-1.06.53.08-.85.14-1.7.2-2.56.34-.21.67-.43,1-.66C32.16,80.68,32.11,81.57,32.07,82.47Zm-2.52,1.1c0-.72,0-1.44,0-2.16l.94-.52q0,1.15,0,2.31s0,0,0,0c-.31.13-.62.24-.93.35Zm0-2.86c0-.71,0-1.42,0-2.14l1-.51c0,.7,0,1.39-.05,2.09Zm1.74-1.08c0-.68.06-1.36.09-2l1-.58c0,.66-.09,1.32-.13,2Zm1.94-3.08.71-.42c0,.59,0,1.19-.07,1.78l-.74.5C33.16,77.79,33.2,77.18,33.22,76.55ZM34,75.49l-.71.41c0-.73,0-1.45,0-2.18l.83-.45C34,74,34,74.75,34,75.49Zm-3.4,1.86c-.35.19-.71.37-1.07.55,0-.73-.05-1.46-.08-2.19l1.26-.64C30.61,75.83,30.58,76.59,30.55,77.35Zm-1.69,1.54c0,.72.06,1.44.09,2.17l-1,.57c.06-.73.11-1.47.16-2.2a.21.21,0,0,0-.05-.16ZM29,81.72c0,.56,0,1.12.07,1.68-.4-.13-.81-.26-1.21-.41,0-.24.05-.47.07-.71Zm4.07-2.49c.28-.2.53-.42.8-.63,0,.42,0,.85,0,1.28a2,2,0,0,0-.87.26C33,79.84,33,79.54,33.05,79.23ZM34.58,78c.17-.15.36-.28.53-.43,0,.74.13,1.47.25,2.2H35c-.18,0-.36,0-.54,0C34.49,79.24,34.54,78.63,34.58,78Zm.29-2a1.36,1.36,0,0,0,.32.36.26.26,0,0,0-.14.25h0c0,.19,0,.38,0,.57a.23.23,0,0,0-.24,0l-.24.17c0-.59.07-1.18.1-1.76h0A2.35,2.35,0,0,0,34.87,76.05Zm.29-3.87-.38.19V71.26a2.37,2.37,0,0,1,.43.92Zm-.86-1.36c-.06.62-.12,1.24-.17,1.87l-.87.42c0-.67,0-1.33,0-2L34,70.6A2.07,2.07,0,0,1,34.3,70.82Zm-1.07-.19c0-.11,0-.21,0-.31s.21.05.31.09Zm.6-16c.41-.23.81-.47,1.21-.71-.23,1.07-.44,2.14-.58,3.23a5.69,5.69,0,0,0-.92.15C33.66,56.37,33.75,55.48,33.83,54.59Zm15-31.44c0,.27,0,.54,0,.81l-1,.27c0-.36.07-.73.1-1.09l.55-.11Zm-1.45-.65a.3.3,0,0,0,.07.15v0L46.16,23l.09-1.07,1.07-.33C47.33,21.87,47.34,22.18,47.36,22.5Zm5,.26V23l-1.14.28v-.24Zm0,.87v.5l-1.17.23c0-.14,0-.28,0-.42Zm1.49.23-1,.18c0-.18,0-.37,0-.55l1-.29s0,0,.07-.07,0,.05,0,.08h0C53.89,23.43,53.88,23.65,53.89,23.86Zm1.4,3.33-.91.62c0-.74,0-1.48,0-2.21l.91-.93Q55.32,25.93,55.29,27.19Zm2.82-1.55a3.4,3.4,0,0,0,1.09.59l0,.32-1.24.82c0-.54,0-1.08,0-1.62Zm6,2.53L63,29.27c0-.68,0-1.36-.08-2.05l.1-.08a.22.22,0,0,0,0-.3.19.19,0,0,0-.15-.07c0-.3,0-.61,0-.91,0-.1-.09-.14-.17-.16a5.22,5.22,0,0,0,1.12-1C64,25.87,64.06,27,64.09,28.17Zm-3,19a.2.2,0,0,0-.3,0l-.56.4c.15-1,.28-2,.42-3l0,0a.15.15,0,0,0,0-.21c.09-.72.19-1.43.29-2.15a.21.21,0,0,0-.19-.23.22.22,0,0,0-.24.17h0c-.12.79-.25,1.58-.38,2.37L59,45.7c-.19.18.14.44.32.25h0c.26-.26.51-.53.76-.79-.15.94-.3,1.87-.44,2.81l-1.69,1.26c.43-2.13.76-4.29,1.12-6.43.32-.28.65-.54,1-.82s0-.51-.25-.34l-.6.48,0-.07c.05-.32-.44-.38-.5-.07h0l-.12.63c-.33.26-.65.53-1,.78.07-.37.15-.74.21-1.11l1.84-1.71,0,.28a.21.21,0,0,0,.19.23.21.21,0,0,0,.23-.17l.09-.79c.56-.52,1.11-1.06,1.65-1.58q-.27,6.08-1,12.11c-.4.3-.8.58-1.19.88.19-1.12.37-2.25.54-3.38l.91-.7A.22.22,0,0,0,61.12,47.15Zm-4.91-.09h0c-.48.28-.93.59-1.38.91.21-.77.41-1.54.59-2.31.43-.31.86-.62,1.27-.94C56.53,45.51,56.37,46.28,56.21,47.06Zm-.63-2.15c.21-.91.4-1.82.59-2.74l1.11-.81c-.15.88-.31,1.75-.47,2.62C56.4,44.29,56,44.61,55.58,44.91Zm-6.11-1.55a.24.24,0,0,0,.35.13h0c.36-.2.7-.42,1-.63-.15.9-.31,1.8-.49,2.7a.33.33,0,0,0-.15,0,8.42,8.42,0,0,0-1,.14.26.26,0,0,0-.14.09C49.22,45,49.35,44.16,49.47,43.36Zm2.05-.91c.48-.31,1-.64,1.42-1-.1.83-.21,1.66-.32,2.49L51,45.14C51.17,44.25,51.35,43.35,51.52,42.45ZM53,27l.94-.94c0,.69,0,1.37,0,2.05-.3.2-.61.39-.92.58C53,28.15,53,27.59,53,27Zm.9,1.72c0,.47,0,.94,0,1.41l-.24.17c-.21.13,0,.43.22.33-.09,2.27-.24,4.55-.44,6.82-.38.33-.77.66-1.17,1a84.48,84.48,0,0,0,.75-9.13Zm3.48-.45q-.11,1.55-.24,3.09l-1.33,1.09h0c0-.61.08-1.21.11-1.81,0-.28-.42-.34-.44-.06-.13,1.93-.33,3.83-.56,5.72a.2.2,0,0,0-.27,0l-.63.6c.18-2.21.31-4.41.38-6.62Zm2.8-1.9h.19c0,.8,0,1.6,0,2.4l-.8.63c.06-.9.12-1.8.17-2.7ZM55.45,38.83l-.28.23c.07-.56.13-1.12.19-1.67l1.14-.82q-.37,2.66-.86,5.29l-.94.64c.14-.92.28-1.85.4-2.78l.61-.54C55.91,39,55.67,38.65,55.45,38.83Zm-1.57-1.14c.32-.31.63-.63.93-.95l-.06.44-.09.06a.24.24,0,0,0,0,.4c-.09.68-.16,1.35-.26,2l-.81.64C53.72,39.43,53.8,38.56,53.88,37.69Zm1.85-4.88a.23.23,0,0,0,.33,0h0l1-.77c-.13,1.28-.27,2.55-.44,3.81l-1.16.8C55.55,35.4,55.65,34.1,55.73,32.81Zm1.51,2.8c.17-1.35.31-2.69.42-4l1.11-.89c-.3,2.73-.67,5.45-1.09,8.16-.34.25-.68.51-1,.75.2-1.17.38-2.36.53-3.54l.11-.08A.21.21,0,0,0,57.24,35.61Zm-.71,4.65c.36-.24.7-.51,1-.76l-.21,1.31a.24.24,0,0,0-.14,0l-.92.59C56.38,41,56.46,40.65,56.53,40.26Zm1.85-1.34c.5-.39,1-.81,1.47-1.22-.05.73-.11,1.46-.16,2.19L58,41.54C58.1,40.67,58.24,39.79,58.38,38.92Zm.11-.7c.23-1.48.41-3,.58-4.45a.23.23,0,0,0,.28,0h0l.78-.81c-.07,1.37-.14,2.74-.24,4.12C59.44,37.44,59,37.84,58.49,38.22Zm.63-4.88q.16-1.59.3-3.18l.84-.7c0,.94-.06,1.87-.1,2.8Zm-.27-3.41-1.12.92c.07-1,.13-2,.17-2.94l1.23-.84C59,28,59,29,58.85,29.93Zm-5.56,8.29q-.12,1.26-.27,2.52c-.44.34-.9.66-1.36,1,.15-.84.28-1.68.41-2.53C52.49,38.88,52.89,38.56,53.29,38.22ZM53.53,41l.79-.61L53.93,43l-.73.52C53.32,42.7,53.43,41.86,53.53,41Zm.29,2.78-.42,2.66c-.24.17-.49.33-.74.49.15-.89.3-1.78.43-2.68Zm.75-.51.93-.63c-.18.91-.37,1.81-.56,2.71l-.88.63C54.25,45.09,54.41,44.19,54.57,43.28Zm5.64-3.88c.1-.75.2-1.49.28-2.24.48-.44.94-.9,1.4-1.36,0,.71-.06,1.43-.09,2.14Zm.33-2.93c.13-1.43.22-2.85.28-4.28l1.68-1.76c0,1.32.1,2.63.15,4C62,35.1,61.27,35.8,60.54,36.47Zm.31-4.92c0-.88,0-1.75,0-2.62q.78-.63,1.56-1.29c0,.74,0,1.47,0,2.2Zm1.62-5.69h0c0,.4,0,.81,0,1.21-.53.4-1,.82-1.56,1.23,0-.65,0-1.3,0-1.95a4.31,4.31,0,0,0,1.59-.51S62.47,25.85,62.47,25.86Zm-5.1,1.89-1.71,1.14c.07-.49.12-1,.16-1.48.55-.4,1.1-.81,1.63-1.24C57.43,26.69,57.4,27.22,57.37,27.75Zm-2.15,1.44-.87.59c0-.46,0-.92,0-1.38l.9-.59c0,.46,0,.92-.05,1.37Zm-1.33-3.74-.94,1c0-.61,0-1.22,0-1.84l1-.2Zm-3.11-1-1.39.28a.21.21,0,0,0-.11.07c0-.12,0-.25,0-.37l1.53-.38C50.79,24.19,50.78,24.32,50.78,24.45ZM52,47.92l0,.21-.26,0Zm.53-.33.75-.48c-.06.35-.11.69-.16,1,0,0,0,0,0,.07l-.7-.06C52.48,48,52.51,47.78,52.55,47.59Zm1,.62c.12-.49.23-1,.34-1.48l.89-.62c-.17.74-.35,1.49-.53,2.23-.24,0-.48-.07-.73-.09Zm2.53-.47c-.07.34-.14.67-.22,1a3.85,3.85,0,0,0-.79-.26C55.41,48.25,55.75,48,56.08,47.74ZM57.77,50c.59-.43,1.18-.87,1.76-1.32-.16,1.1-.31,2.2-.44,3.3l-.77.59a5.05,5.05,0,0,0-.66-2C57.7,50.31,57.74,50.14,57.77,50Zm8.84-30.23-.09,2.48-.1.1c-.09.11,0,.22.09.26,0,1-.08,2-.11,3l-.73,1.05c0-1.73,0-3.46-.06-5.18.11-.31.22-.62.31-.93ZM62.82,6.86a.24.24,0,0,0,.11-.19c0-.23-.07-.46-.1-.69l1,.53c0,.46.06.91.11,1.35Zm-.35-.3c-.69-.59-1.38-1.17-2.1-1.72.66.28,1.31.57,2,.89C62.37,6,62.41,6.28,62.47,6.56Zm1.87.21c.28.15.55.32.83.48A5.28,5.28,0,0,0,65.27,9l-.53-.45-.38-.33a.22.22,0,0,0,0-.14C64.4,7.63,64.37,7.2,64.34,6.77Zm1.54,2.75a6,6,0,0,1-.26-2l.7.42s0,0,0,0h0a5.25,5.25,0,0,0,.58,2.58A10.7,10.7,0,0,0,65.88,9.52Zm1.5,1.71c.15,0,.31-.13.22-.29a6.54,6.54,0,0,1-.79-2.69l1.29.85a.25.25,0,0,0-.15,0,.24.24,0,0,0-.2.27c.06.51.13,1,.2,1.52a6.57,6.57,0,0,1-.4.62A2.2,2.2,0,0,0,67.38,11.23Zm5.41,1.57-.3.68c0-.34-.1-.68-.16-1a.2.2,0,0,0-.23-.15.19.19,0,0,0-.15.2h0c0,.61.08,1.22.12,1.83l-.47.91c0-.72-.08-1.44-.13-2.16.19-.31.39-.62.57-.94C72.29,12.37,72.55,12.58,72.79,12.8Zm.41.37c.06.81.12,1.63.17,2.44l-.54.76c-.06-.73-.13-1.45-.23-2.17q.27-.55.51-1.11Zm1.86,4.27c0,1,0,2,0,3-.35.61-.7,1.21-1.06,1.81.06-.94.09-1.88.09-2.81Q74.6,18.46,75.06,17.44Zm5.38,4.24a7.37,7.37,0,0,1-.19,1.4c-.06.26.33.3.39.06a6.57,6.57,0,0,0,.16-.77c.24.46.46.92.67,1.38-.58-.15-1.23-.3-1.91-.44,0-.52,0-1,0-1.54l.55-.63Zm-4.92.63,1.07-1.42c0,.65,0,1.3,0,2a.21.21,0,0,0,0,.11A7.78,7.78,0,0,0,75.5,23C75.51,22.79,75.51,22.55,75.52,22.31ZM77,22.9l0-.28.06,0h0l.8-.93c0,.44,0,.88,0,1.32l0,.06q-.47,0-.93-.06A.1.1,0,0,0,77,22.9Zm2.12-1.23-.67.75c0-.47,0-.94,0-1.41.24-.28.47-.57.7-.85C79.11,20.66,79.1,21.17,79.1,21.67Zm0,.66v.89l-.68-.11Zm.5-1.22v-.95l.33.59Zm-.49-1.44a.2.2,0,0,0-.2.06c-.18.19-.36.4-.53.6,0-.79-.07-1.58-.1-2.37.28.46.56.91.83,1.37Zm-1.27-1.78c0,1,0,2,0,3.05l-.78.93q.06-.89.09-1.77l.44-.61a.2.2,0,0,0,0-.28.19.19,0,0,0-.26,0l-.12.15c0-.74,0-1.47-.05-2.2l.48.53A.49.49,0,0,0,77.85,17.89ZM76.6,20.15l-1,1.39c0-.34,0-.67,0-1,.36-.66.71-1.33,1.05-2C76.62,19.07,76.61,19.61,76.6,20.15Zm-1.53,2-.33.44c-.16.23.17.49.34.27a1.62,1.62,0,0,0,0,.22,4.36,4.36,0,0,0-1.2.41.61.61,0,0,1,0-.14c.4-.64.78-1.29,1.15-1.94C75.06,21.69,75.06,21.94,75.07,22.18ZM67.44,36.3A5.43,5.43,0,0,0,67,37.61c-.59.68-1.19,1.36-1.78,2.06,0-.62,0-1.24,0-1.85a.19.19,0,0,0,0-.11c1.08-1.07,2.11-2.18,3.11-3.33.09.15.38.13.39-.08l0-.43c.25-.29.49-.59.74-.89,0,.48-.1,1-.15,1.42A4.06,4.06,0,0,0,67.44,36.3Zm.88,6.51-.18.34c-.5.63-1,1.24-1.51,1.86l-.09-2.34a9.57,9.57,0,0,1,.92-1.5A10.25,10.25,0,0,0,68.32,42.81Zm0,8.93c0,.15.09.31.15.47a.29.29,0,0,0,.38.16c.67-.39,1.27.22,1.79,1.12a.23.23,0,0,0-.09.18h0c0,.51,0,1,0,1.53a14.28,14.28,0,0,1-1.55,3.51c-.12.22.18.47.32.25a13,13,0,0,0,1.21-2.3v1.48c-.81,1.54-1.62,3.08-2.38,4.64.38-2.69.7-5.39,1-8.08l.25-.41a.22.22,0,0,0-.17-.33c0-.43.09-.86.14-1.29a.23.23,0,0,0-.21-.24.22.22,0,0,0-.24.18l-.24,2.06-2,3.29c.09-1.06.16-2.13.21-3.2.22-.53.45-1,.67-1.59a.2.2,0,0,0-.05-.22c.25-.31.52-.6.77-.91s-.15-.43-.32-.24c-.35.36-.67.74-1,1.12,0-.69,0-1.38,0-2.07A2.64,2.64,0,0,0,68.27,51.74Zm9.15,9.45c-.11.31-.23.62-.36.92,0-.36.11-.71.16-1.07Zm-1.34,3a28.59,28.59,0,0,1-1.73,2.86c.27-1.48.5-3,.71-4.45l1.36-2.45a2.44,2.44,0,0,0,.23.33.46.46,0,0,1,.07.07C76.52,61.81,76.31,63,76.08,64.24Zm-.43,2.13a.19.19,0,0,0-.2.06h0l-.13.16c.15-.22.29-.46.43-.69Zm-9.6-3.78c.17-1.22.31-2.44.43-3.66l2-3.27c-.17,1.34-.36,2.68-.55,4a.21.21,0,0,0-.32.06h0C67.13,60.7,66.6,61.65,66.05,62.59Zm-3,4.59c.2-1.22.4-2.43.57-3.65.75-1.16,1.47-2.33,2.2-3.5-.15,1.28-.32,2.55-.52,3.83C64.56,65,63.82,66.11,63,67.18Zm2.06-2.09c-.13.8-.29,1.61-.45,2.41-.72,1.13-1.47,2.24-2.26,3.33.18-.91.33-1.83.49-2.74C63.64,67.12,64.39,66.12,65.08,65.09Zm-.46-11.61,1.73-1.64c0,.56,0,1.12-.06,1.68-.6.68-1.19,1.37-1.78,2,.06-.63.14-1.27.18-1.9A.21.21,0,0,0,64.62,53.48Zm.17-4.08,0,.06c0-.54.11-1.08.15-1.62.47-.52.92-1,1.36-1.57,0,.23,0,.45,0,.68a4.65,4.65,0,0,0-.1,2.76,3.52,3.52,0,0,0,.17.39c0,.41,0,.81,0,1.21,0,0,0,0-.08,0-.69.62-1.36,1.26-2,1.9.16-1,.31-2,.43-3,.15-.18.3-.36.44-.55S65,49.2,64.79,49.4Zm-.34,6.88,1.8-2c0,.14,0,.28,0,.42-.42.93-.83,1.88-1.21,2.83a.22.22,0,0,0,.12.28.23.23,0,0,0,.28-.11c.26-.52.49-1,.73-1.56-.06,1-.14,1.92-.24,2.87-.74,1.18-1.46,2.37-2.18,3.56C64,60.46,64.25,58.38,64.45,56.28ZM68,63.76a.2.2,0,0,0,.16-.1c.56-1,1.08-2,1.6-3l-.87,4.52c-.33.54-.66,1.08-1,1.62-.15.23.17.5.34.27s.27-.4.41-.59l-.45,2.29-1.32,1.76C67.25,68.29,67.62,66,68,63.76Zm1.42,1.57c.71-1.08,1.36-2.19,2-3.32-.21,1.17-.45,2.33-.68,3.5-.57.72-1.13,1.45-1.69,2.18C69.1,66.91,69.24,66.12,69.37,65.33Zm1.08,1.22c-.24,1.2-.5,2.4-.76,3.59-.51.76-1,1.51-1.55,2.27.22-1.19.43-2.39.64-3.59C69.34,68.07,69.9,67.31,70.45,66.55Zm-2.57,7.32c.49-.67,1-1.35,1.44-2-.23,1-.46,2.06-.7,3.08l-1.28,1.66C67.52,75.68,67.71,74.77,67.88,73.87Zm2.45-3.52c.5-.76,1-1.52,1.48-2.29-.23,1.26-.48,2.52-.74,3.77-.51.64-1,1.29-1.54,1.93C69.81,72.63,70.08,71.49,70.33,70.35Zm2.33-3.74.2-.33a.19.19,0,0,0,.17-.09c.41-.69.8-1.39,1.2-2.09C74,65.54,73.7,67,73.4,68.39c-.32.42-.65.83-1,1.22a.2.2,0,0,0,.21.32l-.71.88C72.18,69.41,72.43,68,72.66,66.61Zm3.49-6.94h0l-.91,1.65c.1-.84.21-1.68.3-2.52a2.53,2.53,0,0,1,.32.33,1.84,1.84,0,0,1,.31.52Zm-1.67,3-1.29,2.36a.19.19,0,0,0-.22.08h0l-.1.16c.12-.81.23-1.63.34-2.45a8.25,8.25,0,0,0,1.47-4.61,2.67,2.67,0,0,1,.44.23C74.94,59.88,74.72,61.29,74.48,62.69Zm-.18-4.55h0a9.25,9.25,0,0,1-.94,3.5c.13-1.09.25-2.19.35-3.29,0-.32-.47-.39-.51-.07-.16,1.54-.36,3.08-.57,4.61l-.11.16a.22.22,0,0,0,0,.3h0c-.16,1.07-.34,2.14-.52,3.21q-.67,1.05-1.35,2.07c.23-1.1.45-2.2.65-3.31l.9-1.22c.16-.22-.16-.47-.32-.26h0c-.14.17-.27.34-.4.52.23-1.32.44-2.65.64-4,.41-.84.8-1.7,1.16-2.56h0c.31.1.64.15,1,.25C74.32,58.11,74.3,58.12,74.3,58.14Zm-1.44-.49c-.13.28-.27.56-.41.85,0-.36.09-.71.14-1.07a1.7,1.7,0,0,0,.28.21Zm-1.2,2.46q-1,1.91-2,3.75l.57-3.33a.21.21,0,0,0-.29-.22c.67-1.32,1.33-2.64,2-4a6.26,6.26,0,0,0,.29.58C72,58,71.85,59.05,71.66,60.11Zm0-4.24c-.25.48-.5,1-.76,1.43,0-.75.06-1.5.08-2.25,0-.17.09-.35.13-.52.21.44.4.9.57,1.32Zm-5-9.91v-.18l.19-.24Zm.61-5.29a7.26,7.26,0,0,0-.76,1.08l0-.7c0-.27-.42-.21-.41.05h0c0,.46,0,.92,0,1.38-.11.25-.22.5-.31.76a.22.22,0,0,0,.35.24c0,.67,0,1.34.08,2-.41.49-.82,1-1.24,1.45.17-2.17.24-4.34.24-6.52.57-.64,1.13-1.29,1.69-1.93A6.3,6.3,0,0,0,67.27,40.67Zm-3.34,4.2-.4.34c.09-1.1.15-2.2.2-3.3a.23.23,0,0,0,.25-.06l.81-.92q-.08,3.33-.35,6.64c-.44.49-.89,1-1.34,1.46.14-1,.25-2.05.35-3.08.28-.25.55-.49.81-.76S64.14,44.71,63.93,44.87Zm.68-6.62a.22.22,0,0,0,.21.22c0,.57,0,1.14,0,1.71-.35.4-.69.81-1,1.21,0-.79,0-1.58,0-2.38Zm1-11.18A.17.17,0,0,0,65.9,27h0c.16-.21.32-.43.47-.65,0,.76,0,1.52-.06,2.28l-.68.65C65.65,28.55,65.65,27.81,65.66,27.07ZM67,22.27c.31-.32.61-.64.9-1,0,.73,0,1.47-.05,2.2l-.92,1.33C66.92,24,67,23.12,67,22.27Zm1.28-7.35c0-.15-.14-.19-.26-.15l0-.06a7,7,0,0,0,1.36-1.92c0,.85.07,1.71.08,2.57-.38.54-.76,1.08-1.15,1.6C68.28,16.28,68.28,15.6,68.25,14.92Zm1.21,1.23c0,.84,0,1.68,0,2.52-.36.49-.72,1-1.1,1.45,0-.82,0-1.63,0-2.44C68.7,17.18,69.09,16.67,69.46,16.15Zm1.53.17c-.26.45-.54.9-.83,1.34,0-.82,0-1.64,0-2.46.28-.41.55-.82.82-1.24C71,14.75,71,15.54,71,16.32Zm1.26,5c-.24.37-.49.74-.74,1.1.08-1.17.12-2.35.14-3.52l.59-.84C72.26,19.17,72.26,20.25,72.25,21.34Zm.3,7.32A10.59,10.59,0,0,1,72.24,32c-.31.33-.62.65-.92,1,.08-.86.11-1.73.13-2.59.22-.31.45-.6.67-.91s-.2-.57-.39-.31-.19.24-.28.37c0-.78,0-1.56-.11-2.34.22-.29.43-.58.64-.88A5.19,5.19,0,0,0,72.55,28.66Zm.39,2.66s-.07,0-.09,0l-.07.07A11.24,11.24,0,0,0,73,30.28,9,9,0,0,1,72.94,31.32Zm-5.5,3.21c.12-1,.21-1.89.3-2.83l.55-.64c0,.84-.05,1.68-.05,2.51ZM65.6,30c.24-.2.46-.4.69-.61,0,1.13-.07,2.25-.09,3.37l-.78.87Q65.54,31.76,65.6,30Zm1.16-1c.28-.26.56-.54.83-.81-.07,1.09-.15,2.18-.25,3.27l-.7.83Zm1.32-1.3.39-.38c-.06,1-.11,2-.15,3l-.48.57C67.94,29.75,68,28.69,68.08,27.63Zm2.42-.22c-.14.18-.27.37-.4.55,0-.6-.06-1.19-.13-1.79a.21.21,0,0,0-.42.06c0,.79.06,1.57.06,2.36-.23.31-.47.61-.71.91,0-.93,0-1.86,0-2.79l.4-.45,0,0c.47-.54.93-1.1,1.37-1.67C70.68,25.51,70.59,26.46,70.5,27.41ZM69.61,25c.19-1.26.33-2.52.42-3.79l1-1.36c0,1.19-.09,2.38-.16,3.56C70.43,24,70,24.5,69.61,25Zm-.57.67-.42.5s0,0-.06.06l-.42.5c.06-1,.11-2.05.14-3.08l1-1.45C69.26,23.37,69.16,24.53,69,25.69Zm-.16,4.69.72-.91c0,.87,0,1.74-.1,2.6-.24.3-.5.59-.74.89Q68.84,31.67,68.88,30.38Zm1.25-1.57c.09-.13.19-.25.29-.37a.21.21,0,0,0,.41,0c0-.22.07-.45.1-.67Q71,29,71,30.13l-.92,1.21C70.12,30.5,70.15,29.65,70.13,28.81Zm1.15-2.47c0-.06,0-.12,0-.18a.22.22,0,0,0-.08-.15q.13-1.14.24-2.31c.28-.39.54-.79.81-1.19,0,.88-.07,1.75-.12,2.62ZM71.65,18c0-.65,0-1.31,0-2,.17-.3.34-.6.5-.9,0,.69.07,1.39.09,2.08C72,17.51,71.84,17.77,71.65,18ZM71,19l-.9,1.27c0-.61,0-1.23.06-1.85.29-.42.57-.84.84-1.27C71,17.73,71,18.35,71,19Zm-1.56.42c0,.63,0,1.26-.07,1.89L68.3,22.81c0-.69,0-1.38,0-2.06C68.72,20.3,69.08,19.85,69.43,19.39Zm-1.63,5c0,1-.1,1.95-.16,2.92-.28.3-.56.61-.85.91,0-.85.06-1.69.08-2.53Zm-2.41,9.7a.2.2,0,0,0,.24,0c.19-.19.36-.39.55-.58,0,.52,0,1-.05,1.56,0,.25.39.31.4.05,0-.69,0-1.38.08-2.08.22-.23.44-.46.65-.7-.08.85-.14,1.71-.24,2.56a.2.2,0,0,0,0,.13c-.63.7-1.27,1.4-1.93,2.09C65.23,36,65.32,35,65.39,34.05ZM70,32.31c.34-.43.66-.87,1-1.31q0,1.11-.09,2.22a.25.25,0,0,0,0,.15l-.15.16c-.2.23.17.52.38.29l1.29-1.39a.16.16,0,0,0,.1-.11v0l.23-.24a3.11,3.11,0,0,1-1.69,2,6.89,6.89,0,0,1-1.37.2C69.85,33.6,69.93,33,70,32.31Zm3-2.61c0-.08,0-.16,0-.24a1,1,0,0,0,.11.17A.35.35,0,0,0,73,29.7Zm.48-6.62-.7,1.1c.09-.93.16-1.86.2-2.8.18-.29.36-.6.53-.9C73.49,21.35,73.48,22.21,73.46,23.08ZM73,20.15q0-1.5-.09-3l.51-.73c0,.95.07,1.9.08,2.85C73.32,19.57,73.15,19.86,73,20.15Zm-1.3-8.26-.28.47c0-.28-.05-.56-.08-.83l.4.34Zm-.78,1.26c-.26.43-.52.87-.8,1.29,0-1-.12-2.09-.21-3.13v0s0,0,0,0c0-.31,0-.61-.08-.91.34.25.67.52,1,.79C70.86,11.8,70.88,12.48,70.9,13.15Zm-1.59-1.43A6.37,6.37,0,0,1,68.75,13c-.07-.69-.15-1.38-.25-2.06A8.88,8.88,0,0,0,69,9.75l.41.29a.26.26,0,0,0-.18.28h0C69.27,10.78,69.28,11.25,69.31,11.72ZM68.63,9.5c-.08.2-.17.4-.26.59l-.12-.82a.22.22,0,0,0-.09-.12c.17.11.32.23.48.34Zm-.56,2.15c.09.54.17,1.09.27,1.63a.25.25,0,0,0,.12.16c-.12.17-.24.35-.37.52a4.69,4.69,0,0,0-.3-1.91C67.89,11.92,68,11.78,68.07,11.65Zm-.22,3.76c0,.7,0,1.39,0,2.09-.27.33-.53.68-.8,1l0-1.11s0-.07,0-.1A10.31,10.31,0,0,0,67.85,15.41Zm0,2.81c0,.82,0,1.64,0,2.46q-.45.53-.9,1l.06-2.46C67.34,18.9,67.61,18.56,67.88,18.22ZM61.43,73l0,.16-.07-.05Zm1.62,1.24-.09.35a.87.87,0,0,0-.08-.1Zm.29,1.16,0-.07c.24-.81.45-1.62.66-2.43l1.87-2.73c.16-.24-.19-.52-.36-.28l-1.15,1.56c.31-1.3.59-2.61.85-3.93.24-.41.49-.81.72-1.22s-.28-.43-.43-.18h0a.1.1,0,0,1,0,0c.14-.77.26-1.55.38-2.32.72-1.19,1.39-2.4,2-3.65-.58,3.87-1.25,7.73-1.92,11.6-.19.26-.38.51-.56.77a.22.22,0,0,0,.07.3.21.21,0,0,0,.27,0l0-.06-.08.42A17,17,0,0,0,63.57,76C63.48,75.8,63.41,75.58,63.34,75.36Zm3.55.38c-.13.79-.26,1.57-.38,2.36a4.5,4.5,0,0,1-1-.26C66,77.14,66.44,76.45,66.89,75.74Zm.24,1.85.08,0c.38-.46.74-.93,1.11-1.38-.16.67-.31,1.35-.48,2-.28,0-.56,0-.82,0C67.06,78,67.09,77.78,67.13,77.59Zm2.07-2.51c.54-.67,1.09-1.34,1.62-2-.29,1.36-.61,2.71-.94,4.06-.5.4-1,.78-1.54,1.15C68.64,77.21,68.92,76.15,69.2,75.08Zm1.45,1.23c.36-1.42.69-2.84,1-4.28L73,70.3c-.32,1.48-.65,3-1,4.43C71.56,75.25,71.11,75.78,70.65,76.31Zm6.11-12.26a24.21,24.21,0,0,0,1.11-2.62,2.75,2.75,0,0,0,.57.2c-.28,1.28-.56,2.56-.83,3.84a29.13,29.13,0,0,1-1.67,2.58C76.25,66.72,76.53,65.39,76.76,64.05Zm2.3-2.34a2.68,2.68,0,0,0,.4,0c-.22.54-.45,1.07-.7,1.59Zm.94.22a19,19,0,0,1-.51,3A26.25,26.25,0,0,1,78,67.32c.14-.63.27-1.26.4-1.89A24.84,24.84,0,0,0,80,61.93Zm-2.17,6a.2.2,0,0,0,.28,0c.31-.37.59-.76.86-1.15a.22.22,0,0,0,.14.2h0c-.52.81-1.06,1.59-1.63,2.35C77.6,68.81,77.72,68.36,77.83,67.9ZM80,65.05a20.45,20.45,0,0,0,1.44-3.2c.1-.29-.33-.47-.44-.19h0c-.17.45-.37.89-.57,1.33a12.5,12.5,0,0,0,.14-1.62A4.12,4.12,0,0,0,82.7,59c.11-.31-.36-.51-.46-.2h0a4.58,4.58,0,0,1-1.63,2.51,10.84,10.84,0,0,0,0-1.14h0s0,0,0,0a.41.41,0,0,0,0-.11s0,0,0,0l0-.08a.21.21,0,0,0-.27-.1.05.05,0,0,0,0,0,.26.26,0,0,0-.18.25v0c-.16.46-.34.89-.52,1.34a1.77,1.77,0,0,1-.42-.15c.1-.54.2-1.08.31-1.62.07-.36-.5-.43-.57-.07h0L78.57,61c-.16-.12-.33-.26-.49-.4a.24.24,0,0,0-.13-.13c-.74-.72-1.4-1.63-1.9-2.17-.17-.19-.23-.48-.43-.65s-.49-.27-.65-.4a2.65,2.65,0,0,1-2.23-.94.77.77,0,0,1,0-.15.22.22,0,0,0-.18-.24l-.12,0a5.51,5.51,0,0,1-.67-1.56,5.12,5.12,0,0,0-.17-1c-.43-.87-.5-1.22-1.28-1.72a1.9,1.9,0,0,0-.57-.25c.25-.19,0-.57-.27-.55a3.37,3.37,0,0,1-1-.08l-.17-.37c-.1-.26-.44-.11-.4.13-1.77-1.14-.09-5.14.83-7.26a.27.27,0,0,0,.23,0,.29.29,0,0,0,.09-.34,1.54,1.54,0,0,0-.08-.19c0-.07.07-.15.09-.21a.28.28,0,0,0-.17-.36.22.22,0,0,0-.14,0,19.79,19.79,0,0,1-.64-1.88.2.2,0,0,0-.07-.26,4.79,4.79,0,0,1,.11-3,.3.3,0,0,1,0-.08c.27-.33.56-.65.82-1a.19.19,0,0,0,0-.18c1-.75,2.25-.5,3.43-1.31,1.39-.94,1.29-2.82,1-4.3a6.41,6.41,0,0,0,.44.56.27.27,0,0,0,.38,0,.27.27,0,0,0,0-.32,9.38,9.38,0,0,1-1.63-3.19c-.36-1.89.8-3.12,2.57-3.44a9,9,0,0,1,2.7,0,.53.53,0,0,0,0,.13.21.21,0,0,0,.42,0v-.08c1.08.15,2.15.38,3.21.5a.29.29,0,0,0,.1,0c6.76,14.8,5.09,30.1-2,41.76C79.81,65.7,79.94,65.38,80,65.05ZM76.6,16.6c0,.34,0,.67,0,1,0,0,0,0,0,0q-.5,1-1,1.89c0-1.09,0-2.18,0-3.27A1.89,1.89,0,0,1,75.7,16a.24.24,0,0,0-.12-.28v-.2C75.92,15.86,76.26,16.23,76.6,16.6ZM75.09,15c0,.38,0,.75,0,1.13-.32.7-.66,1.38-1,2.06,0-.84-.07-1.68-.15-2.52.12-.17.25-.34.37-.52s-.2-.55-.38-.3a.36.36,0,0,0-.07.1c0-.45-.1-.89-.16-1.33Q74.4,14.3,75.09,15ZM54.89,2.94a26.64,26.64,0,0,0-8.36-.25.2.2,0,0,0-.17.24.21.21,0,0,0,.24.17h0A29.16,29.16,0,0,1,59.16,4.7c.66.68,1.36,1.31,2.07,1.93A26.49,26.49,0,0,0,50.44,3.9c-.32,0-.39.48-.07.49h0A30.69,30.69,0,0,1,62.69,8a.23.23,0,0,0,.18,0c.75.63,1.5,1.27,2.22,1.93A7.48,7.48,0,0,1,67,12.23c-.09.11-.18.22-.28.32s.17.53.39.31h0a.52.52,0,0,0,.1-.11,4,4,0,0,1,.15,1.73,13,13,0,0,1-1.5,3.88c-.12.27.28.51.45.27l.4-.63c0,.34,0,.69,0,1-.21.25-.44.5-.66.75a.29.29,0,0,0-.51.07h0c-.06.18-.14.39-.22.6a.16.16,0,0,0-.07.14h0v.06l0,.07-.16.18a.15.15,0,0,0,0,.22A15.67,15.67,0,0,1,64.05,23c0-.17,0-.34-.07-.5s-.5-.23-.45.06h0c.06.34.09.69.14,1-1,1.49-2.35,2.58-4,2,0-.34,0-.68,0-1s-.39-.33-.41-.06h0c0,.3-.05.59-.07.89a4.31,4.31,0,0,1-.52-.32,3,3,0,0,1-.75-.87v-.3a.24.24,0,0,0-.3-.24c-.45-.89-.8-1.8-2-2.1-.29-.07-.35.35-.14.47,1.06.61,1.26,2,1.89,3,0,.21,0,.42,0,.64l-1.63,1.18a26,26,0,0,0,0-2.65l.26-.26c.16-.17-.12-.45-.28-.29l0,0,0-.46a.24.24,0,0,0-.48.06c0,.3,0,.59,0,.89l-.91.89c0-.24,0-.48,0-.72.2,0,.4-.07.59-.12s.23-.49-.06-.45l-.53.09c0-.21,0-.42,0-.63s-.24-.23-.37-.12a.22.22,0,0,0-.24-.27l-.86.19c0-.11,0-.22,0-.33l1.58-.5c.33-.1.12-.59-.21-.49-1,.3-2,.61-3,.95-.09-.16-.37-.18-.37.05h0v.08l-.29.09c-.23.09-.13.5.12.44l.14,0a1.77,1.77,0,0,1,0,.23l-1.56.41c0-.18,0-.37,0-.55l.31.1c.32.1.54-.36.21-.48h0l-.3-.11c.91-.19,1.82-.38,2.72-.61.26-.06.23-.47-.05-.42-1,.17-2.07.37-3.1.58H49l-.41.09A1.45,1.45,0,0,1,48,21.9c0-.24,0-.48.07-.71a.26.26,0,0,0-.23-.27H47.8c0-.46,0-.95,0-1.31s-.46-.28-.47,0q0,.75,0,1.5l-1,.29c0-.33.05-.65.08-1a.3.3,0,0,0,.33.23.29.29,0,0,0,.25-.33h0a5.49,5.49,0,0,0-1.53-3.5,11.24,11.24,0,0,0-2.88-1.74.22.22,0,0,0-.24-.15,3.35,3.35,0,0,1-1.44-1.81l1.19-.26c.25-.06.21-.44-.05-.4l-1.27.22c-.66-2.38-1-5.4-3.6-6.1l.52-.22a.22.22,0,0,0,.09-.29A.21.21,0,0,0,37.5,6c-.24.09-.47.2-.71.3a3.58,3.58,0,0,0-.9-1.69.29.29,0,0,0,0-.13.22.22,0,0,0-.23-.11,3.05,3.05,0,0,0-2.59-.91.19.19,0,0,0,0-.19.2.2,0,0,0-.22-.09c-.63.23-1.25.47-1.87.72,0-.07,0-.13,0-.2A41.62,41.62,0,0,1,54.89,2.94ZM17.44,10.65a49.84,49.84,0,0,1,10.84-6,2.47,2.47,0,0,0,1.25,2,3.17,3.17,0,0,0,.77.3l0,0a1.71,1.71,0,0,1,.56.26,3.09,3.09,0,0,1,.88,1.21L30.52,9a.22.22,0,0,0-.12.3.23.23,0,0,0,.3.12h0l1.21-.52a5.74,5.74,0,0,1,.1,1.45c0,.72-.21,1.13.23,1.77a2.22,2.22,0,0,0,.48.44,4.75,4.75,0,0,0,1,.52c.22.82.45,1.63.67,2.44-.08,1.27-1.69,3-3.19,2.57a.2.2,0,0,0-.26-.2l-.13,0a2.47,2.47,0,0,1-.7-.65c-.22-.29-.21-.83-.43-1.16-1.25-1.83-3.69-.91-5.25,0-.28.15-.11.6.19.47,1.9-.8,3.14-1.21,4.73.73.2.23.23.61.41.88L28,18.5c.09-.58.19-1.15.29-1.72.06-.31-.42-.37-.48-.07h0c-.11.64-.23,1.28-.35,1.92-.74.17-1.48.35-2.21.56.1-.79.21-1.58.31-2.37a.22.22,0,0,0-.2-.24.23.23,0,0,0-.25.18h0c0,.25-.07.5-.1.74h0c-.45.14-.89.3-1.33.47.19-1,.37-2,.57-3,.07-.31-.39-.35-.47-.07h0a2.68,2.68,0,0,1-.07.27c0-.32,0-.64,0-1a.25.25,0,0,0-.16-.2,2.44,2.44,0,0,0-2,.12,17.35,17.35,0,0,0-1.73,1.16.23.23,0,0,0-.41.1l0,.17-.23.13h-.05l-.76.28a1.35,1.35,0,0,1-1.45-.76c-.1-.18-.36,0-.34.14,0,0,0,0-.05.06h0c-.12.48-.25,1-.37,1.43L15,17.35c.12-.63.25-1.27.37-1.9.06-.29-.38-.34-.44-.06h0l0,.21s0,0-.06,0h0a10.38,10.38,0,0,1-4.45,1.8A35.34,35.34,0,0,1,17.44,10.65ZM11.16,70.42a38.17,38.17,0,0,1,.22-6.14,3.1,3.1,0,0,1,.95,1.22s-.05,0-.06.09a23.5,23.5,0,0,0-.58,4.48l-.27.13c-.31.16-.1.66.21.5h0l.07,0c0,.18,0,.35,0,.52C11.51,70.93,11.34,70.68,11.16,70.42Zm2.39.68c.07.14.14.27.22.4a3.41,3.41,0,0,0,.73.78,21.48,21.48,0,0,0-.1,2.26c-.36-.41-.72-.82-1.07-1.25A12.41,12.41,0,0,1,13.55,71.1Zm1.52,1.56A3.43,3.43,0,0,0,16.6,73c-.11.45-.2.89-.27,1.34l-.77.4c-.25.13-.08.53.16.4h0l.55-.29a10.43,10.43,0,0,0,0,1.58c-.39-.38-.78-.76-1.15-1.16C15.06,74.43,15.05,73.54,15.07,72.66Zm1.74,4.4a16.31,16.31,0,0,1,.13-2.52l1.38-.73a12.81,12.81,0,0,0-.15,2.31l-.69.31c-.26.12-.1.52.16.4h0l.55-.24q0,.63.15,1.26l-.48.16C17.51,77.69,17.15,77.39,16.81,77.06Zm1.68,1.51-.21-.18.15,0Zm.42-.9c-.05-.45-.09-.91-.11-1.36l1.55-.69a10.54,10.54,0,0,0-.26,1.67Zm1.87,2a14.35,14.35,0,0,1-.08-2l1.66-.53A14.07,14.07,0,0,0,22.23,79Zm2-.93c0-.53.06-1.06.13-1.59a4.67,4.67,0,0,0,1.36.42l0,.53ZM25,80.1c0-.59-.05-1.19-.08-1.78l.21-.1a.23.23,0,0,0,.12-.3.22.22,0,0,0-.3-.12l-.06,0c0-.08,0-.17,0-.26a4.94,4.94,0,0,0,1.57-.19l0,2C26,79.65,25.47,79.87,25,80.1Zm2-.3.69-.33c-.07.8-.13,1.6-.18,2.41l-.51.26Q27,81,27,79.8Zm.48,2.7c0,.11,0,.23,0,.34l-.39-.15Zm6.45,2.27a1.82,1.82,0,0,0,.19-1.16,5.13,5.13,0,0,1-.26-.87,2.59,2.59,0,0,0-.44-.55c.14-.1.28-.19.42-.3a.21.21,0,0,0-.27-.33.05.05,0,0,1,0,0,1.7,1.7,0,0,1,.54-.9.22.22,0,0,0,.32-.18,1.85,1.85,0,0,1,1.14,0c.49-.1,1.27-.21,2-.43,0,.19,0,.37,0,.55a.25.25,0,1,0,.49.07c0-.27.08-.53.11-.8,1.07-.39,1.95-1,1.67-2.24-.14-.61-.53-.79-1.08-1a6.5,6.5,0,0,0-1.44-.15l-.13,0a1.1,1.1,0,0,1-.41-.13,1.65,1.65,0,0,1-.81-1.48l.78-.49c.22-.16,0-.46-.26-.33l-.49.28c.08-.53.24-1.07.32-1.5A2.33,2.33,0,0,0,34.72,70l0,0a.2.2,0,1,0-.24-.32l-.23.16-.16,0c.19-.17.17-.53-.14-.55s-2.93-7-.84-10a.23.23,0,0,0,.08-.11C34,58,35.45,57.46,37.82,58a.34.34,0,0,0,.38-.38c-.17-2.47,2.76-4.91,4-7.15,1.32-2.42,1.91-4.83,5.16-3.89a.25.25,0,0,0,.24,0v0c.64,1.56,1.6,1.91,3.19,2.3s3.48.24,4.9.8c-.11.53-.22,1-.34,1.57-.06.29.38.34.45.06.13-.46.24-.94.36-1.4a2.36,2.36,0,0,1,.54.4.2.2,0,0,0,0,.21.2.2,0,0,0,.22.06l.15.21c0,.18-.06.36-.08.55a.23.23,0,0,0,.2.25.23.23,0,0,0,.21-.11,4.79,4.79,0,0,1,.23,1.13c0,.17,0,.31,0,.46l-.13.1a.24.24,0,0,0,0,.34.19.19,0,0,0,.15.08,2.9,2.9,0,0,1-1,2.22.22.22,0,0,0-.21-.2.2.2,0,0,0-.2.15h0c0,.14,0,.28-.07.42a8.93,8.93,0,0,0-1.8,1.38,4.16,4.16,0,0,0-1.06,1.7,7,7,0,0,0-.06,1,4.77,4.77,0,0,1-2.08,3.82,6.53,6.53,0,0,0-.9,4.14.24.24,0,0,0,.27.19.23.23,0,0,0,.19-.2h0c.16-2.48,2.19-4.52,3.12-6.79q-.81,3.45-1.57,6.91l-.63.52c-.16-.22-.32-.44-.48-.64a.25.25,0,0,0-.33,0,.23.23,0,0,0,0,.3c.13.2.28.44.44.71l-.24.2a.23.23,0,0,0,0,.32.22.22,0,0,0,.3,0l.2-.15c.12.2.24.42.37.63l-.21.91c-.07.35.47.42.55.08,0-.1,0-.19.07-.29a9.34,9.34,0,0,0,2,2.6l-.12.14c-.15.19.13.49.32.31l.21-.21c1.82.79,3.43-1.07,5.44-.26l.11.05c-.15.19-.29.38-.44.56s.17.52.37.29l.51-.62a4,4,0,0,1,.47.34l-.33,1.77c0,.26.35.31.4.05.11-.48.2-1,.31-1.46.12.13.24.26.35.4l-.18.26c-.17.26.2.56.39.31l.09-.13a17.57,17.57,0,0,1,.84,1.6l-.25.48c-.12.27.27.42.4.17a.83.83,0,0,0,.09-.16,4,4,0,0,0,1,1.38l0,0c-.12.21.23.41.37.21l0,0a3.62,3.62,0,0,0,3-.29h0a40.52,40.52,0,0,1-7.78,4.22,6.47,6.47,0,0,0,1.71-1.59.2.2,0,0,0,0-.27.19.19,0,0,0-.26,0,6,6,0,0,1-3,2.19.16.16,0,0,0-.06.27A43.19,43.19,0,0,1,33.91,84.77Zm38.71-10h0c.49-.55,1-1.11,1.45-1.67,0,.11,0,.21-.08.31C73.55,73.85,73.09,74.3,72.62,74.74Zm2.09-2.11c0-.15.09-.3.13-.45l.78-.9c.19-.21-.16-.48-.34-.27h0l-.13.15c.17-.63.33-1.27.5-1.91.58-.69,1.13-1.41,1.64-2.15-.19,1-.37,2.05-.5,3.08C76.13,71,75.43,71.84,74.71,72.63Z"/><polygon class="cls-2" points="54.22 21.63 54.22 21.63 54.22 21.63 54.22 21.63"/><path class="cls-2" d="M47.83,39.43a9.84,9.84,0,0,0,.45-1.25c.1-.32-.38-.52-.48-.21h0q-.23.66-.39,1.35C47.36,39.56,47.74,39.66,47.83,39.43Z"/><path class="cls-2" d="M47.12,45.53a.25.25,0,0,0,.27-.21c.24-1.5.4-3,.58-4.52a.2.2,0,0,0-.4,0h0c-.24,1.5-.49,3-.67,4.5A.25.25,0,0,0,47.12,45.53Z"/><path class="cls-2" d="M63.17,52.05a.2.2,0,0,0-.23.18h0c-.18,1.65-.4,3.3-.55,5a.21.21,0,0,0,.19.21.2.2,0,0,0,.2-.16c.23-1.64.4-3.3.59-4.95A.21.21,0,0,0,63.17,52.05Z"/><path class="cls-2" d="M27,31h0c-.27,1.47-.53,2.94-.76,4.41a.2.2,0,0,0,.18.23.19.19,0,0,0,.22-.17c.32-1.46.59-2.93.86-4.4C27.57,30.72,27.07,30.65,27,31Z"/><path class="cls-2" d="M31,24.65c.45-1.74.81-3.49,1.18-5.24.08-.36-.47-.42-.55-.08h0c-.38,1.75-.79,3.49-1.1,5.25C30.46,24.9,30.91,24.94,31,24.65Z"/><path class="cls-2" d="M30.21,31.18a.21.21,0,0,0,.21-.16,13.15,13.15,0,0,0,.24-5.15.28.28,0,0,0-.32-.25.29.29,0,0,0-.25.32h0a25.52,25.52,0,0,1-.1,5A.22.22,0,0,0,30.21,31.18Z"/><path class="cls-2" d="M40.21,36.29a.21.21,0,0,0-.24.18h0c-.57,4.66-1.2,9.31-1.69,14a.21.21,0,0,0,.19.22.22.22,0,0,0,.21-.16c.64-4.66,1.14-9.33,1.71-14A.2.2,0,0,0,40.21,36.29Z"/><path class="cls-2" d="M41.39,31.35h0a135.29,135.29,0,0,1-1.25,16,.2.2,0,0,0,.17.23.21.21,0,0,0,.23-.18,100.22,100.22,0,0,0,1.39-15.94C41.94,31.08,41.39,31,41.39,31.35Z"/><path class="cls-2" d="M79.58,29.3a5,5,0,0,0-1-2.84c-.16-.22-.53,0-.41.23h0a10,10,0,0,1,.93,2.66.21.21,0,0,0,.25.17A.22.22,0,0,0,79.58,29.3Z"/><path class="cls-2" d="M81.87,32.38c-.35-2-.8-4.06-1.21-6.08-.06-.29-.51-.23-.45.06.41,2,.78,4.06,1.26,6.07C81.53,32.68,81.91,32.63,81.87,32.38Z"/><path class="cls-2" d="M82.86,30.94c0,.22.33.33.39.11a2.34,2.34,0,0,0-.3-2.19c-.16-.25-.54,0-.38.28C82.67,29.74,82.76,30.34,82.86,30.94Z"/><path class="cls-2" d="M83.13,47c0,.29.4.34.45.06a36.43,36.43,0,0,0,.48-12.58.22.22,0,0,0-.27-.17.23.23,0,0,0-.18.23h0A44.1,44.1,0,0,1,83.13,47Z"/><path class="cls-2" d="M81.63,42.24a7.64,7.64,0,0,0-.23-5.41c-.12-.31-.58-.11-.47.19a9.13,9.13,0,0,1,.27,5.1.23.23,0,0,0,.2.25A.22.22,0,0,0,81.63,42.24Z"/><path class="cls-2" d="M80.42,50.3h0a22.75,22.75,0,0,1-1.15,6.59.22.22,0,0,0,.41.17,16.84,16.84,0,0,0,1.21-6.76C80.89,50,80.42,50,80.42,50.3Z"/><path class="cls-2" d="M83.27,48.85h0a48.24,48.24,0,0,1-1.77,9.68c-.09.29.35.49.44.19a37.27,37.27,0,0,0,1.77-9.81C83.73,48.62,83.29,48.56,83.27,48.85Z"/><path class="cls-2" d="M71.78,45.4a.25.25,0,0,0-.28.2c-.15,1-.32,2.08-.43,3.13a.22.22,0,1,0,.44.06c.2-1,.35-2.07.5-3.12A.24.24,0,0,0,71.78,45.4Z"/><polygon class="cls-2" points="48.43 85.67 48.43 85.67 48.43 85.67 48.43 85.67"/><path class="cls-2" d="M53.3,84.52c-1.64.21-3.28.49-4.92.76a.2.2,0,1,0,0,.39c1.65-.24,3.29-.47,4.93-.77a.19.19,0,1,0-.06-.38Z"/><path class="cls-2" d="M51.08,83.26h0a25.19,25.19,0,0,0,12.75-4.42c.2-.14,0-.49-.21-.37A30.64,30.64,0,0,1,51,82.82C50.74,82.85,50.8,83.28,51.08,83.26Z"/><path class="cls-2" d="M55.91,80.11c1.35-.37,2.71-.7,4-1.17a.22.22,0,0,0,.12-.29.23.23,0,0,0-.24-.14c-1.39.28-2.76.71-4.12,1.09C55.35,79.7,55.57,80.2,55.91,80.11Z"/><path class="cls-2" d="M46.82,84.37c-1.65.21-3.29.47-4.93.73a.25.25,0,0,0-.21.28.24.24,0,0,0,.28.2h0c1.64-.25,3.28-.48,4.92-.78a.21.21,0,0,0,.18-.25A.21.21,0,0,0,46.82,84.37Z"/><path class="cls-2" d="M55.67,79.08h0l2-.32a.19.19,0,0,0,0-.38l-2,.3C55.37,78.72,55.42,79.12,55.67,79.08Z"/><path class="cls-2" d="M39.2,2.76c1.65.19,3.31.39,5,.55a.2.2,0,0,0,.22-.19.21.21,0,0,0-.16-.22c-1.65-.22-3.31-.39-5-.58a.22.22,0,0,0-.24.2A.23.23,0,0,0,39.2,2.76Z"/><path class="cls-2" d="M44.46,5.38h0c1.08.06,2.15.14,3.24.17.25,0,.32-.38.06-.4C46.68,5.06,45.6,5,44.52,5,44.24,4.94,44.18,5.37,44.46,5.38Z"/><path class="cls-2" d="M57.61,8.19a15.17,15.17,0,0,1,6,2.72.22.22,0,0,0,.27-.35,11.7,11.7,0,0,0-6.25-2.87C57.35,7.64,57.29,8.13,57.61,8.19Z"/><path class="cls-2" d="M5.24,52.08c0-.29-.45-.36-.46-.06h0A14.3,14.3,0,0,0,8.08,62a.2.2,0,0,0,.29,0,.21.21,0,0,0,0-.29A17.15,17.15,0,0,1,5.24,52.08Z"/><path class="cls-2" d="M7,56.07H7c.48,1.41.93,2.83,1.48,4.21a.23.23,0,0,0,.43-.18c-.43-1.42-1-2.82-1.45-4.22C7.36,55.58,6.9,55.77,7,56.07Z"/><path class="cls-2" d="M18.57,11.13h0a27.54,27.54,0,0,1,9.18-4.84.22.22,0,0,0,.09-.3.21.21,0,0,0-.21-.12,20.26,20.26,0,0,0-9.31,4.92C18.1,11,18.36,11.31,18.57,11.13Z"/><path class="cls-2" d="M27.29,7.39a8.49,8.49,0,0,0-3.7,2.09c-.29.26.07.76.37.49h0a12.38,12.38,0,0,1,3.46-2.1C27.68,7.77,27.58,7.32,27.29,7.39Z"/><path class="cls-2" d="M77.83,33.21h0a29.28,29.28,0,0,1,.45,3.35c0,.23.41.24.42,0a14,14,0,0,0-.43-3.41C78.21,32.87,77.77,32.93,77.83,33.21Z"/><path class="cls-2" d="M80.45,35.22c0-.33-.09-.66-.14-1s-.47-.21-.42.06.12.66.17,1S80.5,35.47,80.45,35.22Z"/><path class="cls-2" d="M52.18,25.13c-.25-.08-.42.3-.16.38S52.43,25.21,52.18,25.13Z"/><polygon class="cls-2" points="6.78 43.33 6.77 43.33 6.77 43.33 6.78 43.33"/><polygon class="cls-2" points="13.74 26.03 13.74 26.03 13.74 26.03 13.74 26.03"/><polygon class="cls-2" points="17.64 43.18 17.64 43.18 17.64 43.18 17.64 43.18"/><path class="cls-2" d="M27.29,63.5c.23.08.39-.28.15-.35S27.05,63.43,27.29,63.5Z"/><polygon class="cls-2" points="27.48 54.66 27.48 54.66 27.48 54.66 27.48 54.66"/><polygon class="cls-2" points="37.52 18.6 37.52 18.6 37.52 18.6 37.52 18.6"/><polygon class="cls-2" points="39.4 20.01 39.4 20.01 39.4 20.01 39.4 20.01"/><path class="cls-2" d="M48.37,60.79a1.6,1.6,0,0,0,.1-.23c.62-1.43-1.5-3.77.25-4.84.25-.14,0-.57-.25-.43h0a1.71,1.71,0,0,0-1,1.54,2.81,2.81,0,0,0,.08.91c.11.31.23.62.37.92.57,1,.19,1.75-1.13,2.23-.27-.11-.41.27-.17.41A1.32,1.32,0,0,0,48.37,60.79Z"/><path class="cls-2" d="M49.9,59.8c0,.26.46.27.47,0,0-.54,0-.93,0-1.47,0-.34-.54-.28-.53.07h0C49.86,58.87,49.87,59.34,49.9,59.8Z"/><path class="cls-2" d="M43.34,82.82h0c2.1-.3,4.23-.54,6.3-1a.23.23,0,0,0,.19-.26.24.24,0,0,0-.25-.2c-2.12.19-4.22.62-6.31,1a.26.26,0,0,0,.07.52Z"/><path class="cls-2" d="M48.07,79.51h0c.94,0,1.88-.06,2.82-.14.26,0,.27-.46,0-.47-1,0-1.93,0-2.89,0C47.64,79,47.71,79.52,48.07,79.51Z"/><path class="cls-2" d="M85,80.81a15.08,15.08,0,0,1,1.65-.13A4.7,4.7,0,0,0,85,80.81Z"/><path class="cls-2" d="M87.45,80.8a.25.25,0,0,0,.29-.11c-.36,0-.72,0-1.08,0A5.83,5.83,0,0,1,87.45,80.8Z"/><path class="cls-2" d="M95.28,85.24c-1-4.15-6.59-7.66-10.65-5.42a.37.37,0,0,0-.17.13,4.15,4.15,0,0,1,3.16.24h0a.34.34,0,0,1,.12.5A6.77,6.77,0,0,1,93,83.08a10.82,10.82,0,0,0-1.23.61c-.36.21-.14.8.25.61a9.64,9.64,0,0,0,1.35-.71,6.63,6.63,0,0,1,.41.75h-.06l-2,1.07c-.34.17-.11.73.23.55l2-1s0,0,0,0a6,6,0,0,1,.33,1.42,11.18,11.18,0,0,0-1.54.79c-.33.19,0,.73.33.57A12.6,12.6,0,0,0,94.35,87a7,7,0,0,1-4.75,6.85,7.28,7.28,0,0,1-7.26-2A1.9,1.9,0,0,0,84,91c.19-.28-.16-.71-.45-.45a2.35,2.35,0,0,1-1.38.7.32.32,0,0,0-.24.21,7,7,0,0,1-.49-.72,12.49,12.49,0,0,0,2.06-1.13c.26-.18,0-.57-.27-.46a11.55,11.55,0,0,0-2.09,1,6.58,6.58,0,0,1-.29-.78q.51-.15,1-.33c.28-.09.16-.59-.14-.51l-1,.29a.31.31,0,0,1,0-.08c-.59-3.19,1.16-7.13,4.28-8H84.9a.52.52,0,0,1-.53-.3.52.52,0,0,1,.09-.57c-2.89.92-4.91,4.84-4.85,7.7a8,8,0,0,0,9.25,7.51C93.42,94.5,96.35,89.64,95.28,85.24Z"/><path class="cls-2" d="M84.39,84.4h0a25.57,25.57,0,0,0,2.16-1.46c.25-.19,0-.68-.3-.5A25.13,25.13,0,0,0,84,83.9C83.68,84.14,84.06,84.61,84.39,84.4Z"/><path class="cls-2" d="M84.81,85.26a3.8,3.8,0,0,0-1,.47c-.44.24-.16,1,.32.74h0a5.11,5.11,0,0,0,.93-.54.25.25,0,0,0,.13-.06h0c.94-.7,1.92-1.31,2.79-2.09a.32.32,0,0,0,.06-.45.31.31,0,0,0-.44-.06,28.94,28.94,0,0,0-2.55,2A.41.41,0,0,0,84.81,85.26Z"/><path class="cls-2" d="M86.11,87.08h0c.88-.57,1.79-1.12,2.63-1.75.26-.2,0-.68-.3-.51-.93.53-1.82,1.16-2.72,1.75C85.38,86.81,85.77,87.31,86.11,87.08Z"/><path class="cls-2" d="M85.64,90.79c-.32.2,0,.67.36.47h0c1-.66,2.12-1.3,3.15-2,.31-.21,0-.63-.35-.45C87.72,89.42,86.69,90.12,85.64,90.79Z"/><path class="cls-2" d="M88.46,91.26a12.31,12.31,0,0,0-1.16.89.34.34,0,0,0,.41.53,11.15,11.15,0,0,0,1.12-.94.29.29,0,0,0,0-.42A.3.3,0,0,0,88.46,91.26Z"/><path class="cls-2" d="M90.32,90.9h0A30.9,30.9,0,0,0,93,89.2c.26-.19,0-.65-.28-.49A29.3,29.3,0,0,0,90,90.43C89.64,90.65,90,91.09,90.32,90.9Z"/><path class="cls-2" d="M91,91.33a5.92,5.92,0,0,0-.82,1,.35.35,0,0,0,.07.5.37.37,0,0,0,.49-.06h0a7,7,0,0,0,.74-1,.3.3,0,0,0-.05-.42A.31.31,0,0,0,91,91.33Z"/><path class="cls-2" d="M85.54,89.91c.52-.26,1-.52,1.52-.8.33-.18.12-.72-.23-.55l-1.53.77c-.36.19-.12.77.24.58Z"/></svg>