<svg id="Layer_1" data-name="Layer 1" xmlns="http://www.w3.org/2000/svg" viewBox="0 0 9.58 10.51"><defs><style>.cls-1{fill:#02203d;}.cls-1,.cls-2{fill-rule:evenodd;}.cls-2{fill:#0168ff;}</style></defs><path class="cls-1" d="M7.05,1.76a.17.17,0,0,0,0-.14.29.29,0,0,0-.16-.21C5.83,1,5.9-.2,4.39,0A3.47,3.47,0,0,0,2.11,1.81a.2.2,0,0,0-.28-.07A3.5,3.5,0,0,0,.52,6.56a.26.26,0,0,0-.06.33h0a2.73,2.73,0,0,0,.83,1,.17.17,0,0,0,0,.12A2.52,2.52,0,0,0,5.58,9.74,2.83,2.83,0,0,0,9.14,6.19C10.23,4.31,9.24,1.72,7.05,1.76Z"/><path class="cls-2" d="M9.13,6.19C10.22,4.3,9.24,1.73,7,1.77a.33.33,0,0,0,0-.15.31.31,0,0,0-.16-.21C5.83,1,5.9-.19,4.39,0A3.46,3.46,0,0,0,2.11,1.81a.2.2,0,0,0-.28-.07h0A3.5,3.5,0,0,0,.51,6.56a.26.26,0,0,0-.06.33h0a2.76,2.76,0,0,0,.84,1,.28.28,0,0,0,0,.12h0A2.52,2.52,0,0,0,5.57,9.74,2.84,2.84,0,0,0,9.14,6.19Zm-3.23,3A.29.29,0,0,0,5.47,9c-1.37,1.09-3,.92-3.56-.83A2.25,2.25,0,0,0,3,8.14c.26-.07.17-.45-.07-.49A2.62,2.62,0,0,1,1,6.57.28.28,0,0,0,.92,6.5a.38.38,0,0,0,0-.15,3.47,3.47,0,0,1,.88-4.08h0c-.18.28.22.6.41.32h0C2.5,2.18,3,1.3,3.46,1.1l2.25,0a1.57,1.57,0,0,0,.36.51.89.89,0,0,1,.33.2c-.11,0-.22,0-.33.08a.28.28,0,0,0-.14.38.28.28,0,0,0,.28.16C8.76,2,9.46,4.79,8,6.38c-.29.32.2.83.52.56A2.84,2.84,0,0,1,5.9,9.19Z"/><path class="cls-2" d="M5.59,6.22a1.74,1.74,0,0,1-2.36-.46.31.31,0,0,0-.52.31,1.87,1.87,0,0,0,3.18.54C6,6.42,5.82,6.09,5.59,6.22Z"/><path class="cls-2" d="M7,4.68H7a3.74,3.74,0,0,0,.08,1.2c0,.29.56.32.56,0A5,5,0,0,0,7.55,4.6C7.5,4.23,7,4.32,7,4.68Z"/></svg>