<svg id="Layer_1" data-name="Layer 1" xmlns="http://www.w3.org/2000/svg" viewBox="0 0 94.95 95.91"><defs><style>.cls-1{fill:#02203d;}.cls-2{fill:#0168ff;fill-rule:evenodd;}</style></defs><circle class="cls-1" cx="47.83" cy="47.86" r="46.75"/><path class="cls-2" d="M66.89,4.25a.37.37,0,0,0-.3-.21.45.45,0,0,0-.11,0,50.2,50.2,0,0,0-17.61-4C30.51-.85,15.54,9.91,6.58,25.43-4.44,44.52-1,64.37,12.54,81a.34.34,0,0,0,.4.08C29.87,99.83,59,100.44,78,85a.3.3,0,0,0,.16-.08c.31-.27.59-.54.89-.81a50,50,0,0,0,4.52-4.46.3.3,0,0,0,.06-.33C104.51,54.35,95.12,16.81,66.89,4.25ZM92.76,52c-.06-.36-.12-.71-.2-1.07a6.4,6.4,0,0,0,.37-1.41C92.9,50.33,92.84,51.16,92.76,52ZM9.55,23.13a2.35,2.35,0,0,0,1.63,2.47c3.12,1.26,6.93-3,8.92-4.55,5-4,20-8.11,15.77-17.29-.16-.36-.75-.12-.58.25,3.59,7.87-6.44,10.52-11.2,13.33a40.26,40.26,0,0,0-4.39,3.19c-.92.77-1.85,1.54-2.79,2.28q-2.75,3-6.38-.88a.19.19,0,0,0,0-.24c.44-.62.88-1.23,1.34-1.83a2,2,0,0,0,.91,1.85c1.68,1.22,3.78-.25,5-1.3a42.79,42.79,0,0,1,9.81-6.34c2.27-1.07,4.26-2.23,5.5-4.48.17-.32-.34-.54-.52-.22C30.67,13,26.38,13.8,23.1,15.72a29,29,0,0,0-3,2c-.77.59-1.48,1.25-2.21,1.89-.25.24-.51.48-.79.7Q15.29,22.16,12.75,19a.28.28,0,0,0,0-.25A46.27,46.27,0,0,1,36,3c6.85,3.33-3.17,12.31-5.59,13.56-1.83.94-3.84,1.48-5.65,2.44s-15,12.29-15.93,5.6a.19.19,0,0,0-.12-.13ZM4.48,33c.94,1.6,3.37,1.74,5.37,1.27a20.64,20.64,0,0,0,5.33-2.41c4.08-2.32,7.72-3.81,12.57-3.71.25,0,.31-.4.05-.41a20.93,20.93,0,0,0-8.89,1.47A31.32,31.32,0,0,0,15.37,31c-1.54.88-9.43,5.51-10.66,1.35.21-.51.42-1,.65-1.53a53.19,53.19,0,0,1,3.06-5.91c.46,7.57,18-6,18.94-6.43,4.54-2.09,8.46-3.87,10.37-8.88,1-2.72,1.21-5.38-1-6.82A41,41,0,0,1,47.44,1.49a12.48,12.48,0,0,1,.44,1.7c0,.37.58.28.57-.08a3.66,3.66,0,0,0-.31-1.6c.85,0,1.71.06,2.57.14a.33.33,0,0,0,.15.27c3.74,2.58-.21,8.33-2.65,10A15.38,15.38,0,0,0,44,15.31a.2.2,0,0,0,0,.3.22.22,0,0,0,.3,0h0c2.28-3,6.06-3.84,7.71-7.49.89-2,1.33-4.71-.3-6.34.42.05.85.09,1.27.15a3.2,3.2,0,0,1,.81,3.24c-.07.23.27.38.35.15h0A3.7,3.7,0,0,0,54,2.14c2.1,1.51,2.51,4.11,1.11,6.61-1.19,2.13-3.17,3.21-5.24,4.34a.25.25,0,0,0-.11.33.24.24,0,0,0,.3.12h0c3-1.18,5.91-3.45,6.44-6.8A5.34,5.34,0,0,0,55.1,2.21,50,50,0,0,1,60,3.29C59.86,12,51.4,11.85,47.26,16.82,42,23.15,43.76,32.28,30,32.17c-3.22,0-5.7-.94-8.9.1-7.09,2.28-10,10-19,9.07A45,45,0,0,1,4.48,33ZM2,41.92c6.42.82,9-3,14.32-6.14,6-3.52,11.78-2.09,18.07-2.39A12.41,12.41,0,0,0,40,32c6.54-3.74,6.72-13.45,12.54-18.14,4.24-3.4,7.84-5,8.07-10.4l.73.22c.44,5.71-3.55,7.68-7.78,10.56a12,12,0,0,0-4.87,6.62c-.08.23.27.39.36.15h0c1.83-5.35,7.45-7.17,10.64-10.74-2.16,4.39-3.5,8.88-5.44,13.41-2.89,6.72-7.94,8.57-14,10,4.58-2.35,6.76-7.29,8.46-12,.09-.24-.27-.39-.36-.15-1.85,5-4.07,9.61-9,12.13a.19.19,0,0,0-.1.18c-.12.05-.25.08-.38.12l-1.72.4s-.06,0-.09,0c-5.21.88-10.31-1.24-15.56,0-6.3,1.5-9.2,8.85-16.38,8.43-.31,0-.38.45-.06.48h.33a.25.25,0,0,0,.13.41h0c4.07.94,8.77,2.55,12.93,1.4s7.4-4.4,11.06-6.45c.22-.13.08-.49-.15-.37-3.23,1.62-6,4.2-9.31,5.58-4.65,1.93-9.3.31-14-.54,6,0,8.64-6,14-8.09,5.8-2.28,12.12,1,18-.53a19.18,19.18,0,0,1-2,1,.19.19,0,0,0,.15.35h0a14.2,14.2,0,0,0,3-1.57c4.42-.69,9-2,12.15-5.25,2.41-2.43,3.44-5.49,4.53-8.67A77.78,77.78,0,0,1,61.23,8.5a.22.22,0,0,0-.1-.31A8.69,8.69,0,0,0,62,3.85l.45.14c.65,5.11-2.85,8.77-4.07,13.42-1.56,5.93-4.27,12.08-9.6,16.05-2,1.48-9.89,3-10.13,3.08a54.73,54.73,0,0,0-9.94,4.24c-3.64,1.93-7.26,4.63-11.36,5.58-4.8,1.1-10.87-1.06-15.55-2.62C1.83,43.14,1.92,42.53,2,41.92ZM3,60.18a34.78,34.78,0,0,0,13-2.73C19.4,56,24.4,53.78,26,50.18c.85-1.92,0-2.54-2.06-2.51-2.59,0-5.16,1.19-7.74,1.46A32.3,32.3,0,0,1,4.82,48.2c-.35-.09-.41.46-.07.55a32,32,0,0,0,10.08,1,35.25,35.25,0,0,0,5.68-.94c.77-.22,1.54-.42,2.32-.58q2.3,3.15.09,4.53c-2.06,2.42-6.54,4-9.51,5A40,40,0,0,1,2.86,59.69,43.58,43.58,0,0,1,1.54,46.12a27.24,27.24,0,0,0,11.58,2.49A27,27,0,0,0,18.35,48c1.88-.4,4-1.82,5.77-2,1.15-.8,2.15-.34,3,1.35,2.31.61,2.82,1.51,1.54,2.68-.5,1.44-2.48,2.77-3.62,3.69a28.74,28.74,0,0,1-6.93,4.07,41.55,41.55,0,0,1-14.94,3C3.11,60.62,3.05,60.4,3,60.18ZM78.45,83.3a48.1,48.1,0,0,1-28.21,11,2,2,0,0,1,0-1.49l.94-.32c.73-.25,1.46-.48,2.18-.76.21-.08.13-.45-.11-.39-1.17.28-4.2.53-4.62,1.93a1.15,1.15,0,0,0,.15,1.08c-.28,0-.56,0-.84,0Q44,91.2,47.36,91a17.81,17.81,0,0,1,2.5-.49c1.45-.25,2.88-.45,4.31-.79a41,41,0,0,0,6.64-2.19,38.31,38.31,0,0,0,12.31-8c.18-.18-.12-.48-.32-.32h0c-4.22,3.45-8.46,6.52-13.61,8.46-4.33,1.65-9,1.65-13.26,3.14-3.43,1.18-3.25,2.58-1.71,3.46a49.18,49.18,0,0,1-20.08-6.31c4.72,1.22,10,1,14.75.95,6.93-.07,13.76-.74,20.32-3,.25-.09.09-.44-.15-.37-10.65,3.37-26.21,5-37.21,1.09a56.68,56.68,0,0,1-5.13-3.66c8.54-.13,18.7,2,26.23-3.13,3.49-2.39,5.59-6.12,7.89-9.55,4.67-7,9.66-10.39,18.38-11.2.32,0,.25-.5-.06-.49-9.23.38-13.8,3.8-18.84,11.29-4.59,6.79-9.18,11.67-17.89,12.59-5.36.56-10.86-.24-16.25,0-1.45-1.2-2.87-2.49-4.24-3.87a51.15,51.15,0,0,0,23.12-3.39c.28-.11.1-.52-.18-.42a57.73,57.73,0,0,1-23.12,3.3.25.25,0,0,0-.21.11l-.38-.39a61.56,61.56,0,0,1-7.8-16.26,38.92,38.92,0,0,0,18-4.4c2.91-1.61,8.59-5.1,9-9,.24-2.46-1.58-3.65-3.89-3.45-3.31.28-6.5,2.52-9.85,3a27.49,27.49,0,0,1-15-2.16c0-.43.08-.87.13-1.3,6.08,2.05,12.6,4.05,18.94,1.9,2.61-.89,4.72-2.61,7.06-4,5.95-3.55,12.08-4.68,18.44-7,4.92-1.8,9.39-4.33,11.43-9.4,1.84-4.54,2.14-9.62,4.08-14.3,1.47-3.58,2-4.07,1.47-7.23,1,.34,2,.7,2.9,1.1-.52,2.4-1.73,4.42-2.28,6.84s-.26,4.71-.52,7c-1,9.09-6.7,13.63-14.75,17.28a.25.25,0,0,0,.2.46h0c5.41-2.09,11.21-5.34,13.76-10.87,1.35-2.93,1.28-6,1.6-9.14.41-4,2-7.49,2.71-11.3a42.89,42.89,0,0,1,15,10.84C85.23,27.23,80.26,42,70.25,47.43c-.24.14-.09.55.18.42h0c9.37-4.4,16.08-18.63,13.18-29,.77,1,1.5,2,2.18,3.09.91,6.58-2.35,13.89-4.74,19.74a.22.22,0,0,0,.13.28.22.22,0,0,0,.27-.11,47.88,47.88,0,0,0,4.26-11.57,29.44,29.44,0,0,0,1.14-6.57A45.74,45.74,0,0,1,91.68,36c-.78-2.09-1.74-4.13-2.71-6.1-.14-.29-.6-.1-.46.19h0c1.55,3.25,2.67,6.62,4,10a50.55,50.55,0,0,1,.51,7.6,20.83,20.83,0,0,0-.45-2.7c-.53-2.34-1-4.72-1.68-7-.07-.24-.45-.13-.42.11h0c.58,3.63,2.68,8.23,2,12a16.3,16.3,0,0,0-1.2-5,.3.3,0,0,0-.31-.17c-.62,0-.69.32-1,.85-.85,1.38-1.51,2.92-2.23,4.37-.11.24.26.4.39.16h0c.64-1.21,1.24-2.48,2-3.65a4,4,0,0,1,.78-1.09c.11.41.22.83.34,1.25.17.66.33,1.32.49,2a24.29,24.29,0,0,1,.43,2.82,3.38,3.38,0,0,0-3.19-.5c-2.89,1-4.83,4.83-6.54,7.12a.18.18,0,0,0,0,.25.17.17,0,0,0,.24,0c1.2-1.57,2.36-3.2,3.61-4.72s4.59-3.61,5.91-1.34c.08.91.15,1.81.26,2.72l-.06.38c-.4-2.65-3.74-2-5.88-.2-2.77,2.39-4.88,6.59-6.42,9.89C77,71.7,73.58,76.31,67.59,80.5c-.29.21,0,.64.34.44h0c3.78-2.58,7.4-5.31,9.81-9.28,1.37-2.26,2.14-4.8,3.32-7.16a42.34,42.34,0,0,1,3.48-5.68q2-4.16,7.22-1.94a.26.26,0,0,0,.23.28h0Q91.52,59.61,90.8,62a2.38,2.38,0,0,0-3.64-1c-1.82,1.06-3,3.49-4.14,5.15-1.91,2.75-3.82,5.49-5.69,8.27-.14.23.17.48.34.26h0c1.73-2.35,8.07-11.32,8.49-11.87q1.64-2.73,4.2.58A52.49,52.49,0,0,1,86.66,72c-.41-1.12-2.1-1.62-3.33-1.12A14.9,14.9,0,0,0,79.14,74,23.5,23.5,0,0,0,75,78.61c-.13.22.14.57.35.35h0c1.46-1.42,2.7-3,4.19-4.42.7-.66,1.42-1.29,2.17-1.88a9.69,9.69,0,0,1,1.17-.85c.53-.29,4.36-1.93,3.08,1.3,0,0,0,0,0,.08-.6,1-1.24,2.06-1.92,3.07-.08-1.88-2.82-.81-3.85-.13a20.93,20.93,0,0,0-3.86,3.78,29.54,29.54,0,0,1-6.1,5c-.26.18,0,.56.3.4h0a26,26,0,0,0,5.74-4.44c.7-.76,1.35-1.56,2.06-2.31.17-.18,5.3-4.5,5.09-1.93a.28.28,0,0,0,.2.3A54.34,54.34,0,0,1,78.45,83.3Z"/><path class="cls-2" d="M45.48,30.73l-.12.06c-.27.1-.1.47.17.4,8.23-2.41,8.34-10,11.82-16.52a.25.25,0,0,0-.08-.3,1.27,1.27,0,0,0,.07-.12A.22.22,0,0,0,57,14c-1.8,2.53-4.86,3.29-6.58,6.1-2,3.3-2.72,7.17-4.89,10.42A.19.19,0,0,0,45.48,30.73Zm5.37-10.28c1.31-2.06,2.61-2.88,4.58-4.21a4.33,4.33,0,0,0,.71-.5c-1.11,2.23-1.65,4.64-2.59,7A13.8,13.8,0,0,1,46,30.51C48.07,27.37,48.84,23.63,50.85,20.45Z"/><path class="cls-2" d="M54.59,18a.24.24,0,0,0-.14-.31.24.24,0,0,0-.3.12l-.08.17A.18.18,0,0,0,54,18c-3.61,2.56-4.16,6.38-6.16,10a.2.2,0,0,0,.09.27.24.24,0,0,0,.37.23h0C51.86,26.1,53,21.78,54.59,18Zm-6.2,9.86a42.22,42.22,0,0,0,1.94-4.4,14.32,14.32,0,0,1,3.17-4.22C52.17,22.37,51.2,25.68,48.39,27.84Z"/><path class="cls-2" d="M35.72,36c-.22-.07-.36.26-.14.33S35.94,36,35.72,36Z"/><path class="cls-2" d="M30.09,38.44h0c1.45-.52,2.89-1,4.31-1.58a.22.22,0,0,0,.12-.28.22.22,0,0,0-.28-.12c-1.44.53-2.86,1.09-4.3,1.63C29.72,38.18,29.86,38.52,30.09,38.44Z"/><path class="cls-2" d="M29.66,36.84c-2.81,1.49-5.54,3.12-8.35,4.62-3.25,1.74-6.44,1.92-10,1.68,2.78-1.2,4.69-3.34,7.24-5,3.8-2.48,8.46-2,12.82-2l-1.16.38c-.23.08-.13.48.11.41h0c.79-.21,1.59-.43,2.37-.69a.23.23,0,0,0,.08-.35c0-.15-.06-.31-.23-.31-3.83-.1-8.19-.54-11.84.86-3.89,1.5-6.43,5.15-10.36,6.63a.25.25,0,0,0,.09.44h0c3.39.36,6.63.54,9.82-.87a88.42,88.42,0,0,0,9.61-5.47C30,37.06,29.86,36.74,29.66,36.84Z"/><path class="cls-2" d="M27.45,37.4a.22.22,0,0,0,.12-.3.23.23,0,0,0-.29-.12l-.57.22a.25.25,0,0,0-.26-.3,17.66,17.66,0,0,0-6.38,1.61c-2.05,1-3.57,2.71-5.65,3.58a.2.2,0,0,0-.09.22h-.2c-.27,0-.34.41-.05.43h0C19.11,43.1,23.14,39.42,27.45,37.4ZM20,39.14a34.67,34.67,0,0,1,6-1.63c-3.7,1.69-6.86,4.61-11,4.8C16.78,41.49,18.15,40,20,39.14Z"/><path class="cls-2" d="M21.8,38.82A36.45,36.45,0,0,0,17.55,41c-.25.14,0,.55.25.43h0A37.93,37.93,0,0,0,22,39.21C22.24,39.07,22,38.72,21.8,38.82Z"/><path class="cls-2" d="M3.13,47.57c-.42-.47-.28-.39-.88-.56-.3-.09-.5.37-.19.46h0l.75.41C3,48.05,3.3,47.76,3.13,47.57Z"/><path class="cls-2" d="M3.12,50.27h0a35.59,35.59,0,0,0,9,1.24c1.28,0,9.39-1.48,8.79,1.55-.05.26.38.39.46.13.53-1.85-.68-2.67-2.45-2.74-2.42-.11-4.93.57-7.38.54a40.84,40.84,0,0,1-8.39-1.07C2.94,49.87,2.9,50.22,3.12,50.27Z"/><path class="cls-2" d="M17.88,54.57A30.66,30.66,0,0,1,3.11,57.3c-.4,0-.47.59-.08.61A29,29,0,0,0,18,55C18.3,54.85,18.13,54.45,17.88,54.57Z"/><path class="cls-2" d="M2.78,55.71a.19.19,0,0,0,.16.21,22.42,22.42,0,0,0,14.6-2.57.31.31,0,0,0-.08-.59c-4.6-.63-9.37,1.15-13.82-.52-.35-.13-.59.41-.23.54,4.26,1.58,8.65,0,13,.46.3-.16.6-.3.89-.46,0,.2.06.4.08.59-.32-.06-.64-.1-1-.13A22.89,22.89,0,0,1,3,55.54.2.2,0,0,0,2.78,55.71Z"/><path class="cls-2" d="M8.49,54.9c.25,0,.24-.42,0-.45-1.37-.14-2.77-.15-4.16-.21-.29,0-.36.44,0,.46h0C5.67,54.78,7.08,54.9,8.49,54.9Z"/><path class="cls-2" d="M21.94,58.61h0c10.93-2.78,12.6-16.83,22.83-21,.3-.12.11-.54-.18-.45C33.89,40.48,32.53,54.6,21.8,58.12,21.53,58.21,21.66,58.68,21.94,58.61Z"/><polygon class="cls-2" points="28.11 43.56 28.11 43.56 28.11 43.56 28.11 43.56"/><path class="cls-2" d="M31.63,46.71c-.12.22.19.48.33.25h0a58.26,58.26,0,0,1,5.83-7.35l1.2-.48c.26-.1.15-.56-.14-.49l-.92.28a.17.17,0,0,0-.17,0l0,0a46.22,46.22,0,0,0-9.83,4.1c-.28.16-.11.61.2.48,2.79-1.2,5.6-2.32,8.41-3.44A34,34,0,0,0,31.63,46.71Z"/><path class="cls-2" d="M30.58,46a.27.27,0,0,0,.35-.14,23.12,23.12,0,0,1,1.58-2.78l.12-.06a.23.23,0,0,0,.11-.3.23.23,0,0,0-.18-.11.26.26,0,0,0-.43,0,1.48,1.48,0,0,0-.13.21c-.48.2-.94.4-1.41.63a.23.23,0,0,0-.11.3.23.23,0,0,0,.28.11l.77-.32a13.63,13.63,0,0,0-1.1,2.11A.26.26,0,0,0,30.58,46Z"/><path class="cls-2" d="M55.82,31a20.4,20.4,0,0,0,5.28-7.51c1.19-3.31,1-7,1.59-10.43a.26.26,0,0,0-.22-.3.28.28,0,0,0-.28.16c-.9,2.58-.69,5.2-1.15,7.85-.67,4-3,6.92-5.56,9.88C55.3,30.88,55.61,31.21,55.82,31Z"/><path class="cls-2" d="M25.2,31.05h0c4.37.11,9.21.08,12.87-2.68,4-3,4.52-8.47,7.94-12,.19-.19-.11-.48-.32-.32-2.91,2.23-3.54,5.76-5.4,8.75C36.92,30.24,31,30.52,25.2,30.58,24.93,30.58,24.93,31,25.2,31.05Z"/><path class="cls-2" d="M6.23,39.78h0c4.85-1.76,8.44-5.71,13.09-7.89a.22.22,0,0,0,.1-.29.21.21,0,0,0-.27-.11c-4.83,1.79-8.25,6.06-13.09,7.89C5.8,39.48,6,39.88,6.23,39.78Z"/><polygon class="cls-2" points="29.77 26.5 29.76 26.5 29.76 26.5 29.77 26.5"/><path class="cls-2" d="M29.49,26.39a.22.22,0,0,0,.27.11,19,19,0,0,0,6.89-4c2.49-2.49,3.23-6.14,5.93-8.47a.19.19,0,0,0,0-.28.21.21,0,0,0-.29,0c-2.08,1.54-3,3.71-4.26,5.89-2,3.31-5,5-8.48,6.46A.22.22,0,0,0,29.49,26.39Z"/><path class="cls-2" d="M43.47,13.17h0c2.78-1.43,5.39-4.19,5.89-7.38a.25.25,0,0,0-.23-.27.27.27,0,0,0-.25.14c-1.28,3.09-2.64,5.4-5.61,7.16C43.08,12.94,43.26,13.28,43.47,13.17Z"/><path class="cls-2" d="M34,4.18a.28.28,0,0,0-.15.34,3.3,3.3,0,0,1-.46,3.15.29.29,0,0,0,.07.39A.28.28,0,0,0,33.84,8h0a3.15,3.15,0,0,0,.53-3.7A.28.28,0,0,0,34,4.18Z"/><path class="cls-2" d="M22.86,10.33c-2.7,1.7-7.11,4.72-7.87,8.06-.07.31.41.37.49.06h0a.88.88,0,0,1,0-.15h-.15c-.25,0-.26-.46,0-.47.11,0,.21,0,.32,0,1-2.45,4-4.58,6-6a30.63,30.63,0,0,1,3.86-2.29c.82-.39,4.43-2.59,3.32.29-.24.64-3,1.83-3.6,2.22-1.15.7-2.32,1.35-3.47,2-1.79,1.1-4,3.44-6.12,3.72a3.28,3.28,0,0,0-.17.5,4.23,4.23,0,0,0,3-1.16A66.69,66.69,0,0,1,24.68,13c.76-.45,7.39-3,5.42-5C28.59,6.4,24.08,9.57,22.86,10.33Z"/><path class="cls-2" d="M34.48,16.13c.16-.27-.19-.57-.39-.31-1.85,2.3-5.36,3.17-7.79,4.88s-4.9,3.61-7.95,4.46c-.23.07-.12.43.1.4,3.09-.4,5.46-2.35,7.92-4.12a32.54,32.54,0,0,1,5-2.88A6.45,6.45,0,0,0,34.48,16.13Z"/><polygon class="cls-2" points="70.49 58.61 70.49 58.61 70.48 58.61 70.49 58.61"/><path class="cls-2" d="M70.41,58c-.38,0-.29.59.08.57,10.44-.48,17.71-13,19-22.27,0-.31-.4-.35-.47-.06C86.87,45.34,81,57.2,70.41,58Z"/><path class="cls-2" d="M77.88,63.37a.24.24,0,0,0,.15-.11h0C81.42,56,87.92,51.44,89.29,43.1a.22.22,0,0,0-.42-.12c-1.51,4.34-3.08,8.34-6,12-1.91,2.43-4.06,4.51-5.09,7.42a.21.21,0,0,0-.19.14c-4.74,11.52-10.26,18-23,20.72a80.18,80.18,0,0,1-28.19.5.25.25,0,0,0-.26.23.24.24,0,0,0,.2.26h0c11.3,2,23.15,1.79,34.18-1.64C70.25,79.64,74.64,72.44,77.88,63.37Z"/><path class="cls-2" d="M39.63,83.57h0c8-.06,16.52-.33,23.63-4.46C71,74.62,72.62,66.74,77.12,59.59a.33.33,0,0,0-.08-.46.33.33,0,0,0-.22-.05c-6.48.77-13.4,1.64-18.77,5.7-7.12,5.39-9.63,14.58-18.42,18.08a.33.33,0,0,0-.17.33.19.19,0,0,1,.11,0l1.16,0c4.61-2.07,7.5-5.62,10.56-9.68C56.37,66.68,63.71,59.72,73,60.21c3.89.2,1.79,2.08.32,5.2-2.05,4.32-4.07,8.44-7.88,11.51-6.85,5.55-16.23,5.84-24.68,6.17-.28.13-.55.27-.85.39a.33.33,0,0,1-.41-.17s0-.08,0-.12A.22.22,0,0,0,39.63,83.57Z"/><path class="cls-2" d="M72.76,63.83c.35-3.86-5.38-1.31-7.38-.45C58,66.53,52.65,72.66,48.1,79a.32.32,0,0,0,0,.36.25.25,0,0,1,.24.18.26.26,0,0,0,.31-.12,46.92,46.92,0,0,1,9.23-10.69c2.28-1.89,10.17-8.24,13-5.45q2.13.54.42,2.18a37.35,37.35,0,0,1-2.46,4.19,29.74,29.74,0,0,1-5.33,6.09c-1.07.91-15.15,9-15.2,3.84,0,0,0,0,0,0a.36.36,0,0,1-.24-.18.24.24,0,0,0-.28.21c-.23,4.48,8.45,1.26,10.48.34a25.42,25.42,0,0,0,8.07-6C68.37,71.77,72.48,67,72.76,63.83Z"/><polygon class="cls-2" points="47.8 79.61 47.8 79.61 47.8 79.61 47.8 79.61"/><path class="cls-2" d="M57.79,77.74a29.76,29.76,0,0,0,9.82-7.53c1-1.23,3.42-3.95,1-5.23-.91-.48-2.92.6-3.75.94a31.3,31.3,0,0,0-6.38,3.53c-.25.18,0,.56.3.39,1.8-1.15,4.64-3.38,6.87-3.59q1.86-1,2.58,2.24l-.74.9c-.62,1.19-2.26,2.38-3.25,3.26a29.74,29.74,0,0,1-5.7,3.92A31.68,31.68,0,0,1,55.38,78c-.44.17-4.38,1.31-4.11.61a.24.24,0,0,0,0-.22,16.71,16.71,0,0,1,3.16-4.88c.19-.19-.14-.44-.33-.25a16.43,16.43,0,0,0-3.43,5,.29.29,0,0,0,0,.27l-.15.27a.32.32,0,0,0,0,.31C51.8,81.08,56.4,78.4,57.79,77.74Z"/><path class="cls-2" d="M57.83,70.14c-.21-.06-.35.26-.13.33S58.06,70.21,57.83,70.14Z"/><path class="cls-2" d="M53.42,76.41a24.49,24.49,0,0,1,4.19-4.5,16.16,16.16,0,0,1,2.86-1.83c.82-.39,3.5-1.2,2.67.89-.55,1.41-2.66,2.78-3.89,3.63a17.72,17.72,0,0,1-5.68,2.54c-.3.08-.25.57.07.49h0a19,19,0,0,0,7-3.31c1-.74,4.33-3.23,3.58-4.77s-3.65-.2-4.6.36a19,19,0,0,0-6.57,6.21C52.9,76.37,53.23,76.65,53.42,76.41Z"/><path class="cls-2" d="M87.55,28.59c0-.43-.68-.34-.67.09a31.79,31.79,0,0,1-4.85,18C77.51,53.47,71.9,53.93,64.9,56c-5.26,1.53-9.33,3.43-11.9,8.37-.14.27.29.44.44.18h0c6-10.38,19-6.55,26.64-14.11C85.66,44.89,87.63,36.15,87.55,28.59Z"/><path class="cls-2" d="M45.82,72c-6.54,7.82-16.81,8-26.22,8.13-.24,0-.25.43,0,.43h0c9.55.14,20-.39,26.53-8.32C46.28,72.07,46,71.83,45.82,72Z"/><path class="cls-2" d="M49.49,67.77a1.89,1.89,0,0,0-1,1.22.26.26,0,0,0,.15.34A.25.25,0,0,0,49,69.2h0l.75-1a.25.25,0,0,0,0-.34A.23.23,0,0,0,49.49,67.77Z"/><path class="cls-2" d="M65.65,82.05A38,38,0,0,1,62,84a.31.31,0,0,0-.14.41.32.32,0,0,0,.39.16h0a10.54,10.54,0,0,0,3.61-2.09C66.07,82.29,65.91,81.9,65.65,82.05Z"/><path class="cls-2" d="M60.83,89.62a34.79,34.79,0,0,0,8-3.44c.21-.14,0-.48-.22-.38a82.49,82.49,0,0,1-8,3.46C60.44,89.34,60.59,89.69,60.83,89.62Z"/><path class="cls-2" d="M58.32,90.41a.26.26,0,0,0-.25-.15,23.36,23.36,0,0,0-3.19.83c-.3.1-.16.64.16.56h0a23.25,23.25,0,0,0,3.16-.91A.25.25,0,0,0,58.32,90.41Z"/><path class="cls-2" d="M78.37,81A47.16,47.16,0,0,1,58,91.69c-.32.08-.26.6.07.52h0A44.62,44.62,0,0,0,78.71,81.43C79,81.19,78.64,80.74,78.37,81Z"/><path class="cls-2" d="M52.55,51.51c-7.13,3.65-9.1,14.58-14.08,20.37-.22.26.18.56.41.32h0c3.14-3.26,5-6.67,7-10.65,2.65-5.31,3.89-9.27,11.15-10.63,3.24-.6,6.67.14,9.92.18,6,.09,11.53-1.05,13.77-7.14a.21.21,0,1,0-.39-.16C75.26,55.71,61.32,47,52.55,51.51Z"/><path class="cls-2" d="M75,51.33A.22.22,0,0,0,75,51a.22.22,0,0,0-.3,0,12.52,12.52,0,0,1-6.26,2.15s0,0-.06,0c-5.07-.5-11.47-1.71-15.83,1.66-5.18,4-6.6,11.14-11.15,15.74-1.17,1.19-2.2,2.52-3.47,3.63a41,41,0,0,1-4.87,3.42c-.21.13,0,.46.2.36h0a21.61,21.61,0,0,0,8.53-6.63.22.22,0,0,0,.08,0h0c4.17-1.73,6.56-5.2,9.26-8.65C55.72,56.79,60.84,55,67.8,54A9.56,9.56,0,0,0,75,51.33Zm-20.65,6.8c-4.42,3.93-6.75,9.5-12.07,12.41.07-.13.16-.24.23-.37s0,0,0-.07c3.17-3.25,4.53-7.45,7.14-11.16,4.33-6.14,9.9-5.59,16.22-5.37C61.66,54.13,57.56,55.25,54.32,58.13Z"/><path class="cls-2" d="M57,54.56c-4.3.56-7,5-8.91,8.47-.11.21.24.42.37.22h0a20.15,20.15,0,0,1,8.72-8,.34.34,0,0,0,.18-.46A.35.35,0,0,0,57,54.56Z"/><path class="cls-2" d="M37.44,70.94c.17-.2-.13-.52-.33-.33-6.48,6.13-15.57,5.47-23.86,6.15-.33,0-.26.53.07.51h0C21.32,76.94,31.72,77.63,37.44,70.94Z"/><path class="cls-2" d="M23.15,74.91h0A19.36,19.36,0,0,0,35,70.78a.25.25,0,0,0,0-.34.24.24,0,0,0-.34,0,23.63,23.63,0,0,1-11.61,4.07C22.8,74.48,22.87,74.92,23.15,74.91Z"/><path class="cls-2" d="M38.46,69.16a37.94,37.94,0,0,0,2.88-5.46.21.21,0,0,0-.13-.27.21.21,0,0,0-.25.1c-.94,1.82-1.88,3.62-2.9,5.4C37.94,69.15,38.32,69.38,38.46,69.16Z"/><path class="cls-2" d="M34.9,48.51c-.15.19.15.41.3.23h0c3.28-3.72,6.69-7.35,11.42-9.16,3.41-1.31,7-2,9.81-4.48.27-.23,0-.67-.34-.44-3.72,2.89-8.38,3.28-12.38,5.59C40.16,42.29,37.51,45.41,34.9,48.51Z"/><path class="cls-2" d="M49.94,39.6a30.26,30.26,0,0,0-7.85,3.57c-.21.13,0,.51.22.38h0A68.39,68.39,0,0,1,50.05,40C50.27,39.92,50.18,39.54,49.94,39.6Z"/><path class="cls-2" d="M64.32,25.47c2.68-4.53,1.51-10.14,3.31-15a.24.24,0,0,0-.14-.31.25.25,0,0,0-.3.12c-2.41,4.66-.9,10.23-3.26,15C63.82,25.47,64.19,25.7,64.32,25.47Z"/><path class="cls-2" d="M67.8,16.6h0a19.94,19.94,0,0,1,.56-2.34.21.21,0,0,0-.12-.29.22.22,0,0,0-.29.11,4.88,4.88,0,0,0-.56,2.52C67.4,16.84,67.76,16.81,67.8,16.6Z"/><path class="cls-2" d="M17.75,60.38a46,46,0,0,1-7.23,1.52.23.23,0,0,0,.05.45,21.72,21.72,0,0,0,7.3-1.51C18.11,60.73,18,60.32,17.75,60.38Z"/><path class="cls-2" d="M13.27,69.27h0c5.28-.26,11.3-2.19,15.27-5.78a.25.25,0,0,0,0-.35.25.25,0,0,0-.33,0c-4.87,3-9.28,5-15,5.68C12.88,68.8,13,69.29,13.27,69.27Z"/><path class="cls-2" d="M32,60.6a.22.22,0,0,0,0-.32.23.23,0,0,0-.29,0c-.67.46-1.29,1-1.92,1.46-.26.22.05.63.32.42h0C30.78,61.63,31.41,61.14,32,60.6Z"/><path class="cls-2" d="M29.27,65.58c.2-.16,0-.55-.24-.42-3.12,1.67-6.06,3.56-9.29,5a.23.23,0,0,0-.13.32.25.25,0,0,0,.32.14h0A36.66,36.66,0,0,0,29.27,65.58Z"/><path class="cls-2" d="M39.05,54.22c-.2.21.14.57.36.36h0a59.75,59.75,0,0,1,10.56-8c.21-.13,0-.48-.22-.37A35.7,35.7,0,0,0,39.05,54.22Z"/><path class="cls-2" d="M47.48,49.12c-.53.36-1,.74-1.56,1.12a.23.23,0,0,0,.28.36h0c.53-.36,1-.74,1.55-1.13a.21.21,0,0,0,0-.31A.23.23,0,0,0,47.48,49.12Z"/><path class="cls-2" d="M57.26,42.66h0A20.44,20.44,0,0,0,68.07,36c.16-.19-.12-.49-.31-.31a25.85,25.85,0,0,1-10.6,6.56C57,42.35,57.05,42.72,57.26,42.66Z"/><path class="cls-2" d="M64.22,41h0a7.56,7.56,0,0,0,2.55-1.86c.17-.2-.13-.5-.32-.33A11.41,11.41,0,0,1,64,40.46C63.71,40.61,63.91,41.1,64.22,41Z"/><path class="cls-2" d="M72.19,28c2.81-3.9,3.51-8.73,3.43-13.45,0-.28-.47-.28-.49,0-.3,4.67-.64,9.14-3.34,13.14C71.61,27.94,72,28.25,72.19,28Z"/><path class="cls-2" d="M76.12,21.41a.25.25,0,0,0,.32-.13h0a8.5,8.5,0,0,0,.61-4.37c0-.27-.42-.2-.41.06A11.08,11.08,0,0,1,76,21.08.26.26,0,0,0,76.12,21.41Z"/><path class="cls-2" d="M60.2,49.59h0a18.21,18.21,0,0,0,7.73-1.15c.24-.1.14-.53-.13-.47a39,39,0,0,1-7.6,1.13C59.93,49.11,59.92,49.57,60.2,49.59Z"/><path class="cls-2" d="M70.05,49.54h0a12.3,12.3,0,0,0,9.19-7.23.26.26,0,0,0-.15-.35.28.28,0,0,0-.35.14c-2,3.46-4.77,6-8.75,7C69.73,49.18,69.77,49.6,70.05,49.54Z"/><path class="cls-2" d="M71.86,44.17c-.24.16,0,.51.27.36h0c5.12-3.38,7.5-9.13,8.42-15,.06-.32-.42-.37-.5-.06C78.62,35.21,77,40.63,71.86,44.17Z"/></svg>