<svg id="Layer_1" data-name="Layer 1" xmlns="http://www.w3.org/2000/svg" viewBox="0 0 15.89 16.12"><defs><style>.cls-1{fill:#02203d;}.cls-2{fill:#0168ff;fill-rule:evenodd;}</style></defs><circle class="cls-1" cx="8.45" cy="8.16" r="7.52"/><path class="cls-2" d="M5.41,1.69a14.9,14.9,0,0,1,1.64-.13A4.44,4.44,0,0,0,5.41,1.69Z"/><path class="cls-2" d="M15.67,6.12C14.65,2,9.09-1.54,5,.7a.52.52,0,0,0-.17.13A4.15,4.15,0,0,1,8,1.07H8a.35.35,0,0,1,.13.5A6.79,6.79,0,0,1,13.37,4a10.05,10.05,0,0,0-1.23.61c-.36.21-.15.79.25.61a10.9,10.9,0,0,0,1.35-.71,6.61,6.61,0,0,1,.4.75h-.05l-2,1.07c-.34.17-.12.73.23.55.68-.35,1.35-.7,2-1l0,0a7.13,7.13,0,0,1,.33,1.42A11.18,11.18,0,0,0,13.16,8c-.33.19,0,.73.32.57a11.74,11.74,0,0,0,1.27-.66A7,7,0,0,1,10,14.74a7.26,7.26,0,0,1-7.25-2,1.91,1.91,0,0,0,1.68-.91c.2-.29-.15-.71-.45-.46a2.34,2.34,0,0,1-1.37.71.32.32,0,0,0-.25.2,6,6,0,0,1-.49-.71,13,13,0,0,0,2.07-1.13c.26-.18,0-.57-.27-.46a12,12,0,0,0-2.1,1,6.55,6.55,0,0,1-.28-.78c.34-.11.68-.21,1-.33s.16-.59-.13-.51l-1,.29a.29.29,0,0,0,0-.09C.54,6.44,2.29,2.51,5.41,1.69H5.29a.54.54,0,0,1-.53-.3A.54.54,0,0,1,4.85.83C2,1.75-.06,5.67,0,8.53A8,8,0,0,0,9.26,16C13.81,15.38,16.75,10.52,15.67,6.12Z"/><path class="cls-2" d="M7.84,1.68a.25.25,0,0,0,.3-.11c-.36,0-.73,0-1.09,0A5.6,5.6,0,0,1,7.84,1.68Z"/><path class="cls-2" d="M4.79,5.28h0c.74-.45,1.46-.94,2.15-1.46.25-.19,0-.68-.29-.5A23.22,23.22,0,0,0,4.41,4.78C4.08,5,4.46,5.49,4.79,5.28Z"/><path class="cls-2" d="M5.2,6.14a3.62,3.62,0,0,0-1,.47c-.44.24-.16,1,.31.74h0a5.37,5.37,0,0,0,.93-.54.28.28,0,0,0,.14-.06h0c.94-.7,1.92-1.31,2.79-2.09a.33.33,0,0,0,.06-.45.32.32,0,0,0-.45-.06,32.22,32.22,0,0,0-2.55,2A.41.41,0,0,0,5.2,6.14Z"/><path class="cls-2" d="M6.51,8h0c.88-.57,1.79-1.12,2.62-1.75.27-.2,0-.68-.29-.51C7.9,6.23,7,6.85,6.11,7.45,5.78,7.68,6.16,8.18,6.51,8Z"/><path class="cls-2" d="M6,11.67c-.31.2,0,.67.36.47h0c1.06-.66,2.13-1.3,3.15-2,.31-.21,0-.63-.35-.46C8.12,10.3,7.08,11,6,11.67Z"/><path class="cls-2" d="M8.86,12.14A9.15,9.15,0,0,0,7.7,13a.33.33,0,0,0,0,.47.34.34,0,0,0,.45.06,12.39,12.39,0,0,0,1.12-.94.29.29,0,0,0,0-.42A.3.3,0,0,0,8.86,12.14Z"/><path class="cls-2" d="M10.72,11.78h0a30.9,30.9,0,0,0,2.67-1.7c.25-.19,0-.65-.28-.49a28.7,28.7,0,0,0-2.75,1.71C10,11.52,10.4,12,10.72,11.78Z"/><path class="cls-2" d="M11.43,12.21a5.59,5.59,0,0,0-.83,1,.37.37,0,0,0,.07.5.36.36,0,0,0,.49-.07h0a6.33,6.33,0,0,0,.74-1,.3.3,0,0,0-.47-.37Z"/><path class="cls-2" d="M5.94,10.79c.51-.26,1-.52,1.52-.8.32-.18.12-.72-.23-.55l-1.54.77c-.35.19-.11.77.25.58Z"/></svg>