<svg id="Layer_1" data-name="Layer 1" xmlns="http://www.w3.org/2000/svg" viewBox="0 0 208.14 119.88"><defs><style>.cls-1{fill:#02203d;}.cls-2{fill:#0168ff;fill-rule:evenodd;}</style></defs><circle class="cls-1" cx="106.8" cy="60.31" r="59.33"/><path class="cls-2" d="M206.72,88.53c1.59,10.11-13.87,13-25.32,13.34-18.61-2.37-36.78-5.09-54.86-9.1Q115.67,90.12,105,86.88A477.08,477.08,0,0,1,24.82,51.52c-3.13-2.18-6.18-4.5-9.09-7-2.36-2.07-7.34-5.16-8.44-8.37C2.87,23.25,11.77,22.85,18.92,21.89c13.66-1.83,27.43.06,40.84,2.67-1,1.32-2,2.66-2.92,4.06,0,0,0,0,0,0-2.29-.23-4.6-.28-6.9-.38-.33,0-.4.48-.08.5h0c2.26.11,4.52.27,6.78.27-.32.49-.64,1-1,1.49-4.09-.13-12.79.23-15,4.56-2.32,4.48,3.75,9.54,7.4,12.52a.2.2,0,0,0,0,.11c-.07.24-.15.48-.22.72-.24.89,1.07,1.48,1.35.57l.12-.37.16.13a.28.28,0,0,0,.24.08,249.81,249.81,0,0,0,99.83,35.75.33.33,0,0,0,.35-.31.29.29,0,0,0-.07-.22,35.93,35.93,0,0,0,8.48-.24,1,1,0,0,0,.4.4c-2.44.11-4.88.11-7.27,0-.39,0-.49.58-.08.62h0A60.41,60.41,0,0,0,164,84.58c2.78-.36,6.49-.71,8.56-2.9,4.55-4.78-2.56-9.81-5.62-12.71-.31-.3-.77.19-.52.51,1.33,1.72,3.2,2.9,4.55,4.58,1.73,2.17,3.12,5,.24,7.45a9.75,9.75,0,0,1-4.07,1.59,47.68,47.68,0,0,1-7.19,1,1.22,1.22,0,0,0,.29-.37A54.6,54.6,0,0,0,165.75,57c13.82,8.84,28.46,15.14,39.3,27.93a.27.27,0,0,0,.38,0,.28.28,0,0,0,0-.37c-8.65-13.1-26.12-21.25-39.75-28.12-1.27-23.9-17.4-46.66-41.42-54C99.31-5.07,75.11,5.13,60.22,24a131.8,131.8,0,0,0-30.95-3.64c-6.56.09-19.56-.56-24.12,5.72C.13,33,8.52,41.4,17.28,47.74a.24.24,0,0,0,.1.18h0q7.9,5.46,16.29,10.42h0q6.63,3.91,13.5,7.48h0c0,.53.09,1.06.14,1.59a.32.32,0,0,0-.15.57h0l.21.14c5.08,50,69.35,69.86,102.35,32.12a.55.55,0,0,0,0-.76,243.34,243.34,0,0,0,35.5,3.68.42.42,0,0,0,.29-.73c11.63-.73,25.26-4.09,21.9-14.07C207.25,88,206.66,88.16,206.72,88.53ZM48.35,46.62C44.73,43.39,38.3,38,42.48,34.13c3-2.73,9-3,12.93-3.27A70,70,0,0,0,48.35,46.62Zm68,29.44a.28.28,0,0,0,.08-.15l1.66.64Zm42.37,5.67a39.31,39.31,0,0,1-12.81-.33l1.27.12a.23.23,0,0,0,.16-.06,53.77,53.77,0,0,0,11.75-.57C159,81.17,158.88,81.45,158.75,81.73ZM63.59,22.81a.26.26,0,0,0,.07.11h0a41.39,41.39,0,0,0,16,9.72c.25.09.41-.28.16-.37A47.89,47.89,0,0,1,64,22.47l-.09,0c.3-.34.62-.67.93-1a26.88,26.88,0,0,0,10.61,6.8.23.23,0,0,0,.29-.13.22.22,0,0,0-.11-.29A36.3,36.3,0,0,1,65.2,21C77.91,7.45,95.87-.41,115.87,2.86a55.91,55.91,0,0,1,33.4,18.89,4.21,4.21,0,0,1-2.77.55.23.23,0,0,0-.27.2.23.23,0,0,0,.2.27,4,4,0,0,0,3.23-.56c.31.37.61.76.91,1.14a55.49,55.49,0,0,1-8.84.31.22.22,0,0,0,0,.44,36.34,36.34,0,0,0,9.32-.23c.4.51.78,1,1.16,1.54a44.87,44.87,0,0,1-8,.24.21.21,0,0,0-.24.18s0-.06-.09-.07a18.55,18.55,0,0,0-5.44-.79c-.34,0-.42.52-.08.52h0a25.89,25.89,0,0,1,5.41.72.22.22,0,0,0,.24-.2.23.23,0,0,0,.14.08,30.6,30.6,0,0,0,8.44-.2c.38.54.76,1.07,1.12,1.62-2.77.1-5.55.24-8.31.44-.31,0-.24.46.06.45,2.85-.09,5.71-.22,8.56-.41a57.07,57.07,0,0,1,8.36,42.77,107.21,107.21,0,0,1-18,2c-.28,0-.28.47,0,.48h0a56.9,56.9,0,0,0,17.91-1.87A53.93,53.93,0,0,1,160,78.63a77.6,77.6,0,0,1-13.72.37c-.29,0-.36.42-.07.45h0a50.84,50.84,0,0,0,13.61-.32c-.16.43-.33.86-.51,1.28a83.59,83.59,0,0,1-14.06.38,239.4,239.4,0,0,1-25.34-4.86c-.23-.06-.34.33-.11.4h0a125,125,0,0,0,23.13,4.78s0,0,.06.06h0a35.34,35.34,0,0,0,15.49,1.18c-.08.17-.15.35-.24.53a1.16,1.16,0,0,0-.1.46,48.48,48.48,0,0,1-14-.58.13.13,0,0,0-.16.06Q131.73,80.38,120,77.09a.2.2,0,0,0-.09-.29c-1.85-.75-3.72-1.47-5.59-2.19a.24.24,0,0,0-.29.13.23.23,0,0,0,.12.29h0c-5-1.53-10-3.24-14.87-5.16a.21.21,0,0,0-.16.38l1.72.8a332.71,332.71,0,0,1-51-23l-.28-.27a73.84,73.84,0,0,1,4.12-10.07c1.22.91,2.45,1.79,3.7,2.66l-1.94-1.07c-.34-.19-.57.37-.23.56,3.08,1.74,6.11,3.63,9.29,5.18a.29.29,0,0,0,.13,0A103.79,103.79,0,0,0,83,53.72a.22.22,0,0,0,.16-.4A138.75,138.75,0,0,1,53.93,37.17,71,71,0,0,1,63.59,22.81Zm44.09,67.6c.18,0,.25-.12.23-.26,4.64,1.45,9.28,2.91,14,4.25L119.72,94h0q-3-.77-6.1-1.49c-2.52-.88-5.08-1.68-7.65-2.42C106.53,90.18,107.1,90.31,107.68,90.41Zm-1.45,2.3h0l1,.34-1.76-.51a.16.16,0,0,0-.11-.21c-2.43-.82-4.88-1.6-7.32-2.37a.22.22,0,0,0,0-.08q4.08,1.2,8.21,2.27C106,92.21,105.93,92.6,106.23,92.71Zm-5-.92h0c.72.25,1.45.49,2.18.72-2.71-.79-5.42-1.62-8.12-2.47a.17.17,0,0,0-.11-.09c-.41-.1-.8-.23-1.21-.34-.58-.18-1.17-.36-1.75-.56a.27.27,0,0,0-.2,0,121.59,121.59,0,0,1-12.46-4.34c1.62.55,3.24,1.1,4.88,1.62a.25.25,0,0,0,.32-.3c2.57,1,5.16,1.82,7.79,2.6,0,0,0,0,.06.06h0c2.82.9,5.64,1.81,8.47,2.7A.25.25,0,0,0,101.22,91.79Zm-6.43-4.07c.14-.11.18-.34,0-.42h-.05c1.24.36,2.49.72,3.75,1a.26.26,0,0,0,.19.33h0c3,.71,5.95,1.53,8.88,2.42a.3.3,0,0,0,.13.5h0l3.43.92a.25.25,0,0,0,.17.2h0l1.14.31-1.25-.25a.42.42,0,0,0-.16,0C105.54,91.24,100.13,89.59,94.79,87.72ZM78.11,79.55Q91,84.64,104.35,88.68c-.11.12-.13.32.06.37l1.25.39q-4.38-1.05-8.68-2.33a.23.23,0,0,0-.12-.23c-6.27-2.62-12.66-5-19-7.38Zm12,5.38q-6.63-2.27-13.06-5.07C81.41,81.56,85.75,83.28,90.12,84.93Zm-11.2-3.45s0,0,0,0h0c.78.4,1.59.78,2.38,1.16Q79.5,82,77.67,81.38c-2.16-.9-4.32-1.78-6.5-2.63a.25.25,0,0,0-.12-.23c-1.45-.7-2.92-1.37-4.4-2,1.93.69,3.88,1.31,5.85,1.83a.3.3,0,0,0,.16.22h0C74.72,79.57,76.81,80.54,78.92,81.48ZM60.31,72.73a61.21,61.21,0,0,0,7.47,2.93c1,.34,2,.67,2.93,1,1.24.5,2.49,1,3.74,1.47a94.08,94.08,0,0,1-21.08-8.55.21.21,0,0,0-.19,0c-.38-.25-.74-.53-1.11-.79Q56.12,70.92,60.31,72.73Zm-9-4.79a.26.26,0,0,0-.11.25L50,67.28Zm-2.79-1a33.44,33.44,0,0,0,6,4.41.26.26,0,0,0-.11.12.28.28,0,0,0,.14.33h0c2.89,1.29,5.77,2.61,8.66,3.9l-5.82-2.23a.31.31,0,0,0-.13,0c-2.92-1.61-5.76-3.35-8.56-5.17C48.69,67.81,48.63,67.36,48.56,66.92Zm.4,2.31a61,61,0,0,0,6.87,4.09.28.28,0,0,0-.21.51c5.83,2.49,11.62,5.09,17.52,7.39a.23.23,0,0,0,.3-.13.22.22,0,0,0-.12-.28c-3.69-1.7-7.43-3.28-11.18-4.85,6.19,2.49,12.38,5,18.66,7.23a.22.22,0,0,0,.29-.12c.83.27,1.65.54,2.47.79a.22.22,0,0,0,.22-.06c2.18,1,4.4,1.86,6.66,2.64a.24.24,0,0,0,.14.33h0l.2.07c-4.77-1.5-9.52-3-14.23-4.71-.29-.1-.48.33-.19.44h0l.48.18a.19.19,0,0,0,.09.09h0c1.17.53,2.35,1,3.53,1.52q-4.81-1.77-9.64-3.51a.15.15,0,0,0-.11-.16C69.12,80.16,67.53,79.61,66,79c-2.38-1-4.78-2-7.17-2.93a.17.17,0,0,0-.08-.21c-3.09-1.85-6.27-3.56-9.46-5.24C49.15,70.18,49.05,69.71,49,69.23Zm1.18,4.94c1,.71,2.13,1.4,3.23,2a.24.24,0,0,0,.13.15l.59.26c.7.4,1.42.78,2.14,1.14a.23.23,0,0,0,.1.12h0c.8.41,1.6.79,2.41,1.16a.26.26,0,0,0,.15.14h0l1.83.73c.9.38,1.81.74,2.72,1.08q11.75,4.59,23.79,8.34l1.66.71a.2.2,0,0,0,.24-.13q2.41.73,4.84,1.44,3,1,6,2l-6.34-1.63h-.13L85,88.85c-.31-.1-.51.36-.2.47h0l7.25,2.45C82.55,89,73.13,86,63.88,82.33a.25.25,0,0,0-.31.31l-3.76-1.49q-4.64-2.3-9.07-5C50.53,75.51,50.33,74.84,50.14,74.17Zm94.51,28.54c-6.63-.9-13.15-1.89-19.69-3.38-.29-.06-.43.42-.14.5h0a97.53,97.53,0,0,0,19.09,3.43q-1.71,1.29-3.45,2.52c-4.07-.42-8.13-.76-12.18-1.34a.25.25,0,0,0-.27.25.26.26,0,0,0,.2.27h0a89.78,89.78,0,0,0,11.58,1.3c-9,6.26-18.42,11-28.9,12.19a.26.26,0,0,0-.25-.22,47.88,47.88,0,0,1-13.12-1.35c-.28-.07-.42.42-.14.5a33.11,33.11,0,0,0,6.36,1.31,48.77,48.77,0,0,1-9.3-1.35,58.73,58.73,0,0,1-18.38-8A30,30,0,0,0,81,110.89c.24,0,.35-.35.12-.41a37.17,37.17,0,0,1-7.89-3.16,63.44,63.44,0,0,1-17.3-19.48c.45.21.89.43,1.36.61.26.1.53-.29.26-.44-.66-.39-1.35-.75-2-1.07l-.1,0a61.49,61.49,0,0,1-4.41-10c1.25.82,2.54,1.59,3.84,2.32a.2.2,0,0,0-.16.12.23.23,0,0,0,.12.29c1.45.58,2.9,1.18,4.35,1.77.69.31,1.38.63,2.08.92a.23.23,0,0,0,.18,0c2.19.89,4.39,1.76,6.6,2.59a.22.22,0,0,0,.28-.11.21.21,0,0,0-.11-.28l-.72-.3A229.75,229.75,0,0,0,97,93.7a.22.22,0,0,0,.25-.18c2.52.83,5,1.66,7.59,2.46.26.08.43-.3.17-.39l-2.87-1c7.18,2,14.36,4,21.61,5.62a.26.26,0,0,0,.13-.49q-4.58-1.38-9.19-2.62c4.4.87,8.79,1.8,13.22,2.52.3,0,.35-.4.06-.47-3-.67-6.08-1.25-9.14-1.81a.19.19,0,0,0-.09-.33l-10.19-2.35c-.24,0-.29.33,0,.38h0l8.75,2-3.3-.61a.24.24,0,0,0-.21.41c-1.49-.39-3-.79-4.47-1.17-4.94-1.66-9.9-3.23-14.88-4.75q-4.84-1.58-9.68-3.19L76,83.89a.25.25,0,0,0-.32.15.24.24,0,0,0,.13.3L79.61,86q-4.89-1.67-9.76-3.4c.47.14.92.3,1.39.43.26.08.44-.3.17-.4-5.37-1.91-10.72-3.82-16-6Q52.61,75,49.89,73.28c-.16-.61-.32-1.23-.46-1.86,2.44,1.38,4.9,2.75,7.4,4-1.85-.78-3.7-1.59-5.52-2.43-.31-.15-.51.34-.2.49h0q2.32,1.13,4.7,2.16A.24.24,0,0,0,56,76c7.73,3.06,15.52,6,23.4,8.68a.25.25,0,0,0-.16.47h0a90.35,90.35,0,0,0,13.38,4.61c6.33,2.09,12.68,4.09,19.15,5.64.2.05.3-.22.19-.35,2,.53,4,1,6.06,1.44,3.58.93,7.17,1.83,10.77,2.65.24.06.36-.36.12-.42a79.33,79.33,0,0,0,17.34,2.81Zm-19.19-4.92.21,0,1.6.45Zm23.42,1.6-2.09,1.66a168.74,168.74,0,0,1-17.88-3A.2.2,0,0,0,129,98a.25.25,0,0,0-.19-.26q-4.73-.76-9.37-1.71c-4.15-1.15-8.27-2.31-12.36-3.65l3.07.78a.19.19,0,0,0,.18,0l.54.14a.3.3,0,0,0,.22.17c4.09.92,8.19,1.87,12.34,2.53l1.9.49a.21.21,0,0,0,.24-.16c1.38.33,2.76.65,4.15.94,0,0,.05,0,.07,0a107,107,0,0,0,15.12,2.22.27.27,0,0,0,.29-.25.28.28,0,0,0-.22-.29l-9.24-1.37a.21.21,0,0,0-.16-.21c-4.4-1-8.82-1.89-13.24-2.79.2,0,.3-.31.07-.39L120,93.34c4.16,1.11,8.33,2.2,12.51,3.23.24.06.35-.35.11-.42-1-.28-2-.54-2.95-.81,1.19.27,2.37.52,3.56.77q7.81,1.83,15.7,3.24Zm-20.79-3.17,1.62.33-1-.16Z"/><path class="cls-2" d="M133.37,71.28a.25.25,0,0,0-.21-.27,158.28,158.28,0,0,1-39-10.85.3.3,0,0,0-.4.16.32.32,0,0,0,.16.41A123.46,123.46,0,0,0,133.1,71.5.25.25,0,0,0,133.37,71.28Z"/><path class="cls-2" d="M102.82,66.59c-.3-.08-.51.38-.19.47h0a180.76,180.76,0,0,0,24,5.76c.29.05.34-.39.06-.45C118.65,70.66,110.7,68.89,102.82,66.59Z"/><path class="cls-2" d="M131,73.94a76.48,76.48,0,0,0,29.15.88.27.27,0,0,0,.21-.32.25.25,0,0,0-.28-.21,128.06,128.06,0,0,1-29-.86C130.7,73.38,130.64,73.87,131,73.94Z"/><path class="cls-2" d="M133.94,72.12a.32.32,0,0,0,.28.36h0a66.77,66.77,0,0,0,6.77.77.24.24,0,0,0,.26-.22.23.23,0,0,0-.19-.25,64.22,64.22,0,0,0-6.76-.93A.33.33,0,0,0,133.94,72.12Z"/><path class="cls-2" d="M156.54,69.64c-3.67,0-7.39.44-11,.74-.38,0-.3.61.08.58h0c3.64-.23,7.36-.28,11-.83C156.81,70.09,156.83,69.65,156.54,69.64Z"/><path class="cls-2" d="M140.74,69.41c-1.55-.08-3.1-.13-4.66-.18-.29,0-.36.45-.06.46h0c1.56,0,3.11.1,4.66.12C140.93,69.81,141,69.42,140.74,69.41Z"/><path class="cls-2" d="M83.55,55.53a.28.28,0,0,0,.16.37h0a60.69,60.69,0,0,0,5.79,2.38.24.24,0,0,0,.31-.12.24.24,0,0,0-.13-.31,59.57,59.57,0,0,0-5.75-2.47A.28.28,0,0,0,83.55,55.53Z"/><path class="cls-2" d="M92.33,61.37c.22.06.33-.32.11-.39a45.75,45.75,0,0,1-11.31-5.45c-.25-.17-.53.19-.29.36A36.87,36.87,0,0,0,92.33,61.37Z"/><path class="cls-2" d="M104.65,62.16h0a104.84,104.84,0,0,0,28.25,5.49.25.25,0,0,0,.06-.5,147.59,147.59,0,0,1-28.1-5.47C104.54,61.58,104.32,62.06,104.65,62.16Z"/><path class="cls-2" d="M137.44,64.91a44.1,44.1,0,0,1-8.92-1.34c-.29-.08-.42.42-.14.51h0a26.52,26.52,0,0,0,9.06,1.29.24.24,0,0,0,.19-.27A.22.22,0,0,0,137.44,64.91Z"/><path class="cls-2" d="M158.26,66.83c-6.28.74-12.29,1-18.54-.16-.33-.06-.39.43-.07.5h0c6.1,1.26,12.57,1.64,18.67.13a.25.25,0,0,0,.19-.28A.23.23,0,0,0,158.26,66.83Z"/><path class="cls-2" d="M55.86,37.45c2.88,1.7,5.71,3.61,8.71,5.08a.23.23,0,0,0,.32-.13.31.31,0,0,0,0-.1,113.27,113.27,0,0,0,19.39,8.85A.24.24,0,0,0,84.6,51a.23.23,0,0,0-.12-.3A201.72,201.72,0,0,1,58.62,38a.24.24,0,0,0-.34.12l-2.12-1.22C55.87,36.76,55.56,37.27,55.86,37.45Z"/><path class="cls-2" d="M69.14,41.48a.26.26,0,0,0-.2.48q4.78,2.49,9.8,4.51a.23.23,0,0,0,.29-.12.22.22,0,0,0-.12-.29A105.9,105.9,0,0,0,69.14,41.48Z"/><path class="cls-2" d="M94.89,63.66a20.36,20.36,0,0,1,4.92,2c.22.12.43-.23.22-.38A13.68,13.68,0,0,0,95,63.19C94.65,63.12,94.59,63.59,94.89,63.66Z"/><path class="cls-2" d="M80.89,57.47c-1.83-1-3.73-1.95-5.6-2.91-.25-.13-.43.28-.17.41h0c1.86,1,3.71,2,5.61,2.88C81,58,81.11,57.6,80.89,57.47Z"/><path class="cls-2" d="M77.31,53.91h0c1,.47,1.88,1,2.85,1.36.26.11.41-.27.17-.4-.92-.52-1.87-1-2.82-1.42C77.22,53.3,77,53.77,77.31,53.91Z"/><path class="cls-2" d="M85.6,54.33c4.48,2,9,4,13.64,5.69a.22.22,0,0,0,.28-.13.21.21,0,0,0-.11-.27C95,57.49,90.35,55.69,85.78,53.9a.23.23,0,0,0-.3.13.24.24,0,0,0,.12.3Z"/><path class="cls-2" d="M101.28,58.19c-1.4-.5-2.82-.95-4.23-1.4-.31-.1-.52.38-.2.48h0c1.41.45,2.83.9,4.26,1.31C101.37,58.65,101.54,58.28,101.28,58.19Z"/><path class="cls-2" d="M135.35,77.4c-.34-.06-.41.48-.07.54h0c3.53.63,7.07,1.39,10.63,1.81a.22.22,0,0,0,.24-.2.21.21,0,0,0-.18-.24C142.48,78.49,138.89,78,135.35,77.4Z"/><path class="cls-2" d="M66,70.35a282.61,282.61,0,0,0,62.21,19.54c.3.06.36-.41.06-.48A323.81,323.81,0,0,1,66.21,69.85a.28.28,0,0,0-.35.15.27.27,0,0,0,.14.35Z"/><path class="cls-2" d="M96.25,78.22h0a30.51,30.51,0,0,0,11.58,3.56.24.24,0,1,0,.07-.47,46.36,46.36,0,0,1-11.44-3.58C96.15,77.58,96,78.06,96.25,78.22Z"/><path class="cls-2" d="M183.61,99c6-.23,18.27.68,19.8-7.1.09-.46-.59-.53-.7-.1-2.64,10.1-31.71,6.28-37.38,5.71-11.46-1.18-22.72-3.6-34-6.11-.33-.07-.39.44-.07.52h0C148.45,96.06,165.87,99.64,183.61,99Z"/><path class="cls-2" d="M8.09,27.23C2.85,43.39,41.6,58.89,51.64,64c.3.15.47-.31.19-.47C42.44,58,4.06,43,8.59,27.44,8.68,27.11,8.19,26.89,8.09,27.23Z"/><path class="cls-2" d="M53.57,64.34c-.31-.18-.66.26-.35.45h0a15.36,15.36,0,0,0,7.29,2.52.24.24,0,0,0,.26-.22.23.23,0,0,0-.2-.26A20.58,20.58,0,0,1,53.57,64.34Z"/><path class="cls-2" d="M42,23.61c-10.25-1.94-21.31-1-31.29,1.87-.29.08-.16.57.13.51h0c10.5-2.48,20.37-2.8,31.1-1.91a.24.24,0,0,0,.24-.23A.25.25,0,0,0,42,23.61Z"/><path class="cls-2" d="M10,33.63c1.94,4.66,7,8.41,11.56,10.23a.24.24,0,0,0,.31-.15.23.23,0,0,0-.12-.3A27.33,27.33,0,0,1,13,36.81c-1.49-1.76-3.28-4.13-2.58-6.6.57-2,3.78-2.82,5.52-3.39a.26.26,0,0,0-.14-.49h0C12.13,27.07,8.22,29.36,10,33.63Z"/><path class="cls-2" d="M77.09,71C61.22,64.52,45.6,57.81,30.42,49.83c-.27-.14-.45.29-.18.43h0A339.75,339.75,0,0,0,76.88,71.45C77.21,71.56,77.42,71.09,77.09,71Z"/><path class="cls-2" d="M78.42,72.5h0c3.66,1.28,7.34,2.43,11.07,3.47.28.07.48-.33.19-.43C86,74.23,82.37,73,78.64,72,78.3,71.88,78.07,72.37,78.42,72.5Z"/><path class="cls-2" d="M177.67,96.88a.25.25,0,0,0-.18-.24c-22.43-2.92-44.18-7-65.8-13.79-.29-.09-.49.35-.19.44h0c21.43,6.94,43.43,12,65.92,13.83A.25.25,0,0,0,177.67,96.88Z"/><path class="cls-2" d="M173.15,63.3c-.92-.52-1.88-1-2.82-1.44-.32-.16-.54.36-.22.52h0c.94.47,1.87,1,2.85,1.36C173.25,63.87,173.41,63.45,173.15,63.3Z"/><path class="cls-2" d="M176.25,65.27c-.3-.14-.5.34-.2.48h0a181.78,181.78,0,0,1,16.25,9.39c.26.16.54-.17.3-.36A74.2,74.2,0,0,0,176.25,65.27Z"/><path class="cls-2" d="M175.94,69.32c.25.06.36-.35.12-.44a5.74,5.74,0,0,1-2.55-1.79c-.24-.3-.71.06-.46.36h0A5,5,0,0,0,175.94,69.32Z"/><path class="cls-2" d="M185.32,75.52a31.76,31.76,0,0,0-5.7-4.49c-.27-.18-.59.22-.31.41A67,67,0,0,1,185,75.85C185.2,76,185.51,75.72,185.32,75.52Z"/><path class="cls-2" d="M179.1,90.78a.24.24,0,0,0,.15.25c4,1.51,10.31,2.23,14.32.25,3.48-1.72,2.19-5.25.42-7.78-.16-.23-.48,0-.35.27h0a15.09,15.09,0,0,1,1.1,2.11,4.58,4.58,0,0,1-1.43,4.78c-1.09.81-3.41.83-4.69.91a33.6,33.6,0,0,1-9.26-1A.24.24,0,0,0,179.1,90.78Z"/><path class="cls-2" d="M189.62,95.68c3.25-.26,9.65-.67,11-4.41,1.76-4.81-4.16-10-7.71-12-.22-.13-.44.25-.22.38h0c3.41,2.11,9.52,7.52,6.71,11.84-2,3.09-6.57,2.82-9.85,3.67a.27.27,0,0,0,.07.53Z"/><path class="cls-2" d="M20.74,25.91a59.13,59.13,0,0,0,7.53,0,.22.22,0,0,0,.19-.25.21.21,0,0,0-.18-.18,57.5,57.5,0,0,0-7.54-.1.25.25,0,0,0-.21.29.25.25,0,0,0,.21.21Z"/><path class="cls-2" d="M15.12,35.56C18.76,40.17,26,43.82,30.91,47a104.08,104.08,0,0,0,18,9.53.23.23,0,0,0,.3-.14.22.22,0,0,0-.12-.28A134.55,134.55,0,0,1,26.87,43.47c-2.63-1.79-5.95-3.58-8.16-5.87-2.45-2.52-3.78-6.22,0-8.19,1.56-.81,5.22-.81,6.85-1.08a.23.23,0,0,0,.2-.26.24.24,0,0,0-.25-.2h0C21.09,28.43,9.53,28.47,15.12,35.56Z"/><path class="cls-2" d="M90.83,71a.21.21,0,0,0-.11-.26C80.52,66.34,70.4,62,60.5,56.9c-.28-.14-.45.29-.18.44A194.61,194.61,0,0,0,90.56,71.16.21.21,0,0,0,90.83,71Z"/><path class="cls-2" d="M99.83,74.59c.27.06.39-.37.13-.47-1-.39-2-.67-3-1-.32-.1-.53.38-.21.49h0C97.8,74,98.79,74.34,99.83,74.59Z"/><path class="cls-2" d="M127.13,83c.28,0,.33-.36.06-.42a190.17,190.17,0,0,1-23.55-6.77c-.27-.1-.44.3-.18.4h0A140.28,140.28,0,0,0,127.13,83Z"/><path class="cls-2" d="M35.88,35.05c-1.32,4.17,3.36,7.85,6.27,10a.24.24,0,0,0,.33-.06.25.25,0,0,0,0-.32C39.62,42.22,34.62,38.4,37,34.22c1.88-3.32,5.81-3.74,9.22-4.23a.27.27,0,0,0,.21-.32.27.27,0,0,0-.28-.21h0C42.2,29.78,37.25,30.73,35.88,35.05Z"/><path class="cls-2" d="M33.73,33.63a3.41,3.41,0,0,0-.17,4.81,3.45,3.45,0,0,0,.77.61c.23.13.44-.24.23-.39A3,3,0,0,1,34.08,34C34.27,33.78,33.93,33.44,33.73,33.63Z"/><path class="cls-2" d="M50.27,24.64a18.73,18.73,0,0,1,5.31.71c.25.07.35-.33.12-.42a12.11,12.11,0,0,0-5.49-.76c-.31,0-.24.48.06.47Z"/><path class="cls-2" d="M167.3,85.91a134.35,134.35,0,0,1-29.84-2c-.28,0-.34.39-.05.45a100.16,100.16,0,0,0,30,2C167.7,86.39,167.62,85.9,167.3,85.91Z"/><path class="cls-2" d="M173.25,83c-.28.14-.1.61.2.47h0c3.12-1.5,4.35-6.61,1.23-8.8-.21-.15-.5.11-.33.32C176.43,77.44,176.4,81.4,173.25,83Z"/><path class="cls-2" d="M99.66,96.69h0a167.8,167.8,0,0,0,38.94,7.66c.3,0,.36-.44.06-.47A202.45,202.45,0,0,1,99.9,96.11C99.53,96,99.28,96.56,99.66,96.69Z"/><path class="cls-2" d="M101.47,98.33c.28.08.47-.34.18-.44C92.51,94.76,83.22,92,74,89.12c-.31-.1-.51.37-.2.47C83,92.53,92.18,95.63,101.47,98.33Z"/><polygon class="cls-2" points="73.79 89.59 73.79 89.59 73.79 89.59 73.79 89.59"/><path class="cls-2" d="M110.48,102.16A345.24,345.24,0,0,1,74.63,91.23a.25.25,0,0,0-.19.46h0a245.06,245.06,0,0,0,36,10.93C110.72,102.68,110.77,102.23,110.48,102.16Z"/><path class="cls-2" d="M125.21,105c.25.06.37-.36.12-.43-4.14-1.27-8.33-2.38-12.51-3.51-.3-.08-.44.43-.14.51h0C116.84,102.77,121,104,125.21,105Z"/><path class="cls-2" d="M67.24,86.91q1.8.77,3.63,1.47a.22.22,0,0,0,.28-.13A.22.22,0,0,0,71,88c-1.66-.77-3.34-1.48-5-2.19,1,.31,2.07.61,3.13.88.24,0,.36-.36.12-.44a89.16,89.16,0,0,1-13.68-5.16c-1.09-.61-2.17-1.24-3.23-1.9-.27-.16-.58.2-.31.4h0A47.37,47.37,0,0,0,67,87,.25.25,0,0,0,67.24,86.91Zm-2.92-1.57-1.16-.49c.41.14.81.29,1.22.42C64.36,85.29,64.33,85.31,64.32,85.34Z"/><path class="cls-2" d="M68.65,89.26a133.12,133.12,0,0,1-14.59-6.13c-.33-.17-.54.36-.22.54h0a66.46,66.46,0,0,0,14.68,6C68.79,89.79,68.9,89.35,68.65,89.26Z"/><path class="cls-2" d="M75.06,93.85a66.66,66.66,0,0,1-12.4-4.52c-.3-.15-.48.31-.2.46h0A42.43,42.43,0,0,0,75,94.26C75.27,94.31,75.32,93.92,75.06,93.85Z"/><path class="cls-2" d="M69.74,89.92h0c1.12.61,2.23,1.24,3.37,1.81.27.13.42-.26.18-.4-1.1-.65-2.24-1.24-3.36-1.85C69.65,89.33,69.46,89.77,69.74,89.92Z"/><path class="cls-2" d="M85.53,97.56c-2.76-1-5.57-1.91-8.36-2.81-.31-.1-.51.35-.2.46h0c2.79.94,5.57,1.9,8.4,2.74C85.62,98,85.79,97.66,85.53,97.56Z"/><path class="cls-2" d="M78,97.24a41.06,41.06,0,0,0,16.67,4.92.23.23,0,0,0,.25-.2.22.22,0,0,0-.18-.24A57.58,57.58,0,0,1,78.18,96.8c-.29-.13-.46.29-.2.44Z"/><path class="cls-2" d="M112.19,103.43a.26.26,0,0,0,.12.29A51,51,0,0,0,128.24,108a.24.24,0,0,0,.26-.22.24.24,0,0,0-.2-.26,70.27,70.27,0,0,1-15.79-4.27A.27.27,0,0,0,112.19,103.43Z"/><path class="cls-2" d="M130.16,107.13c-.29-.1-.48.34-.19.43S130.45,107.22,130.16,107.13Z"/><path class="cls-2" d="M99.07,116.3A77.83,77.83,0,0,1,80,111a.23.23,0,0,0-.29.13.24.24,0,0,0,.11.29h0A55.06,55.06,0,0,0,99,116.73a.21.21,0,0,0,.24-.19A.21.21,0,0,0,99.07,116.3Z"/><path class="cls-2" d="M111.08,116.85a101.94,101.94,0,0,1-12-2.68c-.31-.1-.52.37-.2.48h0A46.67,46.67,0,0,0,111,117.3a.22.22,0,0,0,.24-.21A.25.25,0,0,0,111.08,116.85Z"/><path class="cls-2" d="M117.83,116.57c-2.1-.4-4.24-.61-6.37-.88a.27.27,0,1,0-.07.54c2.12.3,4.24.66,6.38.82a.24.24,0,1,0,.06-.48Z"/><path class="cls-2" d="M116.09,114.9c-.28-.09-.46.34-.18.43S116.38,115,116.09,114.9Z"/><path class="cls-2" d="M71.48,104.3a.24.24,0,0,0-.31.15.23.23,0,0,0,.12.29c2.6,1.18,5.19,2.39,7.83,3.48a.22.22,0,0,0,.26-.14.2.2,0,0,0-.1-.24C76.71,106.59,74.08,105.47,71.48,104.3Z"/><path class="cls-2" d="M84.79,110.85s0,.06.08.07h0c3.65,1.33,7.33,2.65,11.06,3.75.28.09.47-.32.18-.43-3.61-1.42-7.34-2.62-11-3.81a.29.29,0,0,0-.35.17s0,0,0,0c-1.32-.69-2.67-1.31-4-2-.26-.13-.44.29-.18.41h0c1.34.65,2.67,1.33,4,1.93A.18.18,0,0,0,84.79,110.85Z"/><path class="cls-2" d="M88,109.63a34.32,34.32,0,0,0,10.43,2.76.2.2,0,0,0,.21-.18.18.18,0,0,0-.16-.21,35.57,35.57,0,0,1-10.34-2.71.18.18,0,0,0-.24.11.19.19,0,0,0,.1.23Z"/><path class="cls-2" d="M85.29,108.74A14.55,14.55,0,0,0,79.81,107a.25.25,0,0,0-.28.21.25.25,0,0,0,.21.28h0a18.54,18.54,0,0,1,5.37,1.62C85.38,109.27,85.54,108.87,85.29,108.74Z"/><path class="cls-2" d="M99.17,112c2.26.52,4.52,1.07,6.79,1.52.28,0,.33-.36.06-.43-2.25-.58-4.52-1.06-6.79-1.58C98.92,111.44,98.86,111.93,99.17,112Z"/><path class="cls-2" d="M104,104c.24.08.4-.28.15-.37-4.69-1.84-9.5-3.4-14.32-4.89-.29-.09-.48.35-.19.44h0C94.42,100.68,99.18,102.36,104,104Z"/><path class="cls-2" d="M101.74,104.89c-1.52-.48-3.08-.87-4.63-1.28-.32-.09-.38.42-.06.51h0c1.52.41,3,.84,4.58,1.19C101.87,105.37,102,105,101.74,104.89Z"/><path class="cls-2" d="M112.24,106.28c.23.06.34-.34.11-.41-1.54-.44-3.09-.85-4.63-1.26-.32-.08-.38.41-.07.49h0C109.18,105.5,110.7,105.91,112.24,106.28Z"/><path class="cls-2" d="M132.14,107c1,.32,2,.64,3,.93.28.07.47-.32.18-.43-1-.35-2-.66-3-1-.32-.1-.54.39-.21.49Z"/><path class="cls-2" d="M69.78,83.62c-5.45-2-10.82-4.22-16.05-6.78-.29-.14-.49.32-.19.46h0A124.79,124.79,0,0,0,69.62,84C69.87,84.08,70,83.71,69.78,83.62Z"/><path class="cls-2" d="M55.93,83.21h0a72,72,0,0,0,16.61,6.34c.25,0,.36-.36.12-.43A128.74,128.74,0,0,1,56.15,82.7C55.82,82.54,55.61,83.05,55.93,83.21Z"/><path class="cls-2" d="M62,88.89a.21.21,0,0,0-.1-.25c-1.33-.67-2.68-1.29-4-1.92a.23.23,0,0,0-.18.42h0c1.34.63,2.68,1.28,4,1.88A.21.21,0,0,0,62,88.89Z"/><path class="cls-2" d="M65,92.93a.23.23,0,0,0-.12-.27,37.78,37.78,0,0,1-5.81-3.44.27.27,0,0,0-.36.06.26.26,0,0,0,0,.34h0a21.4,21.4,0,0,0,5.95,3.46A.23.23,0,0,0,65,92.93Z"/><path class="cls-2" d="M63.42,93.45a18,18,0,0,0-2-1.12c-.38-.19-.61.4-.25.6a16,16,0,0,0,2,1C63.42,94,63.68,93.62,63.42,93.45Z"/><path class="cls-2" d="M66,94.58c-.27-.13-.46.3-.19.43h0a31.79,31.79,0,0,0,6.86,2.54c.22,0,.33-.33.11-.39A39.62,39.62,0,0,1,66,94.58Z"/><path class="cls-2" d="M75.15,100.69a.21.21,0,0,0-.15-.24,79.65,79.65,0,0,1-11.67-4.92c-.23-.12-.45.25-.24.39h0a40.31,40.31,0,0,0,11.81,4.93A.21.21,0,0,0,75.15,100.69Z"/><path class="cls-2" d="M75.9,104c.26,0,.39-.38.13-.45a42.24,42.24,0,0,1-9.72-4c-.24-.13-.47.27-.25.43h0A22.4,22.4,0,0,0,75.9,104Z"/><path class="cls-2" d="M125.07,109.29c-.26,0-.25.41,0,.44,1.72.19,3.45.3,5.19.32.35,0,.44-.53.07-.56h0A51.38,51.38,0,0,0,125.07,109.29Z"/><path class="cls-2" d="M126.76,111.29c-2.19-.37-4.39-.76-6.61-1a.23.23,0,0,0-.06.45c2.19.44,4.4.75,6.6,1.07a.26.26,0,0,0,.29-.23A.27.27,0,0,0,126.76,111.29Z"/><path class="cls-2" d="M124,112.81h0c-1.47-.27-2.93-.55-4.4-.71a.24.24,0,0,0-.27.2.23.23,0,0,0,.2.27c1.45.34,2.93.56,4.39.8A.28.28,0,0,0,124,112.81Z"/><path class="cls-2" d="M119.7,114.86c.26.08.42-.3.17-.38S119.45,114.78,119.7,114.86Z"/><path class="cls-2" d="M81.3,90.28a.23.23,0,0,0,.11.34h0c8.51,2.43,17.06,4.87,25.69,6.86.27.06.4-.39.13-.47-8-2.45-16.22-4.49-24.38-6.54l0,0C79.92,89.23,77,88.08,74,86.9a.22.22,0,0,0-.17.41C76.34,88.3,78.81,89.31,81.3,90.28Z"/><path class="cls-2" d="M95.47,97.38c.29.08.49-.34.19-.45-3.75-1.36-7.58-2.53-11.37-3.76-.32-.1-.53.38-.21.48h0C87.86,94.92,91.64,96.25,95.47,97.38Z"/><path class="cls-2" d="M67.46,29.3a49.76,49.76,0,0,0,13.82,6.63c.26.07.44-.31.17-.41a58.63,58.63,0,0,1-13.7-6.59c-.25-.16-.54.21-.29.37Z"/><path class="cls-2" d="M83.32,35.72c6.4,2.07,12.8,4.21,19.24,6.11.28.08.46-.31.18-.41-6.36-2.18-12.81-4.12-19.22-6.15C83.21,35.17,83,35.63,83.32,35.72Z"/><path class="cls-2" d="M88.19,33.72h0a19.56,19.56,0,0,0,9,3.37.22.22,0,0,0,0-.44,22.15,22.15,0,0,1-8.72-3.33C88.23,33.14,87.91,33.54,88.19,33.72Z"/><path class="cls-2" d="M82.93,28.44a.24.24,0,0,0-.11-.31,64,64,0,0,1-8.21-4.19c-.28-.18-.6.22-.31.41h0a40,40,0,0,0,8.33,4.23A.23.23,0,0,0,82.93,28.44Z"/><path class="cls-2" d="M108.39,16.27h0a74.43,74.43,0,0,0,23.27,8.29c.28.05.33-.38.05-.45a105.68,105.68,0,0,1-23.11-8.34C108.29,15.62,108.09,16.11,108.39,16.27Z"/><path class="cls-2" d="M113.57,20.9c-.3-.11-.5.35-.19.46h0c4.35,1.55,8.69,3.23,13.12,4.56.26.08.43-.29.17-.4C122.38,23.8,117.94,22.41,113.57,20.9Z"/><path class="cls-2" d="M131.92,26.82h0A30,30,0,0,0,141.18,28a.24.24,0,0,0,0-.48A57,57,0,0,1,132,26.24C131.63,26.16,131.56,26.72,131.92,26.82Z"/><path class="cls-2" d="M95.7,6.58a13,13,0,0,0,9.51,7.4c.24,0,.37-.36.12-.43a14.54,14.54,0,0,1-9.17-7.16c-.15-.28-.61-.11-.46.19Z"/><path class="cls-2" d="M94.39,10h0a29.1,29.1,0,0,0,8,5.42c.29.13.45-.29.19-.44a48,48,0,0,1-7.85-5.4C94.45,9.32,94.14,9.73,94.39,10Z"/><path class="cls-2" d="M105.74,17.25h0c1.8.9,3.59,1.87,5.45,2.64.3.13.45-.29.19-.44-1.75-1-3.61-1.83-5.42-2.71C105.63,16.58,105.41,17.09,105.74,17.25Z"/><path class="cls-2" d="M91.54,5.3c.88,1,1.72,2.13,2.67,3.12a.23.23,0,0,0,.36-.27C93.76,7.05,92.85,6,92,5c-.23-.26-.65.06-.43.33Z"/><path class="cls-2" d="M104.66,9.76h0a60.82,60.82,0,0,0,26.57,12c.27.05.31-.36.05-.42A73.75,73.75,0,0,1,105,9.33C104.71,9.12,104.37,9.55,104.66,9.76Z"/><path class="cls-2" d="M132.07,23.19h0c1.46.26,2.92.55,4.4.72a.23.23,0,0,0,.25-.2.23.23,0,0,0-.19-.25c-1.44-.33-2.92-.55-4.39-.79A.26.26,0,0,0,132.07,23.19Z"/><path class="cls-2" d="M137.66,22.34a.27.27,0,0,0,.2.27h0c1.6.24,3.18.5,4.78.67a.21.21,0,0,0,.24-.19.22.22,0,0,0-.18-.25c-1.58-.3-3.18-.51-4.76-.75A.27.27,0,0,0,137.66,22.34Z"/><path class="cls-2" d="M132,45.69a.23.23,0,0,0-.19-.25A194.09,194.09,0,0,1,106.17,40c-.3-.09-.52.36-.19.48a92.67,92.67,0,0,0,25.8,5.41A.24.24,0,0,0,132,45.69Z"/><path class="cls-2" d="M112.17,44.17c3.47.89,6.92,1.8,10.44,2.51.25,0,.37-.37.12-.45-3.46-1-7-1.79-10.49-2.61C111.89,43.54,111.83,44.09,112.17,44.17Z"/><path class="cls-2" d="M135.9,47.16c-.39-.07-.46.54-.08.62a62.79,62.79,0,0,0,25.36.38.23.23,0,0,0-.06-.46A75.73,75.73,0,0,1,135.9,47.16Z"/><path class="cls-2" d="M132.73,48.08h0c-2.53-.77-5.09-1.49-7.68-2.1-.25-.06-.38.37-.12.46,2.52.81,5.09,1.51,7.66,2.15C132.88,48.66,133,48.17,132.73,48.08Z"/><path class="cls-2" d="M145.72,53.7a.24.24,0,0,0-.2-.25h0c-8.05-1.28-16.05-2.88-24-4.51-.27-.06-.32.36,0,.42,7.94,1.85,16,3.29,24,4.55A.24.24,0,0,0,145.72,53.7Z"/><path class="cls-2" d="M134.06,54.3c-2-.63-4-1.27-6-1.85-.27-.08-.46.32-.18.42,2,.67,4,1.28,6,1.9C134.17,54.86,134.38,54.39,134.06,54.3Z"/><path class="cls-2" d="M96.16,42.2c7.39,2.5,14.93,4.59,22.5,6.47.34.08.4-.45.07-.53h0c-7.51-2-15-4.16-22.39-6.35C96.07,41.71,95.88,42.11,96.16,42.2Z"/><path class="cls-2" d="M109.81,48.32c-.25-.07-.43.3-.17.39,1.61.52,3.22,1,4.83,1.48.27.08.45-.33.17-.41h0C113,49.28,111.43,48.78,109.81,48.32Z"/><path class="cls-2" d="M106.28,42.58a.23.23,0,0,0-.25.2.23.23,0,0,0,.18.24c.74.16,1.46.28,2.2.41a.26.26,0,0,0,.07-.52h0C107.75,42.79,107,42.67,106.28,42.58Z"/><path class="cls-2" d="M100.72,38.43a.26.26,0,0,0-.34.14.25.25,0,0,0,.14.33A21.51,21.51,0,0,0,103.16,40a.25.25,0,0,0,.33-.14.25.25,0,0,0-.13-.32h0A23.28,23.28,0,0,0,100.72,38.43Z"/><path class="cls-2" d="M135,46.09a38.28,38.28,0,0,0,13.68,1.29c.33,0,.25-.52-.08-.51h0a64.92,64.92,0,0,1-13.48-1.23C134.83,45.6,134.7,46,135,46.09Z"/><path class="cls-2" d="M142.18,44.34a196.4,196.4,0,0,1-24.78-4.45c-.24-.06-.36.36-.12.43a137.85,137.85,0,0,0,24.84,4.48C142.42,44.83,142.49,44.37,142.18,44.34Z"/><path class="cls-2" d="M131.78,40.47h0c-1.8-.21-3.61-.41-5.41-.59a.2.2,0,0,0-.22.2.21.21,0,0,0,.16.22c1.8.23,3.6.43,5.41.64a.24.24,0,0,0,.27-.21A.24.24,0,0,0,131.78,40.47Z"/><path class="cls-2" d="M106.14,38.3a.25.25,0,0,0,.19.26c3.08.65,6.14,1.28,9.16,2.16.34.1.55-.41.22-.5a64.51,64.51,0,0,0-9.32-2.13A.23.23,0,0,0,106.14,38.3Z"/><path class="cls-2" d="M132.72,48.9a.23.23,0,0,0-.06.45c6.4,1.62,13.16,2.19,19.73,2.74.3,0,.35-.43.06-.46h0C145.81,51,139.32,49.77,132.72,48.9Z"/><path class="cls-2" d="M152.92,54.15h0c-1.56-.06-3.11-.15-4.66-.14a.23.23,0,0,0,0,.45c1.52.15,3.05.19,4.58.26C153.21,54.74,153.29,54.17,152.92,54.15Z"/><path class="cls-2" d="M83.92,31.44a.2.2,0,0,0-.11-.25c-1-.49-2.11-1-3.18-1.42a.22.22,0,0,0-.28.14.21.21,0,0,0,.11.27h0c1.06.46,2.13.94,3.2,1.39A.21.21,0,0,0,83.92,31.44Z"/><path class="cls-2" d="M71.71,19.74a38.8,38.8,0,0,0,10,5.63.22.22,0,0,0,.28-.12.21.21,0,0,0-.11-.28A64.14,64.14,0,0,1,72,19.32c-.27-.2-.6.21-.33.42Z"/><path class="cls-2" d="M68.75,21.45c-.27-.23-.6.21-.33.43A14.44,14.44,0,0,0,73,24.55a.25.25,0,0,0,.31-.14.24.24,0,0,0-.12-.3A19.1,19.1,0,0,1,68.75,21.45Z"/><path class="cls-2" d="M84.63,30.57h0c1.38.51,2.75,1,4.16,1.49.28.09.46-.32.18-.43-1.36-.55-2.76-1-4.14-1.52C84.52,30,84.33,30.46,84.63,30.57Z"/><path class="cls-2" d="M82.87,33.14c-.3-.09-.5.37-.2.46S83.18,33.24,82.87,33.14Z"/><path class="cls-2" d="M50.72,46.84c-.25-.23-.64.16-.42.41h0a14,14,0,0,0,5.91,4,.23.23,0,0,0,.3-.14.25.25,0,0,0-.12-.3A21.7,21.7,0,0,1,50.72,46.84Z"/><path class="cls-2" d="M87.33,64.75c.24.07.41-.29.16-.37A101.2,101.2,0,0,1,70.65,57c-.24-.13-.4.25-.16.38h0l.33.19a60.36,60.36,0,0,1-7.4-3.4s.07,0,.08-.08a.23.23,0,0,0-.12-.31,36,36,0,0,1-4-2,59.78,59.78,0,0,1-8.22-6.42c-.24-.23-.57.19-.33.42h0c.84.81,1.71,1.59,2.59,2.35,0,0,0,0,0,0h0a27.93,27.93,0,0,0,5.6,4.15,53.46,53.46,0,0,0,11.8,5.74.2.2,0,0,0,.23-.31A85.82,85.82,0,0,0,87.33,64.75Z"/><path class="cls-2" d="M100.83,69.11c-.59-.09-1.17-.22-1.76-.33a.21.21,0,0,0,.18-.13.23.23,0,0,0-.11-.29c-3.79-1.59-7.65-3-11.5-4.46-.29-.11-.48.33-.19.44h0c3.77,1.51,7.54,3,11.37,4.4a61.07,61.07,0,0,1-11.34-3.28.21.21,0,0,0-.28.11.21.21,0,0,0,.11.27h0a51.24,51.24,0,0,0,13.47,3.66.19.19,0,0,0,.22-.17A.19.19,0,0,0,100.83,69.11Z"/><path class="cls-2" d="M102.26,69.74c-.29-.06-.35.4-.06.46h0a103.68,103.68,0,0,1,14.71,4.52.24.24,0,0,0,.31-.13.23.23,0,0,0-.12-.31A68.25,68.25,0,0,0,102.26,69.74Z"/><path class="cls-2" d="M118.87,73.7a.27.27,0,0,0-.3.24.28.28,0,0,0,.23.3,50.4,50.4,0,0,1,9.14,2.24.23.23,0,0,0,.3-.12.22.22,0,0,0-.12-.3A31.81,31.81,0,0,0,118.87,73.7Z"/><path class="cls-2" d="M134.68,78.15l-4-1c-.27-.07-.33.37-.06.43h0l4,.93C134.89,78.62,134.94,78.22,134.68,78.15Z"/><path class="cls-2" d="M147.79,77.65h0a43.72,43.72,0,0,0,12.83-1.49.21.21,0,0,0-.1-.4,56.94,56.94,0,0,1-12.67,1.46C147.57,77.21,147.5,77.64,147.79,77.65Z"/><path class="cls-2" d="M160.17,77.1c-1.81.32-3.6.79-5.39,1.2-.27.06-.21.49.06.43h0c1.8-.39,3.61-.73,5.39-1.21C160.48,77.45,160.45,77.05,160.17,77.1Z"/><path class="cls-2" d="M51.43,44.19c.79.6,1.58,1.22,2.4,1.79a.22.22,0,1,0,.27-.35c-.77-.63-1.58-1.22-2.38-1.82a.24.24,0,0,0-.34,0,.23.23,0,0,0,0,.33Z"/><path class="cls-2" d="M51.85,42.43a23.39,23.39,0,0,0,1.72,1.73.25.25,0,0,0,.06.39h0l1.48.91a23.28,23.28,0,0,0,4,2.44c1.2.73,2.41,1.44,3.63,2.14a.25.25,0,0,0,.06.39h0c3.34,2,6.65,4,10.08,5.79.21.11.41-.23.21-.36-2.7-1.71-5.5-3.27-8.29-4.84a.23.23,0,0,0,0-.38c-1-.65-1.95-1.27-2.94-1.88a.17.17,0,0,0-.1-.19L61,48.23c-1.86-1.14-3.74-2.25-5.61-3.35a27.05,27.05,0,0,1-3.1-2.76c-.22-.22-.62.06-.4.31Z"/><path class="cls-2" d="M52.57,41.61c1.79,1.28,3.54,2.6,5.39,3.78a.23.23,0,0,0,.33-.08A39.58,39.58,0,0,0,66,49.7a.25.25,0,0,0,.32-.14.26.26,0,0,0-.12-.31,81.64,81.64,0,0,1-11.45-7.53c-.32-.27-.71.24-.4.5h0l.32.26-1.8-1.23c-.24-.17-.52.19-.28.36Z"/><path class="cls-2" d="M54.05,40.34l.08,0a.28.28,0,0,0,0,.49h0c1.47.89,2.94,1.82,4.41,2.73a.27.27,0,0,0-.08.5h0a187.64,187.64,0,0,0,17.6,9.38c.24.11.39-.25.16-.38-3.83-2-7.67-4-11.47-6.09a.25.25,0,0,0,0-.39C62.37,45,59.84,43.49,57.33,42l0-.05a7.13,7.13,0,0,0-3.07-2.08c-.29-.1-.47.33-.19.44Z"/><path class="cls-2" d="M83.23,61.11c-2.44-1.29-4.93-2.49-7.41-3.72-.26-.13-.42.28-.18.4h0c2.48,1.24,4.94,2.5,7.43,3.68C83.31,61.59,83.46,61.22,83.23,61.11Z"/><path class="cls-2" d="M111.81,45.67a.2.2,0,0,0-.09-.23c-1.45-.63-2.93-1.22-4.39-1.81a.21.21,0,0,0-.28.11.22.22,0,0,0,.12.28h0c1.46.6,2.91,1.22,4.39,1.79A.2.2,0,0,0,111.81,45.67Z"/><path class="cls-2" d="M97.81,35.88c.25.13.5-.27.25-.43-2-1.27-4.09-2.4-6.15-3.58-.33-.18-.56.37-.23.56h0C93.71,33.6,95.72,34.82,97.81,35.88Z"/><path class="cls-2" d="M73.41,17.76c.81.59,1.6,1.19,2.43,1.74a.24.24,0,0,0,.29-.37c-.78-.62-1.6-1.19-2.41-1.77-.26-.18-.57.21-.31.4Z"/><path class="cls-2" d="M74.37,15.67a12.61,12.61,0,0,0,4.26,3.52.25.25,0,0,0,.33-.14.26.26,0,0,0-.07-.29,21.57,21.57,0,0,1-4.06-3.45c-.24-.28-.7.06-.46.36Z"/><path class="cls-2" d="M75.72,13.56a85.48,85.48,0,0,0,7.33,6.23c.24.18.5-.17.29-.38A86.88,86.88,0,0,0,76,13.17a.25.25,0,1,0-.31.39Z"/><path class="cls-2" d="M78.28,12.65a10.33,10.33,0,0,0,1.08,1c.21.18.53-.13.34-.34a9.29,9.29,0,0,0-1-1.05c-.23-.22-.62.16-.39.38Z"/><path class="cls-2" d="M81.37,15.65c1.08.76,2.16,1.55,3.3,2.24.25.16.54-.18.29-.38-1-.81-2.17-1.53-3.28-2.27-.27-.19-.59.22-.31.41Z"/><path class="cls-2" d="M84.74,14.41a.23.23,0,0,0,.32-.06.22.22,0,0,0,0-.3c-1-.84-2.13-1.59-3.21-2.38-.25-.18-.55.2-.3.39C82.58,12.85,83.63,13.67,84.74,14.41Z"/><path class="cls-2" d="M83.88,10.84l.82.57c.24.16.5-.17.27-.34l-.8-.6c-.24-.18-.53.2-.29.37Z"/><path class="cls-2" d="M151,33.36c1.27,0,2.53-.18,3.8-.34.35,0,.27-.57-.08-.54h0c-1.26.08-2.53.17-3.79.37a.27.27,0,0,0-.21.3A.27.27,0,0,0,151,33.36Z"/><path class="cls-2" d="M151.34,34.83c-.26.07-.14.47.11.43a16.92,16.92,0,0,1,4.32-.2c.36,0,.43-.52.08-.56h0A11.08,11.08,0,0,0,151.34,34.83Z"/><path class="cls-2" d="M151,37c-.28.07-.24.51.06.46a21.06,21.06,0,0,1,5.32-.16.26.26,0,0,0,.28-.23.26.26,0,0,0-.22-.28h0A14.23,14.23,0,0,0,151,37Z"/><path class="cls-2" d="M158.16,39.37l.41-.17a.29.29,0,1,0-.29-.5l-.37.24C157.67,39.09,157.91,39.47,158.16,39.37Z"/><path class="cls-2" d="M145.64,38.87c3.49.55,7.07.72,10.58,1,.36,0,.43-.51.08-.55h0c-3.51-.35-7.07-.86-10.6-1a.26.26,0,0,0-.27.22A.25.25,0,0,0,145.64,38.87Z"/><path class="cls-2" d="M148.89,41a38.82,38.82,0,0,0,10,.85c.3,0,.23-.47-.06-.46a54.88,54.88,0,0,1-9.91-.84C148.65,40.52,148.6,41,148.89,41Z"/><path class="cls-2" d="M158.76,43.62c.36-.07.29-.63-.07-.57-1.21.23-2.43.43-3.61.75-.3.07-.26.53.06.49C156.36,44.13,157.56,43.86,158.76,43.62Z"/><path class="cls-2" d="M158.9,45.39c-.63.13-1.24.26-1.85.44-.29.09-.15.54.13.5.61-.1,1.2-.23,1.8-.37C159.34,45.88,159.27,45.31,158.9,45.39Z"/><path class="cls-2" d="M160.18,50.81h0a25.8,25.8,0,0,1-5.18.68c-.28,0-.27.48,0,.51a12.59,12.59,0,0,0,5.34-.62C160.66,51.28,160.51,50.73,160.18,50.81Z"/><path class="cls-2" d="M156.86,54.21a.23.23,0,0,0-.19.25.22.22,0,0,0,.25.19c1.4-.18,2.78-.48,4.17-.75.34-.07.27-.61-.08-.54h0C159.63,53.62,158.23,53.85,156.86,54.21Z"/><path class="cls-2" d="M161.18,55.78h0c-.87.28-1.73.54-2.58.87-.24.1-.14.52.13.46.9-.23,1.78-.53,2.66-.81C161.73,56.19,161.51,55.67,161.18,55.78Z"/><path class="cls-2" d="M150.91,58.6a37.76,37.76,0,0,0,9.84-.47.29.29,0,0,0,.24-.34.3.3,0,0,0-.32-.25h0a61.63,61.63,0,0,1-9.7.58C150.68,58.12,150.59,58.57,150.91,58.6Z"/><path class="cls-2" d="M160.51,60.14a73.05,73.05,0,0,1-8.5-.08.24.24,0,0,0-.07.48,25.9,25.9,0,0,0,8.65.19.29.29,0,0,0,.25-.33A.3.3,0,0,0,160.51,60.14Z"/><path class="cls-2" d="M161.34,62.78h0c-1.46.09-2.92.14-4.38.34-.31,0-.24.48.08.48,1.45,0,2.92-.15,4.38-.26C161.78,63.32,161.7,62.76,161.34,62.78Z"/><path class="cls-2" d="M159.35,65.47a.26.26,0,0,0,.28.16c.77-.16,1.51-.38,2.26-.6.32-.1.18-.65-.14-.56-.77.2-1.52.39-2.26.66A.26.26,0,0,0,159.35,65.47Z"/><path class="cls-2" d="M161.87,66.54l-1.61-.12a.24.24,0,0,0-.27.22.24.24,0,0,0,.2.27c.53.08,1.07.15,1.6.21A.29.29,0,0,0,161.87,66.54Z"/><path class="cls-2" d="M58,35.63a5.13,5.13,0,0,0,.63,1,.3.3,0,0,0,.1.34h0a30,30,0,0,0,7,4.07.27.27,0,0,0,.33-.15.25.25,0,0,0-.13-.31q-2.39-1.22-4.65-2.66s0,0,0,0a8,8,0,0,1-2.78-2.5c-.18-.28-.68,0-.51.29Z"/><path class="cls-2" d="M58.13,32.25c.48.44,1,.85,1.49,1.25a.26.26,0,0,0,.06.38h0c2.41,1.46,4.8,3,7.31,4.31.21.1.39-.15.32-.33a28.93,28.93,0,0,0,3.16,1c.26.06.36-.35.13-.43a41,41,0,0,1-12.14-6.58c-.27-.21-.57.19-.33.41Z"/><path class="cls-2" d="M60.05,31.68h0l.41.26a.36.36,0,0,0,.08.54h0a61.59,61.59,0,0,0,5.64,3.1.28.28,0,0,0,.27-.47l-.4-.24c.87.37,1.74.73,2.63,1.05a.23.23,0,0,0,.3-.13.23.23,0,0,0-.12-.29c-1.43-.66-2.91-1.22-4.38-1.81a.22.22,0,0,0-.25.08c-.52-.31-1.05-.6-1.58-.89a.2.2,0,0,0-.07-.24,24,24,0,0,0-2.2-1.4C60.09,31.07,59.75,31.48,60.05,31.68Z"/><path class="cls-2" d="M61.43,30.46A13.68,13.68,0,0,0,66.37,33c.25.07.36-.35.12-.44a16.9,16.9,0,0,1-4.74-2.53.26.26,0,0,0-.36,0,.26.26,0,0,0,0,.36Z"/><path class="cls-2" d="M62.66,28.9A4.15,4.15,0,0,1,65,30.55c.19.24.51,0,.37-.27a3.88,3.88,0,0,0-2.51-1.85c-.31-.08-.52.38-.2.48Z"/><path class="cls-2" d="M87.49,35.11a.21.21,0,1,0,.17-.39c-1.72-.82-3.46-1.58-5.21-2.34a.24.24,0,0,0-.31.13.24.24,0,0,0,.13.3h0C84,33.59,85.73,34.38,87.49,35.11Z"/><path class="cls-2" d="M91.32,40.74a.22.22,0,0,0,.28-.13.23.23,0,0,0-.11-.28c-2.77-1.31-5.61-2.48-8.42-3.69a.22.22,0,0,0-.3.13.25.25,0,0,0,.11.3C85.69,38.3,88.47,39.6,91.32,40.74Z"/><path class="cls-2" d="M99.48,36.11a.3.3,0,0,0,.25.32h0a13.77,13.77,0,0,1,4.15,1.27c.25.11.48-.27.24-.42a9.72,9.72,0,0,0-4.31-1.44A.3.3,0,0,0,99.48,36.11Z"/><path class="cls-2" d="M98.67,32.58c-.25-.16-.54.21-.29.36h0c.76.47,1.51.94,2.28,1.39.2.11.41-.24.21-.37C100.14,33.49,99.4,33,98.67,32.58Z"/><path class="cls-2" d="M84.09,26.28h0a7.09,7.09,0,0,0,4.17,2.47.23.23,0,0,0,.27-.21.25.25,0,0,0-.14-.25,10.62,10.62,0,0,1-4-2.36C84.23,25.74,83.91,26.06,84.09,26.28Z"/><path class="cls-2" d="M106.5,3.61h0c5.43,1,10.79,2.12,16.19,3.27a.24.24,0,0,0,.12-.45,73.83,73.83,0,0,0-16.26-3.25.22.22,0,0,0-.23.19A.22.22,0,0,0,106.5,3.61Z"/><path class="cls-2" d="M126,7.62a28.82,28.82,0,0,0,2.52,1.73c.24.14.44-.25.25-.42-.78-.63-1.58-1.22-2.42-1.77-.3-.21-.66.23-.35.46Z"/><path class="cls-2" d="M132,10.62A42.81,42.81,0,0,1,140.83,16c.27.22.56-.18.32-.41a28.91,28.91,0,0,0-8.92-5.48.26.26,0,0,0-.35.14.25.25,0,0,0,.14.34Z"/><path class="cls-2" d="M98.72,6.74C100.13,7.84,101.51,9,103,10a.26.26,0,1,0,.32-.42C102,8.41,100.5,7.36,99.08,6.28a.29.29,0,0,0-.41.06.32.32,0,0,0,0,.4Z"/><path class="cls-2" d="M101.67,5.73c1.08.9,2.14,1.83,3.25,2.68a.23.23,0,0,0,.28-.36c-1-1-2.13-1.83-3.22-2.74-.25-.21-.57.2-.31.41Z"/><path class="cls-2" d="M113.42,12.67h0a47.33,47.33,0,0,0,11.33,5.22.23.23,0,0,0,.17-.42c-3.83-1.64-7.59-3.21-11.26-5.22C113.42,12.12,113.18,12.53,113.42,12.67Z"/><path class="cls-2" d="M110.59,15.62c.22.12.42-.24.22-.38-1.44-1-3-1.9-4.47-2.78-.25-.14-.5.28-.26.43h0C107.56,13.85,109.05,14.78,110.59,15.62Z"/><path class="cls-2" d="M101.59,15c-.2-.21-.56.15-.36.36h0a7.11,7.11,0,0,0,3.18,1.95c.28.08.46-.31.18-.42A8.22,8.22,0,0,1,101.59,15Z"/><path class="cls-2" d="M126.46,26.18a.22.22,0,0,0-.3.13.23.23,0,0,0,.11.3h0c1.27.53,2.52,1.07,3.8,1.56a.21.21,0,0,0,.28-.11.22.22,0,0,0-.12-.28C129,27.23,127.72,26.7,126.46,26.18Z"/><path class="cls-2" d="M141.71,29.34c.93.2,1.86.42,2.79.57.29.05.42-.41.14-.49-.94-.26-1.89-.46-2.85-.67C141.41,28.67,141.35,29.26,141.71,29.34Z"/><path class="cls-2" d="M52.43,46.2h0a66.81,66.81,0,0,0,9.06,5.49c1.83,1.22,3.71,2.38,5.64,3.43.23.12.37-.23.16-.36-1.06-.61-2.11-1.24-3.14-1.89a.25.25,0,0,0,0-.44l-3.81-2.12c-1.81-1.28-3.58-2.61-5.29-4-.21-.19-.49.16-.26.34h0c.67.58,1.38,1.13,2.08,1.69-1.38-.82-2.75-1.65-4.1-2.55C52.47,45.58,52.13,46,52.43,46.2Z"/><path class="cls-2" d="M59.68,35.91h0A37.26,37.26,0,0,0,66,39.22a.24.24,0,0,0,.32-.16.24.24,0,0,0-.13-.31c-2-1.12-4.13-2.13-6.12-3.34C59.72,35.2,59.33,35.7,59.68,35.91Z"/><path class="cls-2" d="M61.1,30.84c-.32-.1-.52.37-.2.48S61.41,30.94,61.1,30.84Z"/><path class="cls-2" d="M55.7,44.52c.27.09.45-.33.18-.42S55.42,44.43,55.7,44.52Z"/><path class="cls-2" d="M145.18,88.84c-.36-.06-.41.47-.08.56,4.47,1.21,9.08,2,13.63,2.91.27.06.31-.35.05-.42C154.3,90.78,149.74,89.61,145.18,88.84Z"/><path class="cls-2" d="M164.91,92.74a.27.27,0,0,0,.22.29c1.26.19,2.53.39,3.8.5a.25.25,0,0,0,.27-.21.22.22,0,0,0-.2-.26c-1.25-.25-2.53-.4-3.8-.56A.27.27,0,0,0,164.91,92.74Z"/><path class="cls-2" d="M177.73,104.25a108.12,108.12,0,0,1-23.54-3.2c-.25-.06-.29.34-.05.4h0a87.83,87.83,0,0,0,23.58,3.22C178,104.67,178,104.26,177.73,104.25Z"/><path class="cls-2" d="M194.06,69.7c.22.11.45-.25.22-.39A199.08,199.08,0,0,0,170,56.59c-.29-.13-.46.3-.19.44C177.93,61.22,186,65.53,194.06,69.7Z"/><path class="cls-2" d="M181.14,58.2c-.23-.08-.38.28-.15.35S181.38,58.27,181.14,58.2Z"/><path class="cls-2" d="M208.08,81a41.11,41.11,0,0,0-11.65-9.58c-.2-.11-.42.24-.21.36h0a52.09,52.09,0,0,1,11.46,9.53C207.89,81.56,208.28,81.28,208.08,81Z"/><path class="cls-2" d="M9.38,44a.24.24,0,0,0-.3.38c9.91,8.14,20.82,16,32.73,20.89a.25.25,0,0,0,.32-.15.24.24,0,0,0-.13-.3A201.53,201.53,0,0,1,9.38,44Z"/><path class="cls-2" d="M22.87,57.32c-.19-.12-.42.16-.22.29h0c1.56,1.06,3.07,2.16,4.7,3.11.21.12.4-.22.21-.35C26.06,59.26,24.45,58.32,22.87,57.32Z"/><path class="cls-2" d="M12,19.93c.29-.07.24-.51-.06-.46h0c-3.27.58-14.9,5-11.2,10.19.17.26.54,0,.38-.29C-2,24.53,9.13,20.6,12,19.93Z"/><path class="cls-2" d="M2.1,32c0-.35-.55-.27-.54.08h0a4,4,0,0,0,1.68,3.32c.2.15.52-.12.32-.32A4.75,4.75,0,0,1,2.1,32Z"/><path class="cls-2" d="M19.3,18.78h0c7,.41,14,.85,21,.82.27,0,.26-.45,0-.47-6.94-.57-14-.67-21-.81C19.06,18.31,19,18.76,19.3,18.78Z"/><path class="cls-2" d="M30.63,16.44c.73.13,1.45.25,2.2.32a.24.24,0,0,0,.27-.2.25.25,0,0,0-.21-.27c-.73-.18-1.45-.3-2.19-.41a.28.28,0,0,0-.3.26A.29.29,0,0,0,30.63,16.44Z"/><path class="cls-2" d="M38.83,17.72h0c3.73.37,7.46.79,11.2,1.11.35,0,.43-.52.07-.55-3.73-.41-7.47-.72-11.2-1.07C38.56,17.18,38.49,17.69,38.83,17.72Z"/><path class="cls-2" d="M52.44,20.61h0c2.65.33,5.33.85,8,.94a.25.25,0,0,0,.29-.23A.27.27,0,0,0,60.5,21c-2.62-.49-5.36-.55-8-.81C52.25,20.2,52.19,20.58,52.44,20.61Z"/></svg>