<svg id="Layer_1" data-name="Layer 1" xmlns="http://www.w3.org/2000/svg" viewBox="0 0 94.66 95.91"><defs><style>.cls-1{fill:#02203d;}.cls-2{fill:#0168ff;fill-rule:evenodd;}</style></defs><circle class="cls-1" cx="44.96" cy="48.54" r="35.63"/><path class="cls-2" d="M51.75,12.59a35.72,35.72,0,0,0-21.61,2.59.28.28,0,0,0-.44.2c-.79.38-1.57.78-2.32,1.21a.24.24,0,0,0-.13.07,37.86,37.86,0,0,0-16.13,46s0,0,0,0c9,25,42.59,30.16,61,12.58a.45.45,0,0,0,.14-.1c.08-.08.15-.17.22-.25l.49-.46a.38.38,0,0,0,.09-.18C92.81,52.43,81.58,18,51.75,12.59ZM79.4,37.26A13.1,13.1,0,0,1,67.15,34c-.16-.16-.38.12-.22.29h0A13.06,13.06,0,0,0,79.57,37.8c.12.37.24.74.34,1.11h0a39.53,39.53,0,0,1-6.61-.41c-1.78-.28-4.93-.59-6.28-1.92-4.82-4.77,2-9,5.73-10.94A33.59,33.59,0,0,1,79.4,37.26ZM30.7,16.33a2.81,2.81,0,0,0,2.45.08c.24-.09.09-.43-.15-.36a2.35,2.35,0,0,1-1.67,0,34.82,34.82,0,0,1,22.12-1.62c.49.12,1,.26,1.43.39-4.25,2.37-9.48-.35-14-.41-.23,0-.28.35-.05.36h0c4.93.14,10.35,3.26,14.89.26.63.19,1.25.4,1.87.61-1.7.48-3.25,1.45-5,1.71-3.36.5-6.25-1.38-9.41-2.1-5.07-1.15-9,2.91-14,1.84C29.66,16.84,30.17,16.57,30.7,16.33ZM60.32,81C57,76.35,50.26,76.43,45.13,76.46c-.24,0-.25.43,0,.43,5,0,11.35,0,14.69,4.27C46,86.48,30.53,84.3,19.87,74.05a6.71,6.71,0,0,0,.78-.32c.24-.1.14-.52-.12-.45a10.09,10.09,0,0,0-1.11.31c-.67-.67-1.33-1.38-2-2.12C25.2,68.65,32.11,75,39.57,75.59c7.73.58,15.78-1.82,21.7,5Zm20.9-31.09A36.84,36.84,0,0,1,69.8,46.43c-.23-.12-.39.25-.16.37h0a31.9,31.9,0,0,0,11.57,3.66,39.81,39.81,0,0,1-4.57,16.6A8.56,8.56,0,0,0,74,65.41a.2.2,0,0,0-.25.1.19.19,0,0,0,.1.26h0a8.12,8.12,0,0,1,2.54,1.71c-.57,1.06-1.17,2.11-1.84,3.13a10.86,10.86,0,0,0-4.33-3.15.21.21,0,0,0-.26.11.2.2,0,0,0,.11.25h0A11.89,11.89,0,0,1,74.33,71L73.6,72a17.79,17.79,0,0,0-9.91-4.76.23.23,0,0,0-.26.21.26.26,0,0,0,.2.26h0a18.24,18.24,0,0,1,9.66,4.74c-.16.22-.33.43-.49.64C66.58,68,60.15,67,52.28,68.81c-7.23,1.64-12.13.76-19.23-1-4.25-1-7.59-1.5-11.84-.54-.3.06-.24.53.05.46h0c8.56-1.9,15.46,3.31,23.81,3.07,10.71-.3,17.19-5.17,27.34,2.75-.13.17-.26.35-.4.52-.32.26-.65.51-1,.77a10.74,10.74,0,0,0-7-4.51c-.26,0-.3.34,0,.4h0a11.57,11.57,0,0,1,6.76,4.36c-.32.25-.65.47-1,.71-1.86-1.86-3.94-3.6-6.68-3.7-.28,0-.36.42-.05.45h0c2.6.31,4.47,1.84,6.23,3.6-.58.4-1.17.78-1.77,1.16a14.71,14.71,0,0,0-10.94-5c-.25,0-.31.38,0,.4h0A15.28,15.28,0,0,1,67,77.62c-.52.32-1,.62-1.57.91a.28.28,0,0,0-.09-.18C60.72,73.77,55.23,73.13,48.94,73c-3.92-.07-7.86.24-11.76-.46C31.85,71.6,27.45,69.28,22,69c-.22,0-.28.33,0,.35h0c7.24.63,13.69,3.81,21,4.2,8,.44,15.6-.85,22,5.25-.57.31-1.14.6-1.72.88a3.09,3.09,0,0,0-1.49-2c-.21-.13-.45.17-.24.3h0a2.52,2.52,0,0,1,1.37,1.88l-1,.48h0C57.49,75,51.55,74.93,45.13,75c-4.45,0-8.36-.09-12.57-1.55-2.81-1-5.36-2.67-8.33-3.19a11,11,0,0,0-7.06.88c-.38-.45-.74-.92-1.1-1.39a.24.24,0,0,0,.17,0h0c1.05-.39,2.11-.8,3.15-1.22a.2.2,0,0,0-.15-.36c-1.06.36-2.13.74-3.19,1.13a.21.21,0,0,0-.13.25,40,40,0,0,1-3.14-4.88c3.75-10.29,12.51-13.12,22.61-13.61a20.85,20.85,0,0,0,7.94-1.48c4.92-2.29,6.81-7.18,13.49-6.47a.23.23,0,0,0,.26-.19.23.23,0,0,0-.19-.26c-3.79-.78-6.1.75-9.11,3-6.39,4.71-11.35,4.07-18.61,5.12A20.37,20.37,0,0,0,12.41,64l-.35-.7c-.17-.52-.35-1-.5-1.58A23.06,23.06,0,0,1,31,49c.24,0,.19-.38,0-.37A22.5,22.5,0,0,0,11.39,61a41.54,41.54,0,0,1-1.09-5.64,9.58,9.58,0,0,1,2.16-2.15c.22-.15,0-.44-.23-.31a7.48,7.48,0,0,0-2,1.78c0-.4-.07-.8-.1-1.21,0,0,.05,0,.06,0h0c6.85-10.44,19-3.33,28.55-6.8,3.26-1.19,2-1.3,5.05-2.83,8-4,12.93-4.79,21.1-2,.25.09.42-.29.16-.39-4-1.56-8.28-3.12-12.68-2.4C46.06,40,42,45.64,35.69,46.94c-8.93,1.83-19.55-3.1-25.62,5.87a39.52,39.52,0,0,1,6.42-24.2,7.37,7.37,0,0,0,4.48,0c.23-.07.08-.41-.15-.35a7.36,7.36,0,0,1-4,0c.34-.49.67-1,1-1.43a3.7,3.7,0,0,0,3.54-.28c.2-.12,0-.44-.2-.35a3.66,3.66,0,0,1-3,.23c.43-.55.87-1.09,1.33-1.61,2.7.32,5.3-.63,7.88-1.38,1.38-.39,3.17-.63,4.37-1.49.76-.54,1.23-1.8,2.23-1.91.23,0,.24-.4,0-.4a1.1,1.1,0,0,0-1,.27c-1.18.78-1.84,1.91-3.31,2.38-3.1,1-6.36,2.15-9.65,2a35,35,0,0,1,3-2.87.17.17,0,0,0,.22.11h0a7.1,7.1,0,0,0,3.85-2c.18-.18-.12-.47-.31-.31a8.68,8.68,0,0,1-3.17,1.69,31.84,31.84,0,0,1,4.18-2.91c1.19,1.84-.6,3.22-2.19,3.81a20.32,20.32,0,0,1-3.51.9.22.22,0,0,0-.18.25.24.24,0,0,0,.24.18h0c2.26-.27,9-1.86,6.08-5.41l.28-.17c5.35,1.81,9.72-2.94,15.55-1.43,2.41.63,4.56,1.86,7.11,1.88s4.36-1.28,6.91-2a.23.23,0,0,0,.14-.11,36.66,36.66,0,0,1,10.1,5.56,12.83,12.83,0,0,0-5.45.33c-.3.08-.25.56.06.48a13.7,13.7,0,0,1,6.56.13l.35.32a6.73,6.73,0,0,0-5.18.49A32.88,32.88,0,0,0,61.79,25a9.57,9.57,0,0,1-8.38,1.27c-.25-.07-.43.3-.17.39A9.49,9.49,0,0,0,60,26.59C63.7,25.09,65.64,22,70,23.35a7,7,0,0,0-5.49,1.92.17.17,0,0,0-.07.29l0,0a0,0,0,0,1,0,0h0a.15.15,0,0,0,.2,0,6.87,6.87,0,0,1,5.67-1.73.25.25,0,0,0,.27-.22.28.28,0,0,0,0-.16h0c.23.21.45.43.67.65a6.23,6.23,0,0,0-3.61,1.5.28.28,0,0,0,.34.44h0a9.58,9.58,0,0,1,3.75-1.43l.53.54c-3.77,1.61-9,4.94-7.28,9.81S75.87,39.61,80,39.52l.09,0c.09.35.17.7.25,1h0a18.59,18.59,0,0,1-9.34,0c-.25-.06-.38.37-.12.46a14.89,14.89,0,0,0,9.58,0l0,0c.06.28.11.57.16.85a.25.25,0,0,0-.17,0,16,16,0,0,1-13.06-.42c-.32-.15-.53.35-.21.5h0a16.11,16.11,0,0,0,13.49.43s0,0,0,0c.09.49.18,1,.24,1.46a6.93,6.93,0,0,1-5.46.52c-.29-.09-.48.34-.19.44A6.87,6.87,0,0,0,81,44.3c.08.62.14,1.23.18,1.85a.2.2,0,0,0-.13,0,17,17,0,0,1-9-1.6c-.24-.1-.38.25-.16.37h0a15.26,15.26,0,0,0,9.25,1.75s.06,0,.09-.06c0,.54.06,1.07.07,1.61-6,1-10.46-4.1-16.3-4.65a.25.25,0,0,0-.27.22.25.25,0,0,0,.21.27c5.53.61,10.62,6.21,16.36,4.74C81.24,49.13,81.23,49.51,81.22,49.89Z"/><path class="cls-2" d="M22.33,25.89h0c.65,0,1.29,0,1.94,0,.23,0,.23-.41,0-.41-.65,0-1.29,0-1.94,0C22.11,25.5,22.1,25.89,22.33,25.89Z"/><path class="cls-2" d="M26.55,25.27h0a8.51,8.51,0,0,0,5.91-1.78,36.2,36.2,0,0,1,3.32-2.29c2.44-1.32,4.76-.7,7.18.33a.2.2,0,0,0,.26-.11.19.19,0,0,0-.1-.26c-2.49-1.13-4.68-1.78-7.23-.55-3.37,1.63-5.15,4.21-9.28,4.19C26.32,24.8,26.23,25.25,26.55,25.27Z"/><path class="cls-2" d="M45.27,22.32c5.5,1.8,12.17,5.74,17,.49.17-.19-.13-.49-.31-.32-5.15,4.73-11,1.28-16.58-.51-.22-.07-.37.27-.14.34Z"/><path class="cls-2" d="M22,28.3h0c2.49-1.31,5.34-.26,7.91-1.24,2.75-1,4.49-3.51,7.48-4.1a.27.27,0,0,0,.21-.32.26.26,0,0,0-.29-.22c-2.86.25-4.57,2.63-7,3.83-2.7,1.34-5.82.2-8.47,1.65C21.59,28,21.74,28.43,22,28.3Z"/><path class="cls-2" d="M40.13,22.74c4,.91,7.46,4,11.7,3.86a.22.22,0,0,0,0-.44c-4.24-.35-7.54-3.1-11.64-3.92C39.88,22.18,39.82,22.67,40.13,22.74Z"/><path class="cls-2" d="M60.6,27.66c-7,2.77-13.53-1.6-20.33-2.78-.25-.05-.3.35,0,.4C47,26.5,53.83,30.91,60.76,28a.2.2,0,0,0,.1-.27A.21.21,0,0,0,60.6,27.66Z"/><path class="cls-2" d="M62.61,26.8c-.23-.08-.37.26-.15.33S62.83,26.87,62.61,26.8Z"/><path class="cls-2" d="M37.57,24.49c.24-.1.16-.54-.12-.46h0c-2.19.6-4.05,2.52-5.81,3.86-3,2.29-5.83,1.1-9.23,1.19-.23,0-.23.39,0,.41,2.46.18,5.32,1.07,7.7.12C32.88,28.47,34.84,25.77,37.57,24.49Z"/><path class="cls-2" d="M35.41,15.64h0a2.75,2.75,0,0,1,1.68-.57.23.23,0,0,0,.19-.25.25.25,0,0,0-.19-.19,2.75,2.75,0,0,0-2,.58C34.81,15.42,35.13,15.84,35.41,15.64Z"/><path class="cls-2" d="M69.18,29.2c1.19-.75,2.33-1.57,3.47-2.4.23-.17,0-.52-.28-.36h0c-1.16.78-2.33,1.58-3.44,2.44C68.72,29,69,29.34,69.18,29.2Z"/><path class="cls-2" d="M75.75,36.54a.22.22,0,0,0,.18-.25.24.24,0,0,0-.19-.18c-2-.13-5.16-.35-6.57-2.12-1.68-2.11,2.06-4.63,3.4-6,.19-.2-.14-.53-.33-.34h0C71,28.8,69.7,29.94,68.6,31.21c-.7.8-1.12,1.59-.48,2.56C69.52,35.89,73.4,36.85,75.75,36.54Z"/><path class="cls-2" d="M71.8,30.09c.23-.16,0-.51-.27-.35h0a2.53,2.53,0,0,0-.81,3.38,3.93,3.93,0,0,0,3.75,1.74c.25,0,.25-.42,0-.44A4.65,4.65,0,0,1,72.39,34C71,33.19,70.08,31.3,71.8,30.09Z"/><path class="cls-2" d="M65.47,38.27a.27.27,0,0,0-.08-.31c-1.42-1.1-3.31-2.05-3.52-4-.26-2.4,2.26-4.7,3.93-6.16.17-.16-.06-.45-.24-.3-1.72,1.48-4.46,3.81-4.35,6.32.1,2.09,2.21,3.78,3.92,4.62A.26.26,0,0,0,65.47,38.27Z"/><path class="cls-2" d="M60.43,30.8c.15-.26-.2-.54-.37-.29h0A4.51,4.51,0,0,0,60.34,36a.19.19,0,0,0,.27,0,.19.19,0,0,0,0-.28A4.33,4.33,0,0,1,60.43,30.8Z"/><path class="cls-2" d="M47,43.38c-4.36,3.57-9.17,5.76-14.92,5.5-.26,0-.32.39-.06.4h0c5.53.3,11.42-1.45,15.27-5.61C47.49,43.5,47.21,43.22,47,43.38Z"/><path class="cls-2" d="M22.39,48.64a32.22,32.22,0,0,0-11.56,8.94c-.16.18.13.4.29.22h0A36.45,36.45,0,0,1,22.54,49C22.77,48.89,22.63,48.54,22.39,48.64Z"/><path class="cls-2" d="M14.37,51.4h0a22.76,22.76,0,0,1,4.45-2.27c.25-.1.08-.48-.17-.38a20.58,20.58,0,0,0-4.52,2.33C13.91,51.22,14.15,51.54,14.37,51.4Z"/><path class="cls-2" d="M15,65.23h0C18.86,59.35,24.61,53.35,32,52.57c.24,0,.25-.42,0-.42-7.17,0-14.12,7-17.36,12.84C14.48,65.23,14.88,65.47,15,65.23Z"/><path class="cls-2" d="M35.49,52.11h0A23.41,23.41,0,0,0,47,50a.2.2,0,0,0-.15-.38,28.07,28.07,0,0,1-11.26,2.07C35.27,51.67,35.2,52.09,35.49,52.11Z"/><path class="cls-2" d="M49.8,47.69h0l3.91-1.61a.19.19,0,0,0,.11-.25.21.21,0,0,0-.26-.11l-3.91,1.63a.18.18,0,0,0-.08.24A.19.19,0,0,0,49.8,47.69Z"/><path class="cls-2" d="M26.23,68.5h0A100.43,100.43,0,0,0,41.55,72c6.22.74,13.58-1.78,19.46,0,.25.07.4-.29.16-.37-5.19-1.78-10.58.43-16,.2-6.42-.26-12.69-2-18.85-3.67C26.12,68,26,68.43,26.23,68.5Z"/><path class="cls-2" d="M60.11,69.82a14.9,14.9,0,0,0,1.76.53c.23.05.33-.31.11-.41a14.54,14.54,0,0,0-1.69-.56c-.29-.08-.49.33-.19.44Z"/><path class="cls-2" d="M58.76,76.2h0a4.26,4.26,0,0,1,2.07,1c.2.14.43-.15.24-.29a5.71,5.71,0,0,0-2.27-1C58.58,75.79,58.53,76.15,58.76,76.2Z"/><path class="cls-2" d="M59.18,66.91c-7-1.25-13.68,2.31-20.67,1-.24,0-.28.33,0,.38h0c6.95,1.42,13.7-2,20.66-1a.21.21,0,0,0,.06-.41Z"/><path class="cls-2" d="M23.91,71.89a7.8,7.8,0,0,0-5.53.11c-.29.1-.11.53.18.44h0a9.53,9.53,0,0,1,5.24-.14A.22.22,0,0,0,23.91,71.89Z"/><path class="cls-2" d="M22.07,73.2c-.28.15-.09.6.2.46h0a3.06,3.06,0,0,1,2.39-.16c.26.07.34-.33.12-.43A2.89,2.89,0,0,0,22.07,73.2Z"/><path class="cls-2" d="M36.91,82.16h0a88.72,88.72,0,0,0,14.84.66.24.24,0,0,0,.19-.26.22.22,0,0,0-.19-.18c-4.94-.23-9.86-.22-14.79-.6A.19.19,0,0,0,36.91,82.16Z"/><polygon class="cls-2" points="54.08 82.14 54.08 82.14 54.08 82.14 54.08 82.14"/><path class="cls-2" d="M54.08,82.14c.66-.1,1.31-.18,2-.31A.22.22,0,0,0,56,81.4c-.66.09-1.31.22-2,.35a.19.19,0,0,0-.17.22A.19.19,0,0,0,54.08,82.14Z"/><path class="cls-2" d="M32,79.68a10,10,0,0,1-4.1-1.32c-.26-.15-.55.21-.29.38h0a7.91,7.91,0,0,0,4.34,1.37C32.17,80.11,32.25,79.71,32,79.68Z"/><path class="cls-2" d="M67.43,62.62c-.27-.09-.44.33-.17.41l.57.16c.25.07.42-.28.16-.37Z"/><path class="cls-2" d="M67.14,60.39c-.21,0-.32.33-.09.39h0a29.67,29.67,0,0,1,9.93,5,.19.19,0,1,0,.23-.31A25.24,25.24,0,0,0,67.14,60.39Z"/><path class="cls-2" d="M72.14,61.42a40.58,40.58,0,0,1,5.25,3.09c.21.14.44-.16.24-.3a30.82,30.82,0,0,0-5.34-3.15c-.22-.11-.38.25-.15.36Z"/><path class="cls-2" d="M68.59,57.86h0c.69.21,1.36.43,2.06.61.22.06.32-.31.1-.4-.65-.24-1.31-.45-2-.66C68.49,57.32,68.3,57.76,68.59,57.86Z"/><path class="cls-2" d="M73.27,59.65c1.64,1.05,3.27,2.12,4.94,3.11.21.12.46-.17.24-.32-1.62-1.07-3.3-2.06-5-3.08-.2-.13-.43.16-.22.29Z"/><path class="cls-2" d="M74.16,59q2.19,1,4.41,1.89a.2.2,0,0,0,.25-.12.18.18,0,0,0-.09-.24c-1.46-.67-2.93-1.3-4.4-1.93a.22.22,0,0,0-.17.4Z"/><path class="cls-2" d="M78.87,58.9c.24.07.41-.28.16-.37-.56-.2-1.12-.38-1.69-.56-.27-.08-.45.32-.18.41C77.73,58.56,78.29,58.74,78.87,58.9Z"/><polygon class="cls-2" points="77.17 58.38 77.16 58.38 77.16 58.38 77.17 58.38"/><path class="cls-2" d="M11.11,48.25c.24.08.4-.29.16-.36S10.87,48.17,11.11,48.25Z"/><path class="cls-2" d="M13.54,47.08A15,15,0,0,0,12,47.8c-.32.16-.1.68.21.51h0a17.36,17.36,0,0,0,1.52-.85C14,47.32,13.76,47,13.54,47.08Z"/><path class="cls-2" d="M23,45.31a10.6,10.6,0,0,0-8.36,1.19c-.22.12-.07.49.16.37h0a12.16,12.16,0,0,1,8.08-1.13C23.13,45.78,23.25,45.39,23,45.31Z"/><path class="cls-2" d="M12.57,46.51h0a15.15,15.15,0,0,1,8-2.19c.26,0,.23-.38,0-.42a11.35,11.35,0,0,0-8.3,2.22C12,46.31,12.3,46.68,12.57,46.51Z"/><path class="cls-2" d="M14.29,43.62a.2.2,0,0,0,0,.3.22.22,0,0,0,.3,0,3.64,3.64,0,0,1,2.56-.66.2.2,0,0,0,.23-.19.21.21,0,0,0-.17-.23A3.1,3.1,0,0,0,14.29,43.62Z"/><path class="cls-2" d="M20,40.51a.22.22,0,0,0-.23-.17,27.68,27.68,0,0,0-6.15,1.46c-.25.08-.09.45.16.37h0a40.31,40.31,0,0,1,6-1.43A.2.2,0,0,0,20,40.51Z"/><path class="cls-2" d="M23,36.42c-3.2.28-6.43.9-9.59,1.48a.2.2,0,0,0-.16.25.22.22,0,0,0,.21.16h0c3.19-.4,6.46-.8,9.59-1.51a.19.19,0,0,0,.17-.21A.2.2,0,0,0,23,36.42Z"/><path class="cls-2" d="M15.29,36.46h0c1.19-.12,2.38-.23,3.56-.41a.2.2,0,0,0,.17-.24.2.2,0,0,0-.22-.17c-1.2.08-2.38.24-3.57.38a.22.22,0,0,0-.19.25A.21.21,0,0,0,15.29,36.46Z"/><path class="cls-2" d="M15.49,34.75h0A26.53,26.53,0,0,0,23,34c.26-.07.22-.45,0-.41a71.55,71.55,0,0,1-7.44.75C15.23,34.31,15.23,34.75,15.49,34.75Z"/><path class="cls-2" d="M18.05,32.66h0c.75-.06,1.5-.13,2.25-.22.26,0,.2-.41,0-.4-.76.05-1.51.12-2.26.19C17.72,32.25,17.77,32.69,18.05,32.66Z"/><path class="cls-2" d="M43.51,41.26A16.72,16.72,0,0,1,28.8,45.54c-.28,0-.32.35-.06.42h0A15.28,15.28,0,0,0,43.8,41.55C44,41.38,43.69,41.11,43.51,41.26Z"/><path class="cls-2" d="M34,44c-.23,0-.18.39,0,.37h0a17.81,17.81,0,0,0,5.75-1.39.2.2,0,0,0,.1-.26.19.19,0,0,0-.24-.1A19.39,19.39,0,0,1,34,44Z"/><path class="cls-2" d="M57.26,37.39a21,21,0,0,0-10.67,2.2c-.24.12-.08.49.16.38h0A22.56,22.56,0,0,1,57.2,37.88C57.51,37.89,57.58,37.42,57.26,37.39Z"/><path class="cls-2" d="M54.27,65c.25-.08.14-.51-.12-.45a46,46,0,0,1-18,1.2.2.2,0,0,0-.22.16.19.19,0,0,0,.16.22h0A41.61,41.61,0,0,0,54.27,65Z"/><path class="cls-2" d="M42.77,65c1.72-.16,3.45-.29,5.16-.54a.2.2,0,0,0,.17-.24.19.19,0,0,0-.22-.17c-1.73.09-3.45.32-5.17.5C42.42,64.55,42.48,65,42.77,65Z"/><path class="cls-2" d="M51.38,48.42a.2.2,0,0,0-.26,0c-5.61,4-12.29,4.48-18.95,5-.28,0-.22.44.06.43h0C38.9,53.58,46,53,51.36,48.69A.19.19,0,0,0,51.38,48.42Z"/><path class="cls-2" d="M51.19,51.19a.25.25,0,0,0-.32-.13,57.75,57.75,0,0,1-12,3.75.22.22,0,0,0-.18.25.21.21,0,0,0,.24.17h0a39.26,39.26,0,0,0,12.1-3.72A.25.25,0,0,0,51.19,51.19Z"/><path class="cls-2" d="M45.31,55.34a20.21,20.21,0,0,0-3.87,1.29.22.22,0,0,0-.12.28.21.21,0,0,0,.28.11,35.72,35.72,0,0,1,3.82-1.29C45.64,55.66,45.54,55.29,45.31,55.34Z"/><path class="cls-2" d="M27.2,63.67c-1.69.36-3.35.87-5,1.32-2,.56-5,2.09-7,1-.23-.14-.47.27-.24.42h0c1.56,1,3.27.28,4.94-.17,2.49-.68,5-1.27,7.48-2.09a.24.24,0,0,0,.12-.32A.25.25,0,0,0,27.2,63.67Z"/><path class="cls-2" d="M21.6,59c.2-.15,0-.45-.24-.31h0a10.17,10.17,0,0,0-4,5.5.27.27,0,0,0,.15.35.28.28,0,0,0,.13,0A13.46,13.46,0,0,0,23.39,63a.21.21,0,0,0,.12-.29.23.23,0,0,0-.29-.12A21.55,21.55,0,0,1,18,64l-.15.42L17.57,64,18,64A10.11,10.11,0,0,1,21.6,59Z"/><path class="cls-2" d="M32.7,63.63c-1.31-.16-2.64-.2-4-.27-.33,0-.4.49-.07.51,1.32.11,2.64.24,4,.26C32.94,64.13,33,63.67,32.7,63.63Z"/><path class="cls-2" d="M26.11,8.45a25.7,25.7,0,0,0,2.37,2.63c.22.21.54-.13.37-.36A24.5,24.5,0,0,0,26.58,8.1c-.25-.26-.71.06-.46.35Z"/><path class="cls-2" d="M28.69.35a21.53,21.53,0,0,0,3.37,8.36.29.29,0,0,0,.4,0,.3.3,0,0,0,.09-.33A84.87,84.87,0,0,1,29.28.19c-.09-.34-.67-.19-.59.16Z"/><path class="cls-2" d="M34.39,7.88c.12.3.53.11.44-.19-.28-1-.61-1.88-.94-2.82-.12-.34-.62-.12-.5.21C33.7,6,34,7,34.39,7.88Z"/><path class="cls-2" d="M4.09,25.2h0a22.74,22.74,0,0,0,7.05,1.56c.42,0,.52-.61.08-.65A31.52,31.52,0,0,1,4.3,24.69C4,24.57,3.74,25.07,4.09,25.2Z"/><path class="cls-2" d="M9.75,29.48a.25.25,0,0,0,.21-.29A.24.24,0,0,0,9.69,29a6.85,6.85,0,0,1-3.43-.6c-.34-.16-.54.35-.23.52H6A5,5,0,0,0,9.75,29.48Z"/><path class="cls-2" d="M10,22.05a6.34,6.34,0,0,0,3.34,1.68c.26,0,.39-.38.13-.46a7.83,7.83,0,0,1-3.14-1.64c-.26-.23-.59.19-.33.42Z"/><path class="cls-2" d="M14.46,13.67c1.43,1.44,2.83,2.94,4.35,4.29.21.19.55-.14.36-.34-1.39-1.53-2.92-2.92-4.4-4.35-.24-.23-.54.17-.31.4Z"/><path class="cls-2" d="M20.57,14.25l1,.91c.21.19.55-.14.35-.35l-1-1c-.25-.25-.61.2-.35.44Z"/><path class="cls-2" d="M8.08,65.36A36.28,36.28,0,0,0,1.94,68.1a.36.36,0,0,0-.18.44.35.35,0,0,0,.43.18,36.32,36.32,0,0,0,6.15-2.89C8.63,65.65,8.35,65.28,8.08,65.36Z"/><path class="cls-2" d="M6.14,64.42c.28-.09.15-.54-.14-.5a32.42,32.42,0,0,0-3.38.77c-.35.09-.29.66.08.58h0A31.4,31.4,0,0,0,6.14,64.42Z"/><path class="cls-2" d="M5.7,53.31c-1.84.34-3.65.82-5.47,1.28-.35.09-.29.65.09.58,1.85-.38,3.72-.75,5.54-1.25C6.21,53.82,6.05,53.24,5.7,53.31Z"/><path class="cls-2" d="M4,51.25H4c.84.06,1.67.11,2.51.09.28,0,.27-.44,0-.48-.81-.1-1.62-.14-2.44-.17C3.67,50.67,3.59,51.22,4,51.25Z"/><path class="cls-2" d="M11.8,72.73a50.3,50.3,0,0,0-5.23,4.66c-.22.23.15.58.39.39H7a49.15,49.15,0,0,0,5.2-4.69C12.36,72.87,12,72.57,11.8,72.73Z"/><path class="cls-2" d="M14,76c-.91.7-1.76,1.49-2.62,2.26-.3.25.06.72.35.47h0c.88-.77,1.8-1.52,2.63-2.37C14.55,76.12,14.21,75.79,14,76Z"/><path class="cls-2" d="M18.25,77.9c-1.73,1.68-3.25,3.6-4.81,5.43-.25.3.21.65.46.37a71.28,71.28,0,0,0,4.7-5.44C18.76,78,18.46,77.7,18.25,77.9Z"/><path class="cls-2" d="M24.29,84.35h0a24.34,24.34,0,0,0-.7,2.35c-.06.29.38.4.49.14.3-.74.54-1.48.77-2.25C25,84.22,24.41,84,24.29,84.35Z"/><path class="cls-2" d="M28.45,85.68h0a7.74,7.74,0,0,1-1.83,4.91c-.18.23.14.57.37.37a6,6,0,0,0,2-5.28C29,85.38,28.45,85.36,28.45,85.68Z"/><path class="cls-2" d="M31.91,88h0c-.56,1.72-1.14,3.43-1.61,5.17-.07.24.33.35.42.12.61-1.68,1.12-3.39,1.65-5.09C32.46,87.93,32,87.73,31.91,88Z"/><path class="cls-2" d="M38.1,86.58a.33.33,0,0,0-.37.28h0a64.06,64.06,0,0,0-.86,6.6.26.26,0,0,0,.23.28.25.25,0,0,0,.27-.21q.68-3.27,1-6.58A.34.34,0,0,0,38.1,86.58Z"/><path class="cls-2" d="M40,88.24h0c.06,1.06.11,2.13.23,3.19,0,.31.47.23.47-.06,0-1.07-.11-2.14-.18-3.2C40.53,87.83,40,87.9,40,88.24Z"/><path class="cls-2" d="M43.43,88.26a.25.25,0,0,0-.21.28h0a61.34,61.34,0,0,1,.59,7.17c0,.25.43.25.44,0a27.07,27.07,0,0,0-.54-7.24A.24.24,0,0,0,43.43,88.26Z"/><path class="cls-2" d="M46.73,88.53h0c.14.87.3,1.75.44,2.62,0,.27.46.22.42-.05-.13-.88-.25-1.76-.38-2.63C47.17,88.15,46.67,88.22,46.73,88.53Z"/><path class="cls-2" d="M53.92,88.19c.6,2.54,1.18,5.08,1.91,7.58.07.24.48.13.43-.12-.51-2.53-1.18-5-1.83-7.53C54.36,87.8,53.84,87.86,53.92,88.19Z"/><path class="cls-2" d="M57.6,87.64h0c.35,1.58.64,3.18,1.12,4.73.09.27.52.14.48-.13-.23-1.58-.67-3.13-1-4.68C58.08,87.2,57.52,87.27,57.6,87.64Z"/><path class="cls-2" d="M62.19,86.28c-.19-.29-.61,0-.42.32h0c.53.83,1.06,1.67,1.64,2.47.19.26.53,0,.38-.29C63.29,87.93,62.73,87.1,62.19,86.28Z"/><path class="cls-2" d="M76.68,21.38A33.47,33.47,0,0,0,83.48,16c.23-.22-.13-.52-.37-.37A32.86,32.86,0,0,0,76.39,21C76.23,21.18,76.46,21.5,76.68,21.38Z"/><path class="cls-2" d="M74.83,19.66h0a8.31,8.31,0,0,0,3.53-3.56c.12-.23-.25-.45-.4-.23a10.28,10.28,0,0,1-3.42,3.3C74.27,19.33,74.54,19.82,74.83,19.66Z"/><path class="cls-2" d="M72.43,17.35h0c.49-.89,1-1.77,1.43-2.67.12-.23-.25-.46-.39-.23-.54.88-1,1.78-1.53,2.69C71.77,17.44,72.26,17.65,72.43,17.35Z"/><path class="cls-2" d="M57.6,10.75A17.57,17.57,0,0,0,59,4.28c0-.27-.42-.34-.43,0h0a23.16,23.16,0,0,1-1.36,6.36C57.14,10.84,57.5,11,57.6,10.75Z"/><path class="cls-2" d="M60.29,12.23a38.81,38.81,0,0,0,1.3-4c.11-.34-.39-.56-.51-.22h0c-.44,1.34-.93,2.67-1.24,4C59.79,12.37,60.19,12.46,60.29,12.23Z"/><path class="cls-2" d="M63.72,13.33c.6-1,1.15-2.12,1.71-3.19.15-.29-.31-.48-.46-.2h0c-.57,1.07-1.15,2.12-1.68,3.21C63.16,13.42,63.58,13.58,63.72,13.33Z"/><path class="cls-2" d="M48.83,9.13a12.71,12.71,0,0,1,.85-4.64.24.24,0,0,0-.15-.32.23.23,0,0,0-.31.12h0a8.73,8.73,0,0,0-.91,4.84C48.34,9.42,48.82,9.44,48.83,9.13Z"/><path class="cls-2" d="M45.46,8.31c.16.26.58.1.44-.19-.23-.5-.48-1-.74-1.5-.15-.32-.67-.1-.5.21Z"/><path class="cls-2" d="M94.43,45.38a61.3,61.3,0,0,0-9.67.45c-.4,0-.29.6.08.59h0a60.27,60.27,0,0,0,9.59-.5C94.72,45.87,94.74,45.39,94.43,45.38Z"/><path class="cls-2" d="M88.76,42.56a.22.22,0,0,0-.25-.19c-1.58.18-3.15.5-4.73.77a.26.26,0,0,0,.07.52h0c1.58-.27,3.17-.48,4.72-.83A.22.22,0,0,0,88.76,42.56Z"/><path class="cls-2" d="M84.34,38.79a3.73,3.73,0,0,1,3.14-.85c.29,0,.43-.41.14-.5a3.56,3.56,0,0,0-3.67.84C83.64,38.55,84,39.05,84.34,38.79Z"/><path class="cls-2" d="M80.62,31.37a.28.28,0,0,0,.33.14h0c2.88-1.09,5.84-2.11,8.62-3.46a.24.24,0,0,0,.12-.33.26.26,0,0,0-.31-.13c-2.94.93-5.79,2.23-8.63,3.42A.27.27,0,0,0,80.62,31.37Z"/><path class="cls-2" d="M80.43,29.42a15.34,15.34,0,0,1,4.2-1.86c.27-.09.14-.53-.14-.49A10.52,10.52,0,0,0,80.08,29C79.78,29.17,80.13,29.63,80.43,29.42Z"/><path class="cls-2" d="M81.08,26.16l-1.52.73c-.33.16-.1.7.22.52h0l1.47-.82C81.5,26.44,81.34,26,81.08,26.16Z"/><path class="cls-2" d="M79.12,68.23c-.29-.17-.59.33-.3.52h0a58.94,58.94,0,0,0,7.37,4.39A.24.24,0,0,0,86.5,73a.23.23,0,0,0-.07-.27A57.65,57.65,0,0,0,79.12,68.23Z"/><path class="cls-2" d="M77.69,70.59a.27.27,0,0,0-.35.16.28.28,0,0,0,.14.35h0a15.74,15.74,0,0,1,4.59,3.16c.2.19.51-.13.34-.34A11.09,11.09,0,0,0,77.69,70.59Z"/><path class="cls-2" d="M75.08,75.34c-.19-.31-.63,0-.44.33h0a4.62,4.62,0,0,0,2.58,2.12.23.23,0,0,0,.31-.12.23.23,0,0,0-.12-.31A5.31,5.31,0,0,1,75.08,75.34Z"/><path class="cls-2" d="M69.94,80.31h0a31.49,31.49,0,0,0,.87,3.44.28.28,0,0,0,.36.13.29.29,0,0,0,.16-.28,32.87,32.87,0,0,0-.78-3.37C70.45,79.85,69.84,79.92,69.94,80.31Z"/><path class="cls-2" d="M89,60.46a31.72,31.72,0,0,0-5,0c-.34,0-.35.61,0,.62h0A34.34,34.34,0,0,0,89,61a.28.28,0,0,0,0-.56Z"/><path class="cls-2" d="M84.08,56.25c.32.11.52-.38.21-.48S83.76,56.15,84.08,56.25Z"/><path class="cls-2" d="M88.39,58.14c.18.19.58,0,.43-.25A3,3,0,0,0,85,56.54c-.42.16-.15.77.28.65h0A2.9,2.9,0,0,1,88.39,58.14Z"/><path class="cls-2" d="M84.71,65.8c.23.19.58-.14.37-.37a8.33,8.33,0,0,0-1-1c-.23-.21-.61.15-.39.39h0A9.17,9.17,0,0,0,84.71,65.8Z"/></svg>