<svg id="Layer_1" data-name="Layer 1" xmlns="http://www.w3.org/2000/svg" viewBox="0 0 36.87 38.66"><defs><style>.cls-1{fill:#02203d;}.cls-2{fill:#0168ff;fill-rule:evenodd;}</style></defs><circle class="cls-1" cx="18.43" cy="19.53" r="18.16"/><path class="cls-2" d="M36.62,17.92a.51.51,0,0,0-.07-.15.37.37,0,0,0,.27-.45h0C35.26,8.4,28.72.24,19.08,0,10.36-.21,2.5,7.39.57,15.5a.28.28,0,0,0,.1.29C-2.44,26.61,5.73,37.68,16.9,38.6,28.25,39.53,38.63,29.48,36.62,17.92Zm-4.35-8A4.15,4.15,0,0,0,30,8.39a10.38,10.38,0,0,0-1.22-1.5A3,3,0,0,1,31,8.44c.18.31.73,0,.55-.32a4.55,4.55,0,0,0-.43-.62,21.52,21.52,0,0,1,2.06,3l-.52-.57A.23.23,0,0,0,32.27,9.94ZM26.49,5.29a2.67,2.67,0,0,0-1-.87.29.29,0,0,0,.13-.49h0l0,0A4.73,4.73,0,0,1,27,4.67l-.24-.07c-.27-.06-.37.35-.12.46.45.18.88.4,1.32.61,0,.07.1.12.14.18a.25.25,0,0,0,.38.08l.59.35a3,3,0,0,0-1,0,7.68,7.68,0,0,0-1.43-1A.21.21,0,0,0,26.49,5.29ZM22.11,2.23a.26.26,0,0,0-.2.37,7.62,7.62,0,0,0-3.21-.43s0,0,0,0h1.06c.29,0,.28-.35.09-.5a16.35,16.35,0,0,1,3.67.66A8.16,8.16,0,0,0,22.11,2.23ZM14.42,4.66l.39-.14a.49.49,0,0,0,0,.12l-.05,0a.23.23,0,0,0-.13.24A.34.34,0,0,0,14.42,4.66ZM4.17,15.83a8.63,8.63,0,0,1,1-4.28c.1-.21-.06-.35-.24-.37l.3-.25a.24.24,0,0,0,.06-.32c.27-.33.52-.67.78-1l.45-.32c-.2.23-.41.46-.59.71a.27.27,0,0,0,.2.41,4.68,4.68,0,0,0-.74,1.33.33.33,0,0,0,.21.4A.32.32,0,0,0,6,12H6a6.63,6.63,0,0,1,.31-.59.31.31,0,0,0,.16.12A22.69,22.69,0,0,0,4.17,15.83ZM2.32,14.55a6,6,0,0,0-.57.93c0-.12,0-.24.05-.35a.43.43,0,0,0-.18-.4A19.74,19.74,0,0,1,3,11.62a.26.26,0,0,0,.27-.1h0c.63-.76,1.27-1.52,1.9-2.3a3.54,3.54,0,0,0-.08.45l-.33.26a.22.22,0,0,0,0,.32l0,0L4.21,11a5.5,5.5,0,0,0-1.9,2.55.32.32,0,0,0,.11.38A6.17,6.17,0,0,0,2.32,14.55Zm13-11.94.23-.07v0ZM16.56,2A3.42,3.42,0,0,0,16,2.2c0-.14-.09-.28-.26-.23h0a9.5,9.5,0,0,0-1.15.35,3.53,3.53,0,0,0-.46,0,17.34,17.34,0,0,1,2.47-.57.21.21,0,0,0,0,.13A.15.15,0,0,0,16.56,2ZM11.9,3.19a4.59,4.59,0,0,0-.41.36c-.24.09-.49.16-.73.24C11.14,3.58,11.51,3.38,11.9,3.19ZM10.44,4l-.25.12L10.47,4Zm-.69.77a7.11,7.11,0,0,0-1.84,1A18.2,18.2,0,0,1,9.65,4.48a.28.28,0,0,0,0,.2C9.67,4.73,9.71,4.75,9.75,4.78ZM7.17,7.18,7.34,7l.1,0ZM8.3,9.11a.28.28,0,0,0,0-.13A.25.25,0,0,0,8,8.91a2.12,2.12,0,0,0-.2.12,13.88,13.88,0,0,1,1.8-1A9.64,9.64,0,0,0,8.3,9.11Zm2.58-3.72a.23.23,0,0,0-.29-.1h0A11.93,11.93,0,0,0,9.06,6H9a7.34,7.34,0,0,0-1,.53A12.43,12.43,0,0,1,10.9,5,.34.34,0,0,0,11,4.88a.18.18,0,0,0,.15.11c.14,0,.29,0,.43,0A6.38,6.38,0,0,0,10.88,5.39Zm2-1.8a.27.27,0,0,0-.23.32.29.29,0,0,0,.09.15,3.44,3.44,0,0,0-.51.25.31.31,0,0,0-.17.25h-.88a.18.18,0,0,0-.16.11.28.28,0,0,0-.16-.14,7.27,7.27,0,0,0,.75-.35A.26.26,0,0,0,11.76,4l0,0a.23.23,0,0,0,.26,0l.78-.43.69-.24s0,0,0,.06,0,.06.07.09ZM30.41,6.75l.39.44a4.82,4.82,0,0,0-.43-.36l0,0S30.4,6.77,30.41,6.75Zm-2-1.57a4.7,4.7,0,0,0-.63-.77,18.19,18.19,0,0,1,1.61,1.32A7.89,7.89,0,0,0,28.41,5.18Zm-2.68-2,.48.25a4.44,4.44,0,0,0-.52-.15A.18.18,0,0,0,25.73,3.19ZM35.81,17.92h0C35.43,28.13,29.38,37.81,18,37.25,7.8,36.76,2.21,29.14,1.61,20.19l.06-.32c.16,0,.31-.12.27-.3s-.07-.38-.1-.57a20.22,20.22,0,0,1,.72-2.56.23.23,0,0,0-.14-.29.22.22,0,0,0-.27.11c-.09.21-.17.42-.25.63a6.41,6.41,0,0,1,.55-1.65.22.22,0,0,0,.31-.19h0a6.27,6.27,0,0,1,.48-1.82,6.38,6.38,0,0,1,.82-1.18h.06a5.73,5.73,0,0,0-.49,4.48.25.25,0,0,0,.26.17.26.26,0,0,0,.48,0h0A36.31,36.31,0,0,1,6.56,12.3a.25.25,0,0,0,.2-.14h0A12.18,12.18,0,0,1,8.2,10c.52-.5,1-1,1.54-1.53v0c.2-.17.39-.34.6-.5a.19.19,0,0,0,0-.33,13.87,13.87,0,0,1,3.29-.86.25.25,0,0,0,.22-.27.26.26,0,0,0-.28-.22h0A11.38,11.38,0,0,0,8.5,8c.1-.19-.11-.41-.29-.27a5.8,5.8,0,0,0-.52.47.27.27,0,0,0-.4-.1h0L7,8.25a10.4,10.4,0,0,1,3-2,.24.24,0,0,0,.13-.15.38.38,0,0,0,.08.25.42.42,0,0,0,.55.07,5.67,5.67,0,0,1,1.76-.78.2.2,0,0,0,.21,0l.07,0a5.18,5.18,0,0,1,1.36-.11A.46.46,0,0,0,14.63,5a.21.21,0,0,0,.24.16,5.9,5.9,0,0,1,3.38.14,4.38,4.38,0,0,0-1.08.27,7.81,7.81,0,0,0-2.24.39.26.26,0,0,0-.13.34.24.24,0,0,0,.27.16l.85-.1a.3.3,0,0,0,0,.34.32.32,0,0,0,.46.07h0a5,5,0,0,1,.87-.49,13.61,13.61,0,0,1,2.21.15c.35.06.41-.47.07-.55-.11,0-.23,0-.34-.08h.1a.25.25,0,0,0,.21-.28.25.25,0,0,0-.21-.21,5,5,0,0,0-.67,0,.32.32,0,0,0,.11-.12.3.3,0,0,0-.14-.37h0a4.5,4.5,0,0,0-2.27-.43.35.35,0,0,0-.06-.18l.17,0a.29.29,0,0,0,.24-.33.26.26,0,0,0-.08-.13.24.24,0,0,0-.13-.46c-.46,0-.92.08-1.37.13l.31-.08c.92-.14,1.83-.31,2.74-.46a.26.26,0,0,0,.2-.2.22.22,0,0,0,.14.08A13,13,0,0,1,21.13,3a13.33,13.33,0,0,0-2.75-.24.25.25,0,0,0,0,.49l.15,0-.19,0c-.47.14-.23.8.2.78a7.38,7.38,0,0,1,4.3.86c-.65,0-1.3,0-2,0-.41-.22-.83-.43-1.26-.62-.23-.09-.46.25-.23.4s.55.34.83.5a.39.39,0,0,0,.39.43h.32l1.41.75c.31.17.52-.28.3-.49H23a4.7,4.7,0,0,1,2.26,1.44l.12.22a.28.28,0,0,0,.12.12,5.69,5.69,0,0,1,.32.55.25.25,0,0,0,.26.13s0,0,0,0a.23.23,0,0,0,0,.3c.55.44,1.1.84,1.67,1.25A.24.24,0,0,0,28,9.59h0c-.55-.43-1.1-.84-1.68-1.23a.18.18,0,0,0-.12,0A.27.27,0,0,0,26.33,8h0a5.45,5.45,0,0,0-.56-1A2.93,2.93,0,0,0,23.6,5.42a.32.32,0,0,0,0-.36.45.45,0,0,0,.07-.79,5.62,5.62,0,0,0-.9-.56.23.23,0,0,0-.16-.34l-.35-.1a.29.29,0,0,0,.18-.43,14.09,14.09,0,0,1,2.22.45,0,0,0,0,1,0,0l-.13,0a.25.25,0,0,0-.32.15.26.26,0,0,0,.12.31l.83.55a2.76,2.76,0,0,0-1.05-.14c-.29,0-.26.44,0,.49a3,3,0,0,1,2.48,2.14c.08.31.57.27.51-.07,0-.12-.06-.23-.09-.35.66.61,1.3,1.24,1.89,1.89H28.8l-.28,0a.16.16,0,0,0-.15.11,4.15,4.15,0,0,0-1.76-.6c-.24,0-.37.35-.12.43a4.73,4.73,0,0,1,3.08,2.47c.17.34.71.12.55-.23h0a4.22,4.22,0,0,0-1.2-1.67,4.33,4.33,0,0,1,.5.08,12.68,12.68,0,0,1,.9,1.24c.18.27.65,0,.49-.29h0c-.09-.18-.2-.36-.3-.53a3.81,3.81,0,0,1,1.92,2.56c-.38-.49-.77-1-1.18-1.45a.22.22,0,0,0-.32,0,.23.23,0,0,0,0,.31c.38.58.79,1.13,1.2,1.68,0,0,0,0,0,.06.08.37.15.75.23,1.13a.2.2,0,0,0,.17.22.19.19,0,0,0,.21-.17h0a1.49,1.49,0,0,0,0-.36c.05.06.09.12.14.17a.28.28,0,0,0,.4,0,.28.28,0,0,0,.05-.38h0l-.45-.59,0,0a11.89,11.89,0,0,1,1.64,3c.13.38.7.14.58-.24h0A7.16,7.16,0,0,0,33.25,12,.17.17,0,0,0,33,12a4.07,4.07,0,0,0-.19-.92c.37.46.75.9,1.13,1.35a.33.33,0,0,0,.22.11,28.81,28.81,0,0,1,1.74,4.9.51.51,0,0,0,.09.18A.33.33,0,0,0,35.81,17.92ZM22.4,5.77l-.28-.15.29,0A.33.33,0,0,0,22.4,5.77Z"/><path class="cls-2" d="M9,10.23a25.66,25.66,0,0,0,3.83-1.7A.28.28,0,0,0,13,8.2a.22.22,0,0,0,.22.12C14.13,8.18,15,8,15.9,7.76c.35-.08.28-.64-.08-.56-.91.21-1.83.39-2.72.67A.2.2,0,0,0,13,8.1.27.27,0,0,0,12.64,8h0A27.8,27.8,0,0,0,8.75,9.76C8.46,9.94,8.75,10.32,9,10.23Z"/><path class="cls-2" d="M33.9,21.45a15.36,15.36,0,0,1-3,6.53c-.22.3.16.72.46.47h0a8.79,8.79,0,0,0,3-7C34.41,21.13,34,21.18,33.9,21.45Z"/><path class="cls-2" d="M33.68,15.24a5,5,0,0,1-.25,4.56c-.2.33.25.7.48.38h0a4.45,4.45,0,0,0,.25-5.2A.28.28,0,0,0,33.68,15.24Z"/><path class="cls-2" d="M31.85,19.8c-.27.78-.5,1.58-.69,2.38-.09.34.49.5.59.17a22.33,22.33,0,0,0,.6-2.41.25.25,0,0,0-.21-.3A.27.27,0,0,0,31.85,19.8Z"/><path class="cls-2" d="M27.15,32.83h0a8.8,8.8,0,0,1-3.79,2.09c-.3.1-.15.56.15.53a6.12,6.12,0,0,0,4-2.21C27.78,33,27.39,32.59,27.15,32.83Z"/><path class="cls-2" d="M25.46,32.33a26.59,26.59,0,0,0,2-1.85c.28-.27-.08-.76-.37-.49h0a24.54,24.54,0,0,0-2,2C24.88,32.18,25.22,32.52,25.46,32.33Z"/><path class="cls-2" d="M20.13,35.89h0A38.77,38.77,0,0,0,15,36a.29.29,0,0,0-.23.34.29.29,0,0,0,.23.23,37,37,0,0,0,5.16-.06C20.46,36.45,20.45,35.89,20.13,35.89Z"/><path class="cls-2" d="M17.05,34c-.26-.13-.46.25-.25.42a1.44,1.44,0,0,0,1.88.05c.25-.15,0-.57-.25-.43h0Z"/><path class="cls-2" d="M21.37,33.91h0a8.7,8.7,0,0,0-1.24.22.28.28,0,0,0,.07.55,9,9,0,0,0,1.26-.15.3.3,0,0,0,.24-.37A.32.32,0,0,0,21.37,33.91Z"/><path class="cls-2" d="M12.93,34.47a36.18,36.18,0,0,0-4.81-2.64c-.26-.11-.49.26-.26.42a37,37,0,0,0,4.81,2.67c.26.13.51-.3.26-.45Z"/><path class="cls-2" d="M10,31.13c.33.08.49-.48.16-.58a4,4,0,0,1-2-1.54c-.18-.25-.54,0-.45.26A2.76,2.76,0,0,0,10,31.13Z"/><path class="cls-2" d="M2.42,19.74a18.61,18.61,0,0,0,2.17,8.68.29.29,0,0,0,.39.14.3.3,0,0,0,.15-.37h0a66.42,66.42,0,0,1-2.21-8.45C2.86,19.49,2.42,19.44,2.42,19.74Z"/><path class="cls-2" d="M4.9,19.36a7.4,7.4,0,0,0,.7,4.51A.33.33,0,0,0,6,24a.33.33,0,0,0,.16-.41,14.35,14.35,0,0,1-.76-4.26C5.41,19.05,5,19.08,4.9,19.36Z"/><path class="cls-2" d="M6,16.57H6a22.26,22.26,0,0,0,.84-2.78c.07-.3-.4-.41-.52-.14a24.68,24.68,0,0,0-.91,2.67C5.26,16.7,5.83,17,6,16.57Z"/><path class="cls-2" d="M8.5,13a25.73,25.73,0,0,0,2.57-2,.29.29,0,0,0,0-.41.27.27,0,0,0-.38-.05h0a28.56,28.56,0,0,0-2.56,2.1C8,12.9,8.28,13.16,8.5,13Z"/><path class="cls-2" d="M8.05,16A6.5,6.5,0,0,1,10,14.16c.31-.18,0-.61-.33-.44h0a5.09,5.09,0,0,0-2,2C7.51,16,7.89,16.18,8.05,16Z"/><path class="cls-2" d="M15.33,8.75c-.93.42-1.88.81-2.78,1.29a.21.21,0,0,0-.1.28.2.2,0,0,0,.26.1c.95-.36,1.87-.8,2.8-1.23C15.79,9.06,15.61,8.62,15.33,8.75Z"/><path class="cls-2" d="M22,8.11a4.24,4.24,0,0,0-1.8-.45.26.26,0,0,0,0-.34h0a2.29,2.29,0,0,0-3.18-.61l-.1.07a.25.25,0,0,0,0,.34.27.27,0,0,0,.27.07,2,2,0,0,1,2.58.49,0,0,0,0,0,0,0A4.18,4.18,0,0,0,18.64,8a.25.25,0,0,0-.12.32.24.24,0,0,0,.25.14,6.12,6.12,0,0,1,3.06.18.26.26,0,0,0,.33-.16A.28.28,0,0,0,22,8.11Z"/><path class="cls-2" d="M30.69,13.33c.16.25.58,0,.45-.26h0a3.94,3.94,0,0,0-2.63-2.29c-.29-.08-.35.35-.13.47A5.59,5.59,0,0,1,30.69,13.33Z"/><path class="cls-2" d="M25.73,10.29c.26.12.44-.3.17-.43h0l-1.38-.63c-.25-.11-.4.27-.17.39C24.81,9.86,25.26,10.08,25.73,10.29Z"/><path class="cls-2" d="M21.62,10h0a8.54,8.54,0,0,0-3.45.11.21.21,0,0,0-.18.24.21.21,0,0,0,.24.18,12.38,12.38,0,0,1,3.33-.06.22.22,0,0,0,.26-.2A.24.24,0,0,0,21.62,10Z"/><path class="cls-2" d="M15.72,8.46a6.4,6.4,0,0,0,1.07.06c.3,0,.38-.46.06-.49h0a10.59,10.59,0,0,0-1.13,0C15.46,8,15.46,8.44,15.72,8.46Z"/><path class="cls-2" d="M15.56,11.15h0a3.1,3.1,0,0,0-1.53.48c-.21.12,0,.48.21.37a2.6,2.6,0,0,1,1.38-.37C15.93,11.61,15.86,11.13,15.56,11.15Z"/><path class="cls-2" d="M30.26,15.59a2.15,2.15,0,0,1,1.11,2.11.29.29,0,0,0,.25.3.27.27,0,0,0,.29-.23h0a2.07,2.07,0,0,0-1.41-2.59C30.26,15.11,30,15.43,30.26,15.59Z"/><path class="cls-2" d="M29.24,25.1c-.17.4-.34.8-.5,1.2a.24.24,0,0,0,0,.35.25.25,0,0,0,.22.09,1.14,1.14,0,0,0,1-1.25,1.16,1.16,0,0,0-.23-.59C29.57,24.68,29.21,24.85,29.24,25.1Z"/><path class="cls-2" d="M31.71,23.07a15.49,15.49,0,0,0-.6,1.86c-.08.32.44.46.55.16a17.58,17.58,0,0,0,.55-1.88C32.27,22.92,31.82,22.81,31.71,23.07Z"/><path class="cls-2" d="M26.94,13.56a.23.23,0,0,0-.32,0,.23.23,0,0,0,0,.31,2.52,2.52,0,0,1,.93,1.49c.1.32.57.12.48-.2A2.84,2.84,0,0,0,26.94,13.56Z"/><path class="cls-2" d="M18.42,12.87h0a2.56,2.56,0,0,0-1.78.26.23.23,0,0,0-.1.31.26.26,0,0,0,.28.11l1.54-.19a.24.24,0,0,0,.27-.22A.23.23,0,0,0,18.42,12.87Z"/><path class="cls-2" d="M17.11,32.18h0a13.58,13.58,0,0,0-2.5-.75c-.3-.05-.4.38-.14.51a14.52,14.52,0,0,0,2.49.82C17.29,32.83,17.42,32.29,17.11,32.18Z"/><path class="cls-2" d="M30.37,30.55h0l-1.2,1.13a.22.22,0,0,0-.11.29.23.23,0,0,0,.28.12,2.1,2.1,0,0,0,1.47-1.35C30.94,30.45,30.51,30.29,30.37,30.55Z"/><path class="cls-2" d="M29.28,30h0A9.08,9.08,0,0,0,28.12,31c-.2.2.12.5.33.34a7.7,7.7,0,0,0,1.13-1C29.81,30.16,29.54,29.76,29.28,30Z"/><path class="cls-2" d="M7.15,19.76a24,24,0,0,0-.34,3,.3.3,0,0,0,.27.34.3.3,0,0,0,.33-.26h0a23.15,23.15,0,0,0,.23-3.12C7.64,19.47,7.2,19.51,7.15,19.76Z"/><polygon class="cls-2" points="1.95 19.57 1.94 19.57 1.95 19.57 1.95 19.57"/><path class="cls-2" d="M23.54,8.12a.3.3,0,0,0,.06-.41h0A2.91,2.91,0,0,0,20.13,6.5c-.26.09-.14.49.13.46a2.84,2.84,0,0,1,2.85,1.12A.3.3,0,0,0,23.54,8.12Z"/></svg>