<svg xmlns="http://www.w3.org/2000/svg" width="154.277" height="51.881" viewBox="0 0 154.277 51.881">
  <g id="Group_65800" data-name="Group 65800" transform="translate(0)">
    <g id="Group_40073" data-name="Group 40073" transform="translate(63.277 6.149)">
      <text id="Binance" transform="translate(0 19)" fill="#fcb700" font-size="25" font-family="Helvetica"><tspan x="0" y="0">Binance</tspan></text>
      <text id="Smart_Chain" data-name="Smart Chain" transform="translate(2.066 36.583)" fill="#fcb700" font-size="14" font-family="Helvetica"><tspan x="0" y="0">Smart Chain</tspan></text>
    </g>
    <g id="Group_40075" data-name="Group 40075" transform="translate(0 0)">
      <g id="Group_40074" data-name="Group 40074">
        <path id="Path_70191" data-name="Path 70191" d="M-334.607,2687.669l-5.807,5.81-10.25-10.25-9.983,9.986-5.888-5.888,15.793-15.793Z" transform="translate(376.507 -2671.535)" fill="#fcb700"/>
        <path id="Path_70192" data-name="Path 70192" d="M-333.837,2851.572l-15.921,15.921-16.008-16.008,5.81-5.81,10.119,10.119,10.111-10.111Z" transform="translate(375.87 -2815.612)" fill="#fcb700"/>
        <rect id="Rectangle_388" data-name="Rectangle 388" width="8.217" height="8.327" transform="translate(40.182 26.034) rotate(-45)" fill="#fcb700"/>
        <path id="Path_70193" data-name="Path 70193" d="M-412.6,2793.028l-5.81,5.81-5.885-5.888,5.807-5.807Z" transform="translate(424.297 -2767.184)" fill="#fcb700"/>
        <rect id="Rectangle_389" data-name="Rectangle 389" width="8.217" height="8.327" transform="translate(20.224 26.034) rotate(-45)" fill="#fcb700"/>
      </g>
    </g>
  </g>
</svg>
