<svg xmlns="http://www.w3.org/2000/svg" width="224.448" height="52.109" viewBox="0 0 224.448 52.109">
  <g id="Group_65787" data-name="Group 65787" transform="translate(-4168.847 -233.461)">
    <g id="Layer_1" data-name="Layer 1" transform="translate(4171.849 237.461)">
      <g id="Group_65785" data-name="Group 65785">
        <ellipse id="Ellipse_13268" data-name="Ellipse 13268" cx="27" cy="26.055" rx="27" ry="26.055" transform="translate(-3.002 -4)" fill="#fff"/>
        <g id="Group_66286" data-name="Group 66286" transform="translate(-2.294 -2.549)">
          <g id="Group_65784" data-name="Group 65784" transform="translate(13.366 14.483)">
            <path id="Path_183344" data-name="Path 183344" d="M4199.841,253.1h-17.065l1.9-6.814h13.265Z" transform="translate(-4178.383 -246.286)" fill="#043f6b"/>
            <path id="Path_183345" data-name="Path 183345" d="M4192.028,254.184l.594,4.332h-6.2l.594-4.332-1.814-3.5h8.645Z" transform="translate(-4176.594 -243.04)" fill="#043f6b"/>
            <g id="Group_65783" data-name="Group 65783" transform="translate(0 8.788)">
              <path id="Path_183346" data-name="Path 183346" d="M4184.836,251.341l-4.587,3.5L4186.485,265h2.64l2.722-2.627v-1.258l-3.134-3.025V253.92Z" transform="translate(-4180.249 -251.341)" fill="#043f6b"/>
              <path id="Path_183347" data-name="Path 183347" d="M4195.46,251.341l4.587,3.5L4193.811,265h-2.64l-2.722-2.627v-1.258l3.135-3.025V253.92Z" transform="translate(-4174.194 -251.341)" fill="#043f6b"/>
            </g>
          </g>
          <path id="Path_183348" data-name="Path 183348" d="M4195.182,281.06l-.355-.2-17.431-9.822.1-19.875,17.888-9.853.354.2,17.432,9.822-.1,19.875Zm-16.357-10.808,16.366,9.221,16.458-9.068.091-18.286-16.365-9.221-16.458,9.066Z" transform="translate(-4168.99 -235.479)" fill="#043f6b"/>
        </g>
      </g>
    </g>
    <g id="Layer_3" data-name="Layer 3" transform="translate(4231.589 247.39)">
      <g id="Group_65786" data-name="Group 65786">
        <path id="Path_183349" data-name="Path 183349" d="M4296.969,250.069c2.625-3.548,7.614-2.993,9.226.17.307-.295.61-.594.923-.882a6.113,6.113,0,0,1,6.541-1.313,4.659,4.659,0,0,1,3.02,3.922,8.051,8.051,0,0,1,.12,1.517c0,3.21-.01,6.419.008,9.627,0,.432-.108.579-.553.56-.805-.034-1.614-.032-2.42,0-.425.016-.532-.134-.53-.539.015-2.823.008-5.646.008-8.47a6.173,6.173,0,0,0-.183-1.56,2.8,2.8,0,0,0-2.47-2.248,3.113,3.113,0,0,0-3.356,1.73,4.548,4.548,0,0,0-.416,1.988c0,2.858-.008,5.717.011,8.575,0,.419-.118.539-.529.524-.824-.031-1.65-.029-2.474,0-.413.015-.54-.112-.538-.533.018-2.875.009-5.751.01-8.627a3.963,3.963,0,0,0-.826-2.7,3.173,3.173,0,0,0-5.009.529,4.526,4.526,0,0,0-.566,2.371c0,2.771-.011,5.542.012,8.311,0,.489-.1.685-.631.656-.8-.044-1.612-.024-2.419,0-.343.008-.491-.058-.489-.455q.02-7.575,0-15.15c0-.311.074-.435.406-.429.9.019,1.79.021,2.684,0,.36-.008.45.136.44.466C4296.955,248.755,4296.969,249.412,4296.969,250.069Z" transform="translate(-4155.101 -243.734)" fill="#fff"/>
        <path id="Path_183350" data-name="Path 183350" d="M4240.648,250.471c.424-.465.716-.837,1.057-1.157a6.459,6.459,0,0,1,8.751.058,9.042,9.042,0,0,1,.741,11.783c-2.452,2.978-7.425,3.511-10.154.223-.087-.1-.176-.206-.274-.319-.19.207-.115.408-.115.586-.006,1.929-.019,3.859.006,5.788,0,.452-.14.563-.566.547-.824-.031-1.649-.021-2.473,0-.331.006-.489-.084-.461-.444.025-.332,0-.667,0-1v-18.2c0-.693,0-.694.674-.694.79,0,1.581.013,2.368-.006.337-.006.463.092.452.447C4240.63,248.824,4240.648,249.575,4240.648,250.471Zm4.413,10.111a4.09,4.09,0,0,0,2.987-1.2,5.67,5.67,0,0,0,.663-6.633,4.278,4.278,0,0,0-7.2-.193,5.466,5.466,0,0,0-.862,4.009A4.542,4.542,0,0,0,4245.061,260.583Z" transform="translate(-4189.917 -243.73)" fill="#fff"/>
        <path id="Path_183351" data-name="Path 183351" d="M4271.974,255.648a8.008,8.008,0,0,1-8.208,8.006,7.9,7.9,0,0,1-8.149-7.983,8.18,8.18,0,0,1,16.357-.023Zm-8.239-4.94a4.634,4.634,0,0,0-4.618,4.937,4.79,4.79,0,0,0,4.69,4.98,4.679,4.679,0,0,0,4.681-4.948A4.778,4.778,0,0,0,4263.734,250.708Z" transform="translate(-4178.498 -243.727)" fill="#fff"/>
        <path id="Path_183352" data-name="Path 183352" d="M4281.521,255.71a8.167,8.167,0,1,1,8.113,7.944A7.893,7.893,0,0,1,4281.521,255.71Zm8.09-5a4.639,4.639,0,0,0-4.617,4.94,4.8,4.8,0,0,0,4.7,4.977,4.672,4.672,0,0,0,4.675-4.951A4.774,4.774,0,0,0,4289.611,250.708Z" transform="translate(-4162.473 -243.727)" fill="#fff"/>
        <path id="Path_183353" data-name="Path 183353" d="M4233.869,259.322q.76-2.059,1.52-4.116c.873-2.363,1.751-4.725,2.612-7.093a.592.592,0,0,1,.67-.486c.876.032,1.753.031,2.628,0,.445-.015.489.1.337.5q-2.757,7.153-5.488,14.315c-.644,1.683-1.3,3.362-1.922,5.053a.633.633,0,0,1-.724.489c-.858-.029-1.719-.021-2.578,0-.364.006-.417-.1-.283-.427.454-1.118.874-2.251,1.34-3.365a1.237,1.237,0,0,0-.016-1.047q-3.107-7.434-6.192-14.88c-.256-.622-.256-.622.4-.623.842,0,1.684.024,2.525-.01a.66.66,0,0,1,.76.511q2.031,5.351,4.1,10.686c.063.162.127.32.192.481Z" transform="translate(-4197.057 -243.732)" fill="#fff"/>
        <path id="Path_183354" data-name="Path 183354" d="M4275.042,255.665a4.709,4.709,0,0,0,3.636,4.84,4.772,4.772,0,0,0,4.438-1.345c.421-.4.615-.282.923.065.442.5.915.968,1.389,1.437.176.175.178.29,0,.471a7.714,7.714,0,0,1-5.18,2.478,7.855,7.855,0,0,1-7.114-3.061,8.238,8.238,0,0,1-.529-8.969,7.958,7.958,0,0,1,7.81-3.912A7.875,7.875,0,0,1,4285.4,250c.263.267.331.452.011.748-.567.523-1.1,1.088-1.612,1.659-.223.246-.351.235-.571,0a4.9,4.9,0,0,0-3.81-1.7,4.487,4.487,0,0,0-4.234,3.655A6.007,6.007,0,0,0,4275.042,255.665Z" transform="translate(-4168.653 -243.733)" fill="#fff"/>
        <path id="Path_183355" data-name="Path 183355" d="M4207.972,255.67a7.9,7.9,0,0,1,8.8-8,7.746,7.746,0,0,1,4.926,2.209c.3.291.34.468.013.779-.531.507-1.016,1.065-1.5,1.62-.228.262-.367.312-.645.034a5.084,5.084,0,0,0-3.17-1.591,4.487,4.487,0,0,0-4.856,3.909,5.551,5.551,0,0,0,.222,2.849,4.564,4.564,0,0,0,6.831,2.41,5.881,5.881,0,0,0,1.191-.947c.177-.188.306-.23.508-.019q.806.83,1.65,1.623c.209.2.162.311-.01.494a7.806,7.806,0,0,1-8.354,2.258,7.467,7.467,0,0,1-5.511-6.269A6.981,6.981,0,0,1,4207.972,255.67Z" transform="translate(-4207.971 -243.724)" fill="#fff"/>
        <path id="Path_183356" data-name="Path 183356" d="M4250.362,257.123c0-1.384-.014-2.769.008-4.155.007-.421-.132-.584-.542-.523a.193.193,0,0,1-.053,0c-.448-.036-1.022.2-1.311-.107-.263-.275-.063-.837-.076-1.271s.008-.843-.007-1.262c-.011-.274.092-.379.364-.367.352.015.7-.021,1.052.01.425.037.587-.1.574-.549-.031-1.034.007-2.07-.019-3.1-.009-.421.092-.592.55-.573.822.036,1.647.026,2.471,0,.363-.011.488.1.479.471-.023,1.034.029,2.07-.023,3.1-.028.563.173.681.683.652.733-.039,1.473,0,2.21-.015.3,0,.4.1.391.395q-.023,1.131,0,2.263c.006.282-.1.359-.369.356-.823-.011-1.649.006-2.472-.008-.314-.007-.433.091-.431.418.012,2.455-.008,4.911.013,7.365a1.619,1.619,0,0,0,1.74,1.7c.4.011.808.011,1.211,0,.225-.006.309.083.307.308-.008.842,0,1.683,0,2.525,0,.178-.028.308-.253.3a18.619,18.619,0,0,1-3.515-.146,3.523,3.523,0,0,1-2.942-3.537c-.056-1.418-.011-2.839-.011-4.26Z" transform="translate(-4183.006 -245.22)" fill="#fff"/>
        <path id="Path_183357" data-name="Path 183357" d="M4222.257,251.152c.2-.129.237-.345.332-.518a5.212,5.212,0,0,1,4.516-2.973c.39-.018.562.071.545.511-.036.929-.02,1.86-.006,2.789,0,.282-.067.388-.375.406a4.984,4.984,0,0,0-5.006,5.045c-.152,2.208-.055,4.417-.064,6.625,0,.487-.137.636-.619.612a22.006,22.006,0,0,0-2.263,0c-.471.024-.615-.107-.613-.6.019-4.929.011-9.856.011-14.784,0-.087.008-.176,0-.262-.028-.254.091-.34.334-.337.93.006,1.86.011,2.789,0,.342,0,.351.194.351.442q-.007,1.262,0,2.525A.819.819,0,0,0,4222.257,251.152Z" transform="translate(-4201.332 -243.712)" fill="#fff"/>
        <path id="Path_183358" data-name="Path 183358" d="M4271.067,256.819c-.092.374.167.827-.17,1.063-.491.348-1.012.85-1.593.829a2.806,2.806,0,0,1-1.578-.863c-.36-.325-.116-.9-.142-1.355-.013-.248-.128-.57.132-.735.513-.327,1.02-.822,1.6-.842s1.1.484,1.592.837C4271.248,256,4270.958,256.481,4271.067,256.819Z" transform="translate(-4171.129 -239.222)" fill="#fff"/>
      </g>
    </g>
  </g>
</svg>
