<svg xmlns="http://www.w3.org/2000/svg" width="206.141" height="46.316" viewBox="0 0 206.141 46.316">
  <g id="Group_65810" data-name="Group 65810" transform="translate(-4171.849 -237.461)">
    <g id="Layer_1" data-name="Layer 1" transform="translate(4171.849 237.461)">
      <g id="Group_65785" data-name="Group 65785">
        <ellipse id="Ellipse_13268" data-name="Ellipse 13268" cx="23.998" cy="23.158" rx="23.998" ry="23.158" fill="#003f6b"/>
        <g id="Group_65784" data-name="Group 65784" transform="translate(12.73 13.374)">
          <path id="Path_183344" data-name="Path 183344" d="M4197.652,252.226h-14.876l1.656-5.94H4196Z" transform="translate(-4178.946 -246.286)" fill="#fff"/>
          <path id="Path_183345" data-name="Path 183345" d="M4191.152,253.734l.518,3.776h-5.408l.518-3.776-1.581-3.053h7.536Z" transform="translate(-4177.698 -244.02)" fill="#fff"/>
          <g id="Group_65783" data-name="Group 65783" transform="translate(0 7.661)">
            <path id="Path_183346" data-name="Path 183346" d="M4184.247,251.341l-4,3.053,5.437,8.855h2.3l2.373-2.29v-1.1l-2.732-2.637v-3.636Z" transform="translate(-4180.249 -251.341)" fill="#fff"/>
            <path id="Path_183347" data-name="Path 183347" d="M4194.561,251.341l4,3.053-5.437,8.855h-2.3l-2.373-2.29v-1.1l2.733-2.637v-3.636Z" transform="translate(-4176.022 -251.341)" fill="#fff"/>
          </g>
        </g>
        <path id="Path_183348" data-name="Path 183348" d="M4192.9,275.961l-.31-.174-15.195-8.562.086-17.326,15.594-8.59.309.174,15.2,8.562-.088,17.326Zm-14.259-9.421,14.267,8.038,14.347-7.9.08-15.941-14.266-8.038-14.347,7.9Z" transform="translate(-4168.99 -235.477)" fill="#fff"/>
      </g>
    </g>
    <g id="Layer_3" data-name="Layer 3" transform="translate(4226.589 249.22)">
      <g id="Group_65786" data-name="Group 65786">
        <path id="Path_183349" data-name="Path 183349" d="M4296.744,249.913c2.458-3.322,7.129-2.8,8.638.159.288-.276.571-.556.864-.826a5.723,5.723,0,0,1,6.124-1.229,4.362,4.362,0,0,1,2.827,3.672,7.518,7.518,0,0,1,.112,1.42c0,3.005-.009,6.01.008,9.014,0,.4-.1.543-.518.524-.753-.032-1.511-.03-2.266,0-.4.015-.5-.126-.5-.5.014-2.643.007-5.286.007-7.93a5.773,5.773,0,0,0-.171-1.461,2.621,2.621,0,0,0-2.312-2.1,2.914,2.914,0,0,0-3.142,1.62,4.251,4.251,0,0,0-.389,1.861c0,2.676-.007,5.353.01,8.029,0,.392-.11.5-.5.491-.771-.029-1.544-.027-2.316,0-.386.014-.5-.1-.5-.5.017-2.691.008-5.384.01-8.077a3.712,3.712,0,0,0-.773-2.532,2.971,2.971,0,0,0-4.689.5,4.24,4.24,0,0,0-.531,2.22c0,2.594-.01,5.189.012,7.782,0,.458-.1.641-.591.614-.752-.041-1.509-.023-2.265,0-.321.008-.459-.055-.458-.426q.018-7.092,0-14.185c0-.291.069-.408.38-.4.838.018,1.676.02,2.513,0,.337-.008.421.127.412.436C4296.731,248.682,4296.744,249.3,4296.744,249.913Z" transform="translate(-4163.917 -243.982)" fill="#fff"/>
        <path id="Path_183350" data-name="Path 183350" d="M4240.426,250.29c.4-.435.67-.783.989-1.084a6.047,6.047,0,0,1,8.193.055,8.466,8.466,0,0,1,.693,11.032,6.235,6.235,0,0,1-9.507.209c-.081-.1-.165-.192-.257-.3-.178.194-.107.382-.107.549-.006,1.806-.018,3.613.006,5.419,0,.423-.131.527-.53.512-.771-.029-1.544-.02-2.315,0-.31.006-.458-.079-.432-.415.023-.311,0-.624,0-.937V248.285c0-.649,0-.65.631-.65.739,0,1.479.012,2.217-.006.315-.006.434.086.423.418C4240.409,248.747,4240.426,249.451,4240.426,250.29Zm4.132,9.467a3.83,3.83,0,0,0,2.8-1.128,5.308,5.308,0,0,0,.62-6.21,4.005,4.005,0,0,0-6.745-.18,5.117,5.117,0,0,0-.808,3.754A4.252,4.252,0,0,0,4244.558,259.757Z" transform="translate(-4192.927 -243.979)" fill="#fff"/>
        <path id="Path_183351" data-name="Path 183351" d="M4270.931,255.137a7.5,7.5,0,0,1-7.685,7.5,7.4,7.4,0,0,1-7.63-7.474,7.659,7.659,0,0,1,15.315-.021Zm-7.714-4.625a4.339,4.339,0,0,0-4.324,4.622,4.486,4.486,0,0,0,4.392,4.663,4.381,4.381,0,0,0,4.383-4.633A4.473,4.473,0,0,0,4263.217,250.512Z" transform="translate(-4183.412 -243.976)" fill="#fff"/>
        <path id="Path_183352" data-name="Path 183352" d="M4281.521,255.2a7.646,7.646,0,1,1,7.6,7.438A7.39,7.39,0,0,1,4281.521,255.2Zm7.574-4.683a4.343,4.343,0,0,0-4.322,4.625,4.489,4.489,0,0,0,4.4,4.66,4.374,4.374,0,0,0,4.377-4.636A4.47,4.47,0,0,0,4289.1,250.512Z" transform="translate(-4170.06 -243.976)" fill="#fff"/>
        <path id="Path_183353" data-name="Path 183353" d="M4233.343,258.577q.712-1.928,1.423-3.854c.817-2.213,1.64-4.424,2.445-6.641a.554.554,0,0,1,.627-.455c.82.03,1.642.029,2.461,0,.417-.014.458.094.315.465q-2.581,6.7-5.138,13.4c-.6,1.576-1.219,3.148-1.8,4.731a.593.593,0,0,1-.678.458c-.8-.027-1.609-.02-2.414,0-.341.006-.39-.1-.265-.4.425-1.047.818-2.108,1.255-3.151a1.159,1.159,0,0,0-.015-.98q-2.909-6.96-5.8-13.931c-.24-.582-.24-.582.371-.583.788,0,1.576.023,2.364-.009a.618.618,0,0,1,.712.479c1.268,3.34,2.555,6.671,3.838,10,.059.152.119.3.18.45Z" transform="translate(-4198.877 -243.98)" fill="#fff"/>
        <path id="Path_183354" data-name="Path 183354" d="M4274.818,255.153a4.409,4.409,0,0,0,3.4,4.531,4.468,4.468,0,0,0,4.156-1.259c.395-.371.576-.264.864.061.414.465.856.906,1.3,1.346.165.164.167.271,0,.441a7.223,7.223,0,0,1-4.85,2.32,7.355,7.355,0,0,1-6.661-2.866,7.714,7.714,0,0,1-.5-8.4,7.451,7.451,0,0,1,7.312-3.663,7.372,7.372,0,0,1,4.662,2.181c.246.25.31.423.01.7-.531.49-1.026,1.018-1.51,1.553-.208.23-.329.22-.535,0a4.584,4.584,0,0,0-3.567-1.588,4.2,4.2,0,0,0-3.964,3.422A5.611,5.611,0,0,0,4274.818,255.153Z" transform="translate(-4175.209 -243.981)" fill="#fff"/>
        <path id="Path_183355" data-name="Path 183355" d="M4207.972,255.158a7.4,7.4,0,0,1,8.235-7.489,7.253,7.253,0,0,1,4.612,2.069c.279.273.318.438.012.729-.5.474-.951,1-1.4,1.517-.213.245-.344.292-.6.032a4.76,4.76,0,0,0-2.969-1.49,4.2,4.2,0,0,0-4.547,3.66,5.2,5.2,0,0,0,.208,2.667,4.273,4.273,0,0,0,6.4,2.256,5.506,5.506,0,0,0,1.115-.887c.166-.176.286-.215.476-.018q.754.777,1.545,1.52c.2.183.151.291-.01.462a7.309,7.309,0,0,1-7.822,2.114,6.99,6.99,0,0,1-5.159-5.869A6.476,6.476,0,0,1,4207.972,255.158Z" transform="translate(-4207.971 -243.973)" fill="#fff"/>
        <path id="Path_183356" data-name="Path 183356" d="M4250.233,256.365c0-1.3-.013-2.593.007-3.89.007-.394-.124-.547-.507-.49a.181.181,0,0,1-.05,0c-.419-.033-.957.183-1.228-.1-.246-.258-.059-.783-.071-1.19s.007-.79-.007-1.182c-.01-.256.086-.355.341-.344.329.014.659-.02.985.009.4.035.55-.092.538-.514-.029-.968.007-1.938-.018-2.907-.009-.394.086-.555.515-.536.77.033,1.542.024,2.314,0,.339-.011.457.091.449.441-.021.968.027,1.938-.021,2.905-.026.527.162.638.64.611.687-.036,1.379,0,2.069-.014.277,0,.373.092.366.37q-.022,1.059,0,2.119c.006.264-.1.336-.346.333-.771-.011-1.544.006-2.315-.008-.294-.006-.4.085-.4.391.011,2.3-.008,4.6.012,6.9a1.516,1.516,0,0,0,1.629,1.6c.377.011.756.011,1.134,0,.21-.006.289.077.288.288-.007.788,0,1.576,0,2.364,0,.167-.026.288-.237.283a17.43,17.43,0,0,1-3.291-.136,3.3,3.3,0,0,1-2.755-3.311c-.052-1.328-.01-2.658-.01-3.989Z" transform="translate(-4187.169 -245.22)" fill="#fff"/>
        <path id="Path_183357" data-name="Path 183357" d="M4222.03,250.929c.185-.121.222-.323.311-.485a4.879,4.879,0,0,1,4.228-2.784c.365-.017.526.067.511.479-.033.87-.018,1.741-.006,2.611,0,.264-.062.364-.352.38a4.666,4.666,0,0,0-4.687,4.724c-.142,2.067-.051,4.136-.06,6.2,0,.456-.128.6-.58.573a20.6,20.6,0,0,0-2.119,0c-.441.023-.576-.1-.574-.562.018-4.614.01-9.228.01-13.842,0-.082.007-.165,0-.246-.026-.238.085-.318.313-.315.87.006,1.741.011,2.611,0,.32,0,.329.182.329.414q-.007,1.182,0,2.364A.766.766,0,0,0,4222.03,250.929Z" transform="translate(-4202.439 -243.963)" fill="#fff"/>
        <path id="Path_183358" data-name="Path 183358" d="M4270.842,256.7c-.086.35.156.774-.159,1-.46.326-.947.8-1.491.776a2.626,2.626,0,0,1-1.478-.808c-.337-.3-.108-.838-.133-1.268-.012-.232-.12-.533.124-.688.48-.306.955-.77,1.5-.788s1.033.453,1.49.783C4271.011,255.933,4270.739,256.381,4270.842,256.7Z" transform="translate(-4177.272 -240.222)" fill="#fff"/>
      </g>
    </g>
  </g>
</svg>
