<svg xmlns="http://www.w3.org/2000/svg" width="168.626" height="51.105" viewBox="0 0 168.626 51.105">
  <g id="Group_65806" data-name="Group 65806" transform="translate(-191.989 -102.096)">
    <path id="Path_70205" data-name="Path 70205" d="M235.653,113.951q-10.116-5.656-20.231-11.53a1.743,1.743,0,0,0-2.03,0c-6.816,3.988-13.633,7.9-20.521,11.82a1.555,1.555,0,0,0-.87,1.6v23.639a1.472,1.472,0,0,0,.943,1.668c6.889,3.916,13.778,7.831,20.666,11.82a1.413,1.413,0,0,0,1.668-.073c6.816-3.916,13.7-7.9,20.521-11.82a1.707,1.707,0,0,0,1.015-1.885c0-7.686,0-15.445.072-23.132A2.092,2.092,0,0,0,235.653,113.951Zm-8.267,13.778c0,2.1-.072,4.206,0,6.309a1.465,1.465,0,0,1-.8,1.45c-3.843,2.175-7.686,4.351-11.53,6.6a1.086,1.086,0,0,1-1.305,0c-3.771-2.175-7.614-4.423-11.457-6.526a1.426,1.426,0,0,1-.8-1.378q.109-6.526,0-13.052a1.383,1.383,0,0,1,.87-1.378c3.771-2.175,7.542-4.351,11.24-6.526a1.305,1.305,0,0,1,1.523,0c3.843,2.248,7.759,4.423,11.6,6.6a1.321,1.321,0,0,1,.653,1.305Z" transform="translate(0 0)" fill="#2b59da"/>
    <path id="Path_70206" data-name="Path 70206" d="M199.982,113.942a9.264,9.264,0,0,1,12.8-9.006,7.383,7.383,0,0,1,4.387,4.452c.21.551.2.928-.471,1.059a2.578,2.578,0,0,0-.558.2c-.979.421-1.631.515-2.212-.783a4.58,4.58,0,0,0-4.583-2.647,5.6,5.6,0,0,0-5.33,3,7.328,7.328,0,0,0-.123,6.9,5.492,5.492,0,0,0,5.337,3.162,5.2,5.2,0,0,0,5.069-3.133c.406-.87.841-.7,1.472-.5,1.936.616,1.958.653.979,2.451-2.632,4.822-10.079,5.678-14.06,1.624A8.786,8.786,0,0,1,199.982,113.942Z" transform="translate(49.897 13.569)" fill="#fff"/>
    <path id="Path_70207" data-name="Path 70207" d="M216.582,115.393c1.341-1.407,2.516-2.531,3.568-3.763a3.009,3.009,0,0,1,2.879-1.247,18.662,18.662,0,0,0,2.35.022c-1.494,1.523-2.719,2.915-4.1,4.126-1.037.9-.9,1.516-.109,2.487,1.465,1.82,2.777,3.756,4.329,5.881-1.305,0-2.349.015-3.4-.007-.464-.007-.631-.442-.856-.754-.892-1.225-1.784-2.444-2.632-3.691-.355-.522-.529-.544-1.073-.13-1.124.856-.943,1.994-.972,3.133-.015.479.3,1.218-.268,1.392a4.693,4.693,0,0,1-2.473-.015c-.3-.08-.21-.479-.21-.747,0-5.656.014-11.312-.007-16.975-.007-.718.283-.834.914-.841,2.059-.029,2.059-.058,2.059,1.943Z" transform="translate(135.114 13.503)" fill="#fff"/>
    <path id="Path_70208" data-name="Path 70208" d="M205.736,111.393a5.91,5.91,0,0,1,3.829-1.371,4.225,4.225,0,0,1,4.249,4.039c.131,2.7.051,5.424.08,8.129.007.595-.247.718-.783.747-2.132.116-2.139.138-2.139-2.038,0-1.835.015-3.669.007-5.5a2.393,2.393,0,0,0-2.415-2.669,2.569,2.569,0,0,0-2.712,2.581c-.065,2.19-.116,4.387-.087,6.577.007.848-.276,1.16-1.095,1.044a2.166,2.166,0,0,0-.718,0c-.935.145-1.2-.232-1.2-1.175q.065-8.19-.007-16.388c-.007-.928.3-1.211,1.16-1.088a3.522,3.522,0,0,0,.957.007c.674-.08.892.2.885.87C205.714,107.144,205.736,109.131,205.736,111.393Z" transform="translate(67.261 13.486)" fill="#fff"/>
    <path id="Path_70209" data-name="Path 70209" d="M215.639,109.906a4.448,4.448,0,0,0-3.771-4.713c-2.828-.58-5.584.508-6.526,2.756-.145.435-.725,1.16.145,1.305.8.072,1.74,1.305,2.466-.218a2.646,2.646,0,0,1,3.988-1.015,1.521,1.521,0,0,1,.653,1.6c-.073.58-.653.653-1.16.8-1.088.145-2.176.29-3.336.435a3.889,3.889,0,0,0-3.408,3.988,4.1,4.1,0,0,0,4.351,3.626,5.229,5.229,0,0,0,3.7-1.74c0,1.233.653,1.45,1.523,1.305h.87c.435.072.58-.073.58-.58C215.639,114.91,215.639,112.444,215.639,109.906Zm-5.874,6.164a1.734,1.734,0,0,1-2.03-1.523c-.073-.943.58-1.6,1.813-1.813a12.1,12.1,0,0,0,2.248-.363c.8-.218.943.218.87.87A2.8,2.8,0,0,1,209.765,116.07Z" transform="translate(79.33 18.402)" fill="#fff"/>
    <path id="Path_70210" data-name="Path 70210" d="M210.592,106.833a4.919,4.919,0,0,1,3.727-1.784,4.245,4.245,0,0,1,4.431,4.213c.094,2.625.029,5.257.065,7.882.007.638-.225.8-.834.819-2.146.072-2.146.094-2.146-2.009,0-1.755.022-3.51-.007-5.264-.022-1.885-.979-2.959-2.552-2.944s-2.64,1.262-2.647,3.06c-.007,2.03-.044,4.061.014,6.091.022.841-.239,1.182-1.073,1.051a1.76,1.76,0,0,0-.479,0c-1.131.2-1.494-.218-1.465-1.4.08-3.3.065-6.613.007-9.92-.022-1.022.341-1.356,1.3-1.24C209.722,105.491,210.831,105.078,210.592,106.833Z" transform="translate(97.748 18.459)" fill="#fff"/>
    <path id="Path_70211" data-name="Path 70211" d="M214.462,106.9a4.888,4.888,0,0,1,4.235-1.827,4.213,4.213,0,0,1,3.966,4.177c.087,2.625.029,5.257.065,7.889.007.616-.21.8-.827.834-2.161.094-2.154.116-2.154-1.994,0-1.791.007-3.589.007-5.381,0-1.733-.972-2.828-2.516-2.835a2.68,2.68,0,0,0-2.7,2.864c-.014,2.074-.043,4.148.015,6.214.029.885-.225,1.262-1.131,1.124a4.818,4.818,0,0,0-1.073,0c-.558.043-.783-.167-.776-.747q.022-5.493-.007-11c-.007-.558.188-.812.747-.783a8,8,0,0,0,.834.007C213.99,105.388,214.8,105.373,214.462,106.9Z" transform="translate(122.354 18.454)" fill="#fff"/>
    <path id="Path_70212" data-name="Path 70212" d="M212.717,113.618c0,2.756-.036,5.5.015,8.259.022.841-.232,1.08-1.066,1.066-1.98-.036-1.98.007-1.98-1.936,0-5.185.022-10.377-.022-15.561-.007-.95.276-1.312,1.2-1.153a1.763,1.763,0,0,0,.479,0c1.044-.167,1.436.167,1.4,1.313C212.652,108.274,212.717,110.95,212.717,113.618Z" transform="translate(110.496 13.487)" fill="#fff"/>
    <path id="Path_70213" data-name="Path 70213" d="M210.634,111.352c0-1.748.036-3.5-.022-5.257-.022-.8.268-1.015,1.03-.993,2.422.058,1.987-.239,2.009,1.907.036,3.147-.014,6.294.029,9.441.014.9-.189,1.356-1.175,1.211a3.208,3.208,0,0,0-.95.007c-.754.1-.957-.218-.935-.943C210.663,114.941,210.634,113.143,210.634,111.352Z" transform="translate(116.415 18.784)" fill="#fff"/>
    <path id="Path_70214" data-name="Path 70214" d="M209.648,111.326c0,1.791-.022,3.582.015,5.373.014.682-.145.979-.921.986-2.045.015-2.045.058-2.045-1.958,0-3.183.029-6.367-.014-9.557-.015-.841.247-1.16,1.073-1.051a3.839,3.839,0,0,0,.957,0c.725-.08.972.218.957.95-.044,1.748-.014,3.5-.014,5.257Z" transform="translate(91.854 18.774)" fill="#fff"/>
    <path id="Path_70215" data-name="Path 70215" d="M214.468,106.155a1.958,1.958,0,0,1-3.916-.022,2.005,2.005,0,0,1,1.907-1.907A1.983,1.983,0,0,1,214.468,106.155Z" transform="translate(116.047 13.315)" fill="#fff"/>
    <path id="Path_70216" data-name="Path 70216" d="M208.637,104.226a1.934,1.934,0,0,1,1.878,2.038,1.883,1.883,0,0,1-2.052,1.835,1.947,1.947,0,0,1-1.842-1.958A2.007,2.007,0,0,1,208.637,104.226Z" transform="translate(91.473 13.315)" fill="#fff"/>
  </g>
</svg>
