<svg xmlns="http://www.w3.org/2000/svg" width="148.028" height="32.402" viewBox="0 0 148.028 32.402">
  <g id="Group_65807" data-name="Group 65807" transform="translate(-200.272 -118.35)">
    <path id="Path_70217" data-name="Path 70217" d="M238.141,139.257c0,1.428-.015,2.855.005,4.283a2.432,2.432,0,0,1-1.289,2.327q-3.92,2.208-7.849,4.4a2.541,2.541,0,0,1-2.672-.039q-3.816-2.164-7.652-4.3a2.448,2.448,0,0,1-1.339-2.292c-.039-2.919-.064-2.919,2.495-4.362,1.181-.662,1.181-.662,1.186.7,0,.489.015.978-.005,1.467a2.389,2.389,0,0,0,1.289,2.322c1.368.776,2.737,1.561,4.12,2.317a2.425,2.425,0,0,0,2.564-.049c1.324-.785,2.658-1.551,4-2.312a2.4,2.4,0,0,0,1.334-2.292c-.025-1.462-.015-2.929,0-4.392a2.39,2.39,0,0,0-1.25-2.238c-1.368-.781-2.747-1.541-4.125-2.312a2.6,2.6,0,0,0-2.761.1c-4.56,2.6-9.149,5.157-13.7,7.785a3.165,3.165,0,0,1-3.567.015c-2.346-1.413-4.747-2.727-7.153-4.036a2.6,2.6,0,0,1-1.492-2.544q.052-4.164,0-8.333a2.6,2.6,0,0,1,1.516-2.529c2.406-1.314,4.8-2.648,7.158-4.036a3.156,3.156,0,0,1,3.576.054c2.174,1.334,4.392,2.593,6.639,3.8a3.364,3.364,0,0,1,1.867,3.157c.1,1.724-.341,2.875-2.01,3.453-.583.2-1.131.993-1.655.677-.41-.247-.178-1.126-.114-1.7a3.209,3.209,0,0,0-2.124-3.656A31.162,31.162,0,0,1,212.079,123a2.63,2.63,0,0,0-2.87-.025c-1.26.746-2.539,1.447-3.833,2.134a2.505,2.505,0,0,0-1.428,2.366c-.01,1.388.015,2.781,0,4.169a2.737,2.737,0,0,0,1.571,2.643q1.778.963,3.522,2a2.949,2.949,0,0,0,3.275,0c4.51-2.613,9.065-5.152,13.575-7.77a3.128,3.128,0,0,1,3.478-.049c2.42,1.428,4.881,2.8,7.336,4.169a2.507,2.507,0,0,1,1.447,2.455C238.107,136.481,238.141,137.869,238.141,139.257Z" transform="translate(0 0.122)" fill="#a039f2"/>
    <path id="Path_70218" data-name="Path 70218" d="M233.641,120.911c-.741,0-1.63-.3-1.877.84a7.042,7.042,0,0,0-9.682.988,6.735,6.735,0,0,0,.4,8.991,5.975,5.975,0,0,0,4.2,1.927,5.871,5.871,0,0,0,5.039-1.976c.3,2.667-.1,3.656-2.272,4.3a5.083,5.083,0,0,1-3.507-.346c-.692-.247-1.136-1.235-1.828-.889-.642.3-1.037,1.037-1.531,1.63a1.081,1.081,0,0,1-.2.247c-.494.4-.4.642.1,1.037a8.956,8.956,0,0,0,6.718,1.927c4.3-.4,6.718-3.063,6.718-7.311v-9.139C235.913,120.911,235.913,120.911,233.641,120.911Zm-5.384,9.534a3.512,3.512,0,0,1-3.507-3.606,3.423,3.423,0,0,1,3.606-3.359c2.322,0,3.409,1.186,3.409,3.557C231.763,129.308,230.578,130.444,228.256,130.444Z" transform="translate(79.893 7.616)" fill="#fff"/>
    <path id="Path_70219" data-name="Path 70219" d="M223.243,122.623c-2.025-2.865-5.335-3.112-9.979-.642.2-1.334-.543-1.581-1.531-1.482a3.652,3.652,0,0,1-1.037,0c-.889-.1-1.136.2-1.136,1.136.049,5.335.049,10.719.049,16.1,0,1.531,0,1.531,1.531,1.531,2.47,0,2.47,0,2.47-2.519v-4.5a7.4,7.4,0,0,0,9.188-.494C224.972,129.588,225.219,125.241,223.243,122.623Zm-6.422,7.9q-3.112.074-3.112-3.557c0-2.272,1.037-3.359,3.26-3.359a3.36,3.36,0,0,1,3.458,3.507A3.493,3.493,0,0,1,216.822,130.527Z" transform="translate(36.594 7.633)" fill="#fff"/>
    <path id="Path_70220" data-name="Path 70220" d="M237.821,123.808c-1.482-2.816-4.051-3.7-7.113-3.507a6.685,6.685,0,0,0-6.175,4.446c-1.383,4.2.988,8.842,7.607,8.892a6.625,6.625,0,0,0,4.94-2.371A6.405,6.405,0,0,0,237.821,123.808Zm-6.57,6.619a3.26,3.26,0,0,1-3.063-3.606,3.2,3.2,0,0,1,3.211-3.211c1.828,0,3.063,1.383,3.063,3.409C234.412,129.094,233.177,130.477,231.251,130.428Z" transform="translate(94.089 7.583)" fill="#fff"/>
    <path id="Path_70221" data-name="Path 70221" d="M227.128,125.057a6.347,6.347,0,0,0-5.385-4.643c-3.458-.593-6.866.889-8.1,3.507-2.322,4.891.939,9.732,6.669,9.781a7.263,7.263,0,0,0,4.94-1.778A6.347,6.347,0,0,0,227.128,125.057Zm-6.916,5.335a3.152,3.152,0,0,1-3.112-3.507,3.112,3.112,0,0,1,3.063-3.409,3.179,3.179,0,0,1,3.112,3.507C223.275,129.058,222.04,130.392,220.212,130.392Z" transform="translate(49.702 7.619)" fill="#fff"/>
    <path id="Path_70222" data-name="Path 70222" d="M231.621,122.706c1.951-2.248,4.55-2.984,6.8-2a3.37,3.37,0,0,1,2.258,3.191c.044,2.924.02,5.854.049,8.783,0,.548-.178.716-.711.692-.9-.04-1.8-.044-2.7,0-.6.03-.761-.183-.751-.766.03-2.213,0-4.431.02-6.644,0-1-.114-1.9-1.25-2.243a2.551,2.551,0,0,0-2.756,1.077,6.075,6.075,0,0,0-.953,3.522c-.01,1.388-.035,2.776.01,4.164.02.647-.084.963-.835.894a20.567,20.567,0,0,0-2.589,0c-.5.015-.642-.178-.637-.657q.022-5.572,0-11.144c0-.484.143-.692.637-.657.375.03.751,0,1.126,0C231.171,120.918,231.171,120.918,231.621,122.706Z" transform="translate(107.57 7.599)" fill="#fff"/>
    <path id="Path_70223" data-name="Path 70223" d="M220.267,138.925c.884-1.931,1.66-3.789,2.583-5.567a2.1,2.1,0,0,0-.059-2.178c-1.66-3.27-3.28-6.56-4.91-9.84-.114-.227-.2-.469-.375-.869,1.482,0,2.845.005,4.209,0,.524,0,.543.44.687.761.983,2.144,1.961,4.293,3.013,6.609.9-1.976,1.848-3.784,2.549-5.686.509-1.388,1.265-1.961,2.717-1.7a10.721,10.721,0,0,0,1.7.01c-1.082,2.45-2.1,4.767-3.127,7.084-1.566,3.522-3.157,7.034-4.708,10.561a1.115,1.115,0,0,1-1.245.835C222.342,138.876,221.374,138.925,220.267,138.925Z" transform="translate(67.9 8.052)" fill="#fff"/>
    <path id="Path_70224" data-name="Path 70224" d="M216.441,129.668c0-3.413.03-6.827-.02-10.245-.01-.81.237-1.052,1.013-.968.993.109,2.327-.425,2.9.222.494.553.163,1.852.163,2.826.01,6.115-.01,12.231.025,18.347.005.82-.109,1.24-1.067,1.131s-2.233.291-2.816-.193c-.618-.509-.178-1.828-.188-2.786C216.426,135.22,216.441,132.444,216.441,129.668Z" transform="translate(63.18 0)" fill="#fff"/>
  </g>
</svg>
