<?xml version="1.0" encoding="utf-8"?>
<!-- Generator: Adobe Illustrator 25.2.3, SVG Export Plug-In . SVG Version: 6.00 Build 0)  -->
<svg version="1.1" id="Layer_1" xmlns="http://www.w3.org/2000/svg" xmlns:xlink="http://www.w3.org/1999/xlink" x="0px" y="0px"
	 viewBox="0 0 105 105" style="enable-background:new 0 0 105 105;" xml:space="preserve">
<style type="text/css">
	.st0{opacity:0.3;}
	.st1{fill:#0168FF;}
	.st2{fill:url(#Path_51135_1_);}
	.st3{fill:url(#Path_51136_1_);}
	.st4{fill:url(#Path_51137_1_);}
	.st5{fill:url(#Path_51138_2_);}
	.st6{fill:url(#Path_51138_3_);}
	.st7{fill:url(#Path_51140_1_);}
</style>
<g id="Group_41305" transform="translate(-708.672 -3775.78)">
	<g id="Group_40367" transform="translate(0 38)">
		<g id="Group_40366" transform="translate(2837.616 582.918)" class="st0">
			<path id="Path_60557" class="st1" d="M-2101.2,3227.6c0,0,0.6,0.3,1.6,0.7c0.6,0.2,1.3,0.4,2,0.5c0.4,0.1,0.8,0.1,1.3,0.1
				c0.4,0,1,0.1,1.1-0.2c0-0.2,0-0.4-0.1-0.6c-0.1-0.2-0.3-0.4-0.5-0.6c-0.3-0.3-0.4-0.6-0.4-1c-0.1-0.7,0.8-0.3,1-0.3
				c1.2,0.4,2.2,1.3,3.4,1.8c1.2,0.5,2.6,0.4,3.8-0.2c0.5-0.2,0.7-0.9,0.5-1.4c0,0,0-0.1-0.1-0.1c-0.3-0.6-0.8-1.2-1.4-1.5
				c-1.3-0.7-2.7-1.2-4.1-1.6l-4-1.2c-0.6-0.2-1.2-0.3-1.8-0.2c-0.5,0.1-0.9,0.5-0.9,1c0,0.5,0.4,1.1,0.3,1.7
				c-0.1,0.6-0.5,1.1-1.1,1.4c-0.9,0.3-1.9,0.4-2.8,0.3l-2.1-0.1c-0.6,0-1.2-0.1-1.8-0.2c0.6-0.1,1.2-0.1,1.8-0.1l2.1,0
				c0.9,0.1,1.8,0,2.6-0.3c0.4-0.2,0.7-0.6,0.8-1c0.1-0.4-0.2-0.9-0.3-1.6c0-0.8,0.6-1.4,1.3-1.6c0.7-0.1,1.4,0,2.1,0.2l4,1.2
				c1.5,0.3,2.9,0.9,4.3,1.6c0.7,0.4,1.3,1,1.7,1.8c0.2,0.4,0.2,0.9,0.1,1.3c-0.1,0.4-0.4,0.8-0.9,1c-1.3,0.7-2.9,0.8-4.3,0.2
				c-1.3-0.6-2.2-1.5-3.3-1.9c-0.4-0.2-0.3-0.1,0,0.4c0.3,0.4,0.9,0.9,0.7,1.6c-0.1,0.3-0.5,0.5-0.8,0.5c-0.3,0-0.5,0-0.7,0
				c-0.4,0-0.9-0.1-1.3-0.2c-0.7-0.1-1.4-0.3-2-0.6c-0.4-0.2-0.8-0.4-1.2-0.6C-2101.1,3227.7-2101.2,3227.6-2101.2,3227.6z"/>
			<path id="Path_60558" class="st1" d="M-2098.8,3227.7c-0.1,0.2-1.1-0.1-2.4-0.4s-2.3-0.5-2.3-0.7s1.1-0.2,2.5,0.1
				S-2098.8,3227.5-2098.8,3227.7z"/>
			<path id="Path_60559" class="st1" d="M-2096.9,3227.8c-0.1,0.2-0.8-0.1-1.7-0.5s-1.5-0.9-1.4-1.1s0.8,0.1,1.7,0.5
				S-2096.8,3227.6-2096.9,3227.8z"/>
			<path id="Path_60560" class="st1" d="M-2095.8,3227.3c-0.1,0.2-1.1-0.1-2.2-0.7s-2-1.1-1.9-1.2s1.1,0.1,2.2,0.7
				S-2095.7,3227.2-2095.8,3227.3z"/>
			<path id="Path_60561" class="st1" d="M-2093.9,3227.1c-0.1,0.2-1.4-0.6-3-1.3s-3-1.3-2.9-1.5s1.5,0.1,3.2,0.9
				S-2093.8,3227-2093.9,3227.1z"/>
			<path id="Path_60562" class="st1" d="M-2090,3228c-0.1,0.2-2.3-0.8-5-2.1s-4.9-2.2-4.8-2.3s2.4,0.5,5.1,1.8
				S-2090,3227.8-2090,3228z"/>
			<path id="Path_60563" class="st1" d="M-2088,3227.8c-0.1,0.2-2.7-1-5.8-2.6s-5.6-3-5.5-3.1s2.7,1,5.8,2.6
				S-2087.9,3227.7-2088,3227.8z"/>
			<path id="Path_60564" class="st1" d="M-2088.7,3226.7c-0.1,0.2-1.8-0.6-3.9-1.6s-3.8-1.7-3.7-1.9s1.9,0.4,4,1.3
				S-2088.6,3226.5-2088.7,3226.7z"/>
			<path id="Path_60565" class="st1" d="M-2090.7,3224.8c-0.1,0.2-1-0.2-2.1-0.7s-2-0.8-2-1s1.1,0,2.2,0.4
				S-2090.7,3224.7-2090.7,3224.8z"/>
			<path id="Path_60566" class="st1" d="M-2126.1,3216.3c0,0,0.1-0.1,0.4-0.2c0.4-0.2,0.8-0.2,1.3-0.2c1.6,0.2,3.1,0.8,4.3,1.9
				c0.8,0.7,1.7,1.2,2.7,1.7c1,0.5,2.3,0.6,3.4,0.3c1.3-0.5,2.8-0.6,4.2-0.3c0.7,0.2,1.4,0.5,2.1,1c0.8,0.5,1.2,1.3,1.2,2.2
				c-0.1,0.3-0.3,0.6-0.6,0.8c-0.3,0.1-0.5,0.2-0.8,0.2l-1.4,0.2c-1,0.1-1.9,0.2-2.8,0.3c-0.9,0.1-1.8,0.1-2.7,0.2l-1.3,0l-0.8,0
				l0.9,1.6c0.2,0.3,0.4,0.7,0.5,1.1c0,0.3-0.1,0.5-0.3,0.7c-0.2,0.1-0.4,0.2-0.6,0.2c-1.2,0-2.3-0.2-3.5-0.5
				c-0.7-0.2-1.4-0.5-2.1-0.8c-0.2-0.1-0.5-0.2-0.7-0.4c0-0.1,1,0.5,2.9,0.9c1.1,0.3,2.2,0.4,3.4,0.4c0.3,0,0.4-0.1,0.4-0.4
				c-0.1-0.3-0.2-0.6-0.4-0.9l-1.5-2.4l1.7,0l1.3-0.1l2.6-0.2c0.9-0.1,1.8-0.2,2.8-0.3l1.4-0.2c0.5,0,0.8-0.2,0.9-0.5
				c0.1-1.2-1.5-2.1-2.7-2.4c-1.3-0.3-2.6-0.2-3.9,0.2c-1.3,0.4-2.6,0.3-3.8-0.4c-1-0.5-1.9-1.2-2.7-1.9c-1.1-1-2.5-1.7-4-2
				C-2125,3216-2125.6,3216.1-2126.1,3216.3z"/>
			<path id="Path_60567" class="st1" d="M-2118.6,3227.2c-0.1,0.2-0.8,0-1.7-0.4s-1.5-0.8-1.5-1s0.8,0,1.7,0.4
				S-2118.5,3227-2118.6,3227.2z"/>
			<path id="Path_60568" class="st1" d="M-2117.8,3226c-0.1,0.2-1.3-0.1-2.9-0.6s-2.7-1.1-2.7-1.2s1.3,0.1,2.9,0.6
				S-2117.7,3225.8-2117.8,3226z"/>
			<path id="Path_60569" class="st1" d="M-2117.5,3224.9c-0.1,0.2-1.4-0.1-3-0.7s-2.9-1.1-2.8-1.3s1.4,0.1,3,0.7
				S-2117.4,3224.7-2117.5,3224.9z"/>
			<path id="Path_60570" class="st1" d="M-2114.9,3223.8c0,0.2-2.2-0.3-4.8-1.1s-4.6-1.9-4.5-2s2.2,0.5,4.7,1.4
				S-2114.9,3223.6-2114.9,3223.8z"/>
			<path id="Path_60571" class="st1" d="M-2109.4,3223.4c0,0.2-3.7-0.7-8.2-2s-8.1-2.4-8-2.6s3.7,0.7,8.2,2
				S-2109.3,3223.2-2109.4,3223.4z"/>
			<path id="Path_60572" class="st1" d="M-2112.5,3221.3c0,0.2-2.9-0.5-6.3-1.5s-6.2-1.9-6.1-2.1s2.9,0.5,6.3,1.5
				S-2112.5,3221.1-2112.5,3221.3z"/>
			<path id="Path_60573" class="st1" d="M-2109.4,3221.4c-0.1,0.2-0.9,0.1-1.9-0.2s-1.7-0.7-1.7-0.8s0.9-0.1,1.9,0.2
				S-2109.4,3221.2-2109.4,3221.4z"/>
			<path id="Path_60574" class="st1" d="M-2092.5,3238.8c-0.4,0-0.8,0-1.2-0.1c-1-0.2-2.1-0.4-3-0.8c-2.5-0.9-5.6-2.9-9.3-4.5
				c-3.1-1.4-6.5-2.2-9.8-2.4c-2.6-0.2-4.2,0-4.2-0.1c0.4-0.1,0.7-0.2,1.1-0.2c1-0.1,2.1-0.1,3.1-0.1c3.5,0.1,6.9,0.9,10.1,2.3
				c3.7,1.7,6.7,3.7,9.2,4.7C-2095.2,3238-2093.8,3238.4-2092.5,3238.8z"/>
			<path id="Path_60575" class="st1" d="M-2101.3,3237.6c-0.1,0.2-3.3-1.4-7.5-1.9c-4.3-0.6-7.8,0.2-7.8,0c0.7-0.3,1.5-0.5,2.3-0.6
				c1.9-0.3,3.7-0.3,5.6,0c1.9,0.2,3.7,0.7,5.4,1.4C-2102.6,3236.7-2101.9,3237.1-2101.3,3237.6z"/>
			<path id="Path_60576" class="st1" d="M-2072.4,3250.3c-0.4,0.2-0.9,0.3-1.4,0.3c-1.3,0.2-2.6,0.2-3.9,0.1
				c-3.3-0.1-7.8-1.4-12.5-3.2c-3.9-1.7-8-2.9-12.2-3.8c-1.7-0.3-3.5-0.4-5.3-0.5c0.5-0.1,0.9-0.2,1.4-0.2c1.3,0,2.6,0,3.9,0.2
				c3.3,0.4,7.7,1.9,12.3,3.7c3.9,1.6,8.1,2.8,12.3,3.3C-2075.9,3250.4-2074.2,3250.4-2072.4,3250.3z"/>
			<path id="Path_60577" class="st1" d="M-2071.5,3251.1c-0.4,0.2-0.8,0.3-1.2,0.3c-1.1,0.2-2.3,0.3-3.4,0.3
				c-3.8-0.1-7.5-0.7-11-1.8c-4.2-1.2-7.9-2.5-10.7-3.1c-2.8-0.6-4.5-0.7-4.5-0.8c0.4-0.1,0.8-0.1,1.2,0c1.1,0.1,2.3,0.2,3.4,0.4
				c3.6,0.8,7.2,1.7,10.8,2.9c3.5,1.1,7.2,1.8,10.9,2C-2073.2,3251.4-2071.5,3251-2071.5,3251.1z"/>
			<path id="Path_60578" class="st1" d="M-2052.1,3237.9c0,0.1-1.8-0.7-4.8-1.5c-3.9-1.1-8-1.3-12-0.7c-2.3,0.4-4.5,1.1-6.6,1.4
				c-1.8,0.3-3.7,0.4-5.5,0.4c-1.6,0-2.8-0.1-3.7-0.2c-0.5,0-0.9-0.1-1.4-0.2c0-0.4,7.8,0.8,17.1-2.1c4.1-0.6,8.3-0.3,12.3,0.9
				c1.2,0.4,2.4,0.8,3.5,1.3C-2052.9,3237.4-2052.4,3237.6-2052.1,3237.9z"/>
			<path id="Path_60579" class="st1" d="M-2046.1,3237.3c-0.7,0.8-1.5,1.4-2.5,1.8c-1,0.5-2.1,0.8-3.2,1c-1.4,0.2-2.8,0.2-4.1,0
				c-2.9-0.4-5.4-1.1-7.2-1.4c-1.8-0.3-3-0.2-3-0.3c1-0.2,2.1-0.3,3.1-0.1c1.9,0.1,4.5,0.8,7.3,1.2c2.4,0.4,4.8,0.1,7.1-0.8
				C-2047.1,3237.9-2046.2,3237.2-2046.1,3237.3z"/>
			<path id="Path_60580" class="st1" d="M-2035.9,3233.1c0,0.1-1-0.1-2.5-0.1c-2,0.2-4,0.5-6,1.1c-2,0.6-4.1,0.9-6.2,0.8
				c-0.9,0-1.7-0.2-2.5-0.6c0-0.1,1,0.2,2.5,0.2c2-0.1,4-0.4,6-1c2-0.6,4.1-0.9,6.1-0.9C-2037.6,3232.5-2036.7,3232.7-2035.9,3233.1
				z"/>
			<path id="Path_60581" class="st1" d="M-2072.1,3245c0-0.1,1.8,0.4,4.6,1.1c2.8,0.6,6.8,1.5,11.1,0.4c2-0.6,3.9-1.3,5.8-2.1
				c1.6-0.7,3.2-1.2,4.9-1.6c1.1-0.2,2.3-0.3,3.5-0.2c0.4,0,0.8,0.1,1.2,0.3c-1.5-0.1-3.1,0.1-4.6,0.4c-1.6,0.4-3.2,1-4.7,1.7
				c-1.9,0.9-3.9,1.6-5.9,2.2c-4.4,1.1-8.6,0.1-11.3-0.6c-1.4-0.4-2.5-0.7-3.3-1C-2071.4,3245.3-2071.8,3245.2-2072.1,3245z"/>
			<path id="Path_60582" class="st1" d="M-2069,3248.3c0-0.1,1.3,0.2,3.4,0.5c2.7,0.4,5.5,0.2,8.1-0.5c1.5-0.5,2.9-1.2,4.2-1.7
				c1.2-0.5,2.4-0.8,3.6-1.1c1.1-0.3,2.3-0.4,3.4-0.4c-1.1,0.3-2.2,0.6-3.3,0.8c-1.2,0.3-2.4,0.7-3.5,1.2c-1.4,0.7-2.8,1.3-4.2,1.8
				c-2.7,0.8-5.6,0.9-8.4,0.3C-2066.8,3249.1-2067.9,3248.8-2069,3248.3z"/>
			<path id="Path_60583" class="st1" d="M-2062,3250.6c0-0.2,2.4-1,5.5-1.7c3.1-0.8,5.7-1.3,5.7-1.1s-2.4,1-5.5,1.7
				S-2061.9,3250.8-2062,3250.6z"/>
			<path id="Path_60584" class="st1" d="M-2026.8,3219c-0.4-0.1-0.8-0.2-1.1-0.4c-1.1-0.3-2.2-0.6-3.3-0.7
				c-4.2-0.4-8.4-0.3-12.5,0.5c-0.7,0-1.3,0.2-1.9,0.4c-0.6,0.2-0.8,0.9-1.2,1.5c-0.9,1.3-2.3,2.2-3.9,2.4c-1.6,0.2-3.3,0.1-4.9-0.3
				c-1.6-0.4-3.3-0.6-5.1-0.9l-10.9-1.8c-0.9-0.2-1.9-0.3-2.8-0.4c-0.9-0.1-1.7,0.4-2,1.2c-0.2,0.8,0.5,1.6,1.2,2.3
				c0.8,0.7,1.5,1.4,2.1,2.3c0.3,0.4,0.6,0.9,0.8,1.3c0.2,0.3,0.2,0.6,0.2,0.9c-0.1,0.4-0.3,0.7-0.6,0.8c-1,0.4-1.9,0.7-2.8,1.1
				c-0.8,0.3-1.7,1.1-1.1,1.6c0.3,0.2,0.8,0.4,1.2,0.4c0.5,0.1,0.9,0.1,1.4,0.1c1.8,0,3.6-0.6,5.1-1.6c1.5-1,2.4-2.7,4.1-3.6
				c1.5-0.8,3.2-1.4,4.9-1.7c1.6-0.4,3.3-0.6,4.9-0.4c0.8,0.1,1.6,0.6,2.1,1.2c0.4,0.6,0.9,1.1,1.4,1.6c1,0.9,2.3,1.5,3.6,2
				c2.2,0.9,4.6,1.3,7,1.2c2.1-0.2,3.9-0.5,5.4-0.7l3.4-0.5l0.9-0.1c0.1,0,0.2,0,0.3,0c-0.1,0-0.2,0.1-0.3,0.1l-0.9,0.2l-3.4,0.6
				c-1.5,0.2-3.2,0.6-5.4,0.8c-2.4,0.1-4.9-0.3-7.1-1.1c-1.4-0.4-2.6-1.1-3.7-2c-0.6-0.5-1.1-1.1-1.5-1.7c-0.5-0.6-1.1-0.9-1.8-1
				c-1.6-0.1-3.2,0.1-4.7,0.5c-1.7,0.3-3.3,0.8-4.8,1.6c-1.5,0.8-2.5,2.4-4,3.5c-1.6,1.1-3.5,1.7-5.5,1.7c-0.5,0-1,0-1.5-0.1
				c-0.5,0-1.1-0.2-1.5-0.6c-0.2-0.2-0.4-0.5-0.4-0.9c0-0.3,0.1-0.6,0.3-0.9c0.4-0.4,0.8-0.7,1.3-0.9c0.9-0.4,1.9-0.7,2.8-1.1
				c0.7-0.3-0.2-1.3-0.7-2.1c-0.6-0.8-1.3-1.5-2-2.2c-0.4-0.4-0.7-0.8-1-1.2c-0.3-0.5-0.4-1.1-0.3-1.7c0.4-1.1,1.5-1.8,2.6-1.7
				c1,0.1,2,0.2,2.9,0.4l10.9,1.8c1.7,0.3,3.4,0.5,5.1,0.9c1.5,0.4,3.1,0.5,4.7,0.3c1.4-0.2,2.8-1,3.6-2.2c0.4-0.6,0.7-1.4,1.5-1.7
				c0.7-0.2,1.4-0.4,2.1-0.4c5.3-0.7,9.7-0.8,12.6-0.3C-2029.7,3217.9-2028.2,3218.3-2026.8,3219z"/>
			<path id="Path_60585" class="st1" d="M-2027.9,3223.2c0.1,0.1-1,1.7-2.9,3.2c-0.8,0.6-1.7,1.2-2.7,1.6c-0.8,0.3-1.3,0.2-1.3,0.1
				s0.5-0.1,1.1-0.5c0.9-0.5,1.7-1.1,2.5-1.7C-2029.3,3224.5-2028,3223.1-2027.9,3223.2z"/>
			<path id="Path_60586" class="st1" d="M-2028.2,3222.2c0.1,0.1-2,2.2-5,4.3s-5.8,3.2-5.8,3c-0.1-0.2,2.5-1.5,5.5-3.5
				S-2028.3,3222-2028.2,3222.2z"/>
			<path id="Path_60587" class="st1" d="M-2029.5,3221.9c0.1,0.1-2,2.5-5.2,4.5c-3.2,2.1-6.3,2.9-6.3,2.8c-0.1-0.2,2.8-1.3,6-3.3
				C-2031.8,3223.8-2029.6,3221.7-2029.5,3221.9z"/>
			<path id="Path_60588" class="st1" d="M-2031,3221c0.1,0.1-2.6,2.6-6.4,5.1s-7.2,3.9-7.3,3.7c-0.1-0.2,3.2-1.8,7-4.3
				S-2031.1,3220.9-2031,3221z"/>
			<path id="Path_60589" class="st1" d="M-2031.3,3219.5c-0.6,0.8-1.3,1.4-2,2c-1.8,1.5-3.6,2.9-5.6,4.1c-2,1.2-4,2.3-6.2,3.2
				c-0.9,0.4-1.8,0.7-2.7,0.9c-0.1-0.2,4-1.8,8.5-4.7C-2034.7,3222.3-2031.4,3219.4-2031.3,3219.5z"/>
			<path id="Path_60590" class="st1" d="M-2034.1,3220c-0.5,0.7-1.1,1.2-1.8,1.7c-1.2,1-2.9,2.3-4.8,3.6s-3.8,2.4-5.2,3.1
				c-0.5,0.3-1.1,0.6-1.7,0.7c-0.5,0-0.7-0.1-0.7-0.2c0.1,0.5,3.3-1.6,7.2-4.2C-2037.2,3222.1-2034.2,3219.9-2034.1,3220z"/>
			<path id="Path_60591" class="st1" d="M-2036.6,3219.3c0.1,0.1-2.6,2.2-6,4.7c-1.7,1.2-3.2,2.3-4.4,3c-0.6,0.5-1.4,0.7-2.2,0.7
				c0-0.1,0.8-0.3,1.9-1c1.1-0.8,2.6-2,4.3-3.2C-2039.6,3221-2036.7,3219.2-2036.6,3219.3z"/>
			<path id="Path_60592" class="st1" d="M-2040.6,3218.8c0.1,0.1-2.4,2.1-5.5,4.3c-1.3,1-2.7,1.9-4.2,2.7c-0.6,0.4-1.3,0.6-2,0.6
				c0.6-0.4,1.2-0.7,1.8-1c1.1-0.6,2.4-1.7,4-2.8C-2043.3,3220.4-2040.7,3218.7-2040.6,3218.8z"/>
			<path id="Path_60593" class="st1" d="M-2043.8,3219.6c0.1,0.1-1.9,1.8-4.6,3.5c-2.7,1.7-5,2.8-5.1,2.7c-0.1-0.2,2.1-1.5,4.8-3.2
				C-2046,3220.9-2043.9,3219.4-2043.8,3219.6z"/>
			<path id="Path_60594" class="st1" d="M-2050.3,3222.2c0.1,0.1-1,1-2.5,1.7s-2.8,1.1-2.8,0.9s1.1-0.8,2.6-1.5
				C-2051.6,3222.6-2050.4,3222-2050.3,3222.2z"/>
			<path id="Path_60595" class="st1" d="M-2054,3222.7c0.1,0.1-0.5,0.7-1.5,1.2c-1,0.4-1.8,0.5-1.9,0.3s0.7-0.5,1.6-0.9
				C-2054.9,3222.8-2054.1,3222.5-2054,3222.7z"/>
			<path id="Path_60596" class="st1" d="M-2057.6,3222.8c0.1,0.1-0.7,0.9-1.9,1.3s-2.3,0.3-2.3,0.1s1-0.3,2.1-0.7
				S-2057.8,3222.6-2057.6,3222.8z"/>
			<path id="Path_60597" class="st1" d="M-2061.6,3223.1c0.1,0.1-1.5,1.2-3.7,2.2s-4,1.4-4.1,1.3s1.7-0.9,3.8-1.9
				S-2061.7,3223-2061.6,3223.1z"/>
			<path id="Path_60598" class="st1" d="M-2061.4,3222.6c0.1,0.2-2.9,1.7-6.8,3.1s-7.2,2.2-7.2,2s3.1-1.2,7-2.6
				S-2061.5,3222.4-2061.4,3222.6z"/>
			<path id="Path_60599" class="st1" d="M-2062.3,3221.6c0.1,0.2-2.8,1.6-6.6,2.9s-7,2-7,1.8s3-1.1,6.8-2.4
				S-2062.4,3221.4-2062.3,3221.6z"/>
			<path id="Path_60600" class="st1" d="M-2065.1,3221.1c0.1,0.2-2.2,1.4-5.2,2.5s-5.5,1.7-5.6,1.6s2.4-1.1,5.3-2.2
				S-2065.2,3221-2065.1,3221.1z"/>
			<path id="Path_60601" class="st1" d="M-2068.1,3221.2c0.1,0.2-2,1.1-4.6,2s-4.8,1.3-4.9,1.2s2.1-0.9,4.7-1.8
				S-2068.1,3221-2068.1,3221.2z"/>
			<path id="Path_60602" class="st1" d="M-2070.4,3220.7c0.1,0.2-1.5,1-3.7,1.6s-3.9,0.8-4,0.6s1.7-0.6,3.8-1.2
				S-2070.5,3220.5-2070.4,3220.7z"/>
			<path id="Path_60603" class="st1" d="M-2073.5,3220.5c0.1,0.2-1,0.9-2.6,1.3s-2.9,0.4-2.9,0.2s1.2-0.4,2.7-0.9
				S-2073.6,3220.3-2073.5,3220.5z"/>
			<path id="Path_60604" class="st1" d="M-2075.7,3219.7c0.1,0.2-0.9,0.7-2.2,1s-2.4,0.3-2.5,0.1s1-0.4,2.3-0.8
				S-2075.8,3219.5-2075.7,3219.7z"/>
			<path id="Path_60605" class="st1" d="M-2077.4,3219.3c0,0.2-0.4,0.3-0.9,0.3s-0.9-0.1-0.9-0.3s0.4-0.3,0.9-0.3
				S-2077.4,3219.1-2077.4,3219.3z"/>
			<path id="Path_60606" class="st1" d="M-2070.9,3229c0.1,0.1-1.7,1.2-4.1,1.9s-4.5,0.7-4.5,0.5c0-0.2,2-0.4,4.4-1.1
				S-2071,3228.8-2070.9,3229z"/>
			<path id="Path_60607" class="st1" d="M-2071.4,3227.9c0.1,0.2-1.8,0.9-4.1,1.5c-1,0.3-2,0.6-3,0.7c-0.8,0.1-1.3-0.1-1.3-0.2
				s0.5-0.1,1.2-0.2s1.8-0.5,2.9-0.9C-2073.3,3228.1-2071.4,3227.7-2071.4,3227.9z"/>
			<path id="Path_60608" class="st1" d="M-2073.9,3228c0.1,0.2-0.5,0.5-1.2,0.6s-1.3,0-1.3-0.2s0.6-0.3,1.2-0.4
				S-2073.9,3227.8-2073.9,3228z"/>
			<path id="Path_60609" class="st1" d="M-2038.5,3212.4c-1.2-0.1-2.3,0-3.5,0.1c-1.1,0.2-2.4,0.5-3.9,0.9c-1.7,0.5-3.5,0.8-5.4,0.9
				c-2,0.1-4.2-0.2-6.6-0.1c-2.5,0.2-5,0.5-7.4,1c-2.7,0.6-5.5,0.8-8.3,0.8c-2.9-0.1-5.9-0.6-8.9-0.7c-6.1-0.2-11.9,0.4-17.3,0.4
				c-4.7,0-9.4-0.7-13.9-2.3c-3.8-1.3-6.9-2-9.2-1.9c-1.2,0-2.3,0.2-3.4,0.5c1.1-0.5,2.2-0.7,3.4-0.8c2.3-0.2,5.6,0.5,9.3,1.7
				c4.4,1.5,9.1,2.2,13.8,2.1c5.3,0.1,11.1-0.6,17.3-0.4c3.1,0,6.1,0.6,8.9,0.7c2.8,0,5.5-0.2,8.2-0.7c2.5-0.5,5-0.8,7.5-1
				c2.4-0.1,4.6,0.2,6.6,0.2c1.8,0,3.6-0.3,5.3-0.8c1.3-0.4,2.7-0.6,4-0.9c0.9-0.1,1.7-0.1,2.6-0.1
				C-2039.1,3212.3-2038.8,3212.4-2038.5,3212.4z"/>
			<path id="Path_60610" class="st1" d="M-2049.3,3213.1c-0.3-0.1-0.5-0.2-0.7-0.4c-0.5-0.2-1.2-0.6-2.1-1c-2.6-1-5.4-1.6-8.2-1.7
				c-7.1-0.2-17,0.6-27.9,0.1c-5.1-0.2-10.2-1-15.2-2.2c-2.3-0.6-4.4-1.3-6.4-1.9c-1.9-0.5-3.8-0.8-5.7-0.9c-3.6-0.2-6.4-0.1-8.4,0
				l-2.3,0.1c-0.3,0-0.5,0-0.8,0c0.3-0.1,0.5-0.1,0.8-0.1c0.5-0.1,1.3-0.2,2.3-0.2c2.8-0.2,5.6-0.3,8.5-0.2c2,0,3.9,0.3,5.8,0.9
				c2,0.6,4.1,1.3,6.4,1.9c5,1.2,10,1.9,15.1,2.1c10.9,0.6,20.7-0.2,27.9,0.1c2.8,0.1,5.6,0.7,8.2,1.9c0.7,0.3,1.4,0.7,2,1.1
				C-2049.7,3212.8-2049.5,3212.9-2049.3,3213.1z"/>
			<path id="Path_60611" class="st1" d="M-2048.6,3212.5c0.1,0.1-1,0.9-2.7,1.2c-1.6,0.3-2.9-0.1-2.9-0.3c0-0.2,1.3-0.1,2.8-0.4
				C-2049.8,3212.9-2048.7,3212.4-2048.6,3212.5z"/>
			<path id="Path_60612" class="st1" d="M-2049.9,3211.6c0.1,0.2-1.5,1-3.5,1.6s-3.7,0.9-3.8,0.8s1.6-0.7,3.5-1.4
				C-2051.5,3212-2049.9,3211.5-2049.9,3211.6z"/>
			<path id="Path_60613" class="st1" d="M-2053.2,3211.4c0.1,0.2-1.2,0.9-2.8,1.5s-3.1,0.8-3.1,0.6c0-0.2,1.3-0.6,2.9-1.2
				S-2053.3,3211.2-2053.2,3211.4z"/>
			<path id="Path_60614" class="st1" d="M-2056.7,3210.7c0.1,0.2-1.8,1.2-4.3,2.1s-4.6,1.4-4.6,1.2s2-0.9,4.4-1.8
				S-2056.7,3210.5-2056.7,3210.7z"/>
			<path id="Path_60615" class="st1" d="M-2061.9,3210.6c0.1,0.2-2.1,1.3-4.9,2.4s-5.2,1.7-5.2,1.6s2.2-1.1,5-2.2
				S-2062,3210.4-2061.9,3210.6z"/>
			<path id="Path_60616" class="st1" d="M-2066.6,3210.8c0.1,0.1-1.9,1.4-4.5,2.6s-4.9,1.6-5,1.5s2.1-0.9,4.7-2
				S-2066.7,3210.6-2066.6,3210.8z"/>
			<path id="Path_60617" class="st1" d="M-2070.1,3210.7c0.1,0.2-2.1,1.2-4.8,2.4s-5,1.9-5,1.8s2.1-1.2,4.8-2.4
				S-2070.2,3210.5-2070.1,3210.7z"/>
			<path id="Path_60618" class="st1" d="M-2073.6,3210.8c0.1,0.2-2,1.3-4.5,2.5c-1.1,0.6-2.3,1-3.5,1.2c-0.9,0.2-1.5,0.1-1.6,0
				c0-0.1,0.6-0.2,1.4-0.5c1.1-0.4,2.3-0.8,3.3-1.4C-2075.8,3211.5-2073.7,3210.6-2073.6,3210.8z"/>
			<path id="Path_60619" class="st1" d="M-2078.1,3210.9c0.1,0.1-1.9,1.4-4.5,2.4s-4.9,1.4-5,1.2c0-0.2,2.1-0.8,4.7-1.8
				S-2078.2,3210.7-2078.1,3210.9z"/>
			<path id="Path_60620" class="st1" d="M-2081.8,3211c0.1,0.2-2.1,1.3-4.9,2.3s-5.2,1.5-5.2,1.4s2.2-1,5-2
				S-2081.9,3210.8-2081.8,3211z"/>
			<path id="Path_60621" class="st1" d="M-2084.1,3210.4c0.1,0.2-2.6,1.5-6.1,2.7s-6.4,2-6.4,1.8s2.8-1.2,6.2-2.4
				S-2084.2,3210.2-2084.1,3210.4z"/>
			<path id="Path_60622" class="st1" d="M-2088.5,3210.4c0.1,0.2-2.8,1.3-6.5,2.6c-1.5,0.6-3.1,1-4.7,1.4c-0.7,0.2-1.4,0.2-2.1,0
				c0-0.1,0.8-0.1,2-0.5s2.8-0.9,4.6-1.6C-2091.5,3211.1-2088.5,3210.2-2088.5,3210.4z"/>
			<path id="Path_60623" class="st1" d="M-2091.5,3210.3c0.1,0.2-2.6,1.3-6,2.3s-6.3,1.3-6.3,1.1s2.8-0.8,6.2-1.7
				S-2091.6,3210.2-2091.5,3210.3z"/>
			<path id="Path_60624" class="st1" d="M-2093.9,3209.2c0,0.2-3.3,1.3-7.6,2.5s-7.7,2-7.7,1.9s3.3-1.3,7.6-2.5
				S-2094,3209-2093.9,3209.2z"/>
			<path id="Path_60625" class="st1" d="M-2099.2,3209.3c0.1,0.2-2.6,1.2-6.1,2s-6.3,1.1-6.3,0.9s2.8-0.7,6.2-1.5
				S-2099.3,3209.1-2099.2,3209.3z"/>
			<path id="Path_60626" class="st1" d="M-2103.8,3208.8c0,0.2-2.8,1-6.2,1.9c-1.7,0.4-3.3,0.8-4.5,1c-1.2,0.2-2,0.1-1.9,0
				s0.7-0.1,1.8-0.4s2.7-0.8,4.4-1.2C-2106.7,3209.2-2103.8,3208.7-2103.8,3208.8z"/>
			<path id="Path_60627" class="st1" d="M-2107.4,3208.4c0.1,0.2-2.3,1-5.2,1.8s-5.4,1.3-5.4,1.2s2.3-1,5.2-1.8
				S-2107.5,3208.2-2107.4,3208.4z"/>
			<path id="Path_60628" class="st1" d="M-2108.6,3207.8c0,0.2-2.4,0.8-5.5,1.6s-5.5,1.4-5.6,1.2s2.4-1.1,5.4-1.9
				S-2108.6,3207.6-2108.6,3207.8z"/>
			<path id="Path_60629" class="st1" d="M-2110.3,3207.3c0,0.2-2.8,0.6-6.1,1.3s-6.1,1.5-6.1,1.3c-0.1-0.2,2.6-1.2,6-1.9
				S-2110.3,3207.1-2110.3,3207.3z"/>
			<path id="Path_60630" class="st1" d="M-2112.7,3207.3c0,0.2-2.7,0.4-6,1s-5.9,1.5-5.9,1.3c-0.1-0.2,2.5-1.3,5.8-1.9
				S-2112.7,3207.1-2112.7,3207.3z"/>
			<path id="Path_60631" class="st1" d="M-2115.8,3207.1c0,0.2-2.2,0.4-4.9,0.9s-4.8,1.1-4.9,1c-0.1-0.2,2-1.1,4.8-1.6
				S-2115.8,3206.9-2115.8,3207.1z"/>
			<path id="Path_60632" class="st1" d="M-2119.5,3206.1c0,0.2-1.1,0.4-2.3,0.9s-2.3,0.9-2.4,0.8s0.8-0.9,2.2-1.4
				S-2119.6,3205.9-2119.5,3206.1z"/>
			<path id="Path_60633" class="st1" d="M-2026,3208.4c0.1,0.1-1.3,0.7-3.5,0.5c-1.1-0.1-2.4,0-3.8,0c-0.7,0-1.4,0-2.1,0.2
				c-0.7,0.2-1.2,0.8-0.9,1.4c0.3,0.7,0.7,1.4,1.3,1.3c0.7-0.1,1.4-0.4,2.1-0.6c1.2-0.4,2.5-0.7,3.8-0.8c0.9-0.1,1.7-0.1,2.6-0.1
				c0.3,0,0.6,0,0.9,0.1c0,0.1-1.3,0.1-3.5,0.4c-1.2,0.2-2.4,0.5-3.6,0.9c-0.7,0.3-1.5,0.6-2.2,0.7c-0.5,0-1-0.2-1.3-0.5
				c-0.3-0.3-0.5-0.8-0.6-1.2c-0.2-0.5-0.1-1,0.2-1.4c0.3-0.4,0.7-0.7,1.1-0.8c0.8-0.2,1.5-0.2,2.3-0.2c1.3,0,2.6,0,3.8,0.1
				C-2028.3,3208.5-2027.1,3208.5-2026,3208.4z"/>
			<path id="Path_60634" class="st1" d="M-2050.6,3204.8c1.1-0.6,2.2-1,3.3-1.3c2.8-0.8,5.6-1.3,8.5-1.5c2.9-0.2,5.8-0.1,8.6,0.4
				c1.2,0.1,2.4,0.4,3.5,0.8c-1.2-0.1-2.4-0.2-3.5-0.4c-2.8-0.3-5.7-0.4-8.5-0.2c-2.8,0.2-5.6,0.6-8.4,1.3
				C-2048.3,3204.3-2049.4,3204.6-2050.6,3204.8z"/>
			<path id="Path_60635" class="st1" d="M-2037.2,3200.2c0-0.2,2.4-0.6,5.5-0.5s5.5,0.9,5.4,1.1c0,0.2-2.5-0.3-5.5-0.4
				C-2034.8,3200.2-2037.2,3200.4-2037.2,3200.2z"/>
			<path id="Path_60636" class="st1" d="M-2080.4,3201c0.4-0.6,0.9-1.1,1.5-1.5c1.6-1.1,3.5-1.9,5.5-2.1c2.9-0.2,5.8-0.1,8.7,0.4
				c3.5,0.3,7.1,0.2,10.6-0.3c6.4-0.7,12.9-0.8,19.4-0.5c2.5,0.1,4.5,0.3,5.9,0.5c0.7,0.1,1.2,0.2,1.6,0.2c0.2,0,0.4,0.1,0.5,0.1
				c-0.7,0-1.4,0-2.2-0.1c-1.4-0.1-3.4-0.2-5.8-0.3c-6.4-0.2-12.9,0-19.3,0.7c-3.5,0.5-7.1,0.6-10.7,0.3c-2.8-0.5-5.7-0.6-8.6-0.5
				c-1.9,0.2-3.8,0.8-5.4,1.8C-2079.3,3200-2079.8,3200.5-2080.4,3201z"/>
			<path id="Path_60637" class="st1" d="M-2125.3,3196.7c0.6-0.2,1.1-0.4,1.7-0.5c1.6-0.4,3.2-0.7,4.8-0.9c5.3-0.7,10.8-0.6,16,0.5
				c2.9,0.6,5.7,1.5,8.4,2.8c0.6,0.3,1.2,0.6,1.8,1l1.4,1.2c0.9,0.7,1.9,1,3,1.1c1.6,0,3.2-0.3,4.6-1c0.5-0.3,1.1-0.5,1.7-0.6
				c-0.5,0.3-1,0.6-1.6,0.9c-1.5,0.8-3.1,1.2-4.8,1.2c-1.2,0-2.3-0.4-3.3-1.1l-1.5-1.2c-0.5-0.4-1.1-0.7-1.7-0.9
				c-2.7-1.2-5.5-2.1-8.3-2.7c-5.2-1-10.6-1.3-15.9-0.7c-2,0.2-3.7,0.5-4.8,0.7C-2124.1,3196.6-2124.7,3196.6-2125.3,3196.7z"/>
			<path id="Path_60638" class="st1" d="M-2105.3,3194.3c0,0.1-1.1-0.3-2.9-0.6c-2.4-0.3-4.7-0.3-7.1,0c-2.8,0.4-5.3,0.9-7.1,1.2
				c-1,0.2-2,0.3-3,0.3c0.9-0.3,1.9-0.6,2.9-0.8c1.8-0.4,4.3-1,7.1-1.4c2.4-0.3,4.9-0.3,7.2,0.2
				C-2107.2,3193.4-2106.2,3193.8-2105.3,3194.3z"/>
			<path id="Path_60639" class="st1" d="M-2107.9,3189.3c0,0.2-3.2-0.2-7.2,0.1c-3.9,0.2-7.1,1-7.1,0.8c-0.1-0.2,3.1-1.2,7.1-1.5
				C-2111.1,3188.5-2107.8,3189.1-2107.9,3189.3z"/>
			<path id="Path_60640" class="st1" d="M-2073.5,3193c0,0-0.3,0.1-0.9,0.3c-0.8,0.2-1.7,0.3-2.5,0.3c-2.8-0.1-5.5-0.6-8.1-1.4
				c-2.6-0.8-5.2-1.4-7.9-1.5c-2.1,0-3.3,0.3-3.3,0.2c0,0,0.3-0.2,0.9-0.3c0.3-0.1,0.7-0.2,1.1-0.2c0.5-0.1,0.9-0.1,1.4-0.1
				c2.8,0.1,5.5,0.5,8.1,1.4c2.6,0.8,5.2,1.4,7.9,1.6C-2074.8,3193.2-2073.6,3192.9-2073.5,3193z"/>
			<path id="Path_60641" class="st1" d="M-2098.8,3183.8c-1.1-0.1-2.2-0.3-3.3-0.6c-2.6-0.6-5.2-0.9-7.9-0.7
				c-1.5,0.2-2.9,0.5-4.3,0.9c-1.2,0.3-2.4,0.5-3.6,0.6c-1.1,0.2-2.3,0.1-3.4-0.1c0-0.1,1.3-0.1,3.3-0.4c1.2-0.2,2.4-0.4,3.5-0.7
				c1.4-0.4,2.9-0.7,4.4-0.9c2.7-0.2,5.5,0.1,8.1,0.9C-2100.9,3183-2099.8,3183.3-2098.8,3183.8z"/>
			<path id="Path_60642" class="st1" d="M-2106,3181.3c0,0.2-3.2-0.1-7,0.4c-3.9,0.5-6.8,1.7-6.9,1.5c-0.1-0.1,2.9-1.6,6.8-2.1
				C-2109.2,3180.5-2106,3181.2-2106,3181.3z"/>
			<path id="Path_60643" class="st1" d="M-2107.2,3179.6c0,0.2-3.1-0.1-6.9,0.4c-3.8,0.4-6.7,1.3-6.8,1.1c-0.1-0.1,2.9-1.4,6.7-1.8
				C-2110.3,3178.9-2107.1,3179.4-2107.2,3179.6z"/>
			<path id="Path_60644" class="st1" d="M-2073.5,3182.3c0.2,0.3,0.2,0.6,0.1,1c-0.1,0.9-0.6,1.7-1.4,2.3c-1.1,0.8-2.6,1-3.9,0.6
				c-1.6-0.4-3-1.1-4.4-2c-2.4-1.5-5.2-2.2-8-2.2c-1.2,0-2.4,0-3.6-0.1c1.2-0.2,2.4-0.4,3.6-0.3c1.3,0,2.6,0.1,3.9,0.3
				c1.6,0.3,3.1,0.9,4.5,1.8c1.3,0.9,2.7,1.5,4.2,2c1.2,0.4,2.5,0.2,3.5-0.4c0.7-0.4,1.2-1.1,1.4-1.9
				C-2073.5,3182.6-2073.6,3182.3-2073.5,3182.3z"/>
			<path id="Path_60645" class="st1" d="M-2073.1,3182.1c0.1,0,0.3,0.8-0.5,1.7c-0.8,0.9-2.6,1.2-4.1,0.6c-1.9-0.6-3.7-1.4-5.3-2.5
				c0.1-0.2,2.5,0.8,5.5,1.9c1.2,0.6,2.6,0.5,3.7-0.3C-2073.2,3182.8-2073.2,3182-2073.1,3182.1z"/>
			<path id="Path_60646" class="st1" d="M-2074,3181.2c0.1,0-0.1,0.4-0.6,0.9c-0.7,0.5-1.5,0.8-2.3,0.8c-1.1,0-2.3-0.3-3.2-1
				c0.1-0.2,1.5,0.3,3.2,0.4c0.7,0,1.4-0.2,2.1-0.5C-2074.4,3181.4-2074.1,3181.1-2074,3181.2z"/>
			<path id="Path_60647" class="st1" d="M-2053.1,3183.1c-0.4,0.8-0.9,1.5-1.7,2c-0.8,0.6-1.8,0.9-2.8,0.9c-0.6,0-1.2-0.2-1.7-0.5
				c-0.5-0.3-1-0.8-1.4-1.3c-0.6-0.9-1.4-1.7-2.4-2.2c-0.8-0.3-1.7-0.4-2.6-0.3c-1.6,0.1-2.5,0.5-2.5,0.4c0.8-0.4,1.6-0.7,2.5-0.8
				c1-0.2,2-0.1,2.9,0.2c1.1,0.5,2,1.3,2.6,2.4c0.6,0.9,1.5,1.5,2.6,1.6c0.9,0,1.8-0.2,2.5-0.7
				C-2054.4,3184.2-2053.7,3183.6-2053.1,3183.1z"/>
			<path id="Path_60648" class="st1" d="M-2054.3,3183.9c-0.4,0.5-1,0.9-1.6,1.1c-0.7,0.2-1.5,0.2-2.1-0.2c-0.7-0.5-1.3-1.1-1.8-1.8
				c-0.4-0.7-1-1.2-1.6-1.7c-0.5-0.3-1.2-0.5-1.8-0.6c-0.6,0-1.2,0-1.8-0.2c0.6-0.2,1.2-0.4,1.9-0.3c0.7,0,1.4,0.2,2.1,0.5
				c0.7,0.5,1.3,1.1,1.8,1.8c0.4,0.7,1,1.2,1.6,1.7c0.5,0.3,1.1,0.5,1.7,0.3C-2054.9,3184.2-2054.3,3183.8-2054.3,3183.9z"/>
			<path id="Path_60649" class="st1" d="M-2053.1,3182.4c0.1,0-0.3,0.5-1.1,0.8c-1.1,0.3-2.2,0.2-3.2-0.3c-0.9-0.5-1.8-1.1-2.7-1.7
				c-0.6-0.5-1.1-0.7-1-0.8s0.5,0,1.3,0.4s1.7,1,2.7,1.5c0.9,0.4,1.9,0.6,2.9,0.5C-2053.6,3182.6-2053.2,3182.3-2053.1,3182.4z"/>
			<path id="Path_60650" class="st1" d="M-2047.5,3191.7c1.1-0.2,2.2-0.3,3.3-0.3c2.7,0,5.3,0.2,7.9,0.7c2.6,0.5,5.2,1.3,7.6,2.3
				l1.3,0.6c0.4,0.1,0.7,0.4,0.9,0.7c0.1,0.2,0.1,0.5-0.1,0.7c-0.1,0.1-0.2,0.1-0.2,0.1c0.2-0.2,0.2-0.5,0.1-0.7
				c-0.2-0.4-1.1-0.6-2.1-1c-2.5-0.9-5-1.6-7.6-2.1c-2.6-0.5-5.2-0.8-7.8-0.9C-2045.3,3191.9-2046.4,3191.9-2047.5,3191.7z"/>
			<path id="Path_60651" class="st1" d="M-2041.1,3190.9c0-0.2,3.7-0.3,7.9,1.1c1.8,0.6,3.6,1.3,5.3,2.1c0.7,0.3,1.4,0.7,2.1,1.1
				c-0.1,0.2-3.4-1.3-7.5-2.6C-2035.9,3191.9-2038.5,3191.3-2041.1,3190.9z"/>
			<path id="Path_60652" class="st1" d="M-2040.9,3188.8c0-0.2,3.4-0.5,7.4,0.5c1.7,0.4,3.4,1,4.9,1.8c0.5,0.2,0.9,0.6,1.2,1.1
				c0.2,0.3,0.2,0.6,0.2,0.6c-0.4-0.6-0.9-1-1.6-1.3c-1.6-0.7-3.2-1.2-4.9-1.6C-2037.6,3189-2040.9,3189-2040.9,3188.8z"/>
			<path id="Path_60653" class="st1" d="M-2040.8,3186.9c0-0.2,3-0.3,6.5,0.6c3.5,0.8,6.1,2.2,6.1,2.4c-0.1,0.2-2.8-0.9-6.2-1.7
				C-2037.9,3187.2-2040.8,3187.1-2040.8,3186.9z"/>
			<path id="Path_60654" class="st1" d="M-2038.8,3185.6c0-0.2,2,0.3,4.4,1s4.3,1.5,4.2,1.6s-2-0.3-4.4-1
				S-2038.8,3185.8-2038.8,3185.6z"/>
			<path id="Path_60655" class="st1" d="M-2045.5,3170.8c0,0.1-1.8-0.1-4.6-0.3c-3.7-0.3-7.5-0.3-11.2,0c-3.7,0.2-7.4,0.7-11.1,1.5
				c-2.8,0.6-4.5,1-4.6,0.9c0.4-0.2,0.8-0.4,1.2-0.4c0.8-0.3,1.9-0.6,3.3-0.9c3.7-0.9,7.4-1.4,11.1-1.7c3.8-0.2,7.5-0.2,11.3,0.2
				c1.4,0.2,2.6,0.3,3.4,0.5C-2046.3,3170.6-2045.9,3170.7-2045.5,3170.8z"/>
			<path id="Path_60656" class="st1" d="M-2050.4,3169c-1.3,0.1-2.7,0.1-4,0.1c-2.5,0-5.9,0.1-9.7,0.5s-7.2,0.9-9.6,1.4
				c-1.3,0.3-2.6,0.6-4,0.7c0.3-0.2,0.7-0.3,1-0.4c0.7-0.2,1.6-0.5,2.9-0.8c3.2-0.8,6.4-1.3,9.6-1.6c3.2-0.3,6.5-0.4,9.8-0.3
				c1.2,0.1,2.3,0.1,3,0.2C-2051.1,3168.9-2050.8,3168.9-2050.4,3169z"/>
			<path id="Path_60657" class="st1" d="M-2050.2,3167.7c-1.3,0.1-2.7,0.2-4,0.2c-2.5,0.1-5.9,0.2-9.6,0.7s-7.1,1.1-9.5,1.6
				c-1.3,0.3-2.6,0.6-3.9,0.8c0.3-0.2,0.6-0.3,1-0.4c0.7-0.2,1.6-0.5,2.8-0.8c3.1-0.8,6.3-1.4,9.5-1.8c3.2-0.4,6.4-0.5,9.7-0.5
				c1.2,0,2.2,0.1,2.9,0.1C-2050.9,3167.5-2050.6,3167.6-2050.2,3167.7z"/>
			<path id="Path_60658" class="st1" d="M-2054.2,3166.2c0,0.1-1.6,0.1-4.2,0.2c-3.3,0.1-6.6,0.5-9.9,1c-3.8,0.6-7.2,1.7-9.8,2.2
				c-1,0.2-2,0.3-3,0.4c-0.4,0-0.8,0-1.1-0.1c0-0.1,1.6-0.1,4.1-0.7c2.5-0.6,5.9-1.7,9.8-2.4c3.3-0.6,6.7-0.9,10-0.9
				c1.3,0,2.3,0.1,3.1,0.1C-2054.9,3166.1-2054.6,3166.1-2054.2,3166.2z"/>
			<path id="Path_60659" class="st1" d="M-2055.4,3163.9c-1.3,0.2-2.7,0.3-4,0.3c-2.5,0.1-5.9,0.4-9.7,0.9s-7.2,1.2-9.6,1.7
				c-1.3,0.4-2.6,0.6-4,0.8c0.3-0.2,0.7-0.3,1-0.4c0.7-0.2,1.6-0.5,2.8-0.8c3.2-0.8,6.4-1.5,9.6-1.9c3.2-0.4,6.5-0.7,9.8-0.7
				c1.3,0,2.3,0,3,0.1C-2056.2,3163.8-2055.8,3163.8-2055.4,3163.9z"/>
			<path id="Path_60660" class="st1" d="M-2056.9,3162.8c-1.4,0.2-2.7,0.3-4.1,0.4c-2.5,0.2-6,0.5-9.8,1.2s-7.2,1.4-9.6,2
				c-1.3,0.4-2.6,0.7-4,1c0.3-0.2,0.7-0.4,1-0.4c0.7-0.3,1.6-0.6,2.8-0.9c3.2-0.9,6.4-1.7,9.6-2.2c3.3-0.5,6.6-0.9,9.9-1
				c1.3,0,2.3,0,3,0C-2057.6,3162.7-2057.2,3162.7-2056.9,3162.8z"/>
			<path id="Path_60661" class="st1" d="M-2058.2,3162.4c-1.3,0.2-2.6,0.3-3.9,0.3c-2.4,0.2-5.7,0.5-9.3,1s-6.8,1.4-9.1,2
				c-1.2,0.4-2.5,0.7-3.8,1c1.2-0.6,2.4-1.1,3.6-1.4c3-0.9,6-1.7,9.1-2.2c3.1-0.5,6.2-0.8,9.4-0.9
				C-2060.8,3162.1-2059.5,3162.2-2058.2,3162.4z"/>
			<path id="Path_60662" class="st1" d="M-2059.6,3160.4c-1.3,0.3-2.6,0.4-3.8,0.5c-2.4,0.3-5.6,0.7-9.2,1.4s-6.8,1.5-9.1,2.2
				c-1.2,0.4-2.5,0.7-3.8,1c1.2-0.6,2.4-1.1,3.6-1.4c3-1,6-1.8,9.1-2.4c3.1-0.6,6.2-1,9.3-1.3
				C-2062.2,3160.4-2060.9,3160.3-2059.6,3160.4z"/>
			<path id="Path_60663" class="st1" d="M-2063.7,3160c-1.1,0.2-2.2,0.4-3.4,0.5c-2.1,0.3-5,0.6-8.1,1.2s-6,1.3-8,1.8
				c-1.1,0.3-2.2,0.6-3.3,0.8c1-0.5,2.1-0.9,3.2-1.2c2.6-0.8,5.3-1.5,8-2c2.7-0.5,5.5-0.9,8.2-1.1
				C-2066,3159.9-2064.8,3159.9-2063.7,3160z"/>
			<path id="Path_60664" class="st1" d="M-2068.8,3159.3c-1.1,0.2-2.1,0.4-3.2,0.4c-2,0.2-4.7,0.6-7.7,1.2s-5.7,1.2-7.6,1.8
				c-1,0.3-2.1,0.6-3.1,0.8c1-0.5,2-0.9,3-1.2c2.5-0.8,5-1.5,7.6-2c2.6-0.5,5.2-0.8,7.8-1C-2071,3159.2-2069.9,3159.2-2068.8,3159.3
				z"/>
			<path id="Path_60665" class="st1" d="M-2070.8,3159c-1,0.2-2.1,0.4-3.1,0.4c-2.5,0.3-5,0.7-7.5,1.3c-2.5,0.6-4.9,1.3-7.3,2.1
				c-1,0.4-2,0.7-3,1c0.9-0.6,1.8-1.1,2.8-1.4c2.4-1,4.8-1.8,7.3-2.3c2.5-0.6,5-0.9,7.6-1.1
				C-2072.9,3158.8-2071.8,3158.8-2070.8,3159z"/>
			<path id="Path_60666" class="st1" d="M-2074.1,3158.4c-0.9,0.2-1.9,0.4-2.9,0.4c-1.8,0.2-4.2,0.6-6.8,1.1s-5,1.2-6.7,1.7
				c-0.9,0.3-1.8,0.7-2.6,1.2c-0.1,0,0.7-1,2.4-1.6c2.2-0.8,4.4-1.5,6.7-1.9c2.3-0.5,4.6-0.8,6.9-0.9
				C-2076,3158.3-2075,3158.3-2074.1,3158.4z"/>
			<path id="Path_60667" class="st1" d="M-2077.6,3157.8c0,0.2-4-0.1-8.9,1c-4.8,1-8.4,2.8-8.5,2.6c0.7-0.6,1.5-1,2.3-1.3
				c2-0.9,4-1.5,6.1-2c2.1-0.4,4.2-0.6,6.4-0.6C-2079.3,3157.5-2078.4,3157.6-2077.6,3157.8z"/>
			<path id="Path_60668" class="st1" d="M-2083.3,3159.6c0,0.2-0.3,0.4-0.8,0.4s-0.8-0.1-0.8-0.2s0.3-0.4,0.8-0.4
				S-2083.3,3159.5-2083.3,3159.6z"/>
			<path id="Path_60669" class="st1" d="M-2044.1,3180.3c-0.3,0-0.6-0.1-0.9-0.2c-0.2,0-0.4-0.1-0.5-0.2c-0.2-0.2-0.1-0.5,0.1-0.7
				c0,0,0.1,0,0.1-0.1c0.5-0.2,1.1,0,1.3,0.4c0,0.1,0.1,0.2,0.1,0.3c0.1,0.4-0.1,0.7-0.3,1c-0.3,0.2-0.7,0.4-1.1,0.3
				c-0.8-0.1-1.5-0.6-1.8-1.4c-0.2-0.9,0.3-1.8,1.2-2c0,0,0.1,0,0.1,0c0.9-0.1,1.8,0.2,2.5,0.8c0.7,0.6,1,1.6,0.6,2.5
				c-0.4,0.8-1.2,1.3-2.1,1.3c-1.3,0.1-2.7-0.2-3.8-0.9c-0.8-0.4-1.4-1.1-1.9-1.9c-0.2-0.3-0.3-0.6-0.3-0.9c0.5,1,1.3,1.9,2.3,2.4
				c1.1,0.6,2.3,0.8,3.5,0.7c0.7,0,1.3-0.4,1.5-1c0.2-0.7,0-1.4-0.5-1.9c-0.5-0.5-1.2-0.8-1.9-0.7c-0.6,0.1-1,0.6-0.9,1.2
				c0,0,0,0,0,0.1c0.2,0.5,0.7,0.9,1.2,1c0.6,0.1,0.9-0.3,0.9-0.7c-0.1-0.3-0.4-0.6-0.7-0.5c0,0-0.1,0-0.1,0c-0.3,0.1,0,0.4,0.3,0.4
				C-2044.6,3180-2044.3,3180.2-2044.1,3180.3z"/>
			<path id="Path_60670" class="st1" d="M-2036.4,3181.3c0-0.2,1.7,0,3.5,1.2s2.6,2.6,2.5,2.7c-0.2,0.1-1.2-1.1-2.8-2.2
				C-2034.9,3181.9-2036.4,3181.5-2036.4,3181.3z"/>
			<path id="Path_60671" class="st1" d="M-2039.7,3178.3c0.1-0.2,1.6,0.3,3.4,1.1s3.2,1.5,3.1,1.7s-1.6-0.3-3.4-1.1
				S-2039.7,3178.5-2039.7,3178.3z"/>
			<path id="Path_60672" class="st1" d="M-2097.8,3175c-1,0-2,0-3-0.1c-2.4-0.1-4.9-0.1-7.3,0.1c-2.4,0.1-4.8,0.6-7.1,1.3
				c-0.9,0.4-1.8,0.9-2.6,1.4c0.6-0.9,1.5-1.5,2.4-1.9c2.3-0.8,4.8-1.3,7.2-1.5c2.5-0.2,4.9-0.2,7.4,0.1
				C-2099.7,3174.5-2098.7,3174.7-2097.8,3175z"/>
			<path id="Path_60673" class="st1" d="M-2105.5,3172.8c0,0.2-2.9,0.4-6.3,1.1c-3.5,0.7-6.2,1.7-6.2,1.6c-0.1-0.1,2.6-1.4,6.1-2.2
				C-2108.4,3172.5-2105.5,3172.6-2105.5,3172.8z"/>
			<path id="Path_60674" class="st1" d="M-2104,3170.1c0,0.2-2.6,0.1-5.6,0.6c-3.1,0.5-5.4,1.4-5.5,1.2c-0.1-0.1,2.2-1.4,5.4-1.9
				C-2106.6,3169.5-2104,3169.9-2104,3170.1z"/>
			<path id="Path_60675" class="st1" d="M-2103.3,3168.8c0,0.2-1.9,0.4-4.3,0.8s-4.2,0.8-4.3,0.6s1.8-0.9,4.2-1.3
				S-2103.3,3168.6-2103.3,3168.8z"/>
			<path id="Path_60676" class="st1" d="M-2100.4,3167.5c0,0.2-2,0.2-4.5,0.5s-4.4,0.8-4.5,0.6c-0.1-0.2,1.9-0.9,4.4-1.3
				S-2100.4,3167.3-2100.4,3167.5z"/>
			<path id="Path_60677" class="st1" d="M-2097.5,3165.5c0,0.2-2.1,0.2-4.6,0.5s-4.5,0.6-4.6,0.5c0-0.2,1.9-0.8,4.5-1.1
				S-2097.5,3165.3-2097.5,3165.5z"/>
			<path id="Path_60678" class="st1" d="M-2119.4,3203.4c0,0.2-1.8,0.7-4,1.2c-0.9,0.1-1.9,0.5-2.7,0.9c-0.6,0.4-0.8,0.8-0.9,0.7
				c-0.1,0,0-0.6,0.7-1.1c0.8-0.6,1.8-1,2.8-1.2C-2121.3,3203.5-2119.4,3203.2-2119.4,3203.4z"/>
			<path id="Path_60679" class="st1" d="M-2118.3,3201c0,0.2-1.9,0.5-4.1,1.1s-4,1.4-4.1,1.2c-0.1-0.1,1.6-1.2,3.9-1.8
				S-2118.3,3200.9-2118.3,3201z"/>
			<path id="Path_60680" class="st1" d="M-2117.3,3198.3c0,0.2-2.1,0.8-4.7,1.5c-1.1,0.3-2.1,0.7-3.1,1.3c-0.7,0.5-1.1,0.9-1.2,0.8
				c-0.1,0,0.2-0.6,0.9-1.2c1-0.7,2-1.2,3.2-1.5C-2119.5,3198.5-2117.3,3198.1-2117.3,3198.3z"/>
			<path id="Path_60681" class="st1" d="M-2116.3,3196.1c0,0.2-2.3,0.6-5.1,1.6c-1.6,0.7-3.1,1.5-4.6,2.5c-0.2-0.1,1.5-2.1,4.3-3.1
				C-2119.9,3196.4-2118.1,3196-2116.3,3196.1z"/>
			<path id="Path_60682" class="st1" d="M-2116.6,3193.3c0,0.2-2.3,1-5.3,1.8c-1.3,0.3-2.5,0.8-3.6,1.4c-0.9,0.5-1.3,0.9-1.3,0.9
				c-0.1,0,0.2-0.6,1.1-1.3c1.1-0.7,2.4-1.3,3.7-1.6C-2119.1,3193.6-2116.6,3193.1-2116.6,3193.3z"/>
			<path id="Path_60683" class="st1" d="M-2114.9,3190.3c0,0.2-2.5,0.4-5.4,1.5c-2.9,1.1-4.9,2.6-5.1,2.4c-0.1-0.1,1.8-1.9,4.8-3
				C-2117.5,3190.1-2114.8,3190.2-2114.9,3190.3z"/>
			<path id="Path_60684" class="st1" d="M-2114,3187.7c0,0.2-2.9,0.6-6.3,1.7c-1.5,0.4-2.9,1-4.2,1.7c-1,0.6-1.5,1.1-1.6,1.1
				c-0.1,0,0.3-0.8,1.3-1.5c1.3-0.8,2.8-1.4,4.3-1.9C-2117,3187.7-2114,3187.6-2114,3187.7z"/>
			<path id="Path_60685" class="st1" d="M-2112.9,3185.7c0,0.2-3,0.3-6.4,1.4c-3.5,1-6,2.6-6.1,2.4c-0.1-0.1,2.4-1.9,5.9-3
				C-2115.9,3185.4-2112.8,3185.5-2112.9,3185.7z"/>
			<path id="Path_60686" class="st1" d="M-2113,3183.4c0,0.2-2.4,0.5-5.3,1.4c-2.9,0.9-5.1,2-5.2,1.8c-0.1-0.1,2-1.6,5-2.5
				C-2115.6,3183.3-2113,3183.2-2113,3183.4z"/>
			<path id="Path_60687" class="st1" d="M-2089.3,3250.7c0,0.2-2.4,0.2-5.3,0.1s-5.3-0.4-5.2-0.6s2.4-0.2,5.3-0.1
				S-2089.3,3250.6-2089.3,3250.7z"/>
			<path id="Path_60688" class="st1" d="M-2094.5,3248.1c0,0.2-2.2,0.5-4.9,0.4s-4.9-0.7-4.8-0.8c0-0.2,2.2,0.1,4.8,0.2
				S-2094.5,3247.9-2094.5,3248.1z"/>
			<path id="Path_60689" class="st1" d="M-2100.2,3245.6c0,0.2-1.8,0.4-4,0.3s-4-0.5-4-0.7s1.8,0,4,0.1
				S-2100.2,3245.4-2100.2,3245.6z"/>
			<path id="Path_60690" class="st1" d="M-2103.6,3242.7c0,0.2-1.8,0.5-4,0.3s-3.9-0.7-3.9-0.9s1.8,0.1,3.9,0.2
				S-2103.6,3242.6-2103.6,3242.7z"/>
			<path id="Path_60691" class="st1" d="M-2105.6,3240.2c0,0.2-2,0.3-4.4,0.3s-4.4-0.1-4.4-0.3s2-0.3,4.4-0.3
				S-2105.6,3240-2105.6,3240.2z"/>
			<path id="Path_60692" class="st1" d="M-2108.7,3237.7c0,0.2-1.7,0.2-3.8,0.3s-3.8,0.1-3.8,0s1.7-0.5,3.8-0.6
				S-2108.7,3237.5-2108.7,3237.7z"/>
			<path id="Path_60693" class="st1" d="M-2110.7,3235.9c0,0.2-1.6,0.2-3.6,0.3s-3.6,0.2-3.6,0s1.6-0.5,3.6-0.6
				S-2110.7,3235.7-2110.7,3235.9z"/>
			<path id="Path_60694" class="st1" d="M-2109.7,3234c0,0.2-1.8,0.3-4.1,0.3s-4.1-0.1-4.1-0.3s1.8-0.3,4.1-0.3
				S-2109.7,3233.8-2109.7,3234z"/>
			<path id="Path_60695" class="st1" d="M-2112.7,3231.7c0,0.2-1.3,0.2-2.8,0.3s-2.8,0.1-2.8,0s1.2-0.5,2.8-0.6
				S-2112.7,3231.6-2112.7,3231.7z"/>
			<path id="Path_60696" class="st1" d="M-2047.1,3240.2c0-0.2,3-1,6.7-2.2s6.6-2.4,6.7-2.2c0.1,0.2-2.8,1.6-6.5,2.8
				S-2047,3240.3-2047.1,3240.2z"/>
			<path id="Path_60697" class="st1" d="M-2042.9,3236.1c-0.1-0.2,1.9-1,4.3-1.8s4.5-1.4,4.5-1.2s-1.9,1-4.3,1.8
				S-2042.9,3236.3-2042.9,3236.1z"/>
			<path id="Path_60698" class="st1" d="M-2038.8,3232.7c-0.1-0.2,1.4-0.8,3.2-1.3s3.4-0.9,3.4-0.7s-1.4,0.8-3.2,1.3
				S-2038.8,3232.9-2038.8,3232.7z"/>
			<path id="Path_60699" class="st1" d="M-2034.3,3229.6c0-0.2,0.5-0.5,1.3-0.8s1.4-0.5,1.4-0.3s-0.4,0.6-1.2,0.9
				S-2034.2,3229.7-2034.3,3229.6z"/>
			<path id="Path_60700" class="st1" d="M-2023.9,3207.4c0,29-23.5,52.5-52.5,52.5c-29,0-52.5-23.5-52.5-52.5
				c0-29,23.5-52.5,52.5-52.5C-2047.5,3154.9-2024,3178.4-2023.9,3207.4z M-2126.1,3207.4c0,27.4,22.3,49.7,49.7,49.7
				c27.4,0,49.7-22.3,49.7-49.7c0-27.4-22.3-49.7-49.7-49.7C-2103.9,3157.7-2126.1,3179.9-2126.1,3207.4z"/>
			<g id="Group_40364" transform="translate(-2090.739 3254.657)">
				<path id="Path_60702" class="st1" d="M0.2,0.8C0,0.7,0,0.4,0.1,0.2c0.2-0.2,0.5-0.2,0.7,0c0,0,0,0,0,0C1,0.3,1,0.6,0.8,0.8
					C0.6,1,0.4,1,0.2,0.8C0.2,0.9,0.2,0.8,0.2,0.8z"/>
			</g>
		</g>
		<g id="tokenburn" transform="translate(730.297 3759.489)">
			<linearGradient id="Path_51135_1_" gradientUnits="userSpaceOnUse" x1="10.0413" y1="53.5657" x2="52.5301" y2="11.0769">
				<stop  offset="0" style="stop-color:#00FF36"/>
				<stop  offset="0" style="stop-color:#00FE38"/>
				<stop  offset="1" style="stop-color:#0168FF"/>
			</linearGradient>
			<path id="Path_51135" class="st2" d="M18.4,25.7l0.1,0.5l2.5,16.3l0,0.1l0,0.2h4v-1.2H22l-1.9-12.8l6.5,5.5l0.2,0.2l0.1-0.2
				l3.8-6.4l3.8,6.4l0.1,0.2l0.2-0.2l6.5-5.5l-1.9,12.7h-2.9v1.2h4l0-0.2l2.5-16.4l0.1-0.5L42.5,26l-7.6,6.5l-3.8-6.4L31,26h-0.8
				l-0.1,0.1l-3.8,6.4L18.8,26L18.4,25.7z"/>
			
				<linearGradient id="Path_51136_1_" gradientUnits="userSpaceOnUse" x1="-218.2508" y1="142.2037" x2="-209.4388" y2="176.1507" gradientTransform="matrix(4.782 0 0 -1.241 1058.2697 234.6779)">
				<stop  offset="0" style="stop-color:#00FF36"/>
				<stop  offset="0" style="stop-color:#00FE38"/>
				<stop  offset="1" style="stop-color:#0168FF"/>
			</linearGradient>
			<path id="Path_51136" class="st3" d="M28.5,41.5h-0.2v1.2h4.8v-1.2H28.5z"/>
			<linearGradient id="Path_51137_1_" gradientUnits="userSpaceOnUse" x1="-1.3217" y1="42.2027" x2="41.1671" y2="-0.2861">
				<stop  offset="0" style="stop-color:#00FF36"/>
				<stop  offset="0" style="stop-color:#00FE38"/>
				<stop  offset="1" style="stop-color:#0168FF"/>
			</linearGradient>
			<path id="Path_51137" class="st4" d="M19.1,24.9c1.7,0,3.1-1.4,3.1-3.1s-1.4-3.1-3.1-3.1c-1.7,0-3.1,1.4-3.1,3.1
				S17.4,24.9,19.1,24.9L19.1,24.9z M19.1,19.8c1.1,0,1.9,0.9,1.9,1.9c0,1.1-0.9,1.9-1.9,1.9s-1.9-0.9-1.9-1.9c0-0.5,0.2-1,0.6-1.3
				C18.1,20,18.6,19.8,19.1,19.8z"/>
			<linearGradient id="Path_51138_2_" gradientUnits="userSpaceOnUse" x1="4.4408" y1="47.9652" x2="46.9296" y2="5.4764">
				<stop  offset="0" style="stop-color:#00FF36"/>
				<stop  offset="0" style="stop-color:#00FE38"/>
				<stop  offset="1" style="stop-color:#0168FF"/>
			</linearGradient>
			<path id="Path_51138" class="st5" d="M30.7,24.9c1.7,0,3.1-1.4,3.1-3.1s-1.4-3.1-3.1-3.1c-1.7,0-3.1,1.4-3.1,3.1
				S28.9,24.9,30.7,24.9L30.7,24.9z M30.7,19.8c1.1,0,1.9,0.9,1.9,1.9s-0.9,1.9-1.9,1.9s-1.9-0.9-1.9-1.9l0,0
				C28.8,20.7,29.6,19.8,30.7,19.8C30.7,19.8,30.7,19.8,30.7,19.8L30.7,19.8z"/>
			<linearGradient id="Path_51138_3_" gradientUnits="userSpaceOnUse" x1="9.8458" y1="53.3703" x2="52.3346" y2="10.8814">
				<stop  offset="0" style="stop-color:#00FF36"/>
				<stop  offset="0" style="stop-color:#00FE38"/>
				<stop  offset="1" style="stop-color:#0168FF"/>
			</linearGradient>
			<path id="Path_51138_1_" class="st6" d="M41.8,24.6c1.7,0,3.1-1.4,3.1-3.1c0-1.7-1.4-3.1-3.1-3.1c-1.7,0-3.1,1.4-3.1,3.1
				C38.7,23.2,40.1,24.6,41.8,24.6L41.8,24.6z M41.8,19.5c1.1,0,1.9,0.9,1.9,1.9s-0.9,1.9-1.9,1.9c-1.1,0-1.9-0.9-1.9-1.9l0,0
				C39.9,20.4,40.7,19.5,41.8,19.5C41.8,19.5,41.8,19.5,41.8,19.5L41.8,19.5z"/>
			<linearGradient id="Path_51140_1_" gradientUnits="userSpaceOnUse" x1="8.9678" y1="52.4923" x2="51.4566" y2="10.0034">
				<stop  offset="0" style="stop-color:#00FF36"/>
				<stop  offset="0" style="stop-color:#00FE38"/>
				<stop  offset="1" style="stop-color:#0168FF"/>
			</linearGradient>
			<path id="Path_51140" class="st7" d="M57.4,15.7C54.9,11.2,51.4,7.5,47,4.7H47l-0.2-0.1l-0.1,0.2l-0.5,0.7l-0.1,0.2l0.2,0.1h0.1
				c1.7,1.1,3.3,2.3,4.7,3.7l-3.9,3.9C42.9,9.3,37.2,7,31.3,6.8V1.3c2.7,0.1,5.5,0.5,8.1,1.3h0.1l0.2,0.1V2.5L40,1.7V1.5l-0.2-0.1
				h-0.1C23.5-3.6,6.2,5.5,1.2,21.8s4.1,33.5,20.3,38.5S55,56.2,60,39.9C62.5,31.8,61.6,23,57.4,15.7z M30.1,6.8
				C24.2,7,18.6,9.3,14.4,13.4l-3.9-3.9c5.3-5.1,12.3-8,19.6-8.1L30.1,6.8z M13.4,14.2C9.3,18.5,7,24.1,6.8,30H1.3
				c0.1-7.4,3-14.5,8.2-19.8L13.4,14.2z M6.9,31.2C7,37.1,9.4,42.8,13.4,47L9.5,51c-5.1-5.3-8.1-12.3-8.2-19.7L6.9,31.2z M10.3,51.9
				l3.9-3.9c4.3,4.1,9.9,6.4,15.8,6.5v5.6C22.7,59.9,15.6,57,10.3,51.9L10.3,51.9z M30.7,8c12.5,0,22.6,10.1,22.6,22.6
				S43.2,53.2,30.7,53.2S8.1,43.1,8.1,30.6S18.2,8,30.7,8L30.7,8z M31.3,54.5c5.9-0.1,11.6-2.5,15.8-6.6l3.9,3.9
				c-5.3,5.2-12.4,8.1-19.8,8.3L31.3,54.5z M48,47c4.1-4.3,6.4-9.9,6.5-15.8h5.6C60,38.6,57.1,45.6,52,50.9L48,47z M51.9,10.3
				c1.7,1.8,3.2,3.8,4.4,5.9c2.4,4.2,3.7,8.9,3.8,13.8h-5.6C54.3,24.2,52,18.6,48,14.4L51.9,10.3z M0.4,33.7c0.2,1.5,0.4,3,0.8,4.4
				C0.8,36.6,0.5,35.2,0.4,33.7L0.4,33.7z M3.1,43.7c0.4,0.9,0.9,1.8,1.4,2.6C4,45.4,3.5,44.6,3.1,43.7L3.1,43.7z M56.8,46.3
				c0.5-0.8,1-1.7,1.4-2.6C57.8,44.6,57.3,45.4,56.8,46.3L56.8,46.3z M60.2,38.1c0.4-1.5,0.6-2.9,0.8-4.4
				C60.8,35.2,60.6,36.6,60.2,38.1L60.2,38.1z"/>
		</g>
	</g>
</g>
</svg>
