<svg xmlns="http://www.w3.org/2000/svg" xmlns:xlink="http://www.w3.org/1999/xlink" width="115.611" height="115.61" viewBox="0 0 115.611 115.61">
  <defs>
    <linearGradient id="linear-gradient" x1="0.178" y1="1.027" x2="0.804" y2="0.124" gradientUnits="objectBoundingBox">
      <stop offset="0" stop-color="#7bf75b"/>
      <stop offset="0.138" stop-color="#75ec7c"/>
      <stop offset="0.442" stop-color="#67d2d2"/>
      <stop offset="0.522" stop-color="#64cbea"/>
      <stop offset="1" stop-color="#3172f3"/>
    </linearGradient>
    <linearGradient id="linear-gradient-2" x1="0.147" y1="0.853" x2="0.853" y2="0.147" xlink:href="#linear-gradient"/>
  </defs>
  <g id="Group_36843" data-name="Group 36843" transform="translate(-1255 -5965)">
    <path id="Path_76512" data-name="Path 76512" d="M-2506.98,1042.795h-.02c-13.545-.323-18.554-8.646-18.761-9a.877.877,0,0,1-.118-.439c0-18.4,8.721-33.58,8.809-33.731a.889.889,0,0,1,.24-.266c8.836-6.429,16.959-6.2,17.3-6.19a.869.869,0,0,1,.836.869v2.185a54.245,54.245,0,0,1,17.514.254v-2.352a.87.87,0,0,1,.256-.616.9.9,0,0,1,.616-.254,29.991,29.991,0,0,1,17.01,6.145.87.87,0,0,1,.237.262c.089.152,8.867,15.356,8.867,33.733a.868.868,0,0,1-.551.808c-.088.087-.222.225-.342.35-1.833,1.894-7.409,7.659-18.6,7.9a.886.886,0,0,1-.671-.294c-.092-.105-2.285-2.594-3.887-4.812l-.718-1.014c-1.041.26-2.084.489-3.1.712l-.068.015a43.348,43.348,0,0,1-19.165-.8l-1.122,1.442c-1.933,2.22-3.853,4.727-3.872,4.753A.872.872,0,0,1-2506.98,1042.795Zm-17.159-9.689c.8,1.207,5.475,7.511,16.743,7.937.606-.781,2.125-2.713,3.638-4.448l1.451-1.868a.871.871,0,0,1,.93-.3,41.459,41.459,0,0,0,18.921.927l.02-.006c1.187-.262,2.414-.532,3.616-.846a.873.873,0,0,1,.931.339l1.059,1.5c1.227,1.7,2.873,3.631,3.508,4.367,10.207-.353,15.3-5.615,16.984-7.36.153-.158.284-.293.4-.406-.135-16.711-7.641-30.637-8.539-32.244a29.3,29.3,0,0,0-14.967-5.668v2.5a.868.868,0,0,1-.317.672.872.872,0,0,1-.72.182,52.534,52.534,0,0,0-18.941-.281.869.869,0,0,1-.705-.194.87.87,0,0,1-.307-.664v-2.311a29.753,29.753,0,0,0-15.221,5.726C-2516.557,1002.277-2524.066,1016.286-2524.139,1033.106Zm68.407.844a.777.777,0,0,0,.082.086A.8.8,0,0,1-2455.732,1033.95Zm0,0,0,0Zm-23.535-5.414a7.1,7.1,0,0,1-6.989-7.2,7.13,7.13,0,0,1,6.83-7.212.806.806,0,0,1,.159-.015,7.1,7.1,0,0,1,6.985,7.2A7.117,7.117,0,0,1-2479.27,1028.534Zm.138-12.687a.859.859,0,0,1-.138.011,5.383,5.383,0,0,0-5.25,5.476,5.365,5.365,0,0,0,5.25,5.46,5.376,5.376,0,0,0,5.245-5.487A5.369,5.369,0,0,0-2479.132,1015.847Zm-22.044,12.687a7.106,7.106,0,0,1-6.99-7.2,7.117,7.117,0,0,1,6.867-7.213.751.751,0,0,1,.145-.014,7.1,7.1,0,0,1,6.968,7.2A7.12,7.12,0,0,1-2501.176,1028.534Zm.132-12.687a.758.758,0,0,1-.132.012,5.372,5.372,0,0,0-5.25,5.475,5.365,5.365,0,0,0,5.25,5.461,5.378,5.378,0,0,0,5.25-5.487A5.361,5.361,0,0,0-2501.043,1015.846Z" transform="translate(3802.879 5004.835)" fill="url(#linear-gradient)"/>
    <path id="Path_76520" data-name="Path 76520" d="M-2820.115,1078.6a57.87,57.87,0,0,1-57.8-57.8,57.87,57.87,0,0,1,57.8-57.8,57.871,57.871,0,0,1,57.806,57.8A57.871,57.871,0,0,1-2820.115,1078.6Zm0-114.61a56.869,56.869,0,0,0-56.8,56.8,56.87,56.87,0,0,0,56.8,56.8,56.87,56.87,0,0,0,56.806-56.8A56.869,56.869,0,0,0-2820.115,963.989Z" transform="translate(4132.92 5002.011)" fill="url(#linear-gradient-2)"/>
  </g>
</svg>
