<svg xmlns="http://www.w3.org/2000/svg" xmlns:xlink="http://www.w3.org/1999/xlink" width="115.611" height="115.61" viewBox="0 0 115.611 115.61">
  <defs>
    <linearGradient id="linear-gradient" x1="0.003" y1="0.965" x2="0.977" y2="0.069" gradientUnits="objectBoundingBox">
      <stop offset="0" stop-color="#7bf75b"/>
      <stop offset="0.138" stop-color="#75ec7c"/>
      <stop offset="0.442" stop-color="#67d2d2"/>
      <stop offset="0.522" stop-color="#64cbea"/>
      <stop offset="1" stop-color="#3172f3"/>
    </linearGradient>
    <linearGradient id="linear-gradient-2" x1="0.147" y1="0.853" x2="0.853" y2="0.147" xlink:href="#linear-gradient"/>
  </defs>
  <g id="Group_36845" data-name="Group 36845" transform="translate(-936 -5965)">
    <path id="Path_76513" data-name="Path 76513" d="M-2661.428,1038.422h-22.431l-.083-.632a2.025,2.025,0,0,1,.608-1.931c.809-.744,1.613-1.528,2.391-2.287.476-.466.954-.932,1.435-1.392a.785.785,0,0,0,.275-.64q-.008-9.457,0-18.914v-1.579q-5.21,13.229-10.412,26.46a1.171,1.171,0,0,1-1.3.83,3.931,3.931,0,0,0-.754,0,1.144,1.144,0,0,1-1.216-.736q-1.588-3.494-3.19-6.978l-9.2-20.065v.993q0,7.851,0,15.7v.08a5.827,5.827,0,0,0,.083,1.232,1.838,1.838,0,0,0,.375.713c1.58,1.94,3.457,4.233,5.4,6.537a2.313,2.313,0,0,1,.488,1.825l-.046.678h-17.188l-.061-.661a2.308,2.308,0,0,1,.485-1.852c1.417-1.678,2.812-3.376,4.206-5.072l1.163-1.414a1.954,1.954,0,0,0,.456-1.545,4.57,4.57,0,0,1-.024-.514v-4.893q0-9.044.013-18.088a2.33,2.33,0,0,0-.609-1.676c-.808-.934-1.594-1.887-2.381-2.839-.694-.842-1.389-1.683-2.1-2.512a2.248,2.248,0,0,1-.525-1.967l.1-.579.677-.033c.087,0,.175-.009.263-.009h3.079q5.839.01,11.7-.009h0a1.165,1.165,0,0,1,1.142.75q5.129,11.273,10.267,22.537l.817,1.791q4.87-12.153,9.736-24.3a1.1,1.1,0,0,1,1.089-.773h0q5.6.013,11.2.009h2.949c.071,0,.142,0,.221.008l.708.034.073.612a2.021,2.021,0,0,1-.616,1.92c-.941.853-1.875,1.755-2.777,2.627q-.568.548-1.138,1.095a.55.55,0,0,0-.185.457c.007.206.013.412.013.619v29c0,.189-.006.379-.011.568l0,.081a.573.573,0,0,0,.194.465l1.574,1.539q1.231,1.208,2.467,2.409a1.467,1.467,0,0,1,.406,1.256,1.093,1.093,0,0,0,0,.2Zm-20.958-1.455h19.209c-.761-.712-1.543-1.477-2.325-2.243l-1.572-1.538a2.04,2.04,0,0,1-.632-1.548l0-.083c0-.175.01-.349.01-.524v-29c0-.191-.006-.381-.012-.571a2.008,2.008,0,0,1,.635-1.557q.567-.541,1.131-1.089c.911-.88,1.854-1.791,2.811-2.66.015-.013.03-.027.043-.039h-2.4q-5.5,0-11-.008-4.892,12.214-9.753,24.339l-1.172,2.891-.794-1.62c-.049-.1-.09-.183-.129-.267l-1.327-2.909q-5.113-11.216-10.221-22.435-5.8.012-11.567.008h-2.618a1.121,1.121,0,0,0,.133.186c.715.835,1.415,1.683,2.116,2.531.779.944,1.558,1.888,2.359,2.813a3.8,3.8,0,0,1,.963,2.633q-.026,9.041-.013,18.083v4.894a3.044,3.044,0,0,0,.014.344,3.385,3.385,0,0,1-.777,2.641l-1.162,1.413c-1.4,1.7-2.8,3.4-4.218,5.087a.751.751,0,0,0-.084.119h14.26a.819.819,0,0,0-.078-.108c-1.955-2.313-3.838-4.613-5.421-6.557a3.289,3.289,0,0,1-.666-1.314,6.94,6.94,0,0,1-.119-1.55v-.079q-.006-7.851,0-15.7v-5.588l1.164.871a1.38,1.38,0,0,1,.447.568l10.367,22.613q1.57,3.427,3.135,6.858a5.334,5.334,0,0,1,.679,0q5.313-13.517,10.591-26.911l1-2.536c.03-.079.065-.157.1-.235l.51-1.194.761.924a.924.924,0,0,1,.224.612v5.092q0,9.456,0,18.912a2.23,2.23,0,0,1-.725,1.694c-.478.457-.95.919-1.424,1.381-.784.767-1.6,1.56-2.422,2.319Z" transform="translate(3682.267 5006.346)" fill="url(#linear-gradient)"/>
    <path id="Path_76518" data-name="Path 76518" d="M-2820.115,1078.6a57.87,57.87,0,0,1-57.8-57.8,57.87,57.87,0,0,1,57.8-57.8,57.871,57.871,0,0,1,57.806,57.8A57.871,57.871,0,0,1-2820.115,1078.6Zm0-114.61a56.869,56.869,0,0,0-56.8,56.8,56.87,56.87,0,0,0,56.8,56.8,56.87,56.87,0,0,0,56.806-56.8A56.869,56.869,0,0,0-2820.115,963.989Z" transform="translate(3813.92 5002.011)" fill="url(#linear-gradient-2)"/>
  </g>
</svg>
