<svg xmlns="http://www.w3.org/2000/svg" xmlns:xlink="http://www.w3.org/1999/xlink" width="115.611" height="115.61" viewBox="0 0 115.611 115.61">
  <defs>
    <linearGradient id="linear-gradient" x1="0.178" y1="0.915" x2="0.874" y2="0.19" gradientUnits="objectBoundingBox">
      <stop offset="0" stop-color="#7bf75b"/>
      <stop offset="0.138" stop-color="#75ec7c"/>
      <stop offset="0.442" stop-color="#67d2d2"/>
      <stop offset="0.522" stop-color="#64cbea"/>
      <stop offset="1" stop-color="#3172f3"/>
    </linearGradient>
    <linearGradient id="linear-gradient-2" x1="-0.635" y1="1.623" x2="3.024" y2="-1.991" xlink:href="#linear-gradient"/>
    <linearGradient id="linear-gradient-3" x1="-0.078" y1="2.588" x2="1.793" y2="-5.087" xlink:href="#linear-gradient"/>
    <linearGradient id="linear-gradient-4" x1="-1.575" y1="2.549" x2="2.085" y2="-1.066" xlink:href="#linear-gradient"/>
    <linearGradient id="linear-gradient-5" x1="0.147" y1="0.853" x2="0.853" y2="0.147" xlink:href="#linear-gradient"/>
  </defs>
  <g id="Group_36846" data-name="Group 36846" transform="translate(-1092 -5965)">
    <g id="Group_36808" data-name="Group 36808" transform="translate(1117 5992)">
      <path id="Path_76503" data-name="Path 76503" d="M-2587.8,1047.579c-15.814,0-28.68-9.528-28.68-21.238a16.673,16.673,0,0,1,.232-2.831,7.96,7.96,0,0,1-3.611-8.73,7.789,7.789,0,0,1,7.664-6.075,7.935,7.935,0,0,1,5.164,1.926,35.19,35.19,0,0,1,17.148-5.437l3.864-17.744a2.311,2.311,0,0,1,1.063-1.436,2,2,0,0,1,1.528-.209l12.166,2.736a6.133,6.133,0,0,1,5.113-2.821,6.2,6.2,0,0,1,6.156,6.237,6.205,6.205,0,0,1-6.159,6.237,6.13,6.13,0,0,1-6.048-5.428l-10.064-2.293-3.226,14.745a34.562,34.562,0,0,1,16.883,5.363,7.862,7.862,0,0,1,5.085-1.876h0a7.809,7.809,0,0,1,7.659,6.057,7.928,7.928,0,0,1-3.468,8.671,14.827,14.827,0,0,1,.274,2.907C-2559.057,1038.051-2571.952,1047.579-2587.8,1047.579Zm-24.394-37.035a5.911,5.911,0,0,0-5.876,4.665,6.084,6.084,0,0,0,3.271,7l.636.323-.156.7a14.332,14.332,0,0,0-.322,3.107c0,10.7,12.041,19.4,26.841,19.4,14.837,0,26.907-8.7,26.907-19.4a12.066,12.066,0,0,0-.375-3.12l-.2-.716.658-.343a6.046,6.046,0,0,0,3.159-6.963,5.931,5.931,0,0,0-5.875-4.655,6.085,6.085,0,0,0-4.344,1.855l-.546.554-.636-.447a32.716,32.716,0,0,0-17.6-5.5l-1.1-.036,4.091-18.7,13.259,3.021v.734a4.3,4.3,0,0,0,4.253,4.332,4.365,4.365,0,0,0,4.32-4.4,4.364,4.364,0,0,0-4.317-4.4,4.41,4.41,0,0,0-3.842,2.446l-.325.634-13.553-3.048a.186.186,0,0,0-.166.014.46.46,0,0,0-.2.275l-4.155,19.084-.708.03a33.224,33.224,0,0,0-17.5,5.567l-.649.455-.546-.576A6.084,6.084,0,0,0-2612.2,1010.544Z" transform="translate(2620.082 -985.721)" fill="url(#linear-gradient)"/>
      <path id="Path_76504" data-name="Path 76504" d="M-2595.535,1038.208a6.067,6.067,0,0,1-4.3-1.781,6.147,6.147,0,0,1-1.823-4.389,6.206,6.206,0,0,1,6.159-6.238,6.174,6.174,0,0,1,6.094,6.238,6.14,6.14,0,0,1-6.094,6.171Zm.032-10.57a4.315,4.315,0,0,0-4.321,4.4,4.323,4.323,0,0,0,1.281,3.086,4.315,4.315,0,0,0,3.035,1.247,4.3,4.3,0,0,0,4.26-4.333A4.335,4.335,0,0,0-2595.5,1027.637Z" transform="translate(2616.27 -994.015)" fill="url(#linear-gradient-2)"/>
      <path id="Path_76505" data-name="Path 76505" d="M-2570.987,1048.882c-4.8,4.873-18.36,4.873-23.167,0a1.258,1.258,0,0,1,0-1.835,1.254,1.254,0,0,1,1.742,0c3.669,3.817,15.84,3.882,19.669,0a1.253,1.253,0,0,1,1.742,0A1.25,1.25,0,0,1-2570.987,1048.882Z" transform="translate(2614.798 -998.34)" fill="url(#linear-gradient-3)"/>
      <path id="Path_76506" data-name="Path 76506" d="M-2566.561,1038.223a6.136,6.136,0,0,1-6.091-6.167,6.171,6.171,0,0,1,6.091-6.236,6.2,6.2,0,0,1,6.159,6.236A6.189,6.189,0,0,1-2566.561,1038.223Zm0-10.565a4.332,4.332,0,0,0-4.252,4.4,4.3,4.3,0,0,0,4.252,4.329,4.346,4.346,0,0,0,4.321-4.333A4.313,4.313,0,0,0-2566.561,1027.658Z" transform="translate(2610.266 -994.019)" fill="url(#linear-gradient-4)"/>
    </g>
    <path id="Path_76519" data-name="Path 76519" d="M-2820.115,1078.6a57.87,57.87,0,0,1-57.8-57.8,57.87,57.87,0,0,1,57.8-57.8,57.871,57.871,0,0,1,57.806,57.8A57.871,57.871,0,0,1-2820.115,1078.6Zm0-114.61a56.869,56.869,0,0,0-56.8,56.8,56.87,56.87,0,0,0,56.8,56.8,56.87,56.87,0,0,0,56.806-56.8A56.869,56.869,0,0,0-2820.115,963.989Z" transform="translate(3969.92 5002.011)" fill="url(#linear-gradient-5)"/>
  </g>
</svg>
