<svg xmlns="http://www.w3.org/2000/svg" xmlns:xlink="http://www.w3.org/1999/xlink" width="115.611" height="115.61" viewBox="0 0 115.611 115.61">
  <defs>
    <linearGradient id="linear-gradient" x1="0.353" y1="0.786" x2="0.938" y2="0.089" gradientUnits="objectBoundingBox">
      <stop offset="0" stop-color="#7bf75b"/>
      <stop offset="0.138" stop-color="#75ec7c"/>
      <stop offset="0.442" stop-color="#67d2d2"/>
      <stop offset="0.522" stop-color="#64cbea"/>
      <stop offset="1" stop-color="#3172f3"/>
    </linearGradient>
    <linearGradient id="linear-gradient-2" x1="0.147" y1="0.853" x2="0.853" y2="0.147" xlink:href="#linear-gradient"/>
  </defs>
  <g id="Group_36844" data-name="Group 36844" transform="translate(-800 -5965)">
    <path id="Path_76509" data-name="Path 76509" d="M-2268.085,1046.652a5.224,5.224,0,0,1-2.5-.759.636.636,0,0,1-.081-.052l-12.667-9.275-5.9,5.633a4.04,4.04,0,0,1-3.187,1.5.777.777,0,0,1-.568-.247.775.775,0,0,1-.206-.584l.949-13.348a.769.769,0,0,1,.255-.522l23.482-21.086-29.979,18.759a.772.772,0,0,1-.642.084l-13.012-4.048c-2.227-.69-2.6-1.851-2.617-2.482-.026-.707.352-2.055,3.157-3.143l50.9-19.487a3.586,3.586,0,0,1,3.7.438c.619.536,1.571,1.839.99,4.547l-.01.037-8.65,40.535a4.292,4.292,0,0,1-2.18,3.244A3,3,0,0,1-2268.085,1046.652Zm-1.7-2.092a2.84,2.84,0,0,0,2.3.418,3.067,3.067,0,0,0,1.3-2.161l8.656-40.561c0-.013,0-.025.008-.037.292-1.391.112-2.489-.494-3.013a2.1,2.1,0,0,0-2.133-.161l-50.887,19.483c-1.733.673-2.174,1.368-2.165,1.641.01.292.486.732,1.527,1.054l12.672,3.942,29.919-18.721c1.162-.769,2.461-.823,3.006-.114.114.148.63.937-.428,1.873l-24.209,21.739-.858,12.083a3.358,3.358,0,0,0,1.262-.937l6.377-6.093a.776.776,0,0,1,.994-.066Zm13.018-42.144h0Z" transform="translate(3142.751 5000.713)" fill="url(#linear-gradient)"/>
    <path id="Path_76517" data-name="Path 76517" d="M-2820.115,1078.6a57.87,57.87,0,0,1-57.8-57.8,57.87,57.87,0,0,1,57.8-57.8,57.871,57.871,0,0,1,57.806,57.8A57.871,57.871,0,0,1-2820.115,1078.6Zm0-114.61a56.869,56.869,0,0,0-56.8,56.8,56.87,56.87,0,0,0,56.8,56.8,56.87,56.87,0,0,0,56.806-56.8A56.869,56.869,0,0,0-2820.115,963.989Z" transform="translate(3677.92 5002.011)" fill="url(#linear-gradient-2)"/>
  </g>
</svg>
