<svg xmlns="http://www.w3.org/2000/svg" xmlns:xlink="http://www.w3.org/1999/xlink" width="115.611" height="115.61" viewBox="0 0 115.611 115.61">
  <defs>
    <linearGradient id="linear-gradient" x1="0.019" y1="0.89" x2="0.838" y2="-0.112" gradientUnits="objectBoundingBox">
      <stop offset="0" stop-color="#7bf75b"/>
      <stop offset="0.138" stop-color="#75ec7c"/>
      <stop offset="0.442" stop-color="#67d2d2"/>
      <stop offset="0.522" stop-color="#64cbea"/>
      <stop offset="1" stop-color="#3172f3"/>
    </linearGradient>
    <linearGradient id="linear-gradient-2" x1="0.147" y1="0.853" x2="0.853" y2="0.147" xlink:href="#linear-gradient"/>
  </defs>
  <g id="Group_36847" data-name="Group 36847" transform="translate(-665 -5965)">
    <path id="Path_76510" data-name="Path 76510" d="M-2194.354,1049.027a34.931,34.931,0,0,1-18.979-5.553.882.882,0,0,1-.35-1.043.885.885,0,0,1,.939-.572,21.554,21.554,0,0,0,2.775.158,23.515,23.515,0,0,0,12.563-3.653,13.082,13.082,0,0,1-9.716-8.736.884.884,0,0,1,.184-.866.882.882,0,0,1,.844-.269,8.254,8.254,0,0,0,1.4.171,13.034,13.034,0,0,1-6.691-11.352v-.133a.884.884,0,0,1,.433-.758.882.882,0,0,1,.874-.014,11.347,11.347,0,0,0,2.113.9,12.914,12.914,0,0,1-3.327-8.664,12.931,12.931,0,0,1,1.769-6.536.881.881,0,0,1,.692-.439.876.876,0,0,1,.755.322,33.414,33.414,0,0,0,23.117,12.219,14.884,14.884,0,0,1-.1-1.8,12.955,12.955,0,0,1,12.935-12.946,13.022,13.022,0,0,1,9.1,3.736,23.131,23.131,0,0,0,6.9-2.715.88.88,0,0,1,1,.067.879.879,0,0,1,.292.958,12.775,12.775,0,0,1-2.832,4.846,23.638,23.638,0,0,0,3.282-1.159.882.882,0,0,1,1.031.242.881.881,0,0,1,.055,1.057,25.071,25.071,0,0,1-5.875,6.205c.016.407.024.772.024,1.124a36.393,36.393,0,0,1-9.062,23.719C-2172.825,1042.781-2181.108,1049.027-2194.354,1049.027Zm-14.905-5.257a33.286,33.286,0,0,0,14.905,3.494c12.587,0,20.448-5.919,24.826-10.886a34.608,34.608,0,0,0,8.62-22.552c0-.454-.013-.936-.043-1.515a.884.884,0,0,1,.371-.763,22.564,22.564,0,0,0,4.026-3.676,26.489,26.489,0,0,1-4.309.911.881.881,0,0,1-.945-.587.881.881,0,0,1,.381-1.044,11.184,11.184,0,0,0,3.928-3.951,25.339,25.339,0,0,1-5.646,1.826.882.882,0,0,1-.815-.262,11.248,11.248,0,0,0-8.166-3.538,11.19,11.19,0,0,0-11.172,11.182,11.459,11.459,0,0,0,.259,2.555.886.886,0,0,1-.185.762.873.873,0,0,1-.719.313,35.146,35.146,0,0,1-24.632-11.913,11.08,11.08,0,0,0-.954,4.514,11.156,11.156,0,0,0,4.966,9.291.881.881,0,0,1,.351,1,.854.854,0,0,1-.858.618,12.556,12.556,0,0,1-4.476-.936,11.257,11.257,0,0,0,8.883,9.688.881.881,0,0,1,.7.835.882.882,0,0,1-.648.879,12.9,12.9,0,0,1-3.4.429c-.325,0-.627-.008-.911-.024a11.274,11.274,0,0,0,9.916,6.456.88.88,0,0,1,.817.6.88.88,0,0,1-.293.972A25.27,25.27,0,0,1-2209.26,1043.77Z" transform="translate(2906.738 4998.536)" fill="url(#linear-gradient)"/>
    <path id="Path_76516" data-name="Path 76516" d="M-2820.115,1078.6a57.87,57.87,0,0,1-57.8-57.8,57.87,57.87,0,0,1,57.8-57.8,57.871,57.871,0,0,1,57.806,57.8A57.871,57.871,0,0,1-2820.115,1078.6Zm0-114.61a56.869,56.869,0,0,0-56.8,56.8,56.87,56.87,0,0,0,56.8,56.8,56.87,56.87,0,0,0,56.806-56.8A56.869,56.869,0,0,0-2820.115,963.989Z" transform="translate(3542.92 5002.011)" fill="url(#linear-gradient-2)"/>
  </g>
</svg>
