<svg xmlns="http://www.w3.org/2000/svg" xmlns:xlink="http://www.w3.org/1999/xlink" width="150" height="96" viewBox="0 0 150 96">
  <defs>
    <clipPath id="clip-path">
      <rect id="Rectangle_90593" data-name="Rectangle 90593" width="150" height="96" transform="translate(4816 -2018)" fill="none" stroke="#707070" stroke-width="1"/>
    </clipPath>
    <filter id="Path_63779" x="9.386" y="34.566" width="27.953" height="29.769" filterUnits="userSpaceOnUse">
      <feOffset input="SourceAlpha"/>
      <feGaussianBlur stdDeviation="3" result="blur"/>
      <feFlood/>
      <feComposite operator="in" in2="blur"/>
      <feComposite in="SourceGraphic"/>
    </filter>
    <filter id="Path_63780" x="20.629" y="36.509" width="23.307" height="28.946" filterUnits="userSpaceOnUse">
      <feOffset input="SourceAlpha"/>
      <feGaussianBlur stdDeviation="3" result="blur-2"/>
      <feFlood/>
      <feComposite operator="in" in2="blur-2"/>
      <feComposite in="SourceGraphic"/>
    </filter>
    <filter id="Path_63781" x="25.135" y="37.698" width="22.993" height="28.953" filterUnits="userSpaceOnUse">
      <feOffset input="SourceAlpha"/>
      <feGaussianBlur stdDeviation="3" result="blur-3"/>
      <feFlood/>
      <feComposite operator="in" in2="blur-3"/>
      <feComposite in="SourceGraphic"/>
    </filter>
    <filter id="Path_63782" x="33.285" y="39.681" width="26.402" height="28.989" filterUnits="userSpaceOnUse">
      <feOffset input="SourceAlpha"/>
      <feGaussianBlur stdDeviation="3" result="blur-4"/>
      <feFlood/>
      <feComposite operator="in" in2="blur-4"/>
      <feComposite in="SourceGraphic"/>
    </filter>
    <filter id="Path_63783" x="41.067" y="41.047" width="21.785" height="28.626" filterUnits="userSpaceOnUse">
      <feOffset input="SourceAlpha"/>
      <feGaussianBlur stdDeviation="3" result="blur-5"/>
      <feFlood/>
      <feComposite operator="in" in2="blur-5"/>
      <feComposite in="SourceGraphic"/>
    </filter>
    <filter id="Path_63784" x="45.631" y="44.629" width="30.44" height="26.222" filterUnits="userSpaceOnUse">
      <feOffset input="SourceAlpha"/>
      <feGaussianBlur stdDeviation="3" result="blur-6"/>
      <feFlood/>
      <feComposite operator="in" in2="blur-6"/>
      <feComposite in="SourceGraphic"/>
    </filter>
    <filter id="Path_63785" x="59.562" y="45.421" width="25.552" height="25.648" filterUnits="userSpaceOnUse">
      <feOffset input="SourceAlpha"/>
      <feGaussianBlur stdDeviation="3" result="blur-7"/>
      <feFlood/>
      <feComposite operator="in" in2="blur-7"/>
      <feComposite in="SourceGraphic"/>
    </filter>
    <filter id="Path_63786" x="70.042" y="41.744" width="27.559" height="28.718" filterUnits="userSpaceOnUse">
      <feOffset input="SourceAlpha"/>
      <feGaussianBlur stdDeviation="3" result="blur-8"/>
      <feFlood/>
      <feComposite operator="in" in2="blur-8"/>
      <feComposite in="SourceGraphic"/>
    </filter>
    <filter id="Path_63787" x="80.36" y="43.696" width="26.275" height="25.717" filterUnits="userSpaceOnUse">
      <feOffset input="SourceAlpha"/>
      <feGaussianBlur stdDeviation="3" result="blur-9"/>
      <feFlood/>
      <feComposite operator="in" in2="blur-9"/>
      <feComposite in="SourceGraphic"/>
    </filter>
    <filter id="Path_63788" x="88.67" y="39.253" width="22.594" height="28.911" filterUnits="userSpaceOnUse">
      <feOffset input="SourceAlpha"/>
      <feGaussianBlur stdDeviation="3" result="blur-10"/>
      <feFlood/>
      <feComposite operator="in" in2="blur-10"/>
      <feComposite in="SourceGraphic"/>
    </filter>
    <filter id="Path_63789" x="93.529" y="40.245" width="27.202" height="26.57" filterUnits="userSpaceOnUse">
      <feOffset input="SourceAlpha"/>
      <feGaussianBlur stdDeviation="3" result="blur-11"/>
      <feFlood/>
      <feComposite operator="in" in2="blur-11"/>
      <feComposite in="SourceGraphic"/>
    </filter>
    <filter id="Path_63790" x="102.378" y="36.437" width="31.84" height="28.269" filterUnits="userSpaceOnUse">
      <feOffset input="SourceAlpha"/>
      <feGaussianBlur stdDeviation="3" result="blur-12"/>
      <feFlood/>
      <feComposite operator="in" in2="blur-12"/>
      <feComposite in="SourceGraphic"/>
    </filter>
    <filter id="Path_63791" x="115.936" y="33.221" width="26.285" height="25.775" filterUnits="userSpaceOnUse">
      <feOffset input="SourceAlpha"/>
      <feGaussianBlur stdDeviation="3" result="blur-13"/>
      <feFlood/>
      <feComposite operator="in" in2="blur-13"/>
      <feComposite in="SourceGraphic"/>
    </filter>
  </defs>
  <g id="Mask_Group_37" data-name="Mask Group 37" transform="translate(-4816 2018)" clip-path="url(#clip-path)">
    <g id="Group_41417" data-name="Group 41417" transform="translate(3996.748 -2917.423)">
      <g id="Group_41360" data-name="Group 41360" opacity="0.38">
        <path id="Path_63754" data-name="Path 63754" d="M883.51,922.244a10.6,10.6,0,0,0-.269,2.042c-.273.023-.541.055-.812.1a98.77,98.77,0,0,0-26.668,7.431,1.071,1.071,0,0,1,.026-.158,80.063,80.063,0,0,1,26.881-9.289C882.947,922.326,883.233,922.282,883.51,922.244Z" fill="#fff"/>
        <path id="Path_63755" data-name="Path 63755" d="M929.448,929.075a99.809,99.809,0,0,0-23.722-5.157c-.261-.032-.534-.05-.806-.076a10.411,10.411,0,0,0-.318-1.884c.285.036.564.064.839.107A79.737,79.737,0,0,1,929.448,929.075Z" fill="#fff"/>
        <path id="Path_63756" data-name="Path 63756" d="M824.75,947.463c-1.152-.642-2.3-1.285-3.42-1.957a80.584,80.584,0,0,0,73.535,44.907c.4-.006.795-.029,1.193-.041A80.558,80.558,0,0,1,824.75,947.463Z" fill="#fff"/>
        <path id="Path_63757" data-name="Path 63757" d="M956.224,949.322a75.408,75.408,0,0,1-63.688,41.085c.773.009,1.548.018,2.329.006a80.582,80.582,0,0,0,72.087-47.193A115.57,115.57,0,0,1,956.224,949.322Z" fill="#fff"/>
        <path id="Path_63758" data-name="Path 63758" d="M893.569,907.912A37.532,37.532,0,0,1,928.594,930.5c.2.459.386.927.567,1.394.223-.163.454-.322.675-.489-.373-1.157-.8-2.287-1.279-3.388a37.539,37.539,0,0,0-69.326,1.088q-.668,1.676-1.174,3.425c.224.161.462.313.691.47.166-.473.336-.947.522-1.412A37.53,37.53,0,0,1,893.569,907.912Z" fill="#fff"/>
        <path id="Path_63759" data-name="Path 63759" d="M905.283,942.914l.466-17.892c.007-.373.005-.74-.023-1.1a10.98,10.98,0,0,0-.285-1.853,11.66,11.66,0,0,0-22.773.307,12.513,12.513,0,0,0-.239,2.016.048.048,0,0,1,0,.033l-.459,17.894a11.671,11.671,0,0,0,9.173,11.7,12.11,12.11,0,0,0,2.183.258A11.67,11.67,0,0,0,905.283,942.914Zm-11.938,10.562a10.852,10.852,0,0,1-10.578-11.144l.466-17.893c0-.048.006-.1.008-.153a10.6,10.6,0,0,1,.269-2.042,10.868,10.868,0,0,1,21.092-.286,10.411,10.411,0,0,1,.318,1.884,10.691,10.691,0,0,1,.035,1.163l-.466,17.893A10.883,10.883,0,0,1,893.345,953.476Z" fill="#fff"/>
        <path id="Path_63760" data-name="Path 63760" d="M900.837,927.945a6.926,6.926,0,1,0-6.025,7.715A6.932,6.932,0,0,0,900.837,927.945Zm-6.1,6.348a5.575,5.575,0,1,1,4.848-6.218A5.581,5.581,0,0,1,894.74,934.293Z" fill="#fff"/>
        <path id="Path_63761" data-name="Path 63761" d="M858.554,930.962c.211-.625.434-1.245.677-1.854-.268.068-.533.145-.8.214-1.116.289-2.233.581-3.333.9a126.734,126.734,0,0,0-32.342,14.188c.632.369,1.291.714,1.934,1.071a127.442,127.442,0,0,1,30.443-13.052c1.067-.3,2.15-.587,3.233-.868C858.43,931.359,858.488,931.158,858.554,930.962Z" fill="#fff"/>
        <path id="Path_63762" data-name="Path 63762" d="M932.722,929c-1.109-.279-2.235-.537-3.361-.791-.269-.06-.535-.129-.8-.188.261.6.5,1.213.733,1.83.071.2.137.4.206.59,1.094.247,2.184.5,3.261.766a127.486,127.486,0,0,1,30.837,12.09c.633-.378,1.282-.742,1.9-1.131A126.748,126.748,0,0,0,932.722,929Z" fill="#fff"/>
        <g id="Group_41359" data-name="Group 41359">
          <path id="Path_63763" data-name="Path 63763" d="M862.238,935.2c-6.949,2.268-21.557,7.557-32.274,15,.375.185.76.364,1.14.545,11.069-7.534,26.136-12.8,32.449-14.81C863.107,935.7,862.673,935.447,862.238,935.2Z" fill="#fff"/>
          <path id="Path_63764" data-name="Path 63764" d="M874.3,940.313c-5.764,3.472-15.9,10.046-23.987,17.77.408.122.827.222,1.236.338,8.361-7.866,18.814-14.495,24.222-17.7C875.282,940.585,874.787,940.455,874.3,940.313Z" fill="#fff"/>
          <path id="Path_63765" data-name="Path 63765" d="M886.567,942.657a153.985,153.985,0,0,0-15.562,19.838c.4.055.8.112,1.2.166a155.073,155.073,0,0,1,15.764-19.9C887.5,942.733,887.031,942.7,886.567,942.657Z" fill="#fff"/>
          <path id="Path_63766" data-name="Path 63766" d="M924.443,934.983c6.381,1.814,21.6,6.6,32.891,13.785.374-.193.753-.381,1.124-.58-10.939-7.1-25.7-11.93-32.724-13.983C925.306,934.468,924.88,934.73,924.443,934.983Z" fill="#fff"/>
          <path id="Path_63767" data-name="Path 63767" d="M912.367,940.147c5.511,3.039,16.166,9.337,24.766,16.936.405-.129.821-.243,1.222-.374-8.319-7.469-18.655-13.721-24.527-17.012C913.347,939.855,912.856,940,912.367,940.147Z" fill="#fff"/>
          <path id="Path_63768" data-name="Path 63768" d="M900.241,942.575a155.554,155.554,0,0,1,16.38,19.39c.4-.064.8-.134,1.194-.2a154.331,154.331,0,0,0-16.179-19.342C901.174,942.482,900.707,942.527,900.241,942.575Z" fill="#fff"/>
          <path id="Path_63769" data-name="Path 63769" d="M893,942.95l.33,20.976c.367,0,.733.005,1.1,0l-.33-20.971C893.738,942.959,893.371,942.951,893,942.95Z" fill="#fff"/>
        </g>
        <path id="Path_63770" data-name="Path 63770" d="M927.651,957.814a153.415,153.415,0,0,1-66.581,1.046,128.654,128.654,0,0,1-38.315-14.454c-.5.312-1.012.614-1.5.931.026.057.051.113.078.169a129.134,129.134,0,0,0,39.783,16.066,153.414,153.414,0,0,0,66.581-1.046,129.17,129.17,0,0,0,39.258-17.306c.025-.057.048-.114.072-.171-.5-.3-1.022-.588-1.53-.884A128.664,128.664,0,0,1,927.651,957.814Z" fill="#fff"/>
        <path id="Path_63771" data-name="Path 63771" d="M894.12,942.954c14.014-.22,26.636-4.616,35.716-11.546-.17-.526-.356-1.043-.546-1.558-9.04,6.71-21.445,10.957-35.2,11.172s-26.288-3.639-35.535-10.06c-.176.52-.343,1.042-.5,1.571C867.351,939.176,880.1,943.173,894.12,942.954Z" fill="#fff"/>
        <path id="Path_63772" data-name="Path 63772" d="M902.308,970.265a5.446,5.446,0,1,0,2.257,7.365A5.464,5.464,0,0,0,902.308,970.265Zm.855,6.616a3.854,3.854,0,1,1-1.6-5.2A3.861,3.861,0,0,1,903.163,976.881Z" fill="#fff"/>
        <path id="Path_63773" data-name="Path 63773" d="M923.511,968.439a4.2,4.2,0,1,0,1.742,5.675A4.206,4.206,0,0,0,923.511,968.439Zm.653,5.1a2.97,2.97,0,1,1-1.229-4.01A2.968,2.968,0,0,1,924.164,973.538Z" fill="#fff"/>
        <path id="Path_63774" data-name="Path 63774" d="M880.337,971.46a4.2,4.2,0,1,0,1.741,5.675A4.212,4.212,0,0,0,880.337,971.46Zm.652,5.1a2.968,2.968,0,1,1-1.228-4.01A2.964,2.964,0,0,1,880.989,976.559Z" fill="#fff"/>
        <path id="Path_63775" data-name="Path 63775" d="M940.235,963.068a3.263,3.263,0,1,0,1.354,4.412A3.271,3.271,0,0,0,940.235,963.068Zm.514,3.962a2.307,2.307,0,1,1-.964-3.122A2.308,2.308,0,0,1,940.749,967.03Z" fill="#fff"/>
        <path id="Path_63776" data-name="Path 63776" d="M859,967.5a3.263,3.263,0,1,0,1.354,4.412A3.259,3.259,0,0,0,859,967.5Zm.506,3.961a2.308,2.308,0,1,1-.956-3.121A2.3,2.3,0,0,1,859.51,971.462Z" fill="#fff"/>
        <path id="Path_63777" data-name="Path 63777" d="M953.3,956.364a2.46,2.46,0,1,0,1.027,3.323A2.467,2.467,0,0,0,953.3,956.364Zm.39,2.99a1.741,1.741,0,1,1-.722-2.354A1.749,1.749,0,0,1,953.686,959.354Z" fill="#fff"/>
        <path id="Path_63778" data-name="Path 63778" d="M842.719,960.665a2.457,2.457,0,1,0,1.019,3.321A2.459,2.459,0,0,0,842.719,960.665Zm.384,2.981a1.736,1.736,0,1,1-.724-2.346A1.735,1.735,0,0,1,843.1,963.646Z" fill="#fff"/>
      </g>
      <g id="Group_41362" data-name="Group 41362">
        <g id="Group_41361" data-name="Group 41361">
          <g transform="matrix(1, 0, 0, 1, 819.25, 899.42)" filter="url(#Path_63779)">
            <path id="Path_63779-2" data-name="Path 63779" d="M841.818,950.068q-.813,1.085-1.638,2.163-1.273-.473-2.542-.97,3.447-4.078,6.705-8.272,1.5.551,3.016,1.062-.02,5.332.232,10.707-1.336-.417-2.669-.86-.027-1.375-.034-2.749Q843.349,950.627,841.818,950.068Zm3.258-.662q.009-1.131.029-2.26c.007-.633.067-1.406.11-2.027l-.03-.011c-.352.512-.754,1.18-1.118,1.672q-.663.9-1.331,1.8Q843.9,949,845.076,949.406Z" transform="translate(-819.25 -899.42)" fill="#fff"/>
          </g>
          <g transform="matrix(1, 0, 0, 1, 819.25, 899.42)" filter="url(#Path_63780)">
            <path id="Path_63780-2" data-name="Path 63780" d="M851.881,944.932q1.151.348,2.307.674-1.426,5.131-2.819,10.272-1.246-.351-2.488-.725Q850.365,950.036,851.881,944.932Z" transform="translate(-819.25 -899.42)" fill="#fff"/>
          </g>
          <g transform="matrix(1, 0, 0, 1, 819.25, 899.42)" filter="url(#Path_63781)">
            <path id="Path_63781-2" data-name="Path 63781" d="M856.06,946.121q1.158.309,2.32.6-1.263,5.173-2.493,10.356-1.251-.309-2.5-.642Q854.707,951.271,856.06,946.121Z" transform="translate(-819.25 -899.42)" fill="#fff"/>
          </g>
          <g transform="matrix(1, 0, 0, 1, 819.25, 899.42)" filter="url(#Path_63782)">
            <path id="Path_63782-2" data-name="Path 63782" d="M864.366,950.57q-1.416-.279-2.829-.589l.4-1.877q3.987.873,8,1.5-.146.949-.29,1.9-1.445-.227-2.887-.484-.7,4.035-1.381,8.074-1.27-.227-2.538-.475Q863.594,954.592,864.366,950.57Z" transform="translate(-819.25 -899.42)" fill="#fff"/>
          </g>
          <g transform="matrix(1, 0, 0, 1, 819.25, 899.42)" filter="url(#Path_63783)">
            <path id="Path_63783-2" data-name="Path 63783" d="M873.1,950.8a1.166,1.166,0,0,1-1.433.955,1.152,1.152,0,1,1,.329-2.271A1.181,1.181,0,0,1,873.1,950.8Zm-3.778,8.937q.512-3.633,1.038-7.263,1.2.182,2.4.34-.463,3.639-.911,7.279Q870.584,959.929,869.319,959.74Z" transform="translate(-819.25 -899.42)" fill="#fff"/>
          </g>
          <g transform="matrix(1, 0, 0, 1, 819.25, 899.42)" filter="url(#Path_63784)">
            <path id="Path_63784-2" data-name="Path 63784" d="M874.43,955.384c.1-.91.155-1.688.2-2.332q1.012.12,2.027.225.006.5.014,1l.048.006a2.783,2.783,0,0,1,2.454-.93,2.268,2.268,0,0,1,2.042,1.407l.032,0a3.492,3.492,0,0,1,1.057-.817,2.982,2.982,0,0,1,1.493-.276c1.483.077,2.579,1.1,2.526,3.289q-.057,2.16-.108,4.32-1.234-.04-2.47-.1.08-1.993.166-3.988c.045-1.063-.3-1.7-1.081-1.741a1.194,1.194,0,0,0-1.172.725,1.866,1.866,0,0,0-.132.578q-.129,2.141-.252,4.283-1.234-.081-2.47-.185.153-2.049.311-4.1c.074-.927-.233-1.584-1-1.654a1.236,1.236,0,0,0-1.216.712,1.393,1.393,0,0,0-.15.558q-.2,2.129-.4,4.258-1.234-.125-2.467-.27Q874.153,957.866,874.43,955.384Z" transform="translate(-819.25 -899.42)" fill="#fff"/>
          </g>
          <g transform="matrix(1, 0, 0, 1, 819.25, 899.42)" filter="url(#Path_63785)">
            <path id="Path_63785-2" data-name="Path 63785" d="M890.174,958.407c.081.944,1.108,1.4,2.279,1.388a7.315,7.315,0,0,0,2.215-.341q.19.768.384,1.535a8.3,8.3,0,0,1-2.933.5c-2.779.021-4.348-1.472-4.3-3.763a3.826,3.826,0,0,1,3.971-3.885,3.4,3.4,0,0,1,3.576,3.592,4.82,4.82,0,0,1-.047.9Q892.747,958.42,890.174,958.407Zm2.89-1.576a1.371,1.371,0,0,0-1.406-1.47,1.541,1.541,0,0,0-1.5,1.484Q891.61,956.852,893.064,956.831Z" transform="translate(-819.25 -899.42)" fill="#fff"/>
          </g>
          <g transform="matrix(1, 0, 0, 1, 819.25, 899.42)" filter="url(#Path_63786)">
            <path id="Path_63786-2" data-name="Path 63786" d="M902.489,960.885q-2.235-4.893-4.2-9.85,1.29-.07,2.578-.166.8,2.083,1.638,4.158c.47,1.165.919,2.285,1.3,3.515l.049,0c.16-1.234.376-2.461.624-3.645q.461-2.215.885-4.434,1.244-.135,2.485-.292-1.091,5.234-2.418,10.451Q903.963,960.765,902.489,960.885Z" transform="translate(-819.25 -899.42)" fill="#fff"/>
          </g>
          <g transform="matrix(1, 0, 0, 1, 819.25, 899.42)" filter="url(#Path_63787)">
            <path id="Path_63787-2" data-name="Path 63787" d="M916.8,955.2c.521,2.634-1.321,4.235-3.48,4.57-2.357.368-4.366-.807-4.666-3.157s1.129-4.048,3.561-4.429A3.771,3.771,0,0,1,916.8,955.2Zm-5.637,1.012c.187,1.245.9,2.1,1.957,1.934.959-.151,1.422-1.127,1.192-2.427-.19-1.08-.82-2.1-1.9-1.926C911.261,953.971,911,955.141,911.161,956.212Z" transform="translate(-819.25 -899.42)" fill="#fff"/>
          </g>
          <g transform="matrix(1, 0, 0, 1, 819.25, 899.42)" filter="url(#Path_63788)">
            <path id="Path_63788-2" data-name="Path 63788" d="M916.922,948.15q1.148-.228,2.289-.474,1.136,5.2,2.3,10.4-1.233.267-2.471.512Q917.966,953.371,916.922,948.15Z" transform="translate(-819.25 -899.42)" fill="#fff"/>
          </g>
          <g transform="matrix(1, 0, 0, 1, 819.25, 899.42)" filter="url(#Path_63789)">
            <path id="Path_63789-2" data-name="Path 63789" d="M930.25,953.447c.273.92.526,1.659.733,2.24q-1.054.3-2.112.591l-.392-.966-.046.013a2.89,2.89,0,0,1-2.14,1.8c-1.6.4-3-.231-3.523-2.436q-.5-2.094-.989-4.189,1.175-.272,2.345-.563.486,1.911.975,3.822c.264,1.031.789,1.568,1.634,1.349a1.317,1.317,0,0,0,1-1.084,1.2,1.2,0,0,0-.053-.5q-.58-2.1-1.156-4.209,1.164-.313,2.324-.647Q929.545,951.057,930.25,953.447Z" transform="translate(-819.25 -899.42)" fill="#fff"/>
          </g>
          <g transform="matrix(1, 0, 0, 1, 819.25, 899.42)" filter="url(#Path_63790)">
            <path id="Path_63790-2" data-name="Path 63790" d="M931.38,950.359c-.27-.875-.531-1.61-.75-2.218q.966-.293,1.929-.6.205.454.412.908l.045-.015a2.752,2.752,0,0,1,1.859-1.828,2.246,2.246,0,0,1,2.42.476l.03-.01a3.472,3.472,0,0,1,.638-1.172,2.967,2.967,0,0,1,1.25-.848c1.385-.522,2.8-.023,3.625,2.005q.813,2,1.632,4-1.146.457-2.3.9-.725-1.86-1.444-3.721c-.386-.993-.95-1.435-1.684-1.163a1.186,1.186,0,0,0-.778,1.132,1.855,1.855,0,0,0,.11.58q.739,2.015,1.484,4.027-1.16.418-2.325.816-.68-1.94-1.354-3.881c-.307-.879-.845-1.36-1.572-1.119a1.227,1.227,0,0,0-.821,1.139,1.4,1.4,0,0,0,.086.57q.668,2.031,1.34,4.06-1.172.378-2.349.736Q932.118,952.745,931.38,950.359Z" transform="translate(-819.25 -899.42)" fill="#fff"/>
          </g>
          <g transform="matrix(1, 0, 0, 1, 819.25, 899.42)" filter="url(#Path_63791)">
            <path id="Path_63791-2" data-name="Path 63791" d="M946.952,946.842c.455.833,1.578.838,2.651.354a7.39,7.39,0,0,0,1.9-1.206q.483.627.971,1.251a8.3,8.3,0,0,1-2.5,1.645c-2.546,1.139-4.58.4-5.459-1.717a3.826,3.826,0,0,1,2.083-5.153,3.415,3.415,0,0,1,4.732,1.848,4.926,4.926,0,0,1,.32.845Q949.318,945.819,946.952,946.842Zm2.021-2.606a1.373,1.373,0,0,0-1.882-.781,1.543,1.543,0,0,0-.782,1.964Q947.647,944.841,948.973,944.236Z" transform="translate(-819.25 -899.42)" fill="#fff"/>
          </g>
        </g>
      </g>
    </g>
  </g>
</svg>
