<svg xmlns="http://www.w3.org/2000/svg" xmlns:xlink="http://www.w3.org/1999/xlink" width="150" height="96" viewBox="0 0 150 96">
  <defs>
    <clipPath id="clip-path">
      <rect id="Rectangle_90600" data-name="Rectangle 90600" width="150" height="96" transform="translate(5209 -2227)" fill="none" stroke="#707070" stroke-width="1"/>
    </clipPath>
    <filter id="All_Time_Trades" x="27.51" y="3.011" width="92.325" height="47.778" filterUnits="userSpaceOnUse">
      <feOffset input="SourceAlpha"/>
      <feGaussianBlur stdDeviation="3" result="blur"/>
      <feFlood/>
      <feComposite operator="in" in2="blur"/>
      <feComposite in="SourceGraphic"/>
    </filter>
  </defs>
  <g id="Mask_Group_42" data-name="Mask Group 42" transform="translate(-5209 2227)" clip-path="url(#clip-path)">
    <g id="Group_41430" data-name="Group 41430" transform="translate(5210.975 -2207.359)" opacity="0.384">
      <g id="Group_41313" data-name="Group 41313">
        <path id="Path_63632" data-name="Path 63632" d="M1271.742,990.375c-1.2-3.351-3.8-5.959-6.516-8.151-5.067-4.089-11.008-7.093-16.9-9.8a304.02,304.02,0,0,0-30.691-11.674c-11.9-3.98-23.97-7.911-36.5-9.312-12.512-1.4-25.279.492-36.427,6.5a.721.721,0,0,0-.287.963,60.2,60.2,0,0,0,21.058,22.115c9.776,6.145,20.984,9.724,32.04,12.773,10.918,3.011,21.921,5.913,33.083,7.874a113.536,113.536,0,0,0,22.942,2.1c4.712-.143,10-.615,14.1-3.17.774-.482.1-1.736-.676-1.251-3.467,2.16-7.845,2.706-11.838,2.933a100.259,100.259,0,0,1-21.328-1.505c-10.4-1.656-20.6-4.294-30.776-6.972-11-2.894-22.116-6.033-32.223-11.357a60.054,60.054,0,0,1-25.13-24.216q-.145.482-.287.963a59.376,59.376,0,0,1,31.786-6.673c12.218.732,24.108,4.342,35.669,8.14,10.453,3.434,20.893,6.966,31.006,11.319a99.4,99.4,0,0,1,18.5,9.848c3.164,2.252,6.658,5.1,8.013,8.888.3.853,1.69.527,1.381-.336Z" transform="translate(-1144.342 -951.001)" fill="#fdfdfd"/>
        <path id="Path_63633" data-name="Path 63633" d="M1165.835,964.639a50.441,50.441,0,0,1-3.127,7.783c-.484.954-.93,1.681-1.245,2.191s-.509.8-.416.939.475.056,1.043-.314a8.809,8.809,0,0,0,1.97-1.945,26.139,26.139,0,0,0,3.946-7.975,22.53,22.53,0,0,0,1.146-8.863,7.89,7.89,0,0,0-.724-2.693,2.357,2.357,0,0,0-.437-.642q-.194-.2-.3-.149c-.072.031-.112.143-.125.316s.005.408.01.711a19.767,19.767,0,0,1-.03,2.495A37.379,37.379,0,0,1,1165.835,964.639Z" transform="translate(-1146.532 -951.258)" fill="#fdfdfd"/>
        <path id="Path_63634" data-name="Path 63634" d="M1151.8,967.9a41.07,41.07,0,0,0,4.741,4.22,18.144,18.144,0,0,0,1.6,1.082c.393.232.624.339.655.294s-.137-.236-.47-.543l-1.424-1.269c-1.2-1.069-2.82-2.581-4.528-4.341s-3.2-3.4-4.308-4.582-1.832-1.879-1.916-1.8a9.3,9.3,0,0,0,1.487,2.168A57.479,57.479,0,0,0,1151.8,967.9Z" transform="translate(-1144.578 -952.307)" fill="#fdfdfd"/>
        <g id="Group_41309" data-name="Group 41309" transform="translate(28.004 10.114)">
          <path id="Path_63635" data-name="Path 63635" d="M1191.779,972.878a7.287,7.287,0,1,1-5.177-9.058,7.347,7.347,0,0,1,5.177,9.058c-.154.589.754.863.909.271a8.235,8.235,0,1,0-10.223,5.459,8.311,8.311,0,0,0,10.223-5.459C1192.883,972.571,1191.974,972.3,1191.779,972.878Z" transform="translate(-1176.579 -962.643)" fill="#fdfdfd"/>
          <path id="Path_63636" data-name="Path 63636" d="M1186.682,965.349a5.9,5.9,0,1,1-7.407,3.941,6.013,6.013,0,0,1,7.407-3.941c.589.15.864-.757.271-.909a6.844,6.844,0,1,0,4.672,8.536,6.987,6.987,0,0,0-4.672-8.536C1186.375,964.244,1186.106,965.151,1186.682,965.349Z" transform="translate(-1176.777 -962.848)" fill="#fdfdfd"/>
        </g>
        <g id="Group_41310" data-name="Group 41310" transform="translate(45.527 15.345)">
          <path id="Path_63637" data-name="Path 63637" d="M1211.951,978.9a7.287,7.287,0,1,1-5.177-9.058,7.347,7.347,0,0,1,5.177,9.058c-.154.589.753.863.908.271a8.234,8.234,0,1,0-10.223,5.459,8.31,8.31,0,0,0,10.223-5.459C1213.053,978.592,1212.145,978.321,1211.951,978.9Z" transform="translate(-1196.75 -968.664)" fill="#fdfdfd"/>
          <path id="Path_63638" data-name="Path 63638" d="M1206.853,971.37a5.9,5.9,0,1,1-7.407,3.941,6.014,6.014,0,0,1,7.407-3.941c.589.15.863-.757.271-.908A6.843,6.843,0,1,0,1211.8,979a6.985,6.985,0,0,0-4.671-8.536C1206.546,970.265,1206.276,971.173,1206.853,971.37Z" transform="translate(-1196.948 -968.869)" fill="#fdfdfd"/>
        </g>
        <g id="Group_41311" data-name="Group 41311" transform="translate(63.049 20.576)">
          <path id="Path_63639" data-name="Path 63639" d="M1232.121,984.92a7.287,7.287,0,1,1-5.177-9.057,7.346,7.346,0,0,1,5.177,9.057c-.154.589.753.863.908.272a8.235,8.235,0,1,0-10.223,5.459,8.309,8.309,0,0,0,10.223-5.459C1233.224,984.614,1232.315,984.343,1232.121,984.92Z" transform="translate(-1216.921 -974.686)" fill="#fdfdfd"/>
          <path id="Path_63640" data-name="Path 63640" d="M1227.024,977.392a5.9,5.9,0,1,1-7.407,3.941,6.015,6.015,0,0,1,7.407-3.941c.589.151.864-.757.271-.908a6.843,6.843,0,1,0,4.671,8.536,6.985,6.985,0,0,0-4.671-8.536C1226.717,976.286,1226.447,977.194,1227.024,977.392Z" transform="translate(-1217.119 -974.891)" fill="#fdfdfd"/>
        </g>
        <path id="Path_63641" data-name="Path 63641" d="M1233.8,1007.309c1.376,11.8,15.914,14.265,25.217,16.808,7.068,1.933,14.361,3.866,21.7,4.368,3.155.216,8.244.5,9.15-3.4.992-4.268-4.967-6.817-8.08-8.059-4.354-1.737-10.5-2.766-13.391-6.83-.7-.983-2.374-.093-1.667.9,4.671,6.568,14.272,5.614,19.932,10.787a3.257,3.257,0,0,1,1.291,3.126c-.078.394-.137.461-.306.607a3.576,3.576,0,0,1-1.615.76,14.69,14.69,0,0,1-3.871.282c-5.843-.159-11.678-1.568-17.322-2.974-5.58-1.39-11.163-2.915-16.624-4.721-5.94-1.964-11.783-5.3-12.577-12.1-.141-1.208-1.981-.751-1.842.448Z" transform="translate(-1156.087 -958.242)" fill="#fdfdfd"/>
        <path id="Path_63642" data-name="Path 63642" d="M1243.923,988.816c-.486,2.227,2.467,3.879,4.011,4.813a78.313,78.313,0,0,0,13.408,6.057c11,4.071,22.884,7.731,34.643,8.623,1.878.142,5.855.68,7.143-1.247,1.262-1.888-1.406-3.761-2.714-4.644a62.107,62.107,0,0,0-12.373-5.934,172.624,172.624,0,0,0-19-6.084,103.016,103.016,0,0,0-17.519-3.312c-2.025-.164-6.63-.81-7.6,1.728-.436,1.14,1.382,1.677,1.815.543.422-1.1,5.521-.4,6.394-.319a97.34,97.34,0,0,1,13.709,2.507c9.971,2.421,20.1,5.5,29.313,10.075a36.535,36.535,0,0,1,4.255,2.4c.321.217,2.233,1.388,2.121,1.952-.176.882-4.431.508-5.091.466-9.737-.638-19.541-3.522-28.761-6.553a116.854,116.854,0,0,1-15.536-6.133,34.44,34.44,0,0,1-4.525-2.59c-.334-.234-1.989-1.3-1.878-1.81C1246,988.174,1244.183,987.623,1243.923,988.816Z" transform="translate(-1157.408 -955.713)" fill="#fdfdfd"/>
        <path id="Path_63643" data-name="Path 63643" d="M1245.259,989.7c19.344,4.7,38.061,11.484,57.187,16.939a.474.474,0,0,0,.271-.908c-19.126-5.455-37.843-12.238-57.187-16.94-.59-.143-.865.764-.271.909Z" transform="translate(-1157.548 -955.96)" fill="#fdfdfd"/>
        <path id="Path_63644" data-name="Path 63644" d="M1245.246,1008.155c-.839-.1-1.673-.216-2.5-.359l-.619.2q-.612.2-1.209.406a10.953,10.953,0,0,0-1.18-1.293l-.14-.038a4.762,4.762,0,0,0,.76,1.524q-1.233.422-2.37.829l-.05-.062c-1.463-1.823-2.4-2.927-2.534-2.836s.554,1.3,1.8,3.181l-.808.3c.131.31.265.619.407.923l1-.321c.368.541.774,1.123,1.21,1.737-.427.167-.83.328-1.213.483.145.248.293.5.448.737q.631-.2,1.33-.428c.431.6.888,1.225,1.365,1.87q-.688.289-1.249.538.221.265.454.519.585-.18,1.282-.4c.392.525.792,1.056,1.208,1.6l.333.435q-.394.182-.7.333c.141.109.284.213.428.317.193-.054.4-.114.628-.183q.463.6.914,1.173a18.323,18.323,0,0,0,2.174,1.033l-.05-.066c.481-.136,1.1-.326,1.819-.561.44.576.867,1.128,1.286,1.664.587.171,1.174.332,1.759.489.52-.166,1.117-.363,1.781-.592.332.441.657.867.976,1.286q1.4.33,2.805.623l.314-.11.708-.251c.17.229.336.449.5.672q.769.152,1.54.3c-.313-.441-.632-.89-.965-1.357q.872-.316,1.828-.672c.451.631.895,1.248,1.329,1.845l-.955.415q1.483.271,2.97.528l-.409-.585q.883-.33,1.839-.7c.424.6.837,1.18,1.246,1.747q.991.173,1.981.349.747-.289,1.534-.6.357.511.706,1.006.771.144,1.54.3c-.38-.559-.772-1.135-1.174-1.723.6-.238,1.229-.486,1.861-.738.049.072.095.142.143.214.353.52.7,1.03,1.045,1.533q-.894.38-1.733.744.917.18,1.831.374l.528-.211.262.377q.783.171,1.563.353l-.773-1.152q.92-.37,1.876-.759.6.892,1.179,1.747l-1.023.441a22.541,22.541,0,0,0,2.94.429l-.248-.375c.616-.252,1.246-.512,1.884-.776.253.381.5.753.752,1.124.164-.017.327-.028.491-.051.242-.035.485-.079.726-.131l-.906-1.383.369-.154,1.527-.64q.429.662.87,1.339l.066.1a3.9,3.9,0,0,0,.876-.736c-.253-.388-.5-.769-.751-1.148l1.646-.691a3.155,3.155,0,0,0,0-1.171q-1.107.439-2.266.91-.577-.878-1.133-1.718l2.486-1.029a6.966,6.966,0,0,0-.752-.78q-1.126.423-2.34.9-.594-.893-1.155-1.725l1.463-.6c-.381-.214-.763-.407-1.13-.577-.3.107-.6.215-.9.328q-.333-.491-.651-.956c-.9-.335-1.811-.647-2.723-.957-.453.16-.915.324-1.4.5-.32-.463-.621-.895-.915-1.314-.679-.245-1.363-.485-2.038-.744-.588.2-1.2.415-1.833.643-.345-.49-.679-.962-.99-1.394l-.21-.292.454-.177c-.056-.034-.114-.064-.169-.1-.263-.165-.517-.341-.772-.515l-.073.023-.107-.143c-.447-.31-.889-.629-1.322-.963l-.1-.075c.235.4.518.872.843,1.407q-1.118.376-2.358.813c-.153-.212-.307-.427-.451-.625-.266-.365-.515-.7-.752-1.022l1.816-.7.491-.19c-.259-.2-.522-.385-.8-.557-.646.194-1.351.414-2.1.658-.513-.669-.924-1.172-1.208-1.485l-.335-.021c.159.341.486.917.956,1.7q-1.156.38-2.437.826c-.448-.608-.855-1.148-1.211-1.607.8-.3,1.543-.58,2.212-.831l.265-.1q-1.141-.068-2.28-.13c-.272.085-.548.172-.832.263-.1-.12-.187-.226-.271-.325l-.456-.025c.076.143.167.307.273.494q-1.208.392-2.546.848c-.479-.629-.893-1.155-1.228-1.56l.083-.03q-1.194-.108-2.382-.266-.658.216-1.347.446c-.224-.282-.426-.532-.6-.745-.062-.011-.125-.019-.187-.031-.131-.023-.261-.05-.392-.075.153.281.355.632.6,1.045-.778.263-1.581.541-2.4.829q-.66-.861-1.182-1.515c.6-.208,1.172-.409,1.733-.606-.707-.146-1.412-.294-2.12-.431l-.369.12c-.07-.082-.134-.155-.2-.225-.151-.028-.3-.056-.451-.082.061.124.138.272.234.444q-1.027.34-2.1.705l-.438.15c-.48-.6-.888-1.106-1.211-1.481Zm-6.549,2.167c.731-.236,1.491-.485,2.272-.742.31.486.666,1.028,1.064,1.621q-1.072.395-2.042.767Q1239.306,1011.09,1238.7,1010.322Zm9.971,5q-.967.38-1.835.733c-.452-.6-.893-1.186-1.32-1.748q.954-.327,1.98-.682Q1248.05,1014.435,1248.668,1015.319Zm1.695.486c.629-.222,1.281-.453,1.949-.693.37.544.759,1.108,1.162,1.689-.638.253-1.25.5-1.833.736Q1250.988,1016.647,1250.363,1015.8Zm-1.084.381q.619.874,1.282,1.792c-.625.259-1.206.5-1.739.731q-.437-.585-.886-1.187-.261-.349-.519-.691C1248.007,1016.628,1248.63,1016.412,1249.279,1016.185Zm3.048,2.286-.084-.116q.889-.314,1.855-.663.607.866,1.253,1.772-.934.387-1.758.738C1253.18,1019.635,1252.76,1019.06,1252.327,1018.47Zm2.859-1.173q.94-.341,1.927-.706.556.819,1.152,1.685c-.633.255-1.247.5-1.834.743Q1255.8,1018.138,1255.186,1017.3Zm6.064-.2q-.987.384-1.926.756-.606-.847-1.181-1.645l.991-.369,1.031-.385C1260.511,1015.983,1260.87,1016.527,1261.25,1017.1Zm2.045.432,1.639-.626c.348.532.713,1.087,1.09,1.656-.652.256-1.3.511-1.919.761-.4-.565-.787-1.121-1.166-1.656Zm-3.31,1.251c.624-.234,1.259-.473,1.91-.719q.554.824,1.145,1.689-.948.384-1.837.751l-.094-.133Q1260.539,1019.559,1259.985,1018.781Zm4.778,1.48c.622-.238,1.258-.484,1.9-.734q.553.829,1.138,1.694-.949.388-1.843.76l-.462-.665C1265.251,1020.961,1265.007,1020.61,1264.763,1020.262Zm2.955-1.143q1.009-.392,1.975-.771.526.812,1.091,1.671-.975.388-1.911.768C1268.481,1020.216,1268.1,1019.662,1267.718,1019.118Zm6.719.662q.53.823,1.1,1.693l-.181.072q-.878.354-1.728.7c-.388-.572-.772-1.136-1.147-1.684Zm2.791,2.23,1.947-.793c.357.558.723,1.126,1.1,1.71l-.766.312c-.385.157-.765.315-1.142.471Q1277.788,1022.843,1277.228,1022.01Zm-.646-.956q-.583-.864-1.139-1.678l2.043-.819c.348.552.706,1.12,1.084,1.714C1277.922,1020.524,1277.257,1020.786,1276.583,1021.055Zm-4.76-1.447c-.388-.565-.77-1.118-1.138-1.649l2.068-.814c.339.536.7,1.1,1.072,1.684Q1272.843,1019.206,1271.823,1019.607Zm-4.774-1.449q-.589-.843-1.143-1.627,1.085-.417,2.1-.81c.335.529.687,1.08,1.063,1.663C1268.407,1017.635,1267.735,1017.892,1267.049,1018.158Zm-4.159-1.691-.63.242q-.6-.838-1.152-1.607c.735-.275,1.455-.546,2.146-.808q.492.771,1.051,1.639Q1263.606,1016.2,1262.89,1016.467Zm-4.154-1.693-1.283.484q-.606-.833-1.162-1.588c.756-.276,1.487-.545,2.2-.808.037.06.074.118.113.179.284.447.6.935.926,1.441Zm-2.269.86q-1,.383-1.944.752-.619-.848-1.2-1.638.813-.293,1.65-.6l.41-.149Q1255.892,1014.779,1256.467,1015.634Zm-6.766-.719q-.636-.852-1.225-1.635,1.029-.359,2.11-.741c.335.509.7,1.052,1.081,1.624Q1250.651,1014.547,1249.7,1014.915Zm-4.844-1.473q-.657-.862-1.255-1.638c.7-.238,1.433-.485,2.178-.738.325.5.685,1.042,1.076,1.619C1246.163,1012.944,1245.5,1013.2,1244.858,1013.441Zm-4.223-.648c.643-.212,1.32-.437,2.022-.672.371.541.77,1.116,1.191,1.713-.654.256-1.269.5-1.84.734Q1241.3,1013.645,1240.635,1012.793Zm2.909,3.778c-.331-.434-.657-.858-.978-1.278.586-.193,1.213-.4,1.874-.625q.632.885,1.319,1.823c-.632.262-1.208.507-1.72.73Q1243.794,1016.9,1243.544,1016.571Zm2.551,3.366c-.514-.682-1.054-1.4-1.613-2.132.544-.174,1.148-.374,1.806-.594q.362.491.737.99c.245.328.488.65.73.969C1247.079,1019.47,1246.521,1019.728,1246.1,1019.938Zm4.73,1.478q-.723-.983-1.512-2.046c.559-.189,1.165-.4,1.809-.621l.288.394c.379.517.752,1.019,1.122,1.514C1251.885,1020.937,1251.314,1021.192,1250.826,1021.415Zm6.473.732-.48.207q-.68.3-1.262.557c-.458-.635-.939-1.3-1.438-1.988.568-.2,1.179-.418,1.816-.647Q1256.628,1021.235,1257.3,1022.147Zm1.052-.451c-.423-.593-.862-1.2-1.307-1.825.6-.218,1.213-.445,1.852-.682q.6.863,1.231,1.758C1259.5,1021.208,1258.914,1021.456,1258.35,1021.7Zm4.746,1.492q-.619-.882-1.273-1.809c.6-.224,1.219-.461,1.851-.7q.438.636.891,1.288c.109.156.216.308.324.462C1264.267,1022.69,1263.666,1022.945,1263.1,1023.188Zm6.546.719q-.941.4-1.812.772-.6-.877-1.244-1.8c.6-.233,1.22-.471,1.856-.72l.51.749C1269.184,1023.246,1269.413,1023.577,1269.642,1023.908Zm1.066-.449-.818-1.193-.364-.53q.933-.366,1.9-.748.551.834,1.133,1.7C1271.926,1022.949,1271.307,1023.206,1270.708,1023.458Zm4.728,1.478-1.155-1.722-.006-.009q.744-.3,1.506-.606l.388-.158q.552.841,1.131,1.712Q1276.347,1024.551,1275.435,1024.936Zm6.6.679q-.955.4-1.872.794-.564-.854-1.151-1.738l.933-.381.962-.4C1281.273,1024.459,1281.647,1025.032,1282.031,1025.615Zm2.976-1.239c-.444.183-.89.366-1.342.554l-.567.237-.037-.057c-.37-.562-.735-1.113-1.1-1.658l1.94-.8Q1284.441,1023.5,1285.007,1024.377Zm-1.7-2.664c-.647.254-1.3.516-1.978.787-.385-.579-.765-1.147-1.135-1.7l2.021-.823Q1282.741,1020.816,1283.308,1021.712Zm-2.741-4.391q.515.838,1.1,1.77-1.011.377-2.087.791-.6-.883-1.156-1.7Zm-4.724-1.4c.335.545.694,1.122,1.08,1.739-.681.251-1.389.517-2.113.792q-.6-.869-1.152-1.666C1274.427,1016.483,1275.157,1016.193,1275.844,1015.921Zm-4.732-1.405.278.452c.245.4.512.822.787,1.261-.7.253-1.408.514-2.146.791-.4-.575-.784-1.117-1.153-1.636Q1270.055,1014.928,1271.112,1014.515Zm-4.736-1.408q.345.564.752,1.217l.295.468c-.707.253-1.438.519-2.187.8-.4-.566-.792-1.106-1.156-1.607Q1265.289,1013.522,1266.375,1013.107Zm-4.737-1.412c.288.479.632,1.037,1.021,1.658q-1.088.383-2.239.8c-.407-.559-.8-1.089-1.155-1.571l-.005-.006Q1260.512,1012.115,1261.639,1011.695Zm-4.729-1.421c.248.434.581.986.984,1.636q-1.123.388-2.307.811c-.422-.564-.813-1.082-1.169-1.545C1255.289,1010.861,1256.124,1010.559,1256.909,1010.273Zm-3.187,1.151c.3.483.644,1.018,1.021,1.6l-.16.057q-1,.365-1.96.723-.618-.832-1.175-1.57C1252.226,1011.959,1252.986,1011.687,1253.722,1011.424Zm-4.768-1.449c.278.457.613.99,1,1.584-.745.265-1.474.528-2.179.787-.423-.557-.821-1.076-1.191-1.553l.067-.023Q1247.831,1010.365,1248.954,1009.975Zm-3.8.109c-.776.271-1.531.539-2.257.8-.44-.565-.848-1.083-1.214-1.54l.8-.266,1.715-.572C1244.427,1008.917,1244.748,1009.449,1245.15,1010.084Z" transform="translate(-1156.296 -958.291)" fill="#fdfdfd"/>
        <g id="Group_41312" data-name="Group 41312" transform="translate(88.239 9.59)">
          <path id="Path_63645" data-name="Path 63645" d="M1247.451,968.265c3.867-4.627,9.715-4.948,15.24-3.705,5.149,1.159,10.221,2.892,15.224,4.557,6.144,2.045,12.422,4.2,18.087,7.381a19.885,19.885,0,0,1,3.842,2.623,6.526,6.526,0,0,1,1.281,1.6,1.054,1.054,0,0,1,.1.829,3.314,3.314,0,0,1-.24.65c-1.077,2.03-4.5,1.676-6.412,1.45a57.472,57.472,0,0,1-6.642-1.387c-3.946-.95-8.219-2.034-12.151-.5-1.135.443-.222,2.107.9,1.668,4.13-1.614,9.133.3,13.208,1.247,3.444.8,8.148,1.978,11.417-.008a4.191,4.191,0,0,0,1.771-4.033c-.475-2.227-2.895-3.809-4.669-4.923-5.525-3.466-11.923-5.68-18.055-7.778-6.087-2.083-12.376-4.395-18.721-5.52-5.669-1.005-11.594-.175-15.471,4.461-.774.925.514,2.319,1.3,1.385Z" transform="translate(-1245.917 -962.04)" fill="#fdfdfd"/>
          <path id="Path_63646" data-name="Path 63646" d="M1256.135,972.436c-.758-.374-1.518-.737-2.291-1.072q-.2-.253-.4-.51-.4-.506-.79-1a11,11,0,0,1-1.7.436l-.137-.045a4.763,4.763,0,0,1,1.47-.857c-.532-.685,1.246,2.045.761,1.4-.024.008-2.34-3.38-2.363-3.371-2.223.723-3.615,1.13-3.675.982s1.179-.788,3.248-1.674c-.176-.236-.344-.464-.512-.691.279-.188.56-.373.846-.549l.664.819c.6-.25,1.263-.515,1.964-.79q-.4-.56-.749-1.069c.258-.128.516-.254.778-.371.279.343.571.7.878,1.088.689-.265,1.413-.538,2.166-.815q-.417-.62-.75-1.135.33-.1.665-.185.391.47.851,1.04c.616-.224,1.243-.449,1.887-.676l.518-.182c-.154-.246-.287-.467-.4-.66.177-.014.354-.022.532-.03.131.151.271.314.426.5q.715-.248,1.406-.48a18.459,18.459,0,0,1,2.385.328l-.078.028c.328.377.737.873,1.214,1.467.684-.242,1.343-.469,1.989-.688.584.179,1.164.367,1.738.555.345.424.736.917,1.167,1.472.52-.187,1.024-.366,1.521-.54q1.35.49,2.687,1.016c.068.088.134.173.2.264.146.19.3.4.454.6.268-.1.527-.191.789-.286q.727.294,1.451.6c-.5.2-1.017.4-1.551.606q.555.743,1.16,1.565c.723-.281,1.432-.553,2.124-.815-.2-.3-.387-.589-.572-.87q1.389.586,2.774,1.186l-.663.266q.556.76,1.156,1.59c.684-.269,1.347-.527,2-.778q.924.4,1.849.795.467.65.956,1.34.578-.232,1.143-.454.723.3,1.449.6l-1.925.8c.375.531.76,1.08,1.151,1.637l.237-.1q.869-.364,1.714-.709-.539-.808-1.042-1.571.865.352,1.736.691l.326.466.426-.172q.748.287,1.5.561l-1.278.54q.565.814,1.153,1.664.988-.418,1.944-.815-.313-.472-.614-.93a22.793,22.793,0,0,1,2.694,1.253l-.413.177q.565.824,1.15,1.683c.421-.18.834-.355,1.245-.529.129.1.259.2.384.314.183.161.362.331.535.507l-1.517.66.226.331q.468.7.926,1.373.722-.319,1.461-.644l.109-.048a3.907,3.907,0,0,1,.33,1.1l-1.257.549,1,1.479a3.164,3.164,0,0,1-.645.977q-.685-.973-1.4-2-.964.42-1.89.817l1.515,2.223a7.028,7.028,0,0,1-1.055.241q-.71-.972-1.467-2.032-.985.421-1.91.81l.9,1.3c-.437-.03-.861-.077-1.262-.137-.189-.251-.38-.506-.575-.769l-1.068.442c-.937-.214-1.869-.452-2.8-.691-.291-.381-.587-.772-.895-1.182-.521.212-1.009.408-1.485.6-.7-.167-1.406-.341-2.113-.494-.381-.492-.773-1-1.181-1.543-.557.221-1.1.433-1.592.623l-.335.129.282.4c-.065,0-.13-.009-.2-.011-.31-.006-.618,0-.928.008l-.048-.06-.168.062c-.545.014-1.089.039-1.634.08l-.123.01c.416-.207.911-.446,1.478-.715q-.73-.927-1.528-1.973l-.719.275c-.422.161-.817.307-1.189.443l1.137,1.578.306.428c-.323.022-.647.036-.971.029-.434-.516-.9-1.087-1.4-1.7-.8.278-1.416.473-1.826.58l-.291-.167c.32-.2.91-.5,1.731-.9-.505-.634-1.035-1.312-1.585-2.027-.708.263-1.344.491-1.894.68.5.687.973,1.331,1.393,1.908l.167.23q-.99-.567-1.977-1.141c-.182-.221-.365-.445-.552-.677l-.4.123-.4-.228c.142-.079.308-.166.5-.264q-.8-.99-1.664-2.1c-.745.263-1.381.476-1.883.632l.054.071q-1.059-.564-2.138-1.083-.434-.542-.883-1.112c-.342.114-.647.212-.914.292-.058-.024-.115-.052-.174-.076-.123-.052-.246-.1-.369-.153.282-.151.644-.333,1.079-.542-.507-.646-1.026-1.319-1.552-2.008-.683.239-1.291.446-1.819.618.387.5.756.985,1.117,1.458-.672-.266-1.342-.528-2.009-.8l-.242-.3c-.1.03-.2.057-.287.081-.141-.06-.282-.118-.422-.18.119-.07.264-.151.438-.242-.449-.566-.9-1.143-1.368-1.74l-.284-.367c-.732.243-1.349.439-1.825.575Zm-4.29-5.4c.481.6.981,1.221,1.493,1.865.526-.235,1.122-.494,1.779-.771q-.68-.919-1.287-1.762C1253.127,966.605,1252.464,966.828,1251.845,967.034Zm11.079,1.286q-.6-.848-1.134-1.619c-.707.255-1.4.5-2.062.739q.62.795,1.283,1.656Q1261.922,968.72,1262.924,968.321Zm1.683.522q.607.8,1.249,1.648.912-.377,1.9-.774c-.4-.561-.773-1.1-1.131-1.62C1265.936,968.353,1265.262,968.6,1264.607,968.843Zm-.7-.912q1-.391,2.055-.8-.572-.838-1.054-1.564l-1.392.507-.813.294C1263.088,966.863,1263.491,967.385,1263.91,967.931Zm3.8-.24-.135.049q.572.75,1.187,1.571.984-.392,2.021-.795-.57-.835-1.066-1.581C1269.064,967.184,1268.4,967.435,1267.712,967.691Zm1.748,2.548q.6.8,1.224,1.647.912-.38,1.888-.778-.587-.84-1.128-1.627Q1270.431,969.87,1269.46,970.239Zm4.963,3.491q-.617-.863-1.2-1.688-.971.377-1.89.728l.626.852.651.887C1273.193,974.257,1273.791,974,1274.423,973.73Zm1.947.76q.524.722,1.027,1.422c.583-.255,1.192-.519,1.819-.788-.4-.572-.8-1.137-1.187-1.689-.641.255-1.273.506-1.883.746Zm-2.082-2.861c.394.537.793,1.084,1.2,1.649.609-.257,1.239-.519,1.883-.785q-.582-.841-1.126-1.635l-.151.06Q1275.177,971.281,1274.287,971.629Zm4.807,1.381c.389.539.786,1.094,1.189,1.658q.916-.391,1.881-.794-.581-.843-1.125-1.645l-.75.3Zm1.844,2.576q.628.88,1.23,1.728.885-.391,1.829-.8-.6-.859-1.178-1.69Q1281.858,975.215,1280.939,975.586Zm5.982,3.13q.9-.4,1.847-.815l-.111-.159c-.361-.519-.712-1.03-1.06-1.536-.638.266-1.268.527-1.881.78Zm3.557-.335,1.193,1.73c.6-.27,1.221-.546,1.858-.827-.157-.227-.312-.45-.47-.68-.235-.343-.467-.682-.7-1.02Q1291.4,977.991,1290.478,978.381Zm-1.063.446q-.962.4-1.873.778l1.26,1.805c.592-.271,1.2-.549,1.846-.838C1290.244,980,1289.832,979.42,1289.415,978.826Zm-4.774-1.4c-.635.26-1.257.513-1.856.756q.663.936,1.283,1.815c.578-.262,1.189-.539,1.82-.821Q1285.274,978.322,1284.641,977.427Zm-4.787-1.4q-.957.382-1.849.733l1.314,1.831c.57-.259,1.166-.526,1.8-.809C1280.7,977.2,1280.281,976.621,1279.854,976.022Zm-4.405-.865-.394-.548q-.96.374-1.845.712c.463.633.917,1.254,1.352,1.852q.832-.377,1.777-.795Q1275.9,975.776,1275.448,975.157Zm-4.4-.861q-.41-.56-.809-1.109c-.642.243-1.258.474-1.843.691q.722.968,1.4,1.882l.192-.087c.483-.219,1.013-.454,1.565-.7Zm-1.427-1.963q-.625-.868-1.213-1.695c-.655.247-1.291.485-1.9.712q.518.691,1.052,1.4c.089.117.174.232.26.349Q1268.67,972.733,1269.619,972.333Zm-6.052-3.107c-.665.242-1.307.475-1.921.7q.665.865,1.359,1.776c.558-.242,1.159-.5,1.794-.765Q1264.159,970.054,1263.566,969.225Zm-4.859-1.424c-.681.241-1.332.469-1.948.683q.689.877,1.417,1.811c.545-.239,1.145-.5,1.788-.765Q1259.308,968.636,1258.708,967.8Zm-3.888-1.772c.423.529.865,1.089,1.324,1.671.606-.249,1.255-.511,1.935-.779q-.611-.86-1.136-1.623Q1255.843,965.68,1254.82,966.029Zm4.5-1.564c-.515.182-1.02.358-1.518.531.385.483.794,1,1.225,1.551q1.012-.393,2.1-.8c-.385-.566-.732-1.086-1.038-1.552Zm3.98-1.418c-.8.289-1.646.59-2.518.9.359.444.756.942,1.185,1.486q.572-.211,1.159-.424c.385-.14.764-.276,1.142-.41C1263.87,963.977,1263.545,963.456,1263.3,963.047Zm4.766,1.358c-.762.283-1.559.579-2.386.882.364.464.757.97,1.173,1.511l.457-.172c.6-.224,1.188-.44,1.769-.652C1268.7,965.386,1268.356,964.859,1268.07,964.4Zm5.815,2.936c-.1-.145-.2-.3-.288-.437q-.407-.62-.751-1.156c-.731.28-1.5.573-2.293.874.366.479.757,1,1.164,1.537Q1272.823,967.735,1273.885,967.341Zm.632.955c-.679.263-1.38.534-2.094.809.381.51.771,1.037,1.175,1.586q.975-.393,1.994-.8C1275.211,969.333,1274.857,968.8,1274.517,968.3Zm4.787,1.353q-1,.4-2.055.815c.376.515.766,1.053,1.163,1.6q.715-.293,1.452-.59l.524-.208C1280.011,970.706,1279.648,970.164,1279.3,969.648Zm5.869,2.987q-.569-.848-1.092-1.638l-2.027.823c.377.526.762,1.063,1.157,1.619l.837-.347C1284.428,972.936,1284.8,972.786,1285.174,972.635Zm.645.96-1.337.549-.6.244q.58.818,1.176,1.665.92-.395,1.881-.8Q1286.366,974.405,1285.818,973.595Zm4.765,1.356-1.91.807-.009,0q.457.657.926,1.332l.239.346q.923-.4,1.883-.811Q1291.134,975.773,1290.583,974.951Zm5.889,3.048q-.579-.861-1.131-1.69l-1.915.822c.19.276.379.549.571.83l.587.861Q1295.512,978.415,1296.472,978Zm1.809,2.667c-.271-.4-.543-.794-.818-1.2-.117-.17-.23-.34-.345-.508l-.063.027q-.927.4-1.825.784l1.182,1.735Q1297.327,981.091,1298.281,980.666Zm-2.881,1.3q-.6-.852-1.223-1.743c-.64.273-1.269.539-1.881.8.428.62.839,1.217,1.239,1.8Q1294.435,982.4,1295.4,981.963Zm-4.7,2.169c.594-.278,1.224-.573,1.886-.879q-.637-.869-1.312-1.806-.981.411-1.9.788Zm-4.719-1.418c.58-.272,1.2-.558,1.857-.863-.432-.584-.878-1.194-1.333-1.821-.65.267-1.277.521-1.875.762C1285.105,981.468,1285.558,982.111,1285.981,982.715Zm-4.727-1.419.479-.225c.422-.2.879-.407,1.35-.624-.443-.593-.895-1.2-1.36-1.838-.651.261-1.269.5-1.861.736C1280.351,980.029,1280.816,980.682,1281.254,981.3Zm-4.734-1.419q.6-.281,1.3-.605l.5-.23q-.679-.9-1.392-1.864c-.649.253-1.269.492-1.848.711Q1275.84,978.934,1276.521,979.877Zm-4.736-1.415c.5-.243,1.1-.52,1.763-.827q-.7-.916-1.432-1.9c-.647.245-1.264.474-1.827.68l-.008,0Q1271.073,977.492,1271.784,978.462Zm-4.734-1.4c.446-.227,1.027-.506,1.72-.829q-.726-.94-1.485-1.944c-.662.241-1.273.46-1.825.652C1266.017,975.678,1266.551,976.39,1267.05,977.058Zm-2.034-2.709c.518-.239,1.1-.5,1.73-.779l-.1-.135q-.637-.853-1.243-1.679c-.649.239-1.265.462-1.843.669Q1264.307,973.411,1265.016,974.349Zm-4.782-1.4c.483-.23,1.056-.492,1.7-.779-.477-.63-.942-1.249-1.389-1.853q-.99.352-1.849.646l.043.056Q1259.508,972,1260.233,972.947Zm-3.121-2.176q-.752-.979-1.448-1.909c-.678.231-1.3.44-1.86.623l.526.662q.572.723,1.121,1.42C1255.867,971.35,1256.427,971.082,1257.112,970.771Z" transform="translate(-1246.06 -962.103)" fill="#fdfdfd"/>
        </g>
        <path id="Path_63647" data-name="Path 63647" d="M1155.962,955.774a32.866,32.866,0,0,0-5.427,1.317,5.865,5.865,0,0,0-2.109.973,8.084,8.084,0,0,0,2.265-.432c1.373-.327,3.274-.734,5.4-1.072,4.245-.68,7.748-.9,7.739-1.14C1163.827,955.22,1160.28,955.083,1155.962,955.774Z" transform="translate(-1144.878 -951.56)" fill="#fdfdfd"/>
        <path id="Path_63648" data-name="Path 63648" d="M1218.808,963.763c-6.358-1.983-12.5-3.591-18.126-4.876l-4.131-.847-1.98-.4-1.93-.327-3.663-.611c-1.176-.188-2.315-.306-3.4-.45s-2.114-.272-3.09-.381l-2.769-.222-2.408-.188c-.74-.056-1.421-.048-2.03-.069-1.221-.028-2.167-.043-2.809-.045a4.526,4.526,0,0,0-.98.039,4.628,4.628,0,0,0,.975.122c.64.053,1.583.118,2.8.194.607.046,1.283.061,2.02.139l2.395.252,2.753.282,3.072.436c1.075.163,2.207.3,3.376.5l3.642.654,1.919.346,1.969.42,4.109.877c5.6,1.32,11.712,2.943,18.05,4.919,6.325,2.015,12.285,4.139,17.641,6.239,5.339,2.14,10.109,4.169,14.037,6.042l2.81,1.317,2.476,1.24c1.546.773,2.883,1.43,3.947,2.021,1.075.573,1.912,1.013,2.485,1.3a.492.492,0,1,0,.08-.139c-.547-.336-1.361-.82-2.415-1.436-1.044-.633-2.362-1.332-3.893-2.144l-2.454-1.3-2.794-1.372c-3.907-1.942-8.668-4.032-14.009-6.216C1231.125,967.936,1225.154,965.785,1218.808,963.763Z" transform="translate(-1147.907 -951.571)" fill="#fdfdfd"/>
        <path id="Path_63649" data-name="Path 63649" d="M1154.994,957.717a41.1,41.1,0,0,0-6.121.963,7.188,7.188,0,0,0-2.437.831,9.884,9.884,0,0,0,2.545-.279c1.552-.235,3.7-.519,6.081-.722,4.766-.41,8.665-.409,8.672-.648C1163.744,957.662,1159.824,957.3,1154.994,957.717Z" transform="translate(-1144.617 -951.858)" fill="#fdfdfd"/>
        <path id="Path_63650" data-name="Path 63650" d="M1152.358,966.259c-3.614-2.755-6.261-5.326-6.425-5.172-.075.072.486.82,1.532,1.907a40.807,40.807,0,0,0,4.407,3.9c3.645,2.811,6.947,4.557,7.05,4.382C1159.045,971.07,1155.954,969.034,1152.358,966.259Z" transform="translate(-1144.55 -952.324)" fill="#fdfdfd"/>
        <path id="Path_63651" data-name="Path 63651" d="M1174.307,981.339c-2.453-1.148-4.519-1.934-4.665-1.654s1.706,1.526,4.181,2.684,4.611,1.795,4.734,1.508S1176.758,982.491,1174.307,981.339Z" transform="translate(-1147.663 -954.759)" fill="#fdfdfd"/>
        <path id="Path_63652" data-name="Path 63652" d="M1186.029,986.4c-.9-.356-1.729-.409-1.847-.118s.52.818,1.428,1.176,1.735.412,1.847.118S1186.929,986.758,1186.029,986.4Z" transform="translate(-1149.571 -955.609)" fill="#fdfdfd"/>
        <path id="Path_63653" data-name="Path 63653" d="M1228.544,999.123c-8.957-1.911-16.977-4.028-22.754-5.658-1.45-.392-2.746-.795-3.9-1.117s-2.133-.618-2.939-.854a11.612,11.612,0,0,0-2.546-.617,11.615,11.615,0,0,0,2.406,1.036c.787.3,1.753.659,2.887,1.04s2.417.839,3.855,1.281c5.735,1.833,13.757,4.082,22.747,6,8.986,1.934,17.219,3.2,23.2,3.881l2.134.241,1.907.18c1.191.11,2.217.2,3.059.244a11.576,11.576,0,0,0,2.62.043,11.569,11.569,0,0,0-2.575-.483l-3.03-.435-1.891-.266-2.118-.321C1245.675,1002.436,1237.5,1001.049,1228.544,999.123Z" transform="translate(-1151.178 -956.234)" fill="#fdfdfd"/>
        <path id="Path_63654" data-name="Path 63654" d="M1207.271,995.8c-3.223-.87-6.356-1.769-9.367-2.685-3.006-.933-5.9-1.867-8.623-2.827-5.46-1.907-10.286-3.872-14.268-5.674s-7.109-3.469-9.239-4.67c-1.077-.585-1.885-1.083-2.45-1.4a3.273,3.273,0,0,0-.891-.435c-.022.032.243.247.767.627s1.3.938,2.346,1.584a87.976,87.976,0,0,0,9.126,5.018,152.208,152.208,0,0,0,14.258,5.934c2.732.992,5.628,1.951,8.644,2.9,3.021.935,6.165,1.845,9.4,2.719a282.627,282.627,0,0,0,33.623,6.812c4.351.6,7.886.969,10.333,1.17,1.223.106,2.176.159,2.822.187a3.252,3.252,0,0,0,.99-.017,26.817,26.817,0,0,0-3.764-.61c-2.428-.335-5.94-.821-10.262-1.525C1232.079,1001.509,1220.175,999.259,1207.271,995.8Z" transform="translate(-1146.717 -954.56)" fill="#fdfdfd"/>
        <path id="Path_63655" data-name="Path 63655" d="M1216.551,961.185c-4.021-1.241-7.978-2.342-11.823-3.323l-2.867-.691-1.414-.337-1.405-.307-2.769-.6-2.718-.53a138.87,138.87,0,0,0-19.224-2.385,77.5,77.5,0,0,0-13.057.357c-.765.1-1.449.158-2.033.272l-1.477.281a5.086,5.086,0,0,0-1.2.3,5.108,5.108,0,0,0,1.239-.073l1.485-.172c.585-.077,1.268-.1,2.031-.167a89.525,89.525,0,0,1,12.97.005,149.409,149.409,0,0,1,19.07,2.611l2.7.547,2.749.613,1.4.313,1.4.342,2.849.7c3.821.99,7.758,2.093,11.76,3.328a246.75,246.75,0,0,1,39.7,16.085c4.874,2.525,8.691,4.8,11.284,6.447l1.722,1.1,1.247.827a5.148,5.148,0,0,0,1.07.627,5.047,5.047,0,0,0-.937-.813l-1.187-.919c-.476-.355-1.041-.742-1.671-1.187a119.138,119.138,0,0,0-11.151-6.787A225,225,0,0,0,1216.551,961.185Z" transform="translate(-1145.946 -951.25)" fill="#fdfdfd"/>
        <path id="Path_63656" data-name="Path 63656" d="M1270.128,1006.579c-.653.907-1.259,1.707-1.707,2.28s-.734.936-.643,1.073.572-.023,1.2-.5a10.179,10.179,0,0,0,2.068-2.191,12.218,12.218,0,0,0,1.465-2.607c.281-.721.335-1.22.192-1.279s-.451.3-.9.89S1270.783,1005.674,1270.128,1006.579Z" transform="translate(-1160.547 -957.874)" fill="#fdfdfd"/>
        <path id="Path_63657" data-name="Path 63657" d="M1275.054,986.469c.122.634.2,1.248.252,1.811q.017.212.034.413c.011.136.023.292.041.423.034.269.077.511.116.73.177.868.266,1.379.417,1.408s.36-.559.386-1.464c.016-.448.033-.972.053-1.552a10.213,10.213,0,0,0-.182-1.982,8.276,8.276,0,0,0-1.394-3.342c-.562-.752-1.065-1.068-1.174-.971-.127.109.141.6.48,1.378A14.8,14.8,0,0,1,1275.054,986.469Z" transform="translate(-1161.309 -955.061)" fill="#fdfdfd"/>
        <path id="Path_63658" data-name="Path 63658" d="M1191.375,955.367a19.42,19.42,0,0,0-1.778-1.654,15.248,15.248,0,0,0-1.617-1.145c-.966-.586-1.626-.825-1.676-.737-.117.2,2.224,1.631,4.49,4.081,2.285,2.427,3.712,4.777,3.922,4.653.091-.051-.156-.705-.714-1.681A19.278,19.278,0,0,0,1191.375,955.367Z" transform="translate(-1149.851 -951.107)" fill="#fdfdfd"/>
        <path id="Path_63659" data-name="Path 63659" d="M1201.88,957.157a15.707,15.707,0,0,0-1.829-1.892,13.427,13.427,0,0,0-1.737-1.263c-1.048-.63-1.762-.875-1.809-.787-.135.225,2.521,1.625,4.759,4.446,1.136,1.387,2.027,2.774,2.714,3.751s1.135,1.578,1.231,1.522-.19-.747-.75-1.814A24.234,24.234,0,0,0,1201.88,957.157Z" transform="translate(-1151.19 -951.289)" fill="#fdfdfd"/>
        <path id="Path_63660" data-name="Path 63660" d="M1213.374,961.027c-2.163-2.6-4.258-4.378-4.405-4.224s1.661,2.174,3.794,4.734,3.8,4.7,3.985,4.574S1215.545,963.619,1213.374,961.027Z" transform="translate(-1152.826 -951.761)" fill="#fdfdfd"/>
        <path id="Path_63661" data-name="Path 63661" d="M1222.8,963.233c-2.761-2.975-5.589-4.7-5.7-4.532-.138.191,2.422,2.17,5.116,5.075,2.711,2.889,4.514,5.578,4.714,5.451C1227.108,969.131,1225.573,966.194,1222.8,963.233Z" transform="translate(-1153.894 -952.01)" fill="#fdfdfd"/>
        <path id="Path_63662" data-name="Path 63662" d="M1235.349,967.975a16.82,16.82,0,0,0-2.744-3.1c-.806-.693-1.38-1.023-1.445-.944-.149.182,1.765,1.9,3.536,4.5.893,1.292,1.625,2.521,2.173,3.408s.912,1.428,1.013,1.378-.091-.675-.514-1.641A22.3,22.3,0,0,0,1235.349,967.975Z" transform="translate(-1155.74 -952.696)" fill="#fdfdfd"/>
        <path id="Path_63663" data-name="Path 63663" d="M1250.812,973.439a15.024,15.024,0,0,0-1.221-1.875,9.337,9.337,0,0,0-1.265-1.334c-.8-.682-1.418-.926-1.467-.844-.068.1.417.5,1.073,1.246A14.658,14.658,0,0,1,1249,972c.368.542.746,1.156,1.114,1.823.727,1.339,1.306,2.612,1.766,3.521s.791,1.455.893,1.412-.049-.66-.373-1.629A23.938,23.938,0,0,0,1250.812,973.439Z" transform="translate(-1157.801 -953.413)" fill="#fdfdfd"/>
        <path id="Path_63664" data-name="Path 63664" d="M1259.935,977.306a18.459,18.459,0,0,0-3.733-3.74c-1.113-.795-1.926-1.07-1.966-.984-.057.11.637.552,1.615,1.425a27.646,27.646,0,0,1,3.454,3.787c1.229,1.593,2.236,3.124,2.969,4.232s1.2,1.8,1.3,1.743a5.49,5.49,0,0,0-.811-2.028A29.857,29.857,0,0,0,1259.935,977.306Z" transform="translate(-1158.77 -953.832)" fill="#fdfdfd"/>
        <path id="Path_63665" data-name="Path 63665" d="M1271.356,982.269a25.1,25.1,0,0,0-1.791-2.309,17.1,17.1,0,0,0-1.7-1.677c-1.043-.884-1.81-1.259-1.863-1.177-.07.1.567.629,1.477,1.586.462.472.974,1.071,1.531,1.743s1.12,1.452,1.693,2.284c2.3,3.334,3.554,6.4,3.77,6.316a5.136,5.136,0,0,0-.594-2.115c-.248-.631-.6-1.359-1.009-2.155A28.747,28.747,0,0,0,1271.356,982.269Z" transform="translate(-1160.314 -954.427)" fill="#fdfdfd"/>
        <path id="Path_63666" data-name="Path 63666" d="M1181.383,954.292a12.9,12.9,0,0,0-2.323-2.305c-.673-.5-1.148-.725-1.212-.641-.139.186,1.4,1.5,2.909,3.438,1.526,1.929,2.454,3.726,2.668,3.632.1-.043-.014-.556-.346-1.326A13.132,13.132,0,0,0,1181.383,954.292Z" transform="translate(-1148.74 -951.044)" fill="#fdfdfd"/>
        <path id="Path_63667" data-name="Path 63667" d="M1218.66,962.1c-1.088-1.279-2.136-2.366-2.913-3.135s-1.294-1.214-1.379-1.142.286.649.958,1.515,1.652,2.015,2.725,3.277c2.162,2.505,3.682,4.716,3.877,4.6.09-.055-.173-.69-.736-1.639A26.58,26.58,0,0,0,1218.66,962.1Z" transform="translate(-1153.535 -951.896)" fill="#fdfdfd"/>
        <path id="Path_63668" data-name="Path 63668" d="M1229.64,965.562c-2.163-2.758-4.43-4.5-4.562-4.342-.155.173,1.826,2.14,3.937,4.834s3.577,5.069,3.781,4.958C1232.982,970.92,1231.815,968.311,1229.64,965.562Z" transform="translate(-1154.941 -952.341)" fill="#fdfdfd"/>
        <path id="Path_63669" data-name="Path 63669" d="M1240.206,969.244a20.209,20.209,0,0,0-2.367-3.182c-.7-.744-1.216-1.118-1.291-1.043s.284.584.853,1.4,1.338,1.949,2.127,3.243c1.587,2.581,2.662,4.809,2.876,4.721C1242.6,974.308,1241.834,971.892,1240.206,969.244Z" transform="translate(-1156.447 -952.84)" fill="#fdfdfd"/>
        <path id="Path_63670" data-name="Path 63670" d="M1254.652,975.346c-2.056-2.891-4.209-4.829-4.358-4.675s1.693,2.3,3.711,5.138c1.013,1.416,1.885,2.728,2.5,3.688s1.009,1.558,1.112,1.51-.115-.738-.621-1.786A27.453,27.453,0,0,0,1254.652,975.346Z" transform="translate(-1158.252 -953.582)" fill="#fdfdfd"/>
        <path id="Path_63671" data-name="Path 63671" d="M1267.173,980.855a24.541,24.541,0,0,0-2.495-3.386c-.726-.808-1.306-1.189-1.373-1.109s.339.586.933,1.46,1.4,2.089,2.259,3.457,1.6,2.628,2.123,3.546.818,1.5.928,1.465-.008-.71-.422-1.711A25.781,25.781,0,0,0,1267.173,980.855Z" transform="translate(-1159.96 -954.329)" fill="#fdfdfd"/>
        <path id="Path_63672" data-name="Path 63672" d="M1207.214,958.981c-2.042-2.615-4.021-4.45-4.174-4.3s1.531,2.21,3.547,4.793,3.612,4.716,3.8,4.593S1209.262,961.59,1207.214,958.981Z" transform="translate(-1152.047 -951.482)" fill="#fdfdfd"/>
        <path id="Path_63673" data-name="Path 63673" d="M1196.509,956.151c-2.608-2.678-5.243-4.22-5.35-4.045-.134.192,2.239,1.989,4.781,4.6s4.311,5,4.505,4.873C1200.622,961.477,1199.129,958.816,1196.509,956.151Z" transform="translate(-1150.488 -951.144)" fill="#fdfdfd"/>
        <path id="Path_63674" data-name="Path 63674" d="M1186.383,954.611a13.052,13.052,0,0,0-2.736-2.462c-.789-.518-1.335-.733-1.391-.645-.131.2,1.75,1.5,3.516,3.618a20.6,20.6,0,0,1,2.016,2.888c.456.784.718,1.3.829,1.257s.022-.618-.322-1.5A11.685,11.685,0,0,0,1186.383,954.611Z" transform="translate(-1149.319 -951.064)" fill="#fdfdfd"/>
        <path id="Path_63675" data-name="Path 63675" d="M1175.8,954.04a7.279,7.279,0,0,0-1.767-2.039c-.567-.42-.993-.544-1.044-.458-.063.1.24.387.662.871a14.8,14.8,0,0,1,1.471,2.041c.518.846.948,1.653,1.3,2.224s.623.906.721.857.009-.461-.212-1.1A12.817,12.817,0,0,0,1175.8,954.04Z" transform="translate(-1148.102 -951.068)" fill="#fdfdfd"/>
        <path id="Path_63676" data-name="Path 63676" d="M1178.951,954.46c-1.213-1.865-2.7-2.927-2.834-2.764-.155.17,1.024,1.436,2.168,3.2s1.852,3.34,2.071,3.265C1180.557,958.1,1180.174,956.318,1178.951,954.46Z" transform="translate(-1148.512 -951.09)" fill="#fdfdfd"/>
        <path id="Path_63677" data-name="Path 63677" d="M1245.536,972.663c1.327,2.256,2.187,4.216,2.4,4.138.2-.063-.346-2.207-1.717-4.54s-2.963-3.866-3.116-3.722C1242.933,968.691,1244.22,970.4,1245.536,972.663Z" transform="translate(-1157.307 -953.302)" fill="#fdfdfd"/>
        <path id="Path_63678" data-name="Path 63678" d="M1154.118,962.633l-6.08-2.125-1.84-.638c-.436-.144-.67-.236-.7-.185s.168.23.573.466a17.619,17.619,0,0,0,1.763.882c1.513.68,3.644,1.507,6.022,2.351,4.756,1.684,8.7,2.781,8.768,2.571S1158.863,964.312,1154.118,962.633Z" transform="translate(-1144.493 -952.139)" fill="#fdfdfd"/>
        <path id="Path_63679" data-name="Path 63679" d="M1152.628,965c-3.972-2.559-6.8-5.171-6.963-5-.072.074.543.83,1.687,1.907a35.345,35.345,0,0,0,4.841,3.762c4.024,2.625,7.679,4,7.753,3.821C1160.049,969.267,1156.582,967.58,1152.628,965Z" transform="translate(-1144.515 -952.181)" fill="#fdfdfd"/>
        <path id="Path_63680" data-name="Path 63680" d="M1153.922,959.833c-4.63-.394-8.393-.36-8.4-.152-.012.231,3.732.554,8.335.945s8.313.86,8.354.644S1158.557,960.217,1153.922,959.833Z" transform="translate(-1144.496 -952.12)" fill="#fdfdfd"/>
        <path id="Path_63681" data-name="Path 63681" d="M1158.748,962.94a56.481,56.481,0,0,1-2.312,6.079c-.673,1.528-1.167,2.437-1.039,2.532s.876-.686,1.752-2.161a29.014,29.014,0,0,0,2.685-6.114,18.334,18.334,0,0,0,.959-6.654,6.635,6.635,0,0,0-.446-2.025c-.188-.455-.374-.668-.438-.641-.162.068.161,1.049.08,2.685A25.437,25.437,0,0,1,1158.748,962.94Z" transform="translate(-1145.791 -951.388)" fill="#fdfdfd"/>
        <path id="Path_63682" data-name="Path 63682" d="M1155.948,961.407c-.837,3.623-2.408,6.274-2.124,6.456.123.082.686-.484,1.36-1.572a14.871,14.871,0,0,0,1.019-2,16.94,16.94,0,0,0,1.268-5.343,14.813,14.813,0,0,0-.011-2.246c-.112-1.275-.361-2.034-.506-2.016C1156.616,954.721,1156.828,957.794,1155.948,961.407Z" transform="translate(-1145.582 -951.484)" fill="#fdfdfd"/>
        <path id="Path_63683" data-name="Path 63683" d="M1153.239,960.858c-.353,1.494-.8,2.835-1.091,3.829s-.425,1.638-.279,1.7.534-.467,1.024-1.4a16.894,16.894,0,0,0,1.453-3.872,10.976,10.976,0,0,0,.221-4.183c-.176-1.072-.5-1.673-.645-1.636-.161.039-.122.684-.158,1.689A19.778,19.778,0,0,1,1153.239,960.858Z" transform="translate(-1145.323 -951.565)" fill="#fdfdfd"/>
        <path id="Path_63684" data-name="Path 63684" d="M1150.8,959.711c-.5,2.342-1.095,4.221-.8,4.355.275.136,1.384-1.631,1.914-4.115a13.828,13.828,0,0,0,.266-1.756,7.871,7.871,0,0,0,.01-1.478,2.7,2.7,0,0,0-.285-1c-.125-.22-.247-.31-.317-.282-.15.065-.086.538-.2,1.279S1151.041,958.545,1150.8,959.711Z" transform="translate(-1145.074 -951.582)" fill="#fdfdfd"/>
        <path id="Path_63685" data-name="Path 63685" d="M1282.9,992.389c-1.677-.6-3.216-1-4.335-1.282s-1.831-.4-1.864-.29.618.413,1.7.827,2.6.912,4.233,1.494a23.8,23.8,0,0,1,4.027,1.808c.979.562,1.535,1.009,1.619.92.069-.068-.361-.674-1.307-1.388A15.135,15.135,0,0,0,1282.9,992.389Z" transform="translate(-1161.72 -956.223)" fill="#fdfdfd"/>
        <path id="Path_63686" data-name="Path 63686" d="M1282.531,990.382A27.687,27.687,0,0,0,1278.51,989c-1.051-.271-1.719-.378-1.751-.274s.573.4,1.573.808,2.391.926,3.88,1.578A31.506,31.506,0,0,1,1285.9,993c.906.527,1.241,1.08,1.343,1.037.046-.02.033-.206-.121-.492a3.5,3.5,0,0,0-.893-1A16.672,16.672,0,0,0,1282.531,990.382Z" transform="translate(-1161.728 -955.949)" fill="#fdfdfd"/>
        <path id="Path_63687" data-name="Path 63687" d="M1281.85,988.4a17.681,17.681,0,0,0-3.619-1.4c-.954-.256-1.56-.347-1.6-.245s.512.387,1.409.776,2.142.89,3.43,1.575a14.987,14.987,0,0,1,3.047,2.113c.706.641,1.09,1.111,1.189,1.047s-.137-.648-.781-1.434A10.21,10.21,0,0,0,1281.85,988.4Z" transform="translate(-1161.711 -955.689)" fill="#fdfdfd"/>
        <path id="Path_63688" data-name="Path 63688" d="M1277.538,1007.231c-2.939-.4-5.249-1.16-5.332-.942-.087.187,2.172,1.308,5.221,1.73,3.047.439,5.527-.014,5.5-.217C1282.9,1007.57,1280.474,1007.656,1277.538,1007.231Z" transform="translate(-1161.13 -958.255)" fill="#fdfdfd"/>
        <path id="Path_63689" data-name="Path 63689" d="M1274.889,1008.343c-2.055-.288-3.73-.533-3.785-.316s1.571.809,3.673,1.1,3.83.176,3.835-.038S1276.941,1008.637,1274.889,1008.343Z" transform="translate(-1160.985 -958.477)" fill="#fdfdfd"/>
      </g>
    </g>
    <g transform="matrix(1, 0, 0, 1, 5209, -2227)" filter="url(#All_Time_Trades)">
      <text id="All_Time_Trades-2" data-name="All Time Trades" transform="matrix(0.97, 0.26, -0.26, 0.97, 37.29, 19.74)" fill="#fdfdfd" font-size="11" font-family="MyriadPro-Bold, Myriad Pro" font-weight="700"><tspan x="0" y="0">All Time Trades</tspan></text>
    </g>
  </g>
</svg>
