<svg xmlns="http://www.w3.org/2000/svg" xmlns:xlink="http://www.w3.org/1999/xlink" width="150" height="96" viewBox="0 0 150 96">
  <defs>
    <clipPath id="clip-path">
      <rect id="Rectangle_90592" data-name="Rectangle 90592" width="150" height="96" transform="translate(5023 -2253)" fill="none" stroke="#707070" stroke-width="1"/>
    </clipPath>
    <filter id="Approach" x="29.191" y="10.67" width="83.316" height="62.229" filterUnits="userSpaceOnUse">
      <feOffset input="SourceAlpha"/>
      <feGaussianBlur stdDeviation="3" result="blur"/>
      <feFlood/>
      <feComposite operator="in" in2="blur"/>
      <feComposite in="SourceGraphic"/>
    </filter>
  </defs>
  <g id="Mask_Group_36" data-name="Mask Group 36" transform="translate(-5023 2253)" clip-path="url(#clip-path)">
    <g id="Group_41413" data-name="Group 41413" transform="translate(4046 -3514.607)">
      <g id="Group_41352" data-name="Group 41352" transform="translate(996 1265.607)" opacity="0.38">
        <g id="Group_41344" data-name="Group 41344">
          <g id="Group_41317" data-name="Group 41317">
            <g id="Group_41316" data-name="Group 41316">
              <path id="Path_63690" data-name="Path 63690" d="M1428.888,932.116c-2.055.251-4.09.508-6.1.879-3.5.646-6.912,1.5-10.249,2.469l-.2-.384q-.735-1.446-1.552-3.049l-1.951.56c-.531.149-1.068.319-1.618.483-1.1.335-2.234.7-3.4,1.092l-.384.131a15.045,15.045,0,0,0-.723-3,18.112,18.112,0,0,0-1.866-3.837,18.5,18.5,0,0,0-3.715-4.25,20.224,20.224,0,0,0-2.693-1.933,23.43,23.43,0,0,0-3.253-1.6,25.884,25.884,0,0,0-7.929-1.707,31.245,31.245,0,0,0-9.145.835,36.33,36.33,0,0,0-9.34,3.7,35.451,35.451,0,0,0-13.678,13.673,28.258,28.258,0,0,0-2.908,7.839,22.9,22.9,0,0,0-.363,7.1,19.228,19.228,0,0,0,1.426,5.544,18.043,18.043,0,0,0,2.1,3.706,14.939,14.939,0,0,0,1.763,2.011c.21.2.379.34.5.435-.1.087-.2.175-.3.261-1.081.934-2.08,1.836-3,2.688-.457.43-.9.836-1.32,1.242l-1.423,1.369.9,1.614.686,1.2q.209.366.4.7a87.143,87.143,0,0,0-12.059,14.014c-1.849,2.821-5.383,8.552-4.057,12.637a3.294,3.294,0,0,0,1.084,1.628,3.555,3.555,0,0,0,2.755.532,2.344,2.344,0,0,0,.287.1,7.94,7.94,0,0,0,3.422-.14l.256-.049q.428-.086.855-.187a67.071,67.071,0,0,0,9.8-3.41l1.027-.414c-.016.029-.035.056-.051.086a2.821,2.821,0,0,0-.356,1.141,1.339,1.339,0,0,0,.15.673,1.284,1.284,0,0,0,.477.465,2.545,2.545,0,0,0,1.059.262,5.972,5.972,0,0,0,.969-.029,14.04,14.04,0,0,0,1.767-.308,42.755,42.755,0,0,0,5.564-1.82c1.493-.588,2.633-1.094,3.4-1.452.322-.15.572-.274.76-.373l.7.726,3.182,3.287c1.022,1.038,1.993,2.026,2.9,2.951l1.323,1.328.625.623.331.33a1.115,1.115,0,0,0,.649.26,2.783,2.783,0,0,0,1.03-.145,5.613,5.613,0,0,0,.833-.343,8.05,8.05,0,0,0,1.349-.866,5.25,5.25,0,0,0,1.651-1.977,1.384,1.384,0,0,0,.1-.561.563.563,0,0,0-.071-.252l-.092-.174c-.114-.208-.213-.383-.3-.521-.17-.278-.281-.414-.326-.392s-.025.2.059.518c.041.159.1.354.17.582l.052.167a.276.276,0,0,1,.013.133,1,1,0,0,1-.117.316,5.127,5.127,0,0,1-1.586,1.544,7.648,7.648,0,0,1-1.24.679,4.676,4.676,0,0,1-.7.239,1.826,1.826,0,0,1-.642.064.166.166,0,0,1-.115-.057l-.255-.285-.585-.648-1.245-1.368-2.764-3-3.078-3.29-1.637-1.733-.819-.862-.05-.053c-.012-.012,0,0,0-.008l.047-.093c.051-.08.089-.158.148-.241a11.142,11.142,0,0,1,1.628-1.875,15.724,15.724,0,0,1,1.932-1.556,13.079,13.079,0,0,1,4.145-1.991l.251-.054.176-.03c.014,0,.042-.016.048,0l.025.045.006.011.026.056.055.118.215.468.819,1.823,1.475,3.28c1.816,4.007,3.039,6.44,3.224,6.352s-.709-2.673-2.285-6.794c-.192-.49-.394-1.005-.6-1.538a51.986,51.986,0,0,0,5.7-2.606,54.309,54.309,0,0,0,5.453-3.108c.292.386.581.771.866,1.146L1393.3,991c2.411,3.123,4.383,5.634,5.769,7.352a15.549,15.549,0,0,0,2.27,2.578,15.291,15.291,0,0,0-1.811-2.924c-1.246-1.824-3.092-4.432-5.4-7.635l-3.778-5.23-2.1-2.912-1.092-1.525q-.27-.387-.545-.778l-.132-.2-.064-.093-.009-.016a.03.03,0,0,1,0-.037c0-.008,0,0,.01-.017a1.01,1.01,0,0,1,.047-.1l.11-.2c.086-.136.16-.275.256-.411a9.765,9.765,0,0,1,.6-.809,13.871,13.871,0,0,1,1.431-1.518,19.892,19.892,0,0,1,3.518-2.576,20.449,20.449,0,0,1,4.094-1.859,16.43,16.43,0,0,1,2.193-.566,9.139,9.139,0,0,1,2.167-.178c.078.009.165.013.238.025l.2.04.019.009.016.045q.183.518.365,1.033.373,1.056.743,2.1.742,2.083,1.46,4.1l2.778,7.744c1.78,4.932,3.4,9.367,4.788,13.087l.063.169a.122.122,0,0,1,.012.062.851.851,0,0,1-.012.251,2.04,2.04,0,0,1-.2.565,4.913,4.913,0,0,1-.791,1.069,9.26,9.26,0,0,1-2.036,1.583,6.586,6.586,0,0,1-3.84,1.094,1.341,1.341,0,0,1-.622-.232,1.537,1.537,0,0,1-.2-.231l-.211-.256c-.271-.327-.5-.6-.7-.822-.384-.437-.6-.653-.645-.622s.1.305.407.8c.154.248.348.551.582.906l.183.276a1.709,1.709,0,0,0,.239.318,1.751,1.751,0,0,0,.815.4,4.756,4.756,0,0,0,2.053-.08,9.708,9.708,0,0,0,2.287-.874,9.955,9.955,0,0,0,2.317-1.666,5.9,5.9,0,0,0,1-1.277,3,3,0,0,0,.328-.847,1.785,1.785,0,0,0,.04-.5.834.834,0,0,0-.053-.3l-.061-.18c-1.267-3.786-2.8-8.289-4.526-13.281-.867-2.495-1.778-5.113-2.722-7.827q-.364-1.039-.735-2.094a49.992,49.992,0,0,0,5.175-2.946,52.621,52.621,0,0,0,4.773-3.317c.274.4.542.793.8,1.165,2.5,3.594,4.127,5.762,4.3,5.651s-1.15-2.493-3.432-6.235l-1.873-3.053-1.042-1.7-.265-.439-.066-.111-.031-.053-.006-.012-.023-.047c-.013-.015.015-.032.023-.044-.016.02.074-.083.119-.138l.179-.19a13.251,13.251,0,0,1,3.847-2.553,15.169,15.169,0,0,1,2.305-.852,10.528,10.528,0,0,1,2.4-.415c.1-.007.183,0,.276,0a.578.578,0,0,1,.106.016l.016.073.261,1.179q.268,1.2.528,2.362c.354,1.547.7,3.038,1.02,4.46s.655,2.768.953,4.03q.231.946.444,1.825l.212.859c.032.127.064.253.095.376a.171.171,0,0,1-.016.13,1.921,1.921,0,0,1-.4.528,4.845,4.845,0,0,1-.568.479,7.658,7.658,0,0,1-1.219.719,4.9,4.9,0,0,1-2.109.556.917.917,0,0,1-.32-.067.254.254,0,0,1-.1-.083l-.107-.135c-.147-.185-.274-.34-.382-.462-.215-.244-.348-.359-.39-.331s.008.2.143.5q.1.223.264.54l.091.173a.537.537,0,0,0,.168.2,1.271,1.271,0,0,0,.512.211,4.95,4.95,0,0,0,2.5-.38,7.948,7.948,0,0,0,1.429-.714,5.771,5.771,0,0,0,.726-.543,2.978,2.978,0,0,0,.672-.823,1.216,1.216,0,0,0,.137-.707l-.09-.466q-.083-.432-.17-.882l-.369-1.87c-.263-1.292-.544-2.671-.839-4.123l-.961-4.55-.195-.9a9.134,9.134,0,0,0,1.05-.643c.706-.473,1.735-1.191,3.026-2.167a52.415,52.415,0,0,0,4.532-3.8c.418-.4.842-.834,1.256-1.307a8.277,8.277,0,0,0,1.157-1.627,2.367,2.367,0,0,0,.3-1.153,1.244,1.244,0,0,0-.25-.669,1.441,1.441,0,0,0-.542-.4,2.608,2.608,0,0,0-.779-.188c.159-.113.342-.247.558-.407.765-.542,1.8-1.433,3.153-2.565a61.054,61.054,0,0,0,4.82-4.307c.437-.451.892-.929,1.329-1.467,2.041-2.508,1.738-4.494.974-6.149C1443.729,934.352,1439.932,930.77,1428.888,932.116Zm8.588,1.46h0Zm0,0Zm-85.659,26.463a19.839,19.839,0,0,1-1.818-3.713,19.522,19.522,0,0,1-1.167-5.379,22.718,22.718,0,0,1,.515-6.776,27.745,27.745,0,0,1,2.9-7.445,34.639,34.639,0,0,1,13.166-13.012,35.524,35.524,0,0,1,8.934-3.569,30.555,30.555,0,0,1,8.738-.877,25.411,25.411,0,0,1,7.6,1.5,23.175,23.175,0,0,1,3.141,1.454,19.949,19.949,0,0,1,2.627,1.771,18.635,18.635,0,0,1,3.721,3.936,19.743,19.743,0,0,1,2.023,3.6,30.167,30.167,0,0,1,1.029,2.842q-3.237,1.106-6.763,2.5a153.749,153.749,0,0,0-16.2,7.629,156.453,156.453,0,0,0-19.572,12.595c-2.574,1.948-4.9,3.838-6.954,5.609C1353.449,962.321,1352.717,961.458,1351.815,960.039Zm-1.911,11.3-.077-.171-.138-.285c-.34-.7-.731-1.5-1.167-2.4l2.37-2.08c.942-.814,1.96-1.68,3.057-2.577,2.188-1.8,4.678-3.75,7.438-5.77a173.12,173.12,0,0,1,19.482-12.335,169.628,169.628,0,0,1,16.008-7.648c2.526-1.045,4.957-1.975,7.258-2.8,1.149-.415,2.269-.8,3.35-1.153l2.736-.881c0-.026.344.613.568,1.019l.714,1.293.1.182c-.188.056-.376.11-.564.167a149.014,149.014,0,0,0-21.455,8.459,161.551,161.551,0,0,0-33.282,21.459q-3.419,2.871-6.335,5.668Zm84.379-19.073a1.494,1.494,0,0,1-.178.682,7.453,7.453,0,0,1-.98,1.45c-.376.455-.771.881-1.163,1.286-1.583,1.608-3.09,2.881-4.316,3.918-2.139,1.783-3.481,2.843-3.764,3.151-.1-.475-.2-.945-.309-1.428l-.275-1.258-.052-.234a.436.436,0,0,0-.155-.223,1.189,1.189,0,0,0-.237-.171.765.765,0,0,0-.281-.108,1.25,1.25,0,0,0-.308-.063c-.1-.01-.148-.015-.221-.018-.127,0-.26-.01-.38,0a11.673,11.673,0,0,0-2.769.478,16.2,16.2,0,0,0-2.53.958,14.266,14.266,0,0,0-4.26,2.944l-.217.242c-.076.1-.122.136-.247.313a1.794,1.794,0,0,0-.268.454l-.076.233.068.221.207.415.052.1.036.058.072.112c.095.148.19.293.284.439l1.11,1.666q.551.8,1.063,1.551c-.919.47-2.8,1.611-4.959,2.973-2.239,1.415-4.139,2.669-4.912,3.279l-.628-1.791q-.37-1.05-.745-2.114l-.386-1.1a.636.636,0,0,0-.1-.2,2.2,2.2,0,0,0-.21-.176.7.7,0,0,0-.239-.15l-.138-.056-.106-.039c-.126-.031-.246-.054-.37-.078s-.229-.025-.345-.036a10.392,10.392,0,0,0-2.544.2,17.8,17.8,0,0,0-2.389.621,21.694,21.694,0,0,0-4.393,2.017,21.151,21.151,0,0,0-3.769,2.8,15.133,15.133,0,0,0-1.563,1.694,11.059,11.059,0,0,0-.67.93c-.108.157-.2.329-.3.494l-.137.261c-.023.042-.045.092-.066.138s-.071.149-.1.221a3,3,0,0,0-.1.463.116.116,0,0,0,.018.108l.049.1.1.2a1.056,1.056,0,0,0,.107.193l.075.106.142.2.569.785,1.124,1.513,1.148,1.522c-.94.364-3.1,1.416-5.588,2.694-2.539,1.3-4.686,2.455-5.5,3l-.624-1.594-.757-1.865-.2-.485-.052-.123-.028-.064-.056-.1-.226-.4-.143-.179-.23-.059a1.658,1.658,0,0,0-.514-.01c-.211.013-.268.034-.387.047l-.313.06a14.019,14.019,0,0,0-4.686,2.14,16.677,16.677,0,0,0-2.14,1.7,12.358,12.358,0,0,0-1.878,2.163c-.071.1-.136.222-.2.333-.036.065-.056.107-.1.2a1.432,1.432,0,0,0-.115.3.825.825,0,0,0-.063.305,1.274,1.274,0,0,0,.012.3.45.45,0,0,0,.1.255l.163.17.875.917.852.889c-.705.227-2.128.745-4.188,1.445a48.523,48.523,0,0,1-5.519,1.563,13.411,13.411,0,0,1-1.66.238,5.178,5.178,0,0,1-.83,0,1.734,1.734,0,0,1-.69-.178.377.377,0,0,1-.2-.39,1.939,1.939,0,0,1,.264-.721,8.976,8.976,0,0,1,1.192-1.567,35.363,35.363,0,0,1,3.242-3.036c1.192-1,2.47-2.01,3.816-3.023,2.693-2.027,5.655-4.091,8.817-6.192,6.328-4.2,13.462-8.548,21.078-12.869q.8-.455,1.6-.9c7.051-3.955,13.877-7.521,20.225-10.54,3.414-1.622,6.69-3.087,9.793-4.327,1.552-.619,3.06-1.182,4.522-1.66a25.755,25.755,0,0,1,4.21-1.068,4.016,4.016,0,0,1,1.764.044C1434.192,952.023,1434.26,952.108,1434.283,952.268Zm9.61-13a.882.882,0,0,1,.011.341,2.008,2.008,0,0,1-.1.411,4.317,4.317,0,0,1-.413.831,8.936,8.936,0,0,1-.547.79c-.39.508-.815.98-1.235,1.439-1.652,1.838-3.316,3.193-4.6,4.415-1.787,1.686-3.046,2.8-3.628,3.352-.034,0-.068,0-.1-.005a7.694,7.694,0,0,0-1.105.055,26.175,26.175,0,0,0-4.425,1.024c-1.5.462-3.041,1.009-4.62,1.612-3.157,1.208-6.472,2.645-9.921,4.245-6.9,3.2-14.328,7.067-21.978,11.4s-14.793,8.741-21.122,13.022c-3.163,2.143-6.122,4.256-8.816,6.345-1.348,1.044-2.627,2.084-3.824,3.129a35.351,35.351,0,0,0-3.293,3.209,12.809,12.809,0,0,0-.878,1.121l-1.531.619a66.766,66.766,0,0,1-9.734,3.388c-.28.066-.56.128-.837.184l-.251.048c-3.161.832-3.907-.358-3.935-.682-.125-1.087,1.38-2.545,1.951-3.161a45.509,45.509,0,0,1,4.074-3.787c3.1-2.595,6.836-5.366,11.039-8.293,8.415-5.846,18.7-12.3,29.954-18.808q1.988-1.149,3.952-2.263l2.844-1.564,6.213-3.422c2.084-1.183,4.2-2.231,6.264-3.313l6.106-3.169c2.014-1.01,4.017-1.948,5.964-2.9l2.894-1.4,1.422-.689c.475-.218.953-.42,1.424-.63l5.522-2.426c1.783-.808,3.542-1.511,5.248-2.162s3.367-1.232,4.974-1.732a29.1,29.1,0,0,1,4.635-1.087,4.289,4.289,0,0,1,1.959.093A.657.657,0,0,1,1443.893,939.271Zm.572-.9a1.658,1.658,0,0,0-.6-.4,5.128,5.128,0,0,0-2.419-.2,29.4,29.4,0,0,0-4.836,1.038c-1.646.483-3.335,1.047-5.071,1.681s-3.515,1.322-5.315,2.115L1420.648,945c-.476.207-.959.406-1.438.622l-1.433.681-2.916,1.386c-1.961.942-3.978,1.874-6,2.88l-3.982,2.052q-1.808.92-3.665,1.89c-1.445.743-2.9,1.495-4.349,2.3-4.363,2.339-8.877,4.85-13.478,7.508-11.284,6.527-21.571,13.07-29.958,19.057-4.189,3-7.908,5.853-10.986,8.551-1.536,1.353-2.863,2.709-4.064,3.98-2.492,2.636-1.869,3.823-1.811,4.2-.216.01-6.91-.663,1.432-13.9,3.548-5.626,10.177-12.415,18.943-19.628a163.947,163.947,0,0,1,33.153-21.053,149.651,149.651,0,0,1,21.264-8.305,109.289,109.289,0,0,1,11.586-2.852c1.973-.362,3.968-.671,5.971-.855a42.628,42.628,0,0,1,6.008-.188l.77.04.76.077c.251.03.508.045.754.087l.186.031.085.015-.078.018-.392.095-.782.191-.771.222-1.537.444c-4.07,1.252-7.983,2.769-11.782,4.36-7.04,2.964-13.7,6.173-19.994,9.41-4.652,2.343-9.483,4.907-14.409,7.662-7.737,4.319-14.977,8.683-21.432,12.868-3.236,2.078-6.258,4.14-9.073,6.087-2.8,1.977-5.385,3.841-7.693,5.621A115.128,115.128,0,0,0,1339,989.479c-.592.56-1.077,1.1-1.514,1.552s-.783.854-1.055,1.186a4.7,4.7,0,0,0-.782,1.048c.09.074,1.3-1.25,3.716-3.4s6.06-5.113,10.739-8.531c2.331-1.721,4.94-3.531,7.75-5.458,2.83-1.9,5.861-3.914,9.1-5.955,6.464-4.11,13.7-8.424,21.4-12.728,10.948-6.123,21.4-11.374,30.38-15.365,1.274-.558,2.565-1.084,3.851-1.655,11.944-5.292,19.784-6.734,21.306-3.767A6.422,6.422,0,0,1,1444.465,938.372Z" transform="translate(-1333.151 -917.918)" fill="#fff"/>
            </g>
          </g>
          <g id="Group_41319" data-name="Group 41319" transform="translate(40.957 12.641)">
            <g id="Group_41318" data-name="Group 41318">
              <path id="Path_63691" data-name="Path 63691" d="M1406.627,932.262c-.053.287-1.707.252-4.251,1.05-1.275.389-2.769.971-4.443,1.678s-3.551,1.479-5.506,2.262l-10.019,3.987c-2.57,1-4.186,1.6-4.3,1.359s1.327-1.239,3.8-2.566a100.567,100.567,0,0,1,9.914-4.53c1.97-.79,3.844-1.505,5.573-2.134a29.354,29.354,0,0,1,4.76-1.361,11.3,11.3,0,0,1,3.324-.152C1406.256,931.958,1406.649,932.142,1406.627,932.262Z" transform="translate(-1378.106 -931.793)" fill="#fff"/>
            </g>
          </g>
          <g id="Group_41321" data-name="Group 41321" transform="translate(43.171 8.724)">
            <g id="Group_41320" data-name="Group 41320">
              <path id="Path_63692" data-name="Path 63692" d="M1403.161,927.693c.04.547-5.2,1.665-11.384,4.01-6.191,2.3-10.956,4.947-11.232,4.489-.125-.21.921-1.154,2.818-2.374a38.637,38.637,0,0,1,3.438-1.949,47.878,47.878,0,0,1,4.42-1.933,47.08,47.08,0,0,1,4.573-1.446,36.749,36.749,0,0,1,3.807-.774C1401.785,927.4,1403.141,927.445,1403.161,927.693Z" transform="translate(-1380.536 -927.494)" fill="#fff"/>
            </g>
          </g>
          <g id="Group_41323" data-name="Group 41323" transform="translate(43.472 6.082)">
            <g id="Group_41322" data-name="Group 41322">
              <path id="Path_63693" data-name="Path 63693" d="M1398.243,924.78c.078.524-3.835,1.807-8.57,3.552-4.741,1.726-8.571,3.282-8.8,2.811-.219-.443,3.367-2.8,8.256-4.584C1394.018,924.76,1398.175,924.281,1398.243,924.78Z" transform="translate(-1380.866 -924.594)" fill="#fff"/>
            </g>
          </g>
          <g id="Group_41325" data-name="Group 41325" transform="translate(41.296 3.844)">
            <g id="Group_41324" data-name="Group 41324">
              <path id="Path_63694" data-name="Path 63694" d="M1391.92,922.389c.062.527-2.958,1.523-6.592,2.876-3.64,1.334-6.593,2.544-6.836,2.083-.238-.434,2.469-2.451,6.291-3.855S1391.869,921.886,1391.92,922.389Z" transform="translate(-1378.478 -922.137)" fill="#fff"/>
            </g>
          </g>
          <g id="Group_41327" data-name="Group 41327" transform="translate(39.569 2.385)">
            <g id="Group_41326" data-name="Group 41326">
              <path id="Path_63695" data-name="Path 63695" d="M1384.055,920.795c.136.5-1.443,1.468-3.446,2.39s-3.752,1.471-4,1.023,1.187-1.765,3.306-2.733S1383.924,920.3,1384.055,920.795Z" transform="translate(-1376.582 -920.536)" fill="#fff"/>
            </g>
          </g>
          <g id="Group_41329" data-name="Group 41329" transform="translate(75.464 29.218)">
            <g id="Group_41328" data-name="Group 41328">
              <path id="Path_63696" data-name="Path 63696" d="M1440.854,950.5c-.041.282-1.476.4-3.745.847-.567.1-1.188.258-1.852.389-.663.174-1.374.319-2.115.532-1.488.385-3.114.884-4.812,1.446-6.8,2.247-12.1,4.874-12.342,4.4-.113-.216,1.079-1.168,3.194-2.379a49.216,49.216,0,0,1,8.669-3.818,41.844,41.844,0,0,1,5.017-1.352c.778-.173,1.531-.269,2.229-.38.705-.07,1.356-.158,1.957-.173C1439.457,949.891,1440.9,950.257,1440.854,950.5Z" transform="translate(-1415.981 -949.988)" fill="#fff"/>
            </g>
          </g>
          <g id="Group_41331" data-name="Group 41331" transform="translate(60.769 14.946)">
            <g id="Group_41330" data-name="Group 41330">
              <path id="Path_63697" data-name="Path 63697" d="M1445.639,935.021c-.055.14-.694.06-1.863.137a37.607,37.607,0,0,0-4.973.729,153.317,153.317,0,0,0-16.289,4.574c-6.312,2.085-11.961,4.223-16.018,5.849s-6.515,2.778-6.641,2.545c-.119-.212,2.17-1.808,6.164-3.762a130.516,130.516,0,0,1,16.017-6.428,93.328,93.328,0,0,1,16.651-4.1,21.9,21.9,0,0,1,5.176-.143C1445.085,934.573,1445.688,934.912,1445.639,935.021Z" transform="translate(-1399.852 -934.323)" fill="#fff"/>
            </g>
          </g>
          <g id="Group_41333" data-name="Group 41333" transform="translate(1.015 52.446)">
            <g id="Group_41332" data-name="Group 41332">
              <path id="Path_63698" data-name="Path 63698" d="M1361.495,975.522c.238.479-6.639,4.473-14.3,10.519-1.92,1.505-3.711,2.986-5.317,4.362s-3.038,2.627-4.143,3.737c-2.24,2.206-3.159,3.934-3.42,3.838-.115-.042-.04-.544.326-1.388a14.743,14.743,0,0,1,2.106-3.293,43.724,43.724,0,0,1,4-4.144c1.573-1.471,3.369-3.023,5.327-4.558a77.312,77.312,0,0,1,10.589-7.027C1359.514,976.023,1361.387,975.3,1361.495,975.522Z" transform="translate(-1334.265 -975.484)" fill="#fff"/>
            </g>
          </g>
          <g id="Group_41335" data-name="Group 41335" transform="translate(18.91 15.06)">
            <g id="Group_41334" data-name="Group 41334">
              <path id="Path_63699" data-name="Path 63699" d="M1361.293,934.488c-4.608-.779-8.2,10.148-7.225,14.057.317,1.262,1.061,2.525,2.35,2.71,1.615.232,3.173-1.292,4.181-2.771a7.833,7.833,0,0,0,1.255-2.573,10.861,10.861,0,0,0,.14-2.39C1362,942.347,1364.725,935.067,1361.293,934.488Z" transform="translate(-1353.906 -934.448)" fill="#fff"/>
            </g>
          </g>
          <g id="Group_41337" data-name="Group 41337" transform="translate(62.82 52.808)">
            <g id="Group_41336" data-name="Group 41336">
              <path id="Path_63700" data-name="Path 63700" d="M1402.1,976.845l13.288,27.918c1.346-.345,2.381-.039,2.553.368-.1-.385-.446-1.87-.525-2.081-2.925-8-5.586-15.24-8.239-23.351-.315-.98-.588-2.755-1.424-3.345C1406.5,975.462,1403.809,975.948,1402.1,976.845Z" transform="translate(-1402.103 -975.881)" fill="#fff"/>
            </g>
          </g>
          <g id="Group_41339" data-name="Group 41339" transform="translate(85.976 42.166)">
            <g id="Group_41338" data-name="Group 41338">
              <path id="Path_63701" data-name="Path 63701" d="M1427.519,964.533l5.455,15.394c.717-.115,1.238.1,1.307.322-.031-.208-.135-1.009-.164-1.124-1.105-4.366-2.112-8.319-3.07-12.73-.113-.533-.163-1.483-.566-1.837C1429.876,964.025,1428.452,964.147,1427.519,964.533Z" transform="translate(-1427.519 -964.2)" fill="#fff"/>
            </g>
          </g>
          <g id="Group_41341" data-name="Group 41341" transform="translate(72.709 81.211)">
            <g id="Group_41340" data-name="Group 41340">
              <path id="Path_63702" data-name="Path 63702" d="M1418.1,1007.341c-.042.184-1.257.1-2.658.61-1.407.487-2.347,1.341-2.478,1.218-.058-.052.1-.349.5-.725a5.237,5.237,0,0,1,1.807-1.086,4.876,4.876,0,0,1,2.042-.284C1417.834,1007.125,1418.124,1007.261,1418.1,1007.341Z" transform="translate(-1412.957 -1007.057)" fill="#fff"/>
            </g>
          </g>
          <g id="Group_41343" data-name="Group 41343" transform="translate(36.859 68.339)">
            <g id="Group_41342" data-name="Group 41342">
              <path id="Path_63703" data-name="Path 63703" d="M1378.8,994.015c-.2-.469-.471-.994-.99-1.076a1.8,1.8,0,0,0-.867.165L1374.5,994c-.354.13-.754.306-.876.656a.414.414,0,0,0,.472.515,64.4,64.4,0,0,1,8.756,12.675,1.824,1.824,0,0,1,2.039-.224C1383.068,1003.352,1380.622,998.282,1378.8,994.015Z" transform="translate(-1373.608 -992.928)" fill="#fff"/>
            </g>
          </g>
        </g>
      </g>
      <g transform="matrix(1, 0, 0, 1, 977, 1261.61)" filter="url(#Approach)">
        <text id="Approach-2" data-name="Approach" transform="matrix(0.88, -0.47, 0.47, 0.88, 43.36, 60.37)" fill="#fdfdfd" font-size="15" font-family="MyriadPro-Bold, Myriad Pro" font-weight="700"><tspan x="0" y="0">Approach</tspan></text>
      </g>
    </g>
  </g>
</svg>
