<svg xmlns="http://www.w3.org/2000/svg" xmlns:xlink="http://www.w3.org/1999/xlink" width="150" height="96" viewBox="0 0 150 96">
  <defs>
    <clipPath id="clip-path">
      <rect id="Rectangle_90595" data-name="Rectangle 90595" width="150" height="96" transform="translate(4611 -2041)" fill="none" stroke="#707070" stroke-width="1"/>
    </clipPath>
    <filter id="Path_63714" x="6.333" y="30.104" width="29.284" height="29.346" filterUnits="userSpaceOnUse">
      <feOffset input="SourceAlpha"/>
      <feGaussianBlur stdDeviation="3" result="blur"/>
      <feFlood/>
      <feComposite operator="in" in2="blur"/>
      <feComposite in="SourceGraphic"/>
    </filter>
    <filter id="Path_63715" x="17.799" y="36.548" width="25.775" height="26.142" filterUnits="userSpaceOnUse">
      <feOffset input="SourceAlpha"/>
      <feGaussianBlur stdDeviation="3" result="blur-2"/>
      <feFlood/>
      <feComposite operator="in" in2="blur-2"/>
      <feComposite in="SourceGraphic"/>
    </filter>
    <filter id="Path_63716" x="26.316" y="35.281" width="26.706" height="29.655" filterUnits="userSpaceOnUse">
      <feOffset input="SourceAlpha"/>
      <feGaussianBlur stdDeviation="3" result="blur-3"/>
      <feFlood/>
      <feComposite operator="in" in2="blur-3"/>
      <feComposite in="SourceGraphic"/>
    </filter>
    <filter id="Path_63717" x="39.107" y="37.54" width="21.938" height="28.659" filterUnits="userSpaceOnUse">
      <feOffset input="SourceAlpha"/>
      <feGaussianBlur stdDeviation="3" result="blur-4"/>
      <feFlood/>
      <feComposite operator="in" in2="blur-4"/>
      <feComposite in="SourceGraphic"/>
    </filter>
    <filter id="Path_63718" x="43.788" y="40.976" width="26.085" height="26.303" filterUnits="userSpaceOnUse">
      <feOffset input="SourceAlpha"/>
      <feGaussianBlur stdDeviation="3" result="blur-5"/>
      <feFlood/>
      <feComposite operator="in" in2="blur-5"/>
      <feComposite in="SourceGraphic"/>
    </filter>
    <filter id="Path_63719" x="53.129" y="39.915" width="23.286" height="27.875" filterUnits="userSpaceOnUse">
      <feOffset input="SourceAlpha"/>
      <feGaussianBlur stdDeviation="3" result="blur-6"/>
      <feFlood/>
      <feComposite operator="in" in2="blur-6"/>
      <feComposite in="SourceGraphic"/>
    </filter>
    <filter id="Path_63720" x="59.124" y="42.159" width="25.594" height="25.884" filterUnits="userSpaceOnUse">
      <feOffset input="SourceAlpha"/>
      <feGaussianBlur stdDeviation="3" result="blur-7"/>
      <feFlood/>
      <feComposite operator="in" in2="blur-7"/>
      <feComposite in="SourceGraphic"/>
    </filter>
    <filter id="Path_63721" x="67.75" y="42.148" width="26.146" height="28.955" filterUnits="userSpaceOnUse">
      <feOffset input="SourceAlpha"/>
      <feGaussianBlur stdDeviation="3" result="blur-8"/>
      <feFlood/>
      <feComposite operator="in" in2="blur-8"/>
      <feComposite in="SourceGraphic"/>
    </filter>
    <filter id="Path_63722" x="77.467" y="41.571" width="23.024" height="26.031" filterUnits="userSpaceOnUse">
      <feOffset input="SourceAlpha"/>
      <feGaussianBlur stdDeviation="3" result="blur-9"/>
      <feFlood/>
      <feComposite operator="in" in2="blur-9"/>
      <feComposite in="SourceGraphic"/>
    </filter>
    <filter id="Path_63723" x="83.375" y="41.104" width="25.61" height="26.022" filterUnits="userSpaceOnUse">
      <feOffset input="SourceAlpha"/>
      <feGaussianBlur stdDeviation="3" result="blur-10"/>
      <feFlood/>
      <feComposite operator="in" in2="blur-10"/>
      <feComposite in="SourceGraphic"/>
    </filter>
    <filter id="Path_63724" x="90.991" y="38.137" width="24.283" height="27.78" filterUnits="userSpaceOnUse">
      <feOffset input="SourceAlpha"/>
      <feGaussianBlur stdDeviation="3" result="blur-11"/>
      <feFlood/>
      <feComposite operator="in" in2="blur-11"/>
      <feComposite in="SourceGraphic"/>
    </filter>
    <filter id="Path_63725" x="97.06" y="36.29" width="22.225" height="28.919" filterUnits="userSpaceOnUse">
      <feOffset input="SourceAlpha"/>
      <feGaussianBlur stdDeviation="3" result="blur-12"/>
      <feFlood/>
      <feComposite operator="in" in2="blur-12"/>
      <feComposite in="SourceGraphic"/>
    </filter>
    <filter id="Path_63726" x="102.029" y="37.916" width="26.39" height="25.985" filterUnits="userSpaceOnUse">
      <feOffset input="SourceAlpha"/>
      <feGaussianBlur stdDeviation="3" result="blur-13"/>
      <feFlood/>
      <feComposite operator="in" in2="blur-13"/>
      <feComposite in="SourceGraphic"/>
    </filter>
    <filter id="Path_63727" x="110.82" y="35.448" width="27.422" height="26.812" filterUnits="userSpaceOnUse">
      <feOffset input="SourceAlpha"/>
      <feGaussianBlur stdDeviation="3" result="blur-14"/>
      <feFlood/>
      <feComposite operator="in" in2="blur-14"/>
      <feComposite in="SourceGraphic"/>
    </filter>
    <filter id="Path_63728" x="120.318" y="33.013" width="24.758" height="26.425" filterUnits="userSpaceOnUse">
      <feOffset input="SourceAlpha"/>
      <feGaussianBlur stdDeviation="3" result="blur-15"/>
      <feFlood/>
      <feComposite operator="in" in2="blur-15"/>
      <feComposite in="SourceGraphic"/>
    </filter>
  </defs>
  <g id="Mask_Group_39" data-name="Mask Group 39" transform="translate(-4611 2041)" clip-path="url(#clip-path)">
    <g id="Group_41416" data-name="Group 41416" transform="translate(3645.612 -2818.976)">
      <g id="Group_41353" data-name="Group 41353" transform="translate(972.388 786.976)" opacity="0.38">
        <path id="Path_63707" data-name="Path 63707" d="M988.29,818.118a16.745,16.745,0,0,0-1.845,1.363c-.285.243-.569.483-.851.723l-.748.793-.368.392c-.116.135-.211.286-.316.424-.2.286-.422.56-.605.848-.164.3-.325.594-.485.886a9.136,9.136,0,0,0-.371.911,8.055,8.055,0,0,0-.466,2.576c.918.4,1.808.757,2.594,1.066a10.154,10.154,0,0,1,1.127-4.089c.166-.335.384-.645.576-.972.1-.157.193-.328.309-.479l.354-.447c.245-.295.467-.613.735-.89l.824-.818a19.584,19.584,0,0,1,2.042-1.68,13.438,13.438,0,0,1-1.669-1.146A7.916,7.916,0,0,0,988.29,818.118Zm.851,14.479c-.035-.213-.067-.429-.093-.647-.791-.254-1.574-.52-2.354-.8l-.157-.057c-.146-.05-.291-.1-.434-.153.035.24.078.475.12.706C987.19,831.991,988.167,832.3,989.141,832.6Zm-2.253,1.627c.043.133.088.264.13.4q1.331.475,2.82.957c-.052-.162-.1-.327-.147-.492Q988.288,834.683,986.889,834.223Zm-.234-5.43c.238.088.478.169.716.254.2.069.394.142.59.211.332.113.668.223,1,.333a10.709,10.709,0,0,1,.39-2.283,11.756,11.756,0,0,1,1.855-3.766,7.663,7.663,0,0,1,.665-.835c.236-.264.452-.543.7-.791.51-.462.981-.965,1.508-1.374.049-.037.1-.076.146-.111-.451-.2-.9-.4-1.342-.614-.285-.14-.581-.286-.88-.437a19.424,19.424,0,0,0-2.393,1.92l-.766.756c-.249.256-.448.545-.674.81l-.33.406c-.107.137-.184.287-.28.431-.172.29-.373.567-.525.863a9.324,9.324,0,0,0-1.068,3.655c-.008.1-.009.2-.014.3Zm30.408,12.427c-.036-.294-.07-.59-.1-.9q-2.683-.307-5.351-.681c.031.29.058.574.093.853Q1014.311,840.887,1017.062,841.22Zm-5.219.416c.072.524.147,1.026.222,1.5.034.191.063.377.1.556q2.614.373,5.39.7c-.013-.076-.027-.148-.044-.225-.1-.549-.2-1.139-.289-1.764Q1014.465,842.048,1011.843,841.636Zm4.942-3.7c-.011-.2-.019-.4-.024-.607q-2.68-.311-5.34-.681c.005.215.013.43.021.643Q1014.109,837.653,1016.785,837.939Zm-.013-2.815a24.331,24.331,0,0,1,.258-2.623,20.4,20.4,0,0,1,1.951-6.056q-2.328-.313-4.649-.7a16.464,16.464,0,0,0-2.417,5.569,17.474,17.474,0,0,0-.459,3.126C1013.222,834.693,1015,834.916,1016.772,835.123Zm8.4,12.122c2.144.142,4.356.264,6.617.365q-.042-.386-.084-.82c-2.223-.116-4.407-.268-6.539-.45C1025.173,846.7,1025.176,847.007,1025.169,847.245Zm14.661-19.31q-3.174-.05-6.351-.2a52.3,52.3,0,0,0-.858,7.176c-.03.5-.05,1-.068,1.5q3.392.153,6.787.214c.01-.433.018-.865.026-1.307C1039.446,832.623,1039.609,830.1,1039.83,827.935Zm-.442,19.111-1.117-.017q-2.939-.06-5.8-.2c0,.283,0,.555-.009.806,2.271.093,4.594.157,6.955.193C1039.408,847.584,1039.4,847.325,1039.388,847.047Zm.664-21.048c.048-.384.1-.753.156-1.105a26.221,26.221,0,0,1,.676-3.294l-1.708-.039c-1.235-.034-2.483-.071-3.736-.116l0,0c-.151.355-.328.783-.537,1.278-.179.507-.41,1.074-.6,1.725-.133.416-.26.862-.381,1.332Q1036.984,825.945,1040.052,826Zm-7.139-.277q.267-.842.565-1.567a17.83,17.83,0,0,1,.795-1.722c.215-.39.425-.724.609-1.01q-2.45-.1-4.921-.254a22.156,22.156,0,0,0-1.654,2.348c-.31.536-.626,1.131-.927,1.785Q1030.137,825.557,1032.913,825.721Zm-24.992-9.747a1.209,1.209,0,0,1-.054-.341c0-.292.013-.58.021-.869q-.251.108-.571.232c-.469.183-1.043.4-1.714.64l-2.232.919a44.339,44.339,0,0,0-5.564,2.8l-.121.079q1.281.466,2.586.867c.622-.431,1.249-.8,1.835-1.168.868-.469,1.686-.891,2.441-1.245.774-.314,1.471-.6,2.088-.853.469-.174.9-.3,1.271-.414A1.235,1.235,0,0,1,1007.922,815.975Zm.037-5.225c-1.125.33-2.779.671-4.777,1.28-2.01.541-4.379,1.274-6.952,2.216-1.272.5-2.625.994-3.947,1.664-.337.155-.677.313-1.018.471-.036.017-.072.037-.108.058a14.281,14.281,0,0,0,1.685.97c1.078-.62,2.156-1.145,3.194-1.612l1.767-.761,1.709-.6c.552-.191,1.082-.384,1.6-.549.523-.143,1.02-.283,1.5-.416.959-.249,1.813-.52,2.586-.664.77-.16,1.435-.289,1.977-.386.366-.066.668-.117.923-.155.068-.549.16-1.09.266-1.629C1008.234,810.674,1008.1,810.71,1007.959,810.75Zm.491-.554c.124-.57.261-1.138.421-1.695-.318.106-.82.243-1.5.413-.614.153-1.37.331-2.249.534-.881.182-1.874.442-2.97.733s-2.305.556-3.576.944l-1.969.592c-.675.209-1.383.39-2.077.659-1.4.508-2.89.983-4.359,1.655-.292.127-.587.25-.885.376.014.034.026.07.042.1a3.975,3.975,0,0,0,.8,1.086c.193-.111.389-.218.587-.309.356-.161.7-.319,1.054-.48a42.258,42.258,0,0,1,4.075-1.634,63.132,63.132,0,0,1,7.129-2c2.042-.5,3.732-.717,4.891-.9Zm-1.162,2.692q-.788.255-1.913.587c-.75.209-1.576.534-2.507.834-.462.153-.949.318-1.454.486-.5.195-1.014.394-1.546.6s-1.086.426-1.654.645l-1.7.792c-.758.363-1.539.761-2.321,1.193.4.174.777.33,1.109.474s.694.283,1.043.424c.3-.186.59-.372.876-.552a36.206,36.206,0,0,1,5.834-2.633c.862-.29,1.637-.556,2.327-.762.7-.179,1.3-.33,1.794-.443.28-.064.519-.115.725-.155.028-.591.084-1.173.151-1.752C1007.835,812.706,1007.583,812.791,1007.288,812.887Zm-7.793,9.488A15.09,15.09,0,0,0,995.863,827a11.468,11.468,0,0,0-1.117,4.276q1.94.5,3.9.922c0-.072.009-.143.013-.218a13.732,13.732,0,0,1,.9-3.873,14.912,14.912,0,0,1,1.946-3.454c.4-.465.766-.948,1.178-1.368Q1001.08,822.863,999.495,822.375Zm-4.7,11.2v.015c.017.191.041.376.062.562q1.922.487,3.863.913c-.021-.194-.037-.394-.055-.595-.092-.019-.187-.043-.28-.062q-.454-.1-.9-.2c-.325-.071-.645-.146-.97-.223-.191-.043-.38-.088-.568-.133C995.556,833.768,995.172,833.672,994.792,833.579Zm7.681-8.2a14.278,14.278,0,0,0-1.765,3.18,13.03,13.03,0,0,0-.844,3.524c-.012.125-.014.245-.024.37q2.177.45,4.361.838a15.066,15.066,0,0,1,.594-3.421,15.558,15.558,0,0,1,2.863-5.4q-1.067-.23-2.124-.477c-.511-.118-1.02-.245-1.531-.37-.134.138-.27.278-.411.416C1003.195,824.45,1002.857,824.928,1002.474,825.381Zm1.77,10.788c-.017-.206-.031-.419-.045-.63q-1.827-.315-3.656-.677c-.089-.019-.181-.039-.273-.055-.141-.028-.28-.058-.42-.085.014.2.032.4.049.6C1001.342,835.625,1002.79,835.911,1004.243,836.169Zm-4.034,1.482c.046.255.093.5.143.752,1.388.312,2.828.608,4.32.9-.049-.264-.1-.531-.14-.8Q1002.366,838.1,1000.209,837.651Zm6.358-15.685c.949.219,1.9.426,2.862.629.064-.062.13-.12.192-.179a11,11,0,0,1,1.19-.979,20.279,20.279,0,0,1,2.287-1.527q.829-.465,1.553-.822-1.486-.34-2.944-.75l-.1.051c-.6.315-1.275.671-2.022,1.066-.359.22-.737.449-1.13.692a11.623,11.623,0,0,0-1.2.775l-1.24.89-.025.017C1006.184,821.874,1006.375,821.923,1006.568,821.966Zm7-1.315a22.65,22.65,0,0,0-2.11,1.588c-.242.2-.491.4-.733.623,1.283.259,2.568.5,3.864.725a12.245,12.245,0,0,1,1-1.032l1.011-.9c.341-.269.684-.5,1-.74a11.635,11.635,0,0,1,1.482-.954q-1.7-.28-3.378-.638C1015.077,819.686,1014.359,820.131,1013.564,820.651Zm4.564.958c-.287.246-.6.495-.909.77-.291.29-.6.592-.912.907a4.785,4.785,0,0,0-.478.514q2.166.361,4.354.665a17.562,17.562,0,0,1,2.072-2.407l.8-.729c.258-.223.524-.4.762-.581.049-.039.1-.07.146-.106-1.293-.148-2.583-.317-3.868-.515-.106.073-.214.152-.323.236C1019.282,820.728,1018.7,821.1,1018.128,821.609Zm4.758,1.057a20.041,20.041,0,0,0-1.531,1.956q2.453.321,4.933.567a18.735,18.735,0,0,1,1.289-2.155,14.459,14.459,0,0,1,1.661-1.915q-2.189-.155-4.38-.384A26.124,26.124,0,0,0,1022.886,822.667Zm3.69,4.609c-.046.136-.094.27-.142.41a29,29,0,0,0-1.191,5.5c-.116.935-.185,1.855-.228,2.75q3.149.251,6.309.412c.012-.5.032-.994.059-1.5a40.989,40.989,0,0,1,.992-7.162Q1029.473,827.526,1026.576,827.276Zm5.016,18.275c-.042-.581-.086-1.208-.125-1.875q-3.263-.178-6.41-.45c0,.1.005.2.01.292.022.586.042,1.124.06,1.609Q1028.29,845.379,1031.592,845.551Zm-.191-3.1c-.012-.326-.027-.659-.039-1q-3.187-.141-6.369-.375c.005.326.015.645.022.953Q1028.151,842.279,1031.4,842.448Zm-.093-3.343c0-.173-.006-.349-.006-.525q-3.176-.176-6.342-.434v.541Q1028.123,838.929,1031.309,839.1Zm-5.952-11.8c.018-.044.037-.091.053-.137q-2.616-.242-5.228-.569c-.037.075-.077.146-.115.223a21.255,21.255,0,0,0-1.815,5.869c-.134.869-.215,1.731-.263,2.572,1.934.216,3.873.4,5.811.562.031-.907.1-1.843.21-2.8A25.9,25.9,0,0,1,1025.357,827.308Zm-1.163,16.279c-.019-.143-.034-.29-.053-.439q-3.023-.272-5.917-.627.071.8.149,1.515c.016.152.033.3.049.448q2.911.324,5.972.583C1024.328,844.618,1024.259,844.127,1024.194,843.587Zm-.175-1.645c-.027-.309-.054-.628-.078-.954q-2.944-.232-5.877-.545.029.462.062.9Q1021.01,841.679,1024.019,841.943Zm-2.271-3.52c.686.061,1.375.117,2.061.174-.005-.182-.011-.364-.017-.55q-2.931-.257-5.846-.58c0,.2.008.4.01.6Q1019.852,838.258,1021.749,838.423Zm-8.67-12.888q-2.077-.363-4.137-.792a15.439,15.439,0,0,0-2.957,5.479,14.808,14.808,0,0,0-.574,3.28l.054.01c.3.053.61.1.913.153.17.03.343.057.513.084.479.08.959.152,1.439.225.64.1,1.278.2,1.918.294a17.627,17.627,0,0,1,.46-3.233A16.382,16.382,0,0,1,1013.078,825.535Zm-2.573,13.949q-2.427-.361-4.84-.784c.037.276.077.545.117.809q2.353.435,4.845.826C1010.584,840.056,1010.544,839.774,1010.505,839.484Zm-.234-2.354c-.014-.21-.022-.428-.033-.643l-.071-.01-.54-.081c-.336-.048-.674-.1-1.012-.149-.054-.006-.107-.017-.161-.024q-1.528-.228-3.061-.483c.012.215.019.428.036.636Q1007.845,836.79,1010.271,837.13Zm-5.376,3.262q-2.231-.456-4.322-.945c.152.659.314,1.284.478,1.866.048.165.093.325.141.48q2.05.425,4.284.827C1005.275,841.934,1005.075,841.189,1004.895,840.392Zm-4.289,2.224c-.74-.171-1.466-.345-2.17-.522-.563-.139-1.113-.277-1.647-.417.294.8.536,1.428.69,1.855.376.131.753.261,1.133.384.864.167,1.789.343,2.778.515C1001.146,843.913,1000.882,843.305,1000.606,842.616Zm-1.968-1.373c.515.117,1.044.231,1.58.348,0-.006,0-.009,0-.012-.256-.728-.507-1.53-.738-2.4q-1.99-.483-3.829-1c.093.336.189.663.282.976.178.571.354,1.1.521,1.58Q997.509,840.988,998.638,841.243Zm.586-3.1c-.055-.24-.107-.486-.157-.737q-1.915-.415-3.821-.877c.049.225.1.447.152.663Q997.231,837.683,999.224,838.145Zm-4.123,1.3c-.185-.487-.367-1.015-.54-1.571-1.159-.334-2.267-.676-3.324-1.02.033.1.066.211.1.313.321.956.649,1.791.95,2.5q1.521.417,3.255.849C995.4,840.177,995.25,839.82,995.1,839.44Zm-.824-2.546c-.057-.21-.109-.424-.16-.639-1.091-.271-2.2-.555-3.309-.859.048.18.1.358.147.532Q992.536,836.417,994.277,836.894Zm-.652-3.051.05.012c-.005-.048-.013-.093-.018-.14-.018-.143-.036-.29-.049-.439l-.7-.185-.064-.019q-1.32-.359-2.627-.757c.023.21.049.419.078.623C991.421,833.257,992.537,833.557,993.626,833.843Zm-3.112-3.756c.021.006.041.015.066.022.989.3,1.985.587,2.983.857.017-.269.042-.54.08-.811a11.954,11.954,0,0,1,1.1-3.69,14.976,14.976,0,0,1,3.457-4.509q-1.366-.458-2.706-.993c-.213.171-.427.344-.645.514-.493.389-.92.862-1.4,1.3-.225.232-.421.488-.635.732a7.159,7.159,0,0,0-.608.766,10.692,10.692,0,0,0-2.1,5.691C990.244,830,990.378,830.046,990.514,830.088Zm-4.728,3.761c-.79-.277-1.569-.577-2.34-.893.042.112.082.22.126.328.723.3,1.505.614,2.343.927C985.872,834.094,985.829,833.972,985.786,833.848Zm-.7-2.616c-.046-.237-.09-.477-.127-.722-.054-.019-.11-.041-.166-.063-.021-.009-.041-.015-.063-.024l-.076-.028c-.707-.272-1.442-.563-2.189-.877.044.233.09.461.144.682C983.413,830.573,984.243,830.913,985.083,831.232Zm23.124-24.4c-1.44.334-3.546.685-6.107,1.312-2.568.56-5.615,1.307-8.931,2.325-.685.218-1.387.438-2.1.665a4,4,0,0,0-1.866,1.99c.166-.07.332-.138.495-.207,1.516-.675,3.042-1.135,4.478-1.623.715-.256,1.435-.424,2.125-.617s1.361-.364,2.013-.541c1.3-.348,2.531-.559,3.645-.806s2.129-.44,3.027-.559c.9-.137,1.668-.245,2.3-.33.77-.1,1.329-.156,1.655-.165.174-.591.361-1.173.574-1.746C1009.17,806.613,1008.732,806.716,1008.207,806.829Zm.412,10.556a1.116,1.116,0,0,1-.459-.295c-.365.17-.786.353-1.256.581-.581.3-1.24.632-1.967,1-.712.4-1.485.846-2.3,1.337-.327.227-.668.453-1.014.693,1,.286,2.013.554,3.024.8l.708-.564q.688-.454,1.332-.876a11.608,11.608,0,0,1,1.283-.744c.419-.223.823-.437,1.206-.643.527-.238,1.02-.447,1.481-.643C1009.973,817.832,1009.293,817.617,1008.62,817.385Zm31.886-28.2c-15.106-.264-30.31,10.292-30.423,26.344,9.252,3.008,19.5,3.57,29.134,3.816,10.149.259,20.965.14,30.779-2.826C1070.458,800.487,1055.541,789.451,1040.505,789.187Zm.507,36.825q2.989.029,5.974-.039c-.021-.348-.041-.683-.066-1-.094-1.435-.229-2.567-.307-3.327-1.773.012-3.542-.005-5.288-.039-.045.743-.152,1.9-.247,3.382C1041.055,825.315,1041.035,825.654,1041.013,826.013Zm7.151,15.591c-.023.367-.052.725-.077,1.077q3.128-.072,6.168-.227c.026-.346.054-.7.077-1.068Q1051.256,841.529,1048.164,841.6Zm6.285-2.291c.007-.2.017-.4.026-.605q-3.079.137-6.161.193c-.009.194-.016.385-.024.576Q1051.366,839.438,1054.448,839.313Zm-6.044-3.734c0,.345-.013.689-.018,1.029.355-.005.711-.017,1.069-.026q1.12-.025,2.247-.059c.6-.022,1.2-.05,1.8-.076.341-.012.681-.027,1.023-.041.005-.469,0-.941,0-1.422a44.586,44.586,0,0,0-.654-7.274q-2.869.141-5.726.2C1048.341,830.154,1048.438,832.781,1048.4,835.579Zm11.676,5.487q-2.3.149-4.613.265c-.036.362-.075.719-.113,1.065q2.906-.16,5.716-.39c.039-.331.075-.671.108-1.016C1060.813,841.013,1060.445,841.04,1060.081,841.066Zm1.273-2.157c.016-.206.029-.415.042-.623q-2.854.218-5.717.362c-.009.206-.022.41-.037.612Q1058.5,839.125,1061.354,838.908Zm-6.16,4.718q-.139,1.006-.29,1.892c1.838-.1,3.636-.218,5.382-.357l.358-.03c.091-.6.183-1.236.273-1.915Q1058.109,843.458,1055.194,843.626Zm.573-8.659q.006.7-.006,1.379c.543-.027,1.088-.059,1.629-.091.574-.031,1.148-.061,1.722-.1.661-.042,1.319-.093,1.979-.142.125-.006.248-.017.374-.026,0-.525-.005-1.057-.028-1.593a27.728,27.728,0,0,0-.884-6c-.1-.385-.22-.757-.336-1.118q-2.624.228-5.244.371A36.322,36.322,0,0,1,1055.767,834.967Zm33.878,1.665c-.063.189-.126.38-.193.564.228-.064.46-.133.685-.2.747-.223,1.475-.456,2.177-.692.059-.151.116-.31.173-.469C1091.535,836.123,1090.581,836.383,1089.646,836.633Zm3.574-3.231c.039-.166.077-.336.113-.506l-.532.17c-.2.066-.4.128-.609.189-.24.073-.48.147-.724.218-.273.081-.543.157-.817.233l-.3.088c-.03.161-.063.315-.093.474C1091.253,834,1092.241,833.718,1093.22,833.4Zm-2.634-2.035.152-.043c.916-.264,1.892-.546,2.889-.86,0-.048.008-.093.008-.14a10.584,10.584,0,0,0-3.078-7.487,18.258,18.258,0,0,0-2.081-1.9c-.727.363-1.485.693-2.24.988.305.3.608.61.92.912q.346.427.7.863l.35.437c.115.148.207.317.309.474A12.082,12.082,0,0,1,1090.586,831.366Zm3.063,4.115c-.053.143-.109.282-.165.419.814-.291,1.6-.587,2.339-.891.049-.109.1-.214.143-.323C1095.2,834.971,1094.427,835.233,1093.649,835.481Zm3.248-3.464c.041-.155.082-.309.119-.466-.049.021-.1.037-.151.057-.12.049-.241.1-.36.143q-.5.2-1,.386c-.122.045-.246.088-.366.134-.207.077-.415.153-.626.224-.032.173-.068.34-.1.506C1095.251,832.7,1096.084,832.373,1096.9,832.017Zm-32.395-9.5a17.282,17.282,0,0,1,1.515,1.873q1.99-.288,3.959-.623a17.617,17.617,0,0,0-1.94-1.928c-.295-.247-.554-.511-.836-.713s-.543-.4-.791-.59-.471-.367-.689-.516l-.142-.093q-1.683.348-3.386.613A16.908,16.908,0,0,1,1064.5,822.517Zm-3.037-1.866c-1.288.191-2.586.346-3.887.473a13.911,13.911,0,0,1,1.878,2.246,14.716,14.716,0,0,1,1,1.719c1.486-.162,2.971-.341,4.443-.542-.349-.529-.707-1.014-1.055-1.449A25.871,25.871,0,0,0,1061.465,820.651Zm7.264,19.686c-.049.309-.106.613-.161.911q2.446-.3,4.786-.644c.056-.274.106-.551.155-.835Q1071.124,840.086,1068.729,840.337Zm5.1-2.8c.022-.2.042-.39.06-.59q-2.4.33-4.809.605-.029.313-.062.617Q1071.436,837.886,1073.832,837.538Zm-5.509,4.894c-.156.708-.326,1.37-.5,1.992q2.475-.29,4.768-.609c.173-.634.349-1.324.514-2.058C1071.552,842,1069.953,842.227,1068.323,842.432Zm.8-8.928c.044.608.063,1.208.062,1.8l.539-.059.312-.034c.4-.044.792-.091,1.188-.138.122-.013.242-.028.362-.041.377-.048.755-.091,1.128-.139.151-.021.3-.039.447-.058l.834-.111a19.269,19.269,0,0,0-.2-2.774,17.762,17.762,0,0,0-.851-3.258c-.2-.5-.412-1-.64-1.468-.264-.456-.47-.929-.756-1.342-.017-.028-.035-.051-.053-.079q-2.108.379-4.235.681.139.274.268.56A19.107,19.107,0,0,1,1069.12,833.5Zm-2.327-13.545c.272.166.562.341.868.529s.6.438.93.672a16.133,16.133,0,0,1,2.6,2.39c.877-.157,1.749-.322,2.621-.495.219-.044.519-.1.887-.173-.174-.152-.348-.3-.515-.448-.358-.3-.681-.623-1.036-.881l-1.011-.743c-1.1-.762-2.058-1.363-2.809-1.794-.957.264-1.923.508-2.894.724C1066.544,819.811,1066.666,819.886,1066.793,819.959Zm5.917,5.614c.22.353.413.735.638,1.106.256.5.495,1.03.719,1.573a17.7,17.7,0,0,1,.945,3.5,18.909,18.909,0,0,1,.2,2.8c.152-.022.305-.043.457-.067.222-.032.443-.064.662-.1.276-.04.549-.08.82-.124l.761-.12c.242-.041.482-.079.725-.12l.844-.146.1-.017a14.284,14.284,0,0,0-3.168-9.066C1075.188,825.079,1073.95,825.335,1072.71,825.573Zm2.326,11.783q2.183-.338,4.348-.73c.025-.173.045-.345.063-.519-.56.091-1.12.184-1.679.269a.486.486,0,0,1-.072.012l-.133.021c-.247.037-.5.079-.744.116l-.435.064c-.428.063-.855.128-1.284.189C1075.078,836.971,1075.056,837.166,1075.036,837.356Zm5.389-7.08a15.1,15.1,0,0,1,.373,3.364c.081-.014.16-.027.24-.044l.578-.107.948-.189c.179-.035.362-.071.545-.11.318-.063.636-.133.953-.2l.54-.116.117-.026c0-.227,0-.453-.012-.684a12.66,12.66,0,0,0-.685-3.539,13.68,13.68,0,0,0-1.651-3.212c-.375-.457-.7-.94-1.084-1.36-.135-.134-.264-.273-.39-.41-1.074.306-2.155.586-3.24.851A14.512,14.512,0,0,1,1080.424,830.277Zm.167,6.123q1.582-.3,3.155-.631c.243-.053.485-.106.729-.156a.256.256,0,0,0,.006-.044c.023-.131.038-.263.054-.394-1.292.265-2.586.5-3.876.728C1080.639,836.071,1080.615,836.236,1080.592,836.4Zm-.192-14.792c.867-.227,1.758-.477,2.638-.755-.442-.3-.878-.6-1.307-.886a41.56,41.56,0,0,0-5.852-2.96l-2.357-.956c-.487-.167-.92-.323-1.308-.465,0,.331,0,.663-.006,1a1.218,1.218,0,0,1-.09.42,1,1,0,0,1,.027.165,15.4,15.4,0,0,1,1.52.532c.629.271,1.349.573,2.133.939.382.206.779.422,1.2.648a12.6,12.6,0,0,1,1.271.757c.425.289.865.582,1.316.889C1079.846,821.153,1080.123,821.379,1080.4,821.608Zm-8.2-6.589c.446.107.961.229,1.538.373.725.219,1.544.5,2.452.8a35.443,35.443,0,0,1,6.14,2.8c.537.35,1.089.706,1.654,1.072.147.107.291.218.435.327.737-.259,1.446-.536,2.115-.835-.966-.618-1.948-1.163-2.9-1.652q-.9-.431-1.75-.842c-.569-.273-1.151-.474-1.7-.7s-1.083-.438-1.593-.647c-.523-.179-1.024-.353-1.5-.516-.962-.318-1.817-.653-2.593-.878s-1.44-.434-1.983-.608c-.14-.048-.271-.089-.393-.129C1072.159,814.057,1072.188,814.539,1072.2,815.019Zm.429-1.781c.563.106,1.249.243,2.048.409s1.685.444,2.678.712c.493.143,1.014.285,1.551.448l1.65.591c.567.216,1.167.4,1.757.661s1.2.541,1.825.82a32.431,32.431,0,0,1,3.671,2.055,11.1,11.1,0,0,0,1.549-.984,36.47,36.47,0,0,0-4.683-2.236c-1.3-.581-2.6-.983-3.794-1.41-1.193-.448-2.343-.743-3.379-1.057-2.067-.654-3.786-1.039-4.955-1.377-.243-.07-.457-.133-.657-.191.079.483.138.97.189,1.46C1072.246,813.168,1072.428,813.2,1072.63,813.238Zm14.848,12.051c-.093-.143-.174-.3-.278-.433l-.325-.4c-.214-.271-.428-.533-.637-.8-.434-.422-.842-.863-1.276-1.265-1.01.353-1.971.647-2.785.884.42.434.781.945,1.181,1.43a14.363,14.363,0,0,1,1.835,3.512,13.212,13.212,0,0,1,.726,3.9c.006.153.006.305.006.457l.174-.041c.291-.067.582-.139.876-.212.207-.049.417-.1.627-.152.258-.064.517-.133.774-.2l.732-.193.307-.084A11.233,11.233,0,0,0,1087.478,825.289Zm1.6,8.84c-.081.023-.162.042-.246.064-1.023.26-2.054.5-3.089.729-.021.143-.044.288-.068.431,1.119-.243,2.26-.5,3.413-.788.03-.152.055-.3.082-.458Zm-.62,2.809q-1.652.423-3.318.8c-.063.219-.126.437-.191.65,1.155-.276,2.277-.564,3.358-.864.063-.193.126-.392.189-.591Zm-3.87,2.533c-.27.756-.557,1.459-.846,2.1-.046.106-.1.2-.143.308q1.754-.377,3.244-.732c.3-.649.631-1.384.953-2.209.044-.116.09-.237.134-.355C1086.859,838.886,1085.742,839.187,1084.593,839.471Zm-.8-.815q.091-.328.182-.671-1.911.41-3.833.753-.087.371-.183.729Q1081.932,839.081,1083.792,838.656Zm-4.155,1.932c-.25.8-.516,1.543-.788,2.219q1.989-.359,3.754-.723c.11-.273.222-.554.335-.851.175-.465.348-.963.518-1.486Q1081.6,840.189,1079.637,840.588Zm-.661-1.646q-2.152.371-4.313.671c-.055.277-.116.547-.175.815q2.214-.346,4.317-.739C1078.863,839.445,1078.921,839.2,1078.977,838.942Zm-4.774,2.64c-.2.75-.413,1.448-.631,2.092q2.241-.328,4.277-.69c.024-.071.05-.139.072-.213.2-.6.4-1.259.6-1.958Q1076.417,841.219,1074.2,841.582Zm-1,3.13q-.315.846-.605,1.525c.715-.089,1.413-.178,2.089-.268.757-.1,1.487-.2,2.195-.305.188-.492.4-1.068.636-1.714Q1075.461,844.347,1073.2,844.712Zm-5.385-6.4c.018-.206.037-.412.053-.621q-2.626.282-5.265.5c-.013.211-.031.422-.05.628Q1065.19,838.6,1067.816,838.308Zm-5.49,2.6c-.044.344-.091.68-.145,1.007q2.678-.236,5.253-.529c.046-.3.094-.613.135-.929Q1064.949,840.713,1062.325,840.9Zm4.908,1.664q-2.577.307-5.255.553c-.125.684-.256,1.33-.389,1.93q2.71-.234,5.253-.516C1066.973,843.922,1067.107,843.264,1067.234,842.569Zm-4.557-8.225c.021.527.026,1.043.021,1.557l.145-.013c.586-.046,1.173-.1,1.757-.152.711-.062,1.426-.121,2.135-.189.1-.006.2-.017.3-.027l.913-.091c0-.6-.018-1.213-.067-1.829a19.625,19.625,0,0,0-1.411-6.1c-.12-.295-.252-.581-.385-.858q-2.367.311-4.742.537c.108.295.21.6.307.908A25.438,25.438,0,0,1,1062.677,834.344Zm-3.265-9.144q-.338-.742-.7-1.372a19.718,19.718,0,0,0-1.812-2.639q-2.175.2-4.365.3c.16.242.328.508.505.809a16.423,16.423,0,0,1,.829,1.75c.2.482.4,1.01.571,1.575Q1056.932,825.448,1059.412,825.2Zm-5.978.489c-.124-.474-.252-.925-.389-1.342a19.558,19.558,0,0,0-1.113-2.83q-2.425.106-4.843.125a22.587,22.587,0,0,1,.7,3.231c.054.341.1.7.152,1.072Q1050.69,825.862,1053.434,825.689Zm19.181-5.61,1.1.71c.384.246.739.565,1.131.864q.288.23.59.467l.528.511c.894-.182,1.964-.413,3.115-.692-.053-.049-.11-.1-.165-.144l-1.226-.9a11.6,11.6,0,0,0-1.187-.788q-.58-.365-1.117-.7c-.742-.4-1.414-.762-2.005-1.079-.474-.263-.909-.449-1.283-.63a1.064,1.064,0,0,1-.72.7c-.4.128-.8.252-1.209.37A25.588,25.588,0,0,1,1072.615,820.079Zm15.208-7.94-.783-.259-1.221-.41c-.4-.126-.808-.225-1.205-.34l-2.313-.641c-.371-.1-.739-.207-1.1-.305s-.719-.171-1.07-.255c-.7-.165-1.374-.319-2.017-.471-2.559-.648-4.67-1.007-6.112-1.346-.381-.085-.715-.162-1-.233.162.51.3,1.026.434,1.548.318.03.726.079,1.216.147,1.3.193,3.208.417,5.514.952a69.921,69.921,0,0,1,8.034,2.138c.743.261,1.506.525,2.28.8.721.273,1.436.6,2.17.919A7.827,7.827,0,0,0,1087.822,812.139Zm2.473,3.412c-.768-.332-1.5-.692-2.253-.989l-2.219-.818c-2.908-1.028-5.592-1.794-7.866-2.366-2.258-.64-4.128-.992-5.4-1.33-.411-.1-.756-.2-1.045-.278.117.5.225,1,.312,1.511.238.031.509.071.819.119a50.748,50.748,0,0,1,5.083,1c1.064.263,2.24.514,3.466.926,1.23.389,2.56.762,3.906,1.329a34,34,0,0,1,5.184,2.411,2.913,2.913,0,0,0,.634-1.243C1090.707,815.735,1090.5,815.645,1090.295,815.551Zm-.646,4.741a18.557,18.557,0,0,1,1.821,1.71,11.548,11.548,0,0,1,3.314,8.088c.871-.29,1.749-.609,2.608-.963a9.272,9.272,0,0,0-.048-1.643,9.14,9.14,0,0,0-1.508-3.933,14.13,14.13,0,0,0-1.4-1.793c-.267-.278-.569-.534-.854-.806a8.282,8.282,0,0,0-.9-.786c-.458-.361-.934-.7-1.409-1.023A11.973,11.973,0,0,1,1089.648,820.292Zm2.086-8.012.018.018c.285.109.573.223.86.335.91.318,1.777.8,2.684,1.221a24.773,24.773,0,0,1,2.662,1.482l.662.4.618.462c.41.312.817.617,1.224.923a16.822,16.822,0,0,1,2.088,2.189,9.483,9.483,0,0,1,2.032,4.685C1107.781,819.131,1100.5,815.15,1091.735,812.279Zm10.065,14.463a13.05,13.05,0,0,0,1.59-1.332.131.131,0,0,0,.025-.023c.028-.026.055-.058.083-.088.006-.191.006-.385,0-.58a8.235,8.235,0,0,0-1.9-4.662,15.919,15.919,0,0,0-1.927-1.992c-.382-.287-.769-.576-1.155-.863l-.583-.437-.632-.381a24.674,24.674,0,0,0-2.555-1.435c-.593-.276-1.164-.578-1.748-.845a4.117,4.117,0,0,1,.254,1.551c.361.194.725.393,1.092.587.38.251.761.506,1.145.76a17.951,17.951,0,0,1,4.044,3.587,10.3,10.3,0,0,1,2.152,4.645A8.1,8.1,0,0,1,1101.8,826.743Zm-.371,2.732c.009-.009.022-.014.031-.023a.193.193,0,0,1-.031.018Zm-.876-4.04a9.319,9.319,0,0,0-1.973-4.088,17.334,17.334,0,0,0-3.792-3.315l-1.087-.724c-.242-.133-.482-.263-.721-.391a4.967,4.967,0,0,1-.822,1.341c.438.3.871.609,1.3.943a9.481,9.481,0,0,1,.965.841c.305.295.626.569.913.876a14.431,14.431,0,0,1,1.525,1.98,10.129,10.129,0,0,1,1.618,4.457,9.749,9.749,0,0,1,.044,1.279c.068-.031.138-.063.2-.1.216-.1.43-.207.641-.317.06-.032.124-.06.184-.093.385-.2.762-.419,1.128-.643A7.725,7.725,0,0,0,1100.553,825.434Zm-.3,7.335c-.027.014-.05.03-.079.044-.021.044-.042.085-.067.13C1100.158,832.883,1100.209,832.828,1100.254,832.769Zm-.127-2.426c.022-.075.041-.149.06-.22q-.371.185-.729.354c-.162.075-.328.147-.493.224-.245.112-.488.224-.734.334a.177.177,0,0,0-.031.014c-.032.138-.067.274-.1.408C1098.8,831.113,1099.475,830.743,1100.127,830.342Zm-1.267,3.127c-.563.269-1.137.522-1.718.756-.044.1-.088.187-.128.278.608-.267,1.186-.541,1.737-.818C1098.789,833.615,1098.822,833.544,1098.86,833.47Zm-1.166,2.085c.164-.263.326-.534.489-.822-.529.267-1.087.528-1.661.787a24.482,24.482,0,0,1-1.309,2.219C1096.076,837.047,1096.907,836.318,1097.694,835.555Zm-5.1,4.089c.211-.136.422-.273.631-.416.191-.131.379-.265.565-.4.446-.735,1-1.667,1.557-2.8-.737.306-1.507.607-2.305.9-.075.166-.152.328-.227.489a25.891,25.891,0,0,1-1.449,2.575c.147-.041.291-.077.429-.115C1092.086,839.791,1092.353,839.715,1092.594,839.644Zm-1.181.743c-.129.046-.261.089-.4.134-.042.064-.086.128-.126.185Q1091.15,840.55,1091.413,840.387Zm.48-3.052c-.489.171-.985.335-1.5.5-.442.142-.892.279-1.348.419-.147.355-.294.7-.442,1.025-.277.6-.555,1.144-.827,1.641.795-.193,1.521-.38,2.175-.554.174-.045.345-.093.507-.134C1090.9,839.435,1091.4,838.47,1091.893,837.335Zm-2.022,3.955c.084-.148.175-.308.268-.477a.241.241,0,0,1-.048.014c-.8.258-1.709.532-2.72.818-.308.52-.6.972-.857,1.354Q1088.226,842.209,1089.871,841.29Zm-7.815,3.533q1.885-.678,3.712-1.487c.055-.112.115-.231.179-.358.158-.314.344-.681.545-1.09-1.011.274-2.117.56-3.3.844-.427.844-.831,1.553-1.178,2.108Zm-.685.129c.236-.528.541-1.2.877-2q-1.787.412-3.8.814c-.3.679-.585,1.28-.85,1.8C1078.965,845.354,1080.226,845.148,1081.371,844.951Zm-20.911,1.342-.077.007c-1.845.162-3.748.3-5.694.417-.063.331-.125.643-.187.938q2.977-.122,5.784-.3C1060.341,847.025,1060.4,846.668,1060.46,846.293Zm-.469,2.9c.027-.2.065-.431.1-.69-1.892.14-3.853.258-5.868.35-.064.265-.129.5-.186.7C1056.015,849.467,1058,849.349,1059.992,849.19Zm-5.834-5.507q-3.045.156-6.177.236c-.059.658-.121,1.284-.188,1.862q3.162-.066,6.195-.219Q1054.069,844.685,1054.157,843.683Zm-.285,3.077q-3.044.172-6.227.25c-.039.291-.076.572-.114.833q3.2-.047,6.253-.161C1053.811,847.394,1053.841,847.088,1053.873,846.759Zm-.242,2.806c.012-.2.028-.426.048-.689-2.059.089-4.178.157-6.34.193-.044.241-.086.461-.125.652C1049.324,849.7,1051.47,849.65,1053.631,849.566Zm-6.465-14c.033-2.795,0-5.405-.088-7.639q-1.294.023-2.59.03c-1.194.009-2.389,0-3.586-.012-.113,2.171-.218,4.7-.3,7.4-.008.435-.018.868-.028,1.292a.7.7,0,0,0,.075,0l.412.005c1.089.009,2.179.017,3.266.012.323,0,.643-.006.965-.01q.927-.006,1.856-.021C1047.155,836.276,1047.162,835.924,1047.165,835.566Zm-.062,3.349c-.457.008-.912.012-1.368.015h-.511c-.487,0-.974,0-1.461,0l-.974-.005-1-.008c-.424-.005-.85-.013-1.275-.017-.005.182-.011.364-.018.546,2.2.041,4.4.059,6.6.041C1047.093,839.3,1047.1,839.109,1047.1,838.915Zm-.077,2.711q-3.3.064-6.609.045c-.013.362-.028.714-.042,1.056.77.008,1.543.016,2.323.014,1.442,0,2.873-.016,4.291-.041C1047,842.351,1047.014,841.993,1047.026,841.626Zm-.08,2.313c-1.406.026-2.823.042-4.25.041-.8,0-1.588-.006-2.38-.014-.032.659-.064,1.28-.1,1.853,2.254.027,4.479.021,6.66-.015Q1046.911,844.931,1046.947,843.939Zm-6.809,3.118c-.021.277-.04.54-.062.781q3.431.052,6.737.014c.005-.26.016-.534.023-.82C1044.644,847.072,1042.407,847.081,1040.137,847.057Zm6.648,2.67c0-.192,0-.407,0-.649q-3.352.05-6.834,0c-.033.265-.068.477-.1.638q2,.031,4,.028C1044.82,849.74,1045.8,849.733,1046.786,849.727Zm-8.928,2.513c.213.464.429,1.038.675,1.646.126.3.259.61.415.921.135.283.407.751.359.618a.032.032,0,0,1,.015,0c-.013-.006.026,0,.1.005.175.005.354.014.533.021.383.019.773.041,1.171.059.274.017.545.036.811.053.193.015.51.034.549.042.014.019.006.1.189-.451.305-.89.585-1.691.833-2.362.1-.269.2-.516.285-.738q-3.02.017-6.044-.053C1037.782,852.077,1037.82,852.152,1037.858,852.24Zm1.728-2.532a6.245,6.245,0,0,1-.078-.638q-3.6-.054-7.068-.207c-.01.233-.019.433-.035.605Q1035.994,849.648,1039.586,849.708Zm-7.108-4.111c1.91.088,3.853.155,5.818.194.353.006.7.009,1.051.016-.014-.573-.025-1.193-.033-1.855q-3.466-.052-6.831-.221C1032.478,844.393,1032.479,845.017,1032.478,845.6Zm0-3.094q3.358.156,6.821.211c0-.343,0-.693-.006-1.054q-3.4-.037-6.814-.17Zm.017-3.336q3.392.172,6.808.256c0-.179,0-.358,0-.54-.474-.009-.952-.023-1.427-.037h-.048q-2.668-.074-5.329-.2C1032.5,838.814,1032.5,838.993,1032.5,839.167Zm-13.657,9.078c4.379.583,8.789.969,13.205,1.2-.032-.171-.068-.375-.1-.608-4.631-.213-9.039-.55-13.134-.974C1018.821,848.006,1018.834,848.135,1018.842,848.246Zm-.156-1.52q2.952.274,6.119.492c-.064-.243-.133-.558-.2-.926-2.063-.183-4.081-.391-6.043-.623Q1018.626,846.244,1018.686,846.726Zm-5.873.586q2.832.5,5.68.885c-.04-.111-.083-.234-.125-.375q-2.906-.307-5.582-.668C1012.794,847.208,1012.805,847.262,1012.813,847.312Zm5.234-.645c-.08-.33-.166-.693-.253-1.088-1.865-.231-3.68-.48-5.434-.747.085.461.161.881.232,1.253Q1015.2,846.394,1018.047,846.667Zm-7.648.2q.991.193,1.991.372c-.021-.045-.037-.093-.057-.14-.959-.134-1.892-.267-2.8-.406Q1009.967,846.775,1010.4,846.864Zm-3.319-1.509q2.311.34,4.875.653c-.122-.384-.255-.817-.386-1.3-1.679-.263-3.309-.542-4.875-.832C1006.832,844.422,1006.963,844.914,1007.08,845.354Zm4.188-1.793c-.019-.084-.041-.169-.063-.258-.134-.568-.264-1.182-.384-1.835q-2.5-.406-4.853-.864c.137.725.281,1.411.425,2.041l.033.14Q1008.763,843.2,1011.269,843.562Zm-4.9,1.685c-.177-.457-.362-.971-.549-1.535-1.5-.286-2.935-.586-4.312-.891.21.654.4,1.235.573,1.734.9.153,1.834.309,2.819.465C1005.377,845.094,1005.866,845.171,1006.366,845.246ZM992.9,841.08c.128.283.231.524.317.729,1.226.565,2.483,1.074,3.759,1.538a20.158,20.158,0,0,1-1-1.887c-1.177-.317-2.286-.635-3.319-.945C992.738,840.717,992.821,840.908,992.9,841.08Zm-3.672-1.39q1.644,1,3.387,1.837c-.044-.07-.09-.143-.14-.218-.183-.3-.392-.643-.609-1.038-1.012-.313-1.948-.622-2.8-.918C989.119,839.476,989.175,839.584,989.224,839.69Zm2.187-.267c-.294-.578-.6-1.226-.894-1.956-.126-.313-.248-.644-.371-.983q-1.488-.506-2.823-1.015c.486,1.286.984,2.344,1.382,3.157Q989.939,839.007,991.411,839.424Zm-3.216-.322a1.11,1.11,0,0,1,.255.115c-.021-.03-.044-.066-.064-.1-.128-.048-.253-.091-.377-.135Zm-2.882-2.039c.368.286.743.565,1.121.837.166.057.339.113.516.17.305.1.632.206.971.313a24.451,24.451,0,0,1-1.668-3.3.244.244,0,0,1-.016-.04c-.836-.334-1.621-.667-2.35-.993.308.712.6,1.321.844,1.821S985.183,836.782,985.312,837.063Zm-3.462-3.047a35.03,35.03,0,0,0,2.684,2.426c-.072-.1-.146-.211-.224-.33a22.206,22.206,0,0,1-1.419-2.518c-.572-.273-1.108-.538-1.6-.8-.05-.024-.1-.052-.144-.077C981.391,833.2,981.628,833.627,981.85,834.016Zm-1.046-1.992c.228.111.458.225.708.344.324.155.675.313,1.039.475-.046-.106-.091-.214-.138-.326-.6-.26-1.187-.534-1.766-.824C980.7,831.8,980.753,831.915,980.8,832.023Zm.7-2.347c-.047-.207-.094-.415-.133-.63-.672-.3-1.344-.625-2.005-.974.04.162.078.325.121.483C980.145,828.957,980.819,829.326,981.509,829.677Zm-2.033,1.663c.045.022.091.046.137.071-.055-.113-.11-.237-.167-.354-.115-.066-.227-.137-.343-.2C979.224,831.019,979.351,831.18,979.475,831.339Zm-.469-5.966c.7.428,1.435.817,2.169,1.169a8.991,8.991,0,0,1,.441-2.45,9.66,9.66,0,0,1,.4-1.042c.172-.331.346-.668.525-1.008.2-.324.432-.628.653-.95.116-.156.22-.321.345-.471l.4-.433c.268-.287.536-.578.807-.872q.45-.386.907-.782a17.476,17.476,0,0,1,1.951-1.45c.188-.14.384-.268.583-.39a5.673,5.673,0,0,1-.894-1.309c-.157.079-.31.158-.468.24l-.563.289-.538.337a19.654,19.654,0,0,0-2.072,1.388c-.324.251-.645.5-.966.744-.286.276-.572.551-.851.824a9.8,9.8,0,0,0-2.427,3.678A7.252,7.252,0,0,0,979.007,825.374Zm-2.187,1.275q.705.587,1.458,1.11c-.027-.113-.053-.231-.077-.345-.493-.3-.975-.61-1.435-.944C976.782,826.529,976.8,826.59,976.82,826.649Zm1.122-1.983a7.8,7.8,0,0,1,.38-2.135,10.784,10.784,0,0,1,2.641-4.17c.3-.3.605-.6.921-.9.336-.265.679-.532,1.02-.8a19.732,19.732,0,0,1,2.186-1.471l.562-.352.585-.3.654-.335a3.666,3.666,0,0,1,0-1.484c-.488.215-.97.448-1.463.67a25.294,25.294,0,0,0-2.6,1.358l-.643.359c-.2.134-.4.277-.6.413l-1.181.822c-.37.3-.71.618-1.065.922a7.428,7.428,0,0,0-.954.977,8.015,8.015,0,0,0-2.113,4.544c-.009.14-.008.281-.01.421A11.131,11.131,0,0,0,977.942,824.665Zm-3.347-5.171a3.643,3.643,0,0,0,.009.374c.005.057.016.111.021.167.01.084.018.167.035.254a4.215,4.215,0,0,0,.108.433,5.468,5.468,0,0,0,.483,1.119,9.359,9.359,0,0,1,2.218-4.393,8.016,8.016,0,0,1,1.041-1.081c.379-.331.748-.677,1.14-1,.415-.292.832-.583,1.249-.877.211-.143.42-.3.634-.438l.67-.376a26.1,26.1,0,0,1,2.694-1.4c.912-.4,1.793-.85,2.7-1.154l.061-.022a6.152,6.152,0,0,1,.682-.753c-.872.272-1.734.553-2.59.857l-.048.018c-.412.144-.82.3-1.226.453-.169.066-.337.125-.5.191l-.105.04c-2.9,1.138-9.149,3.672-9.274,7.557C974.592,819.47,974.594,819.482,974.594,819.494Zm92.91,26.036c-.143.462-.287.9-.422,1.294q2.5-.234,4.777-.5c.137-.437.286-.926.442-1.467C1070.764,845.094,1069.161,845.321,1067.5,845.531Zm7.305,1.307c-.856.137-1.749.271-2.667.4-.059.125-.119.24-.17.346q2.176-.433,4.311-.985Q1075.564,846.715,1074.809,846.838Zm2.66,16.976,1.252.285a1.794,1.794,0,0,0,.221.022h.005l.007-.17q.008-.968.013-1.9c.018-1.25.036-2.457.05-3.607.046-2.3.109-4.37.191-6.106.088-1.937.2-3.461.317-4.433-1.638.483-3.3.9-4.977,1.272a50.724,50.724,0,0,1,1.893,6.964A36.344,36.344,0,0,1,1077.469,863.814Zm-4.55-9.412c.5,1.667,1.07,3.656,1.674,5.874.151.551.3,1.122.46,1.7.078.282.156.605.236.855a1.107,1.107,0,0,0,.221.457,1.013,1.013,0,0,0,.435.178c.245.055.491.113.738.169a48.242,48.242,0,0,1-1.97-7.134,42.2,42.2,0,0,1-1.028-7.145q-1.152.238-2.311.452C1071.739,850.663,1072.272,852.261,1072.918,854.4Zm-1.48-6.718c.035-.113.072-.238.113-.366-1.542.209-3.17.407-4.87.59-.081.214-.162.408-.237.59C1068.118,848.27,1069.787,848,1071.439,847.684Zm-4.841-2.041c-1.7.209-3.468.4-5.282.571-.1.393-.194.755-.29,1.093q2.735-.185,5.274-.41C1066.394,846.511,1066.493,846.095,1066.6,845.643Zm-.706,2.929c.045-.182.094-.38.146-.6q-2.571.269-5.351.48c-.085.264-.164.5-.237.7Q1063.173,848.929,1065.892,848.572ZM972.4,819.391c0-.058,0-.115.009-.167.011-.122.026-.242.045-.361a.356.356,0,0,0,0-.036c.525-3.2,3.9-5.722,6.781-7.246a.471.471,0,0,0,.052-.026c.072-.037.142-.075.211-.113.021-.008.041-.019.063-.028l.063-.035.207-.1a53.986,53.986,0,0,1,9-3.479c.072-.021.144-.043.219-.062.223-.066.444-.13.67-.192.169-.048.336-.093.5-.138.122-.034.249-.07.371-.1.277-.073.552-.146.832-.215l.036-.012a137.22,137.22,0,0,1,17.975-2.985l.458-.054h.012c.216-.023.428-.049.641-.072.03,0,.057,0,.083,0a31.045,31.045,0,0,1,18.444-15.338c12.5-3.984,27.358-.7,36.2,9.232a27.78,27.78,0,0,1,4.611,7.113c9.42,1.342,19.116,3.056,27.851,6.975,3.7,1.661,9.238,4.534,9.746,9.151a.486.486,0,0,1,.005.059c.01.1.018.2.022.3.005.072.009.147.012.219,0,.023,0,.045,0,.068,0,.048,0,.09,0,.138s0,.116,0,.176a5.913,5.913,0,0,1-.313,1.651v.013c-1.461,6.517-5.758,12-11.162,16.168a1.35,1.35,0,0,1-.2.183c-.442.33-.892.644-1.346.952a45.933,45.933,0,0,1-13.606,6.469.559.559,0,0,1-.1.019l-.685.213c.133.958.249,2.549.344,4.608.08,1.739.145,3.81.192,6.11.016,1.15.033,2.354.05,3.606,0,.627.008,1.262.014,1.911,0,.093,0,.179-.012.313a2.131,2.131,0,0,1-.086.477,1.58,1.58,0,0,1-.527.779,1.778,1.778,0,0,1-.894.349c-.08.008-.164.012-.245.013l-.186-.006c-.118-.008-.227-.022-.333-.039-.214-.036-.389-.081-.541-.117l-.479-.112c-.318-.075-.636-.152-.952-.225s-.639-.155-.954-.229a2.562,2.562,0,0,1-1.234-.658,2.7,2.7,0,0,1-.627-1.176c-.1-.339-.151-.608-.227-.912-.135-.583-.272-1.157-.4-1.718-.519-2.242-.961-4.266-1.307-5.975-.453-2.227-.745-3.908-.823-4.828-4.177.739-8.392,1.205-12.52,1.527-4.482.349-9.008.559-13.545.617a10.269,10.269,0,0,1-.1,1.052c-.1.728-.258,1.579-.483,2.515a6.808,6.808,0,0,1-.267.927,1.312,1.312,0,0,1-1.11.79,3.645,3.645,0,0,1-.633.013l-.4-.018c-.268-.014-.537-.028-.812-.045-.4-.025-.787-.053-1.169-.077-.2-.018-.4-.034-.6-.049a2.537,2.537,0,0,1-.452-.091,1.655,1.655,0,0,1-.476-.238,1.706,1.706,0,0,1-.4-.431,2.353,2.353,0,0,1-.2-.371q-.129-.294-.241-.583a8.849,8.849,0,0,1-.33-1.108c-.161-.7-.248-1.292-.318-1.791-.026-.2-.047-.389-.064-.563a159.4,159.4,0,0,1-30.093-3.636c-.386-.084-.777-.175-1.168-.265a28,28,0,0,1-1.023,5.477c-.406,1.695-.922,3.7-1.519,5.924q-.226.835-.46,1.7c-.086.3-.151.568-.259.9a2.717,2.717,0,0,1-.667,1.153,2.559,2.559,0,0,1-1.257.614c-.321.063-.641.129-.965.2s-.635.129-.956.192l-.483.1c-.153.03-.332.068-.549.1-.1.013-.213.023-.331.027h-.188c-.079,0-.165-.012-.245-.022a1.758,1.758,0,0,1-.877-.38,1.585,1.585,0,0,1-.5-.8,2.393,2.393,0,0,1-.073-.479c0-.134,0-.22,0-.313.027-.648.053-1.283.081-1.91q.093-1.876.178-3.6c.126-2.3.264-4.365.4-6.1a39.6,39.6,0,0,1,.639-5.238c-10.651-3.792-21.793-12.358-23.974-24a1.1,1.1,0,0,1,.055-.632l-.017-.084-.008-.036c-.028-.133-.055-.267-.073-.4l-.008-.075c-.017-.116-.03-.231-.036-.346-.005-.049,0-.1-.006-.144,0-.089-.006-.179-.008-.268S972.4,819.469,972.4,819.391Zm27.545,42.744a1,1,0,0,0,.442-.162,1.137,1.137,0,0,0,.238-.45c.088-.246.177-.568.263-.846.176-.573.352-1.139.519-1.685.684-2.195,1.321-4.164,1.882-5.811a28.434,28.434,0,0,1,2.049-5.154c-.881-.2-1.763-.422-2.643-.65a32.9,32.9,0,0,1-1.272,7.841,48.353,48.353,0,0,1-2.22,7.06C999.451,862.232,999.7,862.182,999.945,862.136Zm-2.869-11.242c.019,1.737.01,3.81-.027,6.109-.023,1.15-.048,2.356-.075,3.607q-.025.935-.052,1.9v.17h.012c.021,0,.075,0,.215-.013.426-.083.842-.162,1.262-.241a36.274,36.274,0,0,1,1.292-7.639,38.607,38.607,0,0,1,2.468-7.551c-1.325-.352-2.648-.733-3.958-1.155a1.091,1.091,0,0,1-.5-.048c-.294-.1-.591-.2-.887-.3A44.719,44.719,0,0,1,997.076,850.894Z" transform="translate(-972.388 -786.976)" fill="#fff"/>
        <path id="Path_63708" data-name="Path 63708" d="M1029.925,795.1c.344.815.672,1.171.733,1.139.093-.043-.09-.486-.27-1.276a2.782,2.782,0,0,1,.006-1.354,1.46,1.46,0,0,1,1.24-.907c2.729-.543,6.808,1.571,9.245,5.174a7.2,7.2,0,0,1,1.163,2.831,3.548,3.548,0,0,1-.529,2.571,2.811,2.811,0,0,1-1.968,1.211,4.922,4.922,0,0,1-2.213-.194,11.382,11.382,0,0,1-3.07-1.54c-.681-.469-1.056-.76-1.119-.7s.2.461.814,1.069a9.3,9.3,0,0,0,3.092,2,5.56,5.56,0,0,0,2.641.384,4.292,4.292,0,0,0,1.486-.455,3.426,3.426,0,0,0,1.275-1.122,4.657,4.657,0,0,0,.793-3.387,8.116,8.116,0,0,0-1.33-3.343,13.485,13.485,0,0,0-5.016-4.473,9.78,9.78,0,0,0-2.823-.959,6.59,6.59,0,0,0-2.647.081,2.925,2.925,0,0,0-1.113.576,1.813,1.813,0,0,0-.591,1A3.034,3.034,0,0,0,1029.925,795.1Z" transform="translate(-955.893 -785.625)" fill="#fff"/>
        <path id="Path_63709" data-name="Path 63709" d="M1029.714,797.3c.465.891,1.168,1.361,1.44,1.163s.062-.956-.338-1.73-.82-1.361-1.156-1.3S1029.243,796.4,1029.714,797.3Z" transform="translate(-955.979 -784.543)" fill="#fff"/>
        <path id="Path_63710" data-name="Path 63710" d="M1002.975,811.047c.043-.082.322-.023.8.125.09-.5.208-1.056.367-1.669.14-.55.318-1.144.533-1.767-1.03-.532-1.6-.954-1.538-1.075.066-.139.725.031,1.8.352.223-.591.471-1.2.764-1.824.282-.6.6-1.223.954-1.847-.634-.42-.966-.739-.9-.84.064-.118.514,0,1.249.249a27.905,27.905,0,0,1,1.6-2.381c.176-.237.359-.466.543-.693-.676-.269-1.064-.464-1.035-.555s.55-.048,1.395.12a27.022,27.022,0,0,1,2.475-2.54c-.912-.11-1.459-.184-1.464-.292s.8-.254,2.1-.259h0a24.6,24.6,0,0,1,3.245-2.317c-.72-.013-1.15-.005-1.169-.107s.685-.385,1.891-.5c.134-.013.278-.024.424-.031,1.833-.957,3.045-1.281,3.1-1.159s-.576.483-1.627,1.149c.5.018,1.024.054,1.573.117.326-.189.641-.362.949-.522a26.208,26.208,0,0,1,3.06-1.332l.322-.111c-.79-.128-1.5-.218-2.085-.273-1.017-.1-1.659-.142-1.668-.273-.013-.115.623-.294,1.682-.353a16.041,16.041,0,0,1,4.093.376c.283.062.556.126.827.193a13.468,13.468,0,0,1,2.849-.869,11.391,11.391,0,0,1,4.111-.093c.96.175,1.454.384,1.437.456-.02.1-.55.046-1.481.024a14.076,14.076,0,0,0-3.873.466,13.262,13.262,0,0,0-1.466.465c.568.183,1.078.368,1.506.537.97.384,1.54.689,1.506.8s-.682.022-1.69-.209c-.7-.158-1.576-.377-2.551-.605a18.516,18.516,0,0,0-2.5,1.455q-.437.309-.869.657c2.043.528,3.382,1.092,3.338,1.24-.052.2-1.744-.149-4.116-.588a19.418,19.418,0,0,0-2.569,2.771c.621.193,1.185.385,1.665.563,1.213.448,1.936.807,1.9.921-.061.189-1.7-.242-4.066-.795-.062.089-.125.174-.187.267a25.588,25.588,0,0,0-1.941,3.579,7.219,7.219,0,0,1,2.393,1.3c-.057.148-1.106-.139-2.679-.646-.309.738-.582,1.473-.819,2.192-.081.246-.161.493-.237.739,1.637.349,2.706.562,2.7.77,0,.192-1.185.335-2.975.184-.314,1.114-.563,2.17-.769,3.143,2.09.38,3.479.6,3.475.816,0,.2-1.469.357-3.677.18-.227,1.185-.408,2.209-.555,3.028,3.627.287,6.281-.015,6.324.278.027.156-1,.511-2.737.734a22.677,22.677,0,0,1-3.8.146c-.131.694-.228,1.074-.308,1.066s-.109-.393-.107-1.088c-.587-.035-1.2-.09-1.824-.17-.1,1.059-.138,1.712-.258,1.722s-.281-.671-.332-1.807c-.066-.006-.129-.014-.192-.024a25.615,25.615,0,0,1-2.567-.561c-.175.777-.283,1.211-.38,1.2-.077,0-.134-.485-.1-1.333a23.7,23.7,0,0,1-2.535-.9c-.267,1.235-.388,1.994-.506,1.977a5.266,5.266,0,0,1-.015-2.207c-.142-.062-.281-.127-.411-.192-.421-.2-.788-.4-1.1-.578-.317,1.052-.483,1.665-.6,1.645-.1-.01-.13-.743.053-1.979C1003.184,811.368,1002.931,811.127,1002.975,811.047Zm3.745-5.358c-.281.558-.538,1.1-.772,1.627.317.1.656.2,1.016.308.241-.665.521-1.347.85-2.034.2-.43.415-.841.631-1.244-.272-.133-.527-.263-.76-.389C1007.335,804.542,1007.014,805.122,1006.72,805.69Zm2.52-.976c-.214.406-.421.823-.626,1.254-.309.643-.583,1.28-.824,1.9.591.173,1.221.35,1.884.523.2-.787.434-1.623.724-2.492.072-.209.146-.421.22-.635C1010.132,805.087,1009.67,804.9,1009.241,804.714Zm1.807-.578a26.3,26.3,0,0,1,1.556-3.228c-.294-.1-.578-.2-.855-.29-.6.864-1.284,1.91-1.961,3.1C1010.187,803.857,1010.609,804,1011.048,804.135Zm-1.458-3.018c-.51.677-.979,1.363-1.413,2.045l.784.276a26.5,26.5,0,0,1,2.117-3.054c-.25-.088-.484-.169-.709-.251Q1009.975,800.611,1009.59,801.118Zm1.276-1.569.746.192c1.113-1.274,1.907-1.95,1.986-1.876.106.089-.476.819-1.356,2.052.261.076.536.156.811.238a20.743,20.743,0,0,1,2.232-2.992c-.643-.107-1.247-.2-1.793-.27A31.149,31.149,0,0,0,1010.866,799.549Zm6.517-5.653c-.224.148-.457.305-.7.474-.743.51-1.564,1.126-2.415,1.846.54.042,1.124.106,1.732.194.282-.285.568-.56.856-.819a19.743,19.743,0,0,1,2.025-1.558C1018.346,793.972,1017.841,793.927,1017.383,793.9Zm7.057-1.4c.5-.322,1-.616,1.494-.876-.327-.068-.645-.128-.953-.183-.169.119-.407.268-.712.447-.661.394-1.634.916-2.779,1.624.442.076.867.158,1.277.246A17.142,17.142,0,0,1,1024.44,792.5Zm-2.492,1.987c-.271-.049-.547-.1-.831-.143-.247-.04-.488-.077-.73-.115a21.888,21.888,0,0,0-2.759,2.207c-.073.07-.146.143-.219.216.084.017.17.03.256.05.672.137,1.318.291,1.927.455A19.25,19.25,0,0,1,1021.947,794.486Zm-4.828,7.1a24.67,24.67,0,0,1,1.95-3.678c-.51-.113-1.039-.231-1.583-.344l-.81-.161a21.751,21.751,0,0,0-2.4,3.132c.1.032.2.063.3.1C1015.491,800.955,1016.351,801.281,1017.119,801.59Zm-1.318,3.817c.073-.28.153-.559.241-.844.216-.729.474-1.473.768-2.224-.774-.261-1.627-.554-2.523-.862l-.483-.165a27.476,27.476,0,0,0-1.606,3.171l.427.124c.466.134.925.255,1.37.371.52-1.191.965-1.885,1.069-1.837.121.054-.1.8-.453,1.987C1015.025,805.233,1015.42,805.323,1015.8,805.408Zm-.273,1.073c-.4-.054-.817-.121-1.248-.207-.251.883-.529,1.909-.778,3.018.5.1.972.2,1.428.282C1015.072,808.617,1015.267,807.582,1015.528,806.481Zm-1.029,7.239c.045-.827.134-1.861.281-3.059q-.728-.081-1.529-.206c-.221,1.118-.381,2.164-.485,3.057C1013.358,813.6,1013.939,813.665,1014.5,813.72Zm-1.86-4.611a25.392,25.392,0,0,1,.9-2.989q-.612-.139-1.249-.321c-.189-.053-.38-.107-.564-.165-.085.216-.166.43-.247.644-.308.826-.572,1.618-.8,2.368l.515.126C1011.681,808.9,1012.167,809,1012.64,809.109Zm-.6,4.29a21.18,21.18,0,0,1,.348-3.1c-.485-.1-.983-.2-1.488-.325-.193-.045-.384-.093-.574-.142q-.157.553-.29,1.061c-.2.755-.354,1.427-.487,2.01C1010.333,813.091,1011.166,813.261,1012.038,813.4Zm-3.145-.65c.062-.592.151-1.275.283-2.037.067-.359.139-.738.224-1.131-.711-.21-1.379-.433-2-.659-.4,1.158-.693,2.231-.912,3.144C1007.211,812.29,1008.016,812.525,1008.893,812.749Zm-3.021-.882a21.851,21.851,0,0,1,.759-3.245q-.56-.224-1.046-.446c-.23.558-.432,1.09-.608,1.584-.214.6-.39,1.146-.538,1.628C1004.841,811.525,1005.326,811.689,1005.872,811.867Z" transform="translate(-963.583 -786.133)" fill="#fff"/>
        <path id="Path_63711" data-name="Path 63711" d="M1033.042,802.258a8.725,8.725,0,0,0,4,1.946,6.252,6.252,0,0,0,4.41-.8c.99-.648,1.313-1.336,1.227-1.391-.106-.091-.58.408-1.531.842a6.759,6.759,0,0,1-3.95.471,10.864,10.864,0,0,1-3.782-1.578c-.913-.574-1.468-.984-1.556-.886C1031.776,800.948,1032.18,801.523,1033.042,802.258Z" transform="translate(-955.27 -782.981)" fill="#fff"/>
        <path id="Path_63712" data-name="Path 63712" d="M1028.464,794.454c.1.411.291.614.4.581.238-.08.166-.938.589-1.835.389-.913,1.075-1.43.979-1.658-.049-.106-.327-.111-.7.085a2.683,2.683,0,0,0-1.266,2.827Z" transform="translate(-956.26 -785.683)" fill="#fff"/>
        <path id="Path_63713" data-name="Path 63713" d="M1039.766,796.5c.732,1.4,1.091,2.665,1.343,2.627.235-.017.252-1.476-.556-3.032s-2-2.394-2.147-2.214C1038.229,794.064,1039.049,795.09,1039.766,796.5Z" transform="translate(-953.388 -784.996)" fill="#fff"/>
      </g>
      <g id="Group_41355" data-name="Group 41355" transform="translate(980.721 817.081)">
        <g id="Group_41354" data-name="Group 41354">
          <g transform="matrix(1, 0, 0, 1, -15.33, -39.1)" filter="url(#Path_63714)">
            <path id="Path_63714-2" data-name="Path 63714" d="M982.171,810.351a25.582,25.582,0,0,1,3.182.828,7.362,7.362,0,0,1,3.877,2.358,4.6,4.6,0,0,1,.679,4.281,5.028,5.028,0,0,1-2.947,3.538,8.259,8.259,0,0,1-5.385-.261,21.288,21.288,0,0,1-2.719-1.07Q980.514,815.187,982.171,810.351Zm-.328,8.849a5.052,5.052,0,0,0,.828.316c2.192.721,3.969.019,4.678-2.363.63-2.07-.307-3.534-2.3-4.174a5.49,5.49,0,0,0-1.085-.252Q982.9,815.962,981.842,819.2Z" transform="translate(-963.53 -771.25)" fill="#fff"/>
          </g>
          <g transform="matrix(1, 0, 0, 1, -15.33, -39.1)" filter="url(#Path_63715)">
            <path id="Path_63715-2" data-name="Path 63715" d="M990.069,819.636c-.171.962.712,1.673,1.858,1.96a7.365,7.365,0,0,0,2.251.229q-.021.811-.041,1.625a8.353,8.353,0,0,1-2.992-.251c-2.71-.686-3.848-2.555-3.213-4.828a3.926,3.926,0,0,1,4.921-2.867c2.457.618,2.97,2.674,2.55,4.5a5.157,5.157,0,0,1-.29.885Q992.585,820.3,990.069,819.636Zm3.247-.831a1.394,1.394,0,0,0-.988-1.824,1.586,1.586,0,0,0-1.866,1.1Q991.886,818.454,993.316,818.806Z" transform="translate(-960.96 -769.81)" fill="#fff"/>
          </g>
          <g transform="matrix(1, 0, 0, 1, -15.33, -39.1)" filter="url(#Path_63716)">
            <path id="Path_63716-2" data-name="Path 63716" d="M994.374,824.542q.632-2.844,1.265-5.685c-.337-.075-.676-.151-1.014-.228q.193-.844.386-1.687.5.114,1,.225l.07-.316c.46-2.035,2.328-2.814,4.652-2.352a5.389,5.389,0,0,1,2.139.883q-.386.831-.778,1.661a3.941,3.941,0,0,0-1.66-.714c-1.247-.249-1.811.277-1.982,1.095-.017.085-.036.17-.054.256q2.336.485,4.679.909-.67,3.717-1.343,7.434-1.25-.226-2.5-.469.558-2.859,1.114-5.717-1.143-.222-2.287-.46-.593,2.849-1.187,5.7Q995.624,824.819,994.374,824.542Z" transform="translate(-959.06 -770.09)" fill="#fff"/>
          </g>
          <g transform="matrix(1, 0, 0, 1, -15.33, -39.1)" filter="url(#Path_63717)">
            <path id="Path_63717-2" data-name="Path 63717" d="M1008.244,816.467l-1.41,10.316q-1.263-.174-2.528-.363.775-5.148,1.551-10.3Q1007.051,816.3,1008.244,816.467Z" transform="translate(-956.2 -769.58)" fill="#fff"/>
          </g>
          <g transform="matrix(1, 0, 0, 1, -15.33, -39.1)" filter="url(#Path_63718)">
            <path id="Path_63718-2" data-name="Path 63718" d="M1008.578,821.191c.116-.935.185-1.735.236-2.4q1.047.131,2.1.251c0,.346,0,.693-.005,1.041l.049.005a2.946,2.946,0,0,1,2.535-.944c1.587.157,2.7,1.27,2.516,3.486l-.371,4.464q-1.261-.1-2.524-.227.2-2.082.4-4.166c.093-.97-.2-1.661-1.079-1.754a1.312,1.312,0,0,0-1.333.743,1.535,1.535,0,0,0-.162.573q-.24,2.164-.482,4.329c-.838-.093-1.679-.192-2.518-.3Z" transform="translate(-955.15 -768.82)" fill="#fff"/>
          </g>
          <g transform="matrix(1, 0, 0, 1, -15.33, -39.1)" filter="url(#Path_63719)">
            <path id="Path_63719-2" data-name="Path 63719" d="M1018.862,817.968q-.062,1.08-.124,2.159.869.05,1.74.091-.041.864-.083,1.728c-.585-.028-1.172-.059-1.757-.093q-.079,1.366-.157,2.73c-.053.908.155,1.339.912,1.379a4.27,4.27,0,0,0,.744-.023q-.033.887-.068,1.773a5.158,5.158,0,0,1-1.657.115,2.711,2.711,0,0,1-1.855-.765,2.978,2.978,0,0,1-.537-2.282q.108-1.54.218-3.081c-.349-.026-.7-.05-1.046-.077q.066-.864.133-1.726c.345.027.69.052,1.036.076q.058-.815.116-1.632Q1017.673,818.162,1018.862,817.968Z" transform="translate(-953.06 -769.05)" fill="#fff"/>
          </g>
          <g transform="matrix(1, 0, 0, 1, -15.33, -39.1)" filter="url(#Path_63720)">
            <path id="Path_63720-2" data-name="Path 63720" d="M1022.2,824.366c.05.975,1.063,1.468,2.234,1.49a7.262,7.262,0,0,0,2.231-.283q.159.8.322,1.592a8.2,8.2,0,0,1-2.951.429c-2.773-.057-4.291-1.62-4.183-3.978a3.909,3.909,0,0,1,4.115-3.9c2.516.049,3.472,1.936,3.473,3.808a5.207,5.207,0,0,1-.082.927Q1024.778,824.442,1022.2,824.366Zm2.953-1.542a1.387,1.387,0,0,0-1.362-1.554,1.584,1.584,0,0,0-1.56,1.49C1023.206,822.788,1024.178,822.81,1025.153,822.824Z" transform="translate(-951.72 -768.55)" fill="#fff"/>
          </g>
          <g transform="matrix(1, 0, 0, 1, -15.33, -39.1)" filter="url(#Path_63721)">
            <path id="Path_63721-2" data-name="Path 63721" d="M1034.438,819.716c-.01.48-.013,1.115.041,2.241q.1,2.106.2,4.213a4.094,4.094,0,0,1-1.083,3.449,5.3,5.3,0,0,1-3.33,1.036,6.725,6.725,0,0,1-2.987-.541q.249-.891.489-1.781a5.21,5.21,0,0,0,2.386.532,1.869,1.869,0,0,0,2.062-2.053c-.005-.165-.01-.328-.017-.493h-.032a2.645,2.645,0,0,1-2.164,1.05,3.374,3.374,0,0,1-3.461-3.646,3.726,3.726,0,0,1,3.529-4.019,2.412,2.412,0,0,1,2.175,1h.033l.047-.9Q1033.384,819.768,1034.438,819.716Zm-2.386,3.175a1.8,1.8,0,0,0-.063-.429,1.338,1.338,0,0,0-1.357-.994c-.884.023-1.6.806-1.574,2.182.018,1.126.627,2,1.685,1.971a1.335,1.335,0,0,0,1.285-1,1.808,1.808,0,0,0,.062-.619Q1032.072,823.447,1032.052,822.891Z" transform="translate(-949.8 -768.55)" fill="#fff"/>
          </g>
          <g transform="matrix(1, 0, 0, 1, -15.33, -39.1)" filter="url(#Path_63722)">
            <path id="Path_63722-2" data-name="Path 63722" d="M1034.3,822.228c-.064-1.11-.14-1.833-.209-2.479q1.043-.062,2.089-.134l.178,1.382.064,0a2.321,2.321,0,0,1,1.993-1.719,2.69,2.69,0,0,1,.512-.012q.095,1.1.188,2.2a3.953,3.953,0,0,0-.666-.006,1.582,1.582,0,0,0-1.591,1.316,2.529,2.529,0,0,0-.012.527q.139,1.911.276,3.821-1.261.091-2.527.165Q1034.448,824.757,1034.3,822.228Z" transform="translate(-947.62 -768.68)" fill="#fff"/>
          </g>
          <g transform="matrix(1, 0, 0, 1, -15.33, -39.1)" filter="url(#Path_63723)">
            <path id="Path_63723-2" data-name="Path 63723" d="M1044.019,826.45l-.236-.735-.05.006a2.994,2.994,0,0,1-2.215,1.175,2.392,2.392,0,0,1-2.829-2.057c-.17-1.958,1.592-3.046,4.376-3.349,0-.036-.008-.071-.012-.107-.046-.4-.337-.937-1.538-.809a4.7,4.7,0,0,0-2.112.787q-.3-.732-.59-1.467a6.932,6.932,0,0,1,2.96-.965c2.586-.286,3.6,1.062,3.83,2.828q.168,1.3.335,2.605a10.559,10.559,0,0,0,.349,1.807Q1045.153,826.317,1044.019,826.45Zm-.706-3.511c-1.3.135-2.28.528-2.188,1.435a.873.873,0,0,0,1.078.787,1.355,1.355,0,0,0,1.2-1,1.564,1.564,0,0,0,0-.4Z" transform="translate(-946.3 -768.79)" fill="#fff"/>
          </g>
          <g transform="matrix(1, 0, 0, 1, -15.33, -39.1)" filter="url(#Path_63724)">
            <path id="Path_63724-2" data-name="Path 63724" d="M1047.655,816.588q.165,1.068.33,2.137.862-.133,1.726-.274.138.854.279,1.708-.871.141-1.742.277.208,1.35.416,2.7c.139.9.432,1.278,1.183,1.159a4.44,4.44,0,0,0,.724-.18q.153.875.3,1.75a5.18,5.18,0,0,1-1.6.458,2.716,2.716,0,0,1-1.977-.361,2.986,2.986,0,0,1-1-2.12l-.429-3.059q-.522.073-1.041.143-.116-.856-.232-1.714c.345-.046.688-.094,1.031-.142q-.114-.811-.228-1.62Q1046.529,817.027,1047.655,816.588Z" transform="translate(-944.6 -769.45)" fill="#fff"/>
          </g>
          <g transform="matrix(1, 0, 0, 1, -15.33, -39.1)" filter="url(#Path_63725)">
            <path id="Path_63725-2" data-name="Path 63725" d="M1051.839,816.12a1.192,1.192,0,0,1-1.072,1.39,1.184,1.184,0,1,1-.4-2.33A1.2,1.2,0,0,1,1051.839,816.12Zm-.812,9.953q-.641-3.723-1.281-7.444,1.2-.207,2.4-.43.69,3.713,1.382,7.426Q1052.279,825.859,1051.027,826.073Z" transform="translate(-943.24 -769.86)" fill="#fff"/>
          </g>
          <g transform="matrix(1, 0, 0, 1, -15.33, -39.1)" filter="url(#Path_63726)">
            <path id="Path_63726-2" data-name="Path 63726" d="M1061.411,819.387c.662,2.684-1.114,4.423-3.266,4.889-2.348.514-4.436-.567-4.894-2.963a3.924,3.924,0,0,1,3.337-4.776A3.82,3.82,0,0,1,1061.411,819.387Zm-5.649,1.356c.263,1.27,1.033,2.1,2.09,1.874.957-.21,1.373-1.239,1.068-2.566-.251-1.1-.948-2.111-2.038-1.87C1055.728,818.433,1055.534,819.654,1055.762,820.743Z" transform="translate(-942.13 -769.5)" fill="#fff"/>
          </g>
          <g transform="matrix(1, 0, 0, 1, -15.33, -39.1)" filter="url(#Path_63727)">
            <path id="Path_63727-2" data-name="Path 63727" d="M1060.637,818.324c-.231-.914-.457-1.685-.65-2.322q1.03-.259,2.058-.529c.125.323.249.648.374.971l.048-.012a2.975,2.975,0,0,1,2.037-1.8c1.548-.434,3,.2,3.633,2.329q.636,2.148,1.273,4.3-1.227.365-2.455.71-.568-2.013-1.135-4.029c-.264-.938-.79-1.477-1.652-1.24a1.317,1.317,0,0,0-.981,1.177,1.5,1.5,0,0,0,.055.594q.562,2.1,1.12,4.209-1.233.326-2.47.639Q1061.264,820.818,1060.637,818.324Z" transform="translate(-940.17 -770.05)" fill="#fff"/>
          </g>
          <g transform="matrix(1, 0, 0, 1, -15.33, -39.1)" filter="url(#Path_63728)">
            <path id="Path_63728-2" data-name="Path 63728" d="M1068.636,819.244a5.136,5.136,0,0,0,2.257-.112c.731-.236.957-.572.836-.938s-.413-.464-1.405-.453c-1.758.01-2.617-.621-2.864-1.482-.407-1.345.487-2.727,2.34-3.332a5.685,5.685,0,0,1,2.255-.3c.036.559.072,1.118.1,1.678a4.163,4.163,0,0,0-1.779.135c-.574.187-.827.511-.711.878.11.339.46.422,1.5.422,1.607-.008,2.452.464,2.829,1.511.457,1.327-.353,2.71-2.605,3.436a6.079,6.079,0,0,1-2.694.294Q1068.668,820.114,1068.636,819.244Z" transform="translate(-938.04 -770.6)" fill="#fff"/>
          </g>
        </g>
      </g>
    </g>
  </g>
</svg>
