<svg xmlns="http://www.w3.org/2000/svg" xmlns:xlink="http://www.w3.org/1999/xlink" width="150" height="96" viewBox="0 0 150 96">
  <defs>
    <clipPath id="clip-path">
      <rect id="Rectangle_90598" data-name="Rectangle 90598" width="150" height="96" transform="translate(5115 -1920)" fill="none" stroke="#707070" stroke-width="1"/>
    </clipPath>
    <filter id="Highlight" x="30.667" y="13.351" width="81.248" height="62.147" filterUnits="userSpaceOnUse">
      <feOffset input="SourceAlpha"/>
      <feGaussianBlur stdDeviation="3" result="blur"/>
      <feFlood/>
      <feComposite operator="in" in2="blur"/>
      <feComposite in="SourceGraphic"/>
    </filter>
  </defs>
  <g id="Mask_Group_41" data-name="Mask Group 41" transform="translate(-5115 1920)" clip-path="url(#clip-path)">
    <g id="Group_41421" data-name="Group 41421" transform="translate(4029.241 -3264.259)">
      <g transform="matrix(1, 0, 0, 1, 1085.76, 1344.26)" filter="url(#Highlight)">
        <text id="Highlight-2" data-name="Highlight" transform="matrix(0.87, -0.48, 0.48, 0.87, 45, 63)" fill="#fdfdfd" font-size="15" font-family="MyriadPro-Bold, Myriad Pro" font-weight="700"><tspan x="0" y="0">Highlight</tspan></text>
      </g>
      <g id="Group_41397" data-name="Group 41397" transform="translate(1106 1349.27)" opacity="0.38">
        <g id="Group_41317" data-name="Group 41317">
          <g id="Group_41316" data-name="Group 41316">
            <path id="Path_63690" data-name="Path 63690" d="M1426.844,931.813c-2.011.245-4,.5-5.969.86-3.421.632-6.765,1.468-10.031,2.416l-.193-.375-1.519-2.984-1.91.548c-.52.145-1.045.312-1.583.473-1.075.328-2.186.68-3.328,1.069-.123.041-.25.086-.375.128a14.721,14.721,0,0,0-.708-2.933,17.727,17.727,0,0,0-1.826-3.755,18.1,18.1,0,0,0-3.636-4.159,19.8,19.8,0,0,0-2.636-1.892,22.911,22.911,0,0,0-3.184-1.565,25.329,25.329,0,0,0-7.76-1.671,30.578,30.578,0,0,0-8.95.817,35.555,35.555,0,0,0-9.141,3.622,34.694,34.694,0,0,0-13.386,13.381,27.652,27.652,0,0,0-2.846,7.671,22.416,22.416,0,0,0-.355,6.946,18.811,18.811,0,0,0,1.4,5.425,17.658,17.658,0,0,0,2.052,3.627,14.617,14.617,0,0,0,1.725,1.968c.206.193.371.333.493.425-.1.085-.2.171-.3.256-1.058.914-2.035,1.8-2.936,2.631-.448.421-.885.818-1.292,1.215l-1.393,1.34.885,1.58.671,1.174q.2.358.394.688a85.277,85.277,0,0,0-11.8,13.715c-1.809,2.76-5.269,8.37-3.97,12.367a3.224,3.224,0,0,0,1.061,1.593,3.479,3.479,0,0,0,2.7.521,2.3,2.3,0,0,0,.281.1,7.773,7.773,0,0,0,3.349-.137l.25-.048q.419-.084.837-.184a65.638,65.638,0,0,0,9.593-3.337l1-.406c-.016.029-.034.055-.05.085a2.759,2.759,0,0,0-.349,1.116,1.309,1.309,0,0,0,.147.659,1.257,1.257,0,0,0,.466.456,2.488,2.488,0,0,0,1.036.256,5.835,5.835,0,0,0,.948-.029,13.72,13.72,0,0,0,1.73-.3,41.856,41.856,0,0,0,5.445-1.781c1.461-.575,2.577-1.071,3.327-1.421.315-.147.56-.268.744-.365l.681.711,3.115,3.217c1,1.016,1.951,1.983,2.84,2.888l1.294,1.3.612.61.323.323a1.091,1.091,0,0,0,.635.255,2.727,2.727,0,0,0,1.009-.142,5.507,5.507,0,0,0,.815-.335,7.879,7.879,0,0,0,1.32-.847,5.138,5.138,0,0,0,1.616-1.935,1.354,1.354,0,0,0,.1-.549.551.551,0,0,0-.07-.247l-.09-.17c-.111-.2-.209-.375-.292-.51-.166-.272-.275-.4-.319-.383s-.024.2.058.507c.04.156.1.347.167.57l.051.163a.27.27,0,0,1,.012.13.978.978,0,0,1-.115.309,5.019,5.019,0,0,1-1.552,1.511,7.471,7.471,0,0,1-1.213.664,4.554,4.554,0,0,1-.68.234,1.785,1.785,0,0,1-.628.062.163.163,0,0,1-.112-.056l-.25-.279-.572-.634-1.218-1.339-2.705-2.936-3.012-3.219-1.6-1.7-.8-.844-.049-.052c-.011-.012,0,0,0-.008l.046-.091c.05-.078.088-.155.145-.236a10.912,10.912,0,0,1,1.594-1.835,15.382,15.382,0,0,1,1.891-1.523,12.8,12.8,0,0,1,4.057-1.948l.246-.053.172-.029c.013,0,.041-.016.047,0l.025.044.006.011.025.055.053.115.211.458.8,1.784,1.444,3.21c1.777,3.921,2.974,6.3,3.156,6.216s-.694-2.616-2.236-6.649l-.59-1.505a50.862,50.862,0,0,0,5.582-2.55,53.165,53.165,0,0,0,5.336-3.041l.847,1.122,3.839,5.014c2.359,3.056,4.29,5.514,5.646,7.195a15.207,15.207,0,0,0,2.222,2.523,14.965,14.965,0,0,0-1.773-2.862c-1.219-1.785-3.026-4.337-5.281-7.472l-3.7-5.119-2.059-2.849L1386,979.362q-.264-.378-.533-.761l-.129-.191-.062-.091-.009-.015a.029.029,0,0,1,0-.037c0-.008,0,0,.01-.017a.961.961,0,0,1,.046-.1l.108-.2c.084-.133.157-.269.25-.4a9.527,9.527,0,0,1,.584-.792,13.58,13.58,0,0,1,1.4-1.485,19.459,19.459,0,0,1,3.442-2.521,20.007,20.007,0,0,1,4.007-1.819,16.092,16.092,0,0,1,2.146-.554,8.946,8.946,0,0,1,2.12-.174c.077.009.161.013.233.024l.193.039.019.009.016.044q.179.507.357,1.011.365,1.034.727,2.053.726,2.038,1.428,4.014l2.719,7.579c1.742,4.827,3.331,9.167,4.685,12.808l.062.166a.118.118,0,0,1,.012.061.831.831,0,0,1-.012.246,2,2,0,0,1-.2.553,4.8,4.8,0,0,1-.774,1.047,9.067,9.067,0,0,1-1.993,1.549,6.445,6.445,0,0,1-3.758,1.071,1.312,1.312,0,0,1-.609-.227,1.511,1.511,0,0,1-.2-.226l-.206-.251c-.265-.32-.492-.589-.68-.8-.375-.428-.592-.639-.631-.609s.1.3.4.785c.151.242.341.539.57.887l.179.27a1.674,1.674,0,0,0,.233.311,1.714,1.714,0,0,0,.8.39,4.654,4.654,0,0,0,2.009-.079,9.509,9.509,0,0,0,2.238-.855,9.747,9.747,0,0,0,2.267-1.631,5.776,5.776,0,0,0,.983-1.25,2.94,2.94,0,0,0,.321-.829,1.742,1.742,0,0,0,.039-.487.814.814,0,0,0-.052-.3l-.06-.177c-1.24-3.706-2.742-8.112-4.43-13-.849-2.441-1.74-5-2.664-7.66q-.356-1.017-.719-2.05a48.886,48.886,0,0,0,5.064-2.883,51.52,51.52,0,0,0,4.671-3.246c.268.392.53.776.781,1.14,2.449,3.517,4.039,5.639,4.2,5.531s-1.125-2.439-3.359-6.1l-1.833-2.988-1.02-1.66c-.085-.143-.172-.285-.26-.43l-.065-.109-.03-.052-.006-.012-.022-.045c-.012-.015.014-.031.022-.043-.016.02.072-.081.117-.135l.176-.186a12.97,12.97,0,0,1,3.765-2.5,14.841,14.841,0,0,1,2.256-.834,10.305,10.305,0,0,1,2.348-.406c.1-.007.179,0,.27,0a.573.573,0,0,1,.1.015l.016.071.255,1.154q.262,1.174.517,2.312c.346,1.514.68,2.973,1,4.364s.641,2.709.933,3.944q.226.926.434,1.786.105.429.208.841l.093.368a.168.168,0,0,1-.015.128,1.886,1.886,0,0,1-.389.516,4.743,4.743,0,0,1-.555.469,7.482,7.482,0,0,1-1.193.7,4.8,4.8,0,0,1-2.064.544.9.9,0,0,1-.313-.066.249.249,0,0,1-.1-.081l-.105-.132c-.143-.181-.268-.333-.374-.452-.21-.239-.341-.351-.382-.324s.008.194.14.486q.1.218.259.529l.089.169a.526.526,0,0,0,.164.194,1.244,1.244,0,0,0,.5.207,4.844,4.844,0,0,0,2.442-.372,7.778,7.778,0,0,0,1.4-.7,5.652,5.652,0,0,0,.711-.531,2.912,2.912,0,0,0,.658-.805,1.19,1.19,0,0,0,.134-.692l-.088-.456q-.081-.423-.167-.863-.174-.881-.361-1.831c-.258-1.264-.532-2.614-.821-4.035l-.941-4.453-.191-.882a8.956,8.956,0,0,0,1.028-.629c.691-.463,1.7-1.165,2.961-2.12a51.276,51.276,0,0,0,4.436-3.721c.409-.395.824-.816,1.229-1.279a8.1,8.1,0,0,0,1.132-1.593,2.316,2.316,0,0,0,.29-1.129,1.216,1.216,0,0,0-.244-.654,1.411,1.411,0,0,0-.531-.391,2.552,2.552,0,0,0-.762-.184c.155-.111.334-.242.546-.4.749-.53,1.762-1.4,3.086-2.51a59.768,59.768,0,0,0,4.718-4.215c.427-.441.873-.909,1.3-1.436,2-2.455,1.7-4.4.953-6.017C1441.368,934,1437.652,930.5,1426.844,931.813Zm8.4,1.428h0Zm0,0Zm-83.83,25.9a19.424,19.424,0,0,1-1.78-3.633,19.1,19.1,0,0,1-1.142-5.264,22.236,22.236,0,0,1,.5-6.631,27.156,27.156,0,0,1,2.833-7.286,33.9,33.9,0,0,1,12.885-12.734,34.766,34.766,0,0,1,8.743-3.492,29.9,29.9,0,0,1,8.552-.859,24.867,24.867,0,0,1,7.44,1.472,22.69,22.69,0,0,1,3.074,1.423,19.515,19.515,0,0,1,2.571,1.733,18.24,18.24,0,0,1,3.641,3.852,19.317,19.317,0,0,1,1.979,3.52,29.507,29.507,0,0,1,1.008,2.781q-3.168,1.082-6.618,2.451a150.478,150.478,0,0,0-15.853,7.466,153.131,153.131,0,0,0-19.154,12.326c-2.519,1.906-4.793,3.756-6.806,5.489C1353.015,961.372,1352.3,960.528,1351.416,959.14Zm-1.87,11.06-.075-.167-.135-.279c-.333-.685-.715-1.469-1.142-2.348l2.319-2.035c.922-.8,1.918-1.644,2.991-2.522,2.141-1.762,4.578-3.67,7.279-5.647a169.43,169.43,0,0,1,19.066-12.071,165.99,165.99,0,0,1,15.667-7.485c2.472-1.023,4.851-1.933,7.1-2.737,1.125-.407,2.22-.778,3.279-1.129l2.677-.862c0-.026.337.6.556,1l.7,1.265.1.178-.552.163a145.822,145.822,0,0,0-21,8.279,158.1,158.1,0,0,0-32.571,21q-3.346,2.81-6.2,5.547Zm82.577-18.666a1.462,1.462,0,0,1-.174.667,7.3,7.3,0,0,1-.959,1.419c-.368.445-.754.862-1.138,1.258-1.55,1.574-3.024,2.819-4.224,3.834-2.094,1.745-3.407,2.783-3.683,3.083-.1-.464-.2-.925-.3-1.4l-.269-1.231-.051-.229a.428.428,0,0,0-.152-.218,1.167,1.167,0,0,0-.232-.168.75.75,0,0,0-.275-.106,1.227,1.227,0,0,0-.3-.062c-.1-.01-.145-.015-.217-.018-.124,0-.254-.01-.372,0a11.424,11.424,0,0,0-2.71.468,15.867,15.867,0,0,0-2.476.938,13.96,13.96,0,0,0-4.169,2.882l-.212.237c-.074.095-.12.133-.242.307a1.759,1.759,0,0,0-.262.444l-.074.228.067.216.2.406.051.1.036.057.071.11c.093.144.186.287.278.43l1.086,1.63q.539.786,1.041,1.518c-.9.46-2.74,1.576-4.853,2.909-2.192,1.385-4.051,2.612-4.807,3.209q-.305-.872-.615-1.753-.362-1.027-.729-2.069l-.378-1.072a.62.62,0,0,0-.094-.2,2.178,2.178,0,0,0-.206-.172.688.688,0,0,0-.234-.147l-.135-.054-.1-.038c-.123-.03-.241-.053-.362-.077s-.225-.024-.338-.036a10.164,10.164,0,0,0-2.489.2,17.411,17.411,0,0,0-2.338.608,21.232,21.232,0,0,0-4.3,1.974,20.693,20.693,0,0,0-3.688,2.744,14.839,14.839,0,0,0-1.53,1.658,10.86,10.86,0,0,0-.655.91c-.106.153-.2.322-.293.483l-.135.256c-.022.041-.044.09-.064.135s-.07.145-.094.217a2.933,2.933,0,0,0-.1.453.114.114,0,0,0,.018.105l.048.1.1.2a1.037,1.037,0,0,0,.105.189l.073.1.139.2.557.769,1.1,1.481,1.123,1.489c-.92.357-3.03,1.386-5.468,2.637-2.485,1.277-4.585,2.4-5.386,2.932l-.611-1.56-.741-1.825-.2-.474-.051-.12-.028-.062-.054-.1-.221-.4-.14-.175-.225-.058a1.625,1.625,0,0,0-.5-.01c-.207.013-.262.033-.379.045l-.307.059a13.718,13.718,0,0,0-4.585,2.094,16.325,16.325,0,0,0-2.094,1.659,12.1,12.1,0,0,0-1.838,2.117c-.069.1-.133.218-.2.326-.036.064-.054.105-.1.2a1.4,1.4,0,0,0-.112.3.812.812,0,0,0-.062.3,1.253,1.253,0,0,0,.012.293.442.442,0,0,0,.1.25l.16.167.857.9.834.87c-.69.222-2.083.729-4.1,1.414a47.466,47.466,0,0,1-5.4,1.53,13.115,13.115,0,0,1-1.625.233,5.062,5.062,0,0,1-.812,0,1.7,1.7,0,0,1-.675-.174.369.369,0,0,1-.193-.382,1.9,1.9,0,0,1,.259-.705,8.785,8.785,0,0,1,1.166-1.533,34.615,34.615,0,0,1,3.172-2.971c1.167-.982,2.417-1.967,3.735-2.958,2.636-1.984,5.534-4,8.629-6.059,6.193-4.108,13.175-8.366,20.628-12.594q.786-.445,1.569-.885c6.9-3.871,13.581-7.36,19.793-10.315,3.341-1.587,6.547-3.021,9.584-4.234,1.518-.605,2.995-1.157,4.425-1.624a25.191,25.191,0,0,1,4.12-1.045,3.928,3.928,0,0,1,1.726.043C1432.034,951.294,1432.1,951.377,1432.123,951.534Zm9.4-12.719a.865.865,0,0,1,.011.333,1.962,1.962,0,0,1-.1.4,4.21,4.21,0,0,1-.4.813,8.7,8.7,0,0,1-.535.773c-.382.5-.8.959-1.209,1.409-1.616,1.8-3.245,3.125-4.5,4.321-1.749,1.65-2.981,2.74-3.551,3.28l-.1-.005a7.525,7.525,0,0,0-1.082.054,25.6,25.6,0,0,0-4.33,1c-1.47.452-2.976.987-4.521,1.577-3.089,1.182-6.334,2.588-9.709,4.154-6.75,3.136-14.021,6.916-21.508,11.158s-14.477,8.554-20.671,12.744c-3.1,2.1-5.991,4.165-8.628,6.209-1.319,1.022-2.571,2.04-3.742,3.063a34.6,34.6,0,0,0-3.222,3.14,12.538,12.538,0,0,0-.859,1.1q-.75.3-1.5.605a65.334,65.334,0,0,1-9.526,3.316c-.274.064-.548.126-.82.18l-.246.047c-3.093.814-3.823-.35-3.851-.668-.122-1.064,1.35-2.49,1.909-3.093a44.579,44.579,0,0,1,3.987-3.706c3.03-2.539,6.69-5.252,10.8-8.115,8.235-5.721,18.3-12.038,29.314-18.406q1.946-1.125,3.868-2.215l2.783-1.531,6.08-3.349c2.039-1.157,4.111-2.184,6.131-3.242l5.976-3.1c1.971-.988,3.931-1.906,5.836-2.835l2.833-1.37,1.392-.674c.465-.213.933-.411,1.394-.616l5.4-2.374c1.745-.791,3.467-1.478,5.136-2.116s3.3-1.205,4.867-1.695a28.481,28.481,0,0,1,4.537-1.064,4.2,4.2,0,0,1,1.917.091A.643.643,0,0,1,1441.527,938.815Zm.56-.88a1.624,1.624,0,0,0-.583-.389,5.02,5.02,0,0,0-2.367-.194,28.787,28.787,0,0,0-4.733,1.016q-2.416.709-4.963,1.645c-1.7.622-3.44,1.294-5.2,2.07l-5.46,2.337c-.466.2-.939.4-1.408.609l-1.4.666-2.853,1.356c-1.92.922-3.893,1.834-5.877,2.818l-3.9,2.008q-1.769.9-3.587,1.849c-1.414.727-2.842,1.463-4.256,2.252-4.27,2.289-8.688,4.746-13.19,7.348-11.043,6.387-21.111,12.791-29.318,18.65-4.1,2.934-7.739,5.728-10.752,8.369-1.5,1.324-2.8,2.652-3.977,3.9-2.439,2.579-1.829,3.741-1.773,4.108-.211.01-6.763-.649,1.4-13.6,3.472-5.506,9.959-12.15,18.538-19.209a160.449,160.449,0,0,1,32.445-20.6,146.474,146.474,0,0,1,20.81-8.128,106.952,106.952,0,0,1,11.339-2.791c1.931-.354,3.883-.657,5.844-.837a41.715,41.715,0,0,1,5.88-.184l.753.039.744.075c.246.029.5.044.738.086l.182.03.083.014-.076.018-.383.093-.765.187-.754.218-1.5.434c-3.983,1.225-7.812,2.71-11.53,4.267-6.889,2.9-13.407,6.042-19.567,9.209-4.553,2.293-9.281,4.8-14.1,7.5-7.572,4.227-14.657,8.5-20.974,12.593-3.167,2.034-6.125,4.051-8.88,5.957-2.736,1.935-5.27,3.759-7.529,5.5a112.689,112.689,0,0,0-10.311,8.733c-.579.548-1.054,1.079-1.482,1.518s-.766.836-1.032,1.161a4.6,4.6,0,0,0-.765,1.025c.088.072,1.272-1.223,3.637-3.331s5.93-5,10.51-8.349c2.281-1.684,4.834-3.456,7.584-5.342,2.77-1.857,5.736-3.83,8.907-5.828,6.326-4.022,13.4-8.244,20.948-12.456,10.714-5.992,20.942-11.131,29.731-15.037,1.247-.547,2.51-1.061,3.769-1.619,11.689-5.179,19.361-6.59,20.851-3.687A6.283,6.283,0,0,1,1442.087,937.935Z" transform="translate(-1333.151 -917.918)" fill="#fff"/>
          </g>
        </g>
        <g id="Group_41319" data-name="Group 41319" transform="translate(40.083 12.371)">
          <g id="Group_41318" data-name="Group 41318">
            <path id="Path_63691" data-name="Path 63691" d="M1406.018,932.252c-.052.281-1.67.247-4.16,1.027-1.248.381-2.71.95-4.348,1.642s-3.475,1.447-5.388,2.214l-9.8,3.9c-2.515.983-4.1,1.561-4.2,1.33s1.3-1.213,3.719-2.511a98.389,98.389,0,0,1,9.7-4.433c1.928-.773,3.762-1.473,5.454-2.088a28.723,28.723,0,0,1,4.659-1.332,11.055,11.055,0,0,1,3.253-.149C1405.655,931.954,1406.039,932.134,1406.018,932.252Z" transform="translate(-1378.106 -931.793)" fill="#fff"/>
          </g>
        </g>
        <g id="Group_41321" data-name="Group 41321" transform="translate(42.249 8.538)">
          <g id="Group_41320" data-name="Group 41320">
            <path id="Path_63692" data-name="Path 63692" d="M1402.678,927.689c.039.535-5.094,1.629-11.141,3.924-6.058,2.254-10.722,4.841-10.992,4.393-.122-.205.9-1.13,2.758-2.323a37.793,37.793,0,0,1,3.365-1.907,46.858,46.858,0,0,1,4.325-1.892,46.069,46.069,0,0,1,4.476-1.415,35.917,35.917,0,0,1,3.726-.758C1401.331,927.4,1402.658,927.446,1402.678,927.689Z" transform="translate(-1380.536 -927.494)" fill="#fff"/>
          </g>
        </g>
        <g id="Group_41323" data-name="Group 41323" transform="translate(42.544 5.953)">
          <g id="Group_41322" data-name="Group 41322">
            <path id="Path_63693" data-name="Path 63693" d="M1397.871,924.776c.077.513-3.753,1.768-8.387,3.476-4.64,1.69-8.388,3.211-8.609,2.75-.215-.433,3.295-2.741,8.08-4.486C1393.737,924.756,1397.806,924.287,1397.871,924.776Z" transform="translate(-1380.866 -924.594)" fill="#fff"/>
          </g>
        </g>
        <g id="Group_41325" data-name="Group 41325" transform="translate(40.414 3.762)">
          <g id="Group_41324" data-name="Group 41324">
            <path id="Path_63694" data-name="Path 63694" d="M1391.633,922.384c.061.515-2.894,1.491-6.451,2.815-3.562,1.305-6.453,2.489-6.69,2.038-.233-.424,2.416-2.4,6.156-3.772S1391.583,921.892,1391.633,922.384Z" transform="translate(-1378.478 -922.137)" fill="#fff"/>
          </g>
        </g>
        <g id="Group_41327" data-name="Group 41327" transform="translate(38.724 2.334)">
          <g id="Group_41326" data-name="Group 41326">
            <path id="Path_63695" data-name="Path 63695" d="M1383.9,920.789c.133.489-1.412,1.436-3.372,2.339s-3.672,1.44-3.915,1,1.162-1.727,3.236-2.675S1383.767,920.309,1383.9,920.789Z" transform="translate(-1376.582 -920.536)" fill="#fff"/>
          </g>
        </g>
        <g id="Group_41329" data-name="Group 41329" transform="translate(73.852 28.594)">
          <g id="Group_41328" data-name="Group 41328">
            <path id="Path_63696" data-name="Path 63696" d="M1440.323,950.486c-.04.276-1.444.391-3.664.829-.555.095-1.163.252-1.813.381-.649.17-1.344.312-2.07.521-1.456.377-3.047.865-4.709,1.415-6.656,2.2-11.837,4.77-12.078,4.308-.111-.211,1.056-1.143,3.126-2.328a48.168,48.168,0,0,1,8.484-3.737,40.956,40.956,0,0,1,4.91-1.323c.761-.169,1.5-.263,2.181-.372.69-.069,1.328-.155,1.915-.169C1438.956,949.893,1440.364,950.251,1440.323,950.486Z" transform="translate(-1415.981 -949.988)" fill="#fff"/>
          </g>
        </g>
        <g id="Group_41331" data-name="Group 41331" transform="translate(59.471 14.627)">
          <g id="Group_41330" data-name="Group 41330">
            <path id="Path_63697" data-name="Path 63697" d="M1444.661,935.006c-.054.137-.679.059-1.823.134a36.828,36.828,0,0,0-4.866.713,150.065,150.065,0,0,0-15.941,4.476c-6.177,2.041-11.705,4.133-15.676,5.724s-6.376,2.718-6.5,2.491c-.117-.208,2.124-1.77,6.033-3.682a127.758,127.758,0,0,1,15.675-6.291,91.338,91.338,0,0,1,16.295-4.015,21.429,21.429,0,0,1,5.065-.14C1444.119,934.567,1444.709,934.9,1444.661,935.006Z" transform="translate(-1399.852 -934.323)" fill="#fff"/>
          </g>
        </g>
        <g id="Group_41333" data-name="Group 41333" transform="translate(0.993 51.326)">
          <g id="Group_41332" data-name="Group 41332">
            <path id="Path_63698" data-name="Path 63698" d="M1360.913,975.521c.233.469-6.5,4.378-13.995,10.294-1.879,1.473-3.632,2.922-5.2,4.269s-2.973,2.57-4.055,3.657c-2.192,2.159-3.091,3.85-3.347,3.756-.112-.041-.039-.532.319-1.359a14.428,14.428,0,0,1,2.061-3.222,42.788,42.788,0,0,1,3.911-4.056c1.54-1.44,3.3-2.958,5.213-4.461a75.661,75.661,0,0,1,10.362-6.877C1358.975,976.011,1360.808,975.308,1360.913,975.521Z" transform="translate(-1334.265 -975.484)" fill="#fff"/>
          </g>
        </g>
        <g id="Group_41335" data-name="Group 41335" transform="translate(18.506 14.739)">
          <g id="Group_41334" data-name="Group 41334">
            <path id="Path_63699" data-name="Path 63699" d="M1361.135,934.487c-4.51-.762-8.029,9.932-7.07,13.757.31,1.235,1.038,2.471,2.3,2.653,1.58.227,3.105-1.264,4.092-2.712a7.666,7.666,0,0,0,1.229-2.518,10.621,10.621,0,0,0,.137-2.339C1361.831,942.178,1364.494,935.054,1361.135,934.487Z" transform="translate(-1353.906 -934.448)" fill="#fff"/>
          </g>
        </g>
        <g id="Group_41337" data-name="Group 41337" transform="translate(61.478 51.68)">
          <g id="Group_41336" data-name="Group 41336">
            <path id="Path_63700" data-name="Path 63700" d="M1402.1,976.824l13,27.321c1.318-.338,2.331-.038,2.5.36-.1-.377-.437-1.83-.514-2.036-2.862-7.828-5.466-14.915-8.063-22.852-.308-.959-.576-2.7-1.394-3.274C1406.409,975.471,1403.773,975.947,1402.1,976.824Z" transform="translate(-1402.103 -975.881)" fill="#fff"/>
          </g>
        </g>
        <g id="Group_41339" data-name="Group 41339" transform="translate(84.139 41.265)">
          <g id="Group_41338" data-name="Group 41338">
            <path id="Path_63701" data-name="Path 63701" d="M1427.519,964.526l5.339,15.066c.7-.112,1.212.1,1.279.315-.03-.2-.132-.987-.161-1.1-1.081-4.273-2.067-8.141-3-12.458-.11-.522-.16-1.452-.554-1.8C1429.826,964.029,1428.432,964.148,1427.519,964.526Z" transform="translate(-1427.519 -964.2)" fill="#fff"/>
          </g>
        </g>
        <g id="Group_41341" data-name="Group 41341" transform="translate(71.156 79.477)">
          <g id="Group_41340" data-name="Group 41340">
            <path id="Path_63702" data-name="Path 63702" d="M1417.995,1007.335c-.041.18-1.23.1-2.6.6-1.377.476-2.3,1.313-2.425,1.192-.057-.051.1-.341.488-.71a5.125,5.125,0,0,1,1.768-1.063,4.774,4.774,0,0,1,2-.278C1417.73,1007.124,1418.013,1007.257,1417.995,1007.335Z" transform="translate(-1412.957 -1007.057)" fill="#fff"/>
          </g>
        </g>
        <g id="Group_41343" data-name="Group 41343" transform="translate(36.072 66.88)">
          <g id="Group_41342" data-name="Group 41342">
            <path id="Path_63703" data-name="Path 63703" d="M1378.685,993.992c-.2-.459-.461-.973-.969-1.053a1.762,1.762,0,0,0-.849.161l-2.382.874c-.346.128-.738.3-.858.642a.4.4,0,0,0,.462.5,63.018,63.018,0,0,1,8.569,12.4,1.786,1.786,0,0,1,2-.219C1382.865,1003.129,1380.472,998.168,1378.685,993.992Z" transform="translate(-1373.608 -992.928)" fill="#fff"/>
          </g>
        </g>
      </g>
    </g>
  </g>
</svg>
