<svg xmlns="http://www.w3.org/2000/svg" xmlns:xlink="http://www.w3.org/1999/xlink" width="150" height="96" viewBox="0 0 150 96">
  <defs>
    <clipPath id="clip-path">
      <rect id="Rectangle_90597" data-name="Rectangle 90597" width="150" height="96" transform="translate(4917 -1902)" fill="none" stroke="#707070" stroke-width="1"/>
    </clipPath>
    <filter id="Path_63855" x="26.114" y="34.074" width="30.813" height="30.008" filterUnits="userSpaceOnUse">
      <feOffset input="SourceAlpha"/>
      <feGaussianBlur stdDeviation="3" result="blur"/>
      <feFlood/>
      <feComposite operator="in" in2="blur"/>
      <feComposite in="SourceGraphic"/>
    </filter>
    <filter id="Path_63856" x="39.983" y="39.115" width="25.792" height="26.229" filterUnits="userSpaceOnUse">
      <feOffset input="SourceAlpha"/>
      <feGaussianBlur stdDeviation="3" result="blur-2"/>
      <feFlood/>
      <feComposite operator="in" in2="blur-2"/>
      <feComposite in="SourceGraphic"/>
    </filter>
    <filter id="Path_63857" x="48.898" y="36.955" width="21.363" height="28.817" filterUnits="userSpaceOnUse">
      <feOffset input="SourceAlpha"/>
      <feGaussianBlur stdDeviation="3" result="blur-3"/>
      <feFlood/>
      <feComposite operator="in" in2="blur-3"/>
      <feComposite in="SourceGraphic"/>
    </filter>
    <filter id="Path_63858" x="53.045" y="38.712" width="23.094" height="27.584" filterUnits="userSpaceOnUse">
      <feOffset input="SourceAlpha"/>
      <feGaussianBlur stdDeviation="3" result="blur-4"/>
      <feFlood/>
      <feComposite operator="in" in2="blur-4"/>
      <feComposite in="SourceGraphic"/>
    </filter>
    <filter id="Path_63859" x="59.16" y="37.824" width="20.807" height="28.557" filterUnits="userSpaceOnUse">
      <feOffset input="SourceAlpha"/>
      <feGaussianBlur stdDeviation="3" result="blur-5"/>
      <feFlood/>
      <feComposite operator="in" in2="blur-5"/>
      <feComposite in="SourceGraphic"/>
    </filter>
    <filter id="Path_63860" x="63.129" y="43.732" width="22.125" height="19.561" filterUnits="userSpaceOnUse">
      <feOffset input="SourceAlpha"/>
      <feGaussianBlur stdDeviation="3" result="blur-6"/>
      <feFlood/>
      <feComposite operator="in" in2="blur-6"/>
      <feComposite in="SourceGraphic"/>
    </filter>
    <filter id="Path_63861" x="68.495" y="40.885" width="24.346" height="25.659" filterUnits="userSpaceOnUse">
      <feOffset input="SourceAlpha"/>
      <feGaussianBlur stdDeviation="3" result="blur-7"/>
      <feFlood/>
      <feComposite operator="in" in2="blur-7"/>
      <feComposite in="SourceGraphic"/>
    </filter>
    <filter id="Path_63862" x="75.68" y="37.493" width="25.943" height="28.757" filterUnits="userSpaceOnUse">
      <feOffset input="SourceAlpha"/>
      <feGaussianBlur stdDeviation="3" result="blur-8"/>
      <feFlood/>
      <feComposite operator="in" in2="blur-8"/>
      <feComposite in="SourceGraphic"/>
    </filter>
    <filter id="Path_63863" x="84.848" y="39.725" width="25.35" height="25.795" filterUnits="userSpaceOnUse">
      <feOffset input="SourceAlpha"/>
      <feGaussianBlur stdDeviation="3" result="blur-9"/>
      <feFlood/>
      <feComposite operator="in" in2="blur-9"/>
      <feComposite in="SourceGraphic"/>
    </filter>
    <filter id="Path_63864" x="92.553" y="35.9" width="21.862" height="28.602" filterUnits="userSpaceOnUse">
      <feOffset input="SourceAlpha"/>
      <feGaussianBlur stdDeviation="3" result="blur-10"/>
      <feFlood/>
      <feComposite operator="in" in2="blur-10"/>
      <feComposite in="SourceGraphic"/>
    </filter>
    <filter id="Path_63865" x="97.05" y="37.533" width="26.652" height="26.27" filterUnits="userSpaceOnUse">
      <feOffset input="SourceAlpha"/>
      <feGaussianBlur stdDeviation="3" result="blur-11"/>
      <feFlood/>
      <feComposite operator="in" in2="blur-11"/>
      <feComposite in="SourceGraphic"/>
    </filter>
  </defs>
  <g id="Mask_Group_40" data-name="Mask Group 40" transform="translate(-4917 1902)" clip-path="url(#clip-path)">
    <g id="Group_41420" data-name="Group 41420" transform="translate(3966.726 -2671.951)">
      <g id="Group_41393" data-name="Group 41393" transform="translate(958.647 778.952)" opacity="0.38">
        <path id="Path_63848" data-name="Path 63848" d="M987.959,817.47a16.394,16.394,0,0,0-1.807,1.334c-.279.238-.557.473-.834.707l-.733.777-.361.383c-.113.132-.207.28-.309.415-.2.28-.414.549-.593.83-.16.291-.318.581-.475.868a8.957,8.957,0,0,0-.363.892,7.882,7.882,0,0,0-.456,2.522c.9.4,1.77.741,2.54,1.044a9.944,9.944,0,0,1,1.1-4c.163-.328.376-.632.564-.952.1-.154.189-.322.3-.469l.347-.438c.24-.289.458-.6.72-.871l.807-.8a19.163,19.163,0,0,1,2-1.645,13.129,13.129,0,0,1-1.634-1.122A7.717,7.717,0,0,0,987.959,817.47Zm.834,14.177c-.034-.208-.065-.42-.091-.633q-1.161-.373-2.305-.781l-.154-.056c-.143-.049-.285-.1-.425-.15.034.234.077.465.117.691C986.882,831.054,987.839,831.361,988.793,831.647Zm-2.206,1.593c.042.13.086.259.127.388q1.3.465,2.762.937c-.051-.159-.1-.32-.144-.482Q987.957,833.69,986.587,833.24Zm-.229-5.317c.233.086.468.165.7.248.194.068.386.139.578.207.325.111.655.218.98.327a10.488,10.488,0,0,1,.382-2.236,11.507,11.507,0,0,1,1.816-3.688,7.521,7.521,0,0,1,.651-.817c.231-.258.443-.532.681-.774.5-.453.961-.945,1.477-1.346.048-.037.095-.075.142-.108-.441-.194-.879-.392-1.314-.6-.279-.138-.569-.28-.861-.428a19.013,19.013,0,0,0-2.343,1.88l-.75.74c-.243.251-.439.533-.66.793l-.323.4c-.1.134-.18.281-.274.423-.169.284-.366.555-.514.845a9.127,9.127,0,0,0-1.046,3.579c-.008.1-.009.2-.014.3Zm29.775,12.168c-.035-.287-.068-.578-.1-.876q-2.628-.3-5.24-.667c.03.284.057.562.091.835Q1013.438,839.765,1016.132,840.091Zm-5.11.407c.071.513.144,1.005.217,1.467.033.187.062.37.093.545q2.559.365,5.278.681c-.013-.074-.026-.145-.043-.221-.1-.537-.194-1.115-.283-1.728Q1013.589,840.9,1011.022,840.5Zm4.839-3.621c-.011-.2-.019-.391-.024-.594q-2.624-.3-5.228-.667c0,.211.013.421.02.629Q1013.241,836.6,1015.861,836.878Zm-.013-2.757a23.783,23.783,0,0,1,.252-2.569,19.972,19.972,0,0,1,1.911-5.93q-2.279-.306-4.553-.682a16.121,16.121,0,0,0-2.367,5.453,17.135,17.135,0,0,0-.449,3.061C1012.373,833.7,1014.109,833.918,1015.848,834.121Zm8.223,11.87c2.1.139,4.265.258,6.48.357-.028-.252-.056-.52-.082-.8-2.177-.114-4.316-.262-6.4-.44C1024.075,845.459,1024.077,845.758,1024.071,845.991Zm14.356-18.908q-3.108-.049-6.219-.2a51.2,51.2,0,0,0-.84,7.027c-.029.491-.049.982-.067,1.464q3.322.149,6.646.209c.01-.424.018-.847.025-1.28C1038.051,831.674,1038.211,829.206,1038.427,827.083Zm-.433,18.714-1.093-.016q-2.878-.059-5.675-.2c0,.277,0,.543-.009.789,2.223.091,4.5.154,6.81.189C1038.014,846.323,1038,846.069,1037.994,845.8Zm.651-20.61c.047-.376.1-.738.153-1.082a25.64,25.64,0,0,1,.662-3.226l-1.672-.038c-1.209-.033-2.431-.069-3.659-.113l0,0c-.148.348-.322.767-.526,1.251-.175.5-.4,1.052-.585,1.689-.13.407-.255.844-.373,1.3Q1035.64,825.134,1038.645,825.186Zm-6.99-.271q.261-.825.554-1.535a17.5,17.5,0,0,1,.778-1.686c.211-.382.416-.709.6-.989q-2.4-.095-4.819-.248a21.681,21.681,0,0,0-1.619,2.3c-.3.525-.613,1.107-.908,1.748Q1028.936,824.754,1031.654,824.915Zm-24.472-9.544a1.2,1.2,0,0,1-.053-.334c0-.286.013-.567.02-.851-.164.071-.351.146-.559.227-.459.179-1.022.39-1.679.627l-2.186.9a43.434,43.434,0,0,0-5.448,2.74l-.119.077q1.254.456,2.532.849c.609-.422,1.223-.786,1.8-1.144.85-.459,1.651-.873,2.39-1.219.758-.308,1.44-.588,2.044-.835.459-.17.877-.3,1.245-.4A1.209,1.209,0,0,1,1007.182,815.371Zm.037-5.116c-1.1.323-2.722.657-4.678,1.254-1.968.53-4.288,1.247-6.807,2.17-1.246.493-2.57.974-3.865,1.629-.33.151-.663.306-1,.461-.035.016-.071.037-.106.057a13.963,13.963,0,0,0,1.649.95c1.056-.607,2.111-1.121,3.128-1.579l1.73-.745,1.674-.588c.541-.187,1.059-.376,1.565-.537.512-.14,1-.277,1.467-.407.94-.243,1.776-.509,2.532-.651.754-.156,1.4-.282,1.936-.378.358-.064.654-.115.9-.151.067-.537.156-1.067.261-1.6C1007.489,810.18,1007.357,810.216,1007.219,810.255Zm.48-.542c.121-.559.256-1.115.412-1.66-.311.1-.8.238-1.467.4-.6.15-1.342.324-2.2.523-.863.178-1.835.433-2.908.718s-2.258.545-3.5.924l-1.928.58c-.661.2-1.354.382-2.034.646-1.368.5-2.83.962-4.269,1.621-.286.125-.575.245-.866.368.014.033.025.068.042.1a3.886,3.886,0,0,0,.781,1.063c.189-.108.381-.213.575-.3.348-.158.69-.313,1.032-.47a41.353,41.353,0,0,1,3.99-1.6,61.789,61.789,0,0,1,6.98-1.953c2-.494,3.655-.7,4.79-.884Zm-1.137,2.636q-.772.25-1.873.575c-.734.2-1.544.523-2.455.817-.453.15-.93.311-1.424.475-.486.19-.993.386-1.513.59s-1.063.417-1.619.632l-1.666.776c-.743.356-1.507.745-2.273,1.168.392.17.76.323,1.086.464s.68.278,1.021.415c.29-.182.578-.364.858-.541a35.462,35.462,0,0,1,5.713-2.578c.844-.284,1.6-.545,2.279-.746.682-.175,1.273-.323,1.757-.434.274-.063.508-.112.71-.151.028-.579.082-1.149.148-1.715C1007.1,812.17,1006.851,812.254,1006.562,812.348Zm-7.631,9.291a14.778,14.778,0,0,0-3.556,4.529,11.229,11.229,0,0,0-1.093,4.187q1.9.488,3.815.9c0-.071.009-.14.013-.213a13.437,13.437,0,0,1,.881-3.792,14.594,14.594,0,0,1,1.905-3.382c.393-.455.75-.928,1.154-1.339Q1000.483,822.116,998.931,821.639Zm-4.6,10.97v.015c.017.187.041.368.061.55q1.883.477,3.782.894c-.02-.19-.037-.386-.054-.583-.09-.019-.183-.042-.274-.061q-.444-.094-.885-.194c-.318-.069-.632-.143-.95-.218-.187-.042-.372-.086-.556-.13C995.074,832.795,994.7,832.7,994.326,832.609Zm7.521-8.027a13.982,13.982,0,0,0-1.728,3.114,12.757,12.757,0,0,0-.826,3.45c-.011.122-.014.24-.024.362q2.132.441,4.27.821a14.752,14.752,0,0,1,.581-3.35,15.239,15.239,0,0,1,2.8-5.288q-1.044-.225-2.08-.467c-.5-.116-1-.24-1.5-.362-.131.135-.265.272-.4.407C1002.554,823.671,1002.223,824.138,1001.848,824.582Zm1.733,10.563c-.016-.2-.03-.41-.044-.617q-1.79-.308-3.58-.663c-.087-.019-.177-.038-.267-.054-.137-.028-.274-.057-.411-.083.014.2.032.392.048.589C1000.739,834.613,1002.158,834.893,1003.58,835.145Zm-3.95,1.451c.045.25.091.493.14.736q2.039.458,4.23.879c-.048-.259-.093-.52-.138-.787Q1001.742,837.038,999.631,836.6Zm6.226-15.359c.93.214,1.864.417,2.8.615.063-.061.127-.117.188-.175a10.819,10.819,0,0,1,1.165-.959,19.9,19.9,0,0,1,2.24-1.5q.811-.456,1.521-.8-1.455-.333-2.883-.734l-.1.05c-.584.309-1.248.657-1.98,1.044-.352.216-.721.44-1.106.677a11.374,11.374,0,0,0-1.177.759l-1.214.872-.024.016C1005.481,821.148,1005.667,821.2,1005.857,821.238Zm6.85-1.288a22.161,22.161,0,0,0-2.066,1.555c-.237.194-.481.395-.718.61,1.256.253,2.515.488,3.783.71a12.012,12.012,0,0,1,.976-1.01q.513-.456.99-.883c.334-.263.67-.494.984-.725a11.42,11.42,0,0,1,1.452-.935q-1.661-.274-3.308-.624C1014.189,819.006,1013.485,819.441,1012.707,819.95Zm4.469.938c-.281.241-.588.484-.89.754-.285.284-.586.58-.893.888a4.693,4.693,0,0,0-.468.5q2.121.354,4.264.651a17.193,17.193,0,0,1,2.029-2.357l.779-.714c.252-.218.513-.392.747-.569.048-.038.095-.068.143-.1-1.266-.145-2.53-.31-3.787-.5q-.155.108-.317.231C1018.306,820.026,1017.733,820.387,1017.176,820.889Zm4.659,1.035a19.623,19.623,0,0,0-1.5,1.916q2.4.314,4.83.555a18.3,18.3,0,0,1,1.262-2.11,14.161,14.161,0,0,1,1.627-1.875q-2.143-.151-4.289-.376A25.609,25.609,0,0,0,1021.835,821.924Zm3.613,4.514c-.045.134-.092.265-.139.4a28.386,28.386,0,0,0-1.167,5.381c-.114.916-.182,1.816-.223,2.692q3.084.246,6.178.4c.011-.486.031-.974.058-1.47a40.119,40.119,0,0,1,.971-7.013Q1028.286,826.683,1025.448,826.437Zm4.912,17.9c-.042-.569-.085-1.183-.122-1.836q-3.2-.174-6.277-.44c0,.1.005.193.01.286.021.574.042,1.1.059,1.575Q1027.127,844.164,1030.36,844.333Zm-.187-3.039c-.011-.319-.027-.646-.038-.982q-3.121-.138-6.236-.367c.005.319.015.632.021.933Q1026.991,841.129,1030.174,841.293Zm-.091-3.274c0-.169-.006-.342-.006-.514q-3.11-.172-6.21-.425v.53Q1026.963,837.848,1030.083,838.019Zm-5.828-11.551c.018-.043.036-.09.052-.134q-2.561-.236-5.119-.557c-.036.073-.076.142-.112.218a20.809,20.809,0,0,0-1.777,5.747c-.131.851-.211,1.695-.257,2.518,1.894.212,3.792.391,5.69.55.03-.888.093-1.8.206-2.739A25.35,25.35,0,0,1,1024.255,826.469Zm-1.139,15.94c-.019-.14-.033-.284-.052-.43q-2.961-.267-5.794-.614.07.783.146,1.483c.015.149.033.3.048.439q2.851.318,5.848.571C1023.247,843.418,1023.179,842.938,1023.116,842.409Zm-.172-1.611c-.027-.3-.053-.615-.077-.935q-2.883-.227-5.755-.533c.019.3.039.6.06.884Q1020,840.54,1022.945,840.8Zm-2.223-3.447c.672.059,1.347.115,2.018.17-.005-.178-.011-.357-.016-.538q-2.87-.252-5.724-.568c0,.2.008.391.01.585Q1018.864,837.191,1020.721,837.352Zm-8.49-12.62q-2.034-.356-4.051-.776a15.118,15.118,0,0,0-2.9,5.365,14.509,14.509,0,0,0-.562,3.212l.053.01c.3.052.6.1.894.15.166.029.335.055.5.082.469.078.939.149,1.409.221.627.1,1.251.194,1.878.287a17.254,17.254,0,0,1,.45-3.165A16.039,16.039,0,0,1,1012.232,824.732Zm-2.52,13.659q-2.376-.354-4.739-.768c.037.27.076.533.115.792q2.3.426,4.744.808C1009.789,838.951,1009.75,838.675,1009.712,838.391Zm-.229-2.305c-.014-.206-.022-.419-.033-.629l-.069-.01-.528-.08c-.329-.047-.66-.1-.991-.146-.053-.006-.1-.016-.157-.024q-1.5-.223-3-.473c.011.211.019.419.035.623Q1007.107,835.754,1009.482,836.086Zm-5.264,3.194q-2.185-.446-4.232-.926c.149.646.308,1.257.468,1.827.047.161.091.318.137.47q2.007.416,4.195.81C1004.591,840.79,1004.4,840.061,1004.219,839.281Zm-4.2,2.178c-.725-.168-1.435-.338-2.125-.511-.551-.136-1.09-.271-1.613-.409.287.786.525,1.4.676,1.816.368.129.738.256,1.11.376.846.164,1.752.335,2.72.5C1000.547,842.728,1000.289,842.133,1000.019,841.458Zm-1.927-1.344c.5.115,1.023.226,1.547.341a.054.054,0,0,0,0-.011c-.251-.713-.5-1.5-.723-2.347q-1.948-.473-3.749-.981c.091.329.185.65.276.956.174.559.347,1.073.511,1.547Q996.987,839.865,998.092,840.114Zm.574-3.034c-.054-.235-.1-.475-.154-.721-1.25-.271-2.5-.559-3.742-.859.048.221.1.438.149.649Q996.714,836.628,998.666,837.08Zm-4.037,1.269c-.182-.477-.359-.994-.528-1.539-1.135-.327-2.22-.662-3.255-1,.033.1.064.207.1.306.314.936.635,1.754.931,2.452q1.489.409,3.187.831C994.918,839.07,994.774,838.721,994.629,838.349Zm-.807-2.493c-.056-.206-.107-.415-.156-.625-1.068-.265-2.151-.544-3.24-.841.047.176.093.35.144.521Q992.117,835.388,993.822,835.855Zm-.638-2.987.049.011c0-.047-.013-.091-.018-.138-.018-.14-.035-.284-.048-.43l-.687-.181-.063-.019q-1.292-.352-2.573-.742c.023.206.048.41.077.61C991.025,832.294,992.118,832.588,993.184,832.868Zm-3.047-3.677c.02.006.04.015.064.021.969.3,1.943.575,2.921.839.017-.264.042-.528.078-.794a11.707,11.707,0,0,1,1.081-3.613,14.665,14.665,0,0,1,3.385-4.415q-1.337-.448-2.65-.972c-.208.168-.419.337-.632.5-.483.381-.9.844-1.37,1.269-.221.227-.412.478-.622.716a7.013,7.013,0,0,0-.6.75,10.469,10.469,0,0,0-2.056,5.573C989.872,829.107,990,829.15,990.137,829.19Zm-4.63,3.682c-.773-.271-1.536-.565-2.291-.874.042.11.081.216.124.322.707.3,1.474.6,2.294.908C985.592,833.114,985.549,832.994,985.507,832.873Zm-.689-2.561c-.045-.232-.088-.467-.125-.707-.053-.019-.107-.04-.163-.062l-.062-.024-.074-.028c-.692-.266-1.412-.551-2.144-.859.043.228.088.451.141.668C983.183,829.666,984,830,984.819,830.312Zm22.643-23.9c-1.41.327-3.472.671-5.98,1.285-2.515.549-5.5,1.28-8.745,2.276-.671.213-1.358.429-2.056.651a3.914,3.914,0,0,0-1.827,1.948c.163-.068.325-.135.484-.2,1.484-.661,2.979-1.111,4.385-1.589.7-.251,1.4-.415,2.081-.6s1.333-.357,1.971-.53c1.269-.341,2.478-.547,3.569-.79s2.085-.431,2.964-.547c.876-.134,1.633-.24,2.251-.323.754-.095,1.3-.153,1.62-.161.17-.579.353-1.149.563-1.71C1008.4,806.2,1007.975,806.3,1007.462,806.416Zm.4,10.336a1.092,1.092,0,0,1-.449-.289c-.357.166-.769.346-1.23.569-.569.291-1.214.619-1.926.981-.7.389-1.454.829-2.251,1.309-.32.222-.655.444-.992.678.981.28,1.971.542,2.961.786l.694-.552q.673-.445,1.3-.858a11.371,11.371,0,0,1,1.256-.729c.41-.218.806-.428,1.18-.629.516-.233,1-.438,1.45-.629C1009.191,817.19,1008.525,816.979,1007.866,816.752Zm31.223-27.611c-14.792-.258-29.679,10.078-29.79,25.8,9.06,2.946,19.095,3.5,28.528,3.737,9.938.253,20.528.137,30.138-2.767C1068.418,800.206,1053.811,789.4,1039.088,789.141Zm.5,36.059q2.927.028,5.849-.038c-.02-.34-.04-.668-.064-.981-.092-1.4-.225-2.513-.3-3.258-1.736.011-3.468-.005-5.178-.038-.044.728-.149,1.863-.242,3.312C1039.627,824.517,1039.607,824.85,1039.585,825.2Zm7,15.267c-.022.359-.05.71-.076,1.054q3.063-.07,6.04-.222c.025-.339.053-.689.076-1.045Q1049.615,840.394,1046.587,840.467Zm6.154-2.244c.006-.2.016-.395.025-.593q-3.015.134-6.033.189c-.009.19-.015.377-.024.564Q1049.723,838.346,1052.741,838.224Zm-5.918-3.656c0,.338-.013.675-.017,1.008.348-.005.7-.016,1.047-.025q1.1-.025,2.2-.058c.588-.022,1.177-.049,1.764-.074.334-.011.667-.026,1-.04,0-.459,0-.922,0-1.392a43.67,43.67,0,0,0-.641-7.123q-2.809.138-5.607.194C1046.761,829.256,1046.856,831.827,1046.823,834.568Zm11.433,5.372q-2.253.146-4.517.26c-.036.354-.073.7-.111,1.043q2.845-.157,5.6-.382c.038-.324.073-.657.106-.995C1058.974,839.888,1058.613,839.915,1058.256,839.94Zm1.247-2.112c.015-.2.028-.406.04-.61q-2.794.214-5.6.354c-.009.2-.021.4-.036.6Q1056.71,838.04,1059.5,837.828Zm-6.032,4.619q-.136.986-.284,1.853c1.8-.1,3.56-.213,5.27-.349l.351-.029c.089-.584.179-1.211.267-1.875Q1056.325,842.283,1053.471,842.447Zm.561-8.478q.006.683-.006,1.351c.532-.026,1.066-.058,1.6-.089.562-.03,1.124-.059,1.686-.1.647-.042,1.292-.091,1.938-.139.122-.006.243-.016.366-.025q.006-.772-.028-1.56a27.157,27.157,0,0,0-.865-5.874c-.1-.377-.216-.742-.329-1.095q-2.569.223-5.135.363A35.575,35.575,0,0,1,1054.033,833.969Zm33.173,1.631c-.062.185-.124.372-.189.552.223-.063.45-.13.671-.2.732-.218,1.444-.446,2.131-.677.058-.147.113-.3.169-.459C1089.056,835.1,1088.122,835.355,1087.206,835.6Zm3.5-3.164c.038-.163.075-.329.111-.5l-.521.167c-.2.064-.4.125-.6.185-.235.072-.47.144-.709.213-.267.079-.532.154-.8.228-.1.028-.194.058-.29.086-.029.158-.062.309-.091.464C1088.78,833.024,1089.747,832.745,1090.706,832.435Zm-2.579-1.993.149-.042c.9-.259,1.853-.535,2.829-.842,0-.047.008-.091.008-.138a10.365,10.365,0,0,0-3.014-7.331,17.872,17.872,0,0,0-2.038-1.863c-.711.356-1.454.678-2.193.967.3.294.6.6.9.893q.338.418.683.845l.343.428c.112.145.2.31.3.464A11.831,11.831,0,0,1,1088.127,830.443Zm3,4.029c-.052.14-.107.276-.161.41.8-.285,1.563-.575,2.29-.873.048-.107.095-.209.14-.316C1092.647,833.973,1091.887,834.229,1091.126,834.472Zm3.181-3.393c.04-.151.081-.3.116-.456-.048.02-.1.036-.148.055-.117.048-.236.1-.353.14q-.49.193-.981.378c-.12.044-.241.086-.358.131-.2.076-.406.15-.613.219-.031.169-.067.333-.1.5C1092.694,831.75,1093.51,831.429,1094.306,831.08Zm-31.721-9.3a16.942,16.942,0,0,1,1.483,1.834q1.948-.282,3.877-.61a17.273,17.273,0,0,0-1.9-1.888c-.289-.242-.542-.5-.818-.7s-.532-.395-.774-.578-.462-.359-.675-.506l-.139-.091q-1.647.34-3.316.6A16.538,16.538,0,0,1,1062.586,821.778Zm-2.974-1.827c-1.261.187-2.532.339-3.806.463a13.608,13.608,0,0,1,1.839,2.2,14.374,14.374,0,0,1,.982,1.683c1.456-.159,2.91-.334,4.351-.531-.342-.518-.692-.992-1.033-1.419A25.324,25.324,0,0,0,1059.612,819.95Zm7.113,19.276c-.048.3-.1.6-.158.892,1.6-.194,3.162-.4,4.686-.63.054-.269.1-.54.151-.817Q1069.07,838.98,1066.724,839.226Zm5-2.74c.021-.193.042-.382.059-.578q-2.348.323-4.709.593c-.019.2-.039.406-.061.6Q1069.375,836.827,1071.721,836.486Zm-5.394,4.792c-.152.694-.319,1.342-.485,1.951q2.423-.284,4.669-.6c.169-.621.342-1.3.5-2.015C1069.489,840.857,1067.924,841.078,1066.327,841.278Zm.781-8.742c.043.6.062,1.183.06,1.759l.527-.058.305-.033c.39-.043.776-.09,1.163-.135l.354-.04c.37-.047.739-.089,1.1-.136l.438-.057.817-.108a18.865,18.865,0,0,0-.2-2.716,17.413,17.413,0,0,0-.833-3.191c-.2-.494-.4-.977-.627-1.438-.259-.446-.461-.909-.74-1.314-.016-.028-.034-.051-.052-.077q-2.064.371-4.147.667.136.269.262.549A18.711,18.711,0,0,1,1067.108,832.536Zm-2.279-13.263c.266.163.55.334.85.518s.59.429.911.658a15.8,15.8,0,0,1,2.541,2.341c.859-.154,1.713-.315,2.567-.484.214-.043.508-.1.869-.169-.17-.149-.34-.3-.5-.439-.351-.295-.667-.61-1.014-.863l-.99-.728c-1.074-.747-2.015-1.334-2.75-1.757-.937.258-1.883.5-2.834.709C1064.585,819.128,1064.7,819.2,1064.829,819.273Zm5.794,5.5c.216.346.4.72.624,1.083.251.493.484,1.009.7,1.54a17.339,17.339,0,0,1,.926,3.431,18.528,18.528,0,0,1,.2,2.738c.149-.021.3-.042.448-.066.217-.032.434-.063.648-.1.27-.039.537-.078.8-.121l.745-.117c.237-.04.471-.077.71-.117l.826-.142.095-.016a13.983,13.983,0,0,0-3.1-8.877C1073.049,824.286,1071.837,824.537,1070.623,824.77Zm2.277,11.538q2.138-.331,4.258-.715c.024-.169.044-.338.062-.508-.549.09-1.1.18-1.645.264a.487.487,0,0,1-.07.011l-.13.02c-.242.037-.485.077-.729.114l-.426.063c-.419.062-.837.125-1.257.185C1072.942,835.931,1072.92,836.122,1072.9,836.308Zm5.277-6.932a14.815,14.815,0,0,1,.366,3.294c.079-.014.156-.026.235-.043l.566-.1.928-.185c.175-.034.354-.069.534-.107.311-.062.623-.13.933-.2l.529-.113.115-.025c0-.222,0-.444-.011-.67a12.394,12.394,0,0,0-.671-3.466,13.389,13.389,0,0,0-1.617-3.145c-.367-.448-.684-.921-1.062-1.332-.132-.131-.258-.267-.382-.4-1.052.3-2.11.574-3.173.834A14.209,14.209,0,0,1,1078.177,829.376Zm.164,6q1.549-.293,3.09-.618c.238-.052.475-.1.714-.153a.225.225,0,0,0,.006-.043c.023-.129.037-.257.053-.386-1.265.26-2.532.494-3.8.713C1078.387,835.049,1078.363,835.211,1078.34,835.371Zm-.188-14.484c.849-.222,1.721-.467,2.583-.739-.432-.294-.86-.585-1.28-.868a40.683,40.683,0,0,0-5.73-2.9l-2.308-.936c-.477-.164-.9-.317-1.281-.455,0,.324,0,.649-.006.976a1.185,1.185,0,0,1-.088.411.983.983,0,0,1,.026.161,15.058,15.058,0,0,1,1.488.521c.616.265,1.321.561,2.089.919.375.2.763.414,1.17.634a12.324,12.324,0,0,1,1.245.741c.416.283.847.57,1.289.87C1077.61,820.442,1077.881,820.663,1078.153,820.887Zm-8.028-6.452c.436.1.941.224,1.506.366.71.214,1.512.486,2.4.779a34.706,34.706,0,0,1,6.012,2.745c.526.343,1.067.691,1.619,1.049.144.1.285.213.426.32.721-.254,1.416-.525,2.071-.817-.946-.605-1.908-1.139-2.84-1.618q-.879-.422-1.714-.825c-.557-.267-1.127-.464-1.663-.69s-1.061-.429-1.56-.633c-.512-.175-1-.346-1.473-.506-.942-.311-1.78-.639-2.539-.86s-1.41-.425-1.942-.6c-.137-.047-.265-.087-.385-.126C1070.083,813.493,1070.112,813.965,1070.124,814.435Zm.42-1.744c.551.1,1.224.238,2.005.4s1.65.435,2.622.7c.483.14.993.279,1.519.439l1.615.579c.555.212,1.143.391,1.72.647s1.175.53,1.787.8a31.79,31.79,0,0,1,3.594,2.013,10.85,10.85,0,0,0,1.517-.964,35.705,35.705,0,0,0-4.585-2.189c-1.274-.569-2.544-.962-3.715-1.381-1.168-.439-2.294-.728-3.309-1.035-2.024-.641-3.708-1.018-4.852-1.348-.238-.068-.448-.13-.643-.187.077.473.135.95.185,1.43C1070.168,812.623,1070.346,812.656,1070.544,812.691Zm14.54,11.8c-.091-.14-.17-.29-.272-.424l-.318-.391c-.209-.265-.419-.522-.624-.781-.425-.414-.825-.845-1.25-1.238-.989.346-1.929.633-2.726.865.411.425.764.925,1.156,1.4a14.059,14.059,0,0,1,1.8,3.439,12.934,12.934,0,0,1,.711,3.816c.006.15.006.3.006.448l.17-.04c.285-.066.57-.136.858-.208.2-.048.408-.1.614-.149.252-.063.506-.13.758-.2l.716-.189.3-.082A11,11,0,0,0,1085.084,824.492Zm1.571,8.656c-.079.023-.159.041-.241.063q-1.5.382-3.024.714c-.02.14-.043.282-.067.422,1.1-.238,2.213-.491,3.342-.772.029-.149.054-.3.081-.449Zm-.607,2.75q-1.617.414-3.249.779c-.062.214-.124.427-.187.637,1.131-.27,2.23-.552,3.288-.846.062-.189.124-.383.186-.579Zm-3.79,2.481c-.265.74-.546,1.429-.828,2.053-.045.1-.095.2-.14.3q1.718-.369,3.177-.716c.3-.636.618-1.356.933-2.163.043-.114.088-.232.131-.348C1084.477,837.806,1083.384,838.1,1082.259,838.379Zm-.785-.8q.089-.322.178-.657-1.871.4-3.753.738-.085.363-.179.714Q1079.653,838,1081.474,837.581Zm-4.068,1.892c-.245.784-.506,1.511-.772,2.173q1.948-.352,3.676-.708c.107-.267.217-.542.328-.834.172-.455.34-.943.507-1.455Q1079.331,839.082,1077.406,839.472Zm-.647-1.612q-2.107.363-4.223.657c-.054.271-.114.536-.172.8q2.168-.339,4.227-.724C1076.648,838.354,1076.7,838.109,1076.759,837.861Zm-4.675,2.585c-.194.734-.405,1.417-.618,2.048q2.194-.322,4.188-.676c.024-.069.049-.136.071-.208.2-.59.4-1.233.584-1.917Q1074.253,840.09,1072.084,840.446Zm-.981,3.065q-.308.828-.593,1.493c.7-.087,1.384-.174,2.046-.262q1.112-.147,2.149-.3c.184-.482.4-1.045.623-1.679Q1073.317,843.153,1071.1,843.51Zm-5.272-6.27c.017-.2.036-.4.052-.608q-2.571.276-5.155.489c-.013.207-.03.414-.049.615Q1063.26,837.529,1065.83,837.24Zm-5.376,2.542c-.043.337-.089.666-.142.986q2.622-.231,5.144-.518c.045-.3.092-.6.132-.909Q1063.023,839.595,1060.454,839.783Zm4.806,1.629q-2.524.3-5.145.541c-.123.67-.251,1.3-.381,1.89q2.654-.229,5.144-.505C1065.005,842.737,1065.137,842.093,1065.26,841.412Zm-4.462-8.053c.02.516.025,1.021.02,1.525.047,0,.1-.008.142-.013.574-.045,1.149-.1,1.72-.149.7-.06,1.4-.118,2.091-.185.1-.006.2-.016.3-.026l.894-.09c0-.591-.018-1.188-.066-1.791a19.212,19.212,0,0,0-1.381-5.978c-.117-.289-.247-.569-.377-.84q-2.317.3-4.643.526c.106.289.206.586.3.889A24.9,24.9,0,0,1,1060.8,833.358Zm-3.2-8.954q-.331-.727-.687-1.343a19.3,19.3,0,0,0-1.774-2.584q-2.13.191-4.274.294c.156.237.322.5.495.792a16.057,16.057,0,0,1,.812,1.714c.2.472.387.989.559,1.542Q1055.173,824.647,1057.6,824.4Zm-5.854.479c-.121-.464-.247-.905-.381-1.314a19.144,19.144,0,0,0-1.09-2.771q-2.374.1-4.742.122a22.074,22.074,0,0,1,.688,3.164c.053.334.1.682.149,1.049Q1049.061,825.053,1051.748,824.884Zm18.782-5.493,1.076.695c.376.241.724.554,1.107.846q.282.225.578.458l.517.5c.875-.178,1.923-.4,3.051-.677-.052-.048-.107-.1-.162-.141-.412-.3-.811-.6-1.2-.88a11.378,11.378,0,0,0-1.163-.772q-.567-.358-1.093-.684c-.727-.392-1.385-.747-1.964-1.057-.464-.257-.89-.44-1.256-.617a1.042,1.042,0,0,1-.705.69c-.391.125-.788.247-1.184.362A25.028,25.028,0,0,1,1070.529,819.39Zm14.891-7.775c-.255-.083-.515-.17-.767-.253l-1.2-.4c-.392-.124-.791-.221-1.18-.333l-2.265-.628c-.363-.1-.724-.2-1.077-.3s-.7-.168-1.048-.25c-.687-.161-1.346-.313-1.975-.461-2.506-.634-4.573-.986-5.985-1.318-.373-.083-.7-.159-.983-.228.159.5.3,1.005.425,1.516.311.029.711.077,1.191.144,1.277.189,3.141.409,5.4.932a68.485,68.485,0,0,1,7.867,2.093c.728.256,1.474.515,2.232.782.706.267,1.406.589,2.125.9A7.665,7.665,0,0,0,1085.421,811.616Zm2.421,3.341c-.752-.325-1.473-.677-2.206-.969l-2.173-.8c-2.847-1.006-5.475-1.757-7.7-2.317-2.211-.627-4.042-.971-5.286-1.3-.4-.1-.74-.192-1.023-.272.115.49.221.984.305,1.479.234.03.5.069.8.116a49.7,49.7,0,0,1,4.978.982c1.042.257,2.193.5,3.394.907,1.2.381,2.507.747,3.825,1.3a33.337,33.337,0,0,1,5.076,2.361,2.853,2.853,0,0,0,.62-1.217C1088.245,815.137,1088.042,815.048,1087.842,814.956Zm-.633,4.642a18.152,18.152,0,0,1,1.783,1.675,11.308,11.308,0,0,1,3.245,7.92c.852-.284,1.713-.6,2.554-.943a9.093,9.093,0,0,0-.047-1.609,8.949,8.949,0,0,0-1.477-3.851,13.844,13.844,0,0,0-1.371-1.756c-.261-.272-.557-.523-.836-.789a8.1,8.1,0,0,0-.885-.769c-.449-.353-.914-.683-1.38-1A11.725,11.725,0,0,1,1087.209,819.6Zm2.043-7.845.017.018c.279.107.561.218.843.328.891.312,1.74.782,2.628,1.2a24.266,24.266,0,0,1,2.606,1.452l.648.395.605.453c.4.305.8.6,1.2.9a16.479,16.479,0,0,1,2.044,2.144,9.285,9.285,0,0,1,1.99,4.588C1104.964,818.462,1097.83,814.564,1089.252,811.753Zm9.855,14.162a12.792,12.792,0,0,0,1.558-1.3.142.142,0,0,0,.024-.023c.028-.025.054-.057.081-.086.006-.187.006-.377,0-.567a8.065,8.065,0,0,0-1.863-4.565,15.59,15.59,0,0,0-1.886-1.951c-.375-.281-.753-.564-1.131-.845l-.571-.427-.619-.373a24.181,24.181,0,0,0-2.5-1.4c-.58-.27-1.14-.566-1.711-.827a4.033,4.033,0,0,1,.249,1.518c.353.19.71.385,1.069.575.372.246.745.5,1.121.744a17.581,17.581,0,0,1,3.96,3.512,10.084,10.084,0,0,1,2.107,4.549A7.91,7.91,0,0,1,1099.107,825.915Zm-.363,2.675c.009-.009.021-.014.03-.023a.187.187,0,0,1-.03.018Zm-.858-3.956a9.123,9.123,0,0,0-1.932-4,16.981,16.981,0,0,0-3.713-3.246l-1.064-.709c-.237-.13-.472-.257-.706-.383a4.855,4.855,0,0,1-.8,1.313c.429.294.853.6,1.271.923a9.3,9.3,0,0,1,.945.824c.3.289.613.557.894.857a14.106,14.106,0,0,1,1.493,1.938,9.917,9.917,0,0,1,1.584,4.365,9.511,9.511,0,0,1,.043,1.252c.067-.03.135-.062.2-.093.212-.1.421-.2.628-.31.059-.032.121-.059.18-.091.377-.2.746-.41,1.1-.629A7.567,7.567,0,0,0,1097.886,824.634Zm-.292,7.182c-.027.014-.049.029-.077.043-.02.043-.042.083-.066.127C1097.5,831.928,1097.55,831.874,1097.594,831.816Zm-.125-2.376c.021-.073.04-.146.059-.216q-.363.182-.714.347c-.159.073-.322.144-.483.219-.24.11-.478.219-.719.327a.173.173,0,0,0-.031.014c-.031.135-.065.269-.1.4C1096.166,830.194,1096.831,829.832,1097.469,829.44Zm-1.241,3.062c-.551.263-1.114.511-1.682.74-.043.1-.086.183-.125.272.6-.261,1.161-.53,1.7-.8C1096.159,832.645,1096.192,832.575,1096.228,832.5Zm-1.141,2.042c.16-.257.319-.523.479-.8-.518.261-1.064.517-1.627.771a23.954,23.954,0,0,1-1.281,2.173C1093.5,836.005,1094.317,835.292,1095.087,834.544Zm-4.994,4c.207-.134.414-.267.618-.407.187-.128.371-.26.554-.391.436-.72.976-1.632,1.525-2.743q-1.082.45-2.257.879c-.073.163-.149.322-.222.479a25.29,25.29,0,0,1-1.419,2.521c.144-.04.285-.076.42-.112C1089.6,838.692,1089.857,838.617,1090.093,838.548Zm-1.156.728c-.126.045-.256.087-.391.131-.042.063-.084.125-.124.182C1088.593,839.486,1088.765,839.381,1088.936,839.276Zm.47-2.989c-.479.168-.965.328-1.464.489-.432.139-.874.274-1.32.41-.144.348-.287.685-.432,1-.271.586-.544,1.12-.81,1.607.778-.189,1.489-.372,2.13-.542.17-.044.338-.091.5-.131C1088.436,838.344,1088.922,837.4,1089.407,836.287Zm-1.98,3.873c.082-.145.172-.3.262-.467a.222.222,0,0,1-.047.014c-.782.252-1.673.521-2.664.8-.3.51-.584.952-.839,1.326Q1085.816,841.059,1087.427,840.16Zm-7.652,3.459q1.846-.664,3.634-1.457c.054-.11.112-.226.175-.351.155-.308.337-.667.533-1.067-.99.269-2.073.549-3.236.826-.418.826-.813,1.521-1.154,2.064Zm-.671.126c.231-.517.53-1.175.859-1.958q-1.75.4-3.719.8c-.29.665-.573,1.254-.833,1.758C1076.748,844.14,1077.983,843.938,1079.1,843.745Zm-20.476,1.314-.076.006c-1.807.159-3.67.3-5.576.409-.062.324-.122.629-.183.918q2.915-.119,5.664-.3C1058.511,845.775,1058.569,845.426,1058.628,845.059Zm-.459,2.836c.026-.2.063-.422.1-.676-1.852.137-3.773.252-5.745.343-.063.26-.126.489-.182.685C1054.275,848.166,1056.222,848.052,1058.169,847.9Zm-5.713-5.393q-2.982.153-6.048.231c-.058.644-.119,1.257-.184,1.824q3.1-.064,6.066-.214Q1052.369,843.484,1052.456,842.5Zm-.279,3.013q-2.981.168-6.1.245c-.038.285-.074.56-.111.816q3.132-.045,6.122-.158C1052.117,846.137,1052.146,845.837,1052.177,845.516Zm-.237,2.748c.011-.193.028-.417.047-.675-2.017.087-4.091.154-6.209.189-.043.236-.084.451-.122.638C1047.723,848.391,1049.824,848.345,1051.941,848.263Zm-6.331-13.708c.033-2.737,0-5.293-.086-7.48q-1.267.023-2.536.029c-1.169.009-2.339,0-3.511-.011-.111,2.126-.213,4.6-.291,7.25-.007.426-.018.85-.028,1.265a.674.674,0,0,0,.073,0l.4.005c1.067.009,2.134.016,3.2.011.317,0,.63-.006.945-.01q.908-.006,1.817-.02C1045.6,835.25,1045.606,834.906,1045.61,834.555Zm-.061,3.279c-.448.008-.893.011-1.339.015h-.5c-.477,0-.953,0-1.43,0l-.953,0-.983-.008c-.415-.005-.832-.013-1.248-.016,0,.178-.011.357-.018.535,2.151.04,4.3.058,6.459.04C1045.539,838.211,1045.545,838.025,1045.549,837.834Zm-.076,2.655q-3.229.062-6.472.044c-.013.354-.028.7-.042,1.034.754.008,1.511.015,2.275.014,1.412,0,2.814-.015,4.2-.04C1045.45,841.2,1045.461,840.848,1045.474,840.489Zm-.078,2.265c-1.377.025-2.764.042-4.162.04-.781,0-1.555-.006-2.331-.014-.032.646-.063,1.253-.1,1.815,2.207.026,4.386.02,6.521-.015Q1045.361,843.725,1045.4,842.754Zm-6.667,3.053c-.02.271-.039.528-.061.764q3.36.051,6.6.014c.005-.255.015-.523.022-.8C1043.141,845.822,1040.95,845.831,1038.728,845.807Zm6.51,2.614c0-.188,0-.4,0-.636q-3.282.049-6.692,0c-.033.26-.067.466-.1.624q1.956.03,3.916.028C1043.313,848.434,1044.273,848.427,1045.238,848.421Zm-8.742,2.461c.208.454.42,1.016.661,1.612.124.3.254.6.406.9.132.277.4.735.352.605a.032.032,0,0,1,.015,0c-.013-.006.025,0,.094.005.171.005.347.014.522.02.375.019.757.04,1.146.058.269.016.533.035.795.052.189.015.5.033.537.042.014.019.006.1.185-.441.3-.871.573-1.656.816-2.313.1-.264.193-.506.279-.723q-2.957.017-5.919-.052C1036.421,850.723,1036.459,850.8,1036.5,850.882Zm1.692-2.479a6.091,6.091,0,0,1-.077-.624q-3.53-.053-6.921-.2c-.01.228-.019.424-.034.593Q1034.671,848.344,1038.188,848.4Zm-6.96-4.025c1.87.086,3.773.151,5.7.19.346.006.688.009,1.029.015-.014-.561-.024-1.168-.033-1.816q-3.394-.051-6.689-.217C1031.228,843.2,1031.229,843.809,1031.228,844.377Zm0-3.029q3.288.153,6.679.207c0-.336,0-.678-.006-1.032q-3.333-.036-6.672-.166Zm.016-3.266q3.322.168,6.666.251c0-.175,0-.35,0-.528-.464-.009-.932-.023-1.4-.037h-.047q-2.613-.072-5.219-.2C1031.251,837.736,1031.248,837.911,1031.248,838.081Zm-13.373,8.89c4.288.571,8.606.948,12.931,1.176-.032-.168-.067-.367-.1-.6-4.535-.208-8.851-.539-12.861-.953C1017.855,846.736,1017.868,846.862,1017.875,846.971Zm-.153-1.488q2.89.268,5.992.482c-.063-.238-.13-.546-.2-.907-2.02-.179-4-.383-5.917-.61Q1017.665,845.011,1017.722,845.483Zm-5.751.574q2.773.492,5.562.866c-.039-.108-.081-.229-.122-.367q-2.845-.3-5.466-.654C1011.953,845.954,1011.964,846.007,1011.972,846.057Zm5.125-.632c-.078-.323-.163-.679-.247-1.066-1.826-.226-3.6-.471-5.321-.732.083.452.158.863.227,1.227Q1014.312,845.157,1017.1,845.425Zm-7.488.193q.97.189,1.95.364c-.02-.044-.037-.091-.056-.137-.939-.131-1.852-.261-2.743-.4Q1009.186,845.531,1009.609,845.618Zm-3.25-1.478q2.262.333,4.773.639c-.12-.376-.25-.8-.378-1.27-1.644-.257-3.24-.531-4.773-.815C1006.115,843.227,1006.244,843.708,1006.359,844.14Zm4.1-1.755c-.019-.082-.04-.165-.062-.252-.131-.556-.259-1.158-.376-1.8q-2.444-.4-4.752-.846c.134.71.275,1.382.416,2l.033.137Q1008.006,842.026,1010.46,842.384Zm-4.8,1.649c-.173-.448-.354-.951-.537-1.5-1.467-.28-2.874-.574-4.222-.873.206.641.393,1.209.561,1.7.878.15,1.8.3,2.761.455C1004.69,843.885,1005.169,843.961,1005.659,844.034Zm-13.19-4.08c.125.278.226.513.31.714,1.2.554,2.431,1.052,3.681,1.506a19.738,19.738,0,0,1-.983-1.848c-1.153-.31-2.238-.622-3.25-.926C992.315,839.6,992.4,839.786,992.469,839.954Zm-3.6-1.361q1.61.98,3.317,1.8c-.043-.068-.088-.14-.138-.213-.179-.29-.383-.629-.6-1.017-.991-.306-1.907-.609-2.744-.9C988.771,838.384,988.826,838.49,988.873,838.593Zm2.141-.261c-.288-.566-.584-1.2-.875-1.916-.124-.306-.243-.631-.363-.962q-1.457-.5-2.764-.994c.475,1.26.964,2.3,1.353,3.091Q989.574,837.924,991.015,838.332Zm-3.149-.315a1.085,1.085,0,0,1,.25.112c-.02-.029-.043-.064-.063-.1-.125-.047-.247-.09-.37-.132Zm-2.822-2c.361.28.728.554,1.1.82.163.055.332.111.505.167.3.1.619.2.951.306a23.909,23.909,0,0,1-1.633-3.227.251.251,0,0,1-.015-.039c-.818-.327-1.588-.653-2.3-.972.3.7.589,1.294.826,1.783S984.917,835.746,985.043,836.021Zm-3.39-2.984a34.283,34.283,0,0,0,2.628,2.376c-.071-.1-.143-.207-.219-.323a21.707,21.707,0,0,1-1.39-2.465c-.56-.267-1.085-.527-1.563-.779-.049-.024-.1-.05-.141-.076C981.2,832.233,981.435,832.656,981.654,833.037Zm-1.024-1.951c.223.108.449.221.694.337.318.151.661.307,1.018.465-.045-.1-.09-.209-.135-.319-.584-.255-1.163-.523-1.729-.807C980.529,830.87,980.579,830.98,980.629,831.086Zm.69-2.3c-.047-.2-.092-.406-.13-.617-.658-.3-1.317-.612-1.964-.953.039.159.077.318.119.473C979.984,828.083,980.643,828.445,981.319,828.788Zm-1.991,1.628c.044.021.089.045.134.069-.054-.111-.107-.232-.164-.347-.112-.064-.222-.134-.335-.2C979.082,830.1,979.206,830.26,979.328,830.416Zm-.459-5.841c.686.419,1.4.8,2.124,1.145a8.8,8.8,0,0,1,.431-2.4,9.455,9.455,0,0,1,.395-1.02c.169-.324.339-.654.514-.987.2-.318.423-.615.64-.931.114-.153.216-.314.338-.462l.387-.424c.262-.281.525-.566.791-.854q.441-.378.888-.765a17.111,17.111,0,0,1,1.911-1.42c.184-.138.376-.262.571-.382a5.561,5.561,0,0,1-.875-1.281c-.154.077-.3.155-.458.235l-.551.282-.527.33A19.227,19.227,0,0,0,983.418,817c-.318.246-.632.489-.946.729-.28.27-.56.54-.833.807a9.6,9.6,0,0,0-2.376,3.6A7.1,7.1,0,0,0,978.869,824.575Zm-2.141,1.248q.69.575,1.428,1.087c-.026-.111-.052-.226-.076-.338-.483-.291-.955-.6-1.4-.924C976.691,825.706,976.711,825.765,976.728,825.823Zm1.1-1.942a7.636,7.636,0,0,1,.372-2.091,10.559,10.559,0,0,1,2.587-4.083c.3-.29.593-.591.9-.881.329-.26.665-.521,1-.783a19.269,19.269,0,0,1,2.14-1.44l.55-.344.572-.294.641-.328a3.586,3.586,0,0,1,0-1.453c-.478.211-.95.439-1.433.656a24.76,24.76,0,0,0-2.541,1.329l-.629.352c-.2.131-.391.271-.586.4l-1.157.8c-.362.293-.695.605-1.043.9a7.268,7.268,0,0,0-.935.957,7.849,7.849,0,0,0-2.07,4.449c-.009.138-.008.275-.01.412A10.9,10.9,0,0,0,977.826,823.881Zm-3.278-5.064a3.562,3.562,0,0,0,.009.366c.005.055.015.108.02.164.01.082.018.164.034.248a4.07,4.07,0,0,0,.106.424,5.34,5.34,0,0,0,.473,1.1,9.162,9.162,0,0,1,2.172-4.3,7.852,7.852,0,0,1,1.019-1.058c.371-.324.733-.663,1.116-.977.406-.286.815-.571,1.223-.859.207-.14.411-.291.621-.429l.656-.368a25.546,25.546,0,0,1,2.638-1.375c.893-.393,1.756-.832,2.646-1.13l.059-.022a6.04,6.04,0,0,1,.669-.738c-.854.266-1.7.541-2.536.839l-.047.018c-.4.141-.8.292-1.2.444-.165.064-.33.122-.494.187l-.1.039c-2.839,1.115-8.959,3.6-9.081,7.4C974.546,818.794,974.548,818.805,974.548,818.818Zm90.977,25.495c-.14.453-.281.88-.414,1.267q2.452-.229,4.677-.492c.134-.428.28-.907.433-1.436C1068.717,843.885,1067.148,844.107,1065.525,844.312Zm7.153,1.28c-.839.134-1.713.265-2.612.39-.058.122-.116.234-.166.339q2.13-.424,4.221-.965Q1073.417,845.472,1072.678,845.592Zm2.6,16.623,1.226.279a1.712,1.712,0,0,0,.217.021h.005l.006-.166q.008-.948.013-1.865c.018-1.224.035-2.406.049-3.532.045-2.25.107-4.279.187-5.979.086-1.9.192-3.389.31-4.341-1.6.473-3.232.885-4.873,1.246a49.689,49.689,0,0,1,1.854,6.819A35.6,35.6,0,0,1,1075.282,862.215ZM1070.827,853c.492,1.632,1.048,3.58,1.639,5.752.148.54.3,1.1.45,1.666.077.276.153.593.231.837a1.085,1.085,0,0,0,.217.448.991.991,0,0,0,.426.174c.24.054.48.111.723.165a47.242,47.242,0,0,1-1.929-6.985,41.339,41.339,0,0,1-1.006-7q-1.128.233-2.262.443C1069.672,849.338,1070.194,850.9,1070.827,853Zm-1.449-6.578c.034-.111.071-.233.111-.358-1.51.2-3.1.4-4.768.578-.079.209-.159.4-.232.578C1066.127,846.995,1067.761,846.731,1069.378,846.421Zm-4.74-2c-1.667.2-3.4.391-5.172.559-.1.385-.19.739-.284,1.071q2.679-.182,5.164-.4C1064.438,845.272,1064.535,844.865,1064.637,844.422Zm-.691,2.868c.044-.178.092-.372.143-.585q-2.518.263-5.24.47c-.083.259-.16.486-.232.686Q1061.284,847.64,1063.946,847.29ZM972.4,818.717c0-.057,0-.112.009-.164.011-.12.025-.237.044-.353a.316.316,0,0,0,0-.036c.515-3.138,3.815-5.6,6.64-7.095a.454.454,0,0,0,.051-.025c.071-.037.139-.073.207-.111.02-.008.04-.019.062-.028l.062-.034.2-.1a52.866,52.866,0,0,1,8.809-3.406c.071-.02.141-.042.214-.061.218-.064.435-.127.656-.188.165-.047.329-.091.494-.135.12-.033.244-.068.363-.1.271-.072.541-.143.815-.211l.035-.011a134.391,134.391,0,0,1,17.6-2.923l.449-.053h.011c.212-.023.419-.048.628-.071.029,0,.056,0,.081,0a30.4,30.4,0,0,1,18.061-15.019c12.242-3.9,26.788-.686,35.447,9.04a27.2,27.2,0,0,1,4.515,6.965c9.224,1.314,18.719,2.993,27.271,6.83,3.622,1.627,9.046,4.439,9.543,8.96a.445.445,0,0,1,0,.058c.01.1.018.2.022.293,0,.071.009.144.011.214,0,.023,0,.044,0,.067,0,.047,0,.088,0,.135s0,.113,0,.173a5.8,5.8,0,0,1-.306,1.617v.013c-1.43,6.381-5.639,11.75-10.93,15.832a1.317,1.317,0,0,1-.193.179c-.432.323-.874.63-1.318.932a44.978,44.978,0,0,1-13.323,6.334.537.537,0,0,1-.1.019l-.671.208c.13.938.243,2.5.337,4.512.078,1.7.142,3.73.188,5.983q.023,1.689.049,3.531c0,.614.008,1.236.014,1.871,0,.091,0,.175-.011.307a2.105,2.105,0,0,1-.084.467,1.549,1.549,0,0,1-.516.763,1.74,1.74,0,0,1-.875.342c-.078.008-.16.011-.24.013l-.182-.006c-.116-.007-.222-.021-.327-.038-.209-.035-.381-.08-.53-.115l-.469-.11c-.312-.073-.623-.149-.932-.221s-.626-.151-.935-.224a2.51,2.51,0,0,1-1.208-.645,2.648,2.648,0,0,1-.614-1.151c-.1-.332-.148-.6-.222-.893-.132-.571-.266-1.133-.395-1.682-.508-2.2-.941-4.177-1.28-5.85-.444-2.18-.729-3.826-.806-4.728-4.09.724-8.217,1.18-12.259,1.5-4.389.342-8.82.547-13.263.6a10.039,10.039,0,0,1-.1,1.03c-.1.713-.252,1.546-.473,2.463a6.628,6.628,0,0,1-.261.908,1.285,1.285,0,0,1-1.087.773,3.57,3.57,0,0,1-.62.013l-.388-.018c-.262-.014-.526-.028-.795-.044-.388-.024-.771-.052-1.145-.076-.2-.018-.391-.033-.583-.048a2.472,2.472,0,0,1-.443-.09,1.62,1.62,0,0,1-.467-.233,1.673,1.673,0,0,1-.394-.423,2.31,2.31,0,0,1-.2-.363q-.127-.287-.236-.571a8.748,8.748,0,0,1-.323-1.085c-.157-.681-.243-1.265-.311-1.754-.025-.2-.046-.381-.063-.551a156.08,156.08,0,0,1-29.467-3.56c-.378-.082-.76-.171-1.144-.26a27.429,27.429,0,0,1-1,5.364c-.4,1.66-.9,3.624-1.487,5.8q-.221.817-.45,1.669c-.084.294-.148.556-.253.884a2.66,2.66,0,0,1-.653,1.129,2.507,2.507,0,0,1-1.231.6c-.314.062-.628.126-.945.192s-.622.126-.936.188l-.473.095c-.15.029-.325.067-.537.1-.1.013-.208.023-.324.027h-.184c-.077,0-.161-.011-.24-.021a1.723,1.723,0,0,1-.859-.372,1.552,1.552,0,0,1-.489-.781,2.342,2.342,0,0,1-.072-.469c0-.131,0-.216,0-.307.026-.634.052-1.256.079-1.87q.091-1.837.174-3.526c.124-2.25.259-4.274.4-5.974a38.781,38.781,0,0,1,.625-5.129c-10.429-3.713-21.339-12.1-23.476-23.5a1.081,1.081,0,0,1,.054-.619l-.016-.082-.007-.035c-.028-.13-.054-.261-.072-.391l-.008-.073c-.016-.113-.029-.226-.035-.339-.005-.048,0-.095-.006-.141,0-.087-.006-.175-.008-.262S972.4,818.793,972.4,818.717Zm26.971,41.855a.978.978,0,0,0,.433-.159,1.114,1.114,0,0,0,.233-.44c.086-.241.173-.556.257-.828.173-.561.344-1.115.508-1.65.669-2.149,1.294-4.077,1.842-5.69a27.837,27.837,0,0,1,2.007-5.047c-.862-.2-1.726-.414-2.588-.637a32.216,32.216,0,0,1-1.246,7.678,47.365,47.365,0,0,1-2.174,6.913C998.888,860.666,999.131,860.617,999.372,860.572Zm-2.81-11.008c.019,1.7.01,3.73-.027,5.982-.023,1.126-.047,2.307-.073,3.532q-.025.916-.05,1.864v.166h.011c.02,0,.073,0,.211-.012.417-.081.825-.159,1.236-.236a35.5,35.5,0,0,1,1.265-7.48,37.782,37.782,0,0,1,2.416-7.394c-1.3-.344-2.593-.718-3.875-1.131a1.069,1.069,0,0,1-.487-.047c-.287-.093-.579-.192-.869-.29A43.81,43.81,0,0,1,996.562,849.564Z" transform="translate(-972.388 -786.976)" fill="#fff"/>
        <path id="Path_63849" data-name="Path 63849" d="M1029.92,795.029c.337.8.658,1.146.718,1.115.091-.042-.088-.476-.265-1.25a2.719,2.719,0,0,1,.006-1.325,1.429,1.429,0,0,1,1.214-.888c2.672-.532,6.666,1.539,9.052,5.066a7.044,7.044,0,0,1,1.139,2.772,3.474,3.474,0,0,1-.518,2.517,2.752,2.752,0,0,1-1.927,1.185,4.818,4.818,0,0,1-2.167-.19,11.145,11.145,0,0,1-3.006-1.508c-.667-.459-1.034-.744-1.1-.681s.194.451.8,1.047a9.106,9.106,0,0,0,3.028,1.953,5.445,5.445,0,0,0,2.587.376,4.205,4.205,0,0,0,1.455-.445,3.353,3.353,0,0,0,1.248-1.1,4.56,4.56,0,0,0,.777-3.317,7.944,7.944,0,0,0-1.3-3.274,13.2,13.2,0,0,0-4.912-4.38,9.583,9.583,0,0,0-2.765-.94,6.454,6.454,0,0,0-2.592.079,2.868,2.868,0,0,0-1.09.564,1.777,1.777,0,0,0-.579.984A2.973,2.973,0,0,0,1029.92,795.029Z" transform="translate(-957.429 -785.75)" fill="#fff"/>
        <path id="Path_63850" data-name="Path 63850" d="M1029.708,797.261c.455.873,1.144,1.333,1.41,1.139s.061-.936-.33-1.694-.8-1.333-1.132-1.274S1029.246,796.378,1029.708,797.261Z" transform="translate(-957.506 -784.77)" fill="#fff"/>
        <path id="Path_63851" data-name="Path 63851" d="M1002.975,810.608c.042-.081.315-.023.781.122.088-.487.2-1.034.359-1.634.138-.539.311-1.12.522-1.73-1.009-.521-1.569-.935-1.506-1.053.064-.136.71.03,1.761.344.218-.579.461-1.174.748-1.786.276-.592.588-1.2.935-1.808-.62-.411-.946-.724-.883-.822.063-.116.5,0,1.223.243a27.381,27.381,0,0,1,1.572-2.332c.173-.232.352-.457.532-.679-.662-.264-1.041-.454-1.014-.544s.539-.047,1.366.117a26.48,26.48,0,0,1,2.424-2.487c-.893-.107-1.429-.18-1.434-.286s.783-.248,2.058-.253h0a24.079,24.079,0,0,1,3.178-2.269c-.705-.013-1.126-.005-1.145-.1s.671-.377,1.851-.488c.131-.013.272-.024.415-.03,1.795-.937,2.981-1.255,3.032-1.135s-.564.473-1.593,1.125c.486.018,1,.053,1.54.115.319-.185.628-.354.929-.511a25.7,25.7,0,0,1,3-1.3l.315-.108c-.773-.125-1.47-.213-2.042-.267-1-.1-1.624-.139-1.633-.267-.013-.112.61-.288,1.647-.346a15.7,15.7,0,0,1,4.008.368c.277.061.545.124.809.189a13.191,13.191,0,0,1,2.79-.851,11.158,11.158,0,0,1,4.026-.091c.939.172,1.424.376,1.407.446-.019.093-.538.045-1.45.024a13.783,13.783,0,0,0-3.792.457,13.007,13.007,0,0,0-1.435.455c.556.179,1.055.361,1.474.526.95.376,1.508.675,1.474.788s-.667.021-1.654-.2c-.685-.155-1.544-.37-2.5-.593a18.137,18.137,0,0,0-2.449,1.425q-.428.3-.851.643c2,.517,3.312,1.07,3.269,1.214-.05.193-1.708-.146-4.03-.576a19.019,19.019,0,0,0-2.516,2.714c.608.189,1.16.377,1.631.551,1.188.439,1.9.791,1.859.9-.059.185-1.668-.237-3.981-.778-.06.087-.122.17-.183.261a25.037,25.037,0,0,0-1.9,3.5,7.073,7.073,0,0,1,2.343,1.277c-.056.145-1.083-.136-2.623-.633-.3.723-.57,1.443-.8,2.146-.079.241-.158.483-.232.724,1.6.342,2.65.55,2.64.754,0,.188-1.16.328-2.913.18-.308,1.091-.551,2.125-.753,3.077,2.047.372,3.406.584,3.4.8,0,.2-1.439.349-3.6.177-.222,1.16-.4,2.163-.544,2.965,3.551.281,6.151-.015,6.192.272.026.152-.98.5-2.68.719a22.218,22.218,0,0,1-3.719.143c-.129.68-.223,1.052-.3,1.044s-.107-.385-.1-1.066c-.575-.034-1.174-.088-1.786-.166-.1,1.037-.135,1.676-.252,1.686s-.275-.657-.325-1.769c-.064-.006-.126-.014-.188-.024a25.142,25.142,0,0,1-2.513-.55c-.171.76-.277,1.185-.372,1.175-.076,0-.131-.475-.1-1.305a23.181,23.181,0,0,1-2.482-.878c-.261,1.209-.38,1.952-.5,1.936a5.156,5.156,0,0,1-.015-2.161c-.139-.061-.275-.125-.4-.188-.412-.2-.772-.391-1.078-.566-.31,1.03-.473,1.631-.59,1.611-.1-.01-.127-.728.052-1.938C1003.179,810.922,1002.932,810.686,1002.975,810.608Zm3.667-5.246c-.275.546-.527,1.08-.755,1.593.31.1.642.2,1,.3.236-.651.51-1.319.832-1.991.2-.421.406-.823.618-1.218-.266-.13-.516-.257-.744-.381C1007.244,804.238,1006.93,804.805,1006.642,805.361Zm2.468-.956c-.209.4-.412.806-.613,1.228-.3.629-.571,1.254-.807,1.86.579.169,1.2.343,1.845.512.192-.771.425-1.589.709-2.44.071-.2.143-.412.216-.622C1009.983,804.771,1009.53,804.588,1009.11,804.406Zm1.77-.566a25.751,25.751,0,0,1,1.523-3.16c-.287-.1-.566-.192-.837-.284-.588.846-1.257,1.87-1.921,3.039C1010.037,803.567,1010.45,803.7,1010.88,803.839Zm-1.428-2.955c-.5.663-.958,1.334-1.383,2l.768.27a25.958,25.958,0,0,1,2.073-2.99c-.244-.086-.474-.165-.695-.246Q1009.829,800.388,1009.452,800.885Zm1.25-1.536.73.188c1.089-1.247,1.868-1.909,1.945-1.837.1.087-.467.8-1.328,2.009.256.074.525.153.795.233a20.3,20.3,0,0,1,2.185-2.93c-.629-.1-1.221-.192-1.755-.265A30.471,30.471,0,0,0,1010.7,799.349Zm6.381-5.535c-.219.145-.448.3-.685.464a29.729,29.729,0,0,0-2.365,1.807c.528.042,1.1.1,1.7.19.276-.279.556-.549.839-.8a19.291,19.291,0,0,1,1.982-1.526C1018.027,793.888,1017.532,793.844,1017.083,793.813Zm6.91-1.368c.488-.315.976-.6,1.463-.858-.321-.067-.632-.125-.933-.179-.165.116-.4.262-.7.438-.647.386-1.6.9-2.722,1.59.433.074.849.155,1.251.241A16.784,16.784,0,0,1,1023.993,792.445Zm-2.44,1.946c-.265-.048-.536-.093-.813-.14-.242-.039-.478-.076-.715-.112a21.435,21.435,0,0,0-2.7,2.161c-.072.068-.143.14-.214.212.082.016.166.029.251.049.658.134,1.29.285,1.887.445A18.858,18.858,0,0,1,1021.553,794.391Zm-4.728,6.956a24.169,24.169,0,0,1,1.909-3.6c-.5-.111-1.018-.226-1.55-.337l-.793-.158a21.319,21.319,0,0,0-2.352,3.067c.1.031.194.062.294.1C1015.231,800.726,1016.073,801.045,1016.825,801.347Zm-1.29,3.738c.072-.274.15-.547.236-.826.212-.714.464-1.443.752-2.178-.758-.256-1.593-.542-2.47-.844l-.473-.161a26.9,26.9,0,0,0-1.573,3.1l.419.121c.457.131.905.25,1.342.363.51-1.167.945-1.846,1.047-1.8.119.053-.1.782-.444,1.946C1014.774,804.914,1015.161,805,1015.534,805.085Zm-.267,1.051c-.391-.053-.8-.119-1.222-.2-.246.865-.518,1.869-.762,2.955.487.1.952.193,1.4.276C1014.821,808.228,1015.011,807.214,1015.267,806.136Zm-1.008,7.089c.044-.81.131-1.822.275-3q-.713-.079-1.5-.2c-.217,1.095-.373,2.119-.475,2.994C1013.142,813.1,1013.711,813.17,1014.26,813.224Zm-1.821-4.515a24.831,24.831,0,0,1,.879-2.927q-.6-.136-1.223-.314c-.185-.052-.372-.1-.552-.161-.083.212-.163.421-.242.631-.3.808-.56,1.584-.787,2.319l.5.124C1011.5,808.5,1011.976,808.608,1012.439,808.71Zm-.589,4.2a20.71,20.71,0,0,1,.34-3.033c-.475-.093-.962-.2-1.457-.318-.189-.044-.376-.091-.562-.139q-.153.541-.284,1.039c-.192.739-.347,1.4-.477,1.969C1010.18,812.609,1011,812.776,1011.85,812.91Zm-3.08-.637c.061-.58.148-1.249.278-2,.066-.352.136-.723.219-1.107-.7-.206-1.351-.424-1.955-.646-.391,1.134-.678,2.184-.893,3.078C1007.123,811.825,1007.911,812.054,1008.77,812.274Zm-2.958-.864a21.408,21.408,0,0,1,.743-3.178c-.366-.146-.708-.293-1.024-.436-.226.546-.422,1.067-.6,1.551-.209.588-.382,1.122-.527,1.594C1004.8,811.076,1005.277,811.236,1005.811,811.41Z" transform="translate(-964.403 -786.212)" fill="#fff"/>
        <path id="Path_63852" data-name="Path 63852" d="M1033.017,802.229a8.541,8.541,0,0,0,3.912,1.906,6.122,6.122,0,0,0,4.318-.779c.97-.634,1.286-1.308,1.2-1.362-.1-.089-.568.4-1.5.825a6.62,6.62,0,0,1-3.868.461,10.64,10.64,0,0,1-3.7-1.545c-.894-.562-1.437-.964-1.523-.868C1031.777,800.946,1032.173,801.509,1033.017,802.229Z" transform="translate(-956.863 -783.353)" fill="#fff"/>
        <path id="Path_63853" data-name="Path 63853" d="M1028.463,794.392c.1.4.285.6.393.569.234-.078.163-.918.576-1.8.381-.894,1.053-1.4.958-1.623-.048-.1-.32-.108-.688.083a2.628,2.628,0,0,0-1.24,2.768Z" transform="translate(-957.761 -785.803)" fill="#fff"/>
        <path id="Path_63854" data-name="Path 63854" d="M1039.737,796.443c.716,1.372,1.068,2.609,1.315,2.573.231-.016.247-1.445-.545-2.969s-1.954-2.344-2.1-2.168C1038.232,794.059,1039.036,795.065,1039.737,796.443Z" transform="translate(-955.157 -785.18)" fill="#fff"/>
      </g>
      <g id="Group_41395" data-name="Group 41395" transform="translate(985.389 813.025)">
        <g id="Group_41394" data-name="Group 41394">
          <g transform="matrix(1, 0, 0, 1, -35.11, -43.07)" filter="url(#Path_63855)">
            <path id="Path_63855-2" data-name="Path 63855" d="M995.3,818.819c.167-1.2.379-2.656.638-4.1l-.045-.009c-.545,1.213-1.23,2.551-1.85,3.641q-.994,1.821-2.015,3.631-.938-.181-1.876-.372-.172-2.033-.323-4.063c-.093-1.228-.142-2.71-.1-4.051l-.029-.007c-.35,1.319-.726,2.834-1.071,4.047q-.5,1.854-1.008,3.707-1.108-.241-2.214-.5,1.483-4.842,2.924-9.7,1.5.343,3.013.658.145,1.754.311,3.508c.086,1.211.161,2.508.164,3.716l.046.01c.522-1.089,1.13-2.329,1.676-3.37q.865-1.544,1.707-3.1,1.483.274,2.972.522-.556,5.029-1.081,10.061-1.181-.192-2.359-.4Q995.038,820.737,995.3,818.819Z" transform="translate(-950.29 -767.97)" fill="#fff"/>
          </g>
          <g transform="matrix(1, 0, 0, 1, -35.11, -43.07)" filter="url(#Path_63856)">
            <path id="Path_63856-2" data-name="Path 63856" d="M1006.517,821.975c-.108.952-.163,1.73-.2,2.345q-1.051-.117-2.1-.247c.005-.347.011-.694.016-1.04l-.047-.006a2.8,2.8,0,0,1-2.585.87c-1.577-.218-2.6-1.318-2.245-3.555q.328-2.126.655-4.251,1.165.178,2.331.342-.273,1.953-.548,3.9c-.149,1.053.122,1.745.958,1.855a1.286,1.286,0,0,0,1.3-.633,1.2,1.2,0,0,0,.141-.48q.273-2.165.547-4.328,1.168.145,2.339.277Q1006.8,819.5,1006.517,821.975Z" transform="translate(-950.3 -767.98)" fill="#fff"/>
          </g>
          <g transform="matrix(1, 0, 0, 1, -35.11, -43.07)" filter="url(#Path_63857)">
            <path id="Path_63857-2" data-name="Path 63857" d="M1009.282,813.93q1.142.115,2.284.216-.465,5.3-.936,10.6-1.213-.106-2.426-.229Q1008.747,819.225,1009.282,813.93Z" transform="translate(-950.31 -767.98)" fill="#fff"/>
          </g>
          <g transform="matrix(1, 0, 0, 1, -35.11, -43.07)" filter="url(#Path_63858)">
            <path id="Path_63858-2" data-name="Path 63858" d="M1015.9,815.688q-.064,1.048-.131,2.095.838.051,1.674.095-.043.84-.088,1.678-.845-.045-1.69-.1l-.165,2.647c-.057.882.142,1.3.87,1.344a4.254,4.254,0,0,0,.716-.021l-.076,1.722a4.928,4.928,0,0,1-1.6.1,2.6,2.6,0,0,1-1.779-.75,2.885,2.885,0,0,1-.506-2.216q.114-1.495.226-2.989c-.336-.025-.671-.052-1.006-.079q.069-.838.136-1.674.5.041,1,.078.059-.793.119-1.584Q1014.757,815.872,1015.9,815.688Z" transform="translate(-950.31 -767.98)" fill="#fff"/>
          </g>
          <g transform="matrix(1, 0, 0, 1, -35.11, -43.07)" filter="url(#Path_63859)">
            <path id="Path_63859-2" data-name="Path 63859" d="M1018.473,825.265q.168-3.661.332-7.322,1.168.051,2.336.088-.115,3.662-.234,7.326Q1019.69,825.32,1018.473,825.265Zm2.807-9.27a1.15,1.15,0,0,1-1.288,1.1,1.148,1.148,0,1,1,.1-2.292A1.155,1.155,0,0,1,1021.28,816Z" transform="translate(-950.31 -767.98)" fill="#fff"/>
          </g>
          <g transform="matrix(1, 0, 0, 1, -35.11, -43.07)" filter="url(#Path_63860)">
            <path id="Path_63860-2" data-name="Path 63860" d="M1026.57,820.758q0,.757,0,1.514-2.063,0-4.124-.048c.012-.5.025-1.008.036-1.513Q1024.526,820.757,1026.57,820.758Z" transform="translate(-950.32 -767.98)" fill="#fff"/>
          </g>
          <g transform="matrix(1, 0, 0, 1, -35.11, -43.07)" filter="url(#Path_63861)">
            <path id="Path_63861-2" data-name="Path 63861" d="M1034.16,825.11a6.154,6.154,0,0,1-2.168.408c-2.542.074-4.172-1.365-4.177-3.672,0-2.149,1.491-3.9,4.278-3.981a5.78,5.78,0,0,1,1.8.22q-.15.854-.3,1.708a3.413,3.413,0,0,0-1.328-.178,2.054,2.054,0,1,0,.176,4.1,3.82,3.82,0,0,0,1.372-.275Q1033.982,824.278,1034.16,825.11Z" transform="translate(-950.32 -767.98)" fill="#fff"/>
          </g>
          <g transform="matrix(1, 0, 0, 1, -35.11, -43.07)" filter="url(#Path_63862)">
            <path id="Path_63862-2" data-name="Path 63862" d="M1035,814.6q1.147-.055,2.293-.127.13,2.087.259,4.174l.03,0a2.849,2.849,0,0,1,.877-.807,2.729,2.729,0,0,1,1.192-.372c1.485-.11,2.709.784,2.91,2.979q.19,2.136.381,4.27-1.216.109-2.432.2-.151-2.01-.3-4.021c-.073-.956-.464-1.585-1.347-1.524a1.268,1.268,0,0,0-1.131.871,1.383,1.383,0,0,0-.045.514q.132,2.169.266,4.338-1.219.076-2.435.135Q1035.263,819.912,1035,814.6Z" transform="translate(-950.32 -767.98)" fill="#fff"/>
          </g>
          <g transform="matrix(1, 0, 0, 1, -35.11, -43.07)" filter="url(#Path_63863)">
            <path id="Path_63863-2" data-name="Path 63863" d="M1049.342,824.024q-.117-.355-.233-.713l-.048.007a2.884,2.884,0,0,1-2.128,1.157,2.307,2.307,0,0,1-2.743-1.973c-.179-1.9,1.507-2.969,4.19-3.284,0-.035-.009-.07-.013-.1-.047-.387-.332-.907-1.489-.772a4.5,4.5,0,0,0-2.03.78q-.292-.709-.582-1.417a6.612,6.612,0,0,1,2.845-.96c2.488-.3,3.481,1,3.719,2.714q.171,1.262.344,2.524a10.554,10.554,0,0,0,.352,1.753Q1050.434,823.886,1049.342,824.024Zm-.71-3.4c-1.25.141-2.192.529-2.1,1.409a.844.844,0,0,0,1.046.757,1.311,1.311,0,0,0,1.148-.984,1.521,1.521,0,0,0,0-.393C1048.7,821.148,1048.664,820.885,1048.631,820.623Z" transform="translate(-950.33 -767.98)" fill="#fff"/>
          </g>
          <g transform="matrix(1, 0, 0, 1, -35.11, -43.07)" filter="url(#Path_63864)">
            <path id="Path_63864-2" data-name="Path 63864" d="M1053.331,823.476q-.532-3.626-1.067-7.252,1.162-.172,2.322-.36.585,3.619,1.164,7.237Q1054.541,823.3,1053.331,823.476Zm1-9.637a1.156,1.156,0,0,1-1.062,1.323,1.149,1.149,0,1,1-.336-2.27A1.157,1.157,0,0,1,1054.335,813.839Z" transform="translate(-950.33 -767.97)" fill="#fff"/>
          </g>
          <g transform="matrix(1, 0, 0, 1, -35.11, -43.07)" filter="url(#Path_63865)">
            <path id="Path_63865-2" data-name="Path 63865" d="M1056.845,817.859c-.153-.9-.318-1.664-.458-2.295q1.006-.172,2.011-.358.144.483.289.967l.047-.009a2.841,2.841,0,0,1,2.08-1.591c1.515-.3,2.857.419,3.315,2.528q.456,2.126.91,4.251-1.2.258-2.4.5-.4-1.992-.8-3.983c-.19-.926-.651-1.488-1.494-1.324a1.272,1.272,0,0,0-1.024,1.065,1.493,1.493,0,0,0,.011.578q.387,2.078.771,4.156-1.2.225-2.411.433Q1057.268,820.319,1056.845,817.859Z" transform="translate(-950.34 -767.98)" fill="#fff"/>
          </g>
        </g>
      </g>
    </g>
  </g>
</svg>
