<svg xmlns="http://www.w3.org/2000/svg" xmlns:xlink="http://www.w3.org/1999/xlink" width="150" height="96" viewBox="0 0 150 96">
  <defs>
    <clipPath id="clip-path">
      <rect id="Rectangle_90601" data-name="Rectangle 90601" width="150" height="96" transform="translate(5380 -2042)" fill="none" stroke="#707070" stroke-width="1"/>
    </clipPath>
    <filter id="Path_63803" x="28.895" y="10.852" width="26.591" height="29.033" filterUnits="userSpaceOnUse">
      <feOffset input="SourceAlpha"/>
      <feGaussianBlur stdDeviation="3" result="blur"/>
      <feFlood/>
      <feComposite operator="in" in2="blur"/>
      <feComposite in="SourceGraphic"/>
    </filter>
    <filter id="Path_63804" x="38.338" y="11.5" width="25.012" height="25.824" filterUnits="userSpaceOnUse">
      <feOffset input="SourceAlpha"/>
      <feGaussianBlur stdDeviation="3" result="blur-2"/>
      <feFlood/>
      <feComposite operator="in" in2="blur-2"/>
      <feComposite in="SourceGraphic"/>
    </filter>
    <filter id="Path_63805" x="45.603" y="10.414" width="25.575" height="25.849" filterUnits="userSpaceOnUse">
      <feOffset input="SourceAlpha"/>
      <feGaussianBlur stdDeviation="3" result="blur-3"/>
      <feFlood/>
      <feComposite operator="in" in2="blur-3"/>
      <feComposite in="SourceGraphic"/>
    </filter>
    <filter id="Path_63806" x="53.851" y="6.414" width="21.456" height="28.833" filterUnits="userSpaceOnUse">
      <feOffset input="SourceAlpha"/>
      <feGaussianBlur stdDeviation="3" result="blur-4"/>
      <feFlood/>
      <feComposite operator="in" in2="blur-4"/>
      <feComposite in="SourceGraphic"/>
    </filter>
    <filter id="Path_63807" x="58.574" y="9.232" width="25.138" height="25.713" filterUnits="userSpaceOnUse">
      <feOffset input="SourceAlpha"/>
      <feGaussianBlur stdDeviation="3" result="blur-5"/>
      <feFlood/>
      <feComposite operator="in" in2="blur-5"/>
      <feComposite in="SourceGraphic"/>
    </filter>
    <filter id="Path_63808" x="67.417" y="6" width="26.243" height="28.93" filterUnits="userSpaceOnUse">
      <feOffset input="SourceAlpha"/>
      <feGaussianBlur stdDeviation="3" result="blur-6"/>
      <feFlood/>
      <feComposite operator="in" in2="blur-6"/>
      <feComposite in="SourceGraphic"/>
    </filter>
    <filter id="Path_63809" x="76.821" y="6.716" width="21.476" height="28.611" filterUnits="userSpaceOnUse">
      <feOffset input="SourceAlpha"/>
      <feGaussianBlur stdDeviation="3" result="blur-7"/>
      <feFlood/>
      <feComposite operator="in" in2="blur-7"/>
      <feComposite in="SourceGraphic"/>
    </filter>
    <filter id="Path_63810" x="81.088" y="6.985" width="21.912" height="28.889" filterUnits="userSpaceOnUse">
      <feOffset input="SourceAlpha"/>
      <feGaussianBlur stdDeviation="3" result="blur-8"/>
      <feFlood/>
      <feComposite operator="in" in2="blur-8"/>
      <feComposite in="SourceGraphic"/>
    </filter>
    <filter id="Path_63811" x="85.354" y="7.969" width="22.162" height="28.613" filterUnits="userSpaceOnUse">
      <feOffset input="SourceAlpha"/>
      <feGaussianBlur stdDeviation="3" result="blur-9"/>
      <feFlood/>
      <feComposite operator="in" in2="blur-9"/>
      <feComposite in="SourceGraphic"/>
    </filter>
    <filter id="Path_63812" x="89.998" y="10.272" width="23.602" height="27.589" filterUnits="userSpaceOnUse">
      <feOffset input="SourceAlpha"/>
      <feGaussianBlur stdDeviation="3" result="blur-10"/>
      <feFlood/>
      <feComposite operator="in" in2="blur-10"/>
      <feComposite in="SourceGraphic"/>
    </filter>
    <filter id="Path_63813" x="94.851" y="12.927" width="27.666" height="28.676" filterUnits="userSpaceOnUse">
      <feOffset input="SourceAlpha"/>
      <feGaussianBlur stdDeviation="3" result="blur-11"/>
      <feFlood/>
      <feComposite operator="in" in2="blur-11"/>
      <feComposite in="SourceGraphic"/>
    </filter>
  </defs>
  <g id="Mask_Group_43" data-name="Mask Group 43" transform="translate(-5380 2042)" clip-path="url(#clip-path)">
    <g id="Group_41418" data-name="Group 41418" transform="translate(4532.533 -3055.918)">
      <g id="Group_41384" data-name="Group 41384" transform="translate(-1.401 2.391)" opacity="0.38">
        <path id="Path_63792" data-name="Path 63792" d="M990.629,1053.319c-3.681-2.07-9.026-3.926-15.877-5.506a188.706,188.706,0,0,0-26.075-3.844h-.006l-.409-.658a30.735,30.735,0,0,0-6.03-6.636c-10.906-9.12-24.917-9.081-35.775,0a30.924,30.924,0,0,0-6.03,6.635l-.359.578h0a191.156,191.156,0,0,0-27.032,3.926c-6.854,1.581-12.2,3.436-15.878,5.506-3.772,2.131-5.689,4.446-5.689,6.883s1.917,4.752,5.689,6.883a43.782,43.782,0,0,0,8.077,3.375,2.524,2.524,0,0,0,1.9.867,2.32,2.32,0,0,0,.663-.092c.2.061.407.122.621.183,1.978,3.7,9.617,6.2,16.174,7.709,2.131.489,4.405.938,6.8,1.336a25.589,25.589,0,0,0,12.685,9.912c.51.163,1.061.326,1.662.469a.233.233,0,0,0,.082.021q.612.183,1.284.336a77.919,77.919,0,0,0,17.02,1.621,92.427,92.427,0,0,0,11.625-.683c.264-.031.53-.061.785-.1a27.7,27.7,0,0,0,7.514-1.672.034.034,0,0,1,.02-.01,11.166,11.166,0,0,0,3.213-1.642c.01,0,.02-.01.031-.02a32.451,32.451,0,0,0,9.2-8.25q3.533-.581,6.689-1.315c6.547-1.509,14.194-4.008,16.172-7.709.255-.071.5-.143.744-.214a2.363,2.363,0,0,0,.765.122,2.49,2.49,0,0,0,1.978-.969,42.914,42.914,0,0,0,7.771-3.273c3.773-2.131,5.69-4.446,5.69-6.883S994.4,1055.45,990.629,1053.319Zm-64.732,2.917h-.025a1.324,1.324,0,0,0-2.6-.01h-.026c-.193,0-.4,0-.592.01a1.965,1.965,0,0,1-.153-.775,2.071,2.071,0,1,1,4.141,0,2.032,2.032,0,0,1-.153.785C926.294,1056.235,926.089,1056.235,925.9,1056.235Zm-17.845.52h0a1.352,1.352,0,0,0-2.7.057,1.217,1.217,0,0,0,.028.135h-.017l-.316.03a2.029,2.029,0,0,1-.408-1.224,2.071,2.071,0,1,1,3.9.969Zm-14.776,1.581-.015,0a1.346,1.346,0,1,0-2.627.432l-.02,0a1.449,1.449,0,0,0-.2.041,2.013,2.013,0,0,1-.551-1.4,1.812,1.812,0,0,1,.041-.418v-.01a2.076,2.076,0,0,1,.785-1.224,1.954,1.954,0,0,1,1.243-.428,2.08,2.08,0,0,1,2.071,2.08,1.927,1.927,0,0,1-.184.836C893.631,1058.285,893.449,1058.305,893.276,1058.336Zm96.354,7.617a40.112,40.112,0,0,1-6.23,2.682,2.364,2.364,0,0,0-.408-1.214,1.75,1.75,0,0,0-.307-.377,3.047,3.047,0,0,0,.144-.958,3.8,3.8,0,0,0-.51-1.856,5.03,5.03,0,0,0-.8-1.091,9.131,9.131,0,0,0-1.59-1.407,16.277,16.277,0,0,0-1.479-.958,42.285,42.285,0,0,0-9.872-3.763c-.631-.173-1.3-.347-1.967-.51-.4-.092-.806-.194-1.213-.286-1.04-.245-2.121-.469-3.222-.693-.735-.143-1.468-.286-2.224-.428-.336-.051-.672-.112-1.02-.173l-1.406-.245c-2.714-.428-5.568-.816-8.536-1.142h-.02a245.374,245.374,0,0,0-50.353.021h-.031c-2.938.326-5.751.714-8.433,1.142-.479.082-.948.163-1.417.245-.347.061-.683.122-1.02.173-.756.143-1.489.286-2.213.428q-1.607.321-3.12.673c-.449.1-.887.2-1.315.316-.674.163-1.326.326-1.958.51a42.045,42.045,0,0,0-9.83,3.763q-.811.474-1.468.948a9.9,9.9,0,0,0-1.58,1.417,5.271,5.271,0,0,0-.785,1.091,3.761,3.761,0,0,0-.49,1.825,3.437,3.437,0,0,0,.194,1.152.976.976,0,0,0-.173.255,2.5,2.5,0,0,0-.377,1.214,41.283,41.283,0,0,1-6.446-2.753c-2.926-1.6-4.659-3.283-5.108-4.925a3.287,3.287,0,0,1-.112-.826,4.024,4.024,0,0,1,1.009-2.509,7.36,7.36,0,0,1,.868-.928,14,14,0,0,1,1.825-1.407c.469-.306.968-.612,1.518-.908.061-.031.113-.061.174-.092a62.683,62.683,0,0,1,15.041-5.109c.458-.1.927-.214,1.4-.316.785-.173,1.582-.337,2.4-.5,1.652-.337,3.365-.642,5.129-.928.683-.122,1.387-.235,2.09-.347.264-.041.519-.071.785-.112.571-.092,1.151-.173,1.734-.255.938-.132,1.9-.255,2.865-.377h.031c3.416-.428,6.974-.8,10.646-1.081q3.824-.306,7.791-.51c4.887-.255,9.928-.385,15.053-.394h1.2c5.127.009,10.177.139,15.064.394q3.977.2,7.821.51c3.589.286,7.067.632,10.4,1.05h.01c1.01.122,2,.255,2.988.4l1.733.245c.266.041.53.082.785.122.715.1,1.407.214,2.1.337,1.764.286,3.477.591,5.129.928.816.163,1.61.326,2.4.5q.765.168,1.5.336a62.907,62.907,0,0,1,14.98,5.078c.082.041.152.082.234.122.52.286,1.01.571,1.458.867a13.822,13.822,0,0,1,1.815,1.387,7.365,7.365,0,0,1,.876.938,4.056,4.056,0,0,1,1.06,2.56,3.248,3.248,0,0,1-.082.7v.01C994.361,1062.6,992.606,1064.322,989.629,1065.953Zm-8.581,2.605a1.151,1.151,0,0,0-.169-.034,1.214,1.214,0,0,0-1.047.624c0-.011,0-.024,0-.035a3.725,3.725,0,0,0-.449-1.387,1.833,1.833,0,0,1,1.5-.775.413.413,0,0,1,.112.01H981a1.774,1.774,0,0,1,.887.3,1.987,1.987,0,0,1-.173.367,4.637,4.637,0,0,1-.653.918Zm.882.566-.016.005a1.187,1.187,0,0,0-.218-.281l.01-.01a5.98,5.98,0,0,0,.7-1.071,1.778,1.778,0,0,1,.317,1.03.175.175,0,0,1-.01.071C982.461,1068.951,982.2,1069.043,981.93,1069.125Zm-7.312-8.28a2.767,2.767,0,0,0-1.243,2.3v.041c-1.031-.469-2.141-.887-3.285-1.275a2.745,2.745,0,0,0,.8-1.937c0-.112-.011-.235-.021-.347a2.732,2.732,0,0,0-.642-1.448,45.214,45.214,0,0,1,6.016,2.213h-.112A2.766,2.766,0,0,0,974.618,1060.844Zm-97.454-1.336a2.366,2.366,0,0,0-.042.469,2.678,2.678,0,0,0,.745,1.876c-1.122.377-2.212.785-3.232,1.234a2.748,2.748,0,0,0-1.357-2.315,2.7,2.7,0,0,0-1.4-.377c-.121,0-.244.01-.367.02a45.947,45.947,0,0,1,6.353-2.325A2.779,2.779,0,0,0,877.164,1059.509Zm-4.008,4.262-.005,0a1.347,1.347,0,0,0-2.628.425,1.321,1.321,0,0,0,.188.65l-.011-.007s-.011,0-.011-.01a2.043,2.043,0,0,1-.886-1.683,2.069,2.069,0,0,1,.856-1.683h.009a2.013,2.013,0,0,1,1.214-.4,2.239,2.239,0,0,1,.377.031h.011a2.09,2.09,0,0,1,1.683,2.05,1.784,1.784,0,0,1-.011.245C873.677,1063.516,873.411,1063.638,873.156,1063.771Zm-7.871,5.027a1.728,1.728,0,0,1,.2-.826,5.438,5.438,0,0,0,.7.989l.01.011a1.228,1.228,0,0,0-.148.218l-.016-.005-.733-.245A.324.324,0,0,1,865.284,1068.8Zm2.712.071,0,.012a1.223,1.223,0,0,0-.865-.357,1.2,1.2,0,0,0-.364.073l-.013-.014a4.986,4.986,0,0,1-.674-.948c-.05-.082-.091-.163-.132-.245a1.532,1.532,0,0,1,.723-.367,1.362,1.362,0,0,1,.46-.071,1.791,1.791,0,0,1,1.356.612A3.971,3.971,0,0,0,868,1068.87Zm55.89-25.911c-.078,0-.155,0-.232,0H904.886c3.735-1.529,10.172-3.276,20.133-3.276,9.977,0,16.126,1.745,19.605,3.276h-20.5C924.042,1042.962,923.965,1042.958,923.887,1042.958Zm1.133-4.293c-12.162,0-19.137,2.505-22.484,4.22,11.781-15.347,31.338-15.278,43.138-.593C942.211,1040.645,935.817,1038.665,925.02,1038.665Zm-56.137,28.318a2.506,2.506,0,0,0-1.753-.714,1.927,1.927,0,0,0-.348.031h-.009a2.3,2.3,0,0,0-1.06.418,2.677,2.677,0,0,1-.071-.632,3.27,3.27,0,0,1,.469-1.621,5.317,5.317,0,0,1,.785-1.03,9.839,9.839,0,0,1,1.7-1.407c.4-.265.835-.54,1.315-.806a2.76,2.76,0,0,0-.632,1.02,2.67,2.67,0,0,0-.153.908,2.725,2.725,0,0,0,1.284,2.315A8.053,8.053,0,0,0,868.883,1066.983Zm12.318-6.149-.014.005a1.34,1.34,0,0,0-1.317-1.162,1.348,1.348,0,0,0-1.233,1.911h-.005c-.009.01-.02.01-.03.021a2.043,2.043,0,0,1-.806-1.631,1.854,1.854,0,0,1,.133-.714,2.057,2.057,0,0,1,1.937-1.356h.1a2.081,2.081,0,0,1,1.977,2.07,1.89,1.89,0,0,1-.122.683C881.609,1060.722,881.406,1060.773,881.2,1060.834Zm-.571-3.5c.286-.072.562-.143.857-.214h.01c.337-.082.682-.163,1.04-.245,1.061-.245,2.151-.479,3.272-.693.744-.153,1.5-.3,2.274-.439.307-.051.622-.112.938-.163h.011c.346-.061.673-.112,1.02-.173a2.713,2.713,0,0,0-.327.357v.01a2.718,2.718,0,0,0-.55,1.642,2.689,2.689,0,0,0,.469,1.53c-1.764.316-3.448.663-5.058,1.03-.664.153-1.336.316-2.009.489a2.768,2.768,0,0,0-1.949-3.13Zm12.491-2.4c3.723-.53,7.68-.969,11.808-1.285a2.72,2.72,0,0,0-.978,2.1,2.753,2.753,0,0,0,.316,1.3c-3.375.286-6.619.653-9.687,1.091a2.471,2.471,0,0,0,.1-.724A2.751,2.751,0,0,0,893.122,1054.94Zm15.052-1.519c4.925-.316,10.054-.479,15.3-.49a2.766,2.766,0,0,0-1.652,2.529,2.828,2.828,0,0,0,.111.775c-4.313.031-8.555.183-12.633.438a2.487,2.487,0,0,0,.162-.918A2.76,2.76,0,0,0,908.174,1053.421Zm17.518-.479c4.844.031,9.575.194,14.123.5a2.741,2.741,0,0,0-1.264,2.315,2.906,2.906,0,0,0,.162.938c-3.722-.245-7.575-.4-11.5-.439a2.98,2.98,0,0,0,.111-.8A2.771,2.771,0,0,0,925.692,1052.942Zm13.543,2.814a2.07,2.07,0,0,1,4.14,0,2.01,2.01,0,0,1-.418,1.244l-.317-.031h-.009a1.325,1.325,0,0,0,.031-.156,1.352,1.352,0,0,0-2.7-.047l-.468-.031A1.989,1.989,0,0,1,939.235,1055.756Zm3.874-2.08c3.968.316,7.781.724,11.37,1.234h.02c.113.02.225.041.337.051a.073.073,0,0,1-.05.021,2.776,2.776,0,0,0-1.459,2.437,2.685,2.685,0,0,0,.113.765c-3.069-.449-6.322-.826-9.708-1.122a2.826,2.826,0,0,0,.326-1.305A2.76,2.76,0,0,0,943.109,1053.676Zm10.9,3.742a2.081,2.081,0,0,1,2.071-2.08.771.771,0,0,1,.153.01h.021a1.362,1.362,0,0,1,.53.133c.02,0,.03.01.05.02s.032,0,.041.01.032,0,.041.01a.934.934,0,0,1,.153.071,2.084,2.084,0,0,1,1.072,1.622,1.518,1.518,0,0,1,.009.2,2.046,2.046,0,0,1-.571,1.428.632.632,0,0,0-.194-.031l-.017,0a1.311,1.311,0,0,0,.068-.342,1.348,1.348,0,0,0-2.692-.1l-.01,0c-.173-.02-.356-.051-.529-.071A2.086,2.086,0,0,1,954.009,1057.418Zm4.783-.439v-.01a2.73,2.73,0,0,0-.785-1.519c.214.041.417.072.631.112h.011c.316.051.632.112.938.163.774.143,1.539.286,2.283.438,1.162.224,2.285.459,3.375.714.316.072.633.143.949.224.366.092.724.174,1.081.265a2.754,2.754,0,0,0-1.886,2.611,3.458,3.458,0,0,0,.05.551c-.754-.194-1.509-.377-2.242-.551-1.55-.357-3.171-.694-4.864-.989a2.69,2.69,0,0,0,.5-1.57A2.062,2.062,0,0,0,958.793,1056.98Zm7.271,3a2.075,2.075,0,0,1,1.58-2.009,2.048,2.048,0,0,1,.5-.061,2.081,2.081,0,0,1,1.987,1.479,2.2,2.2,0,0,1,.083.592,2.049,2.049,0,0,1-.877,1.682l-.011,0a1.309,1.309,0,0,0,.171-.623,1.357,1.357,0,0,0-1.357-1.357,1.343,1.343,0,0,0-1.327,1.21l-.005,0c-.205-.051-.408-.1-.6-.153A2.065,2.065,0,0,1,966.063,1059.978Zm7.995,3.171a2.076,2.076,0,0,1,2.07-2.08,2.067,2.067,0,0,1,1.193,3.763c0,.01-.011.01-.011.01l-.01.006a1.32,1.32,0,0,0,.188-.649,1.357,1.357,0,0,0-1.357-1.356,1.337,1.337,0,0,0-1.292,1.038l-.015-.008c-.235-.122-.479-.245-.734-.357A2.231,2.231,0,0,1,974.058,1063.149Zm4.823,0c0-.122-.01-.234-.021-.357v-.01a2.574,2.574,0,0,0-.172-.632,2.785,2.785,0,0,0-.378-.683c.3.184.572.357.837.541a10.282,10.282,0,0,1,1.712,1.4,5.02,5.02,0,0,1,.8,1.04,3.155,3.155,0,0,1,.489,1.642,2.076,2.076,0,0,1-.052.5,2.4,2.4,0,0,0-1.2-.316h-.011a2.494,2.494,0,0,0-1.875.846,7.912,7.912,0,0,0-1.53-1.57A2.764,2.764,0,0,0,978.881,1063.149Zm-23.841,16.805c-.041.061-.092.112-.133.173H954.9c-.163.224-.346.438-.539.663a30.917,30.917,0,0,1-5.7,5.282c-.121-1.56-1.753-2.937-4.762-4.048-.152-.061-.3-.122-.458-.173h-.011c-.244-.092-.5-.173-.765-.255-.143-.041-.285-.092-.427-.133a.014.014,0,0,0-.02,0c-.3-.092-.592-.184-.909-.255a2.521,2.521,0,0,0-.264-.071h-.011c-.091-.031-.194-.061-.285-.082a57.964,57.964,0,0,0-7.7-1.305h-.02a86.63,86.63,0,0,0-8.9-.459,83.654,83.654,0,0,0-9.045.479h-.032a57.69,57.69,0,0,0-7.555,1.285c-.122.031-.255.061-.377.1-.1.02-.2.051-.307.082H906.8c-.316.082-.622.173-.918.265h-.011c-.142.041-.275.082-.4.122h-.01c-.265.092-.52.173-.765.265-.153.051-.3.1-.439.163h-.009c-3.08,1.162-4.681,2.6-4.681,4.232a1.162,1.162,0,0,0,.02.265,25.784,25.784,0,0,1-6.108-5.751c-.173-.224-.338-.438-.49-.653-.042-.051-.083-.112-.123-.163-.091-.133-.194-.275-.285-.408-.02-.031-.041-.051-.052-.071a1.149,1.149,0,0,0-.092-.133c-.1-.153-.193-.3-.3-.439q-.444-.673-.794-1.285h-.011c-.07-.133-.142-.255-.214-.377s-.142-.255-.2-.377c-.307-.541-.542-1.01-.714-1.377-.041-.082-.071-.143-.1-.214l.011-.01-.052-.184h-.009l-.173-.591-.032-.112a1.926,1.926,0,0,1-.05-.408v-.01a1.834,1.834,0,0,1,.05-.4,3.812,3.812,0,0,1,1.592-2.039,11.014,11.014,0,0,1,1.693-1.02,32.6,32.6,0,0,1,6.669-2.355c.061-.02.121-.031.194-.051.653-.163,1.325-.316,2.028-.469,2.039-.449,4.223-.826,6.548-1.1l.112-.021a118.806,118.806,0,0,1,15.438-.958,122.936,122.936,0,0,1,14.348.816h.02c2.549.306,4.966.693,7.2,1.152.7.143,1.377.3,2.039.459.234.051.469.112.7.173a32.97,32.97,0,0,1,6.209,2.131,12.845,12.845,0,0,1,1.735.958,5.347,5.347,0,0,1,1.753,1.683,2.081,2.081,0,0,1,.307.989V1074a1.442,1.442,0,0,1-.041.347,2.162,2.162,0,0,1-.286.714c0,.01-.009.01-.009.02l-.052.092c-.04.1-.092.2-.142.306-.194.408-.438.867-.724,1.367h-.011c-.061.122-.143.245-.223.377s-.154.255-.235.387c-.265.408-.551.836-.867,1.275-.1.153-.214.3-.327.449-.03.051-.07.092-.1.143-.02.021-.032.041-.052.061C955.264,1079.679,955.151,1079.811,955.04,1079.954Zm-8.545,7.515a24.737,24.737,0,0,1-2.836,1.448c-.041.021-.082.031-.122.051a43.276,43.276,0,0,1-8.758,1.8,1.143,1.143,0,0,1-.185.02c-2.752.245-6.21.408-10.553.408-2.233,0-11.3-.3-17.193-1.6a2.824,2.824,0,0,1-.275-.071.346.346,0,0,0-.1-.021c-3.468-.938-5.435-2.09-5.435-3.222,0-.948,1.621-2.407,6.18-3.651.336-.092.692-.184,1.05-.275h.02c.111-.031.234-.051.357-.082h.009c.368-.092.744-.173,1.143-.255h.02c.2-.041.418-.082.632-.122h.009q.69-.122,1.408-.245h.02c.326-.051.652-.1.989-.153h.02a79.653,79.653,0,0,1,11.227-.744,81.2,81.2,0,0,1,11.095.724h.009c.338.051.663.1.979.153h.031c.478.071.947.153,1.4.234h.02c.225.051.45.092.664.133.387.082.774.163,1.141.245.143.031.275.061.409.092h.01c.4.1.775.194,1.142.3,4.557,1.244,6.18,2.7,6.18,3.651a1.621,1.621,0,0,1-.663,1.152C946.526,1087.449,946.505,1087.459,946.495,1087.469Zm-63.509-11.717c-.325-.194-.632-.377-.907-.571a7.485,7.485,0,0,1-1.223-1.02c-.133-.153-.255-.316-.367-.469a2.562,2.562,0,0,1-.377-.755,2.124,2.124,0,0,1-.1-.428,2,2,0,0,1-.01-.245c0-5.3,20.1-9.779,43.888-9.779s43.889,4.477,43.889,9.779a1.746,1.746,0,0,1-.111.673,2.587,2.587,0,0,1-.378.755c-.111.153-.235.316-.366.469a8.074,8.074,0,0,1-1.225,1.03c-.274.184-.58.367-.907.561-.357.194-.756.4-1.173.6a36.979,36.979,0,0,1-5.639,1.989c.234-.367.438-.714.632-1.04.07-.133.143-.265.2-.388.082-.133.143-.255.2-.377.132-.255.255-.51.357-.734a3.633,3.633,0,0,0,.275-.551,2.536,2.536,0,0,0,.143-.418,2.687,2.687,0,0,0,.1-.683.7.7,0,0,0,.011-.153,2.013,2.013,0,0,0-.011-.255c-.1-1.346-1.081-2.631-2.905-3.814a16.079,16.079,0,0,0-1.734-.959,33.3,33.3,0,0,0-5.894-2.1c-.4-.1-.806-.214-1.224-.316a105.878,105.878,0,0,0-24.015-2.458,103.331,103.331,0,0,0-24.555,2.6c-.234.051-.469.112-.693.173a31.513,31.513,0,0,0-6.353,2.335c-.46.235-.877.479-1.266.724-.162.1-.315.2-.458.306a7.517,7.517,0,0,0-1.714,1.621,3.694,3.694,0,0,0-.745,1.948,1.468,1.468,0,0,0-.009.194,1.7,1.7,0,0,0,.009.214,1.289,1.289,0,0,0,.032.286.831.831,0,0,0-.041.326l.009.061.042.408.021.194h.172c.123.286.3.653.521,1.111.061.112.121.245.194.377.061.112.122.245.194.377.173.326.377.693.6,1.071a36.53,36.53,0,0,1-5.934-2.08C883.73,1076.151,883.344,1075.947,882.986,1075.753Zm76.837,2.937a23.187,23.187,0,0,0,6.525-2.957,5.42,5.42,0,0,0,.642-.51,4.3,4.3,0,0,0,.5-.469,5,5,0,0,0,.641-.806,4.366,4.366,0,0,0,.225-.449,3.208,3.208,0,0,0,.234-.724c.02-.132.03-.275.041-.418v-.092c0-2.988-4.609-5.629-13.308-7.628-8.4-1.937-19.569-3-31.438-3s-23.024,1.061-31.427,3c-8.71,2-13.307,4.64-13.307,7.628v.092c.009.143.021.286.041.418a3.1,3.1,0,0,0,.235.724,3.046,3.046,0,0,0,.234.449,4.414,4.414,0,0,0,.631.806,5.6,5.6,0,0,0,.5.479c.194.163.407.337.632.5a23.194,23.194,0,0,0,6.526,2.957c-9.128-1.825-15.357-4.273-17.764-6.8a.294.294,0,0,0,.092.02c-.051-.02-.092-.041-.133-.061a5.486,5.486,0,0,1-.408-.479c-.052-.071-.1-.143-.143-.2a3.273,3.273,0,0,1-.316-.581c-.01-.01-.01-.02-.02-.041-.031-.082-.062-.173-.092-.265a.767.767,0,0,0,.1-.143,2.5,2.5,0,0,0,.387-1.336,2.355,2.355,0,0,0-.122-.765,7.43,7.43,0,0,1,2.264-2.141h.081a2.753,2.753,0,0,0,2.387-1.377,38.461,38.461,0,0,1,4.885-1.876,2.761,2.761,0,0,0,2.752-.816c2.6-.7,5.559-1.356,8.832-1.927a2.6,2.6,0,0,0,1.192.275,2.694,2.694,0,0,0,1.908-.775c3.5-.53,7.311-.979,11.4-1.305a2.77,2.77,0,0,0,1.468.418,2.718,2.718,0,0,0,1.785-.663c4.415-.3,9.137-.459,14.1-.479a2.756,2.756,0,0,0,3.945.01c4.559.041,8.9.214,12.992.479a2.707,2.707,0,0,0,1.773.653,2.666,2.666,0,0,0,1.439-.408c4.12.347,7.964.8,11.472,1.336a2.726,2.726,0,0,0,1.866.734,2.656,2.656,0,0,0,1.132-.245c3.345.591,6.352,1.254,8.974,1.988h.01a2.725,2.725,0,0,0,1.948.816,2.855,2.855,0,0,0,.591-.061,41.273,41.273,0,0,1,5.109,2v.01a2.724,2.724,0,0,0,2.13,1.2,7.068,7.068,0,0,1,2.428,2.417,2.673,2.673,0,0,0-.052.5,2.532,2.532,0,0,0,.327,1.234c0,.021-.01.041-.01.061a2.306,2.306,0,0,1-.144.449c-.009.02-.009.031-.02.041a3.8,3.8,0,0,1-.3.571c-.051.072-.1.143-.153.214a5.683,5.683,0,0,1-.408.479c-.01.01-.021.03-.041.041C975.189,1074.417,968.96,1076.864,959.823,1078.69Z" transform="translate(0 0)" fill="#fff"/>
        <path id="Path_63793" data-name="Path 63793" d="M931.742,1081.7h-.02a.25.25,0,0,1-.081-.01h-.02c-.664-.1-1.347-.184-2.06-.255h-.032c0-.01-.02,0-.02,0-.417-.051-.846-.092-1.275-.133h-.05c-1.683-.133-3.426-.2-5.15-.2-1.765,0-3.55.071-5.262.214h-.041c-.44.041-.867.082-1.3.133h-.02c-.01-.01-.01-.01-.02,0-.7.071-1.4.163-2.06.255a.31.31,0,0,1-.1.02h-.02c-4.354.673-7.6,1.866-7.6,3.549,0,2.672,8.5,3.9,16.417,3.9s16.417-1.224,16.417-3.9C939.451,1083.573,936.157,1082.37,931.742,1081.7Zm-8.707,6.781c-9.728,0-15.745-1.672-15.745-3.212,0-1.438,4.925-3.029,12.35-3.416h.142c1,.021,2.01.031,3.018.031q1.761,0,3.488-.031h.081c7.454.377,12.4,1.968,12.4,3.416C938.768,1086.805,932.753,1088.478,923.034,1088.478Z" transform="translate(1.088 1.011)" fill="#fff"/>
        <path id="Path_63794" data-name="Path 63794" d="M896.709,1071.255a32.229,32.229,0,0,1,3.206-.9c1.089-.239,2.186-.449,3.292-.644l.009,0a.227.227,0,0,0-.059-.449l-1.7.141-1.69.241a26.392,26.392,0,0,0-3.326.814,16.979,16.979,0,0,0-3.17,1.36,8.2,8.2,0,0,0-2.7,2.261.306.306,0,0,0,.478.38l.038-.042a9.282,9.282,0,0,1,2.58-1.881A18.684,18.684,0,0,1,896.709,1071.255Z" transform="translate(0.77 0.777)" fill="#fff"/>
        <path id="Path_63795" data-name="Path 63795" d="M861.314,1057.956a18.528,18.528,0,0,1,2.737-1.839,32.137,32.137,0,0,1,2.973-1.5c1.023-.444,2.06-.861,3.107-1.266l.009,0a.226.226,0,0,0-.145-.428l-1.638.463-1.611.561a26.443,26.443,0,0,0-3.108,1.437,17.056,17.056,0,0,0-2.85,1.945,8.183,8.183,0,0,0-2.216,2.737.306.306,0,0,0,.542.281l.029-.049A9.3,9.3,0,0,1,861.314,1057.956Z" transform="translate(0.14 0.455)" fill="#fff"/>
        <path id="Path_63796" data-name="Path 63796" d="M895.177,1074.568a23.079,23.079,0,0,1,3.614-1.355c1.234-.393,2.507-.652,3.779-.923,1.28-.237,2.568-.439,3.864-.623h.008a.226.226,0,0,0-.047-.45l-1.977.123-1.97.234a32.934,32.934,0,0,0-3.892.831,21.054,21.054,0,0,0-3.74,1.429,10.271,10.271,0,0,0-3.275,2.414.307.307,0,0,0,.458.409l.031-.032a7.455,7.455,0,0,1,1.468-1.139A14.69,14.69,0,0,1,895.177,1074.568Z" transform="translate(0.789 0.816)" fill="#fff"/>
        <path id="Path_63797" data-name="Path 63797" d="M896.451,1076.164a23.814,23.814,0,0,1,3.83-1.441,31.884,31.884,0,0,1,4.02-.887c.679-.112,1.366-.179,2.05-.275l2.067-.187h.013a.226.226,0,0,0-.024-.452l-2.1.021c-.7.056-1.4.095-2.1.173a28.032,28.032,0,0,0-4.152.8,21.944,21.944,0,0,0-3.965,1.517,12.724,12.724,0,0,0-3.482,2.5.308.308,0,0,0,.436.433l.022-.021a9.792,9.792,0,0,1,1.606-1.2A16.714,16.714,0,0,1,896.451,1076.164Z" transform="translate(0.81 0.85)" fill="#fff"/>
        <path id="Path_63798" data-name="Path 63798" d="M902.623,1076.5a33.344,33.344,0,0,1,4.29-.875c1.451-.2,2.914-.316,4.386-.4h.011a.226.226,0,0,0-.011-.452l-2.236-.019c-.744.048-1.493.065-2.235.147a29.829,29.829,0,0,0-4.424.783,24.378,24.378,0,0,0-4.232,1.553,14.648,14.648,0,0,0-3.766,2.538.308.308,0,0,0,.412.457l.024-.021a16.969,16.969,0,0,1,3.682-2.234A26.324,26.324,0,0,1,902.623,1076.5Z" transform="translate(0.845 0.886)" fill="#fff"/>
        <path id="Path_63799" data-name="Path 63799" d="M875.071,1054.356l-2.161.575c-.7.244-1.421.459-2.117.734a29.754,29.754,0,0,0-4.056,1.929,24.419,24.419,0,0,0-3.668,2.62,14.679,14.679,0,0,0-2.958,3.447.308.308,0,0,0,.518.332l.018-.028a16.973,16.973,0,0,1,2.957-3.131,26.443,26.443,0,0,1,3.56-2.514,33.416,33.416,0,0,1,3.9-1.981c1.344-.582,2.726-1.078,4.123-1.547l.01,0a.226.226,0,0,0-.131-.433Z" transform="translate(0.17 0.483)" fill="#fff"/>
        <path id="Path_63800" data-name="Path 63800" d="M915.13,1076.345l-2.409-.019c-.8.047-1.607.065-2.408.145a34.782,34.782,0,0,0-4.772.776,28.169,28.169,0,0,0-4.6,1.541,16.619,16.619,0,0,0-4.166,2.549.307.307,0,0,0,.388.476l.026-.019a19.324,19.324,0,0,1,4.078-2.256,30.821,30.821,0,0,1,4.474-1.473,39.122,39.122,0,0,1,4.65-.871c1.569-.2,3.15-.315,4.738-.4h.01a.226.226,0,0,0-.01-.452Z" transform="translate(0.892 0.917)" fill="#fff"/>
        <path id="Path_63801" data-name="Path 63801" d="M950.782,1074.866c.91-.911.368-2.927-1.209-4.505s-3.6-2.119-4.505-1.208-.368,2.927,1.209,4.5S949.871,1075.776,950.782,1074.866Z" transform="translate(1.838 0.767)" fill="#fff"/>
        <path id="Path_63802" data-name="Path 63802" d="M949.974,1076.716c-.97-.314-1.9-.115-2.082.444s.458,1.266,1.427,1.58,1.9.115,2.082-.444S950.943,1077.029,949.974,1076.716Z" transform="translate(1.901 0.921)" fill="#fff"/>
      </g>
      <g id="Group_41386" data-name="Group 41386">
        <g id="Group_41385" data-name="Group 41385">
          <g transform="matrix(1, 0, 0, 1, 847.47, 1013.92)" filter="url(#Path_63803)">
            <path id="Path_63803-2" data-name="Path 63803" d="M887.33,1042.8a7.028,7.028,0,0,0,2.784-.2c1.074-.316,1.53-.891,1.354-1.528-.17-.6-.764-.819-2.161-.862-1.922-.041-3.36-.543-3.816-1.942-.54-1.636.624-3.42,3.262-4.175a7.473,7.473,0,0,1,2.98-.284q-.048.966-.089,1.93a5.71,5.71,0,0,0-2.425.171c-1.076.308-1.466.9-1.313,1.4.186.62.879.7,2.4.784,2.083.1,3.2.789,3.552,2.167.414,1.65-.565,3.359-3.354,4.178a7.817,7.817,0,0,1-3.071.309Q887.379,1043.781,887.33,1042.8Z" transform="translate(-847.47 -1013.92)" fill="#fff"/>
          </g>
          <g transform="matrix(1, 0, 0, 1, 847.47, 1013.92)" filter="url(#Path_63804)">
            <path id="Path_63804-2" data-name="Path 63804" d="M901.817,1041.375a6.428,6.428,0,0,1-2.033.739c-2.419.5-4.3-.5-4.86-2.745-.519-2.076.651-4.2,3.649-4.817a6.187,6.187,0,0,1,1.958-.094q-.04.87-.074,1.74a3.619,3.619,0,0,0-1.418.05,1.963,1.963,0,0,0-1.669,2.457,2,2,0,0,0,2.536,1.561,4.074,4.074,0,0,0,1.317-.489Q901.523,1040.575,901.817,1041.375Z" transform="translate(-847.47 -1013.92)" fill="#fff"/>
          </g>
          <g transform="matrix(1, 0, 0, 1, 847.47, 1013.92)" filter="url(#Path_63805)">
            <path id="Path_63805-2" data-name="Path 63805" d="M907.516,1040.63l-.24-.709-.047.007a2.9,2.9,0,0,1-2.045,1.213,2.348,2.348,0,0,1-2.841-1.8c-.347-1.869,1.325-3.122,4.137-3.5l-.015-.1c-.054-.385-.359-.906-1.583-.722a4.677,4.677,0,0,0-2.105.9q-.351-.685-.707-1.369a6.946,6.946,0,0,1,3.022-1.144c2.7-.4,3.735.959,3.932,2.666q.152,1.266.3,2.532a10.835,10.835,0,0,0,.319,1.76Q908.58,1040.485,907.516,1040.63Zm-.759-3.393c-1.282.165-2.229.606-2.087,1.48a.853.853,0,0,0,1.08.713,1.33,1.33,0,0,0,1.124-1.013,1.478,1.478,0,0,0-.007-.392C906.83,1037.762,906.794,1037.5,906.757,1037.237Z" transform="translate(-847.47 -1013.92)" fill="#fff"/>
          </g>
          <g transform="matrix(1, 0, 0, 1, 847.47, 1013.92)" filter="url(#Path_63806)">
            <path id="Path_63806-2" data-name="Path 63806" d="M910.318,1029.571q1.293-.133,2.589-.239l.867,10.614q-1.185.1-2.369.219Q910.86,1034.867,910.318,1029.571Z" transform="translate(-847.47 -1013.92)" fill="#fff"/>
          </g>
          <g transform="matrix(1, 0, 0, 1, 847.47, 1013.92)" filter="url(#Path_63807)">
            <path id="Path_63807-2" data-name="Path 63807" d="M920.037,1039.606q-.079-.366-.161-.731h-.047a2.886,2.886,0,0,1-2.16.984,2.345,2.345,0,0,1-2.62-2.1c-.142-1.9,1.653-2.958,4.482-3.03,0-.035,0-.07,0-.106-.011-.389-.258-.941-1.491-.891a4.681,4.681,0,0,0-2.185.668q-.273-.719-.552-1.438a6.87,6.87,0,0,1,3.12-.807c2.725-.1,3.6,1.361,3.611,3.079q.012,1.275.023,2.55a11.193,11.193,0,0,0,.126,1.784Q921.108,1039.577,920.037,1039.606Zm-.384-3.455c-1.291.023-2.274.359-2.229,1.243a.852.852,0,0,0,.992.827,1.324,1.324,0,0,0,1.224-.885,1.511,1.511,0,0,0,.037-.391Z" transform="translate(-847.47 -1013.92)" fill="#fff"/>
          </g>
          <g transform="matrix(1, 0, 0, 1, 847.47, 1013.92)" filter="url(#Path_63808)">
            <path id="Path_63808-2" data-name="Path 63808" d="M923.884,1039.566c.033-.48.072-1.365.078-2.189l.058-8.459q1.3.009,2.6.044-.057,2.093-.115,4.183h.032a2.919,2.919,0,0,1,2.493-.941c1.959.094,3.275,1.662,3.081,3.9a3.685,3.685,0,0,1-3.791,3.738,2.63,2.63,0,0,1-2.265-1.264h-.032q-.06.508-.119,1.017Q924.893,1039.573,923.884,1039.566Zm2.526-3.077a1.526,1.526,0,0,0,.037.406,1.461,1.461,0,0,0,1.38,1.128c1.029.042,1.7-.67,1.776-1.989.064-1.137-.444-2.07-1.611-2.118a1.5,1.5,0,0,0-1.492,1.075,1.714,1.714,0,0,0-.061.418C926.43,1035.769,926.419,1036.129,926.41,1036.489Z" transform="translate(-847.47 -1013.92)" fill="#fff"/>
          </g>
          <g transform="matrix(1, 0, 0, 1, 847.47, 1013.92)" filter="url(#Path_63809)">
            <path id="Path_63809-2" data-name="Path 63809" d="M936.759,1030.935a1.239,1.239,0,0,1-1.493.991,1.162,1.162,0,1,1,.242-2.282A1.226,1.226,0,0,1,936.759,1030.935Zm-3.471,9.076q.324-3.652.646-7.306,1.262.111,2.52.249-.4,3.645-.8,7.291Q934.473,1040.116,933.288,1040.011Z" transform="translate(-847.47 -1013.92)" fill="#fff"/>
          </g>
          <g transform="matrix(1, 0, 0, 1, 847.47, 1013.92)" filter="url(#Path_63810)">
            <path id="Path_63810-2" data-name="Path 63810" d="M938.888,1029.9q1.29.164,2.579.353-.775,5.268-1.551,10.536-1.18-.174-2.361-.323Q938.221,1035.186,938.888,1029.9Z" transform="translate(-847.47 -1013.92)" fill="#fff"/>
          </g>
          <g transform="matrix(1, 0, 0, 1, 847.47, 1013.92)" filter="url(#Path_63811)">
            <path id="Path_63811-2" data-name="Path 63811" d="M945.967,1032.3a1.242,1.242,0,0,1-1.567.876,1.163,1.163,0,1,1,.412-2.258A1.23,1.23,0,0,1,945.967,1032.3Zm-4.146,8.791q.6-3.619,1.19-7.238,1.251.206,2.5.437-.669,3.606-1.339,7.212Q943,1041.282,941.821,1041.089Z" transform="translate(-847.47 -1013.92)" fill="#fff"/>
          </g>
          <g transform="matrix(1, 0, 0, 1, 847.47, 1013.92)" filter="url(#Path_63812)">
            <path id="Path_63812-2" data-name="Path 63812" d="M950.757,1033.228q-.234,1.023-.466,2.047.889.2,1.776.418-.2.816-.4,1.633-.875-.213-1.752-.412-.293,1.295-.588,2.588c-.2.864-.067,1.306.648,1.475a4.414,4.414,0,0,0,.713.109q-.2.84-.391,1.68a5.135,5.135,0,0,1-1.56-.167,2.605,2.605,0,0,1-1.618-1,2.957,2.957,0,0,1-.212-2.266l.606-2.938q-.525-.108-1.051-.211.162-.825.325-1.649.533.105,1.065.214.16-.778.321-1.557Q949.463,1033.2,950.757,1033.228Z" transform="translate(-847.47 -1013.92)" fill="#fff"/>
          </g>
          <g transform="matrix(1, 0, 0, 1, 847.47, 1013.92)" filter="url(#Path_63813)">
            <path id="Path_63813-2" data-name="Path 63813" d="M955.428,1036.561q.116,1.9.2,3.792c.007.454.016,1.018,0,1.419l.046.013c.215-.343.5-.84.723-1.211q.973-1.592,1.973-3.171,1.313.395,2.618.818-1.659,2-3.249,4.038c-1.932,2.451-2.949,3.375-3.971,3.849a4.535,4.535,0,0,1-2.446.378q.008-1,.005-2a3.135,3.135,0,0,0,1.1-.118,2.759,2.759,0,0,0,1.193-.625.6.6,0,0,0,.21-.285.758.758,0,0,0-.008-.391q-.481-3.609-1.127-7.225Q954.06,1036.187,955.428,1036.561Z" transform="translate(-847.47 -1013.92)" fill="#fff"/>
          </g>
        </g>
      </g>
    </g>
  </g>
</svg>
