<svg xmlns="http://www.w3.org/2000/svg" xmlns:xlink="http://www.w3.org/1999/xlink" width="150" height="96" viewBox="0 0 150 96">
  <defs>
    <clipPath id="clip-path">
      <rect id="Rectangle_90602" data-name="Rectangle 90602" width="150" height="96" transform="translate(5514 -1973)" fill="none" stroke="#707070" stroke-width="1"/>
    </clipPath>
    <filter id="Path_63866" x="28.121" y="8.554" width="26.956" height="29.321" filterUnits="userSpaceOnUse">
      <feOffset input="SourceAlpha"/>
      <feGaussianBlur stdDeviation="3" result="blur"/>
      <feFlood/>
      <feComposite operator="in" in2="blur"/>
      <feComposite in="SourceGraphic"/>
    </filter>
    <filter id="Path_63867" x="37.02" y="9.461" width="27.345" height="29.62" filterUnits="userSpaceOnUse">
      <feOffset input="SourceAlpha"/>
      <feGaussianBlur stdDeviation="3" result="blur-2"/>
      <feFlood/>
      <feComposite operator="in" in2="blur-2"/>
      <feComposite in="SourceGraphic"/>
    </filter>
    <filter id="Path_63868" x="47.154" y="8.512" width="25.701" height="26.076" filterUnits="userSpaceOnUse">
      <feOffset input="SourceAlpha"/>
      <feGaussianBlur stdDeviation="3" result="blur-3"/>
      <feFlood/>
      <feComposite operator="in" in2="blur-3"/>
      <feComposite in="SourceGraphic"/>
    </filter>
    <filter id="Path_63869" x="55.617" y="8.007" width="24.731" height="25.893" filterUnits="userSpaceOnUse">
      <feOffset input="SourceAlpha"/>
      <feGaussianBlur stdDeviation="3" result="blur-4"/>
      <feFlood/>
      <feComposite operator="in" in2="blur-4"/>
      <feComposite in="SourceGraphic"/>
    </filter>
    <filter id="Path_63870" x="62.704" y="8.14" width="25.76" height="25.91" filterUnits="userSpaceOnUse">
      <feOffset input="SourceAlpha"/>
      <feGaussianBlur stdDeviation="3" result="blur-5"/>
      <feFlood/>
      <feComposite operator="in" in2="blur-5"/>
      <feComposite in="SourceGraphic"/>
    </filter>
    <filter id="Path_63871" x="74.634" y="6.349" width="28.627" height="29.467" filterUnits="userSpaceOnUse">
      <feOffset input="SourceAlpha"/>
      <feGaussianBlur stdDeviation="3" result="blur-6"/>
      <feFlood/>
      <feComposite operator="in" in2="blur-6"/>
      <feComposite in="SourceGraphic"/>
    </filter>
    <filter id="Path_63872" x="85.291" y="8.229" width="27.018" height="28.694" filterUnits="userSpaceOnUse">
      <feOffset input="SourceAlpha"/>
      <feGaussianBlur stdDeviation="3" result="blur-7"/>
      <feFlood/>
      <feComposite operator="in" in2="blur-7"/>
      <feComposite in="SourceGraphic"/>
    </filter>
    <filter id="Path_63873" x="94.461" y="10.239" width="27.388" height="29.5" filterUnits="userSpaceOnUse">
      <feOffset input="SourceAlpha"/>
      <feGaussianBlur stdDeviation="3" result="blur-8"/>
      <feFlood/>
      <feComposite operator="in" in2="blur-8"/>
      <feComposite in="SourceGraphic"/>
    </filter>
  </defs>
  <g id="Mask_Group_44" data-name="Mask Group 44" transform="translate(-5514 1973)" clip-path="url(#clip-path)">
    <g id="Group_41422" data-name="Group 41422" transform="translate(3951 -3311.96)">
      <g id="Group_41402" data-name="Group 41402" transform="translate(1564.776 1354.963)" opacity="0.38">
        <path id="Path_63792" data-name="Path 63792" d="M992.21,1053.586c-3.723-2.094-9.128-3.971-16.058-5.569a190.854,190.854,0,0,0-26.372-3.888h-.006l-.414-.665a31.08,31.08,0,0,0-6.1-6.712c-11.03-9.224-25.2-9.184-36.181,0a31.269,31.269,0,0,0-6.1,6.711l-.363.585h0a193.293,193.293,0,0,0-27.339,3.97c-6.931,1.6-12.334,3.475-16.058,5.569-3.815,2.155-5.754,4.5-5.754,6.961s1.939,4.806,5.754,6.961a44.287,44.287,0,0,0,8.169,3.414,2.552,2.552,0,0,0,1.918.877,2.34,2.34,0,0,0,.67-.093c.206.062.412.124.628.186,2,3.744,9.726,6.271,16.358,7.8,2.155.5,4.455.949,6.879,1.351a25.878,25.878,0,0,0,12.83,10.024c.516.165,1.073.33,1.681.475a.235.235,0,0,0,.082.021q.619.185,1.3.34a78.793,78.793,0,0,0,17.214,1.64,93.471,93.471,0,0,0,11.757-.691c.267-.031.536-.062.794-.1a28.014,28.014,0,0,0,7.6-1.691.035.035,0,0,1,.021-.01,11.293,11.293,0,0,0,3.25-1.661c.01,0,.021-.01.031-.021a32.819,32.819,0,0,0,9.3-8.343q3.573-.588,6.765-1.33c6.621-1.526,14.356-4.053,16.356-7.8.258-.072.506-.144.753-.217a2.387,2.387,0,0,0,.773.124,2.518,2.518,0,0,0,2-.98,43.407,43.407,0,0,0,7.86-3.31c3.816-2.155,5.755-4.5,5.755-6.961S996.026,1055.741,992.21,1053.586Zm-65.468,2.949h-.026a1.339,1.339,0,0,0-2.63-.01h-.027c-.2,0-.4,0-.6.01a1.987,1.987,0,0,1-.155-.784,2.094,2.094,0,1,1,4.188,0,2.056,2.056,0,0,1-.155.794C927.145,1056.535,926.937,1056.535,926.742,1056.535Zm-18.048.526h0a1.367,1.367,0,0,0-2.733.058,1.273,1.273,0,0,0,.028.137h-.018l-.32.031a2.051,2.051,0,0,1-.412-1.237,2.094,2.094,0,1,1,3.94.98Zm-14.944,1.6-.015,0a1.361,1.361,0,1,0-2.657.437l-.021,0a1.467,1.467,0,0,0-.205.041,2.036,2.036,0,0,1-.557-1.413,1.835,1.835,0,0,1,.041-.423v-.01a2.1,2.1,0,0,1,.794-1.238,1.977,1.977,0,0,1,1.257-.433,2.1,2.1,0,0,1,2.095,2.1,1.95,1.95,0,0,1-.186.846C894.111,1058.608,893.926,1058.629,893.751,1058.66Zm97.449,7.7a40.557,40.557,0,0,1-6.3,2.712,2.391,2.391,0,0,0-.412-1.227,1.773,1.773,0,0,0-.31-.382,3.081,3.081,0,0,0,.145-.969,3.845,3.845,0,0,0-.516-1.877,5.084,5.084,0,0,0-.805-1.1,9.237,9.237,0,0,0-1.608-1.423,16.51,16.51,0,0,0-1.5-.969,42.772,42.772,0,0,0-9.984-3.806c-.638-.175-1.31-.351-1.989-.516-.4-.093-.815-.2-1.227-.289-1.052-.248-2.145-.474-3.259-.7-.744-.145-1.485-.289-2.249-.433-.34-.052-.68-.114-1.031-.176l-1.422-.247c-2.744-.433-5.631-.825-8.633-1.155h-.021a248.176,248.176,0,0,0-50.925.021h-.031c-2.971.33-5.817.722-8.529,1.155l-1.434.248c-.351.062-.691.124-1.031.175-.764.144-1.506.289-2.238.433q-1.626.325-3.156.681c-.454.1-.9.206-1.33.32-.682.165-1.341.33-1.98.516a42.523,42.523,0,0,0-9.942,3.805q-.82.48-1.485.959a10,10,0,0,0-1.6,1.434,5.33,5.33,0,0,0-.794,1.1,3.8,3.8,0,0,0-.5,1.846,3.476,3.476,0,0,0,.2,1.165.983.983,0,0,0-.175.258,2.527,2.527,0,0,0-.382,1.227,41.76,41.76,0,0,1-6.519-2.785c-2.959-1.619-4.712-3.321-5.166-4.981a3.324,3.324,0,0,1-.114-.835,4.07,4.07,0,0,1,1.02-2.537,7.46,7.46,0,0,1,.878-.939,14.18,14.18,0,0,1,1.846-1.423c.474-.309.979-.619,1.536-.918.062-.031.114-.062.176-.093a63.4,63.4,0,0,1,15.212-5.167c.463-.1.938-.217,1.412-.32.794-.175,1.6-.34,2.425-.505,1.671-.34,3.4-.65,5.188-.938.691-.124,1.4-.237,2.114-.351.267-.041.525-.072.794-.113.578-.093,1.164-.175,1.753-.258.949-.134,1.918-.258,2.9-.382h.032c3.455-.433,7.053-.8,10.767-1.093q3.868-.309,7.879-.516c4.942-.258,10.041-.389,15.224-.4h1.212c5.185.009,10.293.14,15.236.4q4.022.2,7.91.516c3.63.289,7.147.64,10.519,1.062h.01c1.021.124,2.021.258,3.022.4l1.752.248c.269.041.536.082.794.124.723.1,1.423.217,2.126.34,1.784.289,3.517.6,5.187.939.825.165,1.628.33,2.422.505q.773.17,1.517.34a63.626,63.626,0,0,1,15.15,5.136c.083.042.154.083.237.124.526.289,1.021.578,1.475.877a13.978,13.978,0,0,1,1.836,1.4,7.452,7.452,0,0,1,.886.949,4.1,4.1,0,0,1,1.072,2.589,3.287,3.287,0,0,1-.082.712v.01C995.984,1062.97,994.21,1064.713,991.2,1066.364ZM982.521,1069a1.162,1.162,0,0,0-.171-.034,1.228,1.228,0,0,0-1.059.631c0-.011,0-.024,0-.035a3.766,3.766,0,0,0-.454-1.4,1.854,1.854,0,0,1,1.515-.784.422.422,0,0,1,.114.01h.011a1.8,1.8,0,0,1,.9.3,2.019,2.019,0,0,1-.175.371,4.692,4.692,0,0,1-.66.928Zm.892.572-.017.005a1.208,1.208,0,0,0-.221-.284l.01-.01a6.054,6.054,0,0,0,.711-1.083,1.8,1.8,0,0,1,.321,1.042.176.176,0,0,1-.01.072C983.949,1069.4,983.681,1069.488,983.413,1069.571Zm-7.4-8.374a2.8,2.8,0,0,0-1.257,2.331v.041c-1.043-.474-2.166-.9-3.322-1.289a2.777,2.777,0,0,0,.806-1.96c0-.113-.011-.237-.021-.35a2.764,2.764,0,0,0-.65-1.465,45.732,45.732,0,0,1,6.085,2.238h-.113A2.8,2.8,0,0,0,976.017,1061.2Zm-98.561-1.351a2.391,2.391,0,0,0-.042.474,2.709,2.709,0,0,0,.753,1.9c-1.134.382-2.237.794-3.268,1.248a2.78,2.78,0,0,0-1.373-2.341,2.733,2.733,0,0,0-1.413-.382c-.123,0-.246.01-.371.021a46.478,46.478,0,0,1,6.425-2.351A2.812,2.812,0,0,0,877.456,1059.846Zm-4.054,4.311-.005,0a1.362,1.362,0,0,0-2.658.43,1.336,1.336,0,0,0,.19.657l-.011-.007s-.011,0-.011-.01a2.065,2.065,0,0,1-.9-1.7,2.092,2.092,0,0,1,.866-1.7h.009a2.035,2.035,0,0,1,1.227-.4,2.278,2.278,0,0,1,.382.031h.011a2.114,2.114,0,0,1,1.7,2.073,1.8,1.8,0,0,1-.011.247C873.929,1063.9,873.66,1064.022,873.4,1064.157Zm-7.961,5.084a1.747,1.747,0,0,1,.206-.835,5.5,5.5,0,0,0,.712,1l.01.011a1.251,1.251,0,0,0-.15.221l-.016-.005-.741-.248A.329.329,0,0,1,865.441,1069.241Zm2.743.072,0,.012a1.236,1.236,0,0,0-.875-.361,1.212,1.212,0,0,0-.368.074l-.013-.015a5.032,5.032,0,0,1-.682-.959c-.051-.082-.092-.165-.133-.247a1.549,1.549,0,0,1,.731-.371,1.376,1.376,0,0,1,.465-.072,1.812,1.812,0,0,1,1.372.619A4.016,4.016,0,0,0,868.185,1069.313Zm56.525-26.206c-.078,0-.157,0-.235,0H905.493c3.778-1.546,10.287-3.314,20.362-3.314,10.09,0,16.309,1.765,19.828,3.314H924.946C924.866,1043.11,924.789,1043.107,924.71,1043.107Zm1.146-4.342c-12.3,0-19.355,2.534-22.739,4.268,11.915-15.521,31.694-15.451,43.629-.6C943.242,1040.767,936.776,1038.766,925.855,1038.766Zm-56.775,28.64a2.534,2.534,0,0,0-1.773-.722,1.947,1.947,0,0,0-.352.031h-.009a2.327,2.327,0,0,0-1.073.423,2.7,2.7,0,0,1-.072-.639,3.308,3.308,0,0,1,.474-1.64,5.389,5.389,0,0,1,.794-1.042,9.96,9.96,0,0,1,1.722-1.423c.4-.268.845-.547,1.33-.815a2.791,2.791,0,0,0-.639,1.031,2.7,2.7,0,0,0-.155.918,2.757,2.757,0,0,0,1.3,2.341A8.135,8.135,0,0,0,869.081,1067.405Zm12.458-6.219-.015.005a1.355,1.355,0,0,0-1.332-1.176,1.363,1.363,0,0,0-1.247,1.933h-.005c-.009.01-.021.01-.03.021a2.066,2.066,0,0,1-.815-1.65,1.876,1.876,0,0,1,.134-.722,2.081,2.081,0,0,1,1.958-1.371h.1a2.1,2.1,0,0,1,2,2.094,1.911,1.911,0,0,1-.124.691C881.951,1061.073,881.746,1061.125,881.539,1061.186Zm-.578-3.537c.29-.072.568-.144.867-.216h.01c.34-.083.69-.165,1.052-.248,1.073-.247,2.175-.484,3.31-.7.753-.155,1.517-.3,2.3-.444.31-.052.629-.113.949-.165h.011c.35-.062.68-.114,1.031-.175a2.765,2.765,0,0,0-.331.361v.01a2.749,2.749,0,0,0-.556,1.66,2.72,2.72,0,0,0,.474,1.547c-1.784.32-3.487.67-5.115,1.042-.671.155-1.351.32-2.032.495a2.8,2.8,0,0,0-1.971-3.166Zm12.633-2.423c3.765-.536,7.767-.98,11.943-1.3a2.75,2.75,0,0,0-.989,2.125,2.783,2.783,0,0,0,.32,1.31c-3.414.289-6.694.66-9.8,1.1a2.5,2.5,0,0,0,.1-.732A2.782,2.782,0,0,0,893.595,1055.225Zm15.223-1.537c4.981-.32,10.169-.485,15.47-.5a2.8,2.8,0,0,0-1.671,2.557,2.858,2.858,0,0,0,.113.784c-4.362.031-8.652.186-12.777.443a2.514,2.514,0,0,0,.164-.928A2.792,2.792,0,0,0,908.818,1053.689Zm17.717-.485c4.9.031,9.684.2,14.284.505a2.772,2.772,0,0,0-1.278,2.341,2.938,2.938,0,0,0,.164.949c-3.764-.247-7.662-.4-11.632-.444a3.013,3.013,0,0,0,.112-.8A2.8,2.8,0,0,0,926.535,1053.2Zm13.7,2.846a2.094,2.094,0,1,1,4.187,0,2.033,2.033,0,0,1-.423,1.258l-.321-.031h-.009a1.341,1.341,0,0,0,.031-.158,1.367,1.367,0,0,0-2.734-.048l-.473-.031A2.011,2.011,0,0,1,940.232,1056.05Zm3.918-2.1c4.013.32,7.87.732,11.5,1.248h.021c.115.021.228.041.34.051a.073.073,0,0,1-.051.021,2.807,2.807,0,0,0-1.476,2.465,2.713,2.713,0,0,0,.114.773c-3.1-.454-6.394-.835-9.818-1.134a2.859,2.859,0,0,0,.33-1.32A2.791,2.791,0,0,0,944.15,1053.947Zm11.025,3.785a2.1,2.1,0,0,1,2.095-2.1.763.763,0,0,1,.155.011h.021a1.374,1.374,0,0,1,.536.134c.021,0,.03.01.051.021s.032,0,.041.01.032,0,.041.01a.945.945,0,0,1,.155.072,2.109,2.109,0,0,1,1.084,1.64,1.531,1.531,0,0,1,.009.206,2.069,2.069,0,0,1-.578,1.444.638.638,0,0,0-.2-.031l-.018,0a1.324,1.324,0,0,0,.069-.345,1.363,1.363,0,0,0-2.723-.1l-.01,0c-.175-.02-.36-.052-.535-.072A2.11,2.11,0,0,1,955.174,1057.731Zm4.838-.444v-.01a2.785,2.785,0,0,0-.434-1.1,2.819,2.819,0,0,0-.36-.433c.216.041.422.072.638.113h.011c.32.052.639.114.949.165.783.144,1.556.289,2.309.443,1.176.227,2.311.464,3.414.722.32.072.64.144.96.227.37.093.732.176,1.093.268a2.786,2.786,0,0,0-1.908,2.64,3.509,3.509,0,0,0,.05.557c-.762-.2-1.526-.382-2.268-.557-1.568-.361-3.207-.7-4.919-1a2.722,2.722,0,0,0,.5-1.588A2.086,2.086,0,0,0,960.012,1057.288Zm7.353,3.032a2.1,2.1,0,0,1,1.6-2.032,2.063,2.063,0,0,1,.506-.062,2.105,2.105,0,0,1,2.01,1.5,2.217,2.217,0,0,1,.084.6,2.072,2.072,0,0,1-.887,1.7l-.011,0a1.326,1.326,0,0,0,.173-.63,1.373,1.373,0,0,0-1.373-1.373,1.358,1.358,0,0,0-1.342,1.224l-.005,0c-.207-.052-.413-.1-.61-.155A2.092,2.092,0,0,1,967.366,1060.32Zm8.085,3.207a2.1,2.1,0,1,1,4.2,0,2.066,2.066,0,0,1-.9,1.7c0,.01-.011.01-.011.01l-.01.006a1.336,1.336,0,0,0,.19-.656,1.372,1.372,0,0,0-1.373-1.372,1.352,1.352,0,0,0-1.307,1.05l-.015-.008c-.237-.124-.485-.248-.743-.361A2.258,2.258,0,0,1,975.451,1063.527Zm4.878,0c0-.124-.01-.237-.022-.361v-.01a2.61,2.61,0,0,0-.174-.639,2.824,2.824,0,0,0-.383-.691c.3.186.578.361.847.547a10.421,10.421,0,0,1,1.732,1.413,5.08,5.08,0,0,1,.805,1.052,3.19,3.19,0,0,1,.495,1.66,2.109,2.109,0,0,1-.052.505,2.433,2.433,0,0,0-1.216-.32h-.011a2.522,2.522,0,0,0-1.9.856,8,8,0,0,0-1.547-1.588A2.8,2.8,0,0,0,980.329,1063.527Zm-24.112,17c-.041.062-.093.113-.134.175h-.011c-.165.227-.35.443-.546.67a31.268,31.268,0,0,1-5.766,5.342c-.123-1.578-1.773-2.97-4.816-4.094-.154-.062-.308-.124-.463-.175h-.011c-.247-.093-.5-.175-.773-.258-.144-.041-.288-.093-.432-.134a.014.014,0,0,0-.021,0c-.3-.093-.6-.186-.919-.258a2.55,2.55,0,0,0-.267-.072h-.011c-.092-.031-.2-.062-.288-.083a58.635,58.635,0,0,0-7.786-1.32h-.021a87.6,87.6,0,0,0-9-.464,84.589,84.589,0,0,0-9.148.485h-.032a58.319,58.319,0,0,0-7.641,1.3c-.124.031-.258.062-.382.1-.1.021-.207.052-.31.082h-.009c-.32.083-.629.176-.928.268h-.011c-.143.042-.278.083-.4.124h-.01c-.268.093-.526.176-.773.268-.155.052-.3.1-.444.165h-.009c-3.115,1.176-4.734,2.63-4.734,4.28a1.181,1.181,0,0,0,.021.268,26.082,26.082,0,0,1-6.177-5.817c-.175-.227-.341-.443-.495-.66-.042-.052-.084-.113-.125-.165-.092-.134-.2-.279-.288-.413-.021-.031-.041-.052-.053-.072a1.167,1.167,0,0,0-.093-.134c-.1-.155-.195-.3-.3-.444q-.449-.68-.8-1.3h-.011c-.071-.134-.143-.258-.216-.382s-.143-.258-.205-.381c-.31-.547-.548-1.021-.722-1.392-.041-.082-.072-.144-.1-.216l.011-.01-.053-.186h-.009l-.175-.6-.032-.113a1.954,1.954,0,0,1-.05-.413v-.01a1.861,1.861,0,0,1,.05-.4,3.856,3.856,0,0,1,1.61-2.062,11.127,11.127,0,0,1,1.712-1.031,32.978,32.978,0,0,1,6.745-2.382c.062-.021.123-.031.2-.052.66-.165,1.34-.32,2.051-.474,2.063-.454,4.271-.835,6.622-1.114l.113-.021a120.175,120.175,0,0,1,15.614-.969,124.316,124.316,0,0,1,14.511.825h.021c2.578.309,5.023.7,7.281,1.165.712.144,1.392.3,2.063.464.237.051.474.113.712.175a33.347,33.347,0,0,1,6.28,2.156,12.987,12.987,0,0,1,1.754.969,5.408,5.408,0,0,1,1.773,1.7,2.106,2.106,0,0,1,.31,1v.062a1.458,1.458,0,0,1-.041.35,2.186,2.186,0,0,1-.29.722c0,.01-.009.01-.009.021l-.053.093c-.04.1-.093.206-.143.309-.2.413-.443.877-.732,1.382h-.011c-.062.124-.144.247-.226.381s-.156.258-.237.392c-.268.412-.557.846-.877,1.289-.1.155-.216.3-.331.454-.03.052-.071.093-.1.144-.021.021-.032.041-.052.062C956.443,1080.245,956.33,1080.379,956.217,1080.523Zm-8.642,7.6a25.058,25.058,0,0,1-2.868,1.464c-.041.021-.082.031-.124.052a43.781,43.781,0,0,1-8.858,1.825,1.169,1.169,0,0,1-.187.021c-2.784.247-6.281.412-10.673.412-2.259,0-11.427-.3-17.389-1.619a2.863,2.863,0,0,1-.279-.072.345.345,0,0,0-.1-.021c-3.507-.949-5.5-2.114-5.5-3.259,0-.959,1.64-2.434,6.25-3.692.34-.093.7-.186,1.062-.279h.021c.112-.031.237-.051.361-.082h.009c.372-.093.753-.175,1.156-.258h.021c.206-.041.423-.083.639-.124h.009q.7-.124,1.424-.248h.021c.33-.052.659-.1,1-.155h.021a80.568,80.568,0,0,1,11.355-.753,82.135,82.135,0,0,1,11.221.732h.009c.341.052.67.1.99.155h.032c.484.072.958.155,1.413.237h.02c.228.052.455.093.672.134.392.083.783.165,1.154.247.144.031.278.062.414.093h.01c.4.1.784.2,1.155.3,4.609,1.258,6.25,2.733,6.25,3.692a1.639,1.639,0,0,1-.67,1.165C947.606,1088.1,947.585,1088.114,947.575,1088.124Zm-64.231-11.85c-.329-.2-.639-.381-.918-.577a7.565,7.565,0,0,1-1.237-1.031c-.134-.155-.258-.32-.371-.474a2.593,2.593,0,0,1-.382-.763,2.146,2.146,0,0,1-.1-.433,2.009,2.009,0,0,1-.01-.248c0-5.363,20.327-9.89,44.387-9.89s44.387,4.527,44.387,9.89a2.25,2.25,0,0,1-.009.248,2.21,2.21,0,0,1-.1.433,2.62,2.62,0,0,1-.383.763c-.112.155-.237.32-.37.474a8.152,8.152,0,0,1-1.239,1.042c-.277.186-.587.372-.917.567-.361.2-.764.4-1.186.609a37.436,37.436,0,0,1-5.7,2.011c.236-.371.443-.722.639-1.052.071-.134.144-.268.205-.392.083-.134.144-.258.207-.381.133-.258.258-.516.361-.743a3.669,3.669,0,0,0,.279-.557,2.573,2.573,0,0,0,.144-.423,2.711,2.711,0,0,0,.1-.691.719.719,0,0,0,.011-.155,2.063,2.063,0,0,0-.011-.258c-.1-1.361-1.093-2.661-2.938-3.857a16.215,16.215,0,0,0-1.753-.97,33.687,33.687,0,0,0-5.961-2.125c-.4-.1-.815-.217-1.238-.32a107.1,107.1,0,0,0-24.287-2.485,104.5,104.5,0,0,0-24.834,2.63c-.237.052-.474.113-.7.175a31.894,31.894,0,0,0-6.425,2.362c-.465.237-.887.485-1.28.732q-.246.154-.463.309a7.6,7.6,0,0,0-1.734,1.64,3.736,3.736,0,0,0-.753,1.969,1.462,1.462,0,0,0-.009.2,1.688,1.688,0,0,0,.009.216,1.311,1.311,0,0,0,.032.289.842.842,0,0,0-.041.33l.009.062.042.413.021.2H889c.125.289.3.66.527,1.124.062.114.123.248.2.382.062.114.124.248.2.382.175.33.382.7.607,1.083a36.929,36.929,0,0,1-6-2.1C884.1,1076.677,883.706,1076.47,883.344,1076.274Zm77.71,2.97a23.448,23.448,0,0,0,6.6-2.991,5.473,5.473,0,0,0,.65-.516,4.354,4.354,0,0,0,.506-.474,5.042,5.042,0,0,0,.649-.815,4.456,4.456,0,0,0,.228-.454,3.251,3.251,0,0,0,.237-.732c.021-.134.03-.278.041-.423v-.093c0-3.022-4.661-5.693-13.46-7.714-8.5-1.959-19.791-3.032-31.8-3.032s-23.286,1.073-31.784,3.032c-8.809,2.021-13.459,4.692-13.459,7.714v.093c.009.145.021.289.041.423a3.141,3.141,0,0,0,.237.732,3.1,3.1,0,0,0,.237.454,4.466,4.466,0,0,0,.638.815,5.687,5.687,0,0,0,.506.485c.2.165.412.34.639.505a23.456,23.456,0,0,0,6.6,2.991c-9.231-1.846-15.532-4.321-17.965-6.879a.3.3,0,0,0,.093.021c-.052-.021-.093-.041-.134-.062a5.511,5.511,0,0,1-.412-.485c-.053-.072-.1-.144-.144-.206a3.308,3.308,0,0,1-.32-.588c-.01-.01-.01-.021-.021-.041-.031-.082-.063-.175-.093-.268a.772.772,0,0,0,.1-.144,2.524,2.524,0,0,0,.392-1.351,2.381,2.381,0,0,0-.124-.773,7.513,7.513,0,0,1,2.289-2.166h.082a2.785,2.785,0,0,0,2.414-1.392,38.871,38.871,0,0,1,4.94-1.9,2.793,2.793,0,0,0,2.783-.825c2.631-.712,5.622-1.372,8.932-1.949a2.629,2.629,0,0,0,1.206.278,2.724,2.724,0,0,0,1.93-.784c3.537-.536,7.395-.99,11.53-1.32a2.8,2.8,0,0,0,1.485.423,2.749,2.749,0,0,0,1.8-.67c4.466-.3,9.241-.464,14.263-.485a2.788,2.788,0,0,0,3.99.01c4.611.041,9,.216,13.14.484a2.738,2.738,0,0,0,1.793.66,2.7,2.7,0,0,0,1.455-.412c4.166.351,8.055.8,11.6,1.351a2.757,2.757,0,0,0,1.887.743,2.687,2.687,0,0,0,1.145-.248c3.383.6,6.424,1.269,9.075,2.011h.01a2.757,2.757,0,0,0,1.97.825,2.9,2.9,0,0,0,.6-.062,41.726,41.726,0,0,1,5.167,2.021v.01a2.756,2.756,0,0,0,2.154,1.217,7.152,7.152,0,0,1,2.456,2.444,2.693,2.693,0,0,0-.053.505,2.559,2.559,0,0,0,.331,1.248c0,.021-.01.041-.01.062a2.318,2.318,0,0,1-.145.454c-.009.021-.009.031-.021.041a3.856,3.856,0,0,1-.308.577c-.051.072-.1.145-.155.216a5.717,5.717,0,0,1-.413.485c-.01.01-.021.031-.041.041C976.595,1074.923,970.295,1077.4,961.054,1079.245Z" transform="translate(-851.467 -1029.848)" fill="#fff"/>
        <path id="Path_63793" data-name="Path 63793" d="M932.027,1081.7h-.021a.255.255,0,0,1-.082-.01H931.9c-.671-.1-1.362-.186-2.083-.258h-.032c0-.01-.021,0-.021,0-.422-.052-.856-.093-1.289-.134h-.05c-1.7-.134-3.465-.206-5.208-.206-1.785,0-3.59.072-5.321.217h-.041c-.445.041-.877.083-1.31.134h-.021c-.01-.01-.01-.01-.021,0-.712.072-1.414.165-2.083.258a.313.313,0,0,1-.1.021H914.3c-4.4.681-7.682,1.887-7.682,3.589,0,2.7,8.6,3.94,16.6,3.94s16.6-1.238,16.6-3.94C939.824,1083.6,936.493,1082.384,932.027,1081.7Zm-8.806,6.858c-9.839,0-15.924-1.692-15.924-3.249,0-1.454,4.981-3.063,12.49-3.455h.143c1.011.021,2.033.031,3.053.031q1.781,0,3.528-.031h.081c7.539.382,12.541,1.99,12.541,3.455C939.133,1086.87,933.049,1088.562,923.221,1088.562Z" transform="translate(-849.74 -1028.243)" fill="#fff"/>
        <path id="Path_63794" data-name="Path 63794" d="M896.779,1071.278a32.661,32.661,0,0,1,3.242-.91c1.1-.241,2.211-.454,3.329-.652l.009,0a.229.229,0,0,0-.06-.454l-1.715.142-1.709.243a26.662,26.662,0,0,0-3.364.823,17.166,17.166,0,0,0-3.206,1.376,8.292,8.292,0,0,0-2.731,2.286.309.309,0,0,0,.484.385l.038-.042a9.387,9.387,0,0,1,2.609-1.9A18.908,18.908,0,0,1,896.779,1071.278Z" transform="translate(-850.244 -1028.614)" fill="#fff"/>
        <path id="Path_63795" data-name="Path 63795" d="M861.346,1058.013a18.743,18.743,0,0,1,2.768-1.859,32.478,32.478,0,0,1,3.006-1.515c1.034-.449,2.083-.87,3.142-1.28l.009,0a.229.229,0,0,0-.146-.433l-1.656.468-1.629.567a26.746,26.746,0,0,0-3.143,1.453,17.244,17.244,0,0,0-2.883,1.967,8.274,8.274,0,0,0-2.241,2.768.31.31,0,0,0,.549.285l.029-.05A9.412,9.412,0,0,1,861.346,1058.013Z" transform="translate(-851.245 -1029.125)" fill="#fff"/>
        <path id="Path_63796" data-name="Path 63796" d="M895.219,1074.606a23.341,23.341,0,0,1,3.655-1.371c1.248-.4,2.536-.66,3.822-.933,1.294-.239,2.6-.445,3.908-.63h.008a.229.229,0,0,0-.047-.455l-2,.125-1.993.236a33.327,33.327,0,0,0-3.936.841,21.284,21.284,0,0,0-3.783,1.445,10.389,10.389,0,0,0-3.312,2.441.311.311,0,0,0,.463.414l.031-.032a7.531,7.531,0,0,1,1.485-1.152A14.8,14.8,0,0,1,895.219,1074.606Z" transform="translate(-850.215 -1028.552)" fill="#fff"/>
        <path id="Path_63797" data-name="Path 63797" d="M896.5,1076.2a24.086,24.086,0,0,1,3.874-1.457,32.224,32.224,0,0,1,4.065-.9c.687-.113,1.382-.182,2.073-.279l2.09-.19h.013a.229.229,0,0,0-.025-.457l-2.127.022c-.707.057-1.418.1-2.125.175a28.374,28.374,0,0,0-4.2.808,22.19,22.19,0,0,0-4.01,1.534,12.872,12.872,0,0,0-3.522,2.532.311.311,0,0,0,.441.438l.023-.022a9.9,9.9,0,0,1,1.624-1.208A16.9,16.9,0,0,1,896.5,1076.2Z" transform="translate(-850.182 -1028.499)" fill="#fff"/>
        <path id="Path_63798" data-name="Path 63798" d="M902.717,1076.519a33.707,33.707,0,0,1,4.339-.885c1.468-.206,2.947-.32,4.436-.4h.011a.229.229,0,0,0-.011-.457l-2.262-.02c-.753.049-1.51.066-2.261.149a30.194,30.194,0,0,0-4.474.792,24.683,24.683,0,0,0-4.28,1.571,14.821,14.821,0,0,0-3.809,2.567.311.311,0,0,0,.417.462l.025-.022a17.168,17.168,0,0,1,3.724-2.26A26.621,26.621,0,0,1,902.717,1076.519Z" transform="translate(-850.125 -1028.441)" fill="#fff"/>
        <path id="Path_63799" data-name="Path 63799" d="M875.242,1054.356l-2.185.582c-.713.246-1.437.464-2.141.742a30.075,30.075,0,0,0-4.1,1.951,24.7,24.7,0,0,0-3.71,2.649,14.854,14.854,0,0,0-2.992,3.486.311.311,0,0,0,.524.335l.019-.028a17.165,17.165,0,0,1,2.991-3.166,26.732,26.732,0,0,1,3.6-2.542,33.776,33.776,0,0,1,3.949-2c1.359-.589,2.757-1.09,4.17-1.564l.01,0a.229.229,0,0,0-.132-.438Z" transform="translate(-851.198 -1029.08)" fill="#fff"/>
        <path id="Path_63800" data-name="Path 63800" d="M915.34,1076.346l-2.436-.02c-.811.047-1.625.066-2.435.146a35.17,35.17,0,0,0-4.826.785,28.5,28.5,0,0,0-4.651,1.558,16.818,16.818,0,0,0-4.213,2.578.311.311,0,0,0,.393.482l.026-.02a19.545,19.545,0,0,1,4.124-2.281,31.171,31.171,0,0,1,4.524-1.49,39.5,39.5,0,0,1,4.7-.881c1.587-.205,3.186-.319,4.791-.4h.01a.229.229,0,0,0-.01-.457Z" transform="translate(-850.052 -1028.392)" fill="#fff"/>
        <path id="Path_63801" data-name="Path 63801" d="M950.852,1074.936c.92-.921.372-2.96-1.223-4.556s-3.636-2.143-4.556-1.222-.372,2.96,1.223,4.555S949.931,1075.856,950.852,1074.936Z" transform="translate(-848.55 -1028.631)" fill="#fff"/>
        <path id="Path_63802" data-name="Path 63802" d="M950,1076.718c-.981-.318-1.923-.117-2.106.449s.463,1.28,1.443,1.6,1.923.117,2.106-.449S950.978,1077.034,950,1076.718Z" transform="translate(-848.449 -1028.385)" fill="#fff"/>
      </g>
      <g id="Group_41404" data-name="Group 41404" transform="matrix(0.999, 0.035, -0.035, 0.999, 1600.639, 1352.69)">
        <g id="Group_41403" data-name="Group 41403" transform="translate(0)">
          <g transform="matrix(1, -0.03, 0.03, 1, -38.1, -12.41)" filter="url(#Path_63866)">
            <path id="Path_63866-2" data-name="Path 63866" d="M732.988,1086.757a6.984,6.984,0,0,0,2.777-.194c1.071-.316,1.527-.89,1.351-1.527-.168-.6-.763-.819-2.157-.863-1.919-.042-3.355-.546-3.81-1.945-.539-1.635.621-3.419,3.258-4.173a7.449,7.449,0,0,1,2.976-.281q-.05.966-.091,1.931a5.688,5.688,0,0,0-2.42.168c-1.076.307-1.463.9-1.312,1.4.185.619.879.7,2.4.786,2.08.1,3.2.792,3.545,2.17.413,1.652-.565,3.358-3.346,4.174a7.792,7.792,0,0,1-3.064.306Q733.038,1087.733,732.988,1086.757Z" transform="matrix(1, 0.03, -0.03, 1, -655.46, -1085.03)" fill="#fff"/>
          </g>
          <g transform="matrix(1, -0.03, 0.03, 1, -38.1, -12.41)" filter="url(#Path_63867)">
            <path id="Path_63867-2" data-name="Path 63867" d="M740.6,1082.011c-.225-.933-.449-1.728-.642-2.376q1.073-.258,2.15-.5.168.486.334.972l.032-.008a3.175,3.175,0,0,1,2.412-1.715,3.377,3.377,0,0,1,3.954,3.075,3.643,3.643,0,0,1-2.763,4.5,2.485,2.485,0,0,1-2.125-.414l-.03.007q.388,1.781.778,3.56-1.134.247-2.265.52Q741.514,1085.825,740.6,1082.011Zm2.793,1.129a2.185,2.185,0,0,0,.15.458,1.463,1.463,0,0,0,1.614.762c1.026-.21,1.481-1.133,1.249-2.357-.217-1.148-.945-1.915-2.047-1.69a1.516,1.516,0,0,0-1.219,1.439,1.534,1.534,0,0,0,.039.405C743.247,1082.485,743.319,1082.812,743.39,1083.14Z" transform="matrix(1, 0.03, -0.03, 1, -655.46, -1085.03)" fill="#fff"/>
          </g>
          <g transform="matrix(1, -0.03, 0.03, 1, -38.1, -12.41)" filter="url(#Path_63868)">
            <path id="Path_63868-2" data-name="Path 63868" d="M755.234,1084.355l-.225-.714-.047.005a2.886,2.886,0,0,1-2.063,1.17,2.343,2.343,0,0,1-2.794-1.86c-.31-1.876,1.384-3.094,4.2-3.415-.005-.035-.008-.069-.013-.1-.045-.386-.339-.915-1.563-.756a4.679,4.679,0,0,0-2.118.858q-.336-.693-.677-1.384a6.863,6.863,0,0,1,3.037-1.079c2.7-.337,3.7,1.039,3.866,2.749q.125,1.269.247,2.538a11.228,11.228,0,0,0,.282,1.766Q756.3,1084.232,755.234,1084.355Zm-.687-3.408c-1.282.136-2.232.558-2.11,1.435a.851.851,0,0,0,1.061.735,1.325,1.325,0,0,0,1.141-.988,1.564,1.564,0,0,0,0-.393C754.609,1081.473,754.579,1081.21,754.547,1080.947Z" transform="matrix(1, 0.03, -0.03, 1, -655.46, -1085.03)" fill="#fff"/>
          </g>
          <g transform="matrix(1, -0.03, 0.03, 1, -38.1, -12.41)" filter="url(#Path_63869)">
            <path id="Path_63869-2" data-name="Path 63869" d="M764.831,1083.477a6.333,6.333,0,0,1-2.107.413c-2.447.122-4.137-1.164-4.344-3.467-.194-2.131,1.28-4.044,4.318-4.191a6.133,6.133,0,0,1,1.937.212q-.172.853-.341,1.707a3.57,3.57,0,0,0-1.4-.171,1.955,1.955,0,0,0-2.014,2.168,1.992,1.992,0,0,0,2.246,1.936,4.018,4.018,0,0,0,1.368-.278Q764.665,1082.642,764.831,1083.477Z" transform="matrix(1, 0.03, -0.03, 1, -655.46, -1085.03)" fill="#fff"/>
          </g>
          <g transform="matrix(1, -0.03, 0.03, 1, -38.1, -12.41)" filter="url(#Path_63870)">
            <path id="Path_63870-2" data-name="Path 63870" d="M767.787,1080.666c.087.944,1.067,1.39,2.188,1.407a7.615,7.615,0,0,0,2.143-.248q.132.777.261,1.555a8.383,8.383,0,0,1-2.772.383c-2.577-.027-4.089-1.411-4.155-3.71a3.744,3.744,0,0,1,4.013-3.942,3.314,3.314,0,0,1,3.478,3.748,5.17,5.17,0,0,1-.116.9Q770.307,1080.656,767.787,1080.666Zm2.9-1.536a1.35,1.35,0,0,0-1.381-1.505,1.541,1.541,0,0,0-1.537,1.481Q769.224,1079.1,770.683,1079.13Z" transform="matrix(1, 0.03, -0.03, 1, -655.46, -1085.03)" fill="#fff"/>
          </g>
          <g transform="matrix(1, -0.03, 0.03, 1, -38.1, -12.41)" filter="url(#Path_63871)">
            <path id="Path_63871-2" data-name="Path 63871" d="M777.431,1083.977l.819-10.076q1.508.123,3.014.282.988,1.968,1.9,3.95a23.683,23.683,0,0,1,1.317,3.671l.048.007a35.428,35.428,0,0,1,.376-4.2q.2-1.464.409-2.927,1.179.165,2.358.352-.8,4.992-1.592,9.984-1.236-.2-2.474-.367-.85-2.084-1.781-4.156c-.516-1.148-1.093-2.523-1.523-3.756l-.051.01c-.066,1.335-.176,2.757-.343,4.4q-.152,1.515-.305,3.029Q778.52,1084.065,777.431,1083.977Z" transform="matrix(1, 0.03, -0.03, 1, -655.46, -1085.03)" fill="#fff"/>
          </g>
          <g transform="matrix(1, -0.03, 0.03, 1, -38.1, -12.41)" filter="url(#Path_63872)">
            <path id="Path_63872-2" data-name="Path 63872" d="M789.9,1075.408q3.457.617,6.887,1.43l-.434,1.825q-2.121-.505-4.256-.932-.228,1.133-.454,2.265,1.957.391,3.9.849l-.426,1.811q-1.915-.45-3.841-.836l-.8,3.986q-1.175-.235-2.354-.445Z" transform="matrix(1, 0.03, -0.03, 1, -655.46, -1085.03)" fill="#fff"/>
          </g>
          <g transform="matrix(1, -0.03, 0.03, 1, -38.1, -12.41)" filter="url(#Path_63873)">
            <path id="Path_63873-2" data-name="Path 63873" d="M800.338,1079.729q-1.472-.4-2.953-.769.231-.931.461-1.864,4.3,1.064,8.542,2.44-.3.912-.593,1.826-1.482-.482-2.973-.924-1.164,3.926-2.33,7.851-1.156-.343-2.316-.661Q799.256,1083.678,800.338,1079.729Z" transform="matrix(1, 0.03, -0.03, 1, -655.46, -1085.03)" fill="#fff"/>
          </g>
        </g>
      </g>
    </g>
  </g>
</svg>
