<svg xmlns="http://www.w3.org/2000/svg" xmlns:xlink="http://www.w3.org/1999/xlink" width="150" height="96" viewBox="0 0 150 96">
  <defs>
    <clipPath id="clip-path">
      <rect id="Rectangle_90594" data-name="Rectangle 90594" width="150" height="96" transform="translate(4679 -1923)" fill="none" stroke="#707070" stroke-width="1"/>
    </clipPath>
    <filter id="Path_63839" x="30.126" y="39.479" width="27.269" height="28.407" filterUnits="userSpaceOnUse">
      <feOffset input="SourceAlpha"/>
      <feGaussianBlur stdDeviation="3" result="blur"/>
      <feFlood/>
      <feComposite operator="in" in2="blur"/>
      <feComposite in="SourceGraphic"/>
    </filter>
    <filter id="Path_63840" x="39.484" y="43.877" width="26.425" height="25.841" filterUnits="userSpaceOnUse">
      <feOffset input="SourceAlpha"/>
      <feGaussianBlur stdDeviation="3" result="blur-2"/>
      <feFlood/>
      <feComposite operator="in" in2="blur-2"/>
      <feComposite in="SourceGraphic"/>
    </filter>
    <filter id="Path_63841" x="48.724" y="41.561" width="21.823" height="28.92" filterUnits="userSpaceOnUse">
      <feOffset input="SourceAlpha"/>
      <feGaussianBlur stdDeviation="3" result="blur-3"/>
      <feFlood/>
      <feComposite operator="in" in2="blur-3"/>
      <feComposite in="SourceGraphic"/>
    </filter>
    <filter id="Path_63842" x="53.545" y="45.154" width="25.757" height="25.884" filterUnits="userSpaceOnUse">
      <feOffset input="SourceAlpha"/>
      <feGaussianBlur stdDeviation="3" result="blur-4"/>
      <feFlood/>
      <feComposite operator="in" in2="blur-4"/>
      <feComposite in="SourceGraphic"/>
    </filter>
    <filter id="Path_63843" x="62.328" y="43.39" width="23.387" height="27.673" filterUnits="userSpaceOnUse">
      <feOffset input="SourceAlpha"/>
      <feGaussianBlur stdDeviation="3" result="blur-5"/>
      <feFlood/>
      <feComposite operator="in" in2="blur-5"/>
      <feComposite in="SourceGraphic"/>
    </filter>
    <filter id="Path_63844" x="68.597" y="42.091" width="21.146" height="28.625" filterUnits="userSpaceOnUse">
      <feOffset input="SourceAlpha"/>
      <feGaussianBlur stdDeviation="3" result="blur-6"/>
      <feFlood/>
      <feComposite operator="in" in2="blur-6"/>
      <feComposite in="SourceGraphic"/>
    </filter>
    <filter id="Path_63845" x="72.879" y="44.385" width="26.371" height="25.841" filterUnits="userSpaceOnUse">
      <feOffset input="SourceAlpha"/>
      <feGaussianBlur stdDeviation="3" result="blur-7"/>
      <feFlood/>
      <feComposite operator="in" in2="blur-7"/>
      <feComposite in="SourceGraphic"/>
    </filter>
    <filter id="Path_63846" x="81.918" y="42.683" width="26.943" height="26.417" filterUnits="userSpaceOnUse">
      <feOffset input="SourceAlpha"/>
      <feGaussianBlur stdDeviation="3" result="blur-8"/>
      <feFlood/>
      <feComposite operator="in" in2="blur-8"/>
      <feComposite in="SourceGraphic"/>
    </filter>
    <filter id="Path_63847" x="91.17" y="40.707" width="24.641" height="26.182" filterUnits="userSpaceOnUse">
      <feOffset input="SourceAlpha"/>
      <feGaussianBlur stdDeviation="3" result="blur-9"/>
      <feFlood/>
      <feComposite operator="in" in2="blur-9"/>
      <feComposite in="SourceGraphic"/>
    </filter>
  </defs>
  <g id="Mask_Group_38" data-name="Mask Group 38" transform="translate(-4679 1923)" clip-path="url(#clip-path)">
    <g id="Group_41419" data-name="Group 41419" transform="translate(4038.958 -2843.766)">
      <g id="Group_41389" data-name="Group 41389" opacity="0.38">
        <path id="Path_63814" data-name="Path 63814" d="M704.3,942.68a10.7,10.7,0,0,0-.269,2.043c-.273.023-.541.055-.811.1a98.783,98.783,0,0,0-26.668,7.43.929.929,0,0,1,.025-.157,80.064,80.064,0,0,1,26.881-9.29C703.737,942.763,704.023,942.718,704.3,942.68Z" fill="#fff"/>
        <path id="Path_63815" data-name="Path 63815" d="M750.238,949.511a99.851,99.851,0,0,0-23.722-5.157c-.261-.032-.534-.05-.8-.075a10.536,10.536,0,0,0-.319-1.885c.285.037.564.065.84.108A79.736,79.736,0,0,1,750.238,949.511Z" fill="#fff"/>
        <path id="Path_63816" data-name="Path 63816" d="M645.54,967.9c-1.152-.642-2.3-1.285-3.42-1.957a80.586,80.586,0,0,0,73.535,44.907c.4-.006.8-.03,1.193-.041A80.559,80.559,0,0,1,645.54,967.9Z" fill="#fff"/>
        <path id="Path_63817" data-name="Path 63817" d="M777.014,969.759a75.41,75.41,0,0,1-63.687,41.085c.773.009,1.548.018,2.328.006a80.581,80.581,0,0,0,72.087-47.193A115.771,115.771,0,0,1,777.014,969.759Z" fill="#fff"/>
        <path id="Path_63818" data-name="Path 63818" d="M714.359,928.348a37.537,37.537,0,0,1,35.026,22.592c.2.459.385.926.566,1.394.224-.163.454-.322.675-.49-.373-1.156-.8-2.286-1.279-3.387a37.539,37.539,0,0,0-69.326,1.087q-.668,1.676-1.173,3.426c.223.161.461.313.69.47.167-.473.336-.947.522-1.412A37.532,37.532,0,0,1,714.359,928.348Z" fill="#fff"/>
        <path id="Path_63819" data-name="Path 63819" d="M726.073,963.351l.466-17.893c.007-.373.005-.74-.023-1.1a10.961,10.961,0,0,0-.284-1.852,11.66,11.66,0,0,0-22.774.306,12.546,12.546,0,0,0-.238,2.017c.006.009,0,.025,0,.033l-.458,17.894a11.666,11.666,0,0,0,9.172,11.7,12.013,12.013,0,0,0,2.183.259A11.672,11.672,0,0,0,726.073,963.351Zm-11.938,10.562a10.856,10.856,0,0,1-10.578-11.145l.466-17.892c0-.048.006-.1.008-.153a10.7,10.7,0,0,1,.269-2.043,10.868,10.868,0,0,1,21.092-.286,10.536,10.536,0,0,1,.319,1.885,10.952,10.952,0,0,1,.034,1.163l-.466,17.893A10.883,10.883,0,0,1,714.135,973.913Z" fill="#fff"/>
        <path id="Path_63820" data-name="Path 63820" d="M721.627,948.382A6.926,6.926,0,1,0,715.6,956.1,6.93,6.93,0,0,0,721.627,948.382Zm-6.1,6.348a5.575,5.575,0,1,1,4.848-6.218A5.581,5.581,0,0,1,715.53,954.73Z" fill="#fff"/>
        <path id="Path_63821" data-name="Path 63821" d="M679.344,951.4c.211-.626.434-1.245.677-1.855-.268.069-.532.146-.8.214-1.116.289-2.233.582-3.332.9a126.689,126.689,0,0,0-32.343,14.188c.632.369,1.292.713,1.934,1.071a127.4,127.4,0,0,1,30.443-13.052c1.067-.3,2.15-.588,3.234-.868C679.22,951.8,679.278,951.595,679.344,951.4Z" fill="#fff"/>
        <path id="Path_63822" data-name="Path 63822" d="M753.512,949.436c-1.109-.28-2.235-.537-3.361-.791-.269-.06-.535-.129-.8-.188.261.6.5,1.213.733,1.83.071.2.137.394.206.59,1.094.246,2.184.495,3.261.766a127.429,127.429,0,0,1,30.837,12.09c.633-.378,1.282-.743,1.9-1.131A126.737,126.737,0,0,0,753.512,949.436Z" fill="#fff"/>
        <g id="Group_41388" data-name="Group 41388">
          <path id="Path_63823" data-name="Path 63823" d="M683.028,955.635c-6.949,2.267-21.557,7.556-32.274,15,.376.185.76.363,1.14.544,11.069-7.533,26.137-12.8,32.449-14.809C683.9,956.132,683.463,955.884,683.028,955.635Z" fill="#fff"/>
          <path id="Path_63824" data-name="Path 63824" d="M695.093,960.749c-5.764,3.472-15.9,10.047-23.986,17.771.408.122.827.221,1.235.337,8.361-7.865,18.814-14.494,24.222-17.7C696.072,961.022,695.577,960.892,695.093,960.749Z" fill="#fff"/>
          <path id="Path_63825" data-name="Path 63825" d="M707.358,963.094a153.89,153.89,0,0,0-15.563,19.838c.4.055.8.112,1.2.166a155,155,0,0,1,15.763-19.9C708.289,963.169,707.821,963.137,707.358,963.094Z" fill="#fff"/>
          <path id="Path_63826" data-name="Path 63826" d="M745.233,955.42c6.381,1.814,21.6,6.6,32.891,13.785.374-.193.754-.382,1.124-.581-10.939-7.1-25.7-11.929-32.724-13.982C746.1,954.905,745.67,955.166,745.233,955.42Z" fill="#fff"/>
          <path id="Path_63827" data-name="Path 63827" d="M733.157,960.584c5.511,3.039,16.167,9.337,24.766,16.936.405-.129.821-.243,1.222-.374-8.319-7.469-18.654-13.721-24.527-17.012C734.137,960.292,733.646,960.436,733.157,960.584Z" fill="#fff"/>
          <path id="Path_63828" data-name="Path 63828" d="M721.032,963.012a155.648,155.648,0,0,1,16.379,19.39c.4-.064.8-.134,1.194-.2a154.255,154.255,0,0,0-16.179-19.342C721.964,962.918,721.5,962.964,721.032,963.012Z" fill="#fff"/>
          <path id="Path_63829" data-name="Path 63829" d="M713.793,963.386l.33,20.977c.367,0,.733,0,1.1,0l-.33-20.971C714.529,963.4,714.161,963.388,713.793,963.386Z" fill="#fff"/>
        </g>
        <path id="Path_63830" data-name="Path 63830" d="M748.442,978.251A153.419,153.419,0,0,1,681.86,979.3a128.691,128.691,0,0,1-38.315-14.454c-.5.312-1.012.613-1.5.931.027.057.051.113.078.169A129.108,129.108,0,0,0,681.9,982.008a153.435,153.435,0,0,0,66.581-1.045,129.17,129.17,0,0,0,39.258-17.306c.025-.057.048-.114.072-.171-.5-.3-1.022-.588-1.53-.884A128.694,128.694,0,0,1,748.442,978.251Z" fill="#fff"/>
        <path id="Path_63831" data-name="Path 63831" d="M714.911,963.391c14.013-.22,26.635-4.617,35.715-11.547-.169-.525-.355-1.042-.546-1.557-9.039,6.71-21.445,10.957-35.2,11.172s-26.288-3.639-35.535-10.06c-.175.52-.343,1.042-.5,1.571C688.141,959.613,700.9,963.61,714.911,963.391Z" fill="#fff"/>
        <path id="Path_63832" data-name="Path 63832" d="M723.1,990.7a5.446,5.446,0,1,0,2.257,7.366A5.465,5.465,0,0,0,723.1,990.7Zm.855,6.616a3.854,3.854,0,1,1-1.6-5.205A3.861,3.861,0,0,1,723.953,997.317Z" fill="#fff"/>
        <path id="Path_63833" data-name="Path 63833" d="M744.3,988.876a4.2,4.2,0,1,0,1.742,5.675A4.206,4.206,0,0,0,744.3,988.876Zm.653,5.1a2.97,2.97,0,1,1-1.229-4.01A2.967,2.967,0,0,1,744.954,993.975Z" fill="#fff"/>
        <path id="Path_63834" data-name="Path 63834" d="M701.127,991.9a4.2,4.2,0,1,0,1.741,5.675A4.213,4.213,0,0,0,701.127,991.9Zm.653,5.1a2.969,2.969,0,1,1-1.229-4.01A2.966,2.966,0,0,1,701.78,997Z" fill="#fff"/>
        <path id="Path_63835" data-name="Path 63835" d="M761.025,983.505a3.263,3.263,0,1,0,1.354,4.411A3.272,3.272,0,0,0,761.025,983.505Zm.514,3.962a2.307,2.307,0,1,1-.964-3.122A2.307,2.307,0,0,1,761.539,987.467Z" fill="#fff"/>
        <path id="Path_63836" data-name="Path 63836" d="M679.794,987.938a3.263,3.263,0,1,0,1.354,4.411A3.257,3.257,0,0,0,679.794,987.938Zm.507,3.96a2.308,2.308,0,1,1-.957-3.12A2.3,2.3,0,0,1,680.3,991.9Z" fill="#fff"/>
        <path id="Path_63837" data-name="Path 63837" d="M774.086,976.8a2.46,2.46,0,1,0,1.027,3.323A2.469,2.469,0,0,0,774.086,976.8Zm.391,2.991a1.741,1.741,0,1,1-.723-2.354A1.749,1.749,0,0,1,774.477,979.791Z" fill="#fff"/>
        <path id="Path_63838" data-name="Path 63838" d="M663.509,981.1a2.457,2.457,0,1,0,1.019,3.322A2.458,2.458,0,0,0,663.509,981.1Zm.384,2.982a1.736,1.736,0,1,1-.724-2.346A1.735,1.735,0,0,1,663.893,984.083Z" fill="#fff"/>
      </g>
      <g id="Group_41391" data-name="Group 41391">
        <g id="Group_41390" data-name="Group 41390" transform="matrix(1, -0.017, 0.017, 1, -16.904, 13.593)">
          <g transform="matrix(1, 0.02, -0.02, 1, 641.01, 918.5)" filter="url(#Path_63839)">
            <path id="Path_63839-2" data-name="Path 63839" d="M680.3,974.692a6.566,6.566,0,0,0,2.518,1.341c1.118.291,1.816.01,1.972-.631.149-.613-.273-1.081-1.429-1.832-1.6-1.026-2.465-2.252-2.054-3.661.489-1.659,2.269-2.5,4.62-1.9a6.824,6.824,0,0,1,2.448,1.11q-.457.841-.925,1.68a5.415,5.415,0,0,0-2.025-.983c-.995-.251-1.593.052-1.729.558-.166.622.338,1.057,1.559,1.873,1.676,1.093,2.359,2.186,2.05,3.58-.358,1.649-2.1,2.769-5.106,1.987a7.6,7.6,0,0,1-2.915-1.444Q679.8,975.529,680.3,974.692Z" transform="matrix(1, -0.02, 0.02, 1, -656.95, -907.17)" fill="#fff"/>
          </g>
          <g transform="matrix(1, 0.02, -0.02, 1, 641.01, 918.5)" filter="url(#Path_63840)">
            <path id="Path_63840-2" data-name="Path 63840" d="M696.817,976.768c-.357,2.662-2.629,3.591-4.792,3.206-2.359-.415-3.866-2.188-3.363-4.5s2.41-3.447,4.816-3.025A3.75,3.75,0,0,1,696.817,976.768Zm-5.653-.855c-.236,1.238.153,2.276,1.209,2.463.959.167,1.717-.608,1.927-1.912.174-1.082-.09-2.245-1.165-2.432C692,973.831,691.367,974.851,691.164,975.913Z" transform="matrix(1, -0.02, 0.02, 1, -656.95, -907.17)" fill="#fff"/>
          </g>
          <g transform="matrix(1, 0.02, -0.02, 1, 641.01, 918.5)" filter="url(#Path_63841)">
            <path id="Path_63841-2" data-name="Path 63841" d="M699.188,970.124q1.143.145,2.291.267-.561,5.3-1.123,10.591-1.257-.133-2.511-.293Q698.517,975.406,699.188,970.124Z" transform="matrix(1, -0.02, 0.02, 1, -656.95, -907.17)" fill="#fff"/>
          </g>
          <g transform="matrix(1, 0.02, -0.02, 1, 641.01, 918.5)" filter="url(#Path_63842)">
            <path id="Path_63842-2" data-name="Path 63842" d="M710.093,979.267c-.025.96-.014,1.739,0,2.356q-1.095-.028-2.189-.076c-.024-.347-.047-.693-.071-1.04l-.049,0a2.894,2.894,0,0,1-2.594,1.058c-1.647-.109-2.776-1.149-2.568-3.4l.384-4.288q1.189.107,2.381.188-.135,1.968-.269,3.936c-.075,1.062.257,1.733,1.126,1.785a1.317,1.317,0,0,0,1.28-.728,1.219,1.219,0,0,0,.1-.491q.1-2.18.205-4.36,1.194.055,2.386.087Q710.158,976.778,710.093,979.267Z" transform="matrix(1, -0.02, 0.02, 1, -656.95, -907.17)" fill="#fff"/>
          </g>
          <g transform="matrix(1, 0.02, -0.02, 1, 641.01, 918.5)" filter="url(#Path_63843)">
            <path id="Path_63843-2" data-name="Path 63843" d="M714.752,972.218q.013,1.05.028,2.1.849-.012,1.7-.036l.048,1.68q-.862.026-1.725.036.018,1.328.036,2.654c.011.884.245,1.289,1,1.273a4.334,4.334,0,0,0,.735-.078l.063,1.724a5.2,5.2,0,0,1-1.638.23,2.714,2.714,0,0,1-1.894-.619,2.826,2.826,0,0,1-.681-2.177l.021-3q-.515,0-1.028-.012l.026-1.68q.507.007,1.013.011.006-.8.011-1.589Q713.614,972.488,714.752,972.218Z" transform="matrix(1, -0.02, 0.02, 1, -656.95, -907.17)" fill="#fff"/>
          </g>
          <g transform="matrix(1, 0.02, -0.02, 1, 641.01, 918.5)" filter="url(#Path_63844)">
            <path id="Path_63844-2" data-name="Path 63844" d="M720.174,972.075a1.156,1.156,0,0,1-1.2,1.209,1.149,1.149,0,1,1-.1-2.292A1.162,1.162,0,0,1,720.174,972.075Zm-2.028,9.49q-.145-3.664-.294-7.33,1.185-.047,2.37-.119.222,3.66.446,7.321Q719.408,981.513,718.146,981.565Z" transform="matrix(1, -0.02, 0.02, 1, -656.95, -907.17)" fill="#fff"/>
          </g>
          <g transform="matrix(1, 0.02, -0.02, 1, 641.01, 918.5)" filter="url(#Path_63845)">
            <path id="Path_63845-2" data-name="Path 63845" d="M730.132,976.7c.4,2.655-1.526,4.18-3.7,4.413-2.378.258-4.31-1.026-4.47-3.389a3.849,3.849,0,0,1,3.768-4.245A3.748,3.748,0,0,1,730.132,976.7Zm-5.658.752c.117,1.254.779,2.143,1.843,2.028.966-.1,1.478-1.061,1.315-2.372-.135-1.087-.711-2.131-1.793-2.012C724.7,975.223,724.374,976.378,724.474,977.455Z" transform="matrix(1, -0.02, 0.02, 1, -656.95, -907.17)" fill="#fff"/>
          </g>
          <g transform="matrix(1, 0.02, -0.02, 1, 641.01, 918.5)" filter="url(#Path_63846)">
            <path id="Path_63846-2" data-name="Path 63846" d="M731.439,975.247c-.144-.9-.3-1.669-.426-2.3q1.021-.16,2.039-.338c.094.323.187.647.282.971l.047-.009a2.916,2.916,0,0,1,2.119-1.586c1.531-.3,2.89.4,3.367,2.511q.473,2.122.946,4.245-1.239.276-2.482.526l-.8-3.985c-.187-.927-.658-1.487-1.516-1.323a1.3,1.3,0,0,0-1.052,1.063,1.507,1.507,0,0,0,.006.579q.372,2.081.743,4.163-1.246.223-2.5.419Q731.827,977.714,731.439,975.247Z" transform="matrix(1, -0.02, 0.02, 1, -656.95, -907.17)" fill="#fff"/>
          </g>
          <g transform="matrix(1, 0.02, -0.02, 1, 641.01, 918.5)" filter="url(#Path_63847)">
            <path id="Path_63847-2" data-name="Path 63847" d="M741.316,976.343a5.053,5.053,0,0,0,2.23.016c.735-.192.977-.507.88-.868s-.383-.471-1.356-.512c-1.726-.084-2.528-.75-2.713-1.6-.312-1.332.644-2.612,2.473-3.1a5.631,5.631,0,0,1,2.207-.176q.012.816.02,1.632a4.163,4.163,0,0,0-1.744.045c-.568.152-.835.452-.742.816.087.334.425.435,1.442.487,1.571.069,2.381.561,2.7,1.595.385,1.3-.491,2.625-2.767,3.218a6.008,6.008,0,0,1-2.685.139Q741.292,977.189,741.316,976.343Z" transform="matrix(1, -0.02, 0.02, 1, -656.95, -907.17)" fill="#fff"/>
          </g>
        </g>
      </g>
    </g>
  </g>
</svg>
