<svg xmlns="http://www.w3.org/2000/svg" xmlns:xlink="http://www.w3.org/1999/xlink" width="980.946" height="976.685" viewBox="0 0 980.946 976.685">
  <defs>
    <linearGradient id="linear-gradient" x1="-93.059" y1="-79.039" x2="-90.091" y2="-76.071" gradientUnits="objectBoundingBox">
      <stop offset="0" stop-color="#7cf95b"/>
      <stop offset="0.136" stop-color="#76ee7c"/>
      <stop offset="0.436" stop-color="#68d4d2"/>
      <stop offset="0.522" stop-color="#64cdec"/>
      <stop offset="1" stop-color="#3172f5"/>
    </linearGradient>
    <linearGradient id="linear-gradient-2" x1="-79.294" y1="-78.452" x2="-76.324" y2="-75.483" xlink:href="#linear-gradient"/>
    <linearGradient id="linear-gradient-3" x1="-114.578" y1="-100.687" x2="-111.608" y2="-97.716" xlink:href="#linear-gradient"/>
    <linearGradient id="linear-gradient-4" x1="-100.24" y1="-110.263" x2="-97.271" y2="-107.294" xlink:href="#linear-gradient"/>
  </defs>
  <g id="Group_64380" data-name="Group 64380" transform="translate(-306.259 -1238.973)">
    <g id="Group_36259-2" data-name="Group 36259-2" transform="translate(346.898 1363.687)">
      <path id="Path_65960-2" data-name="Path 65960-2" d="M336.072,1760.235c6.828-28.41,18.037-57.885,33.633-87.961,50.331-97.045,140.2-188.573,253.065-257.715s235.223-107.646,344.541-108.415c109.451-.757,192.753,36.389,234.558,104.621s37.063,159.315-13.318,256.49c-50.329,97.045-140.2,188.573-253.065,257.717s-235.221,107.65-344.539,108.411c-109.453.76-192.758-36.389-234.555-104.627l.637-.391-.637.391C327.522,1881.649,320.841,1823.621,336.072,1760.235Zm884.386-181.158c14.8-61.606,9.389-119.774-19.867-167.529-85.773-140.012-344.641-138.093-577.038,4.284-153.133,93.825-257.158,225.6-285.755,344.623-14.8,61.606-9.4,119.769,19.866,167.528,41.52,67.764,124.363,104.664,233.275,103.9,109.045-.763,231.131-39.184,343.765-108.194C1087.837,1829.875,1191.872,1698.1,1220.458,1579.077Z" transform="translate(-328.143 -1306.133)" fill="#0168ff" stroke="#0168ff" stroke-miterlimit="10" stroke-width="1"/>
    </g>
    <g id="Group_36260-2" data-name="Group 36260-2" transform="translate(434.25 1276.335)" opacity="0.6">
      <path id="Path_65961-2" data-name="Path 65961-2" d="M385.18,1428.25c15.224-63.391,47.523-112.048,94.636-140.916,68.23-41.795,159.322-37.072,256.486,13.322,97.043,50.33,188.569,140.2,257.716,253.065s107.654,235.219,108.419,344.541c.756,109.457-36.4,192.753-104.627,234.553s-159.318,37.071-256.485-13.318c-97.045-50.33-188.576-140.2-257.72-253.069S375.964,1631.215,375.2,1521.893C374.961,1488.024,378.356,1456.659,385.18,1428.25Zm705.639,563.061c28.586-119.031-4.245-283.653-98.072-436.808-69.008-112.63-160.321-202.311-257.13-252.516-96.681-50.142-187.249-54.894-255.015-13.372-140.019,85.782-138.1,344.641,4.278,577.036s372.13,351.668,512.147,265.891c47.752-29.256,79-78.638,93.789-140.232Z" transform="translate(-375.184 -1259.093)" fill="#0168ff"/>
    </g>
    <g id="Group_36261-2" data-name="Group 36261-2" transform="translate(486.301 1238.973)" opacity="0.5">
      <path id="Path_65962-2" data-name="Path 65962-2" d="M425.778,1648.771c29.71-123.705,85.749-233.22,158.6-309.553,75.571-79.184,160.2-113.208,238.3-95.792s140.262,84.162,175.035,187.948c34.734,103.655,38,231.89,9.2,361.075-28.82,129.172-86.232,243.89-161.712,322.973-75.567,79.183-160.2,113.2-238.3,95.784s-140.264-84.155-175.043-187.941c-34.731-103.655-38-231.884-9.2-361.077Q424.168,1655.457,425.778,1648.771Zm576.57,156.755q1.6-6.676,3.1-13.4c59.317-266.019-22.828-511.5-183.095-547.238-157.591-35.134-332.952,145.452-395.158,404.385-1.06,4.4-2.078,8.789-3.069,13.238-59.308,266.014,22.828,511.5,183.108,547.236,77.564,17.294,161.7-16.573,236.887-95.358,72.671-76.149,128.578-185.418,158.228-308.864Z" transform="translate(-403.214 -1238.973)" fill="#0168ff"/>
    </g>
    <g id="Group_36296-2" data-name="Group 36296-2" transform="translate(309.363 1416.401)" opacity="0.3">
      <path id="Path_65989-2" data-name="Path 65989-2" d="M873.789,1356.241c123.845,29.132,233.615,84.661,310.289,157.164,79.532,75.2,113.947,159.682,96.887,237.861s-83.515,140.656-187.139,175.9c-103.488,35.213-231.708,39.072-361.023,10.865-129.3-28.225-244.285-85.1-323.715-160.215-79.534-75.2-113.941-159.68-96.891-237.857s83.513-140.654,187.135-175.908c103.494-35.209,231.712-39.072,361.033-10.867Q867.1,1354.655,873.789,1356.241ZM719.7,1933.537q6.688,1.571,13.419,3.038c266.283,58.079,511.385-25.2,546.378-185.626,34.411-157.759-146.98-332.283-406.2-393.293-4.41-1.038-8.8-2.034-13.257-3.005-266.281-58.076-511.391,25.2-546.38,185.632-16.936,77.647,17.318,161.619,96.456,236.447,76.479,72.323,186.012,127.72,309.587,156.8Z" transform="translate(-307.93 -1334.52)" fill="#0168ff"/>
    </g>
    <g id="Group_36262-2" data-name="Group 36262-2" transform="translate(1046.717 1362.492)">
      <path id="Path_65963-2" data-name="Path 65963-2" d="M710.262,1319.005a6.851,6.851,0,1,1,8.26-5.065v0A6.852,6.852,0,0,1,710.262,1319.005Z" transform="translate(-705.005 -1305.49)" fill="url(#linear-gradient)"/>
    </g>
    <g id="Group_36267-2" data-name="Group 36267-2" transform="translate(534.945 2078.125)">
      <circle id="Ellipse_1390-2" data-name="Ellipse 1390-2" cx="6.85" cy="6.85" r="6.85" transform="translate(0 0)" fill="#0168ff"/>
    </g>
    <g id="Group_36300-2" data-name="Group 36300-2" transform="translate(874.708 1369.092)">
      <path id="Path_65992-2" data-name="Path 65992-2" d="M612.559,1314.331a6.851,6.851,0,1,1,5.1,8.236l-.009,0A6.852,6.852,0,0,1,612.559,1314.331Z" transform="translate(-612.377 -1309.044)" fill="url(#linear-gradient-2)"/>
    </g>
    <g id="Group_36301-2" data-name="Group 36301-2" transform="translate(708.64 2072.422)">
      <path id="Path_65993-2" data-name="Path 65993-2" d="M523.129,1693.086a6.851,6.851,0,1,1,5.107,8.234l-.011,0A6.849,6.849,0,0,1,523.129,1693.086Z" transform="translate(-522.947 -1687.797)" fill="#0168ff"/>
    </g>
    <g id="Group_36322-2" data-name="Group 36322-2" transform="translate(1227.638 1644.403)">
      <circle id="Ellipse_1400-2" data-name="Ellipse 1400-2" cx="6.85" cy="6.85" r="6.85" transform="translate(0 0)" fill="url(#linear-gradient-3)"/>
    </g>
    <g id="Group_36265-2" data-name="Group 36265-2" transform="translate(439.873 1635.299)">
      <path id="Path_65966-2" data-name="Path 65966-2" d="M383.468,1465.915a6.852,6.852,0,1,1,8.26-5.066l0,0A6.85,6.85,0,0,1,383.468,1465.915Z" transform="translate(-378.212 -1452.4)" fill="#0168ff"/>
    </g>
    <g id="Group_36303-2" data-name="Group 36303-2" transform="translate(353.133 1794.213)">
      <path id="Path_65994-2" data-name="Path 65994-2" d="M331.685,1543.263a6.851,6.851,0,1,1,5.1,8.236l-.007,0A6.85,6.85,0,0,1,331.685,1543.263Z" transform="translate(-331.501 -1537.977)" fill="#0168ff"/>
    </g>
    <g id="Group_36266-2" data-name="Group 36266-2" transform="translate(1142.423 1804.607)">
      <path id="Path_65967-2" data-name="Path 65967-2" d="M761.808,1557.09a6.851,6.851,0,1,1,8.254-5.075l0,.016A6.853,6.853,0,0,1,761.808,1557.09Z" transform="translate(-756.544 -1543.574)" fill="url(#linear-gradient-4)"/>
    </g>
    <g id="Group_42618" data-name="Group 42618" transform="translate(306.259 1283.203)" opacity="0.15">
      <g id="Group_36297-2" data-name="Group 36297-2" transform="translate(844.059 691.461)">
        <path id="Path_65990-2" data-name="Path 65990-2" d="M760.978,1640.442a6.851,6.851,0,1,1,5.107,8.234h-.005A6.852,6.852,0,0,1,760.978,1640.442Z" transform="translate(-760.796 -1635.153)" fill="#0168ff"/>
      </g>
      <g id="Group_36263-2" data-name="Group 36263-2" transform="translate(410.35 0)">
        <path id="Path_65964-2" data-name="Path 65964-2" d="M532.493,1276.308a6.852,6.852,0,1,1,8.26-5.066l0,0A6.85,6.85,0,0,1,532.493,1276.308Z" transform="translate(-527.237 -1262.791)" fill="#0168ff"/>
      </g>
      <g id="Group_36265-2-2" data-name="Group 36265-2" transform="translate(291.638 133.403)">
        <path id="Path_65966-2-2" data-name="Path 65966-2" d="M468.566,1348.146a6.851,6.851,0,1,1,8.26-5.068l0,.005A6.853,6.853,0,0,1,468.566,1348.146Z" transform="translate(-463.31 -1334.631)" fill="#0168ff"/>
      </g>
      <g id="Group_36265-2-3" data-name="Group 36265-2" transform="translate(126.636 183.171)">
        <path id="Path_65966-2-3" data-name="Path 65966-2" d="M379.711,1374.947a6.851,6.851,0,1,1,8.258-5.065v0A6.851,6.851,0,0,1,379.711,1374.947Z" transform="translate(-374.454 -1361.432)" fill="#0168ff"/>
      </g>
      <g id="Group_36303-2-2" data-name="Group 36303-2" transform="translate(0 336.286)">
        <path id="Path_65994-2-2" data-name="Path 65994-2" d="M306.441,1449.172a6.852,6.852,0,1,1,5.1,8.238l-.007,0A6.854,6.854,0,0,1,306.441,1449.172Z" transform="translate(-306.259 -1443.886)" fill="#0168ff"/>
      </g>
      <g id="Group_36264-2" data-name="Group 36264-2" transform="translate(557.896 874.829)">
        <path id="Path_65965-2" data-name="Path 65965-2" d="M611.957,1747.416a6.851,6.851,0,1,1,8.254-5.075l-.006.017A6.851,6.851,0,0,1,611.957,1747.416Z" transform="translate(-606.693 -1733.899)" fill="#0168ff"/>
      </g>
      <g id="Group_36264-2-2" data-name="Group 36264-2" transform="translate(679.693 740.044)">
        <path id="Path_65965-2-2" data-name="Path 65965-2" d="M677.546,1674.833a6.851,6.851,0,1,1,8.252-5.074l0,.017A6.85,6.85,0,0,1,677.546,1674.833Z" transform="translate(-672.282 -1661.315)" fill="#0168ff"/>
      </g>
      <g id="Group_36268-2" data-name="Group 36268-2" transform="translate(362.448 917.137)">
        <path id="Path_65968-2" data-name="Path 65968-2" d="M506.694,1770.2a6.851,6.851,0,1,1,8.262-5.062,6.85,6.85,0,0,1-8.262,5.062Z" transform="translate(-501.442 -1756.682)" fill="#0168ff"/>
      </g>
      <g id="Group_36266-2-2" data-name="Group 36266-2" transform="translate(967.24 549.122)">
        <path id="Path_65967-2-2" data-name="Path 65967-2" d="M832.394,1572.017a6.851,6.851,0,1,1,8.254-5.073l0,.015A6.85,6.85,0,0,1,832.394,1572.017Z" transform="translate(-827.13 -1558.501)" fill="#0168ff"/>
      </g>
    </g>
  </g>
</svg>
