<svg id="Layer_1" data-name="Layer 1" xmlns="http://www.w3.org/2000/svg" viewBox="0 0 94.95 95.92"><defs><style>.cls-1{fill:#0168ff;fill-rule:evenodd;}</style></defs><path id="Path_71973" data-name="Path 71973" class="cls-1" d="M13.1,80.6C2.16,65.4-2.47,48.53,5.36,30.85,13.37,12.75,30.81-.23,51,1.67c43.21,4.06,54.86,53.81,26.55,82.58-.35.35.24,1,.61.62C110.73,56.08,93.22,2.23,48.87.05,30.51-.85,15.54,9.91,6.58,25.43-4.44,44.52-1,64.37,12.54,81a.35.35,0,0,0,.56-.43Z"/><path id="Path_71974" data-name="Path 71974" class="cls-1" d="M10,77.55c17.9,24.34,54.25,24,73.55,2,.31-.35-.24-.75-.55-.44-21.15,21.41-52.09,19.83-72.48-2-.29-.3-.78,0-.52.4Z"/><path id="Path_71975" data-name="Path 71975" class="cls-1" d="M.85,44C7.17,46.11,14,48.41,20.64,46.16c2.61-.89,4.72-2.61,7.06-4,5.95-3.55,12.08-4.68,18.44-7,4.92-1.8,9.39-4.33,11.44-9.4,1.83-4.54,2.13-9.62,4.07-14.3,1.6-3.89,2-4.13,1.32-8.11-.07-.41-.71-.33-.64.08,1,5.4-2.72,9.15-4,14-1.56,5.93-4.27,12.08-9.6,16.05-2,1.48-9.89,3-10.13,3.08a54.73,54.73,0,0,0-9.94,4.24c-3.64,1.93-7.26,4.63-11.36,5.58-5,1.16-11.49-1.29-16.26-2.85-.31-.11-.51.36-.2.46Z"/><path id="Path_71976" data-name="Path 71976" class="cls-1" d="M1.62,41.88c6.72,1,9.29-2.91,14.72-6.1,6-3.52,11.78-2.09,18.07-2.39A12.41,12.41,0,0,0,40,32c6.54-3.74,6.72-13.45,12.54-18.14,4.51-3.62,8.29-5.24,8.08-11.45,0-.39-.61-.3-.6.08.34,9.58-8.5,9.22-12.77,14.34C42,23.15,43.76,32.28,30,32.17c-3.22,0-5.7-.93-8.9.1-7.2,2.32-10.11,10.3-19.43,9a.29.29,0,0,0-.31.27.28.28,0,0,0,.24.3Z"/><path id="Path_71977" data-name="Path 71977" class="cls-1" d="M39.5,34.07c5.11-2.17,7.43-7.41,9.23-12.32.09-.24-.27-.39-.36-.15-1.85,5-4.07,9.61-9,12.13a.19.19,0,0,0-.1.24A.2.2,0,0,0,39.5,34.07Z"/><path id="Path_71978" data-name="Path 71978" class="cls-1" d="M49.06,21c2.75-8,14.09-8.1,12.82-18.14a.3.3,0,0,0-.35-.24.28.28,0,0,0-.24.32c.85,6.29-3.32,8.29-7.72,11.29a12,12,0,0,0-4.87,6.62c-.08.23.27.39.36.15Z"/><path id="Path_71979" data-name="Path 71979" class="cls-1" d="M37.22,34.91c5-.6,10.49-1.83,14.16-5.53,2.41-2.43,3.44-5.49,4.53-8.67A77.78,77.78,0,0,1,61.23,8.5c.16-.3-.33-.5-.5-.21-2.8,5-4.24,10.17-6.48,15.38-3.36,7.84-9.69,9-17.1,10.76a.24.24,0,0,0-.21.27.25.25,0,0,0,.28.21Z"/><path id="Path_71980" data-name="Path 71980" class="cls-1" d="M45.8,30.79c2.24-3.2,3-7.07,5.05-10.34,1.31-2.06,2.61-2.88,4.58-4.21a4.76,4.76,0,0,0,1.91-2A.22.22,0,0,0,57,14c-1.8,2.53-4.86,3.29-6.58,6.1-2,3.3-2.72,7.17-4.89,10.42-.14.2.16.44.31.24Z"/><path id="Path_71981" data-name="Path 71981" class="cls-1" d="M45.53,31.19c8.23-2.41,8.34-10,11.82-16.52.15-.27-.3-.53-.46-.27-1.66,2.58-2.21,5.5-3.34,8.32a14,14,0,0,1-8.19,8.07C45.09,30.89,45.26,31.26,45.53,31.19Z"/><path id="Path_71982" data-name="Path 71982" class="cls-1" d="M48.25,28.51C51.86,26.1,53,21.78,54.59,18a.24.24,0,0,0-.14-.31.24.24,0,0,0-.3.12c-1.8,3.69-2.57,7.91-6.18,10.36-.25.17,0,.53.28.37Z"/><path id="Path_71983" data-name="Path 71983" class="cls-1" d="M48.17,28.24a33.37,33.37,0,0,0,2.16-4.8c.91-2.13,2.47-3.42,4-5.08.21-.23-.14-.54-.37-.37-3.61,2.56-4.16,6.38-6.16,10-.12.22.25.43.38.22Z"/><path id="Path_71984" data-name="Path 71984" class="cls-1" d="M5.06,43.4c6.75.67,9.33-5.82,15-8,6.27-2.47,13.15,1.65,19.47-1a.24.24,0,0,0-.19-.45c-6,2.15-11.83-.83-17.83.6-6.3,1.5-9.2,8.85-16.38,8.43-.31,0-.38.45-.06.48Z"/><path id="Path_71985" data-name="Path 71985" class="cls-1" d="M5.52,43.82c4.07.94,8.77,2.55,12.93,1.4s7.4-4.4,11.06-6.45c.22-.13.08-.49-.15-.37-3.23,1.62-6,4.2-9.31,5.58-4.8,2-9.6.2-14.47-.62-.3-.06-.35.39-.06.46Z"/><path id="Path_71986" data-name="Path 71986" class="cls-1" d="M35.58,36.28c.21.07.36-.26.14-.33S35.36,36.21,35.58,36.28Z"/><path id="Path_71987" data-name="Path 71987" class="cls-1" d="M36.21,36.2A15.12,15.12,0,0,0,40,34.11a.23.23,0,0,0,0-.31.22.22,0,0,0-.31,0,19.66,19.66,0,0,1-3.65,2.08.19.19,0,0,0,.15.35Z"/><path id="Path_71988" data-name="Path 71988" class="cls-1" d="M30.09,38.44c1.45-.52,2.89-1,4.31-1.58a.22.22,0,0,0,.12-.28.22.22,0,0,0-.28-.12c-1.44.53-2.86,1.09-4.3,1.63-.22.09-.08.43.15.35Z"/><path id="Path_71989" data-name="Path 71989" class="cls-1" d="M10.5,43.46c3.24-1.09,5.26-3.5,8.05-5.33,4.14-2.7,9.3-1.92,14-2,.32,0,.32-.55,0-.56-3.83-.1-8.19-.54-11.84.86-3.89,1.5-6.43,5.15-10.36,6.63-.25.1-.09.47.16.38Z"/><path id="Path_71990" data-name="Path 71990" class="cls-1" d="M10.43,43.52c3.39.36,6.63.54,9.82-.87a88.42,88.42,0,0,0,9.61-5.47c.18-.12,0-.44-.2-.34-2.81,1.49-5.54,3.12-8.35,4.62-3.5,1.87-6.92,1.94-10.82,1.62-.28,0-.35.41-.06.44Z"/><path id="Path_71991" data-name="Path 71991" class="cls-1" d="M30.32,36.94c.79-.21,1.59-.43,2.37-.69.25-.09.13-.52-.12-.45-.8.21-1.58.47-2.36.73-.23.08-.13.48.11.41Z"/><path id="Path_71992" data-name="Path 71992" class="cls-1" d="M14.07,42.74c5,.36,9.07-3.32,13.38-5.34a.22.22,0,0,0,.12-.3.23.23,0,0,0-.29-.12c-4.52,1.6-8,5.55-13.15,5.33-.27,0-.34.41-.05.43Z"/><path id="Path_71993" data-name="Path 71993" class="cls-1" d="M14.58,42.47C16.6,41.71,18,40,20,39.14c2.11-1,4.39-1.14,6.59-1.79.27-.08.13-.46-.13-.45a17.66,17.66,0,0,0-6.38,1.61c-2.05,1-3.57,2.71-5.65,3.58a.2.2,0,0,0-.08.28.2.2,0,0,0,.24.1Z"/><path id="Path_71994" data-name="Path 71994" class="cls-1" d="M17.8,41.46A37.93,37.93,0,0,0,22,39.21c.22-.14,0-.49-.22-.39A36.45,36.45,0,0,0,17.55,41c-.25.14,0,.55.25.43Z"/><path id="Path_71995" data-name="Path 71995" class="cls-1" d="M1.33,46a27.3,27.3,0,0,0,11.79,2.58A27,27,0,0,0,18.35,48c1.88-.4,4-1.82,5.77-2,1.15-.8,2.15-.34,3,1.35,2.31.61,2.82,1.51,1.54,2.68-.5,1.44-2.48,2.77-3.62,3.69a28.74,28.74,0,0,1-6.93,4.07,42.16,42.16,0,0,1-15.26,3c-.45,0-.35.7.1.69a39.15,39.15,0,0,0,18.41-4.41c2.91-1.61,8.59-5.1,9-9,.24-2.46-1.58-3.65-3.89-3.45-3.31.28-6.5,2.52-9.85,3a27.51,27.51,0,0,1-15-2.17.27.27,0,0,0-.33.17.27.27,0,0,0,.12.3Z"/><path id="Path_71996" data-name="Path 71996" class="cls-1" d="M2.3,60.2A35,35,0,0,0,16,57.45C19.4,56,24.4,53.78,26,50.18c.85-1.92,0-2.54-2.06-2.51-2.59,0-5.16,1.19-7.74,1.46A32.3,32.3,0,0,1,4.82,48.2c-.35-.09-.41.46-.07.55a32,32,0,0,0,10.08,1,35.06,35.06,0,0,0,5.68-.94c.77-.22,1.54-.42,2.32-.58q2.3,3.15.09,4.53c-2.06,2.42-6.54,4-9.51,5A41.23,41.23,0,0,1,2.3,59.73a.24.24,0,0,0,0,.47Z"/><path id="Path_71997" data-name="Path 71997" class="cls-1" d="M2.06,47.47l.75.41c.19.17.49-.12.32-.31-.42-.47-.28-.39-.88-.56-.3-.09-.5.37-.19.46Z"/><path id="Path_71998" data-name="Path 71998" class="cls-1" d="M3.12,50.27a35.59,35.59,0,0,0,9,1.24c1.28,0,9.39-1.48,8.79,1.55-.05.26.38.39.46.13.53-1.85-.68-2.67-2.45-2.74-2.42-.11-4.93.57-7.38.54a40.84,40.84,0,0,1-8.39-1.07c-.22-.05-.26.3,0,.35Z"/><path id="Path_71999" data-name="Path 71999" class="cls-1" d="M17.88,54.57A30.66,30.66,0,0,1,3.11,57.3c-.39,0-.47.59-.08.61A29,29,0,0,0,18,55C18.3,54.85,18.13,54.45,17.88,54.57Z"/><path id="Path_72000" data-name="Path 72000" class="cls-1" d="M2.94,55.92a22.42,22.42,0,0,0,14.6-2.57.31.31,0,0,0-.08-.59c-4.6-.63-9.37,1.15-13.82-.52-.35-.13-.59.41-.23.54,4.57,1.69,9.29-.28,14,.59,0-.19-.05-.39-.08-.59A22.8,22.8,0,0,1,3,55.54a.2.2,0,0,0-.21.17A.19.19,0,0,0,2.94,55.92Z"/><path id="Path_72001" data-name="Path 72001" class="cls-1" d="M4.27,54.7c1.4.08,2.81.2,4.22.2.25,0,.24-.42,0-.45-1.37-.14-2.77-.15-4.16-.21-.29,0-.36.44,0,.46Z"/><path id="Path_72002" data-name="Path 72002" class="cls-1" d="M21.94,58.61c10.93-2.78,12.6-16.83,22.83-21,.3-.12.11-.54-.18-.45C33.89,40.48,32.53,54.6,21.8,58.12c-.27.09-.14.56.14.49Z"/><path id="Path_72003" data-name="Path 72003" class="cls-1" d="M28.11,43.56c3.61-1.55,7.24-3,10.88-4.43.26-.1.15-.56-.14-.49a46.44,46.44,0,0,0-10.94,4.44c-.28.16-.11.61.2.48Z"/><path id="Path_72004" data-name="Path 72004" class="cls-1" d="M32,47a61.18,61.18,0,0,1,6.12-7.68c.18-.19-.12-.49-.32-.32a30.32,30.32,0,0,0-6.13,7.75c-.12.22.19.48.33.25Z"/><path id="Path_72005" data-name="Path 72005" class="cls-1" d="M30.76,43.87A17.47,17.47,0,0,0,32.63,43a.22.22,0,0,0-.17-.41c-.64.25-1.25.53-1.87.84a.23.23,0,0,0-.11.3.23.23,0,0,0,.28.11Z"/><path id="Path_72006" data-name="Path 72006" class="cls-1" d="M30.93,45.87A23.77,23.77,0,0,1,32.58,43c.21-.3-.23-.65-.45-.35a14.17,14.17,0,0,0-1.7,3,.26.26,0,0,0,.15.35A.27.27,0,0,0,30.93,45.87Z"/><path id="Path_72007" data-name="Path 72007" class="cls-1" d="M48.66,37c5.41-2.09,11.21-5.34,13.76-10.87,1.35-2.93,1.28-6,1.6-9.14.45-4.43,2.38-8.2,2.91-12.5A.37.37,0,0,0,66.59,4a.38.38,0,0,0-.4.31c-.34,2.86-1.83,5.09-2.45,7.83-.53,2.32-.26,4.71-.52,7-1,9.09-6.7,13.63-14.75,17.28a.25.25,0,0,0,.2.46Z"/><path id="Path_72008" data-name="Path 72008" class="cls-1" d="M55.82,31a20.4,20.4,0,0,0,5.28-7.51c1.19-3.31,1-7,1.59-10.43a.26.26,0,0,0-.22-.3.28.28,0,0,0-.28.16c-.9,2.58-.69,5.2-1.15,7.85-.67,4-3,6.92-5.56,9.88C55.3,30.88,55.61,31.21,55.82,31Z"/><path id="Path_72009" data-name="Path 72009" class="cls-1" d="M25.2,31.05c4.37.11,9.21.08,12.87-2.68,4-3,4.52-8.47,7.94-12,.19-.19-.11-.48-.32-.32-2.91,2.23-3.54,5.76-5.4,8.75C36.92,30.24,31,30.52,25.2,30.58c-.27,0-.27.46,0,.47Z"/><path id="Path_72010" data-name="Path 72010" class="cls-1" d="M6.23,39.78c4.85-1.76,8.44-5.71,13.09-7.89a.22.22,0,0,0,.1-.29.21.21,0,0,0-.27-.11c-4.83,1.79-8.25,6.06-13.09,7.89-.26.1-.1.5.17.4Z"/><path id="Path_72011" data-name="Path 72011" class="cls-1" d="M50,13.54c3-1.18,5.91-3.45,6.44-6.8A4.9,4.9,0,0,0,52.86,1a.26.26,0,0,0-.15.49c3.15,1.29,4,4.36,2.35,7.29-1.19,2.13-3.17,3.21-5.24,4.34a.25.25,0,0,0-.11.33.24.24,0,0,0,.3.12Z"/><path id="Path_72012" data-name="Path 72012" class="cls-1" d="M4.09,31.26c-.1,3.18,3.19,3.59,5.76,3a20.64,20.64,0,0,0,5.33-2.41c4.08-2.32,7.72-3.81,12.57-3.71.25,0,.31-.4.05-.41a20.93,20.93,0,0,0-8.89,1.47A31.32,31.32,0,0,0,15.37,31c-1.66.95-10.69,6.26-10.82.23,0-.26-.46-.27-.46,0Z"/><path id="Path_72013" data-name="Path 72013" class="cls-1" d="M29.76,26.5a19,19,0,0,0,6.89-4c2.49-2.49,3.23-6.14,5.93-8.47a.19.19,0,0,0,0-.28.21.21,0,0,0-.29,0c-2.08,1.54-3,3.71-4.26,5.89-2,3.31-5,5-8.48,6.46a.22.22,0,0,0-.1.3.23.23,0,0,0,.28.11Z"/><path id="Path_72014" data-name="Path 72014" class="cls-1" d="M43.47,13.17c2.78-1.43,5.39-4.19,5.89-7.38a.25.25,0,0,0-.23-.27.27.27,0,0,0-.25.14c-1.28,3.09-2.64,5.4-5.61,7.16-.19.12,0,.46.2.35Z"/><path id="Path_72015" data-name="Path 72015" class="cls-1" d="M48.45,3.11A3.73,3.73,0,0,0,47.78.85c-.18-.27-.55,0-.46.27a12.16,12.16,0,0,1,.56,2.07c0,.37.58.28.57-.08Z"/><path id="Path_72016" data-name="Path 72016" class="cls-1" d="M8.4,24.63c0,8.27,18-5.68,19-6.12,4.54-2.09,8.46-3.87,10.37-8.88C39,6.44,39,3.31,35.41,2.17c-.34-.11-.57.4-.22.53,8.35,3-2.31,12.6-4.81,13.89-1.83.94-3.84,1.48-5.65,2.44s-15,12.29-15.93,5.6c0-.21-.4-.23-.4,0Z"/><path id="Path_72017" data-name="Path 72017" class="cls-1" d="M10.17,21.66a2.4,2.4,0,0,0,1,3.94c3.12,1.26,6.93-3,8.92-4.55,5-4,20-8.11,15.77-17.29-.16-.36-.75-.12-.58.25,3.59,7.87-6.44,10.52-11.2,13.33a40.26,40.26,0,0,0-4.39,3.19c-.92.77-1.85,1.54-2.79,2.28q-2.75,3-6.38-.88c.15-.24-.18-.51-.36-.28Z"/><path id="Path_72018" data-name="Path 72018" class="cls-1" d="M12.31,18.61a2.14,2.14,0,0,0,.46,3.1c1.68,1.22,3.78-.25,5-1.3a42.79,42.79,0,0,1,9.81-6.34c2.27-1.07,4.26-2.23,5.5-4.48.17-.32-.34-.54-.52-.22C30.67,13,26.38,13.8,23.1,15.72a29,29,0,0,0-3,2c-.77.59-1.48,1.25-2.21,1.89-.25.24-.51.48-.79.7Q15.29,22.16,12.75,19c.18-.31-.26-.66-.45-.35Z"/><path id="Path_72019" data-name="Path 72019" class="cls-1" d="M33.84,8a3.15,3.15,0,0,0,.53-3.7A.28.28,0,0,0,34,4.18a.28.28,0,0,0-.15.34,3.3,3.3,0,0,1-.46,3.15.29.29,0,0,0,.07.39A.28.28,0,0,0,33.84,8Z"/><path id="Path_72020" data-name="Path 72020" class="cls-1" d="M15.48,18.46c.67-2.72,4.06-5.11,6.23-6.63a30.63,30.63,0,0,1,3.86-2.29c.82-.39,4.43-2.59,3.32.29-.24.64-3,1.83-3.6,2.22-1.15.7-2.32,1.35-3.47,2-1.88,1.15-4.17,3.68-6.44,3.75-.26,0-.25.43,0,.47a4.17,4.17,0,0,0,3.17-1.16A66.69,66.69,0,0,1,24.68,13c.76-.45,7.39-3,5.42-5-1.51-1.54-6,1.63-7.24,2.39-2.7,1.7-7.11,4.72-7.87,8.06-.07.31.41.37.49.06Z"/><path id="Path_72021" data-name="Path 72021" class="cls-1" d="M18.45,25.56c3.09-.4,5.46-2.35,7.92-4.12a32.54,32.54,0,0,1,5-2.88,6.45,6.45,0,0,0,3.08-2.43c.16-.27-.19-.57-.39-.31-1.85,2.3-5.36,3.17-7.79,4.88s-4.9,3.61-7.95,4.46C18.12,25.23,18.23,25.59,18.45,25.56Z"/><path id="Path_72022" data-name="Path 72022" class="cls-1" d="M44.36,15.58c2.28-3,6.06-3.84,7.71-7.49,1-2.17,1.41-5.19-.77-6.74-.38-.27-.83.3-.44.57,3.74,2.58-.21,8.33-2.65,10A15.53,15.53,0,0,0,44,15.31a.2.2,0,0,0,0,.3.22.22,0,0,0,.3,0Z"/><path id="Path_72023" data-name="Path 72023" class="cls-1" d="M54.2,5.29a3.69,3.69,0,0,0-1-4c-.29-.26-.64.21-.37.47a3.21,3.21,0,0,1,1,3.42c-.07.23.27.38.35.15Z"/><path id="Path_72024" data-name="Path 72024" class="cls-1" d="M16.13,82.91c8.66-.25,19.12,2.14,26.82-3.14,3.49-2.39,5.59-6.12,7.89-9.55,4.67-7,9.66-10.39,18.38-11.2.32,0,.25-.5-.06-.49-9.23.38-13.8,3.8-18.84,11.29-4.59,6.79-9.18,11.67-17.89,12.59-5.4.57-10.93-.26-16.35,0-.3,0-.23.45.05.45Z"/><path id="Path_72025" data-name="Path 72025" class="cls-1" d="M70.49,58.61c10.44-.48,17.71-13,19-22.27,0-.31-.4-.35-.47-.06C86.87,45.34,81,57.2,70.41,58c-.38,0-.29.59.08.57Z"/><path id="Path_72026" data-name="Path 72026" class="cls-1" d="M26.44,84.27c11.3,2,23.15,1.79,34.18-1.64,9.85-3.06,14.22-10.51,17.48-19.87.11-.31-.34-.51-.46-.2-4.74,11.52-10.26,18-23,20.72a80.18,80.18,0,0,1-28.19.5.25.25,0,0,0-.26.23.24.24,0,0,0,.2.26Z"/><path id="Path_72027" data-name="Path 72027" class="cls-1" d="M78,63.26C81.42,56,87.92,51.44,89.29,43.1a.22.22,0,0,0-.42-.12c-1.51,4.34-3.08,8.34-6,12-2,2.62-4.4,4.8-5.32,8.08a.23.23,0,0,0,.14.29.24.24,0,0,0,.29-.11Z"/><path id="Path_72028" data-name="Path 72028" class="cls-1" d="M39.63,83.57c8-.06,16.52-.33,23.63-4.46C71,74.62,72.62,66.74,77.12,59.59a.33.33,0,0,0-.08-.46.33.33,0,0,0-.22-.05c-6.48.77-13.4,1.64-18.77,5.7-7.12,5.39-9.63,14.58-18.42,18.08a.34.34,0,0,0,.26.62c5.13-2,8.15-5.76,11.4-10.07C56.37,66.68,63.71,59.72,73,60.21c3.89.2,1.79,2.08.32,5.2-2.05,4.32-4.07,8.44-7.88,11.51-7.16,5.8-17.11,5.86-25.84,6.22-.28,0-.22.44.06.43Z"/><path id="Path_72029" data-name="Path 72029" class="cls-1" d="M47.8,79.61c-.23,4.48,8.45,1.26,10.48.34a25.42,25.42,0,0,0,8.07-6c2-2.2,6.13-7,6.41-10.14.35-3.86-5.38-1.3-7.38-.45C58,66.53,52.65,72.66,48.1,79c-.26.36.3.78.53.42a46.92,46.92,0,0,1,9.23-10.69c2.28-1.89,10.17-8.24,13-5.45q2.13.54.42,2.18a37.35,37.35,0,0,1-2.46,4.19,29.74,29.74,0,0,1-5.33,6.09c-1.07.91-15.15,9-15.2,3.84,0-.3-.51-.3-.53,0Z"/><path id="Path_72030" data-name="Path 72030" class="cls-1" d="M50.77,78.43c-.08.14-.16.28-.23.42a.32.32,0,0,0,0,.31c1.22,1.92,5.82-.76,7.21-1.42a29.76,29.76,0,0,0,9.82-7.53c1-1.23,3.42-3.95,1-5.23-.91-.48-2.92.6-3.75.94a31.3,31.3,0,0,0-6.38,3.53c-.25.18,0,.56.3.39,1.8-1.15,4.64-3.38,6.87-3.59q1.86-1,2.58,2.24l-.74.9c-.62,1.19-2.26,2.38-3.25,3.26a29.74,29.74,0,0,1-5.7,3.92A31.68,31.68,0,0,1,55.38,78c-.44.17-4.38,1.31-4.11.61a.27.27,0,0,0-.16-.35.27.27,0,0,0-.34.14Z"/><path id="Path_72031" data-name="Path 72031" class="cls-1" d="M57.7,70.47c.21.07.36-.26.13-.33S57.48,70.4,57.7,70.47Z"/><path id="Path_72032" data-name="Path 72032" class="cls-1" d="M54.08,73.3a16.43,16.43,0,0,0-3.43,5,.3.3,0,0,0,.16.39.31.31,0,0,0,.39-.16,16.66,16.66,0,0,1,3.21-5C54.6,73.36,54.27,73.11,54.08,73.3Z"/><path id="Path_72033" data-name="Path 72033" class="cls-1" d="M53.64,77.63a19,19,0,0,0,7-3.31c1-.74,4.33-3.23,3.58-4.77s-3.65-.2-4.6.36a19,19,0,0,0-6.57,6.21c-.15.25.18.53.37.29a24.49,24.49,0,0,1,4.19-4.5,16.16,16.16,0,0,1,2.86-1.83c.82-.39,3.5-1.2,2.67.89-.55,1.41-2.66,2.78-3.89,3.63a17.72,17.72,0,0,1-5.68,2.54c-.3.08-.25.57.07.49Z"/><path id="Path_72034" data-name="Path 72034" class="cls-1" d="M53.44,64.51c6-10.38,19-6.55,26.64-14.11,5.58-5.51,7.55-14.25,7.47-21.81,0-.43-.68-.34-.67.09a31.79,31.79,0,0,1-4.85,18C77.51,53.47,71.9,53.93,64.9,56c-5.26,1.53-9.33,3.43-11.9,8.37-.14.27.29.44.44.18Z"/><path id="Path_72035" data-name="Path 72035" class="cls-1" d="M19.6,80.58c9.56.14,20-.39,26.53-8.32.15-.19-.15-.43-.31-.24-6.54,7.82-16.81,8-26.22,8.13-.24,0-.25.43,0,.43Z"/><path id="Path_72036" data-name="Path 72036" class="cls-1" d="M49,69.2l.75-1a.25.25,0,0,0,0-.34.23.23,0,0,0-.33,0,1.89,1.89,0,0,0-1,1.22.26.26,0,0,0,.15.34A.25.25,0,0,0,49,69.2Z"/><path id="Path_72037" data-name="Path 72037" class="cls-1" d="M20.66,86.7c5.45,2.58,12.28,2.24,18.23,2.18,6.93-.07,13.76-.74,20.32-3,.25-.09.09-.44-.15-.37-11,3.48-27.16,5.09-38.2.75a.26.26,0,0,0-.33.17.28.28,0,0,0,.13.31Z"/><path id="Path_72038" data-name="Path 72038" class="cls-1" d="M62.28,84.55a10.54,10.54,0,0,0,3.61-2.09c.18-.17,0-.56-.24-.41A38,38,0,0,1,62,84a.31.31,0,0,0-.14.41.32.32,0,0,0,.39.16Z"/><path id="Path_72039" data-name="Path 72039" class="cls-1" d="M67.93,80.94c3.78-2.57,7.4-5.31,9.81-9.28,1.37-2.26,2.14-4.8,3.32-7.16a42.34,42.34,0,0,1,3.48-5.68q2-4.16,7.22-1.94a.26.26,0,0,0,.23.28.25.25,0,0,0,.28-.21c.76-4.33-3.35-3.84-5.83-1.71-2.77,2.39-4.88,6.59-6.42,9.89C77,71.7,73.58,76.31,67.59,80.5c-.29.21,0,.64.34.44Z"/><path id="Path_72040" data-name="Path 72040" class="cls-1" d="M82.6,58.4c1.2-1.57,2.36-3.2,3.61-4.72,1.39-1.68,5.29-4.06,6.25-.52.09.31.57.26.52-.07a3,3,0,0,0-4.12-2c-2.89,1-4.83,4.83-6.54,7.12a.18.18,0,0,0,0,.25A.17.17,0,0,0,82.6,58.4Z"/><path id="Path_72041" data-name="Path 72041" class="cls-1" d="M88,50.24c.64-1.21,1.24-2.48,2-3.65a4,4,0,0,1,.78-1.09c.11.41.22.83.34,1.25.17.66.33,1.32.49,2,.55,2.45.5,5,.92,7.44a.23.23,0,0,0,.26.19.23.23,0,0,0,.2-.19,22.05,22.05,0,0,0-.55-5.84c-.31-1.69-.43-3.78-1.26-5.31a.3.3,0,0,0-.31-.17c-.62,0-.69.32-1,.85-.85,1.38-1.51,2.92-2.23,4.37-.11.24.26.4.39.16Z"/><path id="Path_72042" data-name="Path 72042" class="cls-1" d="M90.43,38c.63,3.89,3,8.89,1.77,12.77a.2.2,0,0,0,.36.15c.78-2,.43-3.92,0-6-.53-2.34-1-4.72-1.68-7-.07-.24-.45-.13-.42.11Z"/><path id="Path_72043" data-name="Path 72043" class="cls-1" d="M88.51,30.06c1.58,3.32,2.72,6.77,4,10.2.1.23.48.13.43-.12a48.64,48.64,0,0,0-4-10.27c-.14-.29-.6-.1-.46.19Z"/><path id="Path_72044" data-name="Path 72044" class="cls-1" d="M72.8,79.18c-4.22,3.45-8.46,6.52-13.61,8.46-4.33,1.65-9,1.65-13.26,3.14-5.66,2-1.49,4.47,2.4,4.33.32,0,.25-.5-.07-.5q-4.4-3.42-.9-3.63a17.81,17.81,0,0,1,2.5-.49c1.45-.25,2.88-.45,4.31-.79a41,41,0,0,0,6.64-2.19,38.31,38.31,0,0,0,12.31-8c.18-.18-.12-.48-.32-.32Z"/><path id="Path_72045" data-name="Path 72045" class="cls-1" d="M51.07,94.74c-.91,0-1.18-.64-.79-1.89l.94-.32c.73-.25,1.46-.48,2.18-.76.22-.08.13-.45-.11-.39-1.17.28-4.2.53-4.62,1.93s1.35,1.93,2.39,1.92c.3,0,.26-.44,0-.49Z"/><path id="Path_72046" data-name="Path 72046" class="cls-1" d="M60.83,89.62a34.79,34.79,0,0,0,8-3.44c.21-.14,0-.48-.22-.38a82.49,82.49,0,0,1-8,3.46C60.44,89.34,60.59,89.69,60.83,89.62Z"/><path id="Path_72047" data-name="Path 72047" class="cls-1" d="M55,91.65a23.25,23.25,0,0,0,3.16-.91.25.25,0,0,0,.12-.33.26.26,0,0,0-.25-.15,23.36,23.36,0,0,0-3.19.83c-.3.1-.16.64.16.56Z"/><path id="Path_72048" data-name="Path 72048" class="cls-1" d="M75.35,79c1.46-1.42,2.7-3,4.19-4.42.7-.66,1.42-1.29,2.17-1.88a9.69,9.69,0,0,1,1.17-.85c.53-.29,4.36-1.93,3.08,1.3a.33.33,0,0,0,.21.4.32.32,0,0,0,.37-.16c1-2-1.54-3.19-3.21-2.52A14.9,14.9,0,0,0,79.14,74,23.5,23.5,0,0,0,75,78.61c-.13.22.14.57.35.35Z"/><path id="Path_72049" data-name="Path 72049" class="cls-1" d="M70.54,85.28a26,26,0,0,0,5.74-4.44c.7-.76,1.35-1.56,2.06-2.31.17-.18,5.3-4.5,5.09-1.93a.3.3,0,0,0,.27.34.31.31,0,0,0,.33-.26c.31-2.45-2.74-1.27-3.83-.55a20.93,20.93,0,0,0-3.86,3.78,29.54,29.54,0,0,1-6.1,5c-.26.18,0,.56.3.4Z"/><path id="Path_72050" data-name="Path 72050" class="cls-1" d="M58.05,92.21A44.62,44.62,0,0,0,78.71,81.43c.26-.24-.07-.69-.34-.45A47.16,47.16,0,0,1,58,91.69c-.32.08-.26.6.07.52Z"/><path id="Path_72051" data-name="Path 72051" class="cls-1" d="M77.67,74.7c1.73-2.35,8.07-11.32,8.49-11.87q1.65-2.74,4.21.6c0,.4.59.49.63.08.19-2.35-1.74-3.7-3.84-2.49-1.82,1.06-3,3.49-4.14,5.15-1.91,2.75-3.82,5.49-5.69,8.27-.14.23.17.48.34.26Z"/><path id="Path_72052" data-name="Path 72052" class="cls-1" d="M11.7,78.57a51.19,51.19,0,0,0,23.36-3.38c.28-.11.1-.52-.18-.42a57.73,57.73,0,0,1-23.12,3.3C11.44,78.06,11.37,78.54,11.7,78.57Z"/><path id="Path_72053" data-name="Path 72053" class="cls-1" d="M38.88,72.2c3.14-3.26,5-6.67,7-10.65,2.65-5.31,3.89-9.27,11.15-10.63,3.24-.6,6.67.14,9.92.18,6,.09,11.53-1.05,13.77-7.14a.21.21,0,1,0-.39-.16c-5,11.91-19,3.21-27.76,7.71-7.13,3.65-9.1,14.58-14.08,20.37-.22.26.18.56.41.32Z"/><path id="Path_72054" data-name="Path 72054" class="cls-1" d="M41.88,71.28c4.17-1.73,6.56-5.2,9.26-8.65,4.8-6.12,10.17-7.75,17.63-8.83a.28.28,0,0,0,.24-.31.27.27,0,0,0-.31-.23c-5.13.45-10.41,1.33-14.38,4.87C49.75,62.2,47.43,68,41.7,70.84a.24.24,0,0,0,.18.44Z"/><path id="Path_72055" data-name="Path 72055" class="cls-1" d="M41.61,70.92c3.82-3.33,5.17-8,8-12C54.51,52,61,53.6,68.31,53.62c.33,0,.43-.48.08-.52-5.07-.5-11.47-1.71-15.83,1.66-5.22,4-6.62,11.25-11.25,15.85-.17.18.12.47.3.31Z"/><path id="Path_72056" data-name="Path 72056" class="cls-1" d="M33.27,77.91c3.36-1.49,7.48-4.4,9.21-7.74a.29.29,0,0,0-.15-.35.27.27,0,0,0-.26,0c-1.47,1.32-2.63,3-4.13,4.27a41,41,0,0,1-4.87,3.42c-.21.13,0,.46.2.36Z"/><path id="Path_72057" data-name="Path 72057" class="cls-1" d="M66.82,53.8A9.31,9.31,0,0,0,75,51.33.22.22,0,0,0,75,51a.22.22,0,0,0-.3,0,13.39,13.39,0,0,1-7.89,2.24c-.36,0-.31.51,0,.58Z"/><path id="Path_72058" data-name="Path 72058" class="cls-1" d="M48.49,63.24a20.15,20.15,0,0,1,8.72-8,.34.34,0,0,0,.18-.46.35.35,0,0,0-.36-.21c-4.3.56-7,5-8.91,8.47-.11.21.24.42.37.22Z"/><path id="Path_72059" data-name="Path 72059" class="cls-1" d="M70.43,47.85C80.67,43,87.75,26.48,82.55,16a.49.49,0,0,0-.64-.24.5.5,0,0,0-.25.61C85.28,27.11,80.3,42,70.25,47.43c-.24.14-.09.55.18.42Z"/><path id="Path_72060" data-name="Path 72060" class="cls-1" d="M81.45,41.8a47.88,47.88,0,0,0,4.26-11.57c.74-3.07,1.8-6.59.65-9.64a.4.4,0,0,0-.76.2c1.48,6.85-2,14.66-4.55,20.84a.22.22,0,0,0,.13.28A.22.22,0,0,0,81.45,41.8Z"/><path id="Path_72061" data-name="Path 72061" class="cls-1" d="M13.32,77.28c8-.34,18.4.35,24.12-6.34.17-.2-.13-.52-.33-.33-6.48,6.13-15.57,5.47-23.86,6.15-.33,0-.26.53.07.51Z"/><path id="Path_72062" data-name="Path 72062" class="cls-1" d="M23.15,74.91A19.36,19.36,0,0,0,35,70.78a.25.25,0,0,0,0-.34.24.24,0,0,0-.34,0h0a23.63,23.63,0,0,1-11.61,4.07c-.29,0-.22.46.06.45Z"/><path id="Path_72063" data-name="Path 72063" class="cls-1" d="M38.46,69.16a37.94,37.94,0,0,0,2.88-5.46.21.21,0,0,0-.13-.27.21.21,0,0,0-.25.1c-.94,1.82-1.88,3.62-2.9,5.4C37.94,69.15,38.32,69.38,38.46,69.16Z"/><path id="Path_72064" data-name="Path 72064" class="cls-1" d="M35.2,48.74c3.28-3.72,6.69-7.35,11.42-9.16,3.41-1.31,7-2,9.81-4.48.27-.23,0-.67-.34-.44-3.72,2.89-8.38,3.28-12.38,5.59-3.55,2-6.2,5.16-8.81,8.26-.15.19.15.41.3.23Z"/><path id="Path_72065" data-name="Path 72065" class="cls-1" d="M42.31,43.55A68.39,68.39,0,0,1,50.05,40c.22-.09.13-.47-.1-.41a30.17,30.17,0,0,0-7.86,3.57c-.21.13,0,.51.22.38Z"/><path id="Path_72066" data-name="Path 72066" class="cls-1" d="M64.32,25.47c2.68-4.53,1.51-10.14,3.31-15a.24.24,0,0,0-.14-.31.25.25,0,0,0-.3.12c-2.41,4.66-.9,10.23-3.26,15C63.82,25.47,64.19,25.7,64.32,25.47Z"/><path id="Path_72067" data-name="Path 72067" class="cls-1" d="M67.8,16.6a19.94,19.94,0,0,1,.56-2.34.21.21,0,0,0-.12-.29.22.22,0,0,0-.29.11,4.88,4.88,0,0,0-.56,2.52c0,.24.37.21.41,0Z"/><path id="Path_72068" data-name="Path 72068" class="cls-1" d="M10.57,62.35a21.72,21.72,0,0,0,7.3-1.51c.24-.11.15-.52-.12-.46a46,46,0,0,1-7.23,1.52c-.29,0-.24.46.06.45Z"/><path id="Path_72069" data-name="Path 72069" class="cls-1" d="M13.27,69.27c5.28-.26,11.3-2.19,15.27-5.78a.25.25,0,0,0,0-.35.25.25,0,0,0-.33,0c-4.87,3-9.28,5-15,5.68-.33,0-.26.52.06.5Z"/><path id="Path_72070" data-name="Path 72070" class="cls-1" d="M30.14,62.12c.64-.49,1.28-1,1.87-1.52a.22.22,0,0,0,0-.32.23.23,0,0,0-.29,0c-.67.46-1.29,1-1.92,1.46-.26.22.05.63.32.42Z"/><path id="Path_72071" data-name="Path 72071" class="cls-1" d="M19.93,70.67a36.66,36.66,0,0,0,9.34-5.09c.2-.16,0-.55-.25-.42-3.11,1.67-6.05,3.56-9.28,5a.23.23,0,0,0-.13.32.25.25,0,0,0,.32.14Z"/><path id="Path_72072" data-name="Path 72072" class="cls-1" d="M39.41,54.58a59.75,59.75,0,0,1,10.56-8c.21-.13,0-.48-.22-.37a35.7,35.7,0,0,0-10.7,8c-.2.21.14.57.36.36Z"/><path id="Path_72073" data-name="Path 72073" class="cls-1" d="M46.2,50.6c.53-.36,1-.74,1.55-1.13a.2.2,0,0,0,0-.31.22.22,0,0,0-.29,0c-.53.36-1,.74-1.56,1.12a.23.23,0,0,0,.28.36Z"/><path id="Path_72074" data-name="Path 72074" class="cls-1" d="M57.26,42.66A20.44,20.44,0,0,0,68.07,36c.16-.19-.12-.49-.31-.31a25.85,25.85,0,0,1-10.6,6.56c-.21.06-.11.43.1.37Z"/><path id="Path_72075" data-name="Path 72075" class="cls-1" d="M64.22,41a7.56,7.56,0,0,0,2.55-1.86c.17-.2-.13-.5-.32-.33A11.41,11.41,0,0,1,64,40.46c-.31.15-.11.64.2.49Z"/><path id="Path_72076" data-name="Path 72076" class="cls-1" d="M72.19,28c2.81-3.9,3.51-8.73,3.43-13.45,0-.28-.47-.28-.49,0-.3,4.67-.64,9.14-3.34,13.14C71.61,27.94,72,28.25,72.19,28Z"/><path id="Path_72077" data-name="Path 72077" class="cls-1" d="M76.44,21.28a8.5,8.5,0,0,0,.61-4.37c0-.27-.42-.2-.41.06A11.08,11.08,0,0,1,76,21.08a.25.25,0,0,0,.14.33.25.25,0,0,0,.32-.13Z"/><path id="Path_72078" data-name="Path 72078" class="cls-1" d="M60.2,49.59a18.21,18.21,0,0,0,7.73-1.15c.24-.1.14-.53-.13-.47a39,39,0,0,1-7.6,1.13c-.27,0-.28.47,0,.49Z"/><path id="Path_72079" data-name="Path 72079" class="cls-1" d="M70.05,49.54a12.3,12.3,0,0,0,9.19-7.23.26.26,0,0,0-.15-.35.28.28,0,0,0-.35.14c-2,3.46-4.77,6-8.75,7-.26.07-.22.49.06.43Z"/><path id="Path_72080" data-name="Path 72080" class="cls-1" d="M72.13,44.53c5.12-3.38,7.5-9.13,8.42-15,.06-.32-.42-.37-.5-.06-1.43,5.76-3,11.18-8.19,14.72-.24.16,0,.51.27.36Z"/></svg>