<svg id="Layer_1" data-name="Layer 1" xmlns="http://www.w3.org/2000/svg" viewBox="0 0 9.59 10.52"><defs><style>.cls-1{fill:#0168ff;fill-rule:evenodd;}</style></defs><path id="Path_72081" data-name="Path 72081" class="cls-1" d="M1.83,1.74A3.51,3.51,0,0,0,.52,6.59c.17.23.49,0,.41-.24C.39,4.72.52,3.12,2.07,2.05c.21-.14,0-.44-.24-.31Z"/><path id="Path_72082" data-name="Path 72082" class="cls-1" d="M2.21,2.6c.29-.42.8-1.3,1.25-1.5l2.26,0a1.32,1.32,0,0,0,.36.51c.43.15.17.29.77.27a.28.28,0,0,0,.23-.31.29.29,0,0,0-.16-.21C5.83,1,5.9-.19,4.39,0c-1.25.18-2,1.26-2.59,2.25-.17.28.22.6.41.32Z"/><path id="Path_72083" data-name="Path 72083" class="cls-1" d="M6.22,2.48C8.77,2,9.46,4.79,8,6.38c-.3.32.22.86.55.55,2.16-2.07.72-6-2.49-5a.29.29,0,0,0-.14.38A.28.28,0,0,0,6.22,2.48Z"/><path id="Path_72084" data-name="Path 72084" class="cls-1" d="M.45,6.89A2.14,2.14,0,0,0,3,8.14c.26-.07.17-.45-.06-.49A2.64,2.64,0,0,1,1,6.57c-.21-.29-.73,0-.55.32Z"/><path id="Path_72085" data-name="Path 72085" class="cls-1" d="M1.26,8A2.5,2.5,0,0,0,5.88,9.32C6,9.08,5.67,8.85,5.47,9,4,10.14,2.29,9.93,1.83,7.92a.29.29,0,0,0-.33-.23A.28.28,0,0,0,1.26,8Z"/><path id="Path_72086" data-name="Path 72086" class="cls-1" d="M5.4,9.7A2.85,2.85,0,0,0,9.14,6.19c-.1-.33-.58-.16-.56.15a2.78,2.78,0,0,1-3,2.83C5.24,9.11,5.09,9.61,5.4,9.7Z"/><path id="Path_72087" data-name="Path 72087" class="cls-1" d="M2.71,6.07a1.87,1.87,0,0,0,3.18.54c.15-.19-.07-.52-.3-.39a1.74,1.74,0,0,1-2.36-.46.31.31,0,0,0-.52.31Z"/><path id="Path_72088" data-name="Path 72088" class="cls-1" d="M7,4.68a3.48,3.48,0,0,0,.09,1.2c0,.29.55.32.55,0A4.58,4.58,0,0,0,7.55,4.6c0-.37-.57-.28-.56.08Z"/></svg>