<svg id="Group_41293" data-name="Group 41293" xmlns="http://www.w3.org/2000/svg" width="178.412" height="178.412" viewBox="0 0 178.412 178.412">
  <g id="Group_40067" data-name="Group 40067" transform="translate(0)">
    <circle id="Ellipse_1520" data-name="Ellipse 1520" cx="89.206" cy="89.206" r="89.206" fill="#fff" opacity="0.12"/>
    <circle id="Ellipse_1521" data-name="Ellipse 1521" cx="80.374" cy="80.374" r="80.374" transform="translate(8.832 8.832)" fill="#fff" opacity="0.384"/>
    <circle id="Ellipse_1522" data-name="Ellipse 1522" cx="76.841" cy="76.841" r="76.841" transform="translate(12.365 12.365)" fill="#012241"/>
    <g id="Group_40054" data-name="Group 40054" transform="translate(12.365 12.365)" opacity="0.8">
      <g id="Group_39798" data-name="Group 39798" transform="translate(0)">
        <g id="Group_39797" data-name="Group 39797">
          <path id="Path_59842" data-name="Path 59842" d="M516.688,552.135a76.841,76.841,0,1,1,76.841-76.841A76.929,76.929,0,0,1,516.688,552.135Zm0-145.477a68.635,68.635,0,1,0,68.637,68.637A68.715,68.715,0,0,0,516.688,406.658Z" transform="translate(-439.847 -398.454)" fill="#0168ff"/>
        </g>
      </g>
      <g id="Group_39799" data-name="Group 39799" transform="translate(65.464 39.64)">
        <path id="Path_59843" data-name="Path 59843" d="M501.11,477.336c-1.5-5.46-5.083-9.934-5.083-15.823,0-6.192-3.008-13.76-6.483-19-1.163-1.754-11.394-3.244-4.93-9.211.657-.606.354-2.258.183-2.879-2.1-7.64-16.279-15.122-22.741-18.708a.258.258,0,0,0-.261.444c6.216,4.312,21.919,12.327,19.766,22.378-.519,2.423-1.05,3.074,1.029,5.152,4.033,4.033,6.039,8.126,8.708,12.483,3.181,5.194,9.272,31.686,4.042,34.687-7.394,4.24,6,12,5.979,3.43C501.311,486.257,502.18,481.253,501.11,477.336Z" transform="translate(-461.679 -411.674)" fill="#0168ff"/>
      </g>
      <g id="Group_39800" data-name="Group 39800" transform="translate(57.829 47.259)">
        <path id="Path_59844" data-name="Path 59844" d="M492.309,445.2c-6.852-13.1-20.891-22.921-32.948-30.957-.174-.117-.318.156-.162.279,10.954,8.417,32.987,21.991,33.443,37.767.1,3.37.54,3.415,2.21,5.9,5.113,7.6,5.5,16.429,7.1,25.074.045.243.411.138.372-.1C500.291,471,498.082,456.235,492.309,445.2Z" transform="translate(-459.133 -414.215)" fill="#0168ff"/>
      </g>
      <g id="Group_39801" data-name="Group 39801" transform="translate(71.062 71.524)">
        <path id="Path_59845" data-name="Path 59845" d="M476.845,437.111c-3.517-5.748-7.023-11.613-13.155-14.792-.108-.057-.207.108-.1.165,7.643,4.036,11.943,12.957,16.258,20.12a207.31,207.31,0,0,1,11.424,22.273c.1.225.438.03.333-.195A272.37,272.37,0,0,0,476.845,437.111Z" transform="translate(-463.546 -422.307)" fill="#0168ff"/>
      </g>
      <g id="Group_39802" data-name="Group 39802" transform="translate(79.93 93.668)">
        <path id="Path_59846" data-name="Path 59846" d="M484.788,451.27c-5.586-7.517-12.156-14.441-18.231-21.569-.027-.03-.072.015-.045.045,5.88,7.275,11.469,15.008,17.823,21.871C484.554,451.855,484.986,451.534,484.788,451.27Z" transform="translate(-466.503 -429.692)" fill="#0168ff"/>
      </g>
      <g id="Group_39803" data-name="Group 39803" transform="translate(115.82 60.084)">
        <path id="Path_59847" data-name="Path 59847" d="M483.4,424.055a23.158,23.158,0,0,1-.642-2.657c-.147-.965-.771-.954-.6-2.006.12-.75-.873-1.286-1.289-.546-.468.831-1.274,1.271-1.745,2.078a7.478,7.478,0,0,0-.639,3.8C478.666,428.421,484.363,427.533,483.4,424.055Z" transform="translate(-478.473 -418.492)" fill="#0168ff"/>
      </g>
      <g id="Group_39804" data-name="Group 39804" transform="translate(116.983 67.941)">
        <path id="Path_59848" data-name="Path 59848" d="M481.312,421.541c-.063-.57-.966-.573-.9,0a95.16,95.16,0,0,1-1.553,32.153.064.064,0,0,0,.123.033A86.019,86.019,0,0,0,481.312,421.541Z" transform="translate(-478.86 -421.112)" fill="#0168ff"/>
      </g>
      <g id="Group_39805" data-name="Group 39805" transform="translate(117.916 65.244)">
        <path id="Path_59849" data-name="Path 59849" d="M479.893,420.4c-.183-.4-.842-.114-.7.3,4.114,11.985,6.849,23.338,6.378,36.148-.009.207.309.2.318,0C486.576,444.6,485.122,431.623,479.893,420.4Z" transform="translate(-479.171 -420.213)" fill="#0168ff"/>
      </g>
      <g id="Group_39806" data-name="Group 39806" transform="translate(118.489 63.886)">
        <path id="Path_59850" data-name="Path 59850" d="M480.084,419.881c-.261-.306-.852.021-.7.408,1.826,4.51,4.633,8.621,6.648,13.086a104.788,104.788,0,0,1,5.916,17.6c.12.483.843.279.741-.2C490.525,440.646,486.971,427.911,480.084,419.881Z" transform="translate(-479.362 -419.76)" fill="#0168ff"/>
      </g>
      <g id="Group_39807" data-name="Group 39807" transform="translate(118.706 64.336)">
        <path id="Path_59851" data-name="Path 59851" d="M486.257,424.211c-1.691-2.342-3.643-4.348-6.666-4.3a.161.161,0,0,0-.042.315c3.943.9,6.072,4.237,8.339,7.275q3.6,4.817,7.2,9.637c.1.129.318.006.222-.129C492.3,432.741,489.319,428.444,486.257,424.211Z" transform="translate(-479.435 -419.91)" fill="#0168ff"/>
      </g>
      <g id="Group_39808" data-name="Group 39808" transform="translate(120.822 62.257)">
        <path id="Path_59852" data-name="Path 59852" d="M490,423.017c-3.086-1.286-6.216-2.932-9.451-3.79-.342-.09-.579.42-.246.585,3.007,1.514,6.447,2.366,9.628,3.454C490.091,423.32,490.145,423.08,490,423.017Z" transform="translate(-480.141 -419.217)" fill="#0168ff"/>
      </g>
      <g id="Group_39809" data-name="Group 39809" transform="translate(112.907 66.92)">
        <path id="Path_59853" data-name="Path 59853" d="M480.529,420.866a84.606,84.606,0,0,1-3.026,25.317.064.064,0,0,0,.123.033,84.554,84.554,0,0,0,3.095-25.35A.1.1,0,0,0,480.529,420.866Z" transform="translate(-477.501 -420.771)" fill="#0168ff"/>
      </g>
      <g id="Group_39810" data-name="Group 39810" transform="translate(96.116 59.809)">
        <path id="Path_59854" data-name="Path 59854" d="M472.351,418.55c-.108-.264-.543-.15-.432.12,7.349,17.9,14.3,32.66,9.694,52.5a.288.288,0,0,0,.555.156C488.345,452.5,479.5,435.71,472.351,418.55Z" transform="translate(-471.901 -418.4)" fill="#0168ff"/>
      </g>
      <g id="Group_39811" data-name="Group 39811" transform="translate(102.803 99.07)">
        <path id="Path_59855" data-name="Path 59855" d="M482.137,431.585c-.558,4.33-1.229,8.579-3.08,12.576-1.313,2.837-4.192,4.744-4.921,7.838a.192.192,0,0,0,.351.147c1.751-3.04,4.456-5.586,5.712-8.909a41.241,41.241,0,0,0,2.129-11.652C482.338,431.46,482.152,431.466,482.137,431.585Z" transform="translate(-474.131 -431.493)" fill="#0168ff"/>
      </g>
      <g id="Group_39815" data-name="Group 39815" transform="translate(102.596 107.029)">
        <g id="Group_39812" data-name="Group 39812" transform="translate(11.238)">
          <path id="Path_59856" data-name="Path 59856" d="M478.3,434.293a11.3,11.3,0,0,1-.489,1.841c.276-.564.546-1.13.864-1.682C478.832,434.176,478.344,434.014,478.3,434.293Z" transform="translate(-477.81 -434.148)" fill="#0168ff"/>
        </g>
        <g id="Group_39813" data-name="Group 39813" transform="translate(0 4.892)">
          <path id="Path_59857" data-name="Path 59857" d="M474.13,445.833c-.171.165.006.531.249.426,2.942-1.235,5.1-3.61,7.029-6.084a21.759,21.759,0,0,0,2.537-4.4C481.5,439.728,477.282,442.79,474.13,445.833Z" transform="translate(-474.062 -435.779)" fill="#0168ff"/>
        </g>
        <g id="Group_39814" data-name="Group 39814" transform="translate(9.882 1.986)">
          <path id="Path_59858" data-name="Path 59858" d="M477.358,437.716a13.637,13.637,0,0,0,1.355-2.905C478.246,435.776,477.8,436.75,477.358,437.716Z" transform="translate(-477.358 -434.81)" fill="#0168ff"/>
        </g>
      </g>
      <g id="Group_39816" data-name="Group 39816" transform="translate(121.029 111.721)">
        <path id="Path_59859" data-name="Path 59859" d="M481.566,435.715c-1.145-.066-1.952,1.376-.789,2a.389.389,0,0,0,.579-.333.775.775,0,0,1,.321-.846A.419.419,0,0,0,481.566,435.715Z" transform="translate(-480.21 -435.712)" fill="#0168ff"/>
      </g>
      <g id="Group_39817" data-name="Group 39817" transform="translate(90.013 31.398)">
        <path id="Path_59860" data-name="Path 59860" d="M471.135,409.009c-.615-.285-1.469.186-1.226.941.54,1.667,1.652,3.535,3.463,3.919a.907.907,0,0,0,1.137-.864C474.34,411.129,472.781,409.78,471.135,409.009Z" transform="translate(-469.866 -408.925)" fill="#0168ff"/>
      </g>
      <g id="Group_39818" data-name="Group 39818" transform="translate(112.02 63.219)">
        <path id="Path_59861" data-name="Path 59861" d="M480.308,419.674c-2.732,4.942-3.379,11.086-3.008,16.639a.031.031,0,1,0,.063,0c-.144-5.961,1.415-10.93,3.472-16.417C480.953,419.584,480.464,419.393,480.308,419.674Z" transform="translate(-477.205 -419.537)" fill="#0168ff"/>
      </g>
      <g id="Group_39819" data-name="Group 39819" transform="translate(107.905 58.834)">
        <path id="Path_59862" data-name="Path 59862" d="M480.862,418.249a17.892,17.892,0,0,0-2.444,4.489c-.87,1.94-1.307,4.477-2.549,6.183-.165.231.282.462.375.159.588-1.9,2.4-3.886,3.373-5.64a18.017,18.017,0,0,0,2.156-4.66C481.884,418.285,481.24,417.808,480.862,418.249Z" transform="translate(-475.833 -418.075)" fill="#0168ff"/>
      </g>
      <g id="Group_39823" data-name="Group 39823" transform="translate(102.276 53.264)">
        <g id="Group_39820" data-name="Group 39820">
          <path id="Path_59863" data-name="Path 59863" d="M474.1,416.621c.519.2,1.019.456,1.52.708-.447-.342-.906-.678-1.319-1.049C474.056,416.057,473.783,416.5,474.1,416.621Z" transform="translate(-473.956 -416.217)" fill="#0168ff"/>
        </g>
        <g id="Group_39821" data-name="Group 39821" transform="translate(7.404 4.988)">
          <path id="Path_59864" data-name="Path 59864" d="M483.81,423.746A55.8,55.8,0,0,0,478.038,419c-.519-.39-1.067-.756-1.613-1.118,2.462,2.021,4.8,4.246,7.158,6.09C483.741,424.1,483.96,423.9,483.81,423.746Z" transform="translate(-476.425 -417.881)" fill="#0168ff"/>
        </g>
        <g id="Group_39822" data-name="Group 39822" transform="translate(1.662 1.111)">
          <path id="Path_59865" data-name="Path 59865" d="M474.51,416.588c1.811,1.391,3.826,2.6,5.742,3.877A31.612,31.612,0,0,0,474.51,416.588Z" transform="translate(-474.51 -416.588)" fill="#0168ff"/>
        </g>
      </g>
      <g id="Group_39827" data-name="Group 39827" transform="translate(102.827 44.512)">
        <g id="Group_39824" data-name="Group 39824" transform="translate(5.19 4.392)">
          <path id="Path_59866" data-name="Path 59866" d="M488.647,428.484c-2.717-5.8-7.9-9.691-12.777-13.721,4.414,4.375,7.694,9.97,12.12,14.225A.419.419,0,0,0,488.647,428.484Z" transform="translate(-475.87 -414.763)" fill="#0168ff"/>
        </g>
        <g id="Group_39825" data-name="Group 39825" transform="translate(2.269 1.873)">
          <path id="Path_59867" data-name="Path 59867" d="M474.9,413.923q1.421,1.282,2.921,2.519A28.194,28.194,0,0,0,474.9,413.923Z" transform="translate(-474.896 -413.923)" fill="#0168ff"/>
        </g>
        <g id="Group_39826" data-name="Group 39826">
          <path id="Path_59868" data-name="Path 59868" d="M474.241,413.684a22.85,22.85,0,0,1,2.168,1.487c-.657-.594-1.307-1.187-1.919-1.811C474.28,413.15,473.98,413.531,474.241,413.684Z" transform="translate(-474.139 -413.298)" fill="#0168ff"/>
        </g>
      </g>
      <g id="Group_39828" data-name="Group 39828" transform="translate(105.068 36.015)">
        <path id="Path_59869" data-name="Path 59869" d="M475.269,410.531a.225.225,0,0,0-.318.318c8.105,8.408,12.243,17.622,17.179,27.967.165.342.663.09.588-.249C490.363,427.956,482.816,418.084,475.269,410.531Z" transform="translate(-474.887 -410.465)" fill="#0168ff"/>
      </g>
      <g id="Group_39829" data-name="Group 39829" transform="translate(111.711 32.051)">
        <path id="Path_59870" data-name="Path 59870" d="M477.489,409.245c-.114-.237-.5-.018-.354.207,6.8,10.507,8.429,22.363,12.177,33.961.1.3.588.258.567-.078C489.192,431.132,482.6,420,477.489,409.245Z" transform="translate(-477.102 -409.143)" fill="#0168ff"/>
      </g>
      <g id="Group_39830" data-name="Group 39830" transform="translate(122.402 40.977)">
        <path id="Path_59871" data-name="Path 59871" d="M480.732,412.142c-.012-.039-.075-.021-.063.018a62.816,62.816,0,0,1,2.66,19.835.1.1,0,0,0,.192,0A62.04,62.04,0,0,0,480.732,412.142Z" transform="translate(-480.668 -412.12)" fill="#0168ff"/>
      </g>
      <g id="Group_39831" data-name="Group 39831" transform="translate(118.756 55.36)">
        <path id="Path_59872" data-name="Path 59872" d="M491.285,416.931a17.886,17.886,0,0,1-10.162,8.861,9.938,9.938,0,0,0-.006-1.334c-.09-.786-1.358-1.136-1.511-.2a16.081,16.081,0,0,0-.153,2.768.845.845,0,0,0,1.061.807,18.758,18.758,0,0,0,10.828-10.87C491.357,416.922,491.3,416.9,491.285,416.931Z" transform="translate(-479.452 -416.916)" fill="#0168ff"/>
      </g>
      <g id="Group_39832" data-name="Group 39832" transform="translate(108.198 72.464)">
        <path id="Path_59873" data-name="Path 59873" d="M476.25,422.73c-.072-.192-.381-.111-.309.084a58.082,58.082,0,0,1,2.993,27.158c-.024.216.345.264.378.051A51.274,51.274,0,0,0,476.25,422.73Z" transform="translate(-475.931 -422.621)" fill="#0168ff"/>
      </g>
      <g id="Group_39833" data-name="Group 39833" transform="translate(100.553 57.688)">
        <path id="Path_59874" data-name="Path 59874" d="M475.843,424.681a12.535,12.535,0,0,1-1.331-6.549c.057-.507-.777-.612-.882-.12a7.832,7.832,0,0,0,1.559,7.172C475.531,425.565,476.02,425.082,475.843,424.681Z" transform="translate(-473.381 -417.693)" fill="#0168ff"/>
      </g>
      <g id="Group_39834" data-name="Group 39834" transform="translate(92.491 39.412)">
        <path id="Path_59875" data-name="Path 59875" d="M474.539,419.824c-1.346-2.594-1.883-5.556-3.3-8.084a.29.29,0,0,0-.537.144c-.246,4.867,3.493,12.177,7.448,14.969.147.1.273-.09.219-.219C477.351,424.243,475.735,422.129,474.539,419.824Z" transform="translate(-470.692 -411.598)" fill="#0168ff"/>
      </g>
      <g id="Group_39835" data-name="Group 39835" transform="translate(94.326 37.961)">
        <path id="Path_59876" data-name="Path 59876" d="M471.621,411.178c-.168-.189-.42.084-.273.273,1.685,2.156,3.547,4.189,5.328,6.264.108.129.285-.054.18-.18C475.124,415.411,473.45,413.22,471.621,411.178Z" transform="translate(-471.304 -411.114)" fill="#0168ff"/>
      </g>
      <g id="Group_39836" data-name="Group 39836" transform="translate(95.524 35.376)">
        <path id="Path_59877" data-name="Path 59877" d="M471.992,410.273a.193.193,0,0,0-.195.333,69.806,69.806,0,0,0,6.252,3.251.033.033,0,0,0,.033-.057A69.482,69.482,0,0,0,471.992,410.273Z" transform="translate(-471.704 -410.252)" fill="#0168ff"/>
      </g>
      <g id="Group_39837" data-name="Group 39837" transform="translate(95.432 32.083)">
        <path id="Path_59878" data-name="Path 59878" d="M471.856,409.272c-.288.039-.213.507.069.5a21.161,21.161,0,0,1,8.114,1.115c.066.024.114-.087.048-.117A14.494,14.494,0,0,0,471.856,409.272Z" transform="translate(-471.673 -409.154)" fill="#0168ff"/>
      </g>
      <g id="Group_39838" data-name="Group 39838" transform="translate(93.3 28.107)">
        <path id="Path_59879" data-name="Path 59879" d="M471.115,409.322c-.324.141-.075.576.222.525,4.621-.759,8.924-1.574,13.649-1.212.072.006.087-.111.018-.126C480.515,407.544,475.4,407.43,471.115,409.322Z" transform="translate(-470.962 -407.828)" fill="#0168ff"/>
      </g>
      <g id="Group_39839" data-name="Group 39839" transform="translate(91.622 22.453)">
        <path id="Path_59880" data-name="Path 59880" d="M481.945,405.975a32.437,32.437,0,0,1-3.859,1.478,21.935,21.935,0,0,0-3.115,1.676,14.325,14.325,0,0,0-4.54,4.5.194.194,0,0,0,.3.234,52.825,52.825,0,0,1,4.555-4.189c1.826-1.349,4.414-3.268,6.762-3.316C482.395,406.35,482.236,405.8,481.945,405.975Z" transform="translate(-470.403 -405.942)" fill="#0168ff"/>
      </g>
      <g id="Group_39843" data-name="Group 39843" transform="translate(89.866 18.976)">
        <g id="Group_39840" data-name="Group 39840" transform="translate(6.624 1.184)">
          <path id="Path_59881" data-name="Path 59881" d="M472.026,405.726c.234-.18.453-.363.687-.549A8.713,8.713,0,0,0,472.026,405.726Z" transform="translate(-472.026 -405.177)" fill="#0168ff"/>
        </g>
        <g id="Group_39841" data-name="Group 39841" transform="translate(7.311)">
          <path id="Path_59882" data-name="Path 59882" d="M473.421,404.85a7.02,7.02,0,0,1-1.166,1.115,5.623,5.623,0,0,1,1.367-.774C473.976,405.072,473.61,404.611,473.421,404.85Z" transform="translate(-472.255 -404.782)" fill="#0168ff"/>
        </g>
        <g id="Group_39842" data-name="Group 39842" transform="translate(0 1.732)">
          <path id="Path_59883" data-name="Path 59883" d="M473.086,408.754a15.724,15.724,0,0,0-3.263,5.862.226.226,0,0,0,.411.174c.969-1.754,1.643-3.589,2.747-5.28a20.923,20.923,0,0,1,3.46-4.15c-.216.168-.441.339-.636.507A22.94,22.94,0,0,0,473.086,408.754Z" transform="translate(-469.817 -405.36)" fill="#0168ff"/>
        </g>
      </g>
      <g id="Group_39844" data-name="Group 39844" transform="translate(89.164 16.337)">
        <path id="Path_59884" data-name="Path 59884" d="M472.012,403.949c-1.862,4.24-3.128,9.2-2.009,13.814a.226.226,0,0,0,.441-.06c.18-4.726.186-9.131,1.745-13.679C472.222,403.922,472.057,403.851,472.012,403.949Z" transform="translate(-469.583 -403.902)" fill="#0168ff"/>
      </g>
      <g id="Group_39848" data-name="Group 39848" transform="translate(83.22 18.27)">
        <g id="Group_39845" data-name="Group 39845" transform="translate(0.289 4.156)">
          <path id="Path_59885" data-name="Path 59885" d="M472.522,412.686a13.906,13.906,0,0,1-4.825-6.753,7.4,7.4,0,0,0,.552,2.279,10.7,10.7,0,0,0,4.111,4.75C472.537,413.076,472.687,412.8,472.522,412.686Z" transform="translate(-467.697 -405.933)" fill="#0168ff"/>
        </g>
        <g id="Group_39846" data-name="Group 39846">
          <path id="Path_59886" data-name="Path 59886" d="M467.6,404.793c.057.366.072.714.1,1.064a4.448,4.448,0,0,1,.279-1.016C468.136,404.5,467.545,404.418,467.6,404.793Z" transform="translate(-467.601 -404.547)" fill="#0168ff"/>
        </g>
        <g id="Group_39847" data-name="Group 39847" transform="translate(0.01 1.31)">
          <path id="Path_59887" data-name="Path 59887" d="M467.883,407.83c-.1-.936-.12-1.874-.189-2.846A6.136,6.136,0,0,0,467.883,407.83Z" transform="translate(-467.604 -404.984)" fill="#0168ff"/>
        </g>
      </g>
      <g id="Group_39849" data-name="Group 39849" transform="translate(74.868 22.647)">
        <path id="Path_59888" data-name="Path 59888" d="M478.977,413.552a42.03,42.03,0,0,1-13.943-7.511.129.129,0,0,0-.183.183,22.616,22.616,0,0,0,13.94,8.009A.353.353,0,0,0,478.977,413.552Z" transform="translate(-464.815 -406.007)" fill="#0168ff"/>
      </g>
      <g id="Group_39850" data-name="Group 39850" transform="translate(72.98 31.798)">
        <path id="Path_59889" data-name="Path 59889" d="M480.775,409.7c-5.394-.423-10.975.249-16.336-.636a.2.2,0,1,0-.057.4c5.5.507,10.819,1.748,16.393,1A.384.384,0,0,0,480.775,409.7Z" transform="translate(-464.186 -409.059)" fill="#0168ff"/>
      </g>
      <g id="Group_39851" data-name="Group 39851" transform="translate(81.984 31.283)">
        <path id="Path_59890" data-name="Path 59890" d="M474.678,408.954c-2.651,2.6-5.023,5.475-7.472,8.258-.054.063.03.15.09.09,2.6-2.636,5.3-5.205,7.7-8.03C475.179,409.056,474.888,408.75,474.678,408.954Z" transform="translate(-467.188 -408.887)" fill="#0168ff"/>
      </g>
      <g id="Group_39852" data-name="Group 39852" transform="translate(85.963 33.156)">
        <path id="Path_59891" data-name="Path 59891" d="M470.928,409.738c-1.367,4.645-1.631,9.664-2.411,14.429-.03.2.27.291.309.087.924-4.768,2.408-9.571,2.732-14.432C471.582,409.45,471.027,409.4,470.928,409.738Z" transform="translate(-468.515 -409.511)" fill="#0168ff"/>
      </g>
      <g id="Group_39853" data-name="Group 39853" transform="translate(92.327 38.52)">
        <path id="Path_59892" data-name="Path 59892" d="M472.339,411.734c.042-.522-.738-.588-.882-.12-1.538,5.067-.773,10.348,1.139,15.194a.16.16,0,0,0,.309-.084C471.758,421.684,471.946,416.832,472.339,411.734Z" transform="translate(-470.638 -411.3)" fill="#0168ff"/>
      </g>
      <g id="Group_39854" data-name="Group 39854" transform="translate(104.424 116.666)">
        <path id="Path_59893" data-name="Path 59893" d="M488.33,437.414c-4.186,3.454-8.021,6.1-13.5,7.059-.285.051-.162.48.12.432,4.966-.825,10.474-3.14,13.649-7.218A.193.193,0,0,0,488.33,437.414Z" transform="translate(-474.672 -437.362)" fill="#0168ff"/>
      </g>
      <g id="Group_39855" data-name="Group 39855" transform="translate(104.274 119.227)">
        <path id="Path_59894" data-name="Path 59894" d="M489.324,438.22c-4.75.639-9.568,1.631-14.363,1.409-.456-.021-.45.675,0,.7,5.044.336,9.673.495,14.483-1.233C489.888,438.943,489.855,438.151,489.324,438.22Z" transform="translate(-474.622 -438.216)" fill="#0168ff"/>
      </g>
      <g id="Group_39856" data-name="Group 39856" transform="translate(102.448 121.8)">
        <path id="Path_59895" data-name="Path 59895" d="M488.484,442.727c-5.034-.6-9.814-1.436-14.426-3.649a.031.031,0,0,0-.03.054c4.189,3.146,9.169,5.038,14.456,4.366A.386.386,0,0,0,488.484,442.727Z" transform="translate(-474.013 -439.074)" fill="#0168ff"/>
      </g>
      <g id="Group_39857" data-name="Group 39857" transform="translate(100.96 120.145)">
        <path id="Path_59896" data-name="Path 59896" d="M482.849,447.228c-1.538-1.079-3.044-2.159-4.525-3.322-1.568-1.229-3.892-3.256-4.4-5.235-.084-.33-.588-.039-.342.2a21.853,21.853,0,0,1,2.117,3.1,25.3,25.3,0,0,0,2.072,2.486,13.831,13.831,0,0,0,4.855,3.3C482.948,447.887,483.1,447.4,482.849,447.228Z" transform="translate(-473.517 -438.522)" fill="#0168ff"/>
      </g>
      <g id="Group_39858" data-name="Group 39858" transform="translate(75.091 120.839)">
        <path id="Path_59897" data-name="Path 59897" d="M488.876,438.89c-6.234,8.939-13.239,15.739-23.9,19.083a.127.127,0,0,0,.066.246c9.946-2.753,19.9-9.406,24.327-19.038A.288.288,0,0,0,488.876,438.89Z" transform="translate(-464.89 -438.753)" fill="#0168ff"/>
      </g>
      <g id="Group_39859" data-name="Group 39859" transform="translate(83.747 120.017)">
        <path id="Path_59898" data-name="Path 59898" d="M483.974,438.731c-.072-.375-.57-.294-.681,0-1.406,3.733-1.937,7.454-3.925,11.053a22.918,22.918,0,0,1-11.38,9.757c-.372.156-.219.771.171.618C475.854,457.181,485.728,447.981,483.974,438.731Z" transform="translate(-467.776 -438.479)" fill="#0168ff"/>
      </g>
      <g id="Group_39860" data-name="Group 39860" transform="translate(97.802 118.832)">
        <path id="Path_59899" data-name="Path 59899" d="M473.871,438.18a.192.192,0,0,0-.333.192c2.852,6.534,2.8,13.6-1.058,19.721-.069.108.093.195.165.1C477.008,452.348,477.832,444.444,473.871,438.18Z" transform="translate(-472.463 -438.084)" fill="#0168ff"/>
      </g>
      <g id="Group_39861" data-name="Group 39861" transform="translate(103.049 122.786)">
        <path id="Path_59900" data-name="Path 59900" d="M474.683,439.527a.257.257,0,0,0-.444.258,22.2,22.2,0,0,1,2.069,10.825.064.064,0,0,0,.126.018A13.509,13.509,0,0,0,474.683,439.527Z" transform="translate(-474.213 -439.403)" fill="#0168ff"/>
      </g>
      <g id="Group_39862" data-name="Group 39862" transform="translate(59.971 120.131)">
        <path id="Path_59901" data-name="Path 59901" d="M496.2,438.556c-11.08,7.208-22.717,12.813-36.151,13.646-.264.018-.264.432,0,.411,13.281-1.055,26.222-4.687,36.462-13.655C496.726,438.766,496.441,438.4,496.2,438.556Z" transform="translate(-459.847 -438.517)" fill="#0168ff"/>
      </g>
      <g id="Group_39863" data-name="Group 39863" transform="translate(50.444 119.583)">
        <path id="Path_59902" data-name="Path 59902" d="M509.594,438.339c-18.315,2.216-34.372,3.766-52.8,1.436-.147-.018-.168.213-.033.252,16.516,4.6,36.726,5.391,52.978-.618C510.272,439.212,510.245,438.258,509.594,438.339Z" transform="translate(-456.67 -438.334)" fill="#0168ff"/>
      </g>
      <g id="Group_39864" data-name="Group 39864" transform="translate(53.652 104.118)">
        <path id="Path_59903" data-name="Path 59903" d="M507.322,450.985c-18.447-1.022-35.047-5.7-49.416-17.784-.093-.078-.228.051-.135.138,13.344,12.39,31.08,20.183,49.551,18.159A.257.257,0,0,0,507.322,450.985Z" transform="translate(-457.74 -433.177)" fill="#0168ff"/>
      </g>
      <g id="Group_39865" data-name="Group 39865" transform="translate(57.667 94.561)">
        <path id="Path_59904" data-name="Path 59904" d="M501.359,453.907c-16.456-5.059-30.333-10.8-42.121-23.886-.084-.093-.216.045-.135.138,10.639,12.09,25.766,22.8,42.16,24.441C501.674,454.639,501.722,454.018,501.359,453.907Z" transform="translate(-459.079 -429.99)" fill="#0168ff"/>
      </g>
      <g id="Group_39866" data-name="Group 39866" transform="translate(66.78 87.893)">
        <path id="Path_59905" data-name="Path 59905" d="M492.836,456.945c-15.221-4.183-23.422-16.033-30.657-29.164-.021-.036-.075,0-.057.033,6.672,12.567,14.807,28.327,30.588,30.072C493.261,457.95,493.345,457.083,492.836,456.945Z" transform="translate(-462.118 -427.766)" fill="#0168ff"/>
      </g>
      <g id="Group_39867" data-name="Group 39867" transform="translate(76.167 77.519)">
        <path id="Path_59906" data-name="Path 59906" d="M483.149,447.041A287.789,287.789,0,0,0,465.3,424.318c-.024-.03-.072.006-.051.039,5.46,7.973,11.161,15.679,17.391,23.074C482.879,447.706,483.359,447.337,483.149,447.041Z" transform="translate(-465.248 -424.306)" fill="#0168ff"/>
      </g>
      <g id="Group_39868" data-name="Group 39868" transform="translate(107.844 103.086)">
        <path id="Path_59907" data-name="Path 59907" d="M492.288,432.974c-1.2,3.277-4.9,6.7-7.457,8.993a38.506,38.506,0,0,1-8.909,5.961.225.225,0,0,0,.171.411,32.8,32.8,0,0,0,9.55-5.556,26.913,26.913,0,0,0,4.009-4.39c1.274-1.634,1.814-3.6,3.01-5.259C492.828,432.905,492.4,432.677,492.288,432.974Z" transform="translate(-475.812 -432.833)" fill="#0168ff"/>
      </g>
      <g id="Group_39869" data-name="Group 39869" transform="translate(110.731 111.343)">
        <path id="Path_59908" data-name="Path 59908" d="M490.391,435.595a46.584,46.584,0,0,1-13.6,8.957c-.039.018-.006.072.033.057a46.7,46.7,0,0,0,13.61-8.969C490.466,435.613,490.421,435.568,490.391,435.595Z" transform="translate(-476.775 -435.586)" fill="#0168ff"/>
      </g>
      <g id="Group_39870" data-name="Group 39870" transform="translate(87.111 41.589)">
        <path id="Path_59909" data-name="Path 59909" d="M469.639,412.526c.039-.2-.27-.288-.309-.087a19.963,19.963,0,0,0,1.961,13.718c.081.144.294.015.222-.132A20.808,20.808,0,0,1,469.639,412.526Z" transform="translate(-468.898 -412.324)" fill="#0168ff"/>
      </g>
      <g id="Group_39871" data-name="Group 39871" transform="translate(111.266 22.458)">
        <path id="Path_59910" data-name="Path 59910" d="M477.21,406.031c-.057-.153-.3-.09-.249.069.846,2.531,1.64,5.077,2.621,7.559.072.186.369.117.309-.084C479.1,411.024,478.13,408.535,477.21,406.031Z" transform="translate(-476.954 -405.944)" fill="#0168ff"/>
      </g>
      <g id="Group_39872" data-name="Group 39872" transform="translate(115.507 22.234)">
        <path id="Path_59911" data-name="Path 59911" d="M478.785,405.98a.224.224,0,0,0-.387.225c1.6,2.915,2.135,5.847,3.095,8.957a.225.225,0,0,0,.441-.06C481.93,411.947,480.353,408.652,478.785,405.98Z" transform="translate(-478.368 -405.869)" fill="#0168ff"/>
      </g>
      <g id="Group_39873" data-name="Group 39873" transform="translate(24.97 50.374)">
        <path id="Path_59912" data-name="Path 59912" d="M453.451,415.3c-3.61-.564-5.706,4.153-5.2,7.077.462,2.693,4.5,1.91,4.588-.621a18.1,18.1,0,0,1,.138-2.7c.177-1,.822-1.793,1.034-2.765A.806.806,0,0,0,453.451,415.3Z" transform="translate(-448.174 -415.254)" fill="#0168ff"/>
      </g>
      <g id="Group_39874" data-name="Group 39874" transform="translate(24.666 40.091)">
        <path id="Path_59913" data-name="Path 59913" d="M449.632,412.138a.257.257,0,0,0-.495-.135c-1.211,3.4-1.64,7.154.072,10.453.183.351.633.084.585-.246C449.3,418.771,448.8,415.575,449.632,412.138Z" transform="translate(-448.073 -411.824)" fill="#0168ff"/>
      </g>
      <g id="Group_39875" data-name="Group 39875" transform="translate(21.557 40.872)">
        <path id="Path_59914" data-name="Path 59914" d="M447.545,412.239c.012-.213-.294-.2-.318,0-.537,4.066-.09,9.107,3.253,11.9a.29.29,0,0,0,.453-.351C449.278,419.894,447.344,416.644,447.545,412.239Z" transform="translate(-447.036 -412.085)" fill="#0168ff"/>
      </g>
      <g id="Group_39876" data-name="Group 39876" transform="translate(16.285 46.849)">
        <path id="Path_59915" data-name="Path 59915" d="M454.5,421.76c-1.259-1.122-2.777-1.928-4.129-2.936a19.677,19.677,0,0,1-4.618-4.63.258.258,0,0,0-.444.261c1.835,3.283,4.837,7.328,8.849,7.892C454.475,422.393,454.8,422.021,454.5,421.76Z" transform="translate(-445.278 -414.078)" fill="#0168ff"/>
      </g>
      <g id="Group_39877" data-name="Group 39877" transform="translate(13.34 51.109)">
        <path id="Path_59916" data-name="Path 59916" d="M457.04,420.048c-4.384-.894-8.624-1.922-12.363-4.507-.249-.168-.51.2-.312.4,3.331,3.439,7.811,5.67,12.675,4.843A.386.386,0,0,0,457.04,420.048Z" transform="translate(-444.296 -415.499)" fill="#0168ff"/>
      </g>
      <g id="Group_39878" data-name="Group 39878" transform="translate(14.799 55.884)">
        <path id="Path_59917" data-name="Path 59917" d="M453.12,417.154a9.429,9.429,0,0,1-8.09,3.91c-.33-.018-.33.5,0,.513a9.377,9.377,0,0,0,8.393-4.189C453.537,417.2,453.258,416.98,453.12,417.154Z" transform="translate(-444.782 -417.091)" fill="#0168ff"/>
      </g>
      <g id="Group_39879" data-name="Group 39879" transform="translate(17.548 55.812)">
        <path id="Path_59918" data-name="Path 59918" d="M451.879,417.2c-.918,1.748-1.673,3.568-2.6,5.31-.944,1.781-2.021,4.219-3.514,5.592-.216.2.159.507.321.249,1.19-1.9,2.9-3.361,4.039-5.346a18,18,0,0,0,2.222-5.607C452.4,417.124,452.019,416.926,451.879,417.2Z" transform="translate(-445.699 -417.067)" fill="#0168ff"/>
      </g>
      <g id="Group_39880" data-name="Group 39880" transform="translate(23.502 57.792)">
        <path id="Path_59919" data-name="Path 59919" d="M449.194,417.945c.027-.258-.375-.3-.441-.06-2.06,7.436-.924,15.487,1.562,22.672.042.114.222.066.186-.051C448.2,432.893,448.39,425.738,449.194,417.945Z" transform="translate(-447.685 -417.728)" fill="#0168ff"/>
      </g>
      <g id="Group_39881" data-name="Group 39881" transform="translate(25.28 54.511)">
        <path id="Path_59920" data-name="Path 59920" d="M448.683,416.819a.192.192,0,0,0-.384,0,41.408,41.408,0,0,0,3.445,17.059c.078.189.387.108.309-.084A53.377,53.377,0,0,1,448.683,416.819Z" transform="translate(-448.278 -416.633)" fill="#0168ff"/>
      </g>
      <g id="Group_39885" data-name="Group 39885" transform="translate(25.031 51.801)">
        <g id="Group_39882" data-name="Group 39882" transform="translate(10.151 24.5)">
          <path id="Path_59921" data-name="Path 59921" d="M457.925,434.626c-2.171-3.556-4.318-7.116-6.345-10.726A82.533,82.533,0,0,0,457.925,434.626Z" transform="translate(-451.58 -423.9)" fill="#0168ff"/>
        </g>
        <g id="Group_39883" data-name="Group 39883" transform="translate(16.496 35.226)">
          <path id="Path_59922" data-name="Path 59922" d="M453.7,427.477c.777,1.271,1.553,2.54,2.327,3.817.153.249.513-.015.324-.249C455.408,429.885,454.548,428.686,453.7,427.477Z" transform="translate(-453.696 -427.477)" fill="#0168ff"/>
        </g>
        <g id="Group_39884" data-name="Group 39884">
          <path id="Path_59923" data-name="Path 59923" d="M448.2,415.965c2.111,8.72,5.847,16.615,10.144,24.264-3.9-7.823-6.843-16.162-9.775-24.366A.191.191,0,0,0,448.2,415.965Z" transform="translate(-448.195 -415.729)" fill="#0168ff"/>
        </g>
      </g>
      <g id="Group_39886" data-name="Group 39886" transform="translate(24.86 55.363)">
        <path id="Path_59924" data-name="Path 59924" d="M471.59,440.218a127.259,127.259,0,0,1-23.119-23.239c-.135-.174-.429.054-.3.231a111.946,111.946,0,0,0,23.164,23.449C471.593,440.86,471.848,440.416,471.59,440.218Z" transform="translate(-448.138 -416.917)" fill="#0168ff"/>
      </g>
      <g id="Group_39890" data-name="Group 39890" transform="translate(25.809 55.081)">
        <g id="Group_39887" data-name="Group 39887" transform="translate(24.564 16.381)">
          <path id="Path_59925" data-name="Path 59925" d="M460.04,424.868c-1.152-.861-2.276-1.724-3.395-2.582a30.965,30.965,0,0,1,3.146,2.9C459.986,425.4,460.289,425.051,460.04,424.868Z" transform="translate(-456.646 -422.286)" fill="#0168ff"/>
        </g>
        <g id="Group_39888" data-name="Group 39888" transform="translate(21.778 14.279)">
          <path id="Path_59926" data-name="Path 59926" d="M455.717,421.585q1.4,1.039,2.786,2.1C457.609,422.94,456.676,422.248,455.717,421.585Z" transform="translate(-455.717 -421.585)" fill="#0168ff"/>
        </g>
        <g id="Group_39889" data-name="Group 39889">
          <path id="Path_59927" data-name="Path 59927" d="M448.934,416.937c-.192-.258-.609-.036-.441.261,2.078,3.709,5.664,5.487,9.427,7.206a79.648,79.648,0,0,1,12.312,6.7,64.719,64.719,0,0,0-7.622-5.014C457.579,423.345,452.532,421.716,448.934,416.937Z" transform="translate(-448.454 -416.823)" fill="#0168ff"/>
        </g>
      </g>
      <g id="Group_39891" data-name="Group 39891" transform="translate(23.108 52.285)">
        <path id="Path_59928" data-name="Path 59928" d="M447.789,415.9a.193.193,0,0,0-.1.372c10.921,3.385,21.682,6.987,32.261,11.343.033.015.057-.042.024-.057A187.032,187.032,0,0,0,447.789,415.9Z" transform="translate(-447.553 -415.891)" fill="#0168ff"/>
      </g>
      <g id="Group_39892" data-name="Group 39892" transform="translate(26.044 47.957)">
        <path id="Path_59929" data-name="Path 59929" d="M475.149,414.449c-8.993,1.658-18.183,3.826-26.429,7.9a.386.386,0,0,0,.3.7c8.726-2.969,17.188-6.279,26.183-8.411C475.323,414.605,475.269,414.428,475.149,414.449Z" transform="translate(-448.532 -414.448)" fill="#0168ff"/>
      </g>
      <g id="Group_39893" data-name="Group 39893" transform="translate(30.009 37.311)">
        <path id="Path_59930" data-name="Path 59930" d="M468.159,410.921a218.425,218.425,0,0,0-18.255,15.97.16.16,0,0,0,.225.228c5.988-5.448,11.9-10.93,18.168-16.063C468.392,410.978,468.254,410.843,468.159,410.921Z" transform="translate(-449.855 -410.897)" fill="#0168ff"/>
      </g>
      <g id="Group_39894" data-name="Group 39894" transform="translate(25.241 25.446)">
        <path id="Path_59931" data-name="Path 59931" d="M474.692,406.979c-11,6.7-20.888,16.03-26.405,27.82a.191.191,0,0,0,.33.192c7.25-10.906,15.242-20.387,26.333-27.569C475.226,407.243,474.974,406.808,474.692,406.979Z" transform="translate(-448.265 -406.94)" fill="#0168ff"/>
      </g>
      <g id="Group_39898" data-name="Group 39898" transform="translate(22.377 21.69)">
        <g id="Group_39895" data-name="Group 39895" transform="translate(19.726)">
          <path id="Path_59932" data-name="Path 59932" d="M456.1,405.752c-.753.783-1.478,1.565-2.213,2.348.81-.687,1.6-1.4,2.459-2.027C456.6,405.893,456.3,405.542,456.1,405.752Z" transform="translate(-453.888 -405.687)" fill="#0168ff"/>
        </g>
        <g id="Group_39896" data-name="Group 39896" transform="translate(8.22 2.413)">
          <path id="Path_59933" data-name="Path 59933" d="M450.051,420.558a110.98,110.98,0,0,1,11.505-14.066A53.672,53.672,0,0,0,450.051,420.558Z" transform="translate(-450.051 -406.492)" fill="#0168ff"/>
        </g>
        <g id="Group_39897" data-name="Group 39897" transform="translate(0 16.479)">
          <path id="Path_59934" data-name="Path 59934" d="M447.689,429.132a93.675,93.675,0,0,1,7.841-17.949,58.327,58.327,0,0,0-8.213,17.847A.193.193,0,0,0,447.689,429.132Z" transform="translate(-447.31 -411.183)" fill="#0168ff"/>
        </g>
      </g>
      <g id="Group_39902" data-name="Group 39902" transform="translate(22.958 13.457)">
        <g id="Group_39899" data-name="Group 39899" transform="translate(0 10.624)">
          <path id="Path_59935" data-name="Path 59935" d="M447.607,435.163a.192.192,0,0,0,.384,0c.978-11.886,6.93-21.491,15.431-28.678C454,413.391,446.53,422.206,447.607,435.163Z" transform="translate(-447.504 -406.485)" fill="#0168ff"/>
        </g>
        <g id="Group_39900" data-name="Group 39900" transform="translate(15.918 1.796)">
          <path id="Path_59936" data-name="Path 59936" d="M452.812,412.369a147.446,147.446,0,0,1,14.114-8.828A61.4,61.4,0,0,0,452.812,412.369Z" transform="translate(-452.812 -403.541)" fill="#0168ff"/>
        </g>
        <g id="Group_39901" data-name="Group 39901" transform="translate(30.032)">
          <path id="Path_59937" data-name="Path 59937" d="M460.608,402.972c-1.01.582-2.045,1.169-3.089,1.766q1.6-.733,3.244-1.391C461.045,403.236,460.862,402.828,460.608,402.972Z" transform="translate(-457.519 -402.942)" fill="#0168ff"/>
        </g>
      </g>
      <g id="Group_39903" data-name="Group 39903" transform="translate(22.92 38.725)">
        <path id="Path_59938" data-name="Path 59938" d="M448.067,411.616c.009-.333-.492-.327-.513,0a23.126,23.126,0,0,0,2.708,13.158c.159.276.654.087.528-.222A31.064,31.064,0,0,1,448.067,411.616Z" transform="translate(-447.491 -411.369)" fill="#0168ff"/>
      </g>
      <g id="Group_39904" data-name="Group 39904" transform="translate(50.284 84.509)">
        <path id="Path_59939" data-name="Path 59939" d="M461.218,430.136a46.773,46.773,0,0,0-4.165-3.448c-.261-.2-.6.243-.351.453a47.969,47.969,0,0,0,4.243,3.349C461.161,430.633,461.4,430.31,461.218,430.136Z" transform="translate(-456.616 -426.637)" fill="#0168ff"/>
      </g>
      <g id="Group_39905" data-name="Group 39905" transform="translate(53.767 78.427)">
        <path id="Path_59940" data-name="Path 59940" d="M458.159,424.678c-.2-.21-.516.1-.318.318,1.973,2.117,3.892,4.306,5.976,6.315a.192.192,0,0,0,.273-.27C462.213,428.834,460.15,426.78,458.159,424.678Z" transform="translate(-457.778 -424.609)" fill="#0168ff"/>
      </g>
      <g id="Group_39906" data-name="Group 39906" transform="translate(56.589 72.315)">
        <path id="Path_59941" data-name="Path 59941" d="M458.995,422.617c-.147-.144-.375.081-.228.228,2.726,2.744,5.421,5.52,8.2,8.2a.161.161,0,0,0,.228-.228C464.515,428.038,461.735,425.343,458.995,422.617Z" transform="translate(-458.719 -422.571)" fill="#0168ff"/>
      </g>
      <g id="Group_39907" data-name="Group 39907" transform="translate(57.79 68.193)">
        <path id="Path_59942" data-name="Path 59942" d="M474.56,435.667c-4.492-5.3-9.859-9.745-15-14.4a.257.257,0,0,0-.363.363c4.828,4.978,9.46,10.183,14.912,14.492A.321.321,0,0,0,474.56,435.667Z" transform="translate(-459.12 -421.196)" fill="#0168ff"/>
      </g>
      <g id="Group_39908" data-name="Group 39908" transform="translate(69.573 83.609)">
        <path id="Path_59943" data-name="Path 59943" d="M473.561,438.4a40.311,40.311,0,0,0-9.958-11.979c-.309-.267-.756.165-.453.453a82.4,82.4,0,0,1,9.8,11.883A.353.353,0,0,0,473.561,438.4Z" transform="translate(-463.049 -426.337)" fill="#0168ff"/>
      </g>
      <g id="Group_39909" data-name="Group 39909" transform="translate(76.095 81.842)">
        <path id="Path_59944" data-name="Path 59944" d="M465.778,425.847c-.231-.279-.714.09-.5.387a73.77,73.77,0,0,0,5.193,6.615c.195.216.567-.069.4-.312A73,73,0,0,0,465.778,425.847Z" transform="translate(-465.224 -425.748)" fill="#0168ff"/>
      </g>
      <g id="Group_39910" data-name="Group 39910" transform="translate(66.202 61.724)">
        <path id="Path_59945" data-name="Path 59945" d="M462.309,419.073a.257.257,0,0,0-.258.444,83.145,83.145,0,0,1,11.328,7.979c3.586,3,6.393,6.792,9.9,9.814.24.207.63-.054.453-.348C479.2,429.358,469.871,423.316,462.309,419.073Z" transform="translate(-461.925 -419.039)" fill="#0168ff"/>
      </g>
      <g id="Group_39911" data-name="Group 39911" transform="translate(60.659 62.531)">
        <path id="Path_59946" data-name="Path 59946" d="M460.558,419.4c-.246-.279-.648.129-.408.408,1.571,1.847,3.121,3.7,4.813,5.439.15.15.438-.057.3-.234C463.784,423.069,462.168,421.245,460.558,419.4Z" transform="translate(-460.076 -419.308)" fill="#0168ff"/>
      </g>
      <g id="Group_39912" data-name="Group 39912" transform="translate(48.192 53.692)">
        <path id="Path_59947" data-name="Path 59947" d="M465.958,420.579a22.476,22.476,0,0,0-9.6-4.21c-.441-.09-.633.57-.189.681a36.476,36.476,0,0,1,9.5,4.027C466,421.271,466.246,420.8,465.958,420.579Z" transform="translate(-455.919 -416.36)" fill="#0168ff"/>
      </g>
      <g id="Group_39913" data-name="Group 39913" transform="translate(54.277 52.299)">
        <path id="Path_59948" data-name="Path 59948" d="M466.806,419.232a66.328,66.328,0,0,0-8.357-3.307c-.51-.189-.708.606-.222.8a65.553,65.553,0,0,0,8.282,3.208A.387.387,0,0,0,466.806,419.232Z" transform="translate(-457.948 -415.895)" fill="#0168ff"/>
      </g>
      <g id="Group_39914" data-name="Group 39914" transform="translate(53.83 44.181)">
        <path id="Path_59949" data-name="Path 59949" d="M484.219,426.87c-6.8-8.438-16.2-10.987-26.171-13.673-.282-.075-.357.366-.054.4,9.784,1.217,18.252,7.9,25.728,13.769A.352.352,0,0,0,484.219,426.87Z" transform="translate(-457.799 -413.188)" fill="#0168ff"/>
      </g>
      <g id="Group_39915" data-name="Group 39915" transform="translate(41.416 43.849)">
        <path id="Path_59950" data-name="Path 59950" d="M461.494,413.079a16.536,16.536,0,0,0-7.793,2.966c-.1.069-.006.237.1.165a16.215,16.215,0,0,1,7.694-2.744C461.74,413.442,461.74,413.052,461.494,413.079Z" transform="translate(-453.659 -413.078)" fill="#0168ff"/>
      </g>
      <g id="Group_39916" data-name="Group 39916" transform="translate(52.183 36.881)">
        <path id="Path_59951" data-name="Path 59951" d="M466.732,411.013c-2.974-.5-6.024-.15-9.017-.015a.48.48,0,0,0,0,.96c2.993.135,6.042.483,9.017-.015A.486.486,0,0,0,466.732,411.013Z" transform="translate(-457.25 -410.754)" fill="#0168ff"/>
      </g>
      <g id="Group_39917" data-name="Group 39917" transform="translate(66.503 35.696)">
        <path id="Path_59952" data-name="Path 59952" d="M469.2,410.381a11.02,11.02,0,0,1-6.606.207c-.483-.147-.806.594-.348.822a7.058,7.058,0,0,0,7.3-.21C469.962,410.933,469.7,410.222,469.2,410.381Z" transform="translate(-462.025 -410.358)" fill="#0168ff"/>
      </g>
      <g id="Group_39918" data-name="Group 39918" transform="translate(77.715 40.007)">
        <path id="Path_59953" data-name="Path 59953" d="M467.952,411.808a10.078,10.078,0,0,0-2.063.846.257.257,0,0,0,.2.468,10,10,0,0,0,2.087-.786C468.471,412.192,468.264,411.715,467.952,411.808Z" transform="translate(-465.764 -411.796)" fill="#0168ff"/>
      </g>
      <g id="Group_39919" data-name="Group 39919" transform="translate(81.754 42.782)">
        <path id="Path_59954" data-name="Path 59954" d="M470.261,413.842a1.641,1.641,0,0,1-1.313-.645.984.984,0,1,0-1.361,1.358,2.418,2.418,0,0,0,2.795.225A.517.517,0,0,0,470.261,413.842Z" transform="translate(-467.111 -412.722)" fill="#0168ff"/>
      </g>
      <g id="Group_39920" data-name="Group 39920" transform="translate(90.904 60.639)">
        <path id="Path_59955" data-name="Path 59955" d="M473.638,424.036c-.792-1.637-2.756-3.055-2.357-5.082a.226.226,0,0,0-.411-.174c-1.658,2.189-.183,5.1,2.15,6.057C473.509,425.037,473.818,424.414,473.638,424.036Z" transform="translate(-470.163 -418.677)" fill="#0168ff"/>
      </g>
      <g id="Group_39921" data-name="Group 39921" transform="translate(101.953 83.175)">
        <path id="Path_59956" data-name="Path 59956" d="M477.192,431.184c-.969-1.58-1.85-3.163-2.678-4.822-.177-.354-.789-.1-.645.273.669,1.721,1.244,3.433,1.757,5.208a8.532,8.532,0,0,0,1.931,3.9.71.71,0,0,0,1.2-.5A8.446,8.446,0,0,0,477.192,431.184Z" transform="translate(-473.848 -426.192)" fill="#0168ff"/>
      </g>
      <g id="Group_39922" data-name="Group 39922" transform="translate(102.584 64.021)">
        <path id="Path_59957" data-name="Path 59957" d="M475.628,420.2c-.567-.912-2.009-.075-1.439.84a18.262,18.262,0,0,0,2.894,4.2.615.615,0,0,0,1.02-.594A17.977,17.977,0,0,0,475.628,420.2Z" transform="translate(-474.058 -419.805)" fill="#0168ff"/>
      </g>
      <g id="Group_39923" data-name="Group 39923" transform="translate(100.152 44.209)">
        <path id="Path_59958" data-name="Path 59958" d="M476.491,414.887a10.23,10.23,0,0,1-2.852-1.646c-.171-.126-.372.048-.384.222-.15,1.781,1.655,2.822,3.235,2.537C477.1,415.892,476.983,415.058,476.491,414.887Z" transform="translate(-473.247 -413.198)" fill="#0168ff"/>
      </g>
      <g id="Group_39924" data-name="Group 39924" transform="translate(48.847 29.076)">
        <path id="Path_59959" data-name="Path 59959" d="M461.933,408.164c-1.982.519-3.787,1.817-5.568,2.8-.516.285-.063,1.01.453.774,1.856-.852,3.952-1.538,5.55-2.825C462.737,408.619,462.338,408.059,461.933,408.164Z" transform="translate(-456.137 -408.151)" fill="#0168ff"/>
      </g>
      <g id="Group_39925" data-name="Group 39925" transform="translate(58.588 31.17)">
        <path id="Path_59960" data-name="Path 59960" d="M465.677,408.861a17.1,17.1,0,0,1-6.078.714c-.288-.021-.282.423,0,.45a13.822,13.822,0,0,0,6.213-.669C466.118,409.241,466,408.771,465.677,408.861Z" transform="translate(-459.386 -408.849)" fill="#0168ff"/>
      </g>
      <g id="Group_39926" data-name="Group 39926" transform="translate(62.664 26.315)">
        <path id="Path_59961" data-name="Path 59961" d="M472.025,407.968c-3.586-.759-7.382-.606-11.032-.738-.342-.012-.321.471,0,.513,3.592.453,7.292,1.214,10.921,1.044C472.367,408.765,472.505,408.07,472.025,407.968Z" transform="translate(-460.745 -407.23)" fill="#0168ff"/>
      </g>
      <g id="Group_39927" data-name="Group 39927" transform="translate(54.209 18.636)">
        <path id="Path_59962" data-name="Path 59962" d="M465.937,404.744a12.1,12.1,0,0,0-7.766,2.063.512.512,0,0,0,.516.885,18.733,18.733,0,0,1,7.361-2.129C466.557,405.493,466.353,404.8,465.937,404.744Z" transform="translate(-457.925 -404.669)" fill="#0168ff"/>
      </g>
      <g id="Group_39928" data-name="Group 39928" transform="translate(60.652 21.266)">
        <path id="Path_59963" data-name="Path 59963" d="M465.06,405.549q-2.433.463-4.87.924c-.2.039-.117.348.084.309q2.438-.463,4.873-.921C465.348,405.822,465.264,405.513,465.06,405.549Z" transform="translate(-460.074 -405.546)" fill="#0168ff"/>
      </g>
      <g id="Group_39929" data-name="Group 39929" transform="translate(68.847 15.356)">
        <path id="Path_59964" data-name="Path 59964" d="M471.467,406.2a66.283,66.283,0,0,0-8.345-2.609c-.324-.093-.444.384-.138.495a65.8,65.8,0,0,0,8.186,2.816C471.575,406.987,471.884,406.376,471.467,406.2Z" transform="translate(-462.807 -403.575)" fill="#0168ff"/>
      </g>
      <g id="Group_39930" data-name="Group 39930" transform="translate(76.872 11.949)">
        <path id="Path_59965" data-name="Path 59965" d="M471.177,405.225c-1.035-1.913-3.247-2.708-5.307-2.786-.369-.012-.549.555-.195.717,1.7.783,3.092,1.982,4.714,2.858A.581.581,0,0,0,471.177,405.225Z" transform="translate(-465.483 -402.439)" fill="#0168ff"/>
      </g>
      <g id="Group_39931" data-name="Group 39931" transform="translate(86.329 11.812)">
        <path id="Path_59966" data-name="Path 59966" d="M469.653,402.746c-.222-.612-1.184-.369-.99.273a18.455,18.455,0,0,0,1.472,4.192c.216.357.885.24.837-.225A18.471,18.471,0,0,0,469.653,402.746Z" transform="translate(-468.637 -402.393)" fill="#0168ff"/>
      </g>
      <g id="Group_39932" data-name="Group 39932" transform="translate(104.079 54.549)">
        <path id="Path_59967" data-name="Path 59967" d="M480.416,418.94a8.906,8.906,0,0,0-5.457-2.294.422.422,0,0,0-.294.714,8.712,8.712,0,0,0,5.065,2.759C480.362,420.235,481,419.444,480.416,418.94Z" transform="translate(-474.557 -416.646)" fill="#0168ff"/>
      </g>
      <g id="Group_39933" data-name="Group 39933" transform="translate(96.264 14.826)">
        <path id="Path_59968" data-name="Path 59968" d="M474.7,403.424l-2.711,2.09c-.1.072,0,.24.1.165q1.372-1.016,2.741-2.033C474.965,403.547,474.833,403.322,474.7,403.424Z" transform="translate(-471.951 -403.398)" fill="#0168ff"/>
      </g>
      <g id="Group_39934" data-name="Group 39934" transform="translate(101.487 16.174)">
        <path id="Path_59969" data-name="Path 59969" d="M477.391,403.893a10.143,10.143,0,0,0-3.664,3.37c-.138.222.171.441.354.273a42.263,42.263,0,0,1,3.6-3.146C477.973,404.175,477.721,403.7,477.391,403.893Z" transform="translate(-473.693 -403.848)" fill="#0168ff"/>
      </g>
      <g id="Group_39935" data-name="Group 39935" transform="translate(105.146 20.892)">
        <path id="Path_59970" data-name="Path 59970" d="M478.461,405.424a10.129,10.129,0,0,0-3.469.891c-.147.069-.072.3.081.3a10.124,10.124,0,0,0,3.448-.75C478.743,405.783,478.728,405.388,478.461,405.424Z" transform="translate(-474.913 -405.421)" fill="#0168ff"/>
      </g>
      <g id="Group_39936" data-name="Group 39936" transform="translate(106.382 26.378)">
        <path id="Path_59971" data-name="Path 59971" d="M478.338,407.314l-2.735-.063a.288.288,0,0,0,0,.576l2.735-.063A.225.225,0,0,0,478.338,407.314Z" transform="translate(-475.325 -407.251)" fill="#0168ff"/>
      </g>
      <g id="Group_39937" data-name="Group 39937" transform="translate(107.059 31.079)">
        <path id="Path_59972" data-name="Path 59972" d="M478,409.7l-1.979-.843a.319.319,0,1,0-.246.585l2.027.729C478.077,410.262,478.269,409.809,478,409.7Z" transform="translate(-475.55 -408.819)" fill="#0168ff"/>
      </g>
      <g id="Group_39938" data-name="Group 39938" transform="translate(104.728 34.988)">
        <path id="Path_59973" data-name="Path 59973" d="M476.382,411.162l-.546-.765a.571.571,0,1,0-.789.789l.765.546C476.148,411.971,476.622,411.5,476.382,411.162Z" transform="translate(-474.773 -410.122)" fill="#0168ff"/>
      </g>
      <g id="Group_39939" data-name="Group 39939" transform="translate(101.795 39.084)">
        <path id="Path_59974" data-name="Path 59974" d="M478.14,414.657a27.443,27.443,0,0,0-3.166-3c-.66-.573-1.622.417-.951.951a28.672,28.672,0,0,0,3.649,2.651A.388.388,0,0,0,478.14,414.657Z" transform="translate(-473.795 -411.488)" fill="#0168ff"/>
      </g>
      <g id="Group_39940" data-name="Group 39940" transform="translate(101.723 46.284)">
        <path id="Path_59975" data-name="Path 59975" d="M477.105,417.244a14.9,14.9,0,0,0-1.907-3.056c-.7-.873-1.91.36-1.223,1.223a14.453,14.453,0,0,0,2.426,2.378A.452.452,0,0,0,477.105,417.244Z" transform="translate(-473.771 -413.889)" fill="#0168ff"/>
      </g>
      <g id="Group_39941" data-name="Group 39941" transform="translate(97.078 53.987)">
        <path id="Path_59976" data-name="Path 59976" d="M473.517,416.817c-.417-.813-1.61-.1-1.217.714a17.393,17.393,0,0,0,2.381,4.021c.27.312.717-.024.642-.375A17.443,17.443,0,0,0,473.517,416.817Z" transform="translate(-472.222 -416.459)" fill="#0168ff"/>
      </g>
      <g id="Group_39942" data-name="Group 39942" transform="translate(122.437 30.146)">
        <path id="Path_59977" data-name="Path 59977" d="M481.335,408.629c-.246-.309-.747.027-.642.375a9.393,9.393,0,0,0,2.159,4.3.485.485,0,0,0,.8-.468A9.5,9.5,0,0,0,481.335,408.629Z" transform="translate(-480.679 -408.508)" fill="#0168ff"/>
      </g>
      <g id="Group_39943" data-name="Group 39943" transform="translate(128.337 33.811)">
        <path id="Path_59978" data-name="Path 59978" d="M483.247,409.887c-.156-.327-.7-.093-.585.249a13.681,13.681,0,0,1,.471,4.744.354.354,0,0,0,.693.093A6.471,6.471,0,0,0,483.247,409.887Z" transform="translate(-482.647 -409.73)" fill="#0168ff"/>
      </g>
      <g id="Group_39944" data-name="Group 39944" transform="translate(128.513 43.379)">
        <path id="Path_59979" data-name="Path 59979" d="M487.1,413.063a77.813,77.813,0,0,0-4.369,8.429c-.108.222.2.411.33.195a77.5,77.5,0,0,0,4.537-8.333A.288.288,0,0,0,487.1,413.063Z" transform="translate(-482.706 -412.921)" fill="#0168ff"/>
      </g>
      <g id="Group_39945" data-name="Group 39945" transform="translate(131.856 50.846)">
        <path id="Path_59980" data-name="Path 59980" d="M488.5,415.48a18.132,18.132,0,0,0-4.66,4.414c-.06.084.054.171.132.132A17.9,17.9,0,0,0,489,416.134C489.306,415.8,488.908,415.21,488.5,415.48Z" transform="translate(-483.82 -415.411)" fill="#0168ff"/>
      </g>
      <g id="Group_39946" data-name="Group 39946" transform="translate(133.917 57.694)">
        <path id="Path_59981" data-name="Path 59981" d="M491.319,417.72c-2.219.87-4.525,1.517-6.744,2.384a.1.1,0,0,0,0,.186,6.692,6.692,0,0,0,7.118-1.928C491.942,418.107,491.7,417.573,491.319,417.72Z" transform="translate(-484.507 -417.695)" fill="#0168ff"/>
      </g>
      <g id="Group_39947" data-name="Group 39947" transform="translate(132.376 64.82)">
        <path id="Path_59982" data-name="Path 59982" d="M489.8,420.721c-1.868-.66-3.646-.4-5.559-.648-.285-.039-.351.465-.066.5,1.91.261,3.553.984,5.529.837A.355.355,0,0,0,489.8,420.721Z" transform="translate(-483.994 -420.071)" fill="#0168ff"/>
      </g>
      <g id="Group_39948" data-name="Group 39948" transform="translate(130.918 68.897)">
        <path id="Path_59983" data-name="Path 59983" d="M492.2,424.169a41.219,41.219,0,0,0-8.309-2.726.321.321,0,0,0-.171.618,40.992,40.992,0,0,0,8.183,2.813C492.313,424.949,492.619,424.376,492.2,424.169Z" transform="translate(-483.507 -421.431)" fill="#0168ff"/>
      </g>
      <g id="Group_39949" data-name="Group 39949" transform="translate(135.269 74.984)">
        <path id="Path_59984" data-name="Path 59984" d="M491.581,428.088a29.933,29.933,0,0,0-6.381-4.606.161.161,0,0,0-.195.252,29.925,29.925,0,0,0,6.111,4.957A.385.385,0,0,0,491.581,428.088Z" transform="translate(-484.959 -423.461)" fill="#0168ff"/>
      </g>
      <g id="Group_39950" data-name="Group 39950" transform="translate(136.809 81.679)">
        <path id="Path_59985" data-name="Path 59985" d="M491.292,431.272a19.823,19.823,0,0,0-5.095-5.5c-.387-.3-.915.273-.657.657a19.868,19.868,0,0,0,5.181,5.409C491.07,432.088,491.5,431.614,491.292,431.272Z" transform="translate(-485.472 -425.694)" fill="#0168ff"/>
      </g>
      <g id="Group_39951" data-name="Group 39951" transform="translate(119.621 103.895)">
        <path id="Path_59986" data-name="Path 59986" d="M479.74,433.134v.684a.032.032,0,0,0,.063,0v-.684A.032.032,0,1,0,479.74,433.134Z" transform="translate(-479.74 -433.102)" fill="#0168ff"/>
      </g>
      <g id="Group_39952" data-name="Group 39952" transform="translate(127.687 101.137)">
        <path id="Path_59987" data-name="Path 59987" d="M482.607,432.232c-.057-.111-.222-.015-.165.1a12,12,0,0,1,.678,9.436c-.066.195.246.282.309.084A12.26,12.26,0,0,0,482.607,432.232Z" transform="translate(-482.43 -432.183)" fill="#0168ff"/>
      </g>
      <g id="Group_39953" data-name="Group 39953" transform="translate(133.12 99.555)">
        <path id="Path_59988" data-name="Path 59988" d="M484.722,431.781a.26.26,0,0,0-.48.129c.1,3.248.819,6.291.495,9.577-.036.357.579.441.63.084C485.822,438.426,486.116,434.729,484.722,431.781Z" transform="translate(-484.242 -431.655)" fill="#0168ff"/>
      </g>
      <g id="Group_39954" data-name="Group 39954" transform="translate(132.772 95.205)">
        <path id="Path_59989" data-name="Path 59989" d="M489.338,435.391c-.747-2.066-2.612-3.691-4.279-5.05a.547.547,0,0,0-.855.66c1.025,1.856,2.309,4.03,4.192,5.115C488.855,436.38,489.536,435.939,489.338,435.391Z" transform="translate(-484.126 -430.204)" fill="#0168ff"/>
      </g>
      <g id="Group_39955" data-name="Group 39955" transform="translate(133.749 88.685)">
        <path id="Path_59990" data-name="Path 59990" d="M489.382,431.985c-.971-1.265-2.225-2.264-3.175-3.544-.7-.938-2.237-.114-1.607.939.98,1.631,2.144,3.064,4.06,3.547C489.148,433.049,489.748,432.462,489.382,431.985Z" transform="translate(-484.452 -428.03)" fill="#0168ff"/>
      </g>
      <g id="Group_39956" data-name="Group 39956" transform="translate(123.058 115.342)">
        <path id="Path_59991" data-name="Path 59991" d="M485.048,436.968a11.891,11.891,0,0,0-3.637.27c-.813.153-.63,1.55.195,1.448a12.11,12.11,0,0,0,3.667-.882C485.729,437.607,485.435,437.007,485.048,436.968Z" transform="translate(-480.886 -436.92)" fill="#0168ff"/>
      </g>
      <g id="Group_39957" data-name="Group 39957" transform="translate(109.189 131.888)">
        <path id="Path_59992" data-name="Path 59992" d="M477.823,442.8c-.636-.825-1.973-.129-1.439.843a5.7,5.7,0,0,0,1.664,2.048.583.583,0,0,0,.965-.561A5.6,5.6,0,0,0,477.823,442.8Z" transform="translate(-476.261 -442.438)" fill="#0168ff"/>
      </g>
      <g id="Group_39958" data-name="Group 39958" transform="translate(112.871 127.802)">
        <path id="Path_59993" data-name="Path 59993" d="M482.7,443.455c-1.1-1.109-2.9-1.352-4.192-2.273-.543-.39-1.3.378-.921.921,1.008,1.448,2.876,3.3,4.8,2.531A.715.715,0,0,0,482.7,443.455Z" transform="translate(-477.489 -441.076)" fill="#0168ff"/>
      </g>
      <g id="Group_39959" data-name="Group 39959" transform="translate(117.365 123.424)">
        <path id="Path_59994" data-name="Path 59994" d="M484.134,440.832c-1.211-.468-2.5-.6-3.691-1.121-1.107-.489-2.072,1.035-.969,1.661,1.589.906,3.149,1.379,4.777.339A.486.486,0,0,0,484.134,440.832Z" transform="translate(-478.988 -439.615)" fill="#0168ff"/>
      </g>
      <g id="Group_39960" data-name="Group 39960" transform="translate(121.077 119.731)">
        <path id="Path_59995" data-name="Path 59995" d="M483.1,439.371a7.983,7.983,0,0,0-2.1-.948c-.78-.276-1.112.963-.339,1.235a7.839,7.839,0,0,0,2.207.549C483.355,440.241,483.436,439.6,483.1,439.371Z" transform="translate(-480.225 -438.384)" fill="#0168ff"/>
      </g>
      <g id="Group_39961" data-name="Group 39961" transform="translate(114.763 103.769)">
        <path id="Path_59996" data-name="Path 59996" d="M479.437,433.176q-.657,2.744-1.313,5.484a.1.1,0,0,0,.186.051l1.439-5.451A.162.162,0,0,0,479.437,433.176Z" transform="translate(-478.12 -433.061)" fill="#0168ff"/>
      </g>
      <g id="Group_39962" data-name="Group 39962" transform="translate(43.545 127.408)">
        <path id="Path_59997" data-name="Path 59997" d="M460.1,440.947c-1.922.2-3.445.93-5.4.138-.237-.1-.438.267-.249.429,1.574,1.346,4.489,2.21,6.015.309C460.7,441.517,460.594,440.9,460.1,440.947Z" transform="translate(-454.369 -440.944)" fill="#0168ff"/>
      </g>
      <g id="Group_39963" data-name="Group 39963" transform="translate(48.828 131.996)">
        <path id="Path_59998" data-name="Path 59998" d="M461.43,442.72a12.931,12.931,0,0,0-4.9-.015.417.417,0,0,0,0,.834,12.989,12.989,0,0,0,4.9-.015A.419.419,0,0,0,461.43,442.72Z" transform="translate(-456.131 -442.474)" fill="#0168ff"/>
      </g>
      <g id="Group_39964" data-name="Group 39964" transform="translate(54.942 135.229)">
        <path id="Path_59999" data-name="Path 59999" d="M462.875,443.8a8.162,8.162,0,0,0-4.384.156.451.451,0,0,0,0,.864,8.192,8.192,0,0,0,4.384.156A.614.614,0,0,0,462.875,443.8Z" transform="translate(-458.17 -443.552)" fill="#0168ff"/>
      </g>
      <g id="Group_39965" data-name="Group 39965" transform="translate(62.343 136.997)">
        <path id="Path_60000" data-name="Path 60000" d="M463.723,444.193a6.5,6.5,0,0,1-2.5.393c-.741-.045-.75.957-.162,1.2a2.546,2.546,0,0,0,3.25-.834A.484.484,0,0,0,463.723,444.193Z" transform="translate(-460.638 -444.142)" fill="#0168ff"/>
      </g>
      <g id="Group_39966" data-name="Group 39966" transform="translate(68.998 139.39)">
        <path id="Path_60001" data-name="Path 60001" d="M465.1,445.249a4.852,4.852,0,0,0-1.5-.306c-.99-.093-.99,1.634,0,1.538a4.761,4.761,0,0,0,1.5-.3A.487.487,0,0,0,465.1,445.249Z" transform="translate(-462.857 -444.94)" fill="#0168ff"/>
      </g>
      <g id="Group_39967" data-name="Group 39967" transform="translate(77.915 139.426)">
        <path id="Path_60002" data-name="Path 60002" d="M468.049,445.2a4.13,4.13,0,0,0-1.505-.243.738.738,0,0,0,0,1.475,4.128,4.128,0,0,0,1.505-.243A.517.517,0,0,0,468.049,445.2Z" transform="translate(-465.831 -444.952)" fill="#0168ff"/>
      </g>
      <g id="Group_39968" data-name="Group 39968" transform="translate(54.341 127.442)">
        <path id="Path_60003" data-name="Path 60003" d="M465.155,441.719a19.677,19.677,0,0,1-6.717-.744c-.483-.147-.663.57-.2.741a11.665,11.665,0,0,0,7,.57A.29.29,0,0,0,465.155,441.719Z" transform="translate(-457.969 -440.956)" fill="#0168ff"/>
      </g>
      <g id="Group_39969" data-name="Group 39969" transform="translate(36.276 120.449)">
        <path id="Path_60004" data-name="Path 60004" d="M460.173,440.386c-2.462-.7-4.912-1.256-7.424-1.748-.807-.159-1.151,1.076-.342,1.235,2.561.5,5.08.918,7.673,1.205C460.485,441.123,460.545,440.491,460.173,440.386Z" transform="translate(-451.945 -438.623)" fill="#0168ff"/>
      </g>
      <g id="Group_39970" data-name="Group 39970" transform="translate(40.026 109.943)">
        <path id="Path_60005" data-name="Path 60005" d="M463.239,439.778c-3.131-1.757-6.378-3.172-9.652-4.633-.3-.132-.558.285-.261.444,3.193,1.694,6.33,3.379,9.664,4.774C463.332,440.506,463.548,439.952,463.239,439.778Z" transform="translate(-453.195 -435.12)" fill="#0168ff"/>
      </g>
      <g id="Group_39971" data-name="Group 39971" transform="translate(46.108 107.404)">
        <path id="Path_60006" data-name="Path 60006" d="M474.331,444.964c-5.223-4.621-12.7-7.284-18.774-10.66a.224.224,0,0,0-.225.387c5.922,3.634,11.913,8.843,18.5,11.131A.516.516,0,0,0,474.331,444.964Z" transform="translate(-455.224 -434.273)" fill="#0168ff"/>
      </g>
      <g id="Group_39972" data-name="Group 39972" transform="translate(40.369 96.967)">
        <path id="Path_60007" data-name="Path 60007" d="M460.923,433.913a23.8,23.8,0,0,1-6.537-3.008c-.648-.465-1.481.612-.855,1.107a11.137,11.137,0,0,0,7.266,2.846A.483.483,0,0,0,460.923,433.913Z" transform="translate(-453.31 -430.792)" fill="#0168ff"/>
      </g>
      <g id="Group_39973" data-name="Group 39973" transform="translate(44.326 92.038)">
        <path id="Path_60008" data-name="Path 60008" d="M463.189,433.459a26.821,26.821,0,0,0-7.262-4.219.865.865,0,0,0-.873,1.493,26.849,26.849,0,0,0,7.511,3.8A.644.644,0,0,0,463.189,433.459Z" transform="translate(-454.629 -429.148)" fill="#0168ff"/>
      </g>
      <g id="Group_39974" data-name="Group 39974" transform="translate(60.238 90.353)">
        <path id="Path_60009" data-name="Path 60009" d="M461.576,428.631c-1.649-.411-2.348,2.159-.7,2.534a10.378,10.378,0,0,1,4.624,2.609.678.678,0,0,0,1.124-.657A6.56,6.56,0,0,0,461.576,428.631Z" transform="translate(-459.936 -428.586)" fill="#0168ff"/>
      </g>
      <g id="Group_39975" data-name="Group 39975" transform="translate(21.683 85.944)">
        <path id="Path_60010" data-name="Path 60010" d="M447.276,427.116a.206.206,0,0,0,0,.411A.206.206,0,0,0,447.276,427.116Z" transform="translate(-447.078 -427.116)" fill="#0168ff"/>
      </g>
      <g id="Group_39976" data-name="Group 39976" transform="translate(19.42 66.14)">
        <path id="Path_60011" data-name="Path 60011" d="M447.716,420.762a.2.2,0,1,0-.4-.054c-.408,8.09-1.934,15.919-.129,23.985a.29.29,0,0,0,.567-.078C447.365,436.744,445.9,428.573,447.716,420.762Z" transform="translate(-446.323 -420.511)" fill="#0168ff"/>
      </g>
      <g id="Group_39977" data-name="Group 39977" transform="translate(23.775 81.892)">
        <path id="Path_60012" data-name="Path 60012" d="M448.1,425.919a.161.161,0,0,0-.321,0c-.087,5.065.621,10.612,4.006,14.6a.321.321,0,0,0,.534-.312C450.793,435.379,448.664,431.025,448.1,425.919Z" transform="translate(-447.776 -425.765)" fill="#0168ff"/>
      </g>
      <g id="Group_39978" data-name="Group 39978" transform="translate(28.767 81.886)">
        <path id="Path_60013" data-name="Path 60013" d="M449.621,425.809c-.048-.1-.216-.027-.174.075,1.592,4.009,3.205,7.949,5.166,11.8.1.192.432.057.351-.147C453.406,433.5,451.549,429.671,449.621,425.809Z" transform="translate(-449.441 -425.763)" fill="#0168ff"/>
      </g>
      <g id="Group_39979" data-name="Group 39979" transform="translate(29.096 72.849)">
        <path id="Path_60014" data-name="Path 60014" d="M453.663,431.748a31.177,31.177,0,0,0-1.943-3.37,12,12,0,0,1-1.505-5.319.321.321,0,0,0-.642,0c-.156,3.19.423,7.547,3.3,9.481C453.412,432.9,453.864,432.225,453.663,431.748Z" transform="translate(-449.55 -422.749)" fill="#0168ff"/>
      </g>
      <g id="Group_39980" data-name="Group 39980" transform="translate(37.668 77.259)">
        <path id="Path_60015" data-name="Path 60015" d="M456.832,428.8a31.574,31.574,0,0,0-3.3-4.381c-.459-.561-1.448.2-1.007.777a31.806,31.806,0,0,0,3.505,4.225A.515.515,0,0,0,456.832,428.8Z" transform="translate(-452.409 -424.22)" fill="#0168ff"/>
      </g>
      <g id="Group_39981" data-name="Group 39981" transform="translate(43.81 61.792)">
        <path id="Path_60016" data-name="Path 60016" d="M461.26,423.894c-.978-1.871-3.094-3.169-4.678-4.522-1.188-1.017-2.918.7-1.721,1.721,1.655,1.418,3.322,3.361,5.421,4.072C461.044,425.423,461.59,424.524,461.26,423.894Z" transform="translate(-454.457 -419.061)" fill="#0168ff"/>
      </g>
      <g id="Group_39982" data-name="Group 39982" transform="translate(15.162 79.038)">
        <path id="Path_60017" data-name="Path 60017" d="M446.935,425.1a.226.226,0,0,0-.411-.174c-2.2,3.835-1.979,8.45-.423,12.48.057.153.291.1.246-.066C445.232,433.116,445.805,429.224,446.935,425.1Z" transform="translate(-444.903 -424.813)" fill="#0168ff"/>
      </g>
      <g id="Group_39983" data-name="Group 39983" transform="translate(12.654 72.666)">
        <path id="Path_60018" data-name="Path 60018" d="M447.524,422.758c-2.822,2.024-3.418,6.78-3.457,9.988,0,.285.453.36.5.069a25.814,25.814,0,0,1,1.277-4.627c.639-1.7,1.877-3.181,2.288-4.959C448.211,422.9,447.842,422.53,447.524,422.758Z" transform="translate(-444.067 -422.688)" fill="#0168ff"/>
      </g>
      <g id="Group_39984" data-name="Group 39984" transform="translate(11.238 65.819)">
        <path id="Path_60019" data-name="Path 60019" d="M446.522,420.493c-2.528,1.8-2.474,5.113-2.924,7.85-.048.282.384.4.432.12.447-2.7,2.642-4.756,3.292-7.352C447.431,420.682,446.933,420.2,446.522,420.493Z" transform="translate(-443.595 -420.404)" fill="#0168ff"/>
      </g>
      <g id="Group_39985" data-name="Group 39985" transform="translate(11.158 59.121)">
        <path id="Path_60020" data-name="Path 60020" d="M447.148,418.256a24.551,24.551,0,0,0-3.535,4.8c-.189.306.264.666.5.387a24.679,24.679,0,0,0,3.487-4.834A.292.292,0,0,0,447.148,418.256Z" transform="translate(-443.568 -418.171)" fill="#0168ff"/>
      </g>
      <g id="Group_39986" data-name="Group 39986" transform="translate(14.818 93.534)">
        <path id="Path_60021" data-name="Path 60021" d="M458.178,443.179c-5.478-3.278-10.255-7.655-13.089-13.451a.161.161,0,0,0-.294.123c2.1,6.468,6.549,11.808,13.062,14.09C458.313,444.1,458.574,443.416,458.178,443.179Z" transform="translate(-444.789 -429.647)" fill="#0168ff"/>
      </g>
      <g id="Group_39987" data-name="Group 39987" transform="translate(14.319 99.545)">
        <path id="Path_60022" data-name="Path 60022" d="M466.061,446.879c-8.465-3.268-15.763-7.577-21.077-15.14-.141-.2-.459-.024-.333.192,4.537,7.763,12.1,14.294,21.2,15.688A.385.385,0,0,0,466.061,446.879Z" transform="translate(-444.622 -431.652)" fill="#0168ff"/>
      </g>
      <g id="Group_39988" data-name="Group 39988" transform="translate(23.727 113.939)">
        <path id="Path_60023" data-name="Path 60023" d="M457.128,441.69c-1.5-.711-3.134-1.095-4.651-1.8a13.423,13.423,0,0,1-4.33-3.373.225.225,0,0,0-.354.27c1.868,2.894,5.328,6.192,9.059,5.916C457.344,442.671,457.659,441.942,457.128,441.69Z" transform="translate(-447.76 -436.452)" fill="#0168ff"/>
      </g>
      <g id="Group_39989" data-name="Group 39989" transform="translate(31.962 123.527)">
        <path id="Path_60024" data-name="Path 60024" d="M456.305,441.051c-1.682-.945-3.694-1.041-5.562-1.4a.193.193,0,0,0-.1.372c1.778.684,3.541,1.655,5.469,1.739A.385.385,0,0,0,456.305,441.051Z" transform="translate(-450.506 -439.65)" fill="#0168ff"/>
      </g>
      <g id="Group_39990" data-name="Group 39990" transform="translate(39.316 128.165)">
        <path id="Path_60025" data-name="Path 60025" d="M457.059,441.675a7.64,7.64,0,0,0-3.077-.477,1.058,1.058,0,0,0,0,2.114,7.586,7.586,0,0,0,3.077-.477A.675.675,0,0,0,457.059,441.675Z" transform="translate(-452.959 -441.197)" fill="#0168ff"/>
      </g>
      <g id="Group_39991" data-name="Group 39991" transform="translate(24.769 100.453)">
        <path id="Path_60026" data-name="Path 60026" d="M458.455,437.9a31.964,31.964,0,0,0-9.757-5.91c-.447-.189-.842.456-.39.663a99.23,99.23,0,0,1,9.838,5.649A.256.256,0,0,0,458.455,437.9Z" transform="translate(-448.107 -431.955)" fill="#0168ff"/>
      </g>
      <g id="Group_39992" data-name="Group 39992" transform="translate(28.431 96.184)">
        <path id="Path_60027" data-name="Path 60027" d="M458.167,436.556c-2.225-2.522-5.631-4.216-8.45-5.988-.243-.153-.531.21-.309.4,2.5,2.168,5.142,4.954,8.177,6.342A.483.483,0,0,0,458.167,436.556Z" transform="translate(-449.329 -430.531)" fill="#0168ff"/>
      </g>
      <g id="Group_39993" data-name="Group 39993" transform="translate(80.837 96.094)">
        <path id="Path_60028" data-name="Path 60028" d="M478.441,441.8c-3.562-3.733-6.954-7.883-10.912-11.193-.345-.288-.924.081-.654.507,2.528,3.991,5.859,7.544,8.819,11.224a53.955,53.955,0,0,1,5.337,7.224,4.749,4.749,0,0,0,3.373,2.756c1.109.387,1.982-.777,1.775-1.775C485.409,446.831,480.987,444.462,478.441,441.8Z" transform="translate(-466.806 -430.501)" fill="#0168ff"/>
      </g>
      <g id="Group_39994" data-name="Group 39994" transform="translate(91.175 31.541)">
        <path id="Path_60029" data-name="Path 60029" d="M472.717,416.251c-.168-2.138.4-4.216.057-6.36-.225-1.427-2.642-1.095-2.516.339a33.731,33.731,0,0,0,1.6,6.138,66.5,66.5,0,0,1,1.163,6.942c.024.144.264.111.252-.033Z" transform="translate(-470.253 -408.973)" fill="#0168ff"/>
      </g>
      <g id="Group_39995" data-name="Group 39995" transform="translate(88.037 28.638)">
        <path id="Path_60030" data-name="Path 60030" d="M470.214,408.4c-.983,1.748-.708,3.628-.675,5.6.045,2.8-.372,5.619-.33,8.435a.1.1,0,0,0,.192,0c.129-2.447.369-4.873.726-7.3.327-2.207,1.763-4.093,1.58-6.336A.807.807,0,0,0,470.214,408.4Z" transform="translate(-469.207 -408.005)" fill="#0168ff"/>
      </g>
      <g id="Group_39996" data-name="Group 39996" transform="translate(88.582 30.12)">
        <path id="Path_60031" data-name="Path 60031" d="M473.4,416.622c-.249-2.615-.021-5.31-1.532-7.517-.57-.837-2.111-.873-2.342.306-.531,2.693.642,4.963,1.469,7.538,1.145,3.556,2.3,7.1,3.286,10.711.057.2.339.111.309-.087C474.079,423.933,473.744,420.281,473.4,416.622Z" transform="translate(-469.389 -408.499)" fill="#0168ff"/>
      </g>
      <g id="Group_39997" data-name="Group 39997" transform="translate(91.039 30.825)">
        <path id="Path_60032" data-name="Path 60032" d="M476.75,413.055c-1.6-1.514-3.334-4.114-5.625-4.318a.939.939,0,0,0-.9,1.178c.432,2.084,3.244,3.544,4.813,4.849a21.746,21.746,0,0,0,6.165,4.135c.2.075.336-.171.255-.33A21.294,21.294,0,0,0,476.75,413.055Z" transform="translate(-470.208 -408.734)" fill="#0168ff"/>
      </g>
      <g id="Group_39998" data-name="Group 39998" transform="translate(89.397 32.053)">
        <path id="Path_60033" data-name="Path 60033" d="M479.884,421.214c-.84-1.106-1.376-2.507-2.174-3.661s-1.616-2.342-2.426-3.511c-1.241-1.8-2.543-4.021-4.627-4.846-.636-.252-1.071.456-.987.984.327,2.084,2.267,3.877,3.649,5.376q1.448,1.574,2.9,3.148c.954,1.034,2.21,1.874,3.11,2.939C479.587,421.946,480.124,421.535,479.884,421.214Z" transform="translate(-469.66 -409.143)" fill="#0168ff"/>
      </g>
      <g id="Group_39999" data-name="Group 39999" transform="translate(91.245 32.004)">
        <path id="Path_60034" data-name="Path 60034" d="M481.657,411.756a66.33,66.33,0,0,0-6.333-2.045c-1.712-.45-3.319-1.118-4.738.147a1.06,1.06,0,0,0,0,1.5c1.391,1.19,2.726.573,4.456.444a23.026,23.026,0,0,1,6.477.453A.257.257,0,0,0,481.657,411.756Z" transform="translate(-470.277 -409.127)" fill="#0168ff"/>
      </g>
      <g id="Group_40000" data-name="Group 40000" transform="translate(89.273 28.994)">
        <path id="Path_60035" data-name="Path 60035" d="M482.879,408.125c-2.531-.018-5.058.105-7.586.192-2.1.072-4.285-.471-5.544,1.475a.921.921,0,0,0,.144,1.127c1.607,1.3,2.921.6,4.8.027,2.738-.831,5.52-1.493,8.243-2.381A.226.226,0,0,0,482.879,408.125Z" transform="translate(-469.619 -408.123)" fill="#0168ff"/>
      </g>
      <g id="Group_40001" data-name="Group 40001" transform="translate(76.653 29.437)">
        <path id="Path_60036" data-name="Path 60036" d="M481.6,409.107c-1.94-1.13-4.114-.777-6.315-.807-3.1-.045-6.171-.012-9.272.132-.657.03-.87,1.074-.162,1.2,2.372.414,4.723.8,7.116,1.068,2.612.291,5.919,1.322,8.387.285A1.038,1.038,0,0,0,481.6,409.107Z" transform="translate(-465.41 -408.271)" fill="#0168ff"/>
      </g>
      <g id="Group_40002" data-name="Group 40002" transform="translate(90.005 18.298)">
        <path id="Path_60037" data-name="Path 60037" d="M471.29,404.681c0-.141-.225-.177-.252-.033-.924,4.762-1.79,9.026-.585,13.85.123.492.765.327.819-.108C471.824,413.779,471.191,409.281,471.29,404.681Z" transform="translate(-469.863 -404.556)" fill="#0168ff"/>
      </g>
      <g id="Group_40003" data-name="Group 40003" transform="translate(94.562 18.48)">
        <path id="Path_60038" data-name="Path 60038" d="M471.962,405.292a56.413,56.413,0,0,0-.549,8.876.419.419,0,0,0,.819.111,57.548,57.548,0,0,0,1.139-8.987C473.443,404.377,472.061,404.407,471.962,405.292Z" transform="translate(-471.383 -404.617)" fill="#0168ff"/>
      </g>
      <g id="Group_40004" data-name="Group 40004" transform="translate(79.401 35.074)">
        <path id="Path_60039" data-name="Path 60039" d="M476.373,410.163a39.307,39.307,0,0,0-9.751,3.355c-.618.3-.165,1.181.444,1.056a39.315,39.315,0,0,0,9.751-3.355C477.434,410.913,476.981,410.04,476.373,410.163Z" transform="translate(-466.327 -410.151)" fill="#0168ff"/>
      </g>
      <g id="Group_40005" data-name="Group 40005" transform="translate(103.278 54.825)">
        <path id="Path_60040" data-name="Path 60040" d="M491.745,425.107c-1.13-2.891-4.663-4.249-7.28-5.577a22.758,22.758,0,0,0-9.55-2.792.645.645,0,0,0-.324,1.193c2.558,1.67,5.583,2.867,8.294,4.3,2.549,1.349,4.948,3.919,7.871,4.171A1.029,1.029,0,0,0,491.745,425.107Z" transform="translate(-474.29 -416.738)" fill="#0168ff"/>
      </g>
      <g id="Group_40006" data-name="Group 40006" transform="translate(108.36 60.188)">
        <path id="Path_60041" data-name="Path 60041" d="M485.909,418.57c-3.739-.486-7.577,3.236-9.835,5.826a.32.32,0,0,0,.453.453,17.971,17.971,0,0,1,5.277-3.292,20.8,20.8,0,0,0,4.411-1.85A.615.615,0,0,0,485.909,418.57Z" transform="translate(-475.984 -418.527)" fill="#0168ff"/>
      </g>
      <g id="Group_40007" data-name="Group 40007" transform="translate(113.069 66.023)">
        <path id="Path_60042" data-name="Path 60042" d="M479.09,420.618c-.513.879-1,1.775-1.481,2.669-.261.477.5.9.72.42.426-.93.861-1.856,1.259-2.8C479.729,420.576,479.282,420.288,479.09,420.618Z" transform="translate(-477.555 -420.472)" fill="#0168ff"/>
      </g>
      <g id="Group_40008" data-name="Group 40008" transform="translate(118.743 63.606)">
        <path id="Path_60043" data-name="Path 60043" d="M481.525,419.761c-2.525-.81-3,3.841,0,3.319,3.826-.663,7.778,1.433,10.165,4.339.162.2.495-.06.351-.27C489.426,423.327,485.887,421.159,481.525,419.761Z" transform="translate(-479.447 -419.666)" fill="#0168ff"/>
      </g>
      <g id="Group_40009" data-name="Group 40009" transform="translate(119.49 57.224)">
        <path id="Path_60044" data-name="Path 60044" d="M490.637,417.592a28.591,28.591,0,0,1-6.09,4.381c-1.505.825-4.456,1.538-4.825,3.4a1.045,1.045,0,0,0,.471,1.157c2.033,1.157,4.411-1.316,5.919-2.531a22.307,22.307,0,0,0,4.828-6.177A.194.194,0,0,0,490.637,417.592Z" transform="translate(-479.696 -417.538)" fill="#0168ff"/>
      </g>
      <g id="Group_40010" data-name="Group 40010" transform="translate(120.697 48.304)">
        <path id="Path_60045" data-name="Path 60045" d="M484,414.746a.258.258,0,0,0-.5.069,38.333,38.333,0,0,1-1.26,8.591c-.681,2.609-2.219,5.107-2.138,7.832a1.069,1.069,0,0,0,1.805.75C486.339,428.32,485.275,419.642,484,414.746Z" transform="translate(-480.099 -414.563)" fill="#0168ff"/>
      </g>
      <g id="Group_40011" data-name="Group 40011" transform="translate(23.314 54.666)">
        <path id="Path_60046" data-name="Path 60046" d="M468.249,421.27a47.13,47.13,0,0,0-18.642-4.585c-2.66-.057-2.633,4.258,0,4.1,2.69-.159,5.3-.507,8.009-.462,3.43.057,6.909,1.134,10.237,1.88C468.4,422.329,468.791,421.537,468.249,421.27Z" transform="translate(-447.622 -416.685)" fill="#0168ff"/>
      </g>
      <g id="Group_40012" data-name="Group 40012" transform="translate(16.998 54.672)">
        <path id="Path_60047" data-name="Path 60047" d="M450.338,416.843c-1.454,1.247-1.913,3.484-2.465,5.271-.717,2.33-1.475,4.615-2.348,6.891-.066.171.216.288.294.126,1.05-2.2,2.186-4.33,3.382-6.456.921-1.637,2.219-3.5,2.12-5.421A.583.583,0,0,0,450.338,416.843Z" transform="translate(-445.516 -416.687)" fill="#0168ff"/>
      </g>
      <g id="Group_40013" data-name="Group 40013" transform="translate(22.971 53.098)">
        <path id="Path_60048" data-name="Path 60048" d="M450.96,416.849a.973.973,0,0,0-1.757-.228c-1.4,2-.936,4.408-.978,6.786-.06,3.355-.468,6.732-.717,10.078a.258.258,0,0,0,.5.069q.882-4.336,1.766-8.669C450.318,422.225,451.883,419.5,450.96,416.849Z" transform="translate(-447.508 -416.162)" fill="#0168ff"/>
      </g>
      <g id="Group_40014" data-name="Group 40014" transform="translate(24.27 53.712)">
        <path id="Path_60049" data-name="Path 60049" d="M453.078,423.3c-.908-2.255-1.445-5.113-3.385-6.669a1.037,1.037,0,0,0-1.751.726c.042,2.543,1.9,4.639,3.163,6.774,1.574,2.66,3.4,5.128,4.885,7.841.1.186.36.024.279-.162C455.042,429.019,454.211,426.119,453.078,423.3Z" transform="translate(-447.941 -416.367)" fill="#0168ff"/>
      </g>
      <g id="Group_40015" data-name="Group 40015" transform="translate(22.243 42.055)">
        <path id="Path_60050" data-name="Path 60050" d="M453.58,427.732c-.945-2.51-2.69-4.573-3.622-7.116-.945-2.573-.918-5.223-1.283-7.886-.054-.39-.567-.276-.681,0-1.9,4.654.009,13.248,4.738,15.655C453.142,428.593,453.772,428.245,453.58,427.732Z" transform="translate(-447.265 -412.479)" fill="#0168ff"/>
      </g>
      <g id="Group_40016" data-name="Group 40016" transform="translate(16.361 44.911)">
        <path id="Path_60051" data-name="Path 60051" d="M454.373,422.68c-1.1-1.772-2.933-2.921-4.375-4.4-1.52-1.562-2.924-3.22-4.426-4.8-.12-.126-.288.012-.267.156.6,3.931,3.889,9.46,8.09,10.315A.874.874,0,0,0,454.373,422.68Z" transform="translate(-445.303 -413.432)" fill="#0168ff"/>
      </g>
      <g id="Group_40017" data-name="Group 40017" transform="translate(15.358 53.474)">
        <path id="Path_60052" data-name="Path 60052" d="M453.788,417.866a15.871,15.871,0,0,0-8.432-1.52c-.351.027-.564.531-.195.717a15.791,15.791,0,0,0,8.351,1.82C454.013,418.847,454.313,418.124,453.788,417.866Z" transform="translate(-444.969 -416.287)" fill="#0168ff"/>
      </g>
      <g id="Group_40018" data-name="Group 40018" transform="translate(15.1 55.517)">
        <path id="Path_60053" data-name="Path 60053" d="M452.212,416.979a15.177,15.177,0,0,0-7.02,2.765c-.483.372-.429,1.394.357,1.313a15.394,15.394,0,0,0,7.181-2.846A.678.678,0,0,0,452.212,416.979Z" transform="translate(-444.883 -416.969)" fill="#0168ff"/>
      </g>
      <g id="Group_40019" data-name="Group 40019" transform="translate(24.735 41.915)">
        <path id="Path_60054" data-name="Path 60054" d="M464.633,412.518a38.264,38.264,0,0,1-9.109,7.409c-2.306,1.361-6.756,2.078-7.392,4.945A1.288,1.288,0,0,0,449,426.41c2.813,1.112,6.09-2.846,7.979-4.588A73.146,73.146,0,0,0,465,412.881C465.191,412.626,464.858,412.266,464.633,412.518Z" transform="translate(-448.096 -412.433)" fill="#0168ff"/>
      </g>
      <g id="Group_40020" data-name="Group 40020" transform="translate(24.661 37.364)">
        <path id="Path_60055" data-name="Path 60055" d="M461.531,411c-3.3,3.347-6.759,6.5-10.084,9.805-1.817,1.805-5.085,5.952-2.285,8.183a1.054,1.054,0,0,0,1.241.162,3.312,3.312,0,0,0,1.655-2.33,24.6,24.6,0,0,1,2.252-5.094,109.834,109.834,0,0,1,7.583-10.363C462.088,411.107,461.77,410.753,461.531,411Z" transform="translate(-448.071 -410.915)" fill="#0168ff"/>
      </g>
      <g id="Group_40021" data-name="Group 40021" transform="translate(80.466 123.049)">
        <path id="Path_60056" data-name="Path 60056" d="M487.894,439.535c-3.508.92-6.243,4.3-9.023,6.543-3.79,3.052-8.672,4.891-12.12,8.285-.147.144-.048.465.183.438,4.012-.474,7.574-3.071,10.951-5.148,3.706-2.282,9.215-4.351,11.529-8.141A1.356,1.356,0,0,0,487.894,439.535Z" transform="translate(-466.682 -439.49)" fill="#0168ff"/>
      </g>
      <g id="Group_40022" data-name="Group 40022" transform="translate(72.264 119.456)">
        <path id="Path_60057" data-name="Path 60057" d="M491.1,438.325c-4,.7-7.137,3.961-10.792,5.808a125.046,125.046,0,0,1-16.183,6.564c-.258.09-.234.546.066.5A101.416,101.416,0,0,0,479.6,447.51c4.189-1.232,10.411-3.061,13.092-6.453A1.649,1.649,0,0,0,491.1,438.325Z" transform="translate(-463.947 -438.292)" fill="#0168ff"/>
      </g>
      <g id="Group_40023" data-name="Group 40023" transform="translate(101.11 119.654)">
        <path id="Path_60058" data-name="Path 60058" d="M477.241,439.36a2,2,0,0,0-1.745-1l-.5,0a1.393,1.393,0,0,0-1.331,1.013c-.621,2.423,1.829,3.631,2.7,5.706a11.606,11.606,0,0,1-.009,8.327c-.039.108.117.162.174.075A14.631,14.631,0,0,0,477.241,439.36Z" transform="translate(-473.567 -438.358)" fill="#0168ff"/>
      </g>
      <g id="Group_40024" data-name="Group 40024" transform="translate(97.664 122.185)">
        <path id="Path_60059" data-name="Path 60059" d="M477.529,439.639a.907.907,0,0,0-1.55,0c-1.056,1.628-.8,3.571-.948,5.463a27.364,27.364,0,0,1-2.585,9.292.258.258,0,0,0,.444.261,42.418,42.418,0,0,0,3.73-7.337C477.537,445,478.737,441.987,477.529,439.639Z" transform="translate(-472.418 -439.202)" fill="#0168ff"/>
      </g>
      <g id="Group_40025" data-name="Group 40025" transform="translate(100.226 122.915)">
        <path id="Path_60060" data-name="Path 60060" d="M487.911,441.906c-2.5.285-5.077-.525-7.484-1.142-2.054-.528-4.267-1.784-6.36-1.136a1.063,1.063,0,0,0-.63,1.553c1.376,1.847,3.481,1.856,5.661,2.132,3.014.381,5.835-.486,8.813-.573C488.457,442.724,488.436,441.849,487.911,441.906Z" transform="translate(-473.272 -439.446)" fill="#0168ff"/>
      </g>
      <g id="Group_40026" data-name="Group 40026" transform="translate(100.355 117.881)">
        <path id="Path_60061" data-name="Path 60061" d="M493.477,437.771c-3.661.843-7.257,1.838-10.948,2.579-2.732.552-6.417-.066-8.516,2.06a2.415,2.415,0,0,0,0,3.4l.342.3a2.344,2.344,0,0,0,3.223,0l.393-.33a1.659,1.659,0,0,0,.561-.968,36.062,36.062,0,0,1,3.667-.93,33.315,33.315,0,0,0,3.9-1.436,37.4,37.4,0,0,0,7.538-4.408C493.768,437.93,493.618,437.738,493.477,437.771Z" transform="translate(-473.315 -437.767)" fill="#0168ff"/>
      </g>
      <g id="Group_40027" data-name="Group 40027" transform="translate(100.787 108.631)">
        <path id="Path_60062" data-name="Path 60062" d="M497.759,434.724a75.85,75.85,0,0,1-12.5,8.246c-3.619,1.883-8.513,1.679-11.5,4.468a1.034,1.034,0,0,0,.453,1.715c4.159,1.023,8.606-2.465,12.087-4.4a39.653,39.653,0,0,0,11.688-9.8A.16.16,0,0,0,497.759,434.724Z" transform="translate(-473.459 -434.682)" fill="#0168ff"/>
      </g>
      <g id="Group_40028" data-name="Group 40028" transform="translate(98.298 100.201)">
        <path id="Path_60063" data-name="Path 60063" d="M491.559,432a49.526,49.526,0,0,1-9.2,13.619c-2.858,3.134-8.171,5.208-9.658,9.229-.336.918.516,1.661,1.331,1.745,4.54.474,8.984-5.352,11.406-8.6a36.361,36.361,0,0,0,6.585-15.8C492.078,431.935,491.679,431.722,491.559,432Z" transform="translate(-472.629 -431.871)" fill="#0168ff"/>
      </g>
      <g id="Group_40029" data-name="Group 40029" transform="translate(39.784 117.057)">
        <path id="Path_60064" data-name="Path 60064" d="M463.577,438.58a17.662,17.662,0,0,0-4.654-.252,19.307,19.307,0,0,1-5.11-.816.548.548,0,0,0-.615.8c2.156,3.125,7.94,5.574,10.831,1.982A1.041,1.041,0,0,0,463.577,438.58Z" transform="translate(-453.115 -437.492)" fill="#0168ff"/>
      </g>
      <g id="Group_40030" data-name="Group 40030" transform="translate(54.953 98.549)">
        <path id="Path_60065" data-name="Path 60065" d="M463.5,434.535c-.819-1.053-2.285-1.457-3.017-2.606a1.256,1.256,0,0,0-2.285.963c.4,2.288,2.573,4.867,5.076,3.406A1.144,1.144,0,0,0,463.5,434.535Z" transform="translate(-458.174 -431.32)" fill="#0168ff"/>
      </g>
      <g id="Group_40031" data-name="Group 40031" transform="translate(36.238 102.7)">
        <path id="Path_60066" data-name="Path 60066" d="M458.6,434.53a9.111,9.111,0,0,0-4.093-1.8c-2.543-.378-3.727,3.355-1.088,3.955a9.886,9.886,0,0,0,4.921-.165A1.1,1.1,0,0,0,458.6,434.53Z" transform="translate(-451.932 -432.704)" fill="#0168ff"/>
      </g>
      <g id="Group_40032" data-name="Group 40032" transform="translate(67.292 98.732)">
        <path id="Path_60067" data-name="Path 60067" d="M466.485,432.782c-1.106-1.064-2.33-1.2-3.8-1.4-.459-.063-.5.564-.213.774a5.763,5.763,0,0,0,3.631,1.553A.548.548,0,0,0,466.485,432.782Z" transform="translate(-462.288 -431.381)" fill="#0168ff"/>
      </g>
      <g id="Group_40033" data-name="Group 40033" transform="translate(78.991 100.355)">
        <path id="Path_60068" data-name="Path 60068" d="M471.221,435.368c-1.55-1.122-3.191-2.141-4.642-3.391-.153-.132-.459-.009-.375.219.951,2.513,3.031,7.484,6.417,7.062a.981.981,0,0,0,.927-1.217C473.245,436.762,472.247,436.105,471.221,435.368Z" transform="translate(-466.19 -431.922)" fill="#0168ff"/>
      </g>
      <g id="Group_40034" data-name="Group 40034" transform="translate(64.92 107.332)">
        <path id="Path_60069" data-name="Path 60069" d="M468.3,437.671c-1.577-1.862-3.64-2.621-5.9-3.388a.708.708,0,0,0-.684,1.178c1.8,1.559,3.5,2.965,5.9,3.388A.711.711,0,0,0,468.3,437.671Z" transform="translate(-461.497 -434.249)" fill="#0168ff"/>
      </g>
      <g id="Group_40035" data-name="Group 40035" transform="translate(68.198 116.676)">
        <path id="Path_60070" data-name="Path 60070" d="M466.082,439.317a6.043,6.043,0,0,0-2.18-1.8c-.984-.633-1.847.9-.906,1.55a5.737,5.737,0,0,0,2.327,1.241A.68.68,0,0,0,466.082,439.317Z" transform="translate(-462.591 -437.365)" fill="#0168ff"/>
      </g>
      <g id="Group_40036" data-name="Group 40036" transform="translate(63.187 125.681)">
        <path id="Path_60071" data-name="Path 60071" d="M469.995,441.058c-2.36-1.235-5.442-.465-7.991-.318a1.122,1.122,0,0,0,0,2.243c2.549.144,5.631.918,7.991-.321A.935.935,0,0,0,469.995,441.058Z" transform="translate(-460.919 -440.368)" fill="#0168ff"/>
      </g>
      <g id="Group_40037" data-name="Group 40037" transform="translate(71.126 133.927)">
        <path id="Path_60072" data-name="Path 60072" d="M469.765,443.118a29.231,29.231,0,0,1-4.465.06c-1.706-.237-2.507,2.213-.735,2.657,2.171.546,4.168.444,5.835-1.185A.9.9,0,0,0,469.765,443.118Z" transform="translate(-463.567 -443.118)" fill="#0168ff"/>
      </g>
      <g id="Group_40038" data-name="Group 40038" transform="translate(118.655 98.988)">
        <path id="Path_60073" data-name="Path 60073" d="M481.967,431.733c-1.484,1.868-3.035,4.441-2.4,6.885a.772.772,0,0,0,1.13.459c2.1-1.442,2.645-4.312,2.753-6.732A.871.871,0,0,0,481.967,431.733Z" transform="translate(-479.418 -431.466)" fill="#0168ff"/>
      </g>
      <g id="Group_40039" data-name="Group 40039" transform="translate(125.544 106.858)">
        <path id="Path_60074" data-name="Path 60074" d="M484.71,434.1a2.594,2.594,0,0,0-2.36,4.273,1.49,1.49,0,0,0,1.823.234,13.954,13.954,0,0,0,1.442-1.16A1.812,1.812,0,0,0,484.71,434.1Z" transform="translate(-481.715 -434.091)" fill="#0168ff"/>
      </g>
      <g id="Group_40040" data-name="Group 40040" transform="translate(117.123 85.256)">
        <path id="Path_60075" data-name="Path 60075" d="M478.913,428.681c.267,3.6,1.038,7.086.78,10.723-.03.453.627.5.756.1,1.143-3.466,2.39-7.118,2.189-10.825C482.508,426.282,478.736,426.294,478.913,428.681Z" transform="translate(-478.907 -426.886)" fill="#0168ff"/>
      </g>
      <g id="Group_40041" data-name="Group 40041" transform="translate(109.888 63.003)">
        <path id="Path_60076" data-name="Path 60076" d="M485.7,419.471c-4.795-.186-6.969,4.183-8.42,8.2a16.054,16.054,0,0,0-.531,7.856c1.25,6.483,3.091,11.137,1.715,17.988a.191.191,0,0,0,.369.1c1.622-5.155,1.8-10.375,2.636-15.676.4-2.51-.234-5.436-.381-7.967-.249-4.219,2.8-6.186,5.382-8.642A1.1,1.1,0,0,0,485.7,419.471Z" transform="translate(-476.494 -419.465)" fill="#0168ff"/>
      </g>
      <g id="Group_40042" data-name="Group 40042" transform="translate(104.964 64.469)">
        <path id="Path_60077" data-name="Path 60077" d="M481.1,420.02c-2.7,1.364-5.943,3.871-6.246,7.151a.163.163,0,0,0,.243.138c2.588-1.439,4.6-4.339,6.7-6.384C482.286,420.452,481.668,419.732,481.1,420.02Z" transform="translate(-474.852 -419.954)" fill="#0168ff"/>
      </g>
      <g id="Group_40043" data-name="Group 40043" transform="translate(97.251 63.916)">
        <path id="Path_60078" data-name="Path 60078" d="M477.219,426a18.109,18.109,0,0,0-4.228-6.117.421.421,0,0,0-.711.294c-.03,2.438,1.094,4.843,1.949,7.083.759,1.982,1.568,4.252,3.395,5.439a1.04,1.04,0,0,0,1.544-.888C479.411,429.7,478.1,427.834,477.219,426Z" transform="translate(-472.28 -419.77)" fill="#0168ff"/>
      </g>
      <g id="Group_40044" data-name="Group 40044" transform="translate(109.79 30.906)">
        <path id="Path_60079" data-name="Path 60079" d="M477.57,408.962c-.369-.471-.989-.027-1.037.429-.261,2.441.15,6.486,2.066,8.192a1,1,0,0,0,1.661-.438C480.994,414.617,479.12,410.926,477.57,408.962Z" transform="translate(-476.461 -408.761)" fill="#0168ff"/>
      </g>
      <g id="Group_40045" data-name="Group 40045" transform="translate(118.353 35.981)">
        <path id="Path_60080" data-name="Path 60080" d="M479.94,410.5a.322.322,0,0,0-.471.192c-.5,2.057.237,5.1,2.123,6.219a.872.872,0,0,0,1.271-.516C483.392,414.257,481.764,411.591,479.94,410.5Z" transform="translate(-479.317 -410.454)" fill="#0168ff"/>
      </g>
      <g id="Group_40046" data-name="Group 40046" transform="translate(127.641 40.461)">
        <path id="Path_60081" data-name="Path 60081" d="M484.245,412.279a1.094,1.094,0,0,0-1.712,1.319c.417.876.267,1.859.675,2.75a.865.865,0,0,0,1.184.309C486.146,415.538,485.519,413.544,484.245,412.279Z" transform="translate(-482.415 -411.948)" fill="#0168ff"/>
      </g>
      <g id="Group_40047" data-name="Group 40047" transform="translate(37.927 84.586)">
        <path id="Path_60082" data-name="Path 60082" d="M458.536,430.3a4.571,4.571,0,0,0-1.772-1.49,27.843,27.843,0,0,1-2.642-1.892.97.97,0,0,0-1.607.936c.4,2.321,3.242,5.116,5.664,3.805A1,1,0,0,0,458.536,430.3Z" transform="translate(-452.495 -426.663)" fill="#0168ff"/>
      </g>
      <g id="Group_40048" data-name="Group 40048" transform="translate(32.446 86.181)">
        <path id="Path_60083" data-name="Path 60083" d="M453.407,427.933c-.87-1.685-3.463-.183-2.546,1.487.636,1.163,1,2.192,2.189,2.843a1.041,1.041,0,0,0,1.544-.888C454.717,430.035,454.01,429.1,453.407,427.933Z" transform="translate(-450.667 -427.195)" fill="#0168ff"/>
      </g>
      <g id="Group_40049" data-name="Group 40049" transform="translate(40.452 37.334)">
        <path id="Path_60084" data-name="Path 60084" d="M458.067,410.924c-2.648-.306-5.236,3.172-4.645,5.658a.259.259,0,0,0,.315.177c1.973-.546,4.681-2.558,5.319-4.537A1.042,1.042,0,0,0,458.067,410.924Z" transform="translate(-453.338 -410.905)" fill="#0168ff"/>
      </g>
      <g id="Group_40050" data-name="Group 40050" transform="translate(43.317 24.67)">
        <path id="Path_60085" data-name="Path 60085" d="M457.406,406.7a6.913,6.913,0,0,0-2.75,1.9c-1.085.96.507,2.54,1.586,1.586a6.68,6.68,0,0,0,2.15-2.5C458.635,407.1,457.939,406.561,457.406,406.7Z" transform="translate(-454.293 -406.681)" fill="#0168ff"/>
      </g>
      <g id="Group_40051" data-name="Group 40051" transform="translate(41.813 16.92)">
        <path id="Path_60086" data-name="Path 60086" d="M458.7,404.205a20.314,20.314,0,0,0-4.546,3.949,1.251,1.251,0,0,0,1.769,1.766,20.434,20.434,0,0,0,3.871-4.618A.807.807,0,0,0,458.7,404.205Z" transform="translate(-453.791 -404.097)" fill="#0168ff"/>
      </g>
      <g id="Group_40052" data-name="Group 40052" transform="translate(58.091 12.915)">
        <path id="Path_60087" data-name="Path 60087" d="M464.452,403.484a7.627,7.627,0,0,0-3.838-.723,1.443,1.443,0,0,0,0,2.885,7.6,7.6,0,0,0,3.838-.723A.84.84,0,0,0,464.452,403.484Z" transform="translate(-459.22 -402.761)" fill="#0168ff"/>
      </g>
      <g id="Group_40053" data-name="Group 40053" transform="translate(70.14 13.409)">
        <path id="Path_60088" data-name="Path 60088" d="M468.59,406a8.689,8.689,0,0,0-2.513-2.633c-1.892-1.55-4.051,1.358-2.021,2.618a8.948,8.948,0,0,0,3.34,1.568A1.069,1.069,0,0,0,468.59,406Z" transform="translate(-463.238 -402.926)" fill="#0168ff"/>
      </g>
    </g>
  </g>
</svg>
