<svg xmlns="http://www.w3.org/2000/svg" width="235.58" height="54" viewBox="0 0 235.58 54">
  <g id="Group_66284" data-name="Group 66284" transform="translate(-1530 -7070)">
    <circle id="Ellipse_13295" data-name="Ellipse 13295" cx="27" cy="27" r="27" transform="translate(1530 7070)" fill="#fff"/>
    <g id="Group_65777" data-name="Group 65777" transform="translate(3799.484 11082.234)">
      <g id="Group_65775" data-name="Group 65775" transform="translate(-2259.725 -4006.294)">
        <path id="Path_183311" data-name="Path 183311" d="M-2221.974-3976.947c-.077.074-.1-.013-.122-.05-.16-.228-.306-.466-.456-.7-.514-.808-1.037-1.611-1.553-2.418q-1.322-2.068-2.652-4.132c-.557-.868-1.111-1.738-1.672-2.6-.612-.946-1.213-1.9-1.828-2.842-.1-.153-.1-.156-.2.008q-1.389,2.352-2.774,4.706c-.231.4-.258.264.017.706q.985,1.59,1.969,3.182l2.923,4.726q1.233,1.995,2.466,3.989l.43.7a.223.223,0,0,1,.057.159.97.97,0,0,1-.313.2c-.348.206-.7.412-1.051.608-.049.027-.1.069-.16.052l-.009-.008a1.707,1.707,0,0,1-.262-.376c-.8-1.272-1.615-2.541-2.42-3.812q-1.393-2.2-2.79-4.4c-.7-1.112-1.415-2.219-2.115-3.332a.168.168,0,0,0-.082-.086,1.013,1.013,0,0,0-.15.231c-.674,1.149-1.354,2.294-2.029,3.442q-.628,1.068-1.26,2.134a.264.264,0,0,0,.006.317c.488.75.963,1.508,1.445,2.261.718,1.121,1.428,2.248,2.146,3.369q.86,1.344,1.714,2.69a4.091,4.091,0,0,1,.41.686v0c-.025.079-.1.106-.16.142q-1.868,1.088-3.74,2.168c-.482.279-.962.563-1.448.837a1.137,1.137,0,0,1-1.118.021c-.484-.242-.942-.534-1.413-.8-1.384-.791-2.762-1.591-4.146-2.381-.247-.141-.493-.283-.736-.428-.051-.031-.121-.051-.116-.133v0q1.069-1.818,2.139-3.635,2.464-4.179,4.929-8.356,3.349-5.677,6.7-11.355c.037-.062.072-.125.119-.205h-.606l-2.906.01c-.837,0-1.674.01-2.511.009a.224.224,0,0,0-.223.125q-3.434,5.674-6.874,11.344-2.814,4.643-5.627,9.287l-1.261,2.085c-.045.075-.082.111-.128.115a.242.242,0,0,1-.139-.05q-.647-.391-1.311-.756c-.057-.032-.089-.058-.1-.09s.005-.071.04-.127q.668-1.065,1.333-2.131,1.129-1.807,2.256-3.615l10.03-16.082c.021-.034.041-.069.073-.125-.384-.011-.75-.027-1.115-.032a21.321,21.321,0,0,0-2.16-.005,6.678,6.678,0,0,0-2.939.849,3.787,3.787,0,0,0-1.244,1.208q-3.855,5.979-7.717,11.955c-.03.047-.067.091-.1.136l-.007-.008c-.063-.08-.037-.175-.037-.264,0-3.326.009-6.653-.007-9.979-.006-1.194-.027-2.388-.026-3.582a1.4,1.4,0,0,1,.747-1.311q3.481-2.009,6.957-4.028,3.341-1.935,6.685-3.865c.442-.255.876-.526,1.331-.759a1.253,1.253,0,0,1,1.253.037q3.885,2.225,7.764,4.461,3.574,2.053,7.147,4.107a1.422,1.422,0,0,1,.714.883,1.129,1.129,0,0,1,.032.3q0,7.058,0,14.116v.3A.569.569,0,0,1-2221.974-3976.947Z" transform="translate(2257.159 4004.061)" fill="#2d374b"/>
        <path id="Path_183312" data-name="Path 183312" d="M-2224.439-3996.517q0,4.091,0,8.182,0,1.282,0,2.565,0,2.719,0,5.438,0,.505,0,1.01a4.326,4.326,0,0,1-.059.72,3.861,3.861,0,0,1-1.2,2.2,4.863,4.863,0,0,1-.952.61q-3.516,2.04-7.035,4.074l-1.425.825-2.129,1.233-3.373,1.954c-.4.229-.787.465-1.187.685a2.536,2.536,0,0,1-.9.26,4.415,4.415,0,0,1-.637.04,3.915,3.915,0,0,1-1.978-.56c-1.367-.8-2.745-1.591-4.122-2.379q-.663-.379-1.325-.759c-.25-.144-.5-.292-.75-.434a.167.167,0,0,1-.052-.039c-.019-.022-.018-.049.008-.092q.645-1.083,1.285-2.168c.005-.008.017-.012.025-.019a2.181,2.181,0,0,0,.478.3l.468.27q2.726,1.572,5.459,3.134a1.116,1.116,0,0,0,.5.151.985.985,0,0,0,.538-.132c1.791-1.024,3.573-2.064,5.358-3.1.022-.013.043-.03.064-.044a.042.042,0,0,1,0-.01c.019-.044.063-.059.1-.08,1.7-.989,3.4-1.97,5.1-2.957a.491.491,0,0,1,.2-.088c.417-.208.809-.461,1.214-.689.1-.057.2-.115.3-.173a.25.25,0,0,1,.123-.117q1.3-.757,2.6-1.5a1.139,1.139,0,0,0,.615-1.06c0-.832,0-1.663,0-2.495a.314.314,0,0,1,.043-.227c0-.074,0-.147,0-.221v-.386q0-1.836,0-3.672,0-5.115,0-10.229a1.362,1.362,0,0,0-.314-.932l0,0a1.594,1.594,0,0,0-.422-.338q-3.648-2.092-7.29-4.191l-.758-.436q-3.422-1.968-6.846-3.934a1.311,1.311,0,0,0-.631-.186,1.326,1.326,0,0,0-.688.19c-.808.46-1.611.928-2.416,1.395q-2.567,1.485-5.132,2.972l-1.06.613q-3.171,1.837-6.341,3.673a1.4,1.4,0,0,0-.316.247,1.231,1.231,0,0,0-.327.874q0,3.7.014,7.4l.006,3.03q0,1.753.007,3.506l-.007.016a4.3,4.3,0,0,1-.41.665c-.67,1.042-1.348,2.078-2.024,3.116-.046.071-.1.14-.148.216l-.017.024c-.059-.047-.043-.108-.043-.16v-1.544q0-2.641,0-5.282,0-1.427,0-2.854,0-4.121.009-8.242a4.147,4.147,0,0,1,.026-.451,3.563,3.563,0,0,1,.366-1.211,4.073,4.073,0,0,1,1.052-1.278,10.4,10.4,0,0,1,1.464-.89q3.272-1.911,6.554-3.8l.648-.375,5.622-3.258c.432-.251.862-.5,1.3-.744a3.66,3.66,0,0,1,1.441-.433h.021c.054,0,.107-.009.161-.011s.121-.005.181-.007h.175q.143,0,.286.017h.021a3.526,3.526,0,0,1,1.173.321c.417.2.808.449,1.209.679q1.777,1.018,3.552,2.039l2.426,1.4,1.384.8q1.775,1.02,3.552,2.04c1.137.655,2.288,1.29,3.405,1.978a3.56,3.56,0,0,1,1.378,1.534,4.444,4.444,0,0,1,.336,1.037c.011.056.021.113.029.169A4.4,4.4,0,0,1-2224.439-3996.517Z" transform="translate(2262.248 4009.123)" fill="#94bcda"/>
        <path id="Path_183313" data-name="Path 183313" d="M-2225.023-3972.223l-.119.205q-3.348,5.678-6.7,11.355l-4.929,8.356q-1.071,1.816-2.138,3.635v0c-.009.006-.02.01-.026.019q-.642,1.084-1.284,2.167c-.025.043-.027.07-.008.093l-1.425-.825-3.511-2.032c.046,0,.083-.04.129-.116l1.261-2.084q2.811-4.646,5.627-9.288,3.438-5.671,6.874-11.344a.225.225,0,0,1,.223-.125c.837,0,1.674-.006,2.511-.009l2.906-.01Z" transform="translate(2250.902 3984.62)" fill="#fdfdfd"/>
        <path id="Path_183314" data-name="Path 183314" d="M-2247.638-3912.738c.27.152.534.315.8.468l-1.261,2.085c-.045.075-.082.111-.128.115l-1.547-.9c-.009-.033.005-.071.041-.127q.668-1.065,1.333-2.131l.337.2a.25.25,0,0,1,.123.117C-2247.838-3912.853-2247.738-3912.794-2247.638-3912.738Z" transform="translate(2253.965 3945.443)" fill="#2d374b"/>
        <path id="Path_183315" data-name="Path 183315" d="M-2225.6-3901.551l-.468-.27a2.194,2.194,0,0,1-.478-.3v0l.844.491C-2225.663-3901.61-2225.619-3901.6-2225.6-3901.551Z" transform="translate(2238.541 3938.071)" fill="#94bcda"/>
        <path id="Path_183316" data-name="Path 183316" d="M-2244.2-3972.353c-.032.055-.052.091-.073.125l-10.03,16.083q-1.128,1.808-2.257,3.615-.666,1.065-1.333,2.13c-.035.057-.05.095-.041.127l-1.976-1.146a4.855,4.855,0,0,1-.951-.611,3.862,3.862,0,0,1-1.2-2.2c.053-.076.1-.145.148-.216.676-1.038,1.354-2.074,2.024-3.117a4.3,4.3,0,0,0,.41-.665v-.024l.007.008c.033-.045.07-.089.1-.136q3.859-5.977,7.716-11.956a3.788,3.788,0,0,1,1.244-1.207,6.68,6.68,0,0,1,2.939-.849,21.4,21.4,0,0,1,2.16.005C-2244.947-3972.38-2244.582-3972.365-2244.2-3972.353Z" transform="translate(2262.125 3984.75)" fill="#fdfdfd"/>
        <path id="Path_183317" data-name="Path 183317" d="M-2180.231-3954.034c0,.946.013,1.891,0,2.836a1.032,1.032,0,0,1-.522.912q-1.424.831-2.852,1.653-2.67-4.315-5.339-8.63-1.347-2.177-2.693-4.356a.2.2,0,0,1,0-.241q1.493-2.522,2.98-5.047c.019-.031.04-.061.074-.114.122.186.236.357.347.531l4.606,7.174,3.346,5.211A.765.765,0,0,0-2180.231-3954.034Z" transform="translate(2215.391 3981.166)" fill="#4b9eee"/>
        <path id="Path_183318" data-name="Path 183318" d="M-2194.337-3933.608a6.806,6.806,0,0,1-.723.437q-1.532.9-3.071,1.781c-.535.309-1.073.612-1.61.918q-.862-1.347-1.724-2.7-2.025-3.176-4.051-6.351a.205.205,0,0,1,0-.251q1.708-2.889,3.412-5.781a.339.339,0,0,1,.106-.141l1.419,2.235,6.2,9.766C-2194.365-3933.665-2194.352-3933.636-2194.337-3933.608Z" transform="translate(2224.605 3967.002)" fill="#4b9eee"/>
      </g>
      <g id="Group_65776" data-name="Group 65776" transform="translate(-2212.308 -3991.815)">
        <path id="Path_183319" data-name="Path 183319" d="M-1713.987-3956.473q0-2.422,0-4.843c0-.1,0-.2,0-.3.027-1.433.4-1.8,1.844-1.815.593-.006,1.187.023,1.779,0a1.84,1.84,0,0,1,1.938,1.281c1.1,2.593,2.228,5.17,3.347,7.753.144.332.3.661.434,1,.092.226.194.413.485.408s.383-.194.479-.417c1.234-2.856,2.5-5.7,3.7-8.57a2.013,2.013,0,0,1,2.176-1.457c.673.043,1.352-.006,2.025.031.866.048,1.2.374,1.322,1.236a6.11,6.11,0,0,1,.037.838q0,5.041,0,10.081c0,.678-.043.718-.736.72-.428,0-.857.005-1.285,0-.6-.006-.649-.05-.649-.647q0-4.422,0-8.845c0-.1,0-.2,0-.3-.007-.177.032-.387-.219-.431s-.354.112-.441.309c-.43.961-.867,1.921-1.3,2.881q-1.188,2.634-2.373,5.268a4.55,4.55,0,0,1-.63,1.057,1.751,1.751,0,0,1-1.173.659,10,10,0,0,1-1.775.023,2.191,2.191,0,0,1-1.873-1.545c-.85-1.856-1.683-3.72-2.522-5.58l-1.218-2.7c-.089-.2-.171-.418-.448-.372-.311.052-.238.315-.238.515q-.006,4.373,0,8.747c0,.958,0,.958-.935.957-.379,0-.759-.015-1.136,0-.444.022-.615-.158-.611-.61C-1713.977-3952.916-1713.987-3954.694-1713.987-3956.473Z" transform="translate(1872.827 3963.53)" fill="#fff"/>
        <path id="Path_183320" data-name="Path 183320" d="M-1999.432-3956.942q0-2.866,0-5.732c0-.6.115-.727.722-.728q5.262,0,10.524.006a5.847,5.847,0,0,1,1.516.183,2.278,2.278,0,0,1,1.786,1.9,7.774,7.774,0,0,1,.018,2.557,2.184,2.184,0,0,1-.765,1.348c-.21.179-.31.294-.017.509a2.252,2.252,0,0,1,.929,1.877,10.19,10.19,0,0,1-.1,2.461,2.379,2.379,0,0,1-2.176,1.979,7.379,7.379,0,0,1-.984.073q-5.336.008-10.673,0c-.693,0-.786-.1-.787-.805Q-1999.434-3954.126-1999.432-3956.942Zm6.991,3.924v0c1.217,0,2.434.011,3.651,0,1.03-.013,1.343-.345,1.356-1.382,0-.1,0-.2,0-.3-.038-.933-.363-1.305-1.288-1.315-2.516-.025-5.032-.011-7.548-.022-.284,0-.367.1-.362.375.014.707.023,1.415,0,2.121-.015.417.147.539.548.532C-1994.876-3953.031-1993.658-3953.018-1992.442-3953.018Zm0-5.015c.247,0,.494,0,.741,0,1.021,0,2.043.013,3.063-.023.844-.03,1.146-.376,1.157-1.2q0-.173,0-.346c0-.89-.316-1.25-1.206-1.257-2.5-.019-5.007,0-7.511-.017-.361,0-.45.16-.444.481.013.642.019,1.285,0,1.927-.012.341.092.453.445.448C-1994.943-3958.046-1993.691-3958.033-1992.439-3958.033Z" transform="translate(2049.572 3963.505)" fill="#fff"/>
        <path id="Path_183321" data-name="Path 183321" d="M-2062.179-3956.913q0-2.816,0-5.632c0-.752.1-.86.853-.861q4.692,0,9.385,0a7.546,7.546,0,0,1,1.862.2,2.775,2.775,0,0,1,2.156,2.26,9.786,9.786,0,0,1,.049,3.488,2.772,2.772,0,0,1-2.216,2.481c-.36.088-.383.191-.152.471.921,1.118,1.824,2.251,2.731,3.379.112.139.272.277.167.478-.091.174-.281.143-.443.143-.675,0-1.351-.013-2.025.007a.863.863,0,0,1-.79-.392c-.834-1.124-1.694-2.227-2.531-3.348a.73.73,0,0,0-.657-.334c-1.712.013-3.425.019-5.137,0-.387,0-.467.129-.458.483.021.988-.012,1.976.017,2.963.015.488-.187.646-.642.631-.51-.018-1.021-.019-1.531,0-.461.02-.646-.157-.642-.633.017-1.926.007-3.852.007-5.779Zm6.7-3.976v0c-1.1,0-2.206.018-3.309-.009-.44-.01-.617.1-.6.576.032,1,.031,2.008,0,3.011-.012.425.141.525.537.521,2.091-.016,4.181-.006,6.272-.012a6.062,6.062,0,0,0,.884-.073,1.224,1.224,0,0,0,1.068-1.018,5.293,5.293,0,0,0,.063-1.279c-.006-1.229-.482-1.71-1.7-1.719C-2053.335-3960.895-2054.405-3960.888-2055.475-3960.888Z" transform="translate(2088.426 3963.508)" fill="#fff"/>
        <path id="Path_183322" data-name="Path 183322" d="M-1841.936-3956.936q0-2.865,0-5.73c0-.608.117-.739.711-.739q4.866,0,9.732.006a8.914,8.914,0,0,1,1.229.1,2.832,2.832,0,0,1,2.565,2.374,9.333,9.333,0,0,1,.024,3.581,2.732,2.732,0,0,1-2.171,2.352c-.414.1-.374.231-.152.5q1.33,1.624,2.637,3.266c.127.159.353.31.229.552s-.378.154-.581.156c-.626.009-1.252-.014-1.877.008a.864.864,0,0,1-.789-.395c-.837-1.122-1.7-2.226-2.532-3.348a.728.728,0,0,0-.658-.332c-1.7.012-3.392.017-5.088,0-.387,0-.515.11-.506.5.023,1,0,2.009.012,3.013.006.4-.153.571-.554.56-.527-.015-1.054,0-1.581,0-.6-.005-.651-.057-.652-.646Q-1841.937-3954.047-1841.936-3956.936Zm6.683-3.953v0c-1.1,0-2.2.019-3.306-.009-.446-.011-.616.115-.6.578q.042,1.505,0,3.01c-.011.424.148.524.543.521,2.106-.016,4.212-.005,6.318-.01a4.767,4.767,0,0,0,.736-.06,1.272,1.272,0,0,0,1.2-1.325c.021-.328.011-.658.01-.987,0-1.233-.468-1.71-1.693-1.719C-1833.114-3960.9-1834.183-3960.889-1835.253-3960.889Z" transform="translate(1952.05 3963.508)" fill="#fff"/>
        <path id="Path_183323" data-name="Path 183323" d="M-1779.958-3958.636c0-1.384.016-2.768-.009-4.151-.009-.486.184-.65.641-.633.51.018,1.022.023,1.532,0,.481-.023.627.184.623.647-.017,2.306-.013,4.612-.005,6.918a9.214,9.214,0,0,0,.088,1.23,1.419,1.419,0,0,0,1.352,1.407,44.562,44.562,0,0,0,7.15,0c.91-.071,1.336-.648,1.391-1.635.049-.87.033-1.745.035-2.618,0-1.763,0-3.525,0-5.288,0-.566.092-.652.663-.657.527,0,1.054,0,1.581,0,.389-.007.564.151.562.559-.012,2.669-.008,5.337-.016,8.006a6.341,6.341,0,0,1-.216,1.563,3.461,3.461,0,0,1-3.488,2.683,61.154,61.154,0,0,1-8.1,0c-2.414-.163-3.657-1.495-3.758-3.929-.056-1.365-.01-2.734-.01-4.1Z" transform="translate(1913.678 3963.518)" fill="#fff"/>
        <path id="Path_183324" data-name="Path 183324" d="M-2115.213-3950.672c-1.141.335-1.754-.265-2.084-1.244-.4-1.182-1.164-1.485-2.383-1.42-2.183.117-4.378.04-6.567.025a.694.694,0,0,0-.731.431c-.293.607-.64,1.188-.942,1.791a.692.692,0,0,1-.708.419c-.658-.014-1.317,0-1.975-.006-.562-.005-.617-.117-.321-.661q2-3.663,4-7.323c.631-1.156,1.256-2.314,1.891-3.468a3.135,3.135,0,0,1,4.088-1.219,2.408,2.408,0,0,1,.969,1.027q2.255,4.085,4.506,8.171c.524.951,1.051,1.9,1.572,2.854.287.524.229.614-.372.62-.165,0-.329,0-.494,0Zm-7.235-4.721c.938,0,1.877,0,2.815,0,.308,0,.389-.089.232-.376-.893-1.631-1.774-3.268-2.669-4.9-.225-.409-.49-.408-.714.006-.877,1.621-1.74,3.249-2.617,4.87-.161.3-.114.4.237.4C-2124.259-3955.4-2123.353-3955.392-2122.448-3955.393Z" transform="translate(2131.102 3963.672)" fill="#fff"/>
        <path id="Path_183325" data-name="Path 183325" d="M-1897.793-3963.407q3.434,0,6.868,0c.642,0,.708.067.713.7,0,.428-.017.857.007,1.284.027.471-.169.646-.637.642-1.663-.015-3.327.012-4.99-.018-.478-.009-.606.124-.6.6.021,2.981.011,5.962.011,8.943,0,.709-.035.742-.763.744-.461,0-.922,0-1.383,0-.574,0-.657-.08-.657-.657q0-4.3,0-8.6c0-1.02,0-1.021-1-1.021-1.515,0-3.031,0-4.546,0-.574,0-.667-.094-.674-.651-.006-.428-.006-.856,0-1.285.005-.589.1-.686.7-.686Q-1901.276-3963.41-1897.793-3963.407Z" transform="translate(1991.382 3963.508)" fill="#fff"/>
        <path id="Path_183326" data-name="Path 183326" d="M-1936.236-3956.943v-5.779c0-.61.064-.677.68-.682.527,0,1.054,0,1.581,0,.366,0,.528.153.528.539q-.012,5.9,0,11.806c0,.405-.154.568-.553.558-.543-.015-1.087-.019-1.63,0-.445.016-.614-.163-.61-.612.015-1.943.006-3.886.006-5.829Z" transform="translate(2010.443 3963.507)" fill="#fff"/>
      </g>
    </g>
  </g>
</svg>
