<svg id="Group_65804" data-name="Group 65804" xmlns="http://www.w3.org/2000/svg" width="182.192" height="43.898" viewBox="0 0 182.192 43.898">
  <path id="Path_70121" data-name="Path 70121" d="M-4723.69,1910.159a21.864,21.864,0,0,1-21.9,21.929,21.942,21.942,0,0,1-21.9-21.965,21.931,21.931,0,0,1,22.014-21.933A21.872,21.872,0,0,1-4723.69,1910.159Z" transform="translate(4767.485 -1888.191)" fill="#75c711"/>
  <path id="Path_70122" data-name="Path 70122" d="M-4155.687,1973.862a1.854,1.854,0,0,0-.307.161c-4.432,3.635-10.154,2.371-12.569-2.78a10.476,10.476,0,0,1,1.94-11.494c3.447-3.288,9.921-2.712,12.251,1.089a3.013,3.013,0,0,1,.188.347c.322.74,1.049,1.62.486,2.266-.5.571-1.567.153-2.382.185-.281.011-.376-.168-.45-.423a4.115,4.115,0,0,0-4.14-3.051,4.586,4.586,0,0,0-4.8,2.8,8.412,8.412,0,0,0,.642,8.833c1.185,1.671,3.473,2.209,5.759,1.551a4.308,4.308,0,0,0,2.944-3.745c.089-.684-.125-.881-.782-.855-1.026.04-2.055-.018-3.079.019-.6.022-.8-.168-.81-.785-.015-1.563-.045-1.564,1.528-1.564,1.754,0,3.511.024,5.267-.012.616-.012.793.2.787.8-.025,2.583-.009,5.166-.013,7.749,0,.352.081.836-.492.739-.522-.089-1.236.42-1.547-.407C-4155.435,1974.827-4155.545,1974.349-4155.687,1973.862Z" transform="translate(4279.351 -1944.82)" fill="#fff"/>
  <path id="Path_70123" data-name="Path 70123" d="M-4426.183,1976.1a8.327,8.327,0,0,1-8.321-8.018,10.568,10.568,0,0,1,1.949-7.485c3.153-4.1,10.306-3.986,12.978.207a8.1,8.1,0,0,1,.839,1.993c.173.552.046.911-.638.856a5.113,5.113,0,0,0-.993,0,1.466,1.466,0,0,1-1.775-1.078,3.945,3.945,0,0,0-4.139-2.44,4.679,4.679,0,0,0-4.467,3.055,8.868,8.868,0,0,0,.271,7.852,4.86,4.86,0,0,0,4.9,2.519,4.353,4.353,0,0,0,3.749-3.457c.113-.375-.021-1.007.526-1.076a5.939,5.939,0,0,1,2.458.052c.39.118.205.654.141.991A7.2,7.2,0,0,1-4426.183,1976.1Z" transform="translate(4491.696 -1944.817)" fill="#fff"/>
  <path id="Path_70124" data-name="Path 70124" d="M-3931.085,1969.654c.7-.777,1.4-1.556,2.109-2.33a8.345,8.345,0,0,0,.75-.792,4.249,4.249,0,0,1,5.021-1.8c.1.344-.265.5-.481.706-1.138,1.108-2.275,2.218-3.443,3.294a.85.85,0,0,0-.143,1.334c1.508,2.2,2.93,4.464,4.429,6.673.419.618.226.726-.381.7a.882.882,0,0,0-.2,0,2.994,2.994,0,0,1-3.665-1.945,36.927,36.927,0,0,0-2.181-3.532c-.351-.582-.612-.589-1.122-.128a2.525,2.525,0,0,0-1.065,2.386,8.474,8.474,0,0,1,.01,1.29c0,2.04,0,2.006-2.023,1.947-.75-.022-.759-.41-.756-.956.011-3.079.005-6.158.005-9.236,0-2.118.034-4.237-.017-6.355-.02-.843.2-1.186,1.1-1.152,1.939.072,1.678-.15,1.686,1.724.01,2.644,0,5.287,0,7.931Z" transform="translate(4090.896 -1946.542)" fill="#fff"/>
  <path id="Path_70125" data-name="Path 70125" d="M-4066.3,1983.579a5.7,5.7,0,0,0-6-.752c-3.114,1.309-4.57,5.017-3.494,8.749a6,6,0,0,0,7.162,4.177,5.3,5.3,0,0,0,4.294-3.4c.1-.259.38-.625-.112-.842a2.715,2.715,0,0,0-2.687.754,3.289,3.289,0,0,1-3.7,1.229,3.4,3.4,0,0,1-2.357-2.679c-.124-.754.116-1,.881-.966,1.257.055,2.518.016,3.777.016,1.293,0,2.585-.012,3.878,0,.444.006.781-.034.8-.6A6.463,6.463,0,0,0-4066.3,1983.579Zm-1.248,4.381c-.821-.028-1.646-.006-2.469-.006-.792,0-1.584-.036-2.374.012-.75.044-.93-.271-.762-.94a3.328,3.328,0,0,1,3.217-2.437,3.24,3.24,0,0,1,3.064,2.462C-4066.7,1987.7-4066.839,1987.986-4067.545,1987.96Z" transform="translate(4204.576 -1964.611)" fill="#fff"/>
  <path id="Path_70126" data-name="Path 70126" d="M-3861.341,1983.066a6.775,6.775,0,0,0-6.823.115c-2.371,1.346-3.533,4.739-2.761,7.683a5.943,5.943,0,0,0,2.546,3.86,6.857,6.857,0,0,0,7.166.181c2.251-1.227,2.985-3.405,3.04-5.92C-3858.222,1986.512-3858.981,1984.314-3861.341,1983.066Zm-.135,8.257a3.263,3.263,0,0,1-3.216,2.16,3.15,3.15,0,0,1-3.138-2.253,5.94,5.94,0,0,1,.091-4.714,3.4,3.4,0,0,1,3.635-1.989,3.72,3.72,0,0,1,2.916,3.007c.1.483.129.981.175,1.354A6.916,6.916,0,0,1-3861.476,1991.323Z" transform="translate(4040.366 -1964.529)" fill="#fff"/>
  <path id="Path_70127" data-name="Path 70127" d="M-4335.135,1983.122a6.688,6.688,0,0,0-6.824-.1c-2.312,1.237-3.117,3.379-3.085,6.034a6.319,6.319,0,0,0,1.7,4.783c2.076,2.112,4.649,2.311,7.257,1.432s3.735-3.051,3.9-5.676C-4332.019,1986.952-4332.678,1984.558-4335.135,1983.122Zm-.17,7.774a3.332,3.332,0,0,1-3.164,2.532,3.229,3.229,0,0,1-3.4-2.327,5.617,5.617,0,0,1,.037-4.344,3.392,3.392,0,0,1,3.837-2.273,3.789,3.789,0,0,1,2.883,3.271c.059.426.057.857.079,1.194A6.745,6.745,0,0,1-4335.3,1990.9Z" transform="translate(4420.001 -1964.478)" fill="#fff"/>
  <path id="Path_70128" data-name="Path 70128" d="M-4235.968,1984.575a5.012,5.012,0,0,1,5.525-1.921,3.682,3.682,0,0,1,2.921,3.542c.058,2.911.02,5.823.04,8.735,0,.507-.165.7-.689.693-2.59-.045-2.056.268-2.1-1.982-.041-2.182.027-4.369-.093-6.546-.083-1.492-.74-2.19-1.82-2.366a3.1,3.1,0,0,0-3.256,1.563,3.956,3.956,0,0,0-.395,2.011c-.014,2.118-.034,4.236.007,6.353.014.725-.184.982-.943.977-1.94-.013-1.941.022-1.941-1.923,0-3.276.027-6.552-.018-9.827-.012-.846.187-1.264,1.092-1.106a1.211,1.211,0,0,0,.4,0c.957-.162,1.342.243,1.208,1.189A3.371,3.371,0,0,0-4235.968,1984.575Z" transform="translate(4334.826 -1964.726)" fill="#fff"/>
  <path id="Path_70129" data-name="Path 70129" d="M-4006.753,1989.152c.012-3.184,1.311-5.465,3.786-6.371a6.69,6.69,0,0,1,6.512.792,4.14,4.14,0,0,1,1.609,2.539c.048.215.157.453,0,.671-.293.408-2.595.183-2.778-.3a2.79,2.79,0,0,0-3.117-1.9,3.041,3.041,0,0,0-2.837,2.251,6.661,6.661,0,0,0,.171,4.937,2.926,2.926,0,0,0,3.042,1.771,2.779,2.779,0,0,0,2.622-2.047,2.355,2.355,0,0,1,2.749-.753c.3.232.169.554.117.828a5.365,5.365,0,0,1-4.691,4.206C-4004.033,1996.148-4006.77,1993.624-4006.753,1989.152Z" transform="translate(4148.988 -1964.596)" fill="#fff"/>
  <path id="Path_70130" data-name="Path 70130" d="M-4268.357,1990.446c0-1.819.021-3.638-.01-5.457-.012-.65.145-.955.875-.936,2.413.064,1.993-.277,2.011,1.973.027,3.307-.014,6.615.022,9.922.009.733-.2.974-.943.973-1.955,0-1.955.029-1.955-1.911Z" transform="translate(4358.572 -1966.013)" fill="#fff"/>
  <path id="Path_70131" data-name="Path 70131" d="M-4737.407,1906.905a6.888,6.888,0,0,1-2.213-.212,12.549,12.549,0,0,0-7.346,1.582,8.356,8.356,0,0,0-4.705,5.384,12.364,12.364,0,0,0-.477,2.436,62.148,62.148,0,0,1-1.135,9.289,28.856,28.856,0,0,1-1.022,3.168c-.064.18-.049.525-.348.528s-.44-.272-.561-.487c-.434-.771-.882-1.54-1.246-2.345a19.94,19.94,0,0,1-1.351-12.769,19.88,19.88,0,0,1,8.193-12.28,19.2,19.2,0,0,1,13.563-3.574c7.956.908,13.615,5.117,16.833,12.5a18.686,18.686,0,0,1,1.321,10.692c-1.263,7.552-5.507,12.859-12.554,15.893a17.1,17.1,0,0,1-3.27.984c-.6.126-.68-.073-.714-.576a13.371,13.371,0,0,1,2.447-8.074,36.727,36.727,0,0,1,5.695-6.774,27.309,27.309,0,0,0,3.44-3.618c1.692-2.4,1.63-4.727-1.026-6.489a9.561,9.561,0,0,0-1.914-.951c-1.783-.677-3.644-1.126-5.408-1.868a3.584,3.584,0,0,1-1.162-.689,4.484,4.484,0,0,0-4.464-1.682A.746.746,0,0,1-4737.407,1906.905Z" transform="translate(4759.887 -1895.889)" fill="#fce878"/>
  <path id="Path_70132" data-name="Path 70132" d="M-4679.833,1967.552a3.836,3.836,0,0,1,4.042-3.847,3.861,3.861,0,0,1,3.8,3.935,3.853,3.853,0,0,1-4.017,3.893A3.812,3.812,0,0,1-4679.833,1967.552Z" transform="translate(4694.955 -1950.677)" fill="#fafcf9"/>
  <path id="Path_70133" data-name="Path 70133" d="M-4623.371,2025.285a15.247,15.247,0,0,1-5.739,2.661,10.259,10.259,0,0,1-3.965.537,4.755,4.755,0,0,1-3.339-1.457,12.859,12.859,0,0,0,6.706.375A27.278,27.278,0,0,0-4623.371,2025.285Z" transform="translate(4659.028 -2001.633)" fill="#5e724f"/>
  <path id="Path_70134" data-name="Path 70134" d="M-4637.273,1950.748c1.961-.727,4.617.062,5.041,1.752-.38.294-.626-.091-.928-.187a27.559,27.559,0,0,0-3.983-1.231C-4637.367,1951.047-4637.268,1950.874-4637.273,1950.748Z" transform="translate(4659.752 -1939.731)" fill="#039e3a"/>
  <path id="Path_70135" data-name="Path 70135" d="M-4579.955,2005.756c-.51.005-.761-.354-.745-.868a.79.79,0,0,1,.872-.843.825.825,0,0,1,.832.9C-4579,2005.5-4579.332,2005.758-4579.955,2005.756Z" transform="translate(4612.926 -1984.055)" fill="#edf7e4"/>
  <path id="Path_70136" data-name="Path 70136" d="M-4266.726,1962.978c-.969.218-1.312-.075-1.342-1.131-.035-1.265.7-1,1.432-1.074.941-.095,1.206.228,1.229,1.183C-4265.379,1963.082-4265.925,1963.14-4266.726,1962.978Z" transform="translate(4358.332 -1947.351)" fill="#fff"/>
  <path id="Path_70137" data-name="Path 70137" d="M-4617.058,1922.382c0,.459.006.919,0,1.377,0,.178-.073.376-.267.383-.247.01-.189-.229-.219-.384a30.548,30.548,0,0,0-5.684-13.484,11.768,11.768,0,0,0-5.12-3.613,40.2,40.2,0,0,0-6.582-2.041c-.172-.036-.479.032-.462-.257.017-.308.317-.271.539-.282a12.257,12.257,0,0,1,8.54,2.746,42.575,42.575,0,0,1,4.9,4.324,16.035,16.035,0,0,1,4.211,9.008c.045.368.137.732.165,1.1s.007.746.007,1.119Z" transform="translate(4658.184 -1901.328)" fill="#fdfcf6"/>
  <path id="Path_70138" data-name="Path 70138" d="M-4670.246,1976.113a2.629,2.629,0,0,1-2.717-2.691,2.7,2.7,0,0,1,2.738-2.782,2.71,2.71,0,0,1,2.723,2.8A2.643,2.643,0,0,1-4670.246,1976.113Z" transform="translate(4689.271 -1956.416)" fill="#58595b"/>
</svg>
