<svg xmlns="http://www.w3.org/2000/svg" width="141.539" height="47.111" viewBox="0 0 141.539 47.111">
  <g id="Group_65808" data-name="Group 65808" transform="translate(-181.491 -156.197)">
    <path id="Path_70242" data-name="Path 70242" d="M204.7,156.2c.517.067,1.034.138,1.554.2a20.15,20.15,0,0,1,5.921,1.689A21.559,21.559,0,0,1,222.9,168.545a20.832,20.832,0,0,1,1.923,6.448,17.713,17.713,0,0,1,.188,2.252c-.081.113-.212.127-.329.166-2.918.977-5.846,1.912-8.768,2.868q-5,1.636-10.014,3.268-5.333,1.731-10.666,3.481-3.612,1.179-7.227,2.362c-.8.262-1.6.513-2.39.775a.9.9,0,0,1-.3.064,21.744,21.744,0,0,1,12.62-33.385,17.776,17.776,0,0,1,3.64-.584.466.466,0,0,0,.3-.064Z" transform="translate(0 0)" fill="#fe522e"/>
    <path id="Path_70243" data-name="Path 70243" d="M182.571,175.126c.06-.138.209-.127.319-.166q8.105-2.656,16.207-5.3,6.719-2.194,13.438-4.38,4.733-1.54,9.465-3.077c.085-.025.177-.039.266-.057a21.018,21.018,0,0,1-2.447,10.878,22.245,22.245,0,0,1-9.221,9.164,20.313,20.313,0,0,1-6.7,2.135,20.628,20.628,0,0,1-5.343.191,21.765,21.765,0,0,1-9.235-3.024A21.445,21.445,0,0,1,182.571,175.126Z" transform="translate(2.746 15.104)" fill="#2b2570"/>
    <path id="Path_70244" data-name="Path 70244" d="M216.756,163.4a9.41,9.41,0,0,0-2.585-4.533,9.076,9.076,0,0,0-6.268-2.337c-2.727-.035-5.453,0-8.144,0-.319,0-.39.071-.39.354v22.379c0,.283.071.354.354.354h5.17c1.31-.035,2.585.071,3.9-.071a8.392,8.392,0,0,0,7.649-5.878A17.215,17.215,0,0,0,216.756,163.4Zm-3.47,7.365a5.737,5.737,0,0,1-2.3,4.533,5.544,5.544,0,0,1-3.293.991c-1.416.035-2.833,0-4.214,0-.283,0-.354-.035-.354-.319.035-2.62.035-5.276.035-7.9s0-5.276-.035-7.9c0-.248.071-.354.354-.319h4.249a5.275,5.275,0,0,1,5.418,4.532,11.639,11.639,0,0,1,.177,1.912C213.322,167.792,213.392,169.279,213.286,170.766Z" transform="translate(45.432 0.809)" fill="#fff"/>
    <path id="Path_70245" data-name="Path 70245" d="M231.527,164a7.37,7.37,0,0,0-3.329-4.887,7.83,7.83,0,0,0-4.957-.992,6.87,6.87,0,0,0-6.02,4.214,11.541,11.541,0,0,0-.177,9.136,6.8,6.8,0,0,0,4.816,4.32,9.185,9.185,0,0,0,5.843-.354,7.231,7.231,0,0,0,3.364-2.62.253.253,0,0,0-.035-.39c-.637-.637-1.239-1.31-1.912-1.983a1.286,1.286,0,0,1-.142.177,5.092,5.092,0,0,1-4.993,2.443,4.016,4.016,0,0,1-3.683-2.62,5.8,5.8,0,0,1-.319-2.054c0-.319.071-.39.389-.39H231.6c.177.035.213-.035.213-.212A15.077,15.077,0,0,0,231.527,164Zm-3.86,1.629c-1.2-.035-2.443,0-3.683,0H220.3c-.106,0-.283.071-.283-.177a4.2,4.2,0,0,1,2.656-4.285,3.816,3.816,0,0,1,5.276,3.329,5.791,5.791,0,0,0,.071.779C228.021,165.519,227.95,165.625,227.667,165.625Z" transform="translate(88.168 4.747)" fill="#fff"/>
    <path id="Path_70246" data-name="Path 70246" d="M211.114,167.054c0-2.751,0-5.5-.007-8.258,0-.276.078-.336.34-.333,1.013.014,2.022.011,3.035,0,.212,0,.269.057.266.269-.014.779-.007,1.562,0,2.341,0,.071-.046.181.057.209.127.035.135-.092.166-.17a5.028,5.028,0,0,1,1.661-2.146,5.351,5.351,0,0,1,3.6-.882c2.879.2,4.426,2.082,4.929,4.632a10.739,10.739,0,0,1,.177,2.05q-.005,5.28,0,10.563c0,.294-.078.358-.358.351q-1.45-.027-2.893,0c-.29.007-.382-.046-.379-.361.014-3.385.007-6.767.007-10.152a6.256,6.256,0,0,0-.287-2,2.638,2.638,0,0,0-2.273-1.926,4.712,4.712,0,0,0-2.656.351,2.756,2.756,0,0,0-1.76,2.7c.014,3.668,0,7.341.014,11.009,0,.294-.06.386-.372.379-.963-.025-1.93-.021-2.893,0-.294.007-.382-.05-.382-.365C211.117,172.561,211.114,169.809,211.114,167.054Z" transform="translate(75.246 4.748)" fill="#fff"/>
    <path id="Path_70247" data-name="Path 70247" d="M216.238,172.5a1.225,1.225,0,0,0-.3.513,4.653,4.653,0,0,1-4.352,2.776,5.4,5.4,0,0,1-3.966-1.239,5.923,5.923,0,0,1-1.841-3.665,12.9,12.9,0,0,1-.142-2.089q.005-5.11,0-10.219c0-.294.046-.407.379-.4q1.429.037,2.858,0c.319-.007.421.057.418.4-.014,3.392-.007,6.788-.007,10.18a5.521,5.521,0,0,0,.329,2.022,2.749,2.749,0,0,0,2.528,1.859,4.357,4.357,0,0,0,2.918-.683,2.572,2.572,0,0,0,1.183-2.241q.005-5.588-.007-11.179c0-.28.053-.368.351-.361.974.021,1.951.018,2.928,0,.273-.007.365.043.365.344q-.016,8.275,0,16.551c0,.248-.046.329-.315.326q-1.5-.032-3,0c-.287,0-.333-.1-.326-.347C216.249,174.233,216.238,173.411,216.238,172.5Z" transform="translate(61.347 5.031)" fill="#fff"/>
    <path id="Path_70248" data-name="Path 70248" d="M206.233,164.772c-.035-.177-.142-.212-.319-.212a15.944,15.944,0,0,1-1.841,0c-.213,0-.319.071-.39.319-.956,2.727-1.912,5.489-2.868,8.251-.567,1.664-1.169,3.329-1.735,5.028.5,0,.992,0,1.452.035a.558.558,0,0,0,.637-.46c.283-1.027.673-2.018.991-3.045.106-.283.212-.389.5-.354h4.6c.248,0,.354.071.425.283.354,1.1.744,2.2,1.1,3.293.035.142.071.283.283.248h1.771v-.071C209.314,173.66,207.791,169.234,206.233,164.772Zm.071,7.861c-1.062,0-2.16,0-3.258.035-.212,0-.283-.035-.212-.283l2.018-5.949c0-.035,0-.071.106-.106.637,1.877,1.275,3.718,1.877,5.559C207.118,172.634,207.118,172.634,206.3,172.634Z" transform="translate(44.695 21.251)" fill="#fff"/>
    <path id="Path_70249" data-name="Path 70249" d="M214.3,174.253c-.319,0-.39-.071-.354-.39,0-1.735.035-3.506-.035-5.276a2.925,2.925,0,0,0-1.983-2.762,5.265,5.265,0,0,0-3.045-.212,3.762,3.762,0,0,0-2.443,1.629c-.106.177-.106.283.071.39.212.212.46.425.673.637.177.177.248.177.425-.035a2.732,2.732,0,0,1,3.293-1.027,1.548,1.548,0,0,1,1.1,1.133,5.556,5.556,0,0,1,.142,1.523c0,.177-.142.177-.248.177h-1.7a6.9,6.9,0,0,0-2.231.283,2.647,2.647,0,0,0-2.018,2.16,2.86,2.86,0,0,0,1.062,2.9,3.786,3.786,0,0,0,2.939.6,2.664,2.664,0,0,0,2.2-1.7c0-.035,0-.106.071-.106.531,1.381.85,1.629,2.089,1.629.779,0,.779,0,.779-.779S215.074,174.217,214.3,174.253Zm-2.16-2.018a1.991,1.991,0,0,0,0,.46,1.573,1.573,0,0,1-.85,1.452,2.9,2.9,0,0,1-2.479.283c-.708-.212-.991-.673-.991-1.523a1.27,1.27,0,0,1,.991-1.416,3.749,3.749,0,0,1,1.1-.177h1.948c.212,0,.283.071.283.283A3.824,3.824,0,0,0,212.135,172.234Z" transform="translate(62.022 23.597)" fill="#fff"/>
    <path id="Path_70250" data-name="Path 70250" d="M210.2,165.559c.581,0,1.13,0,1.678,0,.184,0,.191.135.23.248.63,1.813,1.254,3.63,1.894,5.439.29.818.5,1.664.751,2.493.011.042,0,.092.11.113.163-.521.319-1.048.5-1.569q1.126-3.256,2.263-6.508c.046-.131.089-.22.255-.216.446.011.9.014,1.342,0,.248-.007.223.089.159.262-.542,1.508-1.073,3.017-1.611,4.522q-1.307,3.665-2.617,7.326c-.067.195-.149.382-.227.574a1.92,1.92,0,0,1-1.9,1.264c-.4.007-.8.011-1.2.025-.177.011-.241-.043-.237-.227.014-.368.018-.737,0-1.1-.011-.212.081-.241.262-.237.379.014.758-.007,1.137.011a.308.308,0,0,0,.361-.262c.152-.492.333-.974.513-1.455a.626.626,0,0,0-.011-.46q-1.758-4.924-3.516-9.844C210.3,165.835,210.257,165.715,210.2,165.559Z" transform="translate(72.962 23.779)" fill="#fff"/>
    <path id="Path_70251" data-name="Path 70251" d="M204.812,167.423a.984.984,0,0,0,.12-.149,2.914,2.914,0,0,1,3.283-1.753,3.033,3.033,0,0,1,2.744,2.659,6.583,6.583,0,0,1,.12,1.261c.007,2.018,0,4.037.007,6.055,0,.251-.05.34-.315.326a9.243,9.243,0,0,0-1.172,0c-.276.018-.365-.05-.361-.347.014-1.891.007-3.782.007-5.676a5.112,5.112,0,0,0-.067-.956,1.955,1.955,0,0,0-2.358-1.746,3.034,3.034,0,0,0-.96.255,1.673,1.673,0,0,0-1.052,1.622c.011,2.156,0,4.313.014,6.466,0,.329-.1.4-.4.382a10.768,10.768,0,0,0-1.172,0c-.234.014-.28-.071-.28-.29.007-1.707,0-3.414,0-5.124,0-1.455.007-2.911,0-4.366,0-.241.064-.322.3-.312.425.018.85.018,1.275,0,.216-.011.273.071.266.276C204.8,166.449,204.812,166.9,204.812,167.423Z" transform="translate(54.583 23.604)" fill="#fff"/>
    <path id="Path_70252" data-name="Path 70252" d="M223.223,176.034a4.738,4.738,0,0,1-3.849-1.707c-.145-.166-.195-.269.021-.425a6.525,6.525,0,0,0,.807-.694c.181-.181.28-.124.421.042a3.48,3.48,0,0,0,2.982,1.271,2.411,2.411,0,0,0,.96-.237,1.312,1.312,0,0,0,.758-1.285,1.223,1.223,0,0,0-.868-1.2,13.464,13.464,0,0,0-2.018-.393,4.105,4.105,0,0,1-2.026-.875,2.891,2.891,0,0,1,.414-4.423,4.968,4.968,0,0,1,5.867.758c.156.174.216.283,0,.457a6.309,6.309,0,0,0-.722.687c-.159.17-.244.184-.418,0a3.121,3.121,0,0,0-3.077-.921,1.269,1.269,0,0,0-1.094,1.048,1.206,1.206,0,0,0,.421,1.264,2.631,2.631,0,0,0,1.183.425,12.485,12.485,0,0,1,2.249.464,2.486,2.486,0,0,1,1.834,2.174,2.9,2.9,0,0,1-1.431,3.006A4.461,4.461,0,0,1,223.223,176.034Z" transform="translate(95.945 23.601)" fill="#fff"/>
    <path id="Path_70253" data-name="Path 70253" d="M218.492,170.787a6.431,6.431,0,0,0,.046,1.608,2.29,2.29,0,0,0,1.863,2,2.661,2.661,0,0,0,2.826-.97,1.205,1.205,0,0,0,.205-.315c.128-.379.319-.34.581-.127a6.308,6.308,0,0,0,.552.347c.418.258.425.262.191.68a3.725,3.725,0,0,1-2.932,1.972,4.358,4.358,0,0,1-4.093-1.346,4.878,4.878,0,0,1-1.122-2.684,7.547,7.547,0,0,1,.312-3.658,4.211,4.211,0,0,1,4.717-2.776,3.73,3.73,0,0,1,3.116,2.071c.128.241.113.368-.163.478a10.78,10.78,0,0,0-1.016.5c-.131.067-.191.089-.273-.085a2.531,2.531,0,0,0-4.8.935C218.464,169.866,218.492,170.327,218.492,170.787Z" transform="translate(89.008 23.607)" fill="#fff"/>
    <path id="Path_70254" data-name="Path 70254" d="M214.686,172.668c0-1.076-.011-2.156.007-3.233.007-.283-.085-.347-.347-.333-.354.021-.708,0-1.066.007-.149,0-.234-.014-.23-.2.014-.379.011-.758,0-1.137,0-.166.06-.216.22-.216.287,0,.574,0,.86-.021.5-.042.694-.241.708-.744.014-.584.014-1.172,0-1.756,0-.209.05-.28.266-.269q.568.027,1.137,0c.223-.014.266.067.262.273-.014.744,0,1.491-.011,2.234,0,.23.064.3.287.29.542-.014,1.08,0,1.618-.007.188,0,.269.046.262.248-.014.354-.018.712,0,1.066.011.209-.078.244-.258.241-.552-.011-1.1,0-1.654-.007-.188-.007-.255.042-.255.244q.011,3.235,0,6.466c0,.234.089.262.28.259.471-.011.945.014,1.413-.011.273-.014.333.081.315.329a7.955,7.955,0,0,0,0,.963c.011.212-.035.3-.276.29-.595-.018-1.193.014-1.792-.014a1.688,1.688,0,0,1-1.749-1.834C214.682,174.754,214.686,173.713,214.686,172.668Z" transform="translate(80.194 21.776)" fill="#fff"/>
    <path id="Path_70255" data-name="Path 70255" d="M209.1,170.895c0-2.064.007-4.129-.007-6.193,0-.273.046-.386.347-.365a8.12,8.12,0,0,0,1.137,0c.262-.014.347.05.344.329-.011,1.951-.007,3.9-.007,5.85,0,2.111.007,4.221,0,6.331,0,.255.057.347.319.326.3-.025.6,0,.9-.011.188-.011.234.06.23.234-.011.379,0,.758,0,1.137,0,.1.021.209-.145.205-.528-.014-1.062.028-1.583-.035a1.608,1.608,0,0,1-1.519-1.756c-.007-1.809,0-3.622,0-5.436Z" transform="translate(70.139 20.677)" fill="#fff"/>
    <path id="Path_70256" data-name="Path 70256" d="M217.152,170.618c0,1.572-.007,3.141.007,4.713,0,.266-.078.329-.329.315-.411-.021-.825-.018-1.239,0-.23.011-.283-.067-.283-.287.011-1.756.007-3.509.007-5.266,0-1.409,0-2.822-.007-4.231,0-.241.067-.319.308-.308.414.018.829.021,1.239,0,.251-.011.3.085.3.315C217.145,167.453,217.152,169.036,217.152,170.618Z" transform="translate(85.929 23.776)" fill="#fff"/>
    <path id="Path_70257" data-name="Path 70257" d="M215.263,165.448c0-.786.333-1.122,1.094-1.122s1.091.343,1.087,1.2c0,.733-.354,1.076-1.108,1.073S215.263,166.244,215.263,165.448Z" transform="translate(85.817 20.653)" fill="#fff"/>
  </g>
</svg>
