<svg xmlns="http://www.w3.org/2000/svg" width="195.307" height="48.443" viewBox="0 0 195.307 48.443">
  <g id="Group_65799" data-name="Group 65799" transform="translate(-5117.771 -2237.568)">
    <circle id="Ellipse_13269" data-name="Ellipse 13269" cx="24.222" cy="24.222" r="24.222" transform="translate(5117.771 2237.569)" fill="#fff"/>
    <g id="Group_65797" data-name="Group 65797" transform="translate(5130.156 2242.438)">
      <path id="Path_183390" data-name="Path 183390" d="M5179.718,2250.208c.331-.27.312.112.384.23q1.887,3.1,3.754,6.211,3.776,6.264,7.551,12.529c.1.161.166.338.247.508-.18.18-.36.06-.525-.016-2.528-1.165-5.076-2.291-7.605-3.455-1.04-.478-2.081-.953-3.128-1.416-.277-.123-.581-.213-.7-.545a3.357,3.357,0,0,1-.064-.91c0-4,0-8-.007-12C5179.626,2250.958,5179.727,2250.588,5179.718,2250.208Z" transform="translate(-5168.005 -2250.113)" fill="#aca8b4"/>
      <path id="Path_183391" data-name="Path 183391" d="M5161.4,2250.357c.219.179.113.425.113.637q.012,6.435.007,12.871c0,.228.016.456.025.685a.311.311,0,0,1-.094.145c-1.3.683-2.656,1.243-3.99,1.848-2.377,1.078-4.746,2.174-7.133,3.227-.2.087-.4.262-.634.077,1.03-1.734,2.052-3.473,3.092-5.2Q5157.09,2257.5,5161.4,2250.357Z" transform="translate(-5149.691 -2250.262)" fill="#4f455c"/>
      <path id="Path_183392" data-name="Path 183392" d="M5179.864,2286.925l11.261,5.091a1.259,1.259,0,0,0,.531.2c.1.263-.151.268-.268.338q-5.6,3.322-11.216,6.625c-.138.082-.286.313-.487.074a3.28,3.28,0,0,1-.056-.623c.008-3.558,0-7.116.007-10.674a1.436,1.436,0,0,1,.179-.988Z" transform="translate(-5168.007 -2272.638)" fill="#554c60"/>
      <path id="Path_183393" data-name="Path 183393" d="M5161.491,2287.027q.009,5.939.017,11.878c0,.153.008.31-.146.406q-4.269-2.5-8.538-5.012-1.4-.826-2.8-1.667c-.134-.082-.378-.084-.333-.348,1.308-.466,2.538-1.109,3.8-1.674,2.618-1.17,5.222-2.372,7.833-3.558A.589.589,0,0,1,5161.491,2287.027Z" transform="translate(-5149.683 -2272.701)" fill="#2a203a"/>
      <path id="Path_183394" data-name="Path 183394" d="M5179.828,2314.106q5.354-3.147,10.71-6.293a5.082,5.082,0,0,1,1.051-.5c-.625.894-1.245,1.792-1.877,2.681q-3.6,5.063-7.2,10.12c-.83,1.165-1.657,2.332-2.492,3.493-.058.08-.079.368-.284.109a11.9,11.9,0,0,1-.1-2.336q-.008-3.173,0-6.347C5179.638,2314.713,5179.573,2314.374,5179.828,2314.106Z" transform="translate(-5168.006 -2285.111)" fill="#aca8b4"/>
      <path id="Path_183395" data-name="Path 183395" d="M5161.647,2313.973q0,4.591.007,9.182c0,.146.044.309-.1.424l-11.64-16.411.07-.077Z" transform="translate(-5149.825 -2284.978)" fill="#4f455c"/>
    </g>
    <path id="Path_183396" data-name="Path 183396" d="M5569.806,2286.467c2.934-3.9,7.632-3.052,9.143.626.2.051.232-.125.3-.238,1.453-2.4,3.563-3.4,5.932-2.811a5.3,5.3,0,0,1,3.767,5.142c.092,2.39.023,4.786.029,7.18,0,.425-.1.789-.61.767-.476-.021-.5-.409-.5-.773,0-2.1,0-4.2,0-6.3a6.575,6.575,0,0,0-.381-2.491,3.63,3.63,0,0,0-2.9-2.5,3.766,3.766,0,0,0-3.881,1.65,7.763,7.763,0,0,0-1.293,4.468c-.03,1.692-.007,3.386-.007,5.079,0,.42.015.89-.578.869-.529-.018-.512-.452-.511-.844,0-2.16,0-4.32,0-6.48a5.96,5.96,0,0,0-.353-2.146,3.607,3.607,0,0,0-3.093-2.611,4.028,4.028,0,0,0-4.243,1.993,7.2,7.2,0,0,0-.807,3.717q0,2.714-.013,5.429c0,.4.08.911-.505.939-.645.031-.6-.491-.6-.936q0-5.561,0-11.122c0-.413-.038-.891.553-.9.608-.009.546.487.556.89S5569.806,2285.868,5569.806,2286.467Z" transform="translate(-275.919 -28.338)" fill="#fff"/>
    <path id="Path_183397" data-name="Path 183397" d="M5473.9,2291.146c1.605.053,3.21.017,4.817.017h4.027c2.054,0,2.136-.1,1.7-2.142a6.236,6.236,0,0,0-9.342-4.278,7.12,7.12,0,0,0-.087,11.679,6.417,6.417,0,0,0,8.461-1.488c.237-.347.529-.741.1-1.074s-.733.037-1,.379a4.992,4.992,0,0,1-5.37,1.9c-2.187-.489-3.338-2.1-3.927-4.169C5473.127,2291.414,5473.19,2291.123,5473.9,2291.146Zm-.652-1.763a5.1,5.1,0,0,1,10.122.1c.076.468-.042.613-.526.6-1.512-.026-3.026-.009-4.54-.009-1.485,0-2.971-.026-4.455.012C5473.278,2290.1,5473.159,2289.919,5473.251,2289.383Z" transform="translate(-216.761 -28.298)" fill="#fff"/>
    <path id="Path_183398" data-name="Path 183398" d="M5393.059,2291.153c1.662.03,3.327.01,4.988.009s3.327-.006,4.989,0c.495,0,.863-.084.864-.7.013-3.954-3.682-7.734-8.1-6.364a6.732,6.732,0,0,0-4.518,6.078,6.98,6.98,0,0,0,3.632,6.593,6.432,6.432,0,0,0,7.855-1.835c.228-.338.543-.727.1-1.071s-.731.03-.994.368a4.991,4.991,0,0,1-5.447,1.88c-2.218-.533-3.338-2.189-3.89-4.3C5392.413,2291.323,5392.515,2291.143,5393.059,2291.153Zm-.559-1.523a5.622,5.622,0,0,1,3.046-4.225,4.544,4.544,0,0,1,4.727.361,5.689,5.689,0,0,1,2.347,3.556c.129.528.045.79-.61.767-1.484-.047-2.97-.014-4.455-.015q-2.271,0-4.542,0C5392.7,2290.077,5392.4,2290.093,5392.5,2289.63Z" transform="translate(-167.352 -28.298)" fill="#fff"/>
    <path id="Path_183399" data-name="Path 183399" d="M5262.733,2291.083c1.661.037,3.324.014,4.987.012s3.326-.009,4.989,0c.524,0,.858-.158.83-.739a6.548,6.548,0,0,0-3.641-5.952,5.611,5.611,0,0,0-6.462.727,7.13,7.13,0,0,0,.066,10.89c2.682,2.144,7.115,1.551,8.943-1.2.229-.344.517-.731.04-1.057-.412-.28-.692.04-.936.359a4.981,4.981,0,0,1-5.432,1.929c-2.211-.517-3.364-2.145-3.913-4.274C5262.069,2291.251,5262.131,2291.071,5262.733,2291.083Zm-.577-1.616a5.43,5.43,0,0,1,4.907-4.6,5.322,5.322,0,0,1,5.181,4.259c.144.622.119.943-.687.9-1.456-.07-2.918-.019-4.376-.019-1.518,0-3.035-.012-4.551.005C5262.205,2290.019,5262.081,2289.92,5262.156,2289.468Z" transform="translate(-87.607 -28.231)" fill="#fff"/>
    <path id="Path_183400" data-name="Path 183400" d="M5347.035,2269.915a5.6,5.6,0,0,1,3.467-2.577,4.974,4.974,0,0,1,6,4.312,13.439,13.439,0,0,1,.132,2.355q0,2.8,0,5.6c0,.4-.021.823-.525.851-.579.031-.605-.43-.606-.857q0-3.2,0-6.391a6.059,6.059,0,0,0-.25-1.987,3.715,3.715,0,0,0-3.013-2.831,4.13,4.13,0,0,0-4.276,1.778,6.412,6.412,0,0,0-.97,3.92c.036,1.809.029,3.618.039,5.427,0,.411.049.906-.521.933-.664.032-.583-.52-.583-.946q-.005-10.987,0-21.974c0-.4-.071-.909.533-.909.653,0,.57.534.571.966q0,5.6,0,11.206Z" transform="translate(-139.608 -11.657)" fill="#fff"/>
    <path id="Path_183401" data-name="Path 183401" d="M5531.868,2295.379a5.7,5.7,0,0,1-4.115,2.646,4.922,4.922,0,0,1-5.329-4.568c-.3-2.671-.074-5.366-.1-8.051,0-.349.134-.667.546-.643.5.028.56.415.559.825,0,2.219.006,4.438,0,6.656a5.557,5.557,0,0,0,.448,2.3,3.635,3.635,0,0,0,3.449,2.4,3.75,3.75,0,0,0,3.668-2.221,9.325,9.325,0,0,0,.845-3.9c.045-1.692.018-3.386.025-5.08,0-.437-.057-.975.577-.969.581.005.527.517.528.922q.005,5.562,0,11.123c0,.4.077.9-.527.916s-.565-.464-.565-.881Z" transform="translate(-247.51 -28.877)" fill="#fff"/>
    <path id="Path_183402" data-name="Path 183402" d="M5313.019,2284.063c0,1.693.006,3.386,0,5.079,0,.413.139.985-.524,1s-.557-.542-.557-.968c0-3.328-.039-6.656.022-9.983.016-.882-.251-1.112-1.064-1.01a14,14,0,0,1-1.575.012c-.395,0-.723-.1-.715-.562s.367-.528.747-.525c.613,0,1.23-.043,1.838.012.643.059.781-.2.756-.791-.044-1.049-.01-2.1-.013-3.152,0-.4.019-.809.553-.807s.535.427.535.818c0,1.109.017,2.219-.007,3.328-.011.462.151.619.607.6.67-.03,1.343-.009,2.014-.006.383,0,.831-.03.839.513.008.59-.457.574-.878.573-.584,0-1.171.042-1.751-.011-.638-.059-.862.12-.841.8C5313.056,2280.676,5313.019,2282.37,5313.019,2284.063Z" transform="translate(-116.769 -21.292)" fill="#fff"/>
    <path id="Path_183403" data-name="Path 183403" d="M5443.32,2287.427a7.8,7.8,0,0,1,2.52-2.314,4.1,4.1,0,0,1,2.093-.523.518.518,0,0,1,.543.469.534.534,0,0,1-.413.592.919.919,0,0,1-.171.033c-2.573.337-4.486,2.376-4.565,6.035-.035,1.633,0,3.266-.007,4.9,0,.4.067.906-.519.922s-.57-.462-.57-.885q0-5.6,0-11.2c0-.427,0-.879.595-.853.554.024.49.477.493.852C5443.324,2286.034,5443.32,2286.613,5443.32,2287.427Z" transform="translate(-198.536 -28.769)" fill="#fff"/>
  </g>
</svg>
