<svg xmlns="http://www.w3.org/2000/svg" width="121" height="91.531" viewBox="0 0 121 91.531">
  <g id="Group_65815" data-name="Group 65815" transform="translate(-6336.1 -908.309)">
    <path id="Path_183377" data-name="Path 183377" d="M6532.593,968.219a2.389,2.389,0,0,1-1.473-.507,57.872,57.872,0,0,0-6.5-3.9c-.943-.515-1.759-.96-2.377-1.325-.169-.1-.421-.236-.713-.395-2.843-1.543-10.4-5.641-12.261-14.217-1.787-8.221-1.759-28.07-1.75-30.306a2.394,2.394,0,0,1,2.514-2.381c.5.025,1.033.038,1.575.038a32.635,32.635,0,0,0,19.565-6.445,2.4,2.4,0,0,1,2.85,0,32.635,32.635,0,0,0,19.565,6.445c.542,0,1.071-.013,1.575-.038a2.394,2.394,0,0,1,2.514,2.38c0,.89.078,21.9-1.75,30.307h0c-1.865,8.576-9.417,12.675-12.261,14.217-.292.159-.545.3-.716.4-.615.361-1.425.8-2.364,1.316a57.911,57.911,0,0,0-6.514,3.909A2.389,2.389,0,0,1,6532.593,968.219ZM6512.306,920c.032,5.824.254,20.493,1.636,26.851,1.4,6.432,7.118,9.536,9.866,11.027.331.179.616.334.858.476.554.326,1.337.754,2.244,1.249,1.813.99,3.962,2.163,5.683,3.289,1.724-1.128,3.878-2.3,5.695-3.3.9-.492,1.681-.918,2.231-1.241.243-.143.529-.3.859-.477,2.749-1.491,8.467-4.594,9.866-11.027,1.39-6.393,1.607-21.035,1.638-26.85a35.479,35.479,0,0,0-40.576,0Zm41.277,27.359h0Z" transform="translate(-134.113)" fill="#169aff"/>
    <text id="Trust_Wallet" data-name="Trust Wallet" transform="translate(6336.1 993.841)" fill="#169aff" font-size="23" font-family="MyriadPro-Bold, Myriad Pro" font-weight="700"><tspan x="0" y="0">Trust Wallet</tspan></text>
  </g>
</svg>
