<svg xmlns="http://www.w3.org/2000/svg" xmlns:xlink="http://www.w3.org/1999/xlink" width="803.668" height="803.667" viewBox="0 0 803.668 803.667">
  <defs>
    <linearGradient id="linear-gradient" y1="0.5" x2="1" y2="0.5" gradientUnits="objectBoundingBox">
      <stop offset="0" stop-color="#7cf95b"/>
      <stop offset="0.136" stop-color="#76ee7c"/>
      <stop offset="0.436" stop-color="#68d4d2"/>
      <stop offset="0.522" stop-color="#64cdec"/>
      <stop offset="1" stop-color="#3172f5"/>
    </linearGradient>
  </defs>
  <g id="Group_36647" data-name="Group 36647" transform="translate(-12470.166 -5696.511)">
    <path id="Path_66050" data-name="Path 66050" d="M-563.76,2594.363c-186.63,0-338.464-151.834-338.464-338.465s151.834-338.463,338.464-338.463S-225.3,2069.269-225.3,2255.9-377.131,2594.363-563.76,2594.363Zm0-674.558c-185.323,0-336.094,150.772-336.094,336.094s150.771,336.094,336.094,336.094,336.094-150.771,336.094-336.094S-378.439,1919.8-563.76,1919.8Z" transform="translate(13435.761 3842.447)" opacity="0.4" fill="url(#linear-gradient)"/>
    <path id="Path_66051" data-name="Path 66051" d="M-556.238,2665.254q-4.228,0-8.435-.086l.041-2.027q4.186.087,8.394.087l1.71,0,.008,2.026Zm11.867-.171-.057-2.026q5.061-.147,10.093-.418l.109,2.023Q-539.282,2664.937-544.371,2665.083Zm-30.448-.25q-5.085-.231-10.134-.587l.143-2.023q5.023.357,10.084.589Zm50.727-.844-.16-2.019q5.045-.4,10.059-.924l.21,2.015Q-519.021,2663.59-524.093,2663.989Zm-70.979-.586q-5.065-.487-10.095-1.1l.245-2.011q5,.61,10.043,1.091Zm91.172-1.524-.261-2.01q5.017-.653,10-1.431l.313,2Q-498.856,2661.222-503.9,2661.879Zm-111.331-.924q-5.033-.742-10.024-1.609l.346-1.994q4.966.861,9.974,1.6Zm131.394-2.2-.364-1.994q4.98-.908,9.914-1.935l.414,1.983Q-478.834,2657.84-483.836,2658.753Zm-151.4-1.261q-4.988-1-9.931-2.114l.447-1.974q4.915,1.113,9.879,2.1Zm171.278-2.881-.463-1.972q4.925-1.154,9.8-2.436l.515,1.96Q-459.009,2653.447-463.959,2654.611Zm-191.085-1.6q-4.93-1.247-9.812-2.614l.548-1.95q4.855,1.362,9.761,2.6Zm210.727-3.554-.563-1.946q4.857-1.411,9.666-2.933l.612,1.931Q-439.433,2648.046-444.316,2649.462Zm-230.281-1.921q-4.877-1.5-9.7-3.122l.645-1.918q4.8,1.611,9.651,3.106Zm249.635-4.219-.661-1.915q4.78-1.653,9.5-3.422l.71,1.9Q-420.157,2641.659-424.962,2643.322Zm-268.952-2.274q-4.79-1.747-9.523-3.613l.743-1.883q4.707,1.854,9.474,3.593Zm287.972-4.842-.76-1.881q4.673-1.886,9.287-3.885l.806,1.86Q-401.247,2634.307-405.943,2636.206Zm-306.92-2.619q-4.693-1.987-9.322-4.091l.838-1.843q4.608,2.092,9.274,4.069Zm325.49-5.43-.854-1.835q4.572-2.125,9.084-4.355l.9,1.817Q-382.777,2626.025-387.373,2628.156ZM-731.4,2625.17q-4.584-2.223-9.1-4.557l.933-1.8q4.491,2.323,9.051,4.535Zm362.173-5.991-.945-1.792q4.461-2.353,8.857-4.812l.988,1.77Q-364.741,2616.817-369.225,2619.179Zm-380.249-3.353q-4.459-2.452-8.851-5.012l1.021-1.75q4.368,2.543,8.807,4.984Zm397.93-6.541-1.035-1.742q4.339-2.577,8.607-5.254l1.077,1.716Q-347.184,2606.7-351.545,2609.286Zm-415.5-3.7q-4.327-2.673-8.583-5.451l1.108-1.7q4.234,2.767,8.539,5.424Zm432.667-7.075-1.12-1.691q4.2-2.789,8.336-5.682L-326,2592.8Q-330.15,2595.706-334.378,2598.511Zm-449.691-4.041q-4.186-2.888-8.3-5.877l1.194-1.638q4.085,2.973,8.251,5.844Zm466.3-7.593-1.2-1.629q4.06-3,8.041-6.1l1.244,1.6Q-313.689,2583.865-317.767,2586.877Zm-482.738-4.363q-4.034-3.09-7.984-6.282l1.272-1.576q3.933,3.174,7.945,6.251Zm498.746-8.1-1.284-1.566q3.905-3.2,7.727-6.5l1.325,1.536Q-297.834,2571.2-301.759,2574.419Zm-514.553-4.669q-3.872-3.291-7.655-6.674l1.348-1.51q3.767,3.364,7.618,6.641Zm529.923-8.581-1.362-1.5q3.743-3.393,7.4-6.879l1.4,1.468Q-282.631,2557.761-286.389,2561.169Zm-545.065-4.955q-3.7-3.477-7.308-7.049l1.424-1.441q3.593,3.554,7.273,7.014Zm559.755-9.053-1.434-1.429q3.567-3.578,7.042-7.243l1.47,1.392Q-268.114,2543.564-271.7,2547.161Zm-574.192-5.221q-3.519-3.658-6.945-7.407l1.5-1.364q3.406,3.727,6.908,7.366Zm588.163-9.515-1.5-1.358q3.385-3.751,6.673-7.588l1.537,1.318Q-254.325,2528.651-257.727,2532.424Zm-601.863-5.463q-3.327-3.828-6.559-7.741l1.561-1.291q3.216,3.894,6.528,7.7ZM-244.507,2517l-1.57-1.277q3.189-3.921,6.284-7.919l1.6,1.239Q-241.3,2513.066-244.507,2517Zm-628.005-5.682q-3.131-3.987-6.162-8.057l1.624-1.21q3.016,4.05,6.131,8.016Zm640.435-10.391-1.632-1.2q2.989-4.073,5.878-8.226l1.664,1.155Q-229.07,2496.835-232.077,2500.93Zm-652.554-5.874q-2.924-4.137-5.745-8.353l1.684-1.128q2.8,4.2,5.716,8.313Zm664.164-10.809-1.692-1.117q2.781-4.217,5.459-8.515l1.719,1.072Q-217.671,2480.006-220.466,2484.247Zm-675.445-6.037q-2.71-4.279-5.315-8.628l1.738-1.042q2.591,4.327,5.289,8.585Zm686.2-11.223-1.746-1.029q2.565-4.356,5.023-8.783l1.771.985Q-207.132,2462.6-209.711,2466.987Zm-696.612-6.161q-2.49-4.408-4.87-8.885l1.788-.949q2.367,4.452,4.845,8.836Zm706.487-11.624-1.8-.938q2.34-4.481,4.572-9.032l1.818.891Q-197.482,2444.695-199.835,2449.2Zm-716-6.258q-2.263-4.523-4.414-9.113l1.834-.859q2.142,4.569,4.393,9.065Zm724.962-12.012-1.842-.847q2.112-4.6,4.109-9.258l1.862.8Q-188.755,2426.31-190.877,2430.932Zm-733.556-6.318q-2.029-4.63-3.945-9.319l1.876-.768q1.9,4.666,3.924,9.273Zm741.579-12.4-1.882-.752q1.874-4.7,3.634-9.46l1.9.7Q-180.968,2407.492-182.854,2412.217Zm-749.247-6.369q-1.8-4.742-3.477-9.54l1.911-.669q1.675,4.776,3.463,9.493Zm756.309-12.738-1.917-.653q1.631-4.794,3.147-9.64l1.933.605Q-174.151,2388.293-175.792,2393.11Zm-763.022-6.425q-1.554-4.825-2.989-9.706l1.944-.57q1.427,4.853,2.974,9.655Zm769.09-12.994-1.949-.553q1.382-4.853,2.642-9.752l1.962.507Q-168.335,2368.816-169.723,2373.692Zm-774.818-6.489q-1.308-4.9-2.491-9.845l1.97-.471q1.18,4.924,2.478,9.794Zm779.88-13.175-1.975-.454q1.132-4.913,2.144-9.872l1.985.4Q-163.523,2349.092-164.662,2354.027Zm-784.61-6.569q-1.053-4.958-1.986-9.957l1.993-.372q.926,4.976,1.977,9.906Zm788.667-13.327-2-.352q.881-4.962,1.639-9.97l2,.305Q-159.721,2329.144-160.605,2334.131Zm-792.386-6.636q-.8-5-1.478-10.047l2.008-.269q.673,5.021,1.47,10Zm795.428-13.44-2.01-.254q.627-5,1.132-10.036l2.016.2Q-156.932,2309.029-157.564,2314.055ZM-955.7,2307.37q-.548-5.033-.971-10.106l2.019-.17q.422,5.052.966,10.059Zm800.156-13.517-2.02-.15q.376-5.026.627-10.083l2.024.1Q-155.162,2288.8-155.54,2293.852Zm-801.844-6.715q-.3-5.057-.462-10.144l2.024-.067q.164,5.063.459,10.093Zm802.853-13.563-2.027-.052q.127-5.037.125-10.1,0-3.437-.057-6.867l2.025-.035q.059,3.445.058,6.9Q-154.4,2268.512-154.53,2273.574Zm-803.529-6.723q-.014-1.712-.013-3.43,0-3.366.055-6.722l2.026.031q-.053,3.343-.055,6.691,0,1.711.014,3.414Zm2.359-20.219-2.024-.083q.208-5.082.545-10.139l2.022.135Q-955.49,2241.573-955.7,2246.631Zm798.914-.158q-.21-5.064-.546-10.088l2.023-.135q.336,5.051.548,10.139Zm-797.576-20-2.018-.187q.463-5.067,1.052-10.1l2.012.233Q-953.9,2221.433-954.361,2226.474Zm796.232-.159q-.463-5.043-1.052-10.047l2.012-.237q.592,5.033,1.058,10.1Zm-793.881-19.908-2.007-.285q.718-5.039,1.562-10.033l2,.337Q-951.3,2201.4-952.011,2206.408Zm791.523-.158q-.716-5.01-1.558-9.982l2-.337q.845,5,1.566,10.034Zm-788.164-19.76-1.989-.388q.974-4.992,2.068-9.94l1.979.436Q-947.682,2181.519-948.652,2186.49Zm784.8-.158q-.968-4.968-2.061-9.889l1.978-.439q1.1,4.946,2.072,9.94Zm-780.427-19.568-1.966-.487q1.225-4.938,2.572-9.826l1.953.538Q-943.062,2161.854-944.284,2166.764Zm776.052-.153q-1.221-4.91-2.563-9.774l1.953-.539q1.348,4.885,2.576,9.821Zm-770.685-19.325-1.94-.59q1.483-4.881,3.081-9.714l1.924.637Q-937.444,2142.427-938.918,2147.286Zm765.312-.151q-1.469-4.844-3.057-9.63l1.923-.637q1.6,4.811,3.073,9.677Zm-758.939-19.1-1.905-.685q1.726-4.8,3.57-9.54l1.888.731Q-930.823,2123.265-932.544,2128.04Zm752.579-.082q-1.712-4.761-3.542-9.46l1.888-.735q1.839,4.725,3.561,9.51Zm-7.31-18.794q-1.946-4.652-4-9.238l1.849-.831q2.068,4.612,4.026,9.286Zm-737.921-.011-1.868-.782q1.967-4.7,4.051-9.341l1.847.829Q-923.238,2104.476-925.2,2109.153Zm729.678-18.364q-2.181-4.547-4.471-9.028l1.805-.922q2.3,4.5,4.492,9.076Zm-721.385-.111-1.826-.879q2.2-4.588,4.518-9.116l1.8.921Q-914.71,2086.111-916.9,2090.678Zm712.217-17.831q-2.409-4.432-4.923-8.795l1.755-1.013q2.528,4.386,4.948,8.842Zm-703-.194-1.781-.97q2.433-4.469,4.973-8.874l1.755,1.013Q-905.264,2068.2-907.683,2072.653Zm692.926-17.273q-2.627-4.309-5.361-8.54l1.7-1.1q2.749,4.255,5.39,8.583Zm-682.81-.256-1.729-1.056q2.654-4.343,5.414-8.609l1.7,1.1Q-894.925,2050.807-897.566,2055.125Zm671.869-16.688q-2.84-4.166-5.787-8.263l1.644-1.183q2.959,4.115,5.818,8.306Zm-660.883-.3-1.672-1.144q2.866-4.2,5.838-8.32l1.644,1.183Q-883.725,2033.963-886.58,2038.139Zm649.1-16.083q-3.05-4.02-6.2-7.964l1.582-1.263q3.165,3.963,6.23,8.006Zm-637.272-.322-1.612-1.227q3.074-4.044,6.248-8.012l1.582,1.265Q-871.692,2017.71-874.753,2021.735Zm624.675-15.449q-3.248-3.864-6.594-7.644l1.517-1.342q3.361,3.8,6.627,7.685Zm-612.043-.33-1.549-1.306q3.274-3.883,6.64-7.684l1.519,1.341Q-858.862,2002.091-862.121,2005.956Zm598.664-14.793q-3.44-3.7-6.971-7.309l1.449-1.417q3.549,3.628,7.005,7.345Zm-585.258-.331-1.482-1.38q3.462-3.713,7.015-7.339l1.449,1.417Q-845.269,1987.137-848.714,1990.832Zm571.132-14.109q-3.622-3.523-7.331-6.951l1.375-1.487q3.727,3.446,7.37,6.986Zm-556.988-.317-1.412-1.453q3.644-3.533,7.374-6.976l1.375,1.489Q-830.945,1972.89-834.57,1976.406Zm542.151-13.4q-3.794-3.335-7.674-6.574l1.3-1.556q3.9,3.256,7.713,6.611Zm-527.306-.29-1.335-1.524q3.812-3.345,7.711-6.592l1.3,1.556Q-815.93,1959.388-819.725,1962.715Zm511.792-12.665q-3.959-3.143-8-6.185l1.219-1.619q4.06,3.06,8.039,6.216Zm-496.285-.261-1.258-1.586q3.975-3.149,8.031-6.2l1.217,1.619Q-800.262,1946.66-804.218,1949.789Zm480.135-11.9q-4.111-2.939-8.3-5.774l1.135-1.678q4.21,2.85,8.345,5.8Zm-464-.219-1.177-1.651q4.127-2.939,8.329-5.781l1.134,1.679Q-783.979,1934.737-788.084,1937.666Zm447.253-11.121q-4.256-2.727-8.588-5.351l1.052-1.733q4.35,2.634,8.628,5.377Zm-430.539-.174-1.091-1.706q4.267-2.73,8.6-5.353l1.049,1.732Q-767.125,1923.657-771.371,1926.371Zm413.231-10.3q-4.388-2.512-8.849-4.911l.961-1.784q4.481,2.413,8.895,4.938Zm-395.977-.129-1-1.76q4.4-2.508,8.859-4.911l.961,1.785Q-749.741,1913.442-754.117,1915.937Zm378.155-9.469q-4.515-2.282-9.092-4.456l.868-1.832q4.6,2.184,9.136,4.479Zm-360.4-.075-.914-1.809q4.515-2.282,9.093-4.453l.868,1.833Q-731.874,1904.123-736.366,1906.393Zm342.108-8.607q-4.624-2.05-9.309-3.988l.773-1.872q4.711,1.944,9.358,4.009Zm-323.906-.021-.821-1.853q4.622-2.051,9.3-3.984l.773,1.871Q-713.567,1895.725-718.164,1897.765Zm18.64-7.7-.727-1.891q4.734-1.817,9.524-3.521l.678,1.908Q-694.815,1888.253-699.525,1890.06Zm286.544-.013q-4.721-1.821-9.5-3.513l.677-1.911q4.808,1.706,9.556,3.531Zm-267.507-6.749-.629-1.927q4.82-1.574,9.692-3.03l.579,1.942Q-675.693,1881.73-680.488,1883.3Zm248.405-.029q-4.794-1.566-9.643-3.013l.579-1.942q4.871,1.457,9.691,3.027Zm-229.046-5.752-.53-1.956q4.891-1.326,9.833-2.53l.479,1.966Q-656.262,1876.193-661.129,1877.517Zm209.686-.028q-4.865-1.318-9.783-2.518l.48-1.966q4.94,1.205,9.833,2.528Zm-190.061-4.762-.431-1.979q4.954-1.077,9.949-2.032l.38,1.991Q-636.576,1871.654-641.5,1872.727Zm170.433-.02q-4.926-1.069-9.9-2.016l.38-1.991q5,.954,9.948,2.028Zm-150.587-3.767-.331-2q5-.825,10.039-1.523l.278,2.006Q-616.685,1868.12-621.658,1868.939Zm130.741-.016q-4.972-.819-9.988-1.512l.277-2.006q5.041.695,10.04,1.519Zm-110.733-2.756-.227-2.014q5.031-.568,10.1-1.016l.178,2.019Q-596.641,1865.6-601.65,1866.167Zm90.722-.012q-5.006-.566-10.052-1.007l.177-2.019q5.071.443,10.1,1.012Zm-70.6-1.754-.127-2.022q5.053-.315,10.141-.507l.075,2.027Q-576.493,1864.086-581.523,1864.4Zm50.468-.005q-5.029-.315-10.089-.5l.075-2.027q5.085.19,10.139.505Zm-20.187-.749c-3.362-.044-6.74-.044-10.1,0l-.026-2.027c3.381-.043,6.777-.043,10.155,0Z" transform="translate(13428.238 3834.924)" opacity="0.3" fill="url(#linear-gradient)"/>
    <path id="Path_65909" data-name="Path 65909" d="M-637.909,2239.563a57.878,57.878,0,0,1-57.813-57.813,57.877,57.877,0,0,1,57.813-57.812A57.877,57.877,0,0,1-580.1,2181.75,57.878,57.878,0,0,1-637.909,2239.563Zm0-114.254a56.505,56.505,0,0,0-56.442,56.441,56.507,56.507,0,0,0,56.442,56.443,56.505,56.505,0,0,0,56.441-56.443A56.5,56.5,0,0,0-637.909,2125.309Z" transform="translate(13509.909 3914.455)" fill="url(#linear-gradient)"/>
  </g>
</svg>
