<svg xmlns="http://www.w3.org/2000/svg" xmlns:xlink="http://www.w3.org/1999/xlink" width="247.363" height="247.366" viewBox="0 0 247.363 247.366">
  <defs>
    <linearGradient id="linear-gradient" y1="0.5" x2="1" y2="0.5" gradientUnits="objectBoundingBox">
      <stop offset="0" stop-color="#7cf95b"/>
      <stop offset="0.136" stop-color="#76ee7c"/>
      <stop offset="0.436" stop-color="#68d4d2"/>
      <stop offset="0.522" stop-color="#64cdec"/>
      <stop offset="1" stop-color="#3172f5"/>
    </linearGradient>
  </defs>
  <path id="Path_65910" data-name="Path 65910" d="M-619.858,2323.249c-1.912-.014-3.827-.038-5.73-.119l.06-1.371c1.88.081,3.776.1,5.668.119q.574,0,1.145-.007l.016,1.371Q-619.278,2323.248-619.858,2323.249Zm8.043-.273-.09-1.368c2.26-.148,4.543-.363,6.781-.636l.166,1.36C-607.221,2322.609-609.528,2322.826-611.815,2322.976Zm-20.643-.34c-2.28-.225-4.578-.518-6.833-.869l.211-1.356c2.229.348,4.5.639,6.758.861Zm34.311-1.328-.241-1.35c2.23-.4,4.473-.866,6.669-1.387l.317,1.332C-593.624,2320.431-595.892,2320.9-598.147,2321.308Zm-47.917-.789c-2.232-.479-4.484-1.027-6.695-1.63l.362-1.323c2.185.6,4.412,1.139,6.619,1.611Zm61.315-2.4-.391-1.314c2.162-.642,4.34-1.357,6.471-2.125l.465,1.29C-580.359,2316.749-582.562,2317.473-584.748,2318.122Zm-74.6-1.232c-2.175-.728-4.356-1.527-6.481-2.373l.507-1.275c2.1.838,4.258,1.627,6.41,2.347Zm87.55-3.424-.536-1.261c2.074-.882,4.155-1.834,6.183-2.832l.606,1.228C-567.6,2311.611-569.7,2312.576-571.8,2313.466Zm-100.369-1.683c-2.074-.963-4.149-2-6.171-3.083l.647-1.208c2,1.069,4.052,2.094,6.1,3.049Zm112.708-4.39-.673-1.194c1.978-1.116,3.941-2.3,5.834-3.5l.739,1.153C-555.478,2305.072-557.462,2306.264-559.462,2307.393Zm-124.867-2.113c-1.957-1.191-3.905-2.452-5.787-3.749l.777-1.129c1.861,1.283,3.787,2.53,5.721,3.709Zm136.46-5.3-.8-1.11c1.844-1.332,3.664-2.724,5.412-4.134l.862,1.065C-544.162,2297.229-546,2298.636-547.869,2299.981Zm-147.815-2.512c-1.793-1.388-3.587-2.854-5.334-4.365l.9-1.035c1.728,1.492,3.5,2.944,5.276,4.315Zm158.522-6.143-.92-1.018c1.679-1.517,3.336-3.1,4.924-4.706l.975.963C-533.79,2288.19-535.465,2289.791-537.162,2291.326ZM-706.1,2288.45c-1.649-1.6-3.268-3.254-4.815-4.927l1.007-.931c1.528,1.655,3.131,3.294,4.762,4.872Zm178.625-6.914-1.025-.91c1.5-1.687,2.969-3.448,4.375-5.225l1.075.853C-524.472,2278.051-525.96,2279.827-527.475,2281.536Zm-187.975-3.2c-1.458-1.763-2.885-3.587-4.24-5.425l1.1-.814c1.339,1.818,2.75,3.623,4.193,5.366Zm196.526-7.609-1.121-.79c1.308-1.854,2.577-3.767,3.771-5.68l1.164.725C-516.32,2266.922-517.6,2268.854-518.924,2270.731Zm-204.7-3.467c-1.255-1.918-2.47-3.889-3.609-5.86l1.186-.685c1.128,1.948,2.329,3.9,3.571,5.792Zm212-8.227-1.2-.658c1.092-1.991,2.141-4.034,3.116-6.07l1.238.591C-509.458,2254.961-510.518,2257.025-511.623,2259.037Zm-218.888-3.684c-1.032-2.038-2.019-4.131-2.933-6.222l1.255-.548c.9,2.066,1.881,4.135,2.9,6.152Zm224.842-8.756-1.268-.522c.861-2.09,1.675-4.239,2.419-6.382l1.294.45C-503.975,2242.309-504.8,2244.481-505.668,2246.6Zm-230.356-3.834c-.8-2.141-1.546-4.334-2.223-6.52l1.309-.407c.67,2.162,1.411,4.332,2.2,6.448Zm234.878-9.191-1.319-.376c.622-2.181,1.188-4.4,1.685-6.6l1.338.3C-499.945,2229.121-500.518,2231.366-501.146,2233.572Zm-238.958-3.965c-.554-2.225-1.053-4.488-1.479-6.728l1.347-.256c.421,2.215.913,4.453,1.463,6.652Zm241.987-9.468-1.352-.228c.373-2.226.688-4.5.938-6.747l1.362.151C-497.42,2215.592-497.74,2217.886-498.117,2220.139Zm-244.567-4.06c-.3-2.264-.546-4.569-.721-6.851l1.367-.1c.174,2.255.413,4.536.713,6.773Zm246.081-9.628-1.368-.075c.123-2.254.186-4.543.186-6.81,0-1.812-.04-3.655-.119-5.476l1.369-.06c.081,1.842.122,3.705.121,5.537C-496.413,2201.856-496.476,2204.174-496.6,2206.45Zm-247.144-4.1q-.031-1.386-.03-2.784,0-2.062.066-4.107l1.369.045q-.064,2.024-.064,4.062,0,1.381.03,2.754Zm1.816-13.644-1.365-.119c.2-2.278.467-4.58.792-6.844l1.358.2C-741.468,2184.176-741.731,2186.453-741.93,2188.705Zm243.537-1.41c-.223-2.254-.514-4.528-.864-6.758l1.356-.211c.351,2.255.646,4.554.872,6.833Zm-241.591-12.07-1.345-.27c.451-2.236.973-4.492,1.553-6.711l1.325.346C-739.021,2170.784-739.538,2173.017-739.983,2175.225Zm239.49-1.384c-.474-2.215-1.017-4.441-1.612-6.619l1.323-.362c.6,2.2,1.15,4.455,1.63,6.695Zm-236.05-11.794-1.306-.419c.7-2.173,1.474-4.363,2.3-6.51l1.279.492C-735.088,2157.733-735.853,2159.9-736.544,2162.047Zm232.458-1.344c-.716-2.135-1.5-4.287-2.344-6.4l1.273-.508c.85,2.131,1.648,4.308,2.37,6.47Zm-227.553-11.388-1.249-.563c.938-2.084,1.952-4.171,3.012-6.207l1.216.632C-729.71,2145.191-730.712,2147.257-731.64,2149.316Zm222.517-1.252c-.953-2.048-1.975-4.1-3.039-6.087l1.209-.646c1.076,2.014,2.11,4.083,3.073,6.155Zm-216.223-10.847-1.177-.7c1.168-1.967,2.407-3.928,3.683-5.83l1.138.764C-722.963,2133.333-724.188,2135.273-725.345,2137.218Zm209.808-1.15c-1.168-1.922-2.412-3.845-3.7-5.714l1.13-.776c1.3,1.89,2.559,3.835,3.741,5.779Zm-202.207-10.163-1.094-.828c1.379-1.824,2.828-3.634,4.307-5.379l1.046.885C-714.948,2122.31-716.382,2124.1-717.744,2125.905Zm194.5-1.052c-1.382-1.79-2.832-3.564-4.311-5.272l1.036-.9c1.5,1.727,2.961,3.521,4.36,5.332ZM-708.94,2115.5l-1-.942c1.579-1.67,3.219-3.308,4.873-4.87l.94,1C-705.757,2112.234-707.378,2113.854-708.94,2115.5Zm176.783-.95c-1.578-1.633-3.216-3.235-4.869-4.765l.929-1.006c1.674,1.547,3.329,3.168,4.925,4.817Zm-166.888-8.408-.886-1.047c1.737-1.468,3.546-2.916,5.379-4.3l.825,1.091C-695.537,2103.262-697.328,2104.693-699.045,2106.146Zm156.891-.847c-1.745-1.443-3.552-2.856-5.369-4.2l.814-1.1c1.838,1.357,3.664,2.785,5.43,4.244Zm-146.026-7.356-.764-1.138c1.9-1.276,3.857-2.513,5.819-3.677l.7,1.177C-684.366,2095.457-686.3,2096.681-688.181,2097.942Zm135.061-.738c-1.9-1.242-3.849-2.447-5.8-3.579l.687-1.186c1.977,1.145,3.95,2.363,5.868,3.62ZM-676.48,2091l-.633-1.216c2.016-1.048,4.1-2.059,6.189-3l.565,1.25C-672.428,2088.961-674.487,2089.959-676.48,2091Zm111.56-.618c-2.015-1.021-4.09-2-6.171-2.911l.55-1.256c2.1.921,4.2,1.912,6.241,2.943Zm-99.167-4.973-.493-1.281c2.123-.817,4.308-1.59,6.495-2.3l.422,1.3C-659.827,2083.832-661.989,2084.6-664.087,2085.406Zm86.67-.5c-2.127-.792-4.3-1.534-6.462-2.2l.406-1.309c2.184.676,4.382,1.424,6.534,2.226Zm-73.708-3.682-.347-1.325c2.218-.58,4.475-1.1,6.711-1.556l.271,1.343C-646.7,2080.134-648.933,2080.652-651.126,2081.225Zm60.685-.35c-2.184-.546-4.422-1.036-6.654-1.461l.256-1.346c2.256.429,4.521.925,6.729,1.478Zm-47.337-2.351-.2-1.358c2.259-.326,4.56-.594,6.841-.8l.122,1.365C-633.268,2077.935-635.545,2078.2-637.778,2078.524Zm33.958-.2c-2.236-.3-4.515-.537-6.774-.711l.1-1.367c2.285.176,4.591.418,6.85.719Zm-20.392-1-.047-1.371c2.288-.077,4.6-.092,6.891-.04l-.031,1.371C-619.666,2077.233-621.95,2077.248-624.211,2077.324Z" transform="translate(743.776 -2075.883)" fill="url(#linear-gradient)"/>
</svg>
