<svg xmlns="http://www.w3.org/2000/svg" width="69.25" height="69.25" viewBox="0 0 69.25 69.25">
  <g id="Group_36639" data-name="Group 36639" transform="translate(71.129 1135.521)">
    <ellipse id="Ellipse_1408" data-name="Ellipse 1408" cx="34.625" cy="34.625" rx="34.625" ry="34.625" transform="translate(-71.129 -1135.521)" fill="#fff" opacity="0.4"/>
    <circle id="Ellipse_1409" data-name="Ellipse 1409" cx="32.908" cy="32.908" r="32.908" transform="translate(-69.412 -1133.803)" fill="#fff" opacity="0.4"/>
    <g id="Group_36344" data-name="Group 36344" transform="translate(-67.944 -1132.334)">
      <g id="Group_36342" data-name="Group 36342">
        <circle id="Ellipse_1410" data-name="Ellipse 1410" cx="31.101" cy="31.101" r="31.101" transform="translate(0.339 0.338)" fill="#ffc809"/>
        <path id="Path_66038" data-name="Path 66038" d="M-37.333-1070.286a31.475,31.475,0,0,1-31.44-31.439,31.475,31.475,0,0,1,31.44-31.439,31.474,31.474,0,0,1,31.439,31.439A31.474,31.474,0,0,1-37.333-1070.286Zm0-62.2A30.8,30.8,0,0,0-68.1-1101.725a30.8,30.8,0,0,0,30.764,30.763A30.8,30.8,0,0,0-6.57-1101.725,30.8,30.8,0,0,0-37.333-1132.488Z" transform="translate(68.773 1133.164)" fill="#fff"/>
      </g>
      <g id="Group_36343" data-name="Group 36343" transform="translate(13.997 11.61)">
        <path id="Path_66039" data-name="Path 66039" d="M-42.694-1124.577l8.546,4.97,2.119,1.237c-1.322.768-2.549,1.487-3.784,2.19-.32.181-.554-.1-.8-.235-1.847-1.057-3.7-2.108-5.524-3.2a1.094,1.094,0,0,0-1.287.012c-1.828,1.088-3.687,2.125-5.518,3.211a.978.978,0,0,1-1.155.019c-1.083-.665-2.194-1.284-3.418-1.993,1.14-.664,2.185-1.27,3.227-1.877q3.715-2.166,7.429-4.335Z" transform="translate(60.148 1124.577)" fill="#fff"/>
        <path id="Path_66040" data-name="Path 66040" d="M-46.718-1101.32c0-1.09-.023-2.179.011-3.269a.911.911,0,0,0-.548-.936c-1.9-1.07-3.78-2.182-5.688-3.242a.968.968,0,0,1-.577-1c.032-1.115.03-2.232,0-3.349a.86.86,0,0,1,.544-.864c.956-.525,1.906-1.062,2.83-1.639a1.03,1.03,0,0,1,1.23-.005c1.8,1.075,3.649,2.088,5.453,3.167a1.125,1.125,0,0,0,1.352.025c1.846-1.111,3.736-2.15,5.595-3.241a.856.856,0,0,1,1.013,0c.976.595,1.973,1.161,2.979,1.7a.867.867,0,0,1,.5.895c-.022,1.09-.034,2.181,0,3.269a1.021,1.021,0,0,1-.608,1.067c-1.885,1.045-3.734,2.155-5.615,3.206a.982.982,0,0,0-.592,1c.027,2.152,0,4.306.023,6.459a.97.97,0,0,1-.562,1.009c-.963.514-1.914,1.049-2.838,1.629a.949.949,0,0,1-1.151-.023c-.9-.559-1.824-1.1-2.766-1.592a1,1,0,0,1-.6-1.068C-46.691-1099.192-46.718-1100.256-46.718-1101.32Z" transform="translate(60.145 1127.651)" fill="#fff"/>
        <path id="Path_66041" data-name="Path 66041" d="M-29.834-1111.382c0,4.1,0,8.03,0,11.961a.59.59,0,0,1-.307.59c-3.43,1.971-6.856,3.949-10.419,6,0-1.528.007-2.92,0-4.312,0-.387.306-.464.548-.6,1.864-1.079,3.725-2.165,5.607-3.214a1.034,1.034,0,0,0,.608-1.064c-.032-2.151,0-4.3-.024-6.456a.906.906,0,0,1,.539-.932C-32.165-1110.015-31.074-1110.668-29.834-1111.382Z" transform="translate(64.708 1129.222)" fill="#fff"/>
        <path id="Path_66042" data-name="Path 66042" d="M-58.4-1099q0-5.794-.007-11.587c0-.229-.073-.484.155-.662,1.063.6,2.115,1.222,3.191,1.8a.91.91,0,0,1,.526.943c-.022,2.177,0,4.354-.02,6.529a.925.925,0,0,0,.544.94c1.878,1.052,3.733,2.142,5.608,3.2a1.1,1.1,0,0,1,.667,1.125c-.049,1.236-.015,2.476-.015,3.878Z" transform="translate(58.42 1129.27)" fill="#fff"/>
        <path id="Path_66043" data-name="Path 66043" d="M-38.515-1116.524c1.317-.762,2.49-1.432,3.65-2.123a.62.62,0,0,1,.725.031c1.029.609,2.063,1.208,3.11,1.787a.792.792,0,0,1,.487.8c-.03,1.193-.02,2.388,0,3.582a.688.688,0,0,1-.4.7c-1.156.646-2.3,1.319-3.587,2.063,0-1.363-.032-2.616.015-3.867a1,1,0,0,0-.618-1.052C-36.231-1115.192-37.3-1115.83-38.515-1116.524Z" transform="translate(65.428 1126.629)" fill="#fff"/>
        <path id="Path_66044" data-name="Path 66044" d="M-48.487-1099.854c1.184.672,2.269,1.232,3.289,1.89a1.085,1.085,0,0,0,1.355-.016c1.013-.63,2.062-1.2,3.234-1.873,0,1.555,0,2.992,0,4.43,0,.266-.264.319-.433.419-1.009.595-2.032,1.163-3.037,1.762a.768.768,0,0,1-.884.01q-1.545-.913-3.114-1.787a.689.689,0,0,1-.416-.685C-48.473-1097.031-48.487-1098.359-48.487-1099.854Z" transform="translate(61.914 1133.281)" fill="#fff"/>
        <path id="Path_66045" data-name="Path 66045" d="M-58.417-1111.947l0-4.634c1.145-.672,2.292-1.341,3.434-2.019a.629.629,0,0,1,.73-.053c1.186.7,2.384,1.38,3.669,2.119-1.186.688-2.262,1.356-3.381,1.943a1,1,0,0,0-.6,1.067c.032,1.236.011,2.473.011,3.861Z" transform="translate(58.421 1126.629)" fill="#fff"/>
        <path id="Path_66046" data-name="Path 66046" d="M-49.481-1101.636c-1.356-.78-2.566-1.48-3.78-2.174-.256-.146-.25-.377-.25-.619,0-1.165.018-2.332-.007-3.5-.014-.589.211-.531.6-.3q1.507.89,3.031,1.752a.649.649,0,0,1,.414.61C-49.487-1104.52-49.481-1103.172-49.481-1101.636Z" transform="translate(60.146 1130.275)" fill="#fff"/>
        <path id="Path_66047" data-name="Path 66047" d="M-40.54-1116.527c-1.284.745-2.476,1.435-3.664,2.13a.517.517,0,0,1-.584.024c-1.21-.707-2.427-1.4-3.728-2.148,1.3-.752,2.517-1.452,3.73-2.163a.456.456,0,0,1,.515.007C-43.056-1117.973-41.837-1117.275-40.54-1116.527Z" transform="translate(61.907 1126.624)" fill="#fff"/>
        <path id="Path_66048" data-name="Path 66048" d="M-40.556-1101.671c0-1.5.011-2.82-.008-4.147a.68.68,0,0,1,.4-.688q1.533-.852,3.041-1.748c.441-.262.535-.116.529.331-.015,1.168-.007,2.335,0,3.5a.639.639,0,0,1-.323.661C-38.092-1103.1-39.255-1102.42-40.556-1101.671Z" transform="translate(64.706 1130.277)" fill="#fff"/>
      </g>
    </g>
  </g>
</svg>
