<svg xmlns="http://www.w3.org/2000/svg" width="70" height="70" viewBox="0 0 70 70">
  <g id="Group_36640" data-name="Group 36640" transform="translate(-833 -5271)">
    <g id="Group_36339" data-name="Group 36339" transform="translate(-65 -26)">
      <circle id="Ellipse_1406" data-name="Ellipse 1406" cx="33" cy="33" r="33" transform="translate(900 5299)" fill="#fff" opacity="0.4"/>
      <circle id="Ellipse_1407" data-name="Ellipse 1407" cx="35" cy="35" r="35" transform="translate(898 5297)" fill="#fff" opacity="0.4"/>
    </g>
    <g id="Group_36241" data-name="Group 36241" transform="translate(836.47 5274.47)">
      <g id="Group_36240" data-name="Group 36240">
        <circle id="Ellipse_1309" data-name="Ellipse 1309" cx="31.188" cy="31.188" r="31.188" transform="translate(0.343 0.342)" fill="#2a5ad8"/>
        <path id="Path_65913" data-name="Path 65913" d="M-749.756,2295.9a31.566,31.566,0,0,1-31.531-31.53,31.566,31.566,0,0,1,31.531-31.531,31.566,31.566,0,0,1,31.53,31.531A31.566,31.566,0,0,1-749.756,2295.9Zm0-62.375a30.881,30.881,0,0,0-30.845,30.845,30.88,30.88,0,0,0,30.845,30.844,30.879,30.879,0,0,0,30.844-30.844A30.88,30.88,0,0,0-749.756,2233.528Z" transform="translate(781.287 -2232.843)" fill="#fff"/>
      </g>
      <path id="Path_65914" data-name="Path 65914" d="M-739.817,2252.159a.326.326,0,0,0-.192-.326q-7.081-4.063-14.158-8.135a.347.347,0,0,0-.4.008q-7.046,4.094-14.1,8.179a.391.391,0,0,0-.222.4q.008,4.067,0,8.131c0,2.711,0,5.421-.006,8.131a.39.39,0,0,0,.23.395q7.044,4.036,14.079,8.089a.411.411,0,0,0,.484-.006q1.9-1.118,3.818-2.222l10.2-5.917c.148-.086.265-.153.265-.373Q-739.828,2260.335-739.817,2252.159Zm-6.419,13.187q-3.927,2.274-7.842,4.57a.409.409,0,0,1-.482-.008q-3.954-2.283-7.92-4.551a.388.388,0,0,1-.228-.395c.01-1.524.005-3.049.005-4.574s.005-3.028-.007-4.543a.437.437,0,0,1,.259-.438q3.954-2.286,7.9-4.592a.34.34,0,0,1,.4,0q3.958,2.28,7.926,4.541a.454.454,0,0,1,.262.466q-.012,4.528,0,9.058A.461.461,0,0,1-746.236,2265.345Z" transform="translate(785.883 -2228.842)" fill="#fdfdfd"/>
    </g>
  </g>
</svg>
