<svg xmlns="http://www.w3.org/2000/svg" width="70" height="70" viewBox="0 0 70 70">
  <g id="Group_36857" data-name="Group 36857" transform="translate(-1087.961 -5227.961)">
    <g id="Group_36817" data-name="Group 36817" transform="translate(-49.247 -70.91)">
      <circle id="Ellipse_1405" data-name="Ellipse 1405" cx="33" cy="33" r="33" transform="translate(1139.208 5300.871)" fill="#fff" opacity="0.4"/>
      <circle id="Ellipse_1384" data-name="Ellipse 1384" cx="35" cy="35" r="35" transform="translate(1137.208 5298.871)" fill="#fff" opacity="0.4"/>
    </g>
    <g id="Group_36816" data-name="Group 36816" transform="translate(670.975 2153.672)">
      <circle id="Ellipse_1446" data-name="Ellipse 1446" cx="31.006" cy="31.006" r="31.006" transform="translate(420.98 3078.283)" fill="#004dfe" stroke="#fff" stroke-width="0.5"/>
      <path id="Path_76521" data-name="Path 76521" d="M585.414,3224.971c-1.365,0-2.73-.027-4.094.012-.67.019-1.011-.136-1.2-.871a9.837,9.837,0,0,0-10.3-7.478,10.012,10.012,0,1,0,10.252,12.728c.229-.853.509-1.131,1.381-1.113,2.687.056,5.376.046,8.064,0,.8-.012,1.1.16.967,1.027a20.189,20.189,0,1,1-24.366-22.39c10.948-2.5,22.483,5.161,24.176,16.225.284,1.855.284,1.855-1.646,1.855Z" transform="translate(-118.409 -117.315)" fill="#fefefe"/>
    </g>
  </g>
</svg>
