<svg xmlns="http://www.w3.org/2000/svg" width="71.626" height="71.626" viewBox="0 0 71.626 71.626">
  <g id="Group_41432" data-name="Group 41432" transform="translate(-1545 -7162)">
    <g id="Group_36339" data-name="Group 36339" transform="translate(647 1865)">
      <circle id="Ellipse_1406" data-name="Ellipse 1406" cx="33.767" cy="33.767" r="33.767" transform="translate(900.046 5299.047)" fill="#fff" opacity="0.4"/>
      <circle id="Ellipse_1407" data-name="Ellipse 1407" cx="35.813" cy="35.813" r="35.813" transform="translate(898 5297)" fill="#fff" opacity="0.4"/>
      <circle id="Ellipse_1407-2" data-name="Ellipse 1407" cx="31.72" cy="31.72" r="31.72" transform="translate(902.093 5301.093)" fill="#fff" opacity="0.995"/>
    </g>
    <g id="Group_41295" data-name="Group 41295" transform="translate(1357.514 7112.026)">
      <circle id="Ellipse_1735" data-name="Ellipse 1735" cx="31.311" cy="31.311" r="31.311" transform="translate(191.988 54.476)" fill="#fff"/>
      <path id="Path_63626" data-name="Path 63626" d="M195.509,80.264l14.648,8.647V56.072Z" transform="translate(13.143 5.959)" fill="#8892b5"/>
      <path id="Path_63627" data-name="Path 63627" d="M213.251,80.264,198.6,88.912V56.072Z" transform="translate(24.696 5.959)" fill="#616892"/>
      <path id="Path_63628" data-name="Path 63628" d="M195.509,66.4l14.648-6.615V75.047Z" transform="translate(13.143 19.823)" fill="#616892"/>
      <path id="Path_63629" data-name="Path 63629" d="M198.6,75.047,213.251,66.4,198.6,59.785Z" transform="translate(24.696 19.823)" fill="#444978"/>
      <path id="Path_63630" data-name="Path 63630" d="M195.509,61.791l14.648,8.789V82.228Z" transform="translate(13.143 27.314)" fill="#8892b5"/>
      <path id="Path_63631" data-name="Path 63631" d="M213.251,61.791,198.6,70.58V82.228Z" transform="translate(24.696 27.314)" fill="#616892"/>
    </g>
  </g>
</svg>
