<svg xmlns="http://www.w3.org/2000/svg" xmlns:xlink="http://www.w3.org/1999/xlink" width="52.684" height="71.648" viewBox="0 0 52.684 71.648">
  <defs>
    <filter id="Path_73823" x="0" y="0" width="28.273" height="71.648" filterUnits="userSpaceOnUse">
      <feOffset input="SourceAlpha"/>
      <feGaussianBlur stdDeviation="0.5" result="blur"/>
      <feFlood flood-color="#fff" flood-opacity="0.38"/>
      <feComposite operator="in" in2="blur"/>
      <feComposite in="SourceGraphic"/>
    </filter>
    <filter id="Path_73824" x="40.095" y="2.355" width="11.105" height="11.105" filterUnits="userSpaceOnUse">
      <feOffset input="SourceAlpha"/>
      <feGaussianBlur stdDeviation="0.5" result="blur-2"/>
      <feFlood flood-color="#fff" flood-opacity="0.38"/>
      <feComposite operator="in" in2="blur-2"/>
      <feComposite in="SourceGraphic"/>
    </filter>
    <filter id="Path_73825" x="38.978" y="1.238" width="13.34" height="13.34" filterUnits="userSpaceOnUse">
      <feOffset input="SourceAlpha"/>
      <feGaussianBlur stdDeviation="0.5" result="blur-3"/>
      <feFlood flood-color="#fff" flood-opacity="0.38"/>
      <feComposite operator="in" in2="blur-3"/>
      <feComposite in="SourceGraphic"/>
    </filter>
    <filter id="Path_73826" x="13.514" y="19.019" width="39.17" height="52.625" filterUnits="userSpaceOnUse">
      <feOffset input="SourceAlpha"/>
      <feGaussianBlur stdDeviation="0.5" result="blur-4"/>
      <feFlood flood-color="#fff" flood-opacity="0.38"/>
      <feComposite operator="in" in2="blur-4"/>
      <feComposite in="SourceGraphic"/>
    </filter>
  </defs>
  <g id="Group_41503" data-name="Group 41503" transform="translate(-4613.266 -7259.529)">
    <g id="Group_41502" data-name="Group 41502" transform="translate(4985.372 7007.882)">
      <g id="Group_41494" data-name="Group 41494" transform="translate(-370.606 253.147)">
        <g id="Group_41493" data-name="Group 41493" transform="translate(0 0)">
          <g transform="matrix(1, 0, 0, 1, -1.5, -1.5)" filter="url(#Path_73823)">
            <path id="Path_73823-2" data-name="Path 73823" d="M-357.963,321.8h-12.643V277.782a24.693,24.693,0,0,1,7.332-17.415,24.684,24.684,0,0,1,17.467-7.22h.474v12.117l-.429,0a12.354,12.354,0,0,0-11.972,9.939,24.807,24.807,0,0,1,11.968-3.067h.434V284.7l-.43,0a12.3,12.3,0,0,0-7.867,2.938,12.32,12.32,0,0,0-4.334,9.226v.009c0,.049,0,.1,0,.15s0,.1,0,.148Zm-11.776-.867h10.909V297.187c0-.045,0-.1,0-.163s0-.117,0-.174a13.186,13.186,0,0,1,4.638-9.871,13.167,13.167,0,0,1,7.992-3.134V273.011a23.912,23.912,0,0,0-11.881,3.4l-.761.457.107-.881a13.218,13.218,0,0,1,12.534-11.57V254.018a23.815,23.815,0,0,0-16.464,6.964,23.83,23.83,0,0,0-7.076,16.8Z" transform="translate(372.11 -251.65)" fill="#fff"/>
          </g>
        </g>
      </g>
      <g id="Group_41495" data-name="Group 41495" transform="translate(-330.511 255.502)">
        <g transform="matrix(1, 0, 0, 1, -41.6, -3.86)" filter="url(#Path_73824)">
          <path id="Path_73824-2" data-name="Path 73824" d="M-181.575,272.117a4.057,4.057,0,0,1-4.053-4.053,4.057,4.057,0,0,1,4.053-4.053,4.057,4.057,0,0,1,4.053,4.053A4.057,4.057,0,0,1-181.575,272.117Zm0-7.672a3.623,3.623,0,0,0-3.619,3.619,3.623,3.623,0,0,0,3.619,3.619,3.623,3.623,0,0,0,3.619-3.619A3.623,3.623,0,0,0-181.575,264.445Z" transform="translate(227.22 -260.16)" fill="#fff"/>
        </g>
      </g>
      <g id="Group_41496" data-name="Group 41496" transform="translate(-331.628 254.385)">
        <g transform="matrix(1, 0, 0, 1, -40.48, -2.74)" filter="url(#Path_73825)">
          <path id="Path_73825-2" data-name="Path 73825" d="M-185.613,269.2a5.176,5.176,0,0,1-5.17-5.17,5.176,5.176,0,0,1,5.17-5.17,5.176,5.176,0,0,1,5.17,5.17A5.176,5.176,0,0,1-185.613,269.2Zm0-9.907a4.742,4.742,0,0,0-4.737,4.737,4.742,4.742,0,0,0,4.737,4.737,4.742,4.742,0,0,0,4.737-4.737A4.742,4.742,0,0,0-185.613,259.29Z" transform="translate(231.26 -256.12)" fill="#fff"/>
        </g>
      </g>
      <g transform="matrix(1, 0, 0, 1, -372.11, 251.65)" filter="url(#Path_73826)">
        <path id="Path_73826-2" data-name="Path 73826" d="M-296.976,390.513c-.713,0-1.446-.023-2.179-.069l-.036,0a24.566,24.566,0,0,1-8.83-2.5l-.24-.12V370.59l.807,1.377a12.4,12.4,0,0,0,10.589,6.1c.119,0,.241,0,.36,0l.046,0a12.271,12.271,0,0,0,11.851-10.6,11.944,11.944,0,0,0,.119-1.558v-.162a12.315,12.315,0,0,0-4.332-9.385,12.238,12.238,0,0,0-6.47-2.848l-.381-.047V340.888l.463.032a24.84,24.84,0,0,1,11.309,3.632,24.79,24.79,0,0,1,9.832,11.431l.022.049a24.708,24.708,0,0,1,1.953,9.671c0,.071,0,.148,0,.221a24.792,24.792,0,0,1-22.3,24.491l-.03,0C-295.272,390.481-296.131,390.513-296.976,390.513Zm-2.153-.936h.015a33.5,33.5,0,0,0,4.644-.026h0a23.929,23.929,0,0,0,21.508-23.644c0-.075,0-.142,0-.2a23.841,23.841,0,0,0-1.882-9.328l-.021-.048a23.934,23.934,0,0,0-9.492-11.038,23.982,23.982,0,0,0-10.449-3.468V352.7a13.1,13.1,0,0,1,6.546,3,13.179,13.179,0,0,1,4.637,10.045v.167a12.92,12.92,0,0,1-.128,1.674,13.135,13.135,0,0,1-12.663,11.343.689.689,0,0,1-.072,0c-.121,0-.253,0-.384,0a13.277,13.277,0,0,1-10.528-5.315V387.28A23.7,23.7,0,0,0-299.129,389.577Z" transform="translate(323.27 -320.37)" fill="#fff"/>
      </g>
    </g>
  </g>
</svg>
