<svg xmlns="http://www.w3.org/2000/svg" width="70.167" height="70.167" viewBox="0 0 70.167 70.167">
  <g id="Group_36645" data-name="Group 36645" transform="translate(-754.93 -5353.929)">
    <g id="Group_36348" data-name="Group 36348" transform="translate(754.929 5353.929)">
      <circle id="Ellipse_1407" data-name="Ellipse 1407" cx="35.083" cy="35.083" r="35.083" transform="translate(0 0)" fill="#fff" opacity="0.4"/>
      <circle id="Ellipse_1406" data-name="Ellipse 1406" cx="32.957" cy="32.957" r="32.957" transform="translate(2.126 2.126)" fill="#fff" opacity="0.4"/>
      <circle id="Ellipse_1411" data-name="Ellipse 1411" cx="31.894" cy="31.894" r="31.894" transform="translate(3.189 3.189)" fill="#fff"/>
    </g>
    <g id="Group_36338" data-name="Group 36338" transform="translate(758.482 5357.483)">
      <g id="Group_36337" data-name="Group 36337" transform="translate(0 0)">
        <path id="Path_66033" data-name="Path 66033" d="M-16.946-1746.922h2.009a.124.124,0,0,1-.048.174,3.86,3.86,0,0,1-1.913,0A.125.125,0,0,1-16.946-1746.922Z" transform="translate(47.475 1746.922)" fill="#fe7d61"/>
        <path id="Path_66034" data-name="Path 66034" d="M-18.688-1746.922a.444.444,0,0,1-.009.1.452.452,0,0,1-.668,0,.284.284,0,0,0,.008-.1Z" transform="translate(49.217 1746.922)" fill="#feb5a6"/>
        <path id="Path_66035" data-name="Path 66035" d="M-9.58-1746.822a.858.858,0,0,1-.011-.1h.67a.6.6,0,0,0,.01.1A.448.448,0,0,1-9.58-1746.822Z" transform="translate(42.129 1746.922)" fill="#feb2a3"/>
        <path id="Path_66036" data-name="Path 66036" d="M-95.418-1746.568l.669,0a31.477,31.477,0,0,1,27.763,20.2,31.08,31.08,0,0,1,2.025,9.773c.006.147-.01.3-.016.444a.9.9,0,0,1-.567.325c-6,1.935-11.98,3.923-17.984,5.842-1.9.606-3.782,1.236-5.672,1.857q-7.922,2.605-15.852,5.186-8.376,2.743-16.756,5.473a.942.942,0,0,1-.648.092,28.435,28.435,0,0,1-3.652-7.072,30.57,30.57,0,0,1-1.837-9.432,30.87,30.87,0,0,1,7.531-21.706,30.913,30.913,0,0,1,17.453-10.368,24.983,24.983,0,0,1,4.845-.611l.669,0Z" transform="translate(127.967 1746.667)" fill="#fe522e"/>
        <path id="Path_66037" data-name="Path 66037" d="M-107.921-1617.136c1.873-.715,3.8-1.283,5.7-1.905q19.213-6.282,38.431-12.547,6.4-2.089,12.813-4.171c.176-.057.357-.1.535-.151A27.285,27.285,0,0,1-51.5-1626.4c-2.389,8.593-7.712,14.861-15.37,19.279a29.432,29.432,0,0,1-10.028,3.327,30,30,0,0,1-8.606.21,31.507,31.507,0,0,1-14.4-5.445,31.377,31.377,0,0,1-7.885-7.869A2.275,2.275,0,0,1-107.921-1617.136Z" transform="translate(113.431 1666.425)" fill="#2b2570"/>
      </g>
    </g>
  </g>
</svg>
