<svg xmlns="http://www.w3.org/2000/svg" width="70" height="70" viewBox="0 0 70 70">
  <g id="Group_36649" data-name="Group 36649" transform="translate(-13543 -6359)">
    <g id="Group_36648" data-name="Group 36648" transform="translate(13543 6359)">
      <circle id="Ellipse_1405" data-name="Ellipse 1405" cx="33" cy="33" r="33" transform="translate(2 2)" fill="#fff" opacity="0.4"/>
      <circle id="Ellipse_1384" data-name="Ellipse 1384" cx="35" cy="35" r="35" transform="translate(0)" fill="#fff" opacity="0.4"/>
    </g>
    <g id="Group_36646" data-name="Group 36646" transform="translate(13547 6363)">
      <path id="Path_66091" data-name="Path 66091" d="M1824.114-1329.276h-.306a4.478,4.478,0,0,0-.579-.015h-.535a22.526,22.526,0,0,1-3.742-.321,30.952,30.952,0,0,1-4.606-1.133,31.309,31.309,0,0,1-3.011-1.171,31.019,31.019,0,0,1-4.949-2.808,29.4,29.4,0,0,1-2.349-1.816c-.558-.479-1.106-.97-1.628-1.486a30.625,30.625,0,0,1-3.356-3.912,31.62,31.62,0,0,1-2.02-3.2,30.676,30.676,0,0,1-1.722-3.69,30.845,30.845,0,0,1-1.429-4.827c-.215-1.025-.37-2.059-.485-3.1-.052-.467-.057-.937-.073-1.407-.028-.815-.033-1.63-.027-2.445.005-.625.014-1.25.049-1.873.039-.7.135-1.391.241-2.082a30.322,30.322,0,0,1,.815-3.755,30.693,30.693,0,0,1,1.393-3.891,30.561,30.561,0,0,1,2.477-4.574,29.642,29.642,0,0,1,2.315-3.084q.575-.667,1.182-1.3a29.832,29.832,0,0,1,4.331-3.756,30.94,30.94,0,0,1,3.516-2.172,31.134,31.134,0,0,1,4.193-1.831,30.434,30.434,0,0,1,4.118-1.13,29.881,29.881,0,0,1,3.012-.447c.568-.055,1.138-.056,1.708-.075.7-.023,1.4-.024,2.1-.012s1.374.009,2.057.068c.828.072,1.652.188,2.473.331a30.513,30.513,0,0,1,4.639,1.192,30.8,30.8,0,0,1,3.052,1.234,30.86,30.86,0,0,1,3.991,2.238,28.469,28.469,0,0,1,2.709,2.026q.794.674,1.549,1.39a30.217,30.217,0,0,1,2.438,2.622,29.618,29.618,0,0,1,2.871,4.115,30.21,30.21,0,0,1,2.2,4.645,30.954,30.954,0,0,1,1.067,3.436,31.361,31.361,0,0,1,.685,3.78c.069.587.087,1.177.106,1.766.007.2.015.407.014.611v.5a1.345,1.345,0,0,0,.015.313v.8a1.312,1.312,0,0,0-.015.311v.494a22.523,22.523,0,0,1-.386,4.184,31.246,31.246,0,0,1-.993,4,31.66,31.66,0,0,1-1.426,3.634,30.752,30.752,0,0,1-2.567,4.471,29.049,29.049,0,0,1-2.058,2.647c-.538.615-1.087,1.22-1.673,1.788a32.6,32.6,0,0,1-2.674,2.335,30.727,30.727,0,0,1-3.851,2.555,30.348,30.348,0,0,1-4.193,1.945,30.908,30.908,0,0,1-3.48,1.08,32.107,32.107,0,0,1-3.75.679c-.588.071-1.178.085-1.768.106-.2.007-.408.015-.612.014h-.475A4.432,4.432,0,0,0,1824.114-1329.276Z" transform="translate(-1793.294 1390.597)" fill="#fe7f4e" stroke="#fff" stroke-width="0.8"/>
      <path id="Path_66092" data-name="Path 66092" d="M1950.776-1220.639c-.7,1.17-1.388,2.266-2.143,3.316a39.2,39.2,0,0,1-7.764,8.015c-.487.38-.687.349-1.032-.144q-2.164-3.09-4.328-6.18c-.479-.684-.465-.754.169-1.261a27.676,27.676,0,0,0,9.558-13.66,24.771,24.771,0,0,0,1.042-6.314c.022-.545.157-.69.7-.69q3.8,0,7.6,0c.525,0,.672.144.691.649a25.629,25.629,0,0,0,6.813,16.461,29.616,29.616,0,0,0,3.911,3.648c.449.35.479.548.15,1.02q-2.175,3.111-4.356,6.219c-.447.636-.592.657-1.192.186a38.325,38.325,0,0,1-9.643-10.978C1950.913-1220.423,1950.869-1220.49,1950.776-1220.639Z" transform="translate(-1920.11 1253.965)" fill="#fff"/>
    </g>
  </g>
</svg>
