<svg xmlns="http://www.w3.org/2000/svg" width="70" height="70" viewBox="0 0 70 70">
  <g id="Group_36854" data-name="Group 36854" transform="translate(-710 -4996)">
    <g id="Group_36821" data-name="Group 36821" transform="translate(-427.208 -302.871)">
      <circle id="Ellipse_1405" data-name="Ellipse 1405" cx="33" cy="33" r="33" transform="translate(1139.208 5300.871)" fill="#fff" opacity="0.4"/>
      <circle id="Ellipse_1384" data-name="Ellipse 1384" cx="35" cy="35" r="35" transform="translate(1137.208 5298.871)" fill="#fff" opacity="0.4"/>
    </g>
    <g id="Group_36820" data-name="Group 36820" transform="translate(-1155.931 1145.697)">
      <ellipse id="Ellipse_1447" data-name="Ellipse 1447" cx="31" cy="31" rx="31" ry="31" transform="translate(1869.931 3854.303)" fill="#1b53e4" stroke="#fff" stroke-width="0.5"/>
      <g id="Group_36819" data-name="Group 36819" transform="translate(1881.548 3866.287)">
        <path id="Path_76522" data-name="Path 76522" d="M1980.363,4033.057h.008a.061.061,0,0,0,.008.012Z" transform="translate(-1975.957 -4020.984)" fill="#fefefe"/>
        <path id="Path_76523" data-name="Path 76523" d="M1999.047,3967.328c-.361-.131-.621.153-.976.218.046-.262-.362-.535.037-.734.667-.331,1.017-.828.743-1.542-.31-.8.942-.865.684-1.617a1.812,1.812,0,0,0-.324-.68c-.108-.12-.153-.19,0-.361.791-.9.768-1.176-.082-1.989.691-.572.823-1.176.365-1.666a1.011,1.011,0,0,0-1.443-.037c-.5.475-.39,1.082.31,1.723-.8.6-.794.9-.484,1.733.222.6-.987.9-.549,1.682a1.3,1.3,0,0,0,.059.142c.129.177.134.31-.094.416-.6.279-.483.96-.734,1.344a10.365,10.365,0,0,1-1.355,1.908c-.345.33-.8.531-.908,1.05a.35.35,0,0,1-.271.316c-1.048.3-1.682,1.34-2.745,1.6-.768.185-1.55.256-2.32.507-.405.131-1.033-.205-1.54.2-.532.421-1-.447-1.549-.108-.043.026-.1.029-.14.06-.581.481-.765-.267-1.136-.4-.432-.16-.845.292-1.28-.14-.709-.7-1.822-.854-2.473-1.677-.025-.029-.12,0-.145-.032a7.811,7.811,0,0,0-1.5-1.807c-.009,0,.016-.049.009-.073-.24-.937-.891-1.748-.863-2.772,0-.038-.085-.075-.088-.118-.074-.773.27-1.548-.018-2.32,0-.009.034-.034.052-.052.43-.428.3-.937.341-1.47.031-.426.624-.782.862-1.32a4.033,4.033,0,0,1,1.548-1.8,7.262,7.262,0,0,1,2.488-1.355c.316-.048.668-.151,1.01-.225a10.664,10.664,0,0,1,2.608-.077,3.512,3.512,0,0,1,.953.211,11.012,11.012,0,0,1,2.541,1.085c.154.089.444-.028.5.24.113.542.553.846.87,1.239a5.06,5.06,0,0,1,1.309,3.658c-.018.242-.125.557.188.672.294.109.461-.164.62-.353a7.462,7.462,0,0,0,1.745-4.335,12.2,12.2,0,0,0-1.275-5.513.138.138,0,0,0-.046-.06,5.879,5.879,0,0,1-1.056-1.414,8.5,8.5,0,0,0-2.192-2.094c-.5-.319-.95-.714-1.443-.986a6.776,6.776,0,0,0-2.541-1.118c-1.09-.046-1.984-1.259-3.154-.486-.037.025-.176-.08-.255-.14a1.435,1.435,0,0,0-1.707-.066c-.569.3-1.152-.518-1.774-.1a1.681,1.681,0,0,0-.364.278.382.382,0,0,1-.575.113,1.126,1.126,0,0,0-1.6.421c-.083.12-.072.321-.373.24-1.193-.311-1.448-.153-1.734.953-.817-.413-1.44-.3-1.7.3a.912.912,0,0,0,.569,1.233c.612.234,1.047-.064,1.369-.957.678.443,1.324.569,1.831-.239.12-.191.227-.128.37-.034.58.374,1.03.156,1.606-.151.442-.237,1.068.547,1.662.123.368-.262.606-.092.863.139a2.013,2.013,0,0,0,1.546-.074c-.575.637-.645.641-1.717.228-.78.13-1.478.677-2.352.372-.25-.088-.588.148-.791.4a.5.5,0,0,1-.641.211c-1.125-.406-1.63,1.2-2.767.891-.13-.035-.358.25-.524.4a.536.536,0,0,0-.145.265c-.071.321-.256.349-.556.325a1.078,1.078,0,0,0-1.244.971c-.031.156.045.311-.26.342-1.19.12-1.378.37-1.293,1.565a.987.987,0,0,0-1.28.365c-.334.509-.085.96.2,1.394,1.226.208,1.576-.075,1.608-1.317.822.183,1.417-.025,1.56-.947.026-.168.1-.213.255-.183a1.161,1.161,0,0,0,1.464-.78c.1-.245.3-.159.458-.1.316.116.046.268.008.412a.719.719,0,0,1-.686.583,1.131,1.131,0,0,0-1.01.924c-.079.4-.285.505-.623.609a1.1,1.1,0,0,0-.843,1.07c0,.383-.151.507-.476.629a1.066,1.066,0,0,0-.74,1.272c.057.31.009.427-.284.547a1.028,1.028,0,0,0-.637,1.432c.122.321.086.4-.214.541a.921.921,0,0,0-.5,1.389c.281.447.2.523-.2.756a.845.845,0,0,0-.287,1.265.982.982,0,0,0,1.777-.815,2.613,2.613,0,0,0-.291-.518l.7-.345c.15-.368.415-.735.2-1.147-.145-.282-.088-.421.2-.464.17-.025.37-.344.5-.034.089.209.359.482-.019.725a1.383,1.383,0,0,0-.547,1.4c.214.308.438.541,0,.931a1.016,1.016,0,0,0-.011,1.454c.1.136.331.188.157.484-.6,1.018-.56,1.181.319,1.964-.711.962-.567,1.506.536,2.041-.572.769-.5,1.438.182,1.781.547.273.88-.189,1.3-.367a1.133,1.133,0,0,0-.771-1.583,6.562,6.562,0,0,0,.381-.615c.083-.173.129-.344.368-.2.15.089.328.153.2.395-.342.638-.015,1.107.409,1.546.307.088.613.083.484.614-.163.666.216,1.1.883,1.283.16.043.375-.043.4.31.065,1.115.345,1.338,1.438,1.3-.009,1.156.311,1.47,1.411,1.386a1.289,1.289,0,0,0,.358-1.765c.57.277.492.837.954,1.081-.8.239-1.138.7-.979,1.454a.946.946,0,0,0,1.192.436,1.061,1.061,0,0,0,.5-1.236c-.019-.139-.319-.375.1-.447.25-.043.432-.145.607.2.355.7.913.732,1.682.584.544-.1.905,1.008,1.721.624a1.24,1.24,0,0,0,.33-.189c.165-.156.253-.128.432.023.84.715,1.139.684,1.967-.128.843.913,1.287.864,2.154-.248a.969.969,0,0,0,1.229.509.858.858,0,0,0,.617-.8c.046-.692-.464-.922-1-1.1.19-.376.353-.674.829-.432a.665.665,0,0,0,.586-.018,4.381,4.381,0,0,1,2.212-1.192c.245-.029.407-.387.43-.677s.13-.347.427-.352c.868-.014,1.147-.331,1.169-1.227,0-.148-.085-.254.176-.291,1.324-.191,1.512-.5,1.074-1.7.8.179,1.329-.057,1.429-.674A.937.937,0,0,0,1999.047,3967.328Zm-8.525,8.676c-.325-.317-.527-.721-.967-.859.461-.163.8.2,1.264.11Zm6.233-6.933a1.276,1.276,0,0,1,.945-.649c.3-.062.361.432.6.64A1.747,1.747,0,0,0,1996.755,3969.071Z" transform="translate(-1966.115 -3944.288)" fill="#fefefe"/>
        <path id="Path_76524" data-name="Path 76524" d="M2211.272,4037.456a.953.953,0,0,1-.886-1.03.9.9,0,0,1,1.063-.84.891.891,0,0,1,.853.978A.978.978,0,0,1,2211.272,4037.456Z" transform="translate(-2178.927 -4023.21)" fill="#fefefe"/>
        <path id="Path_76525" data-name="Path 76525" d="M2006.037,4167.043a.923.923,0,0,1-.929.929.912.912,0,0,1-.952-.965.882.882,0,0,1,.96-.876C2005.7,4166.131,2005.974,4166.495,2006.037,4167.043Z" transform="translate(-1996.95 -4138.413)" fill="#fefefe"/>
        <path id="Path_76526" data-name="Path 76526" d="M1968.389,4107.27c.565.089.952.349.94.93a.915.915,0,0,1-1.83-.011C1967.5,4107.6,1967.879,4107.354,1968.389,4107.27Z" transform="translate(-1964.606 -4086.472)" fill="#fefefe"/>
        <path id="Path_76527" data-name="Path 76527" d="M2208.519,4019.9a.886.886,0,0,1-.972.87.886.886,0,0,1,.044-1.77A.876.876,0,0,1,2208.519,4019.9Z" transform="translate(-2175.692 -4008.578)" fill="#fefefe"/>
        <path id="Path_76528" data-name="Path 76528" d="M1968.6,4031.841c.051.112.1.224.152.337a.847.847,0,0,1-.316,1.138.835.835,0,0,1-1.118-.107.809.809,0,0,1-.163-1.047.866.866,0,0,1,1.107-.427c.119.037.236.08.354.12Z" transform="translate(-1964.19 -4019.769)" fill="#fefefe"/>
        <path id="Path_76529" data-name="Path 76529" d="M2076.954,4205.157a.876.876,0,0,1-.913.924.89.89,0,0,1-.071-1.777A.883.883,0,0,1,2076.954,4205.157Z" transform="translate(-2059.594 -4172.093)" fill="#fefefe"/>
        <path id="Path_76530" data-name="Path 76530" d="M2224.565,4112.516a.872.872,0,0,1-.946.909.886.886,0,0,1,.01-1.771A.872.872,0,0,1,2224.565,4112.516Z" transform="translate(-2189.865 -4090.34)" fill="#fefefe"/>
        <path id="Path_76531" data-name="Path 76531" d="M2170.109,4189.388a.9.9,0,0,1-.993.846.884.884,0,1,1,.15-1.762A.9.9,0,0,1,2170.109,4189.388Z" transform="translate(-2141.8 -4158.123)" fill="#fefefe"/>
        <path id="Path_76532" data-name="Path 76532" d="M2015.025,4182.794c-.081.514-.35.842-.9.813a.854.854,0,1,1,.06-1.708C2014.721,4181.913,2014.988,4182.256,2015.025,4182.794Z" transform="translate(-2005.006 -4152.326)" fill="#fefefe"/>
        <path id="Path_76533" data-name="Path 76533" d="M1968.582,4125.523a.785.785,0,0,1,.844.8.772.772,0,0,1-.841.869.785.785,0,0,1-.843-.875A.8.8,0,0,1,1968.582,4125.523Z" transform="translate(-1964.819 -4102.579)" fill="#fefefe"/>
        <path id="Path_76534" data-name="Path 76534" d="M1996.815,3971.5a.811.811,0,0,1,.83.826.846.846,0,1,1-1.689-.041C1995.983,3971.77,1996.325,3971.539,1996.815,3971.5Z" transform="translate(-1989.716 -3966.665)" fill="#fefefe"/>
        <path id="Path_76535" data-name="Path 76535" d="M2093.468,4212.707a.814.814,0,0,1-.829.831.825.825,0,1,1-.007-1.648A.806.806,0,0,1,2093.468,4212.707Z" transform="translate(-2074.275 -4178.79)" fill="#fefefe"/>
        <path id="Path_76536" data-name="Path 76536" d="M2202.567,4004.066a.825.825,0,0,1-.857.8.825.825,0,1,1,.042-1.65A.828.828,0,0,1,2202.567,4004.066Z" transform="translate(-2170.55 -3994.651)" fill="#fefefe"/>
        <path id="Path_76537" data-name="Path 76537" d="M2231.016,4097.74a.8.8,0,0,1-.819-.84.835.835,0,1,1,1.67.046A.8.8,0,0,1,2231.016,4097.74Z" transform="translate(-2196.417 -4076.591)" fill="#fefefe"/>
        <path id="Path_76538" data-name="Path 76538" d="M1960.418,4048.227c-.048.513-.322.839-.826.839a.8.8,0,0,1-.049-1.608A.8.8,0,0,1,1960.418,4048.227Z" transform="translate(-1956.899 -4033.69)" fill="#fefefe"/>
        <path id="Path_76539" data-name="Path 76539" d="M2185.943,4184.19a.774.774,0,0,1-.8-.82.763.763,0,0,1,.8-.831.782.782,0,0,1,.862.856A.8.8,0,0,1,2185.943,4184.19Z" transform="translate(-2156.663 -4152.892)" fill="#fefefe"/>
        <path id="Path_76540" data-name="Path 76540" d="M2024.99,4198.067c-.523-.109-.872-.356-.839-.877a.765.765,0,0,1,.875-.764.755.755,0,0,1,.754.807C2025.778,4197.762,2025.411,4197.971,2024.99,4198.067Z" transform="translate(-2014.595 -4165.144)" fill="#fefefe"/>
        <path id="Path_76541" data-name="Path 76541" d="M2110.727,4217.928a.777.777,0,0,1-.815.737.768.768,0,1,1,.059-1.533A.782.782,0,0,1,2110.727,4217.928Z" transform="translate(-2089.592 -4183.415)" fill="#fefefe"/>
        <path id="Path_76542" data-name="Path 76542" d="M2193.521,3990.024c-.449-.085-.771-.314-.76-.795a.711.711,0,0,1,.767-.76.72.72,0,0,1,.794.807C2194.305,3989.751,2193.965,3989.963,2193.521,3990.024Z" transform="translate(-2163.383 -3981.64)" fill="#fefefe"/>
        <path id="Path_76543" data-name="Path 76543" d="M2237.129,4080.6a.8.8,0,0,1-.789.771.729.729,0,0,1-.8-.806.716.716,0,0,1,.8-.73C2236.83,4079.844,2237.037,4080.167,2237.129,4080.6Z" transform="translate(-2201.13 -4062.265)" fill="#fefefe"/>
        <path id="Path_76544" data-name="Path 76544" d="M2201.719,4174.361c.433.076.774.269.783.772a.779.779,0,0,1-1.557.035C2200.931,4174.672,2201.253,4174.446,2201.719,4174.361Z" transform="translate(-2170.604 -4145.674)" fill="#fefefe"/>
        <path id="Path_76545" data-name="Path 76545" d="M1971.864,4144.305a.742.742,0,0,1-.739.824.724.724,0,0,1-.812-.728.7.7,0,0,1,.735-.792A.72.72,0,0,1,1971.864,4144.305Z" transform="translate(-1967.088 -4118.536)" fill="#fefefe"/>
        <path id="Path_76546" data-name="Path 76546" d="M2038.431,4210.307a.733.733,0,0,1-.735.728.741.741,0,1,1,.016-1.48A.741.741,0,0,1,2038.431,4210.307Z" transform="translate(-2025.863 -4176.729)" fill="#fefefe"/>
        <path id="Path_76547" data-name="Path 76547" d="M2128.436,4220.941a.721.721,0,0,1-.771.673.721.721,0,1,1,.057-1.44A.724.724,0,0,1,2128.436,4220.941Z" transform="translate(-2105.319 -4186.1)" fill="#fefefe"/>
        <path id="Path_76548" data-name="Path 76548" d="M2184.252,3975.445a.7.7,0,0,1-.716.738.676.676,0,0,1-.74-.7.669.669,0,0,1,.705-.738A.7.7,0,0,1,2184.252,3975.445Z" transform="translate(-2154.588 -3969.523)" fill="#fefefe"/>
        <path id="Path_76549" data-name="Path 76549" d="M1983.567,3984.371a.707.707,0,0,1-.78-.678.727.727,0,1,1,1.453-.072A.7.7,0,0,1,1983.567,3984.371Z" transform="translate(-1978.093 -3976.738)" fill="#fefefe"/>
        <path id="Path_76550" data-name="Path 76550" d="M2240.168,4063.766a.685.685,0,0,1-.763.66.7.7,0,1,1,.07-1.4A.688.688,0,0,1,2240.168,4063.766Z" transform="translate(-2203.943 -4047.424)" fill="#fefefe"/>
        <path id="Path_76551" data-name="Path 76551" d="M1954.1,4064.938c-.08.5-.322.765-.776.747a.655.655,0,0,1-.693-.738.666.666,0,0,1,.749-.686A.728.728,0,0,1,1954.1,4064.938Z" transform="translate(-1951.487 -4048.519)" fill="#fefefe"/>
        <path id="Path_76552" data-name="Path 76552" d="M2216.323,4164.626a.674.674,0,0,1,.66.745.717.717,0,0,1-1.433-.063A.685.685,0,0,1,2216.323,4164.626Z" transform="translate(-2183.491 -4137.084)" fill="#fefefe"/>
        <path id="Path_76553" data-name="Path 76553" d="M1976.647,4161.8a.679.679,0,0,1-.7.655.64.64,0,0,1-.711-.714.65.65,0,0,1,.763-.666A.685.685,0,0,1,1976.647,4161.8Z" transform="translate(-1971.43 -4133.947)" fill="#fefefe"/>
        <path id="Path_76554" data-name="Path 76554" d="M2052.571,4221.767c-.077.393-.295.663-.712.639a.676.676,0,1,1,.066-1.348A.666.666,0,0,1,2052.571,4221.767Z" transform="translate(-2038.452 -4186.878)" fill="#fefefe"/>
        <path id="Path_76555" data-name="Path 76555" d="M2145.69,4220.9c.395.052.676.245.681.666a.633.633,0,0,1-.668.673.621.621,0,0,1-.678-.657A.654.654,0,0,1,2145.69,4220.9Z" transform="translate(-2121.259 -4186.743)" fill="#fefefe"/>
        <path id="Path_76556" data-name="Path 76556" d="M2171.754,3962.564c.389.07.663.281.644.7a.629.629,0,0,1-.7.637.617.617,0,0,1-.645-.686A.654.654,0,0,1,2171.754,3962.564Z" transform="translate(-2144.226 -3958.78)" fill="#fefefe"/>
        <path id="Path_76557" data-name="Path 76557" d="M2230,4153.56c-.039.482-.278.736-.685.741a.653.653,0,0,1-.05-1.3A.683.683,0,0,1,2230,4153.56Z" transform="translate(-2195.039 -4126.82)" fill="#fefefe"/>
        <path id="Path_76558" data-name="Path 76558" d="M2240.751,4046.5c-.014.508-.256.759-.662.774a.655.655,0,0,1-.076-1.308A.673.673,0,0,1,2240.751,4046.5Z" transform="translate(-2204.538 -4032.374)" fill="#fefefe"/>
        <path id="Path_76559" data-name="Path 76559" d="M1949.644,4082.321a.656.656,0,0,1-.62.664.649.649,0,1,1-.025-1.293A.651.651,0,0,1,1949.644,4082.321Z" transform="translate(-1947.676 -4063.9)" fill="#fefefe"/>
        <path id="Path_76560" data-name="Path 76560" d="M1983.465,4178.593c-.076.376-.268.621-.663.605a.586.586,0,0,1-.628-.614.6.6,0,0,1,.69-.629A.618.618,0,0,1,1983.465,4178.593Z" transform="translate(-1977.555 -4148.844)" fill="#fefefe"/>
        <path id="Path_76561" data-name="Path 76561" d="M1971.209,3995.392c.361.077.635.267.62.659a.642.642,0,0,1-1.283-.035C1970.564,3995.638,1970.837,3995.445,1971.209,3995.392Z" transform="translate(-1967.294 -3987.748)" fill="#fefefe"/>
        <path id="Path_76562" data-name="Path 76562" d="M2240.723,4141.043c-.358-.061-.615-.233-.616-.63a.541.541,0,0,1,.559-.587.572.572,0,0,1,.667.564C2241.359,4140.788,2241.081,4140.96,2240.723,4141.043Z" transform="translate(-2205.162 -4115.198)" fill="#fefefe"/>
        <path id="Path_76563" data-name="Path 76563" d="M2238.4,4028.986c.441.017.685.216.7.6a.613.613,0,0,1-1.223.062A.6.6,0,0,1,2238.4,4028.986Z" transform="translate(-2203.187 -4017.392)" fill="#fefefe"/>
        <path id="Path_76564" data-name="Path 76564" d="M2067.373,4230.34c.414.093.673.284.642.687a.625.625,0,0,1-1.245-.062C2066.77,4230.544,2067.085,4230.429,2067.373,4230.34Z" transform="translate(-2052.205 -4195.071)" fill="#fefefe"/>
        <path id="Path_76565" data-name="Path 76565" d="M2158.424,3953.465c-.375-.068-.615-.273-.585-.662a.562.562,0,0,1,.6-.555.568.568,0,0,1,.62.612C2159.057,3953.248,2158.794,3953.43,2158.424,3953.465Z" transform="translate(-2132.564 -3949.676)" fill="#fefefe"/>
        <path id="Path_76566" data-name="Path 76566" d="M2164.245,4220.125a.612.612,0,0,1-.633.627.57.57,0,0,1-.608-.628.555.555,0,0,1,.578-.577A.611.611,0,0,1,2164.245,4220.125Z" transform="translate(-2137.124 -4185.546)" fill="#fefefe"/>
        <path id="Path_76567" data-name="Path 76567" d="M1991.182,4194.363a.568.568,0,0,1,.574-.584.536.536,0,0,1,.588.565.519.519,0,0,1-.523.549A.575.575,0,0,1,1991.182,4194.363Z" transform="translate(-1985.504 -4162.808)" fill="#fefefe"/>
        <path id="Path_76568" data-name="Path 76568" d="M2143.733,3943.63c.311.047.555.178.573.513a.562.562,0,1,1-1.122.009C2143.2,3943.83,2143.433,3943.676,2143.733,3943.63Z" transform="translate(-2119.634 -3942.072)" fill="#fefefe"/>
        <path id="Path_76569" data-name="Path 76569" d="M1947.028,4099.6c.4.047.6.239.589.6a.494.494,0,0,1-.528.521.511.511,0,0,1-.593-.533C1946.492,4099.813,1946.742,4099.662,1947.028,4099.6Z" transform="translate(-1946.073 -4079.7)" fill="#fefefe"/>
        <path id="Path_76570" data-name="Path 76570" d="M2181.634,4216.348c-.079.322-.256.523-.583.514a.542.542,0,1,1,0-1.084C2181.421,4215.785,2181.582,4216.023,2181.634,4216.348Z" transform="translate(-2152.555 -4182.222)" fill="#fefefe"/>
        <path id="Path_76571" data-name="Path 76571" d="M2234.609,4012.313c.374.058.618.241.608.595a.515.515,0,0,1-.557.509.51.51,0,0,1-.572-.49C2234.058,4012.563,2234.309,4012.392,2234.609,4012.313Z" transform="translate(-2199.849 -4002.679)" fill="#fefefe"/>
        <path id="Path_76572" data-name="Path 76572" d="M2250.69,4125.854c-.055.379-.256.594-.609.571a.52.52,0,0,1-.515-.55.508.508,0,0,1,.6-.529A.528.528,0,0,1,2250.69,4125.854Z" transform="translate(-2213.508 -4102.42)" fill="#fefefe"/>
        <path id="Path_76573" data-name="Path 76573" d="M2083.976,4237.937c.381.054.6.246.587.6a.5.5,0,0,1-.557.5.508.508,0,0,1-.559-.5C2083.429,4238.169,2083.673,4238.007,2083.976,4237.937Z" transform="translate(-2066.92 -4201.775)" fill="#fefefe"/>
        <path id="Path_76574" data-name="Path 76574" d="M1960.952,4010.058c-.031.371-.206.58-.522.591a.519.519,0,1,1-.039-1.037A.529.529,0,0,1,1960.952,4010.058Z" transform="translate(-1957.882 -4000.295)" fill="#fefefe"/>
        <path id="Path_76575" data-name="Path 76575" d="M2128.018,3937.114c.307.058.51.236.477.564a.462.462,0,0,1-.524.434.469.469,0,0,1-.491-.473C2127.472,3937.307,2127.693,3937.149,2128.018,3937.114Z" transform="translate(-2105.777 -3936.322)" fill="#fefefe"/>
        <path id="Path_76576" data-name="Path 76576" d="M2197.778,4209.634c.3.071.543.214.512.555a.476.476,0,0,1-.518.453.467.467,0,0,1-.5-.534C2197.291,4209.816,2197.5,4209.677,2197.778,4209.634Z" transform="translate(-2167.359 -4176.8)" fill="#fefefe"/>
        <path id="Path_76577" data-name="Path 76577" d="M2101.833,4243.86c-.083.33-.281.51-.6.464a.456.456,0,0,1-.428-.525.48.48,0,0,1,.581-.451A.517.517,0,0,1,2101.833,4243.86Z" transform="translate(-2082.235 -4206.545)" fill="#fefefe"/>
        <path id="Path_76578" data-name="Path 76578" d="M2229.245,3997.171a.489.489,0,0,1-.469.525.452.452,0,0,1-.525-.435.459.459,0,0,1,.492-.545A.476.476,0,0,1,2229.245,3997.171Z" transform="translate(-2194.697 -3988.917)" fill="#fefefe"/>
        <path id="Path_76579" data-name="Path 76579" d="M2002.9,4208.42c.318.056.511.205.509.5a.447.447,0,0,1-.473.481.464.464,0,0,1-.509-.522C2002.44,4208.576,2002.665,4208.466,2002.9,4208.42Z" transform="translate(-1995.424 -4175.729)" fill="#fefefe"/>
        <path id="Path_76580" data-name="Path 76580" d="M1947.423,4118.415a.456.456,0,0,1-.5.462.43.43,0,0,1-.465-.479.445.445,0,0,1,.494-.457A.462.462,0,0,1,1947.423,4118.415Z" transform="translate(-1946.037 -4095.888)" fill="#fefefe"/>
        <path id="Path_76581" data-name="Path 76581" d="M2258.124,4110.239c-.029.3-.173.494-.468.505a.456.456,0,0,1-.525-.5.443.443,0,0,1,.495-.453A.472.472,0,0,1,2258.124,4110.239Z" transform="translate(-2220.184 -4088.696)" fill="#fefefe"/>
        <path id="Path_76582" data-name="Path 76582" d="M2111.978,3933.236a.446.446,0,0,1-.411.459.428.428,0,0,1-.509-.423.412.412,0,0,1,.4-.456A.454.454,0,0,1,2111.978,3933.236Z" transform="translate(-2091.284 -3932.525)" fill="#fefefe"/>
        <path id="Path_76583" data-name="Path 76583" d="M2213.954,4202.15a.433.433,0,0,1-.445.433.44.44,0,1,1,.006-.877A.44.44,0,0,1,2213.954,4202.15Z" transform="translate(-2181.274 -4169.803)" fill="#fefefe"/>
        <path id="Path_76584" data-name="Path 76584" d="M2263.263,4093.652a.476.476,0,0,1-.424.464.407.407,0,0,1-.487-.375.413.413,0,0,1,.433-.5C2263.049,4093.229,2263.191,4093.409,2263.263,4093.652Z" transform="translate(-2224.787 -4074.089)" fill="#fefefe"/>
        <path id="Path_76585" data-name="Path 76585" d="M2220.976,3982.372a.426.426,0,0,1-.409.475.411.411,0,0,1-.481-.37.4.4,0,0,1,.438-.482A.428.428,0,0,1,2220.976,3982.372Z" transform="translate(-2187.491 -3975.926)" fill="#fefefe"/>
        <path id="Path_76586" data-name="Path 76586" d="M2015.208,4222.093a.409.409,0,0,1,.465.4.38.38,0,0,1-.373.4.4.4,0,0,1-.486-.358C2014.786,4222.263,2014.963,4222.133,2015.208,4222.093Z" transform="translate(-2006.356 -4187.794)" fill="#fefefe"/>
        <path id="Path_76587" data-name="Path 76587" d="M2119.27,4246.644c.257.04.441.162.422.438a.4.4,0,0,1-.46.4.393.393,0,0,1-.416-.436C2118.827,4246.777,2119.012,4246.652,2119.27,4246.644Z" transform="translate(-2098.131 -4209.459)" fill="#fefefe"/>
        <path id="Path_76588" data-name="Path 76588" d="M1951.013,4024.853c.3.03.47.166.449.434a.387.387,0,0,1-.4.376.394.394,0,0,1-.451-.4C1950.6,4024.988,1950.8,4024.886,1951.013,4024.853Z" transform="translate(-1949.707 -4013.745)" fill="#fefefe"/>
        <path id="Path_76589" data-name="Path 76589" d="M1948.477,4136.893c-.231-.042-.416-.159-.384-.439a.38.38,0,0,1,.419-.348.368.368,0,0,1,.4.437A.376.376,0,0,1,1948.477,4136.893Z" transform="translate(-1947.478 -4111.917)" fill="#fefefe"/>
        <path id="Path_76590" data-name="Path 76590" d="M2228.1,4192.744a.412.412,0,0,1-.385-.4.344.344,0,0,1,.386-.364c.254,0,.45.122.414.407A.416.416,0,0,1,2228.1,4192.744Z" transform="translate(-2194.222 -4161.222)" fill="#fefefe"/>
        <path id="Path_76591" data-name="Path 76591" d="M2210.881,3968.629a.38.38,0,0,1-.462.3.333.333,0,0,1-.315-.431.365.365,0,0,1,.449-.312A.383.383,0,0,1,2210.881,3968.629Z" transform="translate(-2178.675 -3963.729)" fill="#fefefe"/>
        <path id="Path_76592" data-name="Path 76592" d="M2266.156,4076.8a.362.362,0,0,1-.42.339.355.355,0,0,1-.364-.4.369.369,0,0,1,.418-.353A.389.389,0,0,1,2266.156,4076.8Z" transform="translate(-2227.454 -4059.215)" fill="#fefefe"/>
        <path id="Path_76593" data-name="Path 76593" d="M2095.019,3931.122a.391.391,0,0,1-.4.409.356.356,0,0,1-.39-.376.364.364,0,0,1,.393-.377A.374.374,0,0,1,2095.019,3931.122Z" transform="translate(-2076.435 -3930.731)" fill="#fefefe"/>
        <path id="Path_76594" data-name="Path 76594" d="M2029.027,4234.881a.351.351,0,0,1-.374-.3.354.354,0,1,1,.7-.066A.359.359,0,0,1,2029.027,4234.881Z" transform="translate(-2018.565 -4198.463)" fill="#fefefe"/>
        <path id="Path_76595" data-name="Path 76595" d="M2137.322,4248.763a.341.341,0,1,1,.394-.353C2137.719,4248.658,2137.548,4248.749,2137.322,4248.763Z" transform="translate(-2114.166 -4210.73)" fill="#fefefe"/>
        <path id="Path_76596" data-name="Path 76596" d="M2267.288,4059.668a.334.334,0,0,1-.333.332.3.3,0,0,1-.372-.282.32.32,0,0,1,.319-.35A.365.365,0,0,1,2267.288,4059.668Z" transform="translate(-2228.523 -4044.201)" fill="#fefefe"/>
        <path id="Path_76597" data-name="Path 76597" d="M2077.366,3931.054c-.21-.04-.355-.145-.353-.342a.348.348,0,1,1,.7.03C2077.694,3930.94,2077.532,3931.023,2077.366,3931.054Z" transform="translate(-2061.244 -3930.376)" fill="#fefefe"/>
        <path id="Path_76598" data-name="Path 76598" d="M2199.029,3955.886c.2.026.349.114.345.327a.314.314,0,0,1-.354.312.308.308,0,0,1-.339-.326C2198.681,3955.986,2198.826,3955.895,2199.029,3955.886Z" transform="translate(-2168.605 -3952.887)" fill="#fefefe"/>
        <path id="Path_76599" data-name="Path 76599" d="M2155.193,4247.182c.163.043.3.127.287.306a.3.3,0,0,1-.358.3.283.283,0,0,1-.285-.3C2154.843,4247.276,2155,4247.193,2155.193,4247.182Z" transform="translate(-2129.917 -4209.934)" fill="#fefefe"/>
        <path id="Path_76600" data-name="Path 76600" d="M2241.567,4180.5c.233.012.371.109.377.319s-.134.317-.34.313a.288.288,0,0,1-.307-.271A.311.311,0,0,1,2241.567,4180.5Z" transform="translate(-2206.211 -4151.093)" fill="#fefefe"/>
        <path id="Path_76601" data-name="Path 76601" d="M1943.159,4040.965c.23.007.339.1.351.27a.275.275,0,0,1-.308.327.292.292,0,0,1-.308-.264C1942.869,4041.078,1943.039,4041.013,1943.159,4040.965Z" transform="translate(-1942.891 -4027.962)" fill="#fefefe"/>
        <path id="Path_76602" data-name="Path 76602" d="M1951.837,4154.49a.282.282,0,0,1,.261-.319.306.306,0,1,1,.113.6A.308.308,0,0,1,1951.837,4154.49Z" transform="translate(-1950.785 -4127.854)" fill="#fefefe"/>
        <path id="Path_76603" data-name="Path 76603" d="M2044.082,4245.164a.266.266,0,0,1-.276.285.273.273,0,0,1-.311-.256c-.02-.184.111-.275.271-.292S2044.037,4245,2044.082,4245.164Z" transform="translate(-2031.665 -4207.919)" fill="#fefefe"/>
        <path id="Path_76604" data-name="Path 76604" d="M2266.214,4042.333a.258.258,0,0,1,.288.261.281.281,0,0,1-.56.03C2265.934,4042.451,2266.047,4042.361,2266.214,4042.333Z" transform="translate(-2227.958 -4029.169)" fill="#fefefe"/>
        <path id="Path_76605" data-name="Path 76605" d="M2186.49,3944.9c-.042.217-.135.325-.317.3a.28.28,0,1,1,.032-.559C2186.385,3944.648,2186.446,3944.789,2186.49,3944.9Z" transform="translate(-2157.325 -3942.963)" fill="#fefefe"/>
        <path id="Path_76606" data-name="Path 76606" d="M2253.537,4168.368c-.169-.03-.287-.117-.271-.3a.271.271,0,0,1,.3-.26.268.268,0,0,1,.275.29C2253.832,4168.271,2253.7,4168.35,2253.537,4168.368Z" transform="translate(-2216.772 -4139.895)" fill="#fefefe"/>
        <path id="Path_76607" data-name="Path 76607" d="M2173.187,4245.021a.279.279,0,0,1-.349.218.226.226,0,0,1-.2-.273.255.255,0,0,1,.334-.212A.282.282,0,0,1,2173.187,4245.021Z" transform="translate(-2145.622 -4207.778)" fill="#fefefe"/>
        <path id="Path_76608" data-name="Path 76608" d="M2060.356,3932.6a.256.256,0,0,1-.288-.263.242.242,0,0,1,.225-.259c.155-.019.316.034.338.22S2060.546,3932.581,2060.356,3932.6Z" transform="translate(-2046.29 -3931.877)" fill="#fefefe"/>
      </g>
    </g>
  </g>
</svg>
