<svg xmlns="http://www.w3.org/2000/svg" width="70" height="70" viewBox="0 0 70 70">
  <g id="Group_36638" data-name="Group 36638" transform="translate(-1035.593 -5028.729)">
    <g id="Group_36256" data-name="Group 36256" transform="translate(1035.593 5028.729)">
      <g id="Group_36252" data-name="Group 36252" transform="translate(0 0)">
        <circle id="Ellipse_1387" data-name="Ellipse 1387" cx="35" cy="35" r="35" fill="#fff" opacity="0.4"/>
        <circle id="Ellipse_1388" data-name="Ellipse 1388" cx="33.539" cy="33.539" r="33.539" transform="translate(1.461 1.461)" fill="#fff" opacity="0.4"/>
      </g>
      <g id="Group_36255" data-name="Group 36255" transform="translate(3.562 3.561)">
        <g id="Group_36253" data-name="Group 36253">
          <circle id="Ellipse_1389" data-name="Ellipse 1389" cx="31.097" cy="31.097" r="31.097" transform="translate(0.341 0.342)" fill="#8cc349"/>
          <path id="Path_65951" data-name="Path 65951" d="M-566.176,2082.694a31.473,31.473,0,0,1-31.438-31.438,31.475,31.475,0,0,1,31.438-31.438,31.475,31.475,0,0,1,31.439,31.438A31.474,31.474,0,0,1-566.176,2082.694Zm0-62.193a30.789,30.789,0,0,0-30.754,30.755,30.788,30.788,0,0,0,30.754,30.754,30.789,30.789,0,0,0,30.755-30.754A30.791,30.791,0,0,0-566.176,2020.5Z" transform="translate(597.614 -2019.817)" fill="#fff"/>
        </g>
        <g id="Group_36254" data-name="Group 36254" transform="translate(2.822 3.05)">
          <path id="Path_65952" data-name="Path 65952" d="M-547.543,2042.363l-.724-.365a3.076,3.076,0,0,1-.485-.242,22.342,22.342,0,0,0-3.668-1.313c-1.457-.414-2.873-.943-4.286-1.48q-.863-.328-1.722-.666a.694.694,0,0,1-.435-.3c-.164-.093-.206-.271-.283-.419a4.492,4.492,0,0,0-3.6-2.444,8.789,8.789,0,0,0-3.538.2.463.463,0,0,1-.407,0,.8.8,0,0,1-.441.005,18,18,0,0,0-5.158-.487,15.469,15.469,0,0,0-4.164.976,21.393,21.393,0,0,0-2.351.952,3.74,3.74,0,0,1-.366.179l-1.092.542c-.164.131-.376.179-.541.308l-.907.607c-.089.051-.159.127-.246.178a12.108,12.108,0,0,0-2.647,2.674,12.208,12.208,0,0,0-1.885,4.324,28.007,28.007,0,0,0-.552,4c-.115,1.323-.264,2.643-.355,3.968-.073,1.053-.2,2.1-.332,3.146a41.718,41.718,0,0,1-1.032,5.4,36.42,36.42,0,0,1-1.5,4.388c-.046.116-.077.279-.22.3-.163.025-.194-.157-.261-.258a29.493,29.493,0,0,1-2.58-4.8,29.642,29.642,0,0,1-1.5-4.611,29.366,29.366,0,0,1-.584-3.658,27.533,27.533,0,0,1-.105-4.286,27.553,27.553,0,0,1,.563-4.327,28.511,28.511,0,0,1,1.516-5.01,27.679,27.679,0,0,1,2.347-4.524,26.6,26.6,0,0,1,2.1-2.9,32.014,32.014,0,0,1,2.643-2.772A31.94,31.94,0,0,1-583,2026.98a26.2,26.2,0,0,1,2.451-1.482,27.9,27.9,0,0,1,2.921-1.373,28.156,28.156,0,0,1,2.7-.934,30.345,30.345,0,0,1,3.045-.713c.709-.13,1.431-.193,2.146-.287a24.647,24.647,0,0,1,3.772-.126c.843.019,1.681.108,2.522.206a27.565,27.565,0,0,1,2.758.466,26.854,26.854,0,0,1,4.144,1.268c.869.347,1.73.709,2.561,1.14a28.022,28.022,0,0,1,3.85,2.366c.913.677,1.782,1.406,2.626,2.171a28.753,28.753,0,0,1,4.375,5.1,29.854,29.854,0,0,1,1.67,2.862,27.619,27.619,0,0,1,1.943,4.759,22.831,22.831,0,0,1,.729,2.978c.137.808.269,1.62.344,2.441a32.288,32.288,0,0,1,.115,3.742,27.3,27.3,0,0,1-.275,3.177,27.585,27.585,0,0,1-1.006,4.485,28.2,28.2,0,0,1-1.2,3.179c-.451.988-.964,1.942-1.509,2.879-.4.693-.862,1.356-1.324,2.014a25.7,25.7,0,0,1-2.293,2.821,29.216,29.216,0,0,1-3.7,3.358,27.071,27.071,0,0,1-3.426,2.24,29.627,29.627,0,0,1-2.88,1.387,30.074,30.074,0,0,1-3.35,1.167c-.752.212-1.52.366-2.282.543-.215.049-.3-.076-.312-.264a15.386,15.386,0,0,1,.029-3.29,18.109,18.109,0,0,1,1.1-4.232,26.194,26.194,0,0,1,2.4-4.677,46.311,46.311,0,0,1,5.02-6.426c.983-1.072,1.99-2.12,3.045-3.119q1.558-1.476,3.055-3.014a17.191,17.191,0,0,0,1.37-1.572.529.529,0,0,0,.156-.287c-.059-.116.07-.125.105-.186.116,0,.152-.093.2-.172a2.989,2.989,0,0,1,.179-.306,7.329,7.329,0,0,0,1.253-3.447,4.973,4.973,0,0,0-.59-2.675c-.1-.164-.209-.318-.309-.481a8.862,8.862,0,0,0-2.359-2.12A2.86,2.86,0,0,0-547.543,2042.363Z" transform="translate(595.549 -2022.049)" fill="#f8e68c"/>
          <path id="Path_65953" data-name="Path 65953" d="M-570.55,2039.531a5.515,5.515,0,0,1-5.68,5.341,5.525,5.525,0,0,1-5.382-6.076,5.533,5.533,0,0,1,5.888-5.012A5.534,5.534,0,0,1-570.55,2039.531Z" transform="translate(600.651 -2017.75)" fill="#fdfdfd"/>
          <path id="Path_65954" data-name="Path 65954" d="M-574.433,2031.883a9.473,9.473,0,0,1,3.247-.387,5,5,0,0,1,4.11,2.1,3.438,3.438,0,0,1,.469.94c-.074.1-.145.025-.21-.01a31.64,31.64,0,0,0-6.081-2.23,12.683,12.683,0,0,0-1.352-.3C-574.332,2031.988-574.415,2031.99-574.433,2031.883Z" transform="translate(603.293 -2018.591)" fill="#459048"/>
          <path id="Path_65955" data-name="Path 65955" d="M-562.744,2043.4a1.185,1.185,0,0,1-1.218-1.193,1.193,1.193,0,0,1,1.2-1.212,1.18,1.18,0,0,1,1.212,1.2A1.173,1.173,0,0,1-562.744,2043.4Z" transform="translate(607.133 -2015.099)" fill="#fdfdfd"/>
          <path id="Path_65956" data-name="Path 65956" d="M-553.519,2043.964c-.436.149-.651.592-1.051.79a2.7,2.7,0,0,0-.346.242c-.016.021-.033.025-.047.015-.071.076-.183.1-.255.172a20.263,20.263,0,0,1-3.146,1.755c-.183.082-.373.15-.549.246a11.228,11.228,0,0,1-1.271.542c-.247.142-.537.175-.791.3-.328.079-.626.257-.964.306-.254.11-.53.148-.79.244h0c-.29.06-.567.16-.853.237a19.414,19.414,0,0,1-2.446.536,12.48,12.48,0,0,1-2.955.124,8.014,8.014,0,0,1-5.061-1.946c-.074-.067-.137-.146-.2-.22-.033-.063-.053-.122.056-.118a9.483,9.483,0,0,0,3.488,1.2,20.2,20.2,0,0,0,4.193.067,24.352,24.352,0,0,0,6.362-1.354,26.749,26.749,0,0,0,3.6-1.5c.465-.24.928-.488,1.391-.731.1-.071.212-.105.306-.179l.174-.127c.354-.255.707-.514,1.065-.761.051-.036.135-.019.2-.027C-553.4,2043.869-553.488,2043.9-553.519,2043.964Z" transform="translate(603.351 -2014.08)" fill="#58595b"/>
          <path id="Path_65957" data-name="Path 65957" d="M-574.174,2046.292l-.056.118c-.051-.041-.139-.078-.079-.157C-574.264,2046.192-574.2,2046.226-574.174,2046.292Z" transform="translate(603.331 -2013.184)" fill="#6a795e"/>
          <path id="Path_65958" data-name="Path 65958" d="M-571.517,2023.218a14.379,14.379,0,0,1,3.266.32,15.746,15.746,0,0,1,6.616,2.87c1.406,1.065,2.754,2.2,4.111,3.324.931.773,1.84,1.57,2.713,2.405a21.316,21.316,0,0,1,3.265,3.907,25.533,25.533,0,0,1,2.593,5.11,20.641,20.641,0,0,1,.8,2.873,25.542,25.542,0,0,1,.5,4.03,29.044,29.044,0,0,1-.165,3.733c-.011.128-.018.346-.168.347s-.142-.211-.163-.344c-.243-1.547-.575-3.075-.95-4.595a40.377,40.377,0,0,0-1.165-3.926,46.891,46.891,0,0,0-2.109-5.1,41.25,41.25,0,0,0-3.185-5.31,15.594,15.594,0,0,0-4.305-4.233,21.622,21.622,0,0,0-3.8-1.844c-1.327-.528-2.656-1.055-4.01-1.51-.884-.3-1.779-.563-2.686-.788-1.216-.3-2.44-.574-3.674-.794-.083-.015-.168-.025-.178-.127-.011-.127.1-.105.169-.119A11.118,11.118,0,0,1-571.517,2023.218Z" transform="translate(603.378 -2021.623)" fill="#fdfdfd"/>
          <path id="Path_65959" data-name="Path 65959" d="M-576.552,2042.813a3.892,3.892,0,0,1-3.89-3.888,3.92,3.92,0,0,1,3.935-3.917,3.9,3.9,0,0,1,3.88,3.931A3.876,3.876,0,0,1-576.552,2042.813Z" transform="translate(601.089 -2017.296)" fill="#58595b"/>
        </g>
      </g>
    </g>
  </g>
</svg>
