<svg xmlns="http://www.w3.org/2000/svg" width="70" height="70" viewBox="0 0 70 70">
  <g id="Group_36641" data-name="Group 36641" transform="translate(-256.359 797.311)">
    <circle id="Ellipse_1416" data-name="Ellipse 1416" cx="35" cy="35" r="35" transform="translate(256.359 -797.31)" fill="#fff" opacity="0.4"/>
    <circle id="Ellipse_1417" data-name="Ellipse 1417" cx="33.575" cy="33.575" r="33.575" transform="translate(257.784 -795.886)" fill="#fff" opacity="0.4"/>
    <circle id="Ellipse_1418" data-name="Ellipse 1418" cx="32.427" cy="32.427" r="32.427" transform="translate(258.932 -794.738)" fill="#ff9800"/>
    <circle id="Ellipse_1419" data-name="Ellipse 1419" cx="32.023" cy="32.023" r="32.023" transform="translate(259.336 -794.334)" fill="#fff"/>
    <g id="Group_36355" data-name="Group 36355" transform="translate(270.586 -780.937)">
      <path id="Path_66054" data-name="Path 66054" d="M397.692-653.1l-2.461,9.3-9.459-3.054-1.283,1.014-4.375,1.966-3.2.074-3.2-.074-4.375-1.966-1.281-1.014-9.459,3.054-2.461-9.3,3.122-8.831-1.755-2.211.764-.661L357.09-665.9l.879-.787-1.1-1,.73-.524-1.139-6.7,1.961-6.144,12.443,5.256h12.1l12.444-5.256,1.959,6.144-1.139,6.7.73.524-1.095,1,.879.787-1.186,1.094.764.661-1.755,2.211Z" transform="translate(-356.145 681.055)" fill="#ff9700"/>
      <g id="Group_36354" data-name="Group 36354" transform="translate(0 0)">
        <path id="Path_66055" data-name="Path 66055" d="M434.515-527.29l-1.168,4.479-1.253-2.587-2.957,1.354-3.715-3.588Z" transform="translate(-416.39 547.632)" fill="#e97709"/>
        <path id="Path_66056" data-name="Path 66056" d="M420.692-470.99l-.934,6.815-4.171-6.7Z" transform="translate(-407.838 498.374)" fill="#e97709"/>
        <path id="Path_66057" data-name="Path 66057" d="M457.1-507.911,453-509l-.262-.07.149-.068,0,0,2.957-1.354Z" transform="translate(-440.144 532.732)" fill="#393939"/>
        <path id="Path_66058" data-name="Path 66058" d="M429.206-522.306v3.656l-3.829-7.144.244.22,3.472,3.131-.149.068Z" transform="translate(-416.352 546.034)" fill="#fb8818"/>
        <path id="Path_66059" data-name="Path 66059" d="M375.685-669.554l-3.918,3.37-.111.045-10.26,4.208-1.755-2.211.764-.66-1.185-1.094.878-.787-1.094-1,.73-.524-1.14-6.7,1.96-6.144Z" transform="translate(-358.273 681.054)" fill="#985726"/>
        <path id="Path_66060" data-name="Path 66060" d="M388.763-669.554l-15.133-11.5,12.443,5.255Z" transform="translate(-371.351 681.054)" fill="#f98a04"/>
        <path id="Path_66061" data-name="Path 66061" d="M368.064-463.415l-9.458,3.054-2.462-9.3,7.749-.456Z" transform="translate(-356.145 497.613)" fill="#fc8a03"/>
        <path id="Path_66062" data-name="Path 66062" d="M453.485-468.2l-5.9,4.022.934-6.815Z" transform="translate(-435.662 498.374)" fill="#fc8a03"/>
        <path id="Path_66063" data-name="Path 66063" d="M487.965-515.607l-1.749-4.922,1.168-4.479Z" transform="translate(-469.26 545.35)" fill="#fb8917"/>
        <path id="Path_66064" data-name="Path 66064" d="M460.6-493.019l-.883.433-4.968-2.792v-3.656l4.1,1.093Z" transform="translate(-441.895 522.762)" fill="#ff9800"/>
        <path id="Path_66065" data-name="Path 66065" d="M453.485-449.571l-.384,3.018-.072.571v1.943l-4.182-.787-1.265-.723Z" transform="translate(-435.662 479.747)" fill="#e3cdc1"/>
        <path id="Path_66066" data-name="Path 66066" d="M369.086-588.906l-3.911,4.569,3.715,3.588,0,0-3.472-3.131-.244-.22L369-576.954l-5.105.114-7.749.456,3.123-8.831,10.26-4.208.111-.045,3.918-3.37Z" transform="translate(-356.145 604.338)" fill="#ff9800"/>
        <path id="Path_66067" data-name="Path 66067" d="M434.515-584l-9.093-.342,3.911-4.569,4.47-3.932.014.168Z" transform="translate(-416.39 604.338)" fill="#fa7c00"/>
        <path id="Path_66068" data-name="Path 66068" d="M465.288-424.108,464-423.093l-4.375,1.966-3.2.074-3.2-.074-4.375-1.966-1.283-1.014,1.266.723,4.181.787v-1.944l.464-.375h5.887l.464.375v1.944l4.182-.787Z" transform="translate(-435.66 458.306)" fill="#d1bcb0"/>
        <path id="Path_66069" data-name="Path 66069" d="M535.824-527.29l1.168,4.479,1.253-2.587,2.957,1.354,3.715-3.588Z" transform="translate(-512.401 547.632)" fill="#e97709"/>
        <path id="Path_66070" data-name="Path 66070" d="M576.251-470.99l.934,6.815,4.171-6.7Z" transform="translate(-547.558 498.374)" fill="#e97709"/>
        <path id="Path_66071" data-name="Path 66071" d="M544.784-507.911l4.1-1.093.263-.07-.149-.068,0,0-2.957-1.354Z" transform="translate(-520.193 532.732)" fill="#393939"/>
        <path id="Path_66072" data-name="Path 66072" d="M576.251-522.306v3.656l3.829-7.144-.244.22-3.472,3.131.149.068Z" transform="translate(-547.558 546.034)" fill="#fb8818"/>
        <path id="Path_66073" data-name="Path 66073" d="M541.286-669.554l3.918,3.37.111.045,10.26,4.208,1.755-2.211-.764-.66,1.185-1.094-.878-.787,1.094-1-.73-.524,1.14-6.7-1.96-6.144Z" transform="translate(-517.151 681.054)" fill="#985726"/>
        <path id="Path_66074" data-name="Path 66074" d="M541.286-669.554l15.133-11.5L543.975-675.8Z" transform="translate(-517.151 681.054)" fill="#f98a04"/>
        <path id="Path_66075" data-name="Path 66075" d="M583.418-463.415l9.458,3.054,2.462-9.3-7.749-.456Z" transform="translate(-553.791 497.613)" fill="#fc8a03"/>
        <path id="Path_66076" data-name="Path 66076" d="M538.14-468.2l5.9,4.022-.934-6.815Z" transform="translate(-514.415 498.374)" fill="#fc8a03"/>
        <path id="Path_66077" data-name="Path 66077" d="M531.369-515.607l1.749-4.922-1.168-4.479Z" transform="translate(-508.527 545.35)" fill="#fb8917"/>
        <path id="Path_66078" data-name="Path 66078" d="M531.369-493.019l.883.433,4.968-2.792v-3.656l-4.1,1.093Z" transform="translate(-508.527 522.762)" fill="#ff9800"/>
        <path id="Path_66079" data-name="Path 66079" d="M496.175-448.873l-.464-.375h-5.887l-.464.375.073-.571.383-3.019.882-.433h4.138l.883.433.383,3.019Z" transform="translate(-471.994 482.638)" fill="#393939"/>
        <path id="Path_66080" data-name="Path 66080" d="M538.14-449.571l.384,3.018.072.571v1.943l4.182-.787,1.265-.723Z" transform="translate(-514.415 479.747)" fill="#e3cdc1"/>
        <path id="Path_66081" data-name="Path 66081" d="M545.756-588.906l3.911,4.569-3.715,3.588,0,0,3.472-3.131.244-.22-3.829,7.144,5.105.114,7.749.456-3.123-8.831-10.26-4.208-.111-.045-3.918-3.37Z" transform="translate(-517.151 604.338)" fill="#ff9800"/>
        <path id="Path_66082" data-name="Path 66082" d="M535.824-584l9.093-.342-3.911-4.569-4.47-3.932-.014.168Z" transform="translate(-512.401 604.338)" fill="#fa7c00"/>
        <path id="Path_66083" data-name="Path 66083" d="M481.182-640.736l-2.689,6.244-.014.168-.7,8.674-.58,9.4h-4.138l-.58-9.4-.7-8.674-.013-.168-2.691-6.244Z" transform="translate(-454.357 645.992)" fill="#ff9700"/>
      </g>
    </g>
  </g>
</svg>
