<svg xmlns="http://www.w3.org/2000/svg" width="70.626" height="70.625" viewBox="0 0 70.626 70.625">
  <g id="Group_36643" data-name="Group 36643" transform="translate(-1052.095 837.397)">
    <circle id="Ellipse_1420" data-name="Ellipse 1420" cx="35.313" cy="35.313" r="35.313" transform="translate(1052.095 -837.397)" fill="#fff" opacity="0.4"/>
    <circle id="Ellipse_1421" data-name="Ellipse 1421" cx="33.894" cy="33.894" r="33.894" transform="translate(1053.514 -835.978)" fill="#fff" opacity="0.4"/>
    <circle id="Ellipse_1422" data-name="Ellipse 1422" cx="32.658" cy="32.658" r="32.658" transform="translate(1054.75 -834.743)" fill="#8c3bec"/>
    <circle id="Ellipse_1423" data-name="Ellipse 1423" cx="32.261" cy="32.261" r="32.261" transform="translate(1055.147 -834.345)" fill="#fff"/>
    <path id="Path_66084" data-name="Path 66084" d="M1165.811-717.8h1.5a1.592,1.592,0,0,1,.648.269q1.288.76,2.578,1.515l2.62,1.54c.907.533,1.818,1.058,2.72,1.6a2.516,2.516,0,0,1,1.24,1.854,2.237,2.237,0,0,1,.027.339c0,1.088,0,2.176,0,3.264a.3.3,0,0,1-.17.3c-.561.314-1.115.641-1.671.963s-1.108.64-1.66.962q-.147.086-.3.169c-.1.054-.147.026-.156-.083,0-.049,0-.1,0-.146q0-1.52,0-3.04a2.508,2.508,0,0,0-.547-1.6,2.8,2.8,0,0,0-.787-.643q-1.941-1.166-3.876-2.343a3.3,3.3,0,0,0-1.1-.463,2.371,2.371,0,0,0-1.52.186c-.321.156-.621.352-.93.531l-2.013,1.169c-.522.3-1.053.592-1.563.914a2.406,2.406,0,0,0-1.167,1.831,2.3,2.3,0,0,0-.015.262c0,1.692,0,3.385,0,5.077a2.429,2.429,0,0,0,.556,1.536,2.918,2.918,0,0,0,.826.656q1.615.972,3.226,1.95c.289.175.576.352.868.523a2.631,2.631,0,0,0,1,.328,2.38,2.38,0,0,0,1.329-.2,6.31,6.31,0,0,0,.589-.343l3.759-2.255c.437-.262.873-.527,1.312-.785.381-.224.771-.43,1.157-.644.607-.337,1.213-.677,1.824-1.008.777-.421,1.537-.869,2.3-1.319q1.22-.722,2.441-1.44c.626-.37,1.25-.744,1.881-1.1a2.4,2.4,0,0,1,.856-.283,2.588,2.588,0,0,1,1.277.11,4.868,4.868,0,0,1,.741.388c.683.394,1.365.792,2.047,1.187l1.726,1,2.031,1.177q.864.5,1.726,1a4.108,4.108,0,0,1,.678.455,2.7,2.7,0,0,1,.559.694,1.863,1.863,0,0,1,.261.971.04.04,0,0,0,.01.027v.019a.554.554,0,0,0-.01.158v9.881a2.077,2.077,0,0,1-.489,1.351,3.075,3.075,0,0,1-.949.762c-.932.533-1.859,1.077-2.788,1.615q-1.727,1-3.453,2c-.564.327-1.127.656-1.693.981a1.375,1.375,0,0,1-.722.2q-.6-.011-1.208,0a1.251,1.251,0,0,1-.653-.2q-1.387-.8-2.771-1.606l-2.231-1.3-2.5-1.451c-.258-.15-.524-.287-.769-.458a2.52,2.52,0,0,1-1.116-1.763c0-.016-.008-.032-.01-.048,0-.041,0-.082-.007-.123,0-1.136,0-2.272,0-3.408a.241.241,0,0,1,.133-.235c.959-.551,1.915-1.108,2.874-1.661.259-.149.515-.3.776-.447.112-.062.162-.035.17.092,0,.052,0,.1,0,.156q0,1.436,0,2.873a.81.81,0,0,0,.009.174c.007.051,0,.1.007.153a2.39,2.39,0,0,0,.553,1.356,3,3,0,0,0,.907.691c.542.313,1.083.629,1.625.943.727.421,1.451.848,2.181,1.264a2.871,2.871,0,0,0,1.262.451,2.435,2.435,0,0,0,1.091-.139,1.887,1.887,0,0,0,.343-.162q1.126-.67,2.251-1.341.955-.567,1.909-1.134a2.487,2.487,0,0,0,1.217-1.64,2.477,2.477,0,0,0,.06-.55c0-1.659.006-3.319,0-4.979a2.486,2.486,0,0,0-.606-1.646,3,3,0,0,0-.833-.631c-.543-.313-1.083-.63-1.625-.944q-1.066-.617-2.13-1.238a3.869,3.869,0,0,0-.795-.387,2.866,2.866,0,0,0-1.087-.117c-.033,0-.06.025-.093.026a2.485,2.485,0,0,0-.925.342c-.78.46-1.565.912-2.347,1.368l-1.943,1.132q-1.052.612-2.106,1.222-1.556.9-3.11,1.8l-2.062,1.2q-1.228.715-2.458,1.429-.371.214-.74.432a2.756,2.756,0,0,1-.994.353c-.026,0-.051.009-.077.015s-.071,0-.107.007a.952.952,0,0,0-.181.012.386.386,0,0,1-.1,0,.86.86,0,0,0-.163-.013c-.036,0-.071,0-.107-.006a3.2,3.2,0,0,1-1.27-.513c-.681-.4-1.368-.8-2.052-1.193l-1.582-.919-1.81-1.049-1.085-.63a.862.862,0,0,1-.109-.082,14.188,14.188,0,0,1-1.442-.868,2.421,2.421,0,0,1-.9-1.33,2.062,2.062,0,0,1-.052-.536q0-4.9,0-9.793a2.138,2.138,0,0,1,.65-1.554,2.567,2.567,0,0,1,.578-.409c.6-.341,1.189-.694,1.783-1.041l2.724-1.593,1.832-1.073q.97-.569,1.942-1.137A1.409,1.409,0,0,1,1165.811-717.8Z" transform="translate(-87.803 -101.295)" fill="#8c3bec"/>
  </g>
</svg>
