<svg xmlns="http://www.w3.org/2000/svg" width="70" height="70" viewBox="0 0 70 70">
  <g id="Group_36644" data-name="Group 36644" transform="translate(-1095 -5284)">
    <circle id="Ellipse_1405" data-name="Ellipse 1405" cx="33" cy="33" r="33" transform="translate(1097 5286)" fill="#fff" opacity="0.4"/>
    <circle id="Ellipse_1384" data-name="Ellipse 1384" cx="35" cy="35" r="35" transform="translate(1095 5284)" fill="#fff" opacity="0.4"/>
    <g id="Group_36250" data-name="Group 36250" transform="translate(1098.469 5287.47)">
      <g id="Group_36248" data-name="Group 36248">
        <circle id="Ellipse_1386" data-name="Ellipse 1386" cx="31.188" cy="31.188" r="31.188" transform="translate(0.343 0.342)" fill="#6546e8"/>
        <path id="Path_65947" data-name="Path 65947" d="M-521.732,2270.578a31.566,31.566,0,0,1-31.531-31.53,31.566,31.566,0,0,1,31.531-31.531,31.566,31.566,0,0,1,31.531,31.531A31.566,31.566,0,0,1-521.732,2270.578Zm0-62.375a30.88,30.88,0,0,0-30.846,30.845,30.88,30.88,0,0,0,30.846,30.844,30.88,30.88,0,0,0,30.846-30.844A30.88,30.88,0,0,0-521.732,2208.2Z" transform="translate(553.263 -2207.518)" fill="#fff"/>
      </g>
      <g id="Group_36249" data-name="Group 36249" transform="translate(17.654 16.671)">
        <path id="Path_65948" data-name="Path 65948" d="M-527.888,2219.681a12.48,12.48,0,0,0-12.5,12.474,12.484,12.484,0,0,0,12.463,12.476,12.474,12.474,0,0,0,12.491-12.475A12.472,12.472,0,0,0-527.888,2219.681Zm-.023,20.79a8.283,8.283,0,0,1-8.308-8.318,8.282,8.282,0,0,1,8.313-8.313,8.287,8.287,0,0,1,8.318,8.311A8.286,8.286,0,0,1-527.912,2240.471Z" transform="translate(540.384 -2219.679)" fill="#fdfdfd"/>
        <path id="Path_65949" data-name="Path 65949" d="M-531.268,2248.143a1.829,1.829,0,0,1,.561-1.221q4.225-4.229,8.457-8.456a2.02,2.02,0,0,1,3.086.331,1.987,1.987,0,0,1-.207,2.64q-4.143,4.139-8.281,8.281a2.166,2.166,0,0,1-1.2.657,1.988,1.988,0,0,1-2.042-.908A2.136,2.136,0,0,1-531.268,2248.143Z" transform="translate(543.763 -2212.927)" fill="#fdfdfd"/>
        <path id="Path_65950" data-name="Path 65950" d="M-520.048,2219.68a2.1,2.1,0,0,1,2.078,2.092,2.06,2.06,0,0,1-2.092,2.067,2.056,2.056,0,0,1-2.068-2.088A2.051,2.051,0,0,1-520.048,2219.68Z" transform="translate(547.151 -2219.68)" fill="#fdfdfd"/>
      </g>
    </g>
  </g>
</svg>
