<svg xmlns="http://www.w3.org/2000/svg" width="69.622" height="69.622" viewBox="0 0 69.622 69.622">
  <g id="Group_41431" data-name="Group 41431" transform="translate(-834.952 -6551.907)">
    <circle id="Ellipse_1428" data-name="Ellipse 1428" cx="34.811" cy="34.811" r="34.811" transform="translate(834.952 6551.907)" fill="#fff" opacity="0.4"/>
    <circle id="Ellipse_1429" data-name="Ellipse 1429" cx="32.743" cy="32.743" r="32.743" transform="translate(837.02 6553.975)" fill="#fff" opacity="0.4"/>
    <g id="Group_41408" data-name="Group 41408" transform="translate(756.99 6487.392)">
      <circle id="Ellipse_1736" data-name="Ellipse 1736" cx="30.525" cy="30.525" r="30.525" transform="translate(82.248 68.802)" fill="#00a17a" stroke="#fff" stroke-width="0.5"/>
      <path id="Path_63874" data-name="Path 63874" d="M106.956,83.217V79.679h10.275V72.214H88.537v7.465H98.808V83.2c-7.291.4-13.662,1.85-13.662,4.293s6.371,4.387,13.662,4.794v13.447h8.149V92.282c.107,0,.214,0,.322-.009,7.152-.42,13.34-2.372,13.34-4.78S114.113,83.637,106.956,83.217Zm.036,7.3c-1.372.08-2.832.13-4.4.13q-1.977,0-3.757-.094c-8.14-.407-12.715-1.8-12.715-3.056,0-1.233,4.736-2.882,12.683-3.319V89.45l8.149-.04V84.2c7.756.46,12.688,2.082,12.688,3.3S114.743,90.048,106.992,90.513Z" transform="translate(10.049 11.832)" fill="#fff" stroke="#fff" stroke-width="0.5"/>
    </g>
  </g>
</svg>
