<svg xmlns="http://www.w3.org/2000/svg" width="69.622" height="69.622" viewBox="0 0 69.622 69.622">
  <g id="Group_36642" data-name="Group 36642" transform="translate(1372.374 1385.793)">
    <circle id="Ellipse_1428" data-name="Ellipse 1428" cx="34.811" cy="34.811" r="34.811" transform="translate(-1372.374 -1385.794)" fill="#fff" opacity="0.4"/>
    <circle id="Ellipse_1429" data-name="Ellipse 1429" cx="32.743" cy="32.743" r="32.743" transform="translate(-1370.306 -1383.726)" fill="#fff" opacity="0.4"/>
    <g id="Group_36371" data-name="Group 36371" transform="translate(-1368.829 -1382.248)">
      <circle id="Ellipse_1430" data-name="Ellipse 1430" cx="31.053" cy="31.053" r="31.053" transform="translate(0.212 0.212)" fill="#0099fe"/>
      <path id="Path_66088" data-name="Path 66088" d="M-1316.031-1298.184a31.06,31.06,0,0,1-22.108-9.157,31.061,31.061,0,0,1-9.157-22.108,31.061,31.061,0,0,1,9.157-22.108,31.06,31.06,0,0,1,22.108-9.157,31.061,31.061,0,0,1,22.108,9.157,31.061,31.061,0,0,1,9.157,22.108,31.06,31.06,0,0,1-9.157,22.108A31.06,31.06,0,0,1-1316.031-1298.184Zm0-62.107a30.639,30.639,0,0,0-21.808,9.033,30.64,30.64,0,0,0-9.033,21.808,30.639,30.639,0,0,0,9.033,21.808,30.64,30.64,0,0,0,21.808,9.033,30.639,30.639,0,0,0,21.808-9.033,30.639,30.639,0,0,0,9.033-21.808,30.64,30.64,0,0,0-9.033-21.808A30.639,30.639,0,0,0-1316.031-1360.291Z" transform="translate(1347.296 1360.715)" fill="#fff"/>
    </g>
    <g id="Group_36372" data-name="Group 36372" transform="translate(-1358.686 -1364.238)">
      <path id="Path_66089" data-name="Path 66089" d="M-1272.186-1157.033a1.062,1.062,0,0,1,.823.443q3.693,3.7,7.389,7.4c.778.774.573.764,1.336,0q3.6-3.6,7.2-7.208c.139-.14.28-.28.43-.408a.787.787,0,0,1,1.118-.012c.219.184.418.394.621.6,2.425,2.427,4.856,4.849,7.267,7.291.341.345.529.32.857-.011q3.79-3.832,7.612-7.632c.641-.641,1-.642,1.634-.01.74.733,1.481,1.465,2.2,2.215a.9.9,0,0,1-.011,1.484q-3.779,3.8-7.572,7.595-1.675,1.679-3.351,3.356c-.809.808-1.088.812-1.908-.008q-3.678-3.677-7.348-7.362c-.553-.555-.557-.555-1.126.016q-3.675,3.68-7.347,7.362c-.79.792-1.08.8-1.866.013q-5.45-5.449-10.895-10.9a.983.983,0,0,1-.014-1.621c.745-.754,1.5-1.5,2.251-2.246A.9.9,0,0,1-1272.186-1157.033Z" transform="translate(1275.555 1167.841)" fill="#fff"/>
      <path id="Path_66090" data-name="Path 66090" d="M-1195.515-1226.674a.791.791,0,0,1-.275.623c-.863.864-1.715,1.738-2.583,2.6-.456.451-.6.447-1.062-.03a15.12,15.12,0,0,0-4.281-3.3,12.327,12.327,0,0,0-5.787-1.188,12.367,12.367,0,0,0-8.741,4.054c-1.135,1.182-.974,1.15-2.131-.007-.647-.648-1.3-1.292-1.939-1.946a.916.916,0,0,1,0-1.489,17.572,17.572,0,0,1,7.8-5.089,17.376,17.376,0,0,1,16.278,2.85,23.27,23.27,0,0,1,2.421,2.212A.95.95,0,0,1-1195.515-1226.674Z" transform="translate(1230.171 1233.326)" fill="#fff"/>
    </g>
  </g>
</svg>
