<svg id="Layer_1" data-name="Layer 1" xmlns="http://www.w3.org/2000/svg" viewBox="0 0 15.89 16.12"><defs><style>.cls-1{fill:#0168ff;fill-rule:evenodd;}</style></defs><path id="Path_70967" data-name="Path 70967" class="cls-1" d="M8,1.07C3.57-1-.08,4.7,0,8.53A8,8,0,0,0,9.26,16c4.55-.66,7.49-5.52,6.41-9.92C14.65,2,9.09-1.54,5,.7a.53.53,0,0,0-.26.7.54.54,0,0,0,.53.3c3.47-.46,7.26-.07,8.9,3.61A7.07,7.07,0,0,1,10,14.74c-3.71,1.14-8.15-1.15-8.87-5.11s2.12-9,6.72-8c.37.09.49-.47.18-.61Z"/><path id="Path_70968" data-name="Path 70968" class="cls-1" d="M4.79,5.28c.74-.45,1.46-.94,2.15-1.46.25-.19,0-.68-.29-.5A23.22,23.22,0,0,0,4.41,4.78c-.33.24,0,.71.38.5Z"/><path id="Path_70969" data-name="Path 70969" class="cls-1" d="M4.47,7.35a4.75,4.75,0,0,0,1.06-.64c.32-.22,0-.69-.33-.57a3.62,3.62,0,0,0-1,.47c-.44.24-.16,1,.31.74Z"/><path id="Path_70970" data-name="Path 70970" class="cls-1" d="M5.54,6.75c.94-.7,1.92-1.31,2.79-2.09a.33.33,0,0,0,.06-.45.32.32,0,0,0-.45-.06C7,4.78,6.12,5.58,5.19,6.29c-.29.23.06.69.35.46Z"/><path id="Path_70971" data-name="Path 70971" class="cls-1" d="M6.51,8c.88-.57,1.79-1.12,2.62-1.75.27-.2,0-.68-.29-.51C7.9,6.23,7,6.85,6.11,7.45c-.33.23,0,.73.4.51Z"/><path id="Path_70972" data-name="Path 70972" class="cls-1" d="M6.39,12.14c1.06-.66,2.13-1.3,3.15-2,.31-.21,0-.63-.35-.46C8.12,10.3,7.08,11,6,11.67c-.31.2,0,.67.36.47Z"/><path id="Path_70973" data-name="Path 70973" class="cls-1" d="M8.11,13.56a12.39,12.39,0,0,0,1.12-.94.3.3,0,0,0-.37-.48A9.15,9.15,0,0,0,7.7,13a.33.33,0,0,0,0,.47A.34.34,0,0,0,8.11,13.56Z"/><path id="Path_70974" data-name="Path 70974" class="cls-1" d="M10.72,11.78a30.9,30.9,0,0,0,2.67-1.7c.25-.19,0-.65-.28-.49a28.7,28.7,0,0,0-2.75,1.71c-.33.22,0,.67.36.48Z"/><path id="Path_70975" data-name="Path 70975" class="cls-1" d="M11.16,13.62a6.33,6.33,0,0,0,.74-1,.3.3,0,0,0-.05-.42.29.29,0,0,0-.42.05,5.59,5.59,0,0,0-.83,1,.37.37,0,0,0,.07.5.36.36,0,0,0,.49-.07Z"/><path id="Path_70976" data-name="Path 70976" class="cls-1" d="M5.94,10.79c.51-.26,1-.52,1.52-.8.32-.18.12-.72-.23-.55l-1.54.77c-.35.19-.11.77.25.58Z"/><path id="Path_70977" data-name="Path 70977" class="cls-1" d="M12.29,6.85c.68-.35,1.35-.7,2-1,.35-.19.11-.76-.24-.58l-2,1.07C11.72,6.47,11.94,7,12.29,6.85Z"/><path id="Path_70978" data-name="Path 70978" class="cls-1" d="M12.39,5.18A10.44,10.44,0,0,0,14,4.33c.28-.19,0-.62-.29-.5a10,10,0,0,0-1.55.74C11.78,4.78,12,5.36,12.39,5.18Z"/><path id="Path_70979" data-name="Path 70979" class="cls-1" d="M13.48,8.55a11.11,11.11,0,0,0,1.59-.86c.3-.19,0-.65-.31-.53a10.49,10.49,0,0,0-1.6.82C12.83,8.17,13.14,8.71,13.48,8.55Z"/><path id="Path_70980" data-name="Path 70980" class="cls-1" d="M.91,10.39c.46-.14.93-.29,1.38-.45.28-.09.16-.59-.13-.51L.68,9.85c-.36.1-.14.65.23.54Z"/><path id="Path_70981" data-name="Path 70981" class="cls-1" d="M1.85,11.63a14,14,0,0,0,2.08-1.14c.26-.18,0-.57-.27-.46a11.35,11.35,0,0,0-2.13,1c-.32.19,0,.71.32.56Z"/><path id="Path_70982" data-name="Path 70982" class="cls-1" d="M2.69,12.79a1.89,1.89,0,0,0,1.73-.91c.2-.29-.15-.71-.45-.46a2.37,2.37,0,0,1-1.37.71.33.33,0,0,0-.27.39.32.32,0,0,0,.36.27Z"/></svg>