<svg id="Layer_1" data-name="Layer 1" xmlns="http://www.w3.org/2000/svg" viewBox="0 0 151.61 154.19"><defs><style>.cls-1{fill:#0168ff;fill-rule:evenodd;}</style></defs><path id="Path_72089" data-name="Path 72089" class="cls-1" d="M8.61,77.67C12.23,38.29,40.42,4.52,82.47,6.2c41.75,1.67,67.7,38.43,63.76,78.33a.55.55,0,0,0,1.09.15c8.57-42-25.06-80.52-67.31-80.75C39.65,3.72,7.37,37.67,7.68,77.67c0,.53.88.52.93,0Z"/><path id="Path_72090" data-name="Path 72090" class="cls-1" d="M8.06,72.93c-5.65,34.9,29.51,65.82,61.44,71.83,35.27,6.63,77.42-27.35,78.46-63,0-.8-1.18-1-1.27-.17-3.55,35.28-44.06,68.59-79.64,60.08C36.72,134.4,5.78,106.35,9.18,73.09a.58.58,0,0,0-.5-.63.57.57,0,0,0-.62.47Z"/><path id="Path_72091" data-name="Path 72091" class="cls-1" d="M10.74,69.37A67.4,67.4,0,0,0,13.39,96c.08.24.5.13.44-.12a83.6,83.6,0,0,1-2.64-26.49c0-.29-.42-.36-.45-.06Z"/><path id="Path_72092" data-name="Path 72092" class="cls-1" d="M13.58,73.43A39.15,39.15,0,0,0,20,101.72c.17.23.49,0,.35-.26a42.61,42.61,0,0,1-6.32-28,.22.22,0,0,0-.21-.24.22.22,0,0,0-.23.18Z"/><path id="Path_72093" data-name="Path 72093" class="cls-1" d="M58.85,16.7C60,27.18,62,34.9,69.83,42.32c5.68,5.4,12.35,9.93,15.45,17.46,3.35,8.09,2,17.2,1.31,25.66a.25.25,0,0,0,.22.29.26.26,0,0,0,.3-.22c1.62-10.15,2.57-21.38-3.33-30.4-3-4.51-7.14-7.73-11.1-11.3-8.79-7.9-12.05-15.38-13.4-27.17a.22.22,0,0,0-.43.06Z"/><path id="Path_72094" data-name="Path 72094" class="cls-1" d="M55.55,39.91c1.09,12.45-.23,26.08,5.61,37.58,6.2,12.18,23,16.29,23.91,31.37a.28.28,0,0,0,.55,0c.24-9.91-7-14.93-14-20.81C56.32,75.2,57.91,57.93,56,39.84c0-.31-.5-.24-.47.07Z"/><path id="Path_72095" data-name="Path 72095" class="cls-1" d="M59.55,53.16c1.31,10.62,4.34,31,17.46,33.94,4.48,1,7.19-2.46,8.15-6.43,1.75-7.13-.63-14.93-4.68-20.79-.17-.24-.52,0-.36.29,3.34,5.3,5.42,11.46,4.65,17.81-.7,5.81-6.51,10-11.74,6a23.77,23.77,0,0,1-4.76-5.15C63,71.31,61.37,61.94,60,53.09a.25.25,0,0,0-.29-.2.24.24,0,0,0-.2.27Z"/><path id="Path_72096" data-name="Path 72096" class="cls-1" d="M62.8,41.61c3.68,7.74,11.61,12.16,16,19.45.14.23.51,0,.4-.23C75.62,53,67,49.16,63.23,41.43c-.13-.27-.56-.1-.44.18Z"/><path id="Path_72097" data-name="Path 72097" class="cls-1" d="M54.62,22.18c1.68,9.51,3.13,19.09,5.16,28.54.06.28.5.23.45-.06-1.42-9.56-3.41-19-5.19-28.54,0-.27-.48-.21-.42.06Z"/><path id="Path_72098" data-name="Path 72098" class="cls-1" d="M61.58,48.84c.76,8.12,2.55,16.79,6.56,24,2,3.67,7.16,10.66,12.34,9.44s3.34-8.94,2-12.23c-3.1-7.58-9-14.13-15.56-18.84a.35.35,0,0,0-.5.07.25.25,0,0,0,0,.07,17.2,17.2,0,0,0,.88,13.59.21.21,0,1,0,.39-.17h0c-1-2.46-2.71-7.23-1.49-9.91,1.88-4.1,6.26,1.94,7.95,3.82a44.31,44.31,0,0,1,5,6.81c1.53,2.54,5.38,8.7,3.9,11.6-2,1.2-4.1,2.39-6.13,3.59L74.09,79a18.6,18.6,0,0,1-3.45-3.64,32.8,32.8,0,0,1-4-7.68A75.24,75.24,0,0,1,62,48.77a.22.22,0,0,0-.26-.18.23.23,0,0,0-.19.24Z"/><path id="Path_72099" data-name="Path 72099" class="cls-1" d="M68.56,68a15.25,15.25,0,0,0,5.23,7.86c.23.17.47-.15.27-.35A19.19,19.19,0,0,1,69,67.83c-.1-.29-.51-.11-.43.17Z"/><path id="Path_72100" data-name="Path 72100" class="cls-1" d="M67.46,56.8C68.2,63.48,72,75.71,79.93,76.72a.21.21,0,0,0,.25-.19.21.21,0,0,0-.19-.24c-7.61-1.67-11.15-12.86-12.06-19.56a.24.24,0,0,0-.27-.2.24.24,0,0,0-.21.27Z"/><path id="Path_72101" data-name="Path 72101" class="cls-1" d="M69.25,56.51c1.62,1.4,15.62,16.16,10,17.91-.3.09-.15.54.14.51,3.85-.38,1-5.41.12-7.05a41.63,41.63,0,0,0-9.93-11.77c-.25-.21-.55.18-.3.4Z"/><path id="Path_72102" data-name="Path 72102" class="cls-1" d="M69.62,61.32c1.48,2.78,2.81,5.78,4.53,8.42,1,1.46,2.33,2.8,4.16,2.09a.31.31,0,0,0,.16-.4c-1.34-4.11-3.82-8.66-7.53-11.09-.24-.16-.61.13-.39.38,2.69,3,5.18,5.5,6.75,9.29.14.32.26.65.38,1A2.23,2.23,0,0,1,75,69.89a21,21,0,0,1-1.8-3.12c-1-1.89-2.06-3.78-3.11-5.66-.16-.29-.65-.1-.49.21Z"/><path id="Path_72103" data-name="Path 72103" class="cls-1" d="M58,24.88a31.38,31.38,0,0,0,7.65,17C71,47.78,78,51.45,81.5,59a.26.26,0,0,0,.49-.2c-1.88-5.3-6-8.68-10.18-12.21C64.79,40.62,60.1,34,58.46,24.81a.23.23,0,0,0-.27-.18.23.23,0,0,0-.19.25Z"/><path id="Path_72104" data-name="Path 72104" class="cls-1" d="M59,35a95.05,95.05,0,0,0,3.48,13.49.26.26,0,0,0,.35.14.28.28,0,0,0,.15-.27,93.82,93.82,0,0,0-3.47-13.5.28.28,0,0,0-.36-.13A.27.27,0,0,0,59,35Z"/><path id="Path_72105" data-name="Path 72105" class="cls-1" d="M64.27,48.47c.26.52.55,1,.84,1.52.13.23.51,0,.39-.23-.22-.51-.47-1-.72-1.51-.17-.31-.68-.1-.51.22Z"/><path id="Path_72106" data-name="Path 72106" class="cls-1" d="M78,90c7.33,6.12,8.87,15,10.63,23.86a.22.22,0,0,0,.25.18.23.23,0,0,0,.18-.24c-1-8.62-3.14-18.92-10.74-24.22a.27.27,0,0,0-.37.07A.28.28,0,0,0,78,90Z"/><path id="Path_72107" data-name="Path 72107" class="cls-1" d="M85.61,88.14a171,171,0,0,0,8.17,39.21c.1.31.55.12.46-.19a250.56,250.56,0,0,1-8.17-39.08.23.23,0,0,0-.46.06Z"/><path id="Path_72108" data-name="Path 72108" class="cls-1" d="M83.85,86.43a34.77,34.77,0,0,0-.37,4.89.22.22,0,0,0,.21.24.23.23,0,0,0,.23-.18,34.8,34.8,0,0,0,.4-4.89.24.24,0,0,0-.48-.06Z"/><path id="Path_72109" data-name="Path 72109" class="cls-1" d="M80.3,89a10.82,10.82,0,0,1,3.85,3.26c.17.22.57,0,.43-.25a7.09,7.09,0,0,0-4.11-3.43.22.22,0,0,0-.29.14.22.22,0,0,0,.12.28Z"/><path id="Path_72110" data-name="Path 72110" class="cls-1" d="M72.68,87.28c1.49,1.14,3,2.33,4.56,3.32a.21.21,0,0,0,.29,0,.21.21,0,0,0,0-.28c-1.41-1.23-3-2.3-4.5-3.4C72.73,86.68,72.41,87.08,72.68,87.28Z"/><path id="Path_72111" data-name="Path 72111" class="cls-1" d="M89.35,76.92a57.85,57.85,0,0,0,1.74,29.22c.07.23.43.08.36-.16a61.65,61.65,0,0,1-1.7-29c0-.27-.35-.32-.4-.06Z"/><path id="Path_72112" data-name="Path 72112" class="cls-1" d="M56.56,79c3.58,7.86,10.76,11.3,17.18,16.57,10.57,8.65,12.66,23,17.31,35.16.1.27.49.09.41-.17-2.84-9.76-5.45-21.73-11.68-30C73.27,91.88,61.8,89,56.94,78.81c-.11-.24-.5-.08-.38.16Z"/><path id="Path_72113" data-name="Path 72113" class="cls-1" d="M89.74,119.08c2,5.41,4.11,10.84,6.39,16.15a.22.22,0,0,0,.28.11.2.2,0,0,0,.11-.27c-1.94-5.45-4.09-10.85-6.3-16.19a.25.25,0,0,0-.34-.12.26.26,0,0,0-.14.32Z"/><path id="Path_72114" data-name="Path 72114" class="cls-1" d="M91.85,110a99.83,99.83,0,0,0,9.45,28.18c.13.24.52.09.4-.16A115,115,0,0,1,92.22,110c0-.24-.42-.19-.37,0Z"/><path id="Path_72115" data-name="Path 72115" class="cls-1" d="M95,112a135.64,135.64,0,0,0,6.7,20.31.24.24,0,0,0,.31.1.23.23,0,0,0,.11-.28c-2.3-6.74-4.74-13.38-6.63-20.27-.08-.27-.56-.14-.49.14Z"/><path id="Path_72116" data-name="Path 72116" class="cls-1" d="M99.43,114.5c.45,1.83.86,3.68,1.37,5.5.06.24.48.13.42-.12-.38-1.83-.86-3.64-1.31-5.45-.07-.31-.56-.25-.48.07Z"/><path id="Path_72117" data-name="Path 72117" class="cls-1" d="M103.75,118.47a37.4,37.4,0,0,0,2.85,5.24c.17.26.58,0,.46-.26a38,38,0,0,0-2.76-5.29c-.19-.3-.69,0-.55.32Z"/><path id="Path_72118" data-name="Path 72118" class="cls-1" d="M104.78,109.5a71,71,0,0,1,5.92,13c.1.27.5.09.42-.18a51.51,51.51,0,0,0-5.9-13.13C105,108.87,104.6,109.2,104.78,109.5Z"/><path id="Path_72119" data-name="Path 72119" class="cls-1" d="M107.6,106.08A111.25,111.25,0,0,1,115,122.61c.12.29.53.1.45-.19a75.82,75.82,0,0,0-7.35-16.55c-.18-.3-.69-.09-.51.21Z"/><path id="Path_72120" data-name="Path 72120" class="cls-1" d="M83,60.1c.65,1.71,1.38,3.38,2.18,5a.23.23,0,0,0,.31.12.23.23,0,0,0,.12-.3q-1-2.58-2.16-5a.24.24,0,0,0-.32-.13.24.24,0,0,0-.13.32Z"/><path id="Path_72121" data-name="Path 72121" class="cls-1" d="M56.25,20.06a16.66,16.66,0,0,1,1.27-12,.23.23,0,0,0-.13-.3.22.22,0,0,0-.26.07,13.89,13.89,0,0,0-1.36,12.36c.1.25.54.14.48-.13Z"/><path id="Path_72122" data-name="Path 72122" class="cls-1" d="M58,14.93A9.76,9.76,0,0,1,59.42,8c.14-.26-.26-.46-.43-.26A8.14,8.14,0,0,0,57.4,15c.08.38.68.31.61-.08Z"/><path id="Path_72123" data-name="Path 72123" class="cls-1" d="M60,12.53a56.75,56.75,0,0,0,1.3-6.43c0-.26-.38-.4-.46-.13a57.26,57.26,0,0,0-1.46,6.48c-.07.39.53.47.62.08Z"/><path id="Path_72124" data-name="Path 72124" class="cls-1" d="M53,10.17a4.77,4.77,0,0,0-.63,5.15c.13.25.58.16.51-.14a6,6,0,0,1,.49-4.73c.14-.24-.19-.52-.37-.28Z"/><path id="Path_72125" data-name="Path 72125" class="cls-1" d="M51.84,18.2a51.82,51.82,0,0,0,1.26,19c.08.27.51.23.45-.07a77.08,77.08,0,0,1-1.22-18.88c0-.32-.46-.39-.49-.06Z"/><path id="Path_72126" data-name="Path 72126" class="cls-1" d="M48.2,24A125.81,125.81,0,0,1,51,60.93c0,.36.52.45.56.08A106,106,0,0,0,48.7,23.94c-.07-.31-.57-.26-.5.07Z"/><path id="Path_72127" data-name="Path 72127" class="cls-1" d="M47.35,35.7c3.65,15.3-2,32.34,5,46.86a.25.25,0,0,0,.46-.19c-5.86-15.13-1.1-31.25-5-46.74-.07-.29-.55-.23-.48.07Z"/><path id="Path_72128" data-name="Path 72128" class="cls-1" d="M46,56.06c.26,12.35.85,25.74,9.2,35.62a.22.22,0,0,0,.3,0,.21.21,0,0,0,0-.29h0C47.76,81,46.94,68.49,46.52,56c0-.36-.55-.28-.54.07Z"/><path id="Path_72129" data-name="Path 72129" class="cls-1" d="M16.18,76.7a48,48,0,0,0,5.13,21.91.26.26,0,0,0,.47-.2,55.65,55.65,0,0,1-5.09-21.78c0-.33-.51-.25-.51.07Z"/><path id="Path_72130" data-name="Path 72130" class="cls-1" d="M20.55,84.33c.25,2.38.46,4.77.75,7.15a.23.23,0,0,0,.25.19.22.22,0,0,0,.19-.25h0c-.18-2.39-.46-4.77-.7-7.15a.25.25,0,0,0-.49.06Z"/><path id="Path_72131" data-name="Path 72131" class="cls-1" d="M20.76,107.47c1.75,5,4.93,9.91,9.39,12.92a.22.22,0,0,0,.31,0,.22.22,0,0,0,0-.29c-4.16-3.63-7.35-7.5-9.21-12.77C21.11,107,20.65,107.17,20.76,107.47Z"/><path id="Path_72132" data-name="Path 72132" class="cls-1" d="M22,103a59.66,59.66,0,0,0,10.37,16.47c.18.2.52,0,.34-.26a70.26,70.26,0,0,1-10.26-16.4.25.25,0,0,0-.33-.11.24.24,0,0,0-.12.3Z"/><path id="Path_72133" data-name="Path 72133" class="cls-1" d="M23.42,100.43c1.37,2.3,2.71,4.6,4.12,6.87.12.2.48,0,.36-.21-1.33-2.33-2.74-4.62-4.12-6.92C23.63,99.92,23.28,100.19,23.42,100.43Z"/><path id="Path_72134" data-name="Path 72134" class="cls-1" d="M13.68,65.83c1.37-7.25,2.94-14.42,4.54-21.62.06-.26-.38-.39-.46-.12a154.06,154.06,0,0,0-4.59,21.67.25.25,0,0,0,.23.29A.26.26,0,0,0,13.68,65.83Z"/><path id="Path_72135" data-name="Path 72135" class="cls-1" d="M15.63,68.57c.22.07.37-.27.15-.34S15.41,68.5,15.63,68.57Z"/><path id="Path_72136" data-name="Path 72136" class="cls-1" d="M15.82,72.2a45.57,45.57,0,0,1,1.71-10.75c.07-.27-.34-.36-.46-.13A22.42,22.42,0,0,0,15.3,72.2c0,.29.51.3.52,0Z"/><path id="Path_72137" data-name="Path 72137" class="cls-1" d="M18.7,71.71a8,8,0,0,1,.46-3.43.27.27,0,0,0-.16-.35.29.29,0,0,0-.34.14,6.53,6.53,0,0,0-.59,3.72c0,.39.66.31.63-.08Z"/><path id="Path_72138" data-name="Path 72138" class="cls-1" d="M23.12,73.41a64.22,64.22,0,0,0,7.15,26.25c.17.32.67.11.52-.22a73.9,73.9,0,0,1-7.22-26.09c0-.29-.47-.23-.45.06Z"/><path id="Path_72139" data-name="Path 72139" class="cls-1" d="M27.58,81.07a49.82,49.82,0,0,0,5.17,17.31c.15.27.6.1.46-.19A54.47,54.47,0,0,1,28.1,81a.26.26,0,0,0-.52.07Z"/><path id="Path_72140" data-name="Path 72140" class="cls-1" d="M29.42,73.59c.21.68.43,1.35.65,2,.08.25.5.14.44-.11-.18-.69-.35-1.38-.53-2.07a.29.29,0,1,0-.57.1A.43.43,0,0,1,29.42,73.59Z"/><path id="Path_72141" data-name="Path 72141" class="cls-1" d="M30.76,80.85A82.88,82.88,0,0,0,39.44,103c.12.21.48,0,.37-.22a110.8,110.8,0,0,1-8.49-22c-.09-.34-.65-.28-.56.08Z"/><path id="Path_72142" data-name="Path 72142" class="cls-1" d="M34.08,80.59a54.82,54.82,0,0,0,9,21c.17.24.5,0,.35-.26a62.86,62.86,0,0,1-8.81-20.85c-.07-.34-.61-.27-.54.08Z"/><path id="Path_72143" data-name="Path 72143" class="cls-1" d="M36.05,66.06a78.44,78.44,0,0,0,16.34,42.69.28.28,0,0,0,.39,0,.28.28,0,0,0,0-.37C43.71,95.62,38.06,81.69,36.6,66,36.56,65.63,36,65.7,36.05,66.06Z"/><path id="Path_72144" data-name="Path 72144" class="cls-1" d="M41.46,78.22c1.91,5.27,3.94,10.51,6,15.71,1.37,3.38,2.92,6.71,6,8.87a.24.24,0,0,0,.34,0,.25.25,0,0,0,0-.34C47.19,96.61,45.16,85.89,41.88,78a.23.23,0,0,0-.31-.1.23.23,0,0,0-.11.28Z"/><path id="Path_72145" data-name="Path 72145" class="cls-1" d="M45.89,80.69c.57,1.45,1.1,2.9,1.74,4.31a.23.23,0,0,0,.3.13.24.24,0,0,0,.13-.31c-.48-1.47-1.06-2.91-1.63-4.35a.29.29,0,0,0-.54.22Z"/><path id="Path_72146" data-name="Path 72146" class="cls-1" d="M49.05,90c2.78,4.89,5.46,9.87,8.49,14.61.14.21.49,0,.38-.21-2.59-5-5.58-9.82-8.42-14.67-.15-.26-.61,0-.46.27Z"/><path id="Path_72147" data-name="Path 72147" class="cls-1" d="M56.13,97.66a5.17,5.17,0,0,0,1.8,2.51.22.22,0,0,0,.27-.35,6.15,6.15,0,0,1-1.6-2.36c-.11-.31-.57-.11-.47.2Z"/><path id="Path_72148" data-name="Path 72148" class="cls-1" d="M43.76,70.48a100.36,100.36,0,0,1-.43-27.64.24.24,0,0,0-.22-.26.23.23,0,0,0-.25.19,72,72,0,0,0,.32,27.79.29.29,0,0,0,.58-.08Z"/><path id="Path_72149" data-name="Path 72149" class="cls-1" d="M39.62,58.51c0-4.79.1-9.57.07-14.35,0-.22-.38-.22-.39,0-.08,4.76-.06,9.53-.08,14.29,0,.26.4.32.4.06Z"/><path id="Path_72150" data-name="Path 72150" class="cls-1" d="M19.85,56a107.38,107.38,0,0,1,4.83-24c.09-.27-.31-.45-.42-.18a65.2,65.2,0,0,0-4.94,24.1c0,.33.5.42.53.07Z"/><path id="Path_72151" data-name="Path 72151" class="cls-1" d="M24.21,46.7A89.27,89.27,0,0,1,28.1,28.05c.08-.25-.29-.41-.38-.16a71.56,71.56,0,0,0-4,18.74C23.7,47,24.18,47,24.21,46.7Z"/><path id="Path_72152" data-name="Path 72152" class="cls-1" d="M20.57,58.69a17.5,17.5,0,0,0-.65,8,.26.26,0,0,0,.29.21.25.25,0,0,0,.21-.28,26.89,26.89,0,0,1,.74-7.74c.08-.33-.49-.49-.59-.16Z"/><path id="Path_72153" data-name="Path 72153" class="cls-1" d="M23.52,50.38a105.09,105.09,0,0,0,.29,17.56c0,.28.45.22.43-.07A166.14,166.14,0,0,1,24,50.44c0-.3-.45-.37-.47-.06Z"/><path id="Path_72154" data-name="Path 72154" class="cls-1" d="M28.71,35.12a84.1,84.1,0,0,0-.31,39.37c.07.31.57.26.52-.07a92.87,92.87,0,0,1,.22-39.24c.06-.27-.37-.33-.43,0Z"/><path id="Path_72155" data-name="Path 72155" class="cls-1" d="M29.44,54.07a60.7,60.7,0,0,0,.72,15.29.25.25,0,0,0,.49-.07A100.72,100.72,0,0,1,30,54.15c0-.37-.54-.45-.57-.08Z"/><path id="Path_72156" data-name="Path 72156" class="cls-1" d="M31.77,60c.18,2.75.29,5.51.62,8.25,0,.32.48.24.48-.06,0-2.76-.28-5.52-.48-8.28,0-.4-.64-.31-.62.09Z"/><path id="Path_72157" data-name="Path 72157" class="cls-1" d="M28.74,32.64c.8-1.81,1.73-3.61,2.36-5.49a.29.29,0,0,0-.53-.22c-1,1.73-1.67,3.62-2.47,5.44a.35.35,0,0,0,.2.45.35.35,0,0,0,.44-.18Z"/><path id="Path_72158" data-name="Path 72158" class="cls-1" d="M34,123.93c2.1,2.55,4.25,5,6.5,7.47.2.2.54,0,.35-.28-2-2.58-4.21-5.06-6.42-7.52-.23-.25-.64.06-.43.33Z"/><path id="Path_72159" data-name="Path 72159" class="cls-1" d="M32.2,110c.51,1,1,2,1.58,3,.14.24.54.1.41-.17-.47-1-1-2-1.51-3-.15-.29-.63-.1-.48.19Z"/><path id="Path_72160" data-name="Path 72160" class="cls-1" d="M36.06,117.5a60.06,60.06,0,0,0,17.14,23c.27.21.56-.19.32-.42a73.71,73.71,0,0,1-17-22.78.24.24,0,0,0-.33-.12.25.25,0,0,0-.13.31Z"/><path id="Path_72161" data-name="Path 72161" class="cls-1" d="M40,119.26c3.25,7.19,8.15,14,14.59,18.69a.25.25,0,0,0,.35,0,.25.25,0,0,0,0-.34c-6-5.43-10.92-11.12-14.42-18.5A.26.26,0,0,0,40,119.26Z"/><path id="Path_72162" data-name="Path 72162" class="cls-1" d="M40,112.64c1.36,2.77,2.94,5.42,4.44,8.13.11.21.47.07.36-.15-1.44-2.76-2.79-5.56-4.35-8.24-.15-.26-.59,0-.45.26Z"/><path id="Path_72163" data-name="Path 72163" class="cls-1" d="M48.23,126.44A72.64,72.64,0,0,0,61,141.69c.19.17.47-.12.31-.31-4.3-5.13-9-9.6-12.61-15.26-.19-.3-.6,0-.42.32Z"/><path id="Path_72164" data-name="Path 72164" class="cls-1" d="M53.36,128a60.91,60.91,0,0,0,14.75,16.59.23.23,0,0,0,.32,0,.25.25,0,0,0,0-.32,81.36,81.36,0,0,1-14.63-16.53c-.18-.28-.57,0-.4.3Z"/><path id="Path_72165" data-name="Path 72165" class="cls-1" d="M51.19,113a134.18,134.18,0,0,0,18.32,27.06c.2.23.58-.05.38-.29a187.55,187.55,0,0,1-18.23-27c-.16-.29-.62-.1-.47.19Z"/><path id="Path_72166" data-name="Path 72166" class="cls-1" d="M51.52,119.93a73.64,73.64,0,0,0,12.7,17.25c.17.16.47-.12.3-.3a97,97,0,0,1-12.59-17.13C51.79,119.51,51.37,119.67,51.52,119.93Z"/><path id="Path_72167" data-name="Path 72167" class="cls-1" d="M54.19,111.91c5.82,11.13,12.68,22,21.14,31.3.2.22.55,0,.37-.27-7.85-10-15.09-20-21.06-31.21-.15-.28-.6-.09-.45.18Z"/><path id="Path_72168" data-name="Path 72168" class="cls-1" d="M61.11,117.33a67.09,67.09,0,0,0,13.21,19.38c.19.19.51-.13.34-.33a81.18,81.18,0,0,1-13.08-19.25c-.14-.29-.61-.1-.47.2Z"/><path id="Path_72169" data-name="Path 72169" class="cls-1" d="M66.72,123A58.46,58.46,0,0,0,78,137.09c.21.2.47-.15.27-.35a80.8,80.8,0,0,1-11.23-14C67,122.56,66.6,122.76,66.72,123Z"/><path id="Path_72170" data-name="Path 72170" class="cls-1" d="M61.21,20.61a27.5,27.5,0,0,0,8,16.5c1.92,1.88,4.66,5,7.31,3.5,4.14-2.37,3-10.67,2.1-14.25-1.88-7.1-6.58-13.07-8.7-20.12-.15-.5-.9-.18-.76.32,2.45,8.18,8.52,15.23,9.35,23.88.37,3.87.28,10-5.9,8.5-2-.49-4-3.54-5.22-5.08A29.91,29.91,0,0,1,61.8,20.53a.29.29,0,0,0-.34-.24.31.31,0,0,0-.25.32Z"/><path id="Path_72171" data-name="Path 72171" class="cls-1" d="M63.87,17c-.21-1.06-1-4.66-.22-5.57l2.93-.32a12,12,0,0,1,2,2.18,38.45,38.45,0,0,1,4.32,6.93,27.79,27.79,0,0,1,2.72,15.51.26.26,0,0,0,.26.26.27.27,0,0,0,.26-.19C77.54,30,75.74,24,73,18.84c-1.83-3.39-4.77-9.61-9.35-9.15a.35.35,0,0,0-.29.29,13.54,13.54,0,0,0,0,7.12c.09.33.62.28.55-.07Z"/><path id="Path_72172" data-name="Path 72172" class="cls-1" d="M64.21,21.48A29.67,29.67,0,0,0,69.3,33.31c.91,1.24,3.55,5.39,5.46,3.45.3-.3-.18-.72-.49-.5-1.79,1.25-5.74-5.43-6.44-6.69a30.25,30.25,0,0,1-3.09-8.17c-.07-.33-.6-.27-.53.08Z"/><path id="Path_72173" data-name="Path 72173" class="cls-1" d="M66.14,13.47c4.65,5.67,6.66,12,7.47,19.2,0,.37.67.39.68,0,.12-7.19-3.1-14.16-7.76-19.49-.21-.24-.59.05-.39.3Z"/><path id="Path_72174" data-name="Path 72174" class="cls-1" d="M65.51,18.09c.29,5.6,2.77,12.8,7.79,16,.27.17.64-.13.41-.41-1.88-2.39-3.9-4.31-5.3-7.08A23.89,23.89,0,0,1,66,18c0-.34-.54-.26-.52.08Z"/><path id="Path_72175" data-name="Path 72175" class="cls-1" d="M70.05,23.75c-.16-.29-.52-.58-.61-.88l-.45.35c.51.32,1,1.93,1.2,2.44.39.86.79,1.72,1.14,2.59.11.28.59.17.52-.15a19.06,19.06,0,0,0-2.08-5.23.4.4,0,0,0-.41-.23l-.23.06a.29.29,0,0,0-.25.34.14.14,0,0,0,0,.06c.16.35.52.57.74.89s.55,0,.41-.24Z"/><path id="Path_72176" data-name="Path 72176" class="cls-1" d="M83.72,48.67c-2.1-1-.43-10.39-.4-12.47a36.83,36.83,0,0,0-1-9.87c-1.8-6.76-7-11.79-8.39-18.74a.35.35,0,0,0-.42-.28.36.36,0,0,0-.29.38c1,7.37,6.9,12.6,8.55,19.8,1.58,6.94-1.37,14.63.58,21.24a.35.35,0,0,0,.28.22l1,.21c.28.06.37-.37.13-.49Z"/><path id="Path_72177" data-name="Path 72177" class="cls-1" d="M85.62,47.5c-1.27-6.79,1.36-13.43-.43-20.2C83.5,20.89,80.4,14.41,77.66,8.4a.3.3,0,0,0-.56.23h0c2.47,6.73,6.68,13.64,7.9,20.76,1,6.1-1.22,12.1.07,18.19.07.34.61.27.55-.08Z"/><path id="Path_72178" data-name="Path 72178" class="cls-1" d="M84.83,51c2,6.17,5.12,12,5.12,18.66,0,.29.45.26.5,0,1.08-6.15-2.81-13.37-5.12-18.87C85.2,50.47,84.72,50.68,84.83,51Z"/><path id="Path_72179" data-name="Path 72179" class="cls-1" d="M87.32,39.94c-.5,12.7,6.06,23.75,4.81,36.67C91,87.87,89.77,96.9,94.83,107.46a.32.32,0,0,0,.41.17.31.31,0,0,0,.17-.41C90.35,94.83,93,85.11,93.26,72.44c.21-11.25-5.68-21.19-5.47-32.44,0-.3-.45-.37-.47-.06Z"/><path id="Path_72180" data-name="Path 72180" class="cls-1" d="M130.1,32.44c5.87,7.7,8.73,15.63,11,24.91a.27.27,0,0,0,.53-.07c-.75-9.08-5.36-18.23-11-25.2a.3.3,0,0,0-.42,0,.29.29,0,0,0,0,.41Z"/><path id="Path_72181" data-name="Path 72181" class="cls-1" d="M143.39,61c.35,5,.7,9.93,1.24,14.87,0,.42.67.32.64-.09-.32-4.95-.84-9.91-1.35-14.85C143.89,60.62,143.37,60.7,143.39,61Z"/><path id="Path_72182" data-name="Path 72182" class="cls-1" d="M133.78,43.77A120.88,120.88,0,0,1,142,72a.34.34,0,0,0,.68-.1,113.24,113.24,0,0,0-8.38-28.36.25.25,0,0,0-.36-.09A.26.26,0,0,0,133.78,43.77Z"/><path id="Path_72183" data-name="Path 72183" class="cls-1" d="M103.13,128.27c1.37,3.36,2.59,6.87,4.26,10.1a.27.27,0,0,0,.5-.2c-1.17-3.45-2.83-6.77-4.3-10.1a.25.25,0,0,0-.46.2Z"/><path id="Path_72184" data-name="Path 72184" class="cls-1" d="M103.9,124.09c1.67,3.54,3.32,7.11,5.14,10.58.18.34.71.13.55-.22-1.63-3.57-3.45-7.06-5.21-10.56-.15-.29-.63-.11-.48.2Z"/><path id="Path_72185" data-name="Path 72185" class="cls-1" d="M108.71,128.7a40.55,40.55,0,0,0,2.26,4.58c.17.28.56,0,.46-.26a37.92,37.92,0,0,0-2.19-4.54c-.17-.32-.67-.12-.53.22Z"/><path id="Path_72186" data-name="Path 72186" class="cls-1" d="M110.17,126.11a15,15,0,0,1,2,5,.25.25,0,0,0,.3.22.27.27,0,0,0,.23-.29,8.56,8.56,0,0,0-2.16-5.21.27.27,0,0,0-.37,0,.26.26,0,0,0,0,.36Z"/><path id="Path_72187" data-name="Path 72187" class="cls-1" d="M68.75,95.55c5.13,3.92,8.55,8.69,11.84,14.15.15.24.51,0,.41-.24-2.35-5.79-7-10.65-12-14.29a.23.23,0,0,0-.33.06.25.25,0,0,0,0,.32Z"/><path id="Path_72188" data-name="Path 72188" class="cls-1" d="M81.69,113.31a35.89,35.89,0,0,0,2,3.78c.16.23.52,0,.42-.24a33,33,0,0,0-1.9-3.75c-.16-.31-.68-.12-.52.21Z"/><path id="Path_72189" data-name="Path 72189" class="cls-1" d="M84.7,121.71q3,9.74,6.67,19.23a.38.38,0,0,0,.7-.29q-3.6-9.51-6.88-19.14c-.11-.33-.59-.12-.49.21Z"/><path id="Path_72190" data-name="Path 72190" class="cls-1" d="M60.73,108.52a41,41,0,0,0,6.07,12.13c.19.25.53,0,.37-.29a61,61,0,0,1-5.92-12c-.12-.34-.63-.12-.52.21Z"/><path id="Path_72191" data-name="Path 72191" class="cls-1" d="M63.58,105.57c6,13.33,12.51,27.05,24.11,36.44.36.29.79-.26.43-.56-11.34-9.79-17.76-22.77-24.07-36.08-.14-.29-.61-.1-.47.2Z"/><path id="Path_72192" data-name="Path 72192" class="cls-1" d="M58.91,88.64C60,91.08,61,93.57,62.22,95.92a.23.23,0,0,0,.31.12.25.25,0,0,0,.12-.3c-.93-2.49-2.14-4.89-3.27-7.3a.26.26,0,0,0-.47.2Z"/><path id="Path_72193" data-name="Path 72193" class="cls-1" d="M64.11,99.7c3.61,7.11,7.34,14.14,11.29,21.07,2.92,5.14,5.55,10.55,10.43,14.09a.35.35,0,0,0,.48-.07.4.4,0,0,0,.07-.24A59.93,59.93,0,0,0,68.44,97.68c-.3-.29-.68.21-.4.5a62.47,62.47,0,0,1,11.68,15.76A54.37,54.37,0,0,1,83,121.78c.82,2.47,2.95,7.4,2.36,10-.72,3.3-3.92-2.26-5-3.92-2.16-3.35-4.06-6.89-6-10.37q-5-8.94-9.76-18c-.16-.3-.65-.11-.49.2Z"/><path id="Path_72194" data-name="Path 72194" class="cls-1" d="M81.66,126.56c-2.2-3.78-4.29-7.62-6.18-11.56-.9-1.88-1.76-3.77-2.57-5.69-.36-.83-.64-1.76-1.07-2.56-.27-.5-1.29-2-.39-.7a117.49,117.49,0,0,1,11.81,21.08.31.31,0,0,0,.42.15.32.32,0,0,0,.17-.39c-2.62-8.33-7.57-16.1-13.07-22.8a.35.35,0,0,0-.5-.06.36.36,0,0,0-.1.41,141.26,141.26,0,0,0,11,22.46c.18.31.62,0,.45-.35Z"/><path id="Path_72195" data-name="Path 72195" class="cls-1" d="M67.86,99.77a29.15,29.15,0,0,0-4.22-8.86.25.25,0,0,0-.35,0,.26.26,0,0,0-.07.28c1.31,2.9,2.67,6,4.19,8.74.11.21.52.16.45-.12Z"/><path id="Path_72196" data-name="Path 72196" class="cls-1" d="M53.75,61.83a28.61,28.61,0,0,0,4.71,16.71c.16.23.58,0,.44-.25a35.41,35.41,0,0,1-4.68-16.46c0-.27-.47-.27-.47,0Z"/><path id="Path_72197" data-name="Path 72197" class="cls-1" d="M51.32,65.57c1.27,4.38,2.46,8.8,3.88,13.13.08.23.47.12.41-.11-1.16-4.43-2.59-8.8-3.91-13.18C51.63,65.15,51.25,65.31,51.32,65.57Z"/><path id="Path_72198" data-name="Path 72198" class="cls-1" d="M106.77,11c5,8.65,7.86,17.63,10.37,27.26a.26.26,0,0,0,.51-.07c-1.22-9.73-5.37-19.25-10.32-27.62-.23-.38-.78.05-.56.43Z"/><path id="Path_72199" data-name="Path 72199" class="cls-1" d="M110.88,13.48a195.17,195.17,0,0,1,9.6,24.84.28.28,0,0,0,.53-.15,80.52,80.52,0,0,0-9.69-24.94c-.15-.25-.56,0-.44.25Z"/><path id="Path_72200" data-name="Path 72200" class="cls-1" d="M119.12,25.25c.51,2.28,1,4.57,1.72,6.79.08.27.51.15.47-.12-.4-2.28-1-4.52-1.6-6.74-.1-.36-.67-.3-.58.07Z"/><path id="Path_72201" data-name="Path 72201" class="cls-1" d="M119.65,40.81c5.16,8.52,4,19.23,7.61,28.42,4.33,11,15.45,19,14,31.72a.27.27,0,0,0,.23.3.28.28,0,0,0,.3-.23c2.71-11.65-7.76-19.42-12.44-29-4.91-10.06-3.31-22.09-9.33-31.51-.19-.28-.58,0-.41.32Z"/><path id="Path_72202" data-name="Path 72202" class="cls-1" d="M120.79,49.83A75.12,75.12,0,0,0,126.16,74c4.21,10.21,13.68,19.24,12,30.91a.32.32,0,0,0,.27.34.33.33,0,0,0,.34-.26c1.79-8.25-2.42-14.2-6.53-21a75.68,75.68,0,0,1-11-34.19c0-.27-.42-.21-.4,0Z"/><path id="Path_72203" data-name="Path 72203" class="cls-1" d="M130.39,66.72c2.63,11.07,12.37,19,12.12,30.89,0,.4.57.5.63.09,1.46-11.75-9.58-20.35-12.27-31-.08-.29-.54-.23-.47.07Z"/><path id="Path_72204" data-name="Path 72204" class="cls-1" d="M117.49,53.52c2.22,9.12,3.21,17.19,7.43,25.74,5.12,10.36,10.64,19.65,10.16,31.67,0,.33.48.41.52.07,1-8.23-1.75-15.64-5.37-22.92-2.27-4.58-4.89-9-6.91-13.67-2.91-6.76-3.53-13.9-5.31-21C117.93,53.12,117.4,53.18,117.49,53.52Z"/><path id="Path_72205" data-name="Path 72205" class="cls-1" d="M127.09,90.31c2.76,5.43,4.33,11,6.09,16.8.07.27.51.14.47-.13-.84-5.88-3.38-11.63-6.12-16.85-.14-.26-.57-.08-.43.18Z"/><path id="Path_72206" data-name="Path 72206" class="cls-1" d="M118.45,75.31c4.07,10.87,5.74,23.35,13.23,32.59a.27.27,0,0,0,.37,0,.28.28,0,0,0,0-.37c-6.86-9.9-8.87-21.43-13.2-32.46-.11-.29-.56-.1-.45.19Z"/><path id="Path_72207" data-name="Path 72207" class="cls-1" d="M126.89,94.67c.87,1.92,1.71,3.86,2.68,5.73a.24.24,0,0,0,.31.11.23.23,0,0,0,.12-.29c-.8-2-1.73-3.84-2.63-5.75C127.23,94.17,126.75,94.37,126.89,94.67Z"/><path id="Path_72208" data-name="Path 72208" class="cls-1" d="M119.34,86.37a35.21,35.21,0,0,0,4.46,14.18c2.69,4.66,6.55,8.45,7,14.1,0,.32.5.24.49-.07-.13-4.21-2.43-7.45-4.74-10.82a38.13,38.13,0,0,1-6.79-17.45C119.75,86,119.31,86.09,119.34,86.37Z"/><path id="Path_72209" data-name="Path 72209" class="cls-1" d="M123,105.34a22.82,22.82,0,0,1,4.49,9.89.23.23,0,0,0,.28.18.23.23,0,0,0,.19-.25A18.24,18.24,0,0,0,123.39,105c-.23-.27-.68.06-.45.34Z"/><path id="Path_72210" data-name="Path 72210" class="cls-1" d="M114.73,94.36c3.35,8,6.47,16.22,10.31,24a.25.25,0,0,0,.34.12.25.25,0,0,0,.13-.32c-3-8.14-6.81-16.06-10.33-24a.24.24,0,1,0-.45.19Z"/><path id="Path_72211" data-name="Path 72211" class="cls-1" d="M118.63,109a37.17,37.17,0,0,1,3.28,7.71.24.24,0,0,0,.45-.13,26.19,26.19,0,0,0-3.28-7.92c-.19-.31-.63,0-.45.34Z"/><path id="Path_72212" data-name="Path 72212" class="cls-1" d="M106.91,98.4c4.69,8.34,8.59,17,12.71,25.61a.22.22,0,0,0,.31.11.23.23,0,0,0,.11-.28c-3.38-8.88-8-17.38-12.72-25.62-.14-.25-.56-.08-.41.18Z"/><path id="Path_72213" data-name="Path 72213" class="cls-1" d="M79.67,6.91a100.21,100.21,0,0,1,9.57,26.8.21.21,0,0,0,.42-.05,76,76,0,0,0-9.48-27c-.17-.3-.68-.1-.51.22Z"/><path id="Path_72214" data-name="Path 72214" class="cls-1" d="M83.49,5.87a140.4,140.4,0,0,1,7.72,23c.07.27.5.23.44-.06A91,91,0,0,0,84,5.67c-.14-.31-.63-.11-.48.2Z"/><path id="Path_72215" data-name="Path 72215" class="cls-1" d="M88.28,8.11c.81,2.11,1.59,4.23,2.5,6.3a.19.19,0,0,0,.26.1.2.2,0,0,0,.11-.26c-.71-2.15-1.53-4.25-2.34-6.36-.13-.35-.66-.13-.53.22Z"/><path id="Path_72216" data-name="Path 72216" class="cls-1" d="M91.17,15.15a137.79,137.79,0,0,1,7,20.94c.07.26.48.22.43-.05A92.63,92.63,0,0,0,91.61,15c-.13-.28-.57-.1-.44.18Z"/><path id="Path_72217" data-name="Path 72217" class="cls-1" d="M92.74,12c2.11,6.31,4.1,12.7,6.5,18.9.11.27.49.1.42-.17-1.9-6.37-4.27-12.64-6.47-18.91C93.09,11.48,92.64,11.67,92.74,12Z"/><path id="Path_72218" data-name="Path 72218" class="cls-1" d="M97.55,18.48c.58,2.06,1.13,4.14,1.85,6.16.1.24.5.13.44-.12-.46-2.12-1.11-4.19-1.72-6.27-.11-.38-.68-.14-.57.24Z"/><path id="Path_72219" data-name="Path 72219" class="cls-1" d="M99.2,44.61A157.37,157.37,0,0,1,106,69.85a.23.23,0,0,0,.26.18.22.22,0,0,0,.18-.24,102.47,102.47,0,0,0-6.83-25.36.24.24,0,0,0-.44.18Z"/><path id="Path_72220" data-name="Path 72220" class="cls-1" d="M104.07,53c1.08,3.7,2.17,7.38,3.37,11,.08.29.5.1.42-.17-1-3.72-2.15-7.4-3.29-11.08-.11-.33-.6-.12-.5.21Z"/><path id="Path_72221" data-name="Path 72221" class="cls-1" d="M34.17,22.53a48.52,48.52,0,0,0-1.66,13.88.2.2,0,0,0,.4,0,77.49,77.49,0,0,1,1.72-13.82C34.69,22.3,34.25,22.26,34.17,22.53Z"/><path id="Path_72222" data-name="Path 72222" class="cls-1" d="M36.64,21.36c-.19.59-.35,1.18-.51,1.78-.07.23.33.34.41.11.21-.56.41-1.11.59-1.68.1-.33-.39-.54-.49-.21Z"/><path id="Path_72223" data-name="Path 72223" class="cls-1" d="M36.05,27c.06,2.32.08,4.64.21,7,0,.27.43.2.43-.06,0-2.32-.13-4.64-.2-7,0-.28-.45-.22-.44.06Z"/><path id="Path_72224" data-name="Path 72224" class="cls-1" d="M39.89,21.21c-.31,2.19-.64,4.38-.91,6.58a.2.2,0,0,0,.17.22.18.18,0,0,0,.21-.16c.35-2.19.63-4.39.93-6.59A.2.2,0,0,0,40.1,21a.2.2,0,0,0-.21.17Z"/><path id="Path_72225" data-name="Path 72225" class="cls-1" d="M42.61,19.62c-.26,1.78-.53,3.55-.76,5.33a.2.2,0,0,0,.17.22.19.19,0,0,0,.22-.17c.3-1.77.54-3.54.8-5.32a.22.22,0,0,0-.43-.05Z"/><path id="Path_72226" data-name="Path 72226" class="cls-1" d="M44.71,17.75c-.09,1.63-.18,3.27-.23,4.9,0,.27.39.33.41.05.11-1.63.17-3.26.24-4.89,0-.28-.41-.34-.42-.06Z"/><path id="Path_72227" data-name="Path 72227" class="cls-1" d="M47.45,16.76c-.25,1.58-.51,3.16-.71,4.74a.21.21,0,1,0,.42.06h0c.28-1.57.51-3.15.74-4.73a.23.23,0,0,0-.45-.07Z"/><path id="Path_72228" data-name="Path 72228" class="cls-1" d="M48.8,16.63c.14,1.69.28,3.37.44,5.06,0,.26.41.2.4-.05-.12-1.7-.26-3.38-.4-5.07a.22.22,0,0,0-.44.06Z"/><path id="Path_72229" data-name="Path 72229" class="cls-1" d="M113.13,124.52c.63,1.25,1.26,2.51,1.94,3.73.14.24.51.09.39-.16-.6-1.26-1.26-2.5-1.91-3.74-.13-.26-.55-.09-.42.17Z"/><path id="Path_72230" data-name="Path 72230" class="cls-1" d="M116.13,124.75a3,3,0,0,0,.58,2.26c.16.23.5,0,.35-.26-.14-.65-.29-1.29-.44-1.94a.25.25,0,0,0-.21-.28.24.24,0,0,0-.28.22Z"/><path id="Path_72231" data-name="Path 72231" class="cls-1" d="M99.85,75.93a44.71,44.71,0,0,1,1.32,9.77c0,.23.41.24.42,0a32.74,32.74,0,0,0-1.25-9.9C100.26,75.52,99.77,75.65,99.85,75.93Z"/><path id="Path_72232" data-name="Path 72232" class="cls-1" d="M97.89,82.17c.17,1.5.32,3,.57,4.49a.23.23,0,0,0,.26.19.24.24,0,0,0,.19-.25c-.11-1.51-.31-3-.49-4.51a.26.26,0,0,0-.31-.21A.27.27,0,0,0,97.89,82.17Z"/><path id="Path_72233" data-name="Path 72233" class="cls-1" d="M99.29,93.25a12.42,12.42,0,0,0,1,4.77.25.25,0,0,0,.33.12.25.25,0,0,0,.13-.31,13.94,13.94,0,0,1-.88-4.65c0-.37-.57-.29-.57.07Z"/><path id="Path_72234" data-name="Path 72234" class="cls-1" d="M107.54,79.11c.2.69.41,1.37.62,2,.08.25.51.13.45-.12-.18-.69-.35-1.38-.54-2.07a.28.28,0,0,0-.32-.24.29.29,0,0,0-.23.33A.08.08,0,0,0,107.54,79.11Z"/><path id="Path_72235" data-name="Path 72235" class="cls-1" d="M108.1,38.11a30.5,30.5,0,0,1,2.29,6.83.26.26,0,0,0,.51-.07,18.09,18.09,0,0,0-2.26-7c-.17-.33-.71-.12-.53.22Z"/><path id="Path_72236" data-name="Path 72236" class="cls-1" d="M111.18,38.42c.32.94.63,1.88,1,2.79.12.32.56.12.47-.19-.27-1-.61-1.89-.94-2.83-.12-.35-.67-.13-.54.23Z"/><path id="Path_72237" data-name="Path 72237" class="cls-1" d="M127.88,48.66c.91,3.47,1.7,7,2.76,10.42a.23.23,0,0,0,.31.11.22.22,0,0,0,.14-.23c-.79-3.48-1.84-6.92-2.78-10.36-.07-.27-.51-.22-.43.06Z"/><path id="Path_72238" data-name="Path 72238" class="cls-1" d="M130.91,55.41c.31.09.51-.37.2-.47S130.6,55.3,130.91,55.41Z"/><path id="Path_72239" data-name="Path 72239" class="cls-1" d="M142.38,81.55a16.89,16.89,0,0,1,2.3,8.64c0,.25.4.24.43,0a14.54,14.54,0,0,0-2.3-9c-.18-.3-.61,0-.43.34Z"/><path id="Path_72240" data-name="Path 72240" class="cls-1" d="M144.37,81.33c.25,1.14.5,2.26.79,3.38.08.29.52.25.47-.06-.19-1.14-.43-2.27-.67-3.4-.08-.37-.67-.29-.59.08Z"/><path id="Path_72241" data-name="Path 72241" class="cls-1" d="M17.71,47.26c-.23,4.32-.5,8.73-.34,13.05,0,.27.44.27.47,0,.41-4.28.39-8.67.42-13,0-.35-.53-.44-.55-.08Z"/><path id="Path_72242" data-name="Path 72242" class="cls-1" d="M21.83,46.06a23.18,23.18,0,0,0-.56,8c0,.32.48.24.48-.07a41.32,41.32,0,0,1,.64-7.85C22.45,45.78,21.92,45.72,21.83,46.06Z"/><path id="Path_72243" data-name="Path 72243" class="cls-1" d="M24.63,45.09a24.18,24.18,0,0,0-.33,8,.22.22,0,0,0,.25.19.22.22,0,0,0,.19-.24,31.17,31.17,0,0,1,.42-7.84c.07-.34-.46-.41-.53-.07Z"/><path id="Path_72244" data-name="Path 72244" class="cls-1" d="M28.74,38.85c-.09,4.16-.2,8.32-.17,12.48,0,.24.43.24.43,0,.16-4.14.19-8.28.22-12.41,0-.31-.48-.38-.48-.07Z"/><path id="Path_72245" data-name="Path 72245" class="cls-1" d="M31.32,40.37A16.55,16.55,0,0,1,31,47.09c-.06.24.33.35.41.12a14.53,14.53,0,0,0,.35-6.9c-.05-.29-.5-.23-.45.06Z"/><path id="Path_72246" data-name="Path 72246" class="cls-1" d="M34.26,36.89c-.09,2.9-.24,5.82-.12,8.72,0,.26.44.26.46,0,.21-2.87.17-5.78.17-8.65,0-.33-.5-.41-.51-.07Z"/><path id="Path_72247" data-name="Path 72247" class="cls-1" d="M22,47.32a33.35,33.35,0,0,0,2.76-9.83.24.24,0,0,0-.2-.25.23.23,0,0,0-.25.19,62.64,62.64,0,0,1-2.73,9.7.23.23,0,0,0,.14.3.23.23,0,0,0,.28-.11Z"/><path id="Path_72248" data-name="Path 72248" class="cls-1" d="M24.87,46.38c.86-2.65,1.71-5.29,2.48-8,.08-.28-.32-.46-.42-.18-.9,2.62-1.74,5.26-2.56,7.91-.1.33.39.55.5.22Z"/><path id="Path_72249" data-name="Path 72249" class="cls-1" d="M28.16,42.43c1-3.66,2-7.31,2.93-11,.06-.23-.34-.34-.41-.11-1.09,3.63-2.07,7.3-3.06,11C27.54,42.58,28.07,42.73,28.16,42.43Z"/><path id="Path_72250" data-name="Path 72250" class="cls-1" d="M31.12,40.19c.64-2.71,1.33-5.41,1.89-8.13.06-.28-.36-.33-.43-.06-.72,2.68-1.32,5.41-2,8.12-.07.31.42.37.5.06Z"/><path id="Path_72251" data-name="Path 72251" class="cls-1" d="M14.54,56.86c-.8,4.1-1.64,8.2-2.4,12.31-.05.27.36.31.41,0C13.41,65.13,14.2,61,15,56.92c.06-.29-.39-.35-.46-.06Z"/><path id="Path_72252" data-name="Path 72252" class="cls-1" d="M18.69,53.8c-1,3.84-2,7.67-3,11.53-.06.23.35.35.41.11,1.07-3.84,2-7.72,3-11.58C19.24,53.56,18.77,53.5,18.69,53.8Z"/><path id="Path_72253" data-name="Path 72253" class="cls-1" d="M21.94,51.72c-.54,2.94-1.13,5.89-1.6,8.85a.23.23,0,0,0,.46.06c.62-2.93,1.13-5.89,1.68-8.84.06-.34-.48-.41-.54-.07Z"/><path id="Path_72254" data-name="Path 72254" class="cls-1" d="M25.39,49a59,59,0,0,0-3,14.76.21.21,0,0,0,.42,0,73.05,73.05,0,0,1,3-14.63c.09-.29-.34-.48-.43-.18Z"/><path id="Path_72255" data-name="Path 72255" class="cls-1" d="M28.24,47.48c-.94,4.9-2,9.79-2.76,14.72-.05.29.39.34.46.06,1-4.88,1.87-9.81,2.8-14.71.06-.32-.44-.38-.5-.07Z"/><path id="Path_72256" data-name="Path 72256" class="cls-1" d="M31.36,45.9a26.39,26.39,0,0,0-1.78,13.32.23.23,0,0,0,.45-.07,31.54,31.54,0,0,1,1.79-13.06.26.26,0,0,0-.14-.33A.25.25,0,0,0,31.36,45.9Z"/><path id="Path_72257" data-name="Path 72257" class="cls-1" d="M33.11,47.8c-.11,2.91-.28,5.82-.28,8.72,0,.27.45.27.47,0,.21-2.87.23-5.76.34-8.65,0-.33-.51-.41-.53-.07Z"/><path id="Path_72258" data-name="Path 72258" class="cls-1" d="M32.56,34.43A16.24,16.24,0,0,0,31,40.88c0,.27.41.34.43.06A17.26,17.26,0,0,1,33,34.62c.14-.29-.31-.48-.44-.19Z"/><path id="Path_72259" data-name="Path 72259" class="cls-1" d="M35.13,32.18a113.74,113.74,0,0,0-1.65,14.49c0,.27.4.33.41.06.36-4.86.86-9.68,1.69-14.49.05-.29-.4-.35-.45-.06Z"/><path id="Path_72260" data-name="Path 72260" class="cls-1" d="M37.55,32.33a50.13,50.13,0,0,0-1.28,9.61c0,.27.41.34.44.05a69,69,0,0,1,1.36-9.59c.07-.32-.45-.39-.52-.07Z"/><path id="Path_72261" data-name="Path 72261" class="cls-1" d="M40,32.43A12.24,12.24,0,0,0,39.54,38a.2.2,0,0,0,.23.17.19.19,0,0,0,.16-.22,11.65,11.65,0,0,1,.51-5.34c.09-.28-.33-.45-.41-.18Z"/><path id="Path_72262" data-name="Path 72262" class="cls-1" d="M30.39,29.36c-.54,1.7-1.09,3.4-1.6,5.11-.08.25.29.41.36.16.58-1.69,1.11-3.39,1.65-5.09.09-.27-.33-.45-.41-.18Z"/><path id="Path_72263" data-name="Path 72263" class="cls-1" d="M33.73,26.13c-.76,3.09-1.54,6.17-2.24,9.27-.06.26.34.3.41.05.82-3.07,1.56-6.16,2.32-9.25.07-.31-.41-.37-.49-.07Z"/><path id="Path_72264" data-name="Path 72264" class="cls-1" d="M36.21,24.42c-.68,2.9-1.36,5.8-2,8.72-.06.26.34.3.4,0,.73-2.89,1.38-5.8,2-8.71.08-.29-.39-.35-.46-.06Z"/><path id="Path_72265" data-name="Path 72265" class="cls-1" d="M39.43,22.33c-.66,4-1.35,7.9-2,11.86a.21.21,0,0,0,.19.24.21.21,0,0,0,.24-.18c.7-3.94,1.34-7.91,2-11.86a.23.23,0,0,0-.46-.06Z"/><path id="Path_72266" data-name="Path 72266" class="cls-1" d="M42.76,21.52c-.68,3.32-1.39,6.64-2,10-.06.29.38.34.44.06.75-3.31,1.41-6.64,2.09-10,.08-.33-.45-.4-.52-.07Z"/><path id="Path_72267" data-name="Path 72267" class="cls-1" d="M13.55,60.93c.11,2.31.23,4.63.34,6.95,0,.25.4.19.39,0q-.18-3.48-.37-7c0-.24-.37-.18-.36.06Z"/><path id="Path_72268" data-name="Path 72268" class="cls-1" d="M15.13,55.83C15.7,61,16.29,66.23,17,71.42a.21.21,0,0,0,.41-.06c-.53-5.2-1.17-10.4-1.82-15.59a.22.22,0,0,0-.25-.18.22.22,0,0,0-.18.24Z"/><path id="Path_72269" data-name="Path 72269" class="cls-1" d="M17.71,54.08c.6,4.84,1.22,9.69,2.05,14.49a.22.22,0,0,0,.27.17.23.23,0,0,0,.18-.23c-.53-4.85-1.28-9.68-2-14.49a.25.25,0,0,0-.28-.21.24.24,0,0,0-.21.27Z"/><path id="Path_72270" data-name="Path 72270" class="cls-1" d="M20,52.38c.94,5.32,1.85,10.66,3,16,.05.27.48.22.43-.06-.85-5.34-1.91-10.66-2.93-16-.05-.3-.52-.24-.46.07Z"/><path id="Path_72271" data-name="Path 72271" class="cls-1" d="M23.41,51.56c.64,2.35,1.25,4.71,1.93,7.06.07.23.49.12.42-.12-.59-2.35-1.22-4.68-1.85-7-.08-.3-.58-.24-.5.07Z"/><path id="Path_72272" data-name="Path 72272" class="cls-1" d="M11.17,70.18c.61,3.31,1.19,6.64,1.84,9.94.06.26.47.21.42-.05-.56-3.33-1.2-6.64-1.82-9.95,0-.28-.49-.22-.44.06Z"/><path id="Path_72273" data-name="Path 72273" class="cls-1" d="M13.55,68.46c.54,3.5,1.06,7,1.68,10.51a.2.2,0,0,0,.23.16.19.19,0,0,0,.16-.21c-.5-3.51-1.1-7-1.68-10.51,0-.24-.43-.2-.39,0Z"/><path id="Path_72274" data-name="Path 72274" class="cls-1" d="M15.67,66c.64,4.21,1.25,8.43,2,12.62a.21.21,0,0,0,.24.17.21.21,0,0,0,.17-.22c-.58-4.22-1.24-8.42-1.88-12.63a.23.23,0,0,0-.27-.21.25.25,0,0,0-.22.27Z"/><path id="Path_72275" data-name="Path 72275" class="cls-1" d="M17.94,64.28c1,4.24,1.91,8.5,2.95,12.72.06.25.46.21.4,0-.91-4.25-1.92-8.49-2.9-12.73-.07-.28-.52-.22-.45.07Z"/><path id="Path_72276" data-name="Path 72276" class="cls-1" d="M20.94,60.85c.93,3.64,1.84,7.29,2.83,10.92.06.22.46.12.4-.11-.88-3.63-1.84-7.25-2.77-10.87-.08-.29-.53-.23-.46.06Z"/><path id="Path_72277" data-name="Path 72277" class="cls-1" d="M10,81.73c1.72,5.39,3.34,10.84,5.25,16.17.09.25.44.09.37-.15-1.56-5.45-3.43-10.82-5.17-16.21-.09-.3-.55-.11-.45.19Z"/><path id="Path_72278" data-name="Path 72278" class="cls-1" d="M11.7,78.5c1.58,4.07,3.1,8.16,4.77,12.19a.22.22,0,0,0,.4-.16c-1.49-4.1-3.12-8.16-4.71-12.22-.11-.31-.58-.11-.46.19Z"/><path id="Path_72279" data-name="Path 72279" class="cls-1" d="M13.81,75.5c1.83,4.56,3.61,9.17,5.58,13.68a.21.21,0,0,0,.28.11.21.21,0,0,0,.11-.27c-1.73-4.61-3.69-9.14-5.54-13.7a.23.23,0,0,0-.31-.11A.23.23,0,0,0,13.81,75.5Z"/><path id="Path_72280" data-name="Path 72280" class="cls-1" d="M16.55,72.66c1.67,3.87,3.28,7.77,5.06,11.59a.21.21,0,0,0,.27.12.22.22,0,0,0,.12-.28h0c-1.56-3.91-3.31-7.76-5-11.62a.26.26,0,0,0-.47.2Z"/><path id="Path_72281" data-name="Path 72281" class="cls-1" d="M20.17,70c.22.07.36-.26.13-.34S20,69.94,20.17,70Z"/><path id="Path_72282" data-name="Path 72282" class="cls-1" d="M21.91,67.31a61.91,61.91,0,0,0-1.17,20.22.2.2,0,0,0,.39,0,72.64,72.64,0,0,1,1.2-20.12c.05-.26-.36-.31-.42,0Z"/><path id="Path_72283" data-name="Path 72283" class="cls-1" d="M24.38,68.06c-.29,4.52-.48,9-.63,13.55,0,.27.41.34.43.06.27-4.51.5-9,.62-13.55,0-.27-.41-.34-.42-.06Z"/><path id="Path_72284" data-name="Path 72284" class="cls-1" d="M27.33,68.4c-.09,4.76-.2,9.53-.23,14.3,0,.24.38.3.39,0,.13-4.76.17-9.53.25-14.3,0-.26-.41-.32-.41,0Z"/><path id="Path_72285" data-name="Path 72285" class="cls-1" d="M29.78,72.37c0,2.7,0,5.39.08,8.09,0,.22.39.22.4,0,0-2.72,0-5.43-.05-8.15,0-.27-.43-.21-.43.06Z"/><path id="Path_72286" data-name="Path 72286" class="cls-1" d="M16.24,99.34c1.71,3.24,3.35,6.53,5.19,9.7.12.21.47,0,.36-.21-1.58-3.28-3.37-6.47-5.08-9.68-.15-.29-.62-.1-.47.2Z"/><path id="Path_72287" data-name="Path 72287" class="cls-1" d="M22.68,95.14a29.12,29.12,0,0,1,3,6c.08.23.49.13.43-.12a18.41,18.41,0,0,0-3-6.17C22.91,94.51,22.48,94.84,22.68,95.14Z"/><path id="Path_72288" data-name="Path 72288" class="cls-1" d="M22.77,88.39c2.37,4.93,4.75,9.86,7.31,14.69.13.24.52.09.4-.16-2.3-5-4.78-9.84-7.27-14.71-.14-.27-.57-.1-.44.18Z"/><path id="Path_72289" data-name="Path 72289" class="cls-1" d="M27.91,105.1a30.62,30.62,0,0,0,3.14,7c.13.22.49,0,.39-.22-1.09-2.31-2.14-4.61-3.08-7A.24.24,0,0,0,27.91,105.1Z"/><path id="Path_72290" data-name="Path 72290" class="cls-1" d="M30.94,113.53c1.47,2.71,2.93,5.42,4.44,8.12.11.21.47.07.35-.15-1.42-2.74-2.88-5.45-4.35-8.16C31.24,113.07,30.79,113.25,30.94,113.53Z"/><path id="Path_72291" data-name="Path 72291" class="cls-1" d="M38.07,127c.88,1.13,1.76,2.26,2.7,3.33a.24.24,0,0,0,.33,0,.23.23,0,0,0,0-.31c-.84-1.15-1.75-2.26-2.66-3.36-.2-.26-.62,0-.41.31Z"/><path id="Path_72292" data-name="Path 72292" class="cls-1" d="M32.46,120.88c1.16,1.61,2.31,3.23,3.49,4.82.17.22.49,0,.33-.26-1.11-1.63-2.28-3.24-3.43-4.85-.18-.26-.57,0-.39.29Z"/><path id="Path_72293" data-name="Path 72293" class="cls-1" d="M32.49,103.25c1.88,4.39,3.79,8.77,5.79,13.1a.21.21,0,0,0,.38-.16c-1.86-4.39-3.84-8.74-5.81-13.09a.2.2,0,0,0-.27-.09.19.19,0,0,0-.09.24Z"/><path id="Path_72294" data-name="Path 72294" class="cls-1" d="M35.32,104.16c1.44,2.72,2.83,5.48,4.37,8.15.13.25.54.1.41-.17-1.37-2.76-2.88-5.45-4.33-8.17C35.62,103.7,35.17,103.88,35.32,104.16Z"/><path id="Path_72295" data-name="Path 72295" class="cls-1" d="M40.81,106.53a15.84,15.84,0,0,0,3.19,6c.18.22.52,0,.35-.26a18,18,0,0,1-3.06-5.92c-.1-.32-.58-.12-.48.21Z"/><path id="Path_72296" data-name="Path 72296" class="cls-1" d="M45.46,123.59c.86,1.14,1.71,2.29,2.64,3.38a.22.22,0,0,0,.32,0,.21.21,0,0,0,0-.31c-.8-1.18-1.69-2.3-2.57-3.44a.28.28,0,0,0-.39,0,.28.28,0,0,0,0,.37Z"/><path id="Path_72297" data-name="Path 72297" class="cls-1" d="M44.16,113.31c1.87,3.32,3.71,6.66,5.67,9.92.13.22.5,0,.38-.21-1.77-3.35-3.68-6.62-5.55-9.91-.16-.3-.67-.1-.5.2Z"/><path id="Path_72298" data-name="Path 72298" class="cls-1" d="M46,110a22.24,22.24,0,0,0,3,6.13c.17.24.52,0,.37-.27a23.17,23.17,0,0,1-2.81-6.08c-.11-.33-.61-.12-.51.21Z"/><path id="Path_72299" data-name="Path 72299" class="cls-1" d="M39.31,127a35.54,35.54,0,0,0,6.87,4.44c.24.11.39-.26.16-.38a42.33,42.33,0,0,1-6.73-4.44.24.24,0,0,0-.3.38Z"/><path id="Path_72300" data-name="Path 72300" class="cls-1" d="M43.14,127.17c4.17,3.22,8.3,6.49,12.51,9.66a.2.2,0,0,0,.25-.32h0c-4.13-3.28-8.33-6.46-12.49-9.68a.21.21,0,0,0-.3,0,.22.22,0,0,0,0,.29Z"/><path id="Path_72301" data-name="Path 72301" class="cls-1" d="M48,129.42c3.93,2.61,7.83,5.25,11.79,7.79.21.14.46-.16.25-.31-3.89-2.65-7.84-5.22-11.77-7.82-.24-.16-.5.19-.27.34Z"/><path id="Path_72302" data-name="Path 72302" class="cls-1" d="M53.31,130.45a39.05,39.05,0,0,0,11.16,6.2c.26.09.43-.28.17-.38a47.46,47.46,0,0,1-11-6.19.25.25,0,0,0-.34,0A.25.25,0,0,0,53.31,130.45Z"/><path id="Path_72303" data-name="Path 72303" class="cls-1" d="M58.18,130.8A33.54,33.54,0,0,0,70,137.1c.27.08.45-.3.18-.4a40.06,40.06,0,0,1-11.65-6.28.24.24,0,0,0-.3.38Z"/><path id="Path_72304" data-name="Path 72304" class="cls-1" d="M63.29,130.51A24.74,24.74,0,0,0,73,135.56c.25.06.36-.36.12-.44a31.19,31.19,0,0,1-9.54-5,.25.25,0,0,0-.35.05.25.25,0,0,0,0,.33Z"/><path id="Path_72305" data-name="Path 72305" class="cls-1" d="M31.58,120c4.05,3.58,8.08,7.22,12.32,10.58.23.19.49-.16.28-.36-3.94-3.7-8.14-7.16-12.27-10.65C31.64,119.37,31.32,119.79,31.58,120Z"/><path id="Path_72306" data-name="Path 72306" class="cls-1" d="M34.14,117.65a148.82,148.82,0,0,0,14.53,13.42c.21.16.45-.16.25-.34-4.93-4.33-9.79-8.67-14.4-13.36-.21-.21-.58.07-.38.28Z"/><path id="Path_72307" data-name="Path 72307" class="cls-1" d="M39.07,117.94a86.38,86.38,0,0,0,13.08,12.2.19.19,0,0,0,.27,0,.2.2,0,0,0,0-.27,103.54,103.54,0,0,1-13-12.17c-.2-.23-.57.06-.37.28Z"/><path id="Path_72308" data-name="Path 72308" class="cls-1" d="M46.05,121.91a80,80,0,0,0,13.56,10.24c.21.13.42-.22.22-.36a110.16,110.16,0,0,1-13.5-10.24C46.12,121.35,45.84,121.71,46.05,121.91Z"/><path id="Path_72309" data-name="Path 72309" class="cls-1" d="M53.93,124.5c3.06,2.08,6.12,4.16,9.22,6.2.22.15.47-.17.25-.33-3-2.11-6.12-4.17-9.18-6.24-.25-.17-.54.2-.29.37Z"/><path id="Path_72310" data-name="Path 72310" class="cls-1" d="M67,140.48c3.39,1.13,6.75,2.31,10.19,3.26.25.07.43-.29.17-.38-3.36-1.22-6.79-2.2-10.21-3.23C66.93,140.06,66.78,140.4,67,140.48Z"/><path id="Path_72311" data-name="Path 72311" class="cls-1" d="M59.24,139.36A50.33,50.33,0,0,0,65,141.15c.29.07.4-.38.14-.49a51.72,51.72,0,0,0-5.65-1.84c-.36-.1-.6.41-.24.54Z"/><path id="Path_72312" data-name="Path 72312" class="cls-1" d="M65.46,137.49a77.73,77.73,0,0,0,16.09,4.57c.29.05.34-.37.06-.43a120.67,120.67,0,0,1-16-4.61c-.3-.11-.5.35-.2.47Z"/><path id="Path_72313" data-name="Path 72313" class="cls-1" d="M58.11,125.15a56,56,0,0,0,13.44,6.93.23.23,0,0,0,.29-.12.21.21,0,0,0-.12-.29,78.29,78.29,0,0,1-13.34-6.88C58.15,124.64,57.87,125,58.11,125.15Z"/><path id="Path_72314" data-name="Path 72314" class="cls-1" d="M64,126.48c2,1,3.9,2.13,5.94,3,.23.1.46-.25.23-.39-1.91-1.15-4-2.09-6-3.07C63.87,125.85,63.68,126.33,64,126.48Z"/><path id="Path_72315" data-name="Path 72315" class="cls-1" d="M77.93,137.53a17.5,17.5,0,0,0,7.33,2.79.22.22,0,0,0,.24-.21.22.22,0,0,0-.18-.23,22.23,22.23,0,0,1-7.12-2.71c-.24-.15-.52.21-.27.36Z"/><path id="Path_72316" data-name="Path 72316" class="cls-1" d="M20.39,109.67a33,33,0,0,0,13.14,8.57.23.23,0,0,0,.31-.14.24.24,0,0,0-.12-.3,42.08,42.08,0,0,1-13-8.46c-.19-.19-.52.14-.33.33Z"/><path id="Path_72317" data-name="Path 72317" class="cls-1" d="M24.93,117.77c1.13.36,2.27.73,3.4,1.06.27.08.44-.3.18-.4-1.13-.38-2.26-.74-3.39-1.1-.29-.09-.49.35-.19.44Z"/><path id="Path_72318" data-name="Path 72318" class="cls-1" d="M13.77,101.6c1.88,1.92,3.73,3.86,5.7,5.68.19.18.51-.13.33-.33-1.82-2-3.77-3.82-5.68-5.69-.2-.2-.54.14-.35.34Z"/><path id="Path_72319" data-name="Path 72319" class="cls-1" d="M23.24,107.15a26.49,26.49,0,0,0,4.58,5.27c.2.18.44-.14.25-.32a30.52,30.52,0,0,1-4.48-5.22c-.16-.23-.51,0-.35.27Z"/><path id="Path_72320" data-name="Path 72320" class="cls-1" d="M15.41,92.13a35,35,0,0,0,3.41,13,.23.23,0,0,0,.3.11.24.24,0,0,0,.12-.28,47.74,47.74,0,0,1-3.37-12.87c0-.3-.48-.23-.46.06Z"/><path id="Path_72321" data-name="Path 72321" class="cls-1" d="M19.24,95.84a55.26,55.26,0,0,0,5.58,18c.14.27.58.1.45-.19a72.42,72.42,0,0,1-5.6-17.88.22.22,0,0,0-.25-.18.2.2,0,0,0-.18.24Z"/><path id="Path_72322" data-name="Path 72322" class="cls-1" d="M22.7,96.91a92,92,0,0,0,5.81,20.7.22.22,0,0,0,.4-.16h0a110.72,110.72,0,0,1-5.79-20.59c-.05-.27-.46-.22-.42,0Z"/><path id="Path_72323" data-name="Path 72323" class="cls-1" d="M28.08,100.39A84.27,84.27,0,0,0,33.7,123a.2.2,0,0,0,.26.1.2.2,0,0,0,.11-.25,95.35,95.35,0,0,1-5.59-22.49.2.2,0,0,0-.4,0Z"/><path id="Path_72324" data-name="Path 72324" class="cls-1" d="M32.57,105.05a100.15,100.15,0,0,0,5.29,18.62.2.2,0,0,0,.27.09.19.19,0,0,0,.1-.24A119,119,0,0,1,33,105C33,104.72,32.52,104.78,32.57,105.05Z"/><path id="Path_72325" data-name="Path 72325" class="cls-1" d="M36.68,106.3a61,61,0,0,0,5,16.8.21.21,0,0,0,.38-.16,75.94,75.94,0,0,1-5-16.71c0-.28-.49-.22-.44.06Z"/><path id="Path_72326" data-name="Path 72326" class="cls-1" d="M41.24,109.63a37.81,37.81,0,0,0,4.07,13.5c.14.24.53.1.41-.16a44.35,44.35,0,0,1-4-13.4C41.66,109.27,41.21,109.34,41.24,109.63Z"/><path id="Path_72327" data-name="Path 72327" class="cls-1" d="M45,112.81a48,48,0,0,0,5.73,13.76c.13.19.47,0,.35-.21a59.28,59.28,0,0,1-5.62-13.61c-.07-.29-.54-.23-.46.06Z"/><path id="Path_72328" data-name="Path 72328" class="cls-1" d="M48.85,116.09c1.52,3.16,3,6.36,4.59,9.47.13.25.53.09.42-.17-1.42-3.21-3-6.35-4.57-9.5a.24.24,0,0,0-.32-.11A.26.26,0,0,0,48.85,116.09Z"/><path id="Path_72329" data-name="Path 72329" class="cls-1" d="M20.42,86.17A32.1,32.1,0,0,0,22,96.83c.08.24.49.13.43-.11a50.89,50.89,0,0,1-1.54-10.55c0-.25-.43-.25-.43,0Z"/><path id="Path_72330" data-name="Path 72330" class="cls-1" d="M24.27,88.06a67.11,67.11,0,0,0,2.21,15.88c.06.23.46.13.41-.12A80.37,80.37,0,0,1,24.77,88c0-.32-.5-.25-.5.06Z"/><path id="Path_72331" data-name="Path 72331" class="cls-1" d="M28.34,90.64a59.28,59.28,0,0,0,2.31,15c.06.22.44.12.38-.1a67.78,67.78,0,0,1-2.22-15c0-.31-.48-.25-.47.06Z"/><path id="Path_72332" data-name="Path 72332" class="cls-1" d="M31.46,92.85C32.84,98.91,34.15,105,35.64,111c.07.25.47.21.42-.06-1.29-6.08-2.77-12.13-4.17-18.19-.06-.27-.5-.22-.43.06Z"/><path id="Path_72333" data-name="Path 72333" class="cls-1" d="M36.07,96.17A63.42,63.42,0,0,0,40.25,112a.21.21,0,1,0,.38-.16h0A73.22,73.22,0,0,1,36.51,96.1a.23.23,0,0,0-.26-.18.21.21,0,0,0-.18.24Z"/><path id="Path_72334" data-name="Path 72334" class="cls-1" d="M40.84,98.38a77.38,77.38,0,0,0,3.71,14.27c.09.25.46.09.37-.16a93.56,93.56,0,0,1-3.61-14.18.24.24,0,1,0-.47.07Z"/><path id="Path_72335" data-name="Path 72335" class="cls-1" d="M45.23,102.26a58,58,0,0,0,3.58,12.93.22.22,0,0,0,.28.1.21.21,0,0,0,.11-.26,69.57,69.57,0,0,1-3.49-12.83c0-.3-.53-.24-.48.06Z"/><path id="Path_72336" data-name="Path 72336" class="cls-1" d="M49.18,105.42a79.56,79.56,0,0,0,4.6,15.23.2.2,0,0,0,.36-.15,89.05,89.05,0,0,1-4.5-15.15.23.23,0,0,0-.46.07Z"/><path id="Path_72337" data-name="Path 72337" class="cls-1" d="M54.12,115.68a13,13,0,0,0,1.6,4.92c.13.22.5.07.38-.16a12.87,12.87,0,0,1-1.55-4.82.22.22,0,0,0-.25-.18.22.22,0,0,0-.18.24Z"/><path id="Path_72338" data-name="Path 72338" class="cls-1" d="M22.51,73.73A72.48,72.48,0,0,0,22.09,90c0,.27.45.21.43-.06A84.44,84.44,0,0,1,23,73.8a.26.26,0,0,0-.23-.28.25.25,0,0,0-.28.21Z"/><path id="Path_72339" data-name="Path 72339" class="cls-1" d="M24.68,78.78a78.71,78.71,0,0,0-.1,17.56.21.21,0,0,0,.26.18.22.22,0,0,0,.19-.24,111.58,111.58,0,0,1,.11-17.44.24.24,0,0,0-.22-.25.23.23,0,0,0-.24.19Z"/><path id="Path_72340" data-name="Path 72340" class="cls-1" d="M27.83,78.54a78.1,78.1,0,0,0,.62,19.62.2.2,0,0,0,.23.18.21.21,0,0,0,.18-.23h0a96.32,96.32,0,0,1-.54-19.5c0-.32-.47-.39-.49-.07Z"/><path id="Path_72341" data-name="Path 72341" class="cls-1" d="M31.22,83.38A75,75,0,0,0,32,99.22a.2.2,0,0,0,.25.16.2.2,0,0,0,.16-.21,90.8,90.8,0,0,1-.74-15.72c0-.31-.46-.37-.48-.06Z"/><path id="Path_72342" data-name="Path 72342" class="cls-1" d="M35.16,87.1a67.56,67.56,0,0,0,.84,18c.06.27.48.22.44,0a78.37,78.37,0,0,1-.81-17.84c0-.3-.44-.37-.47-.07Z"/><path id="Path_72343" data-name="Path 72343" class="cls-1" d="M38.1,93.15c.64,5.19,1.2,10.4,1.93,15.58a.19.19,0,0,0,.22.17.2.2,0,0,0,.18-.22h0c-.55-5.21-1.25-10.4-1.89-15.59a.23.23,0,0,0-.26-.19.23.23,0,0,0-.18.25Z"/><path id="Path_72344" data-name="Path 72344" class="cls-1" d="M28.34,89.86c1.39-5.59,2.76-11.19,4-16.81.07-.27-.36-.32-.42-.06-1.43,5.59-2.76,11.2-4.06,16.81-.07.3.39.35.46.06Z"/><path id="Path_72345" data-name="Path 72345" class="cls-1" d="M25.92,86c1.53-6.39,3.08-12.77,4.45-19.2.05-.26-.34-.3-.41,0-1.6,6.37-3,12.79-4.48,19.19-.07.28.37.34.44.06Z"/><path id="Path_72346" data-name="Path 72346" class="cls-1" d="M24.9,75.1c1.28-4.61,2.6-9.2,3.78-13.84.05-.22-.33-.33-.39-.1-1.35,4.58-2.56,9.21-3.82,13.82-.06.25.37.37.43.12Z"/><path id="Path_72347" data-name="Path 72347" class="cls-1" d="M24.33,69.24c1-3.65,1.93-7.3,2.83-11,.06-.23-.35-.34-.41-.11-1,3.65-1.92,7.34-2.86,11C23.82,69.46,24.26,69.51,24.33,69.24Z"/><path id="Path_72348" data-name="Path 72348" class="cls-1" d="M32.7,77a13,13,0,0,0,1.6,6.89c.13.23.51.08.39-.17A14.35,14.35,0,0,1,33.17,77c0-.3-.46-.37-.47-.07Z"/><path id="Path_72349" data-name="Path 72349" class="cls-1" d="M34,71.19a62.66,62.66,0,0,0,3.32,13c.09.27.48.1.39-.16a85.56,85.56,0,0,1-3.24-12.91.24.24,0,0,0-.47.07Z"/><path id="Path_72350" data-name="Path 72350" class="cls-1" d="M38.34,71.35a26.43,26.43,0,0,1,1.88,8c0,.28.42.21.42-.05a22.42,22.42,0,0,0-1.85-8.15.24.24,0,0,0-.45.18Z"/><path id="Path_72351" data-name="Path 72351" class="cls-1" d="M36.54,57.05c.29,2.38.56,4.76.91,7.13a.21.21,0,0,0,.24.17.22.22,0,0,0,.17-.23c-.24-2.38-.55-4.76-.84-7.13a.24.24,0,0,0-.48.06Z"/><path id="Path_72352" data-name="Path 72352" class="cls-1" d="M34.11,62.62c.51,1.8,1,3.61,1.55,5.39.08.23.48.13.43-.11-.45-1.84-1-3.66-1.5-5.47-.09-.33-.57-.12-.48.2Z"/><path id="Path_72353" data-name="Path 72353" class="cls-1" d="M35.68,50.67c.29.09.48-.35.18-.45S35.39,50.57,35.68,50.67Z"/><path id="Path_72354" data-name="Path 72354" class="cls-1" d="M72.31,135.28c1.16,1.6,2.28,3.25,3.53,4.78a.22.22,0,0,0,.32,0,.22.22,0,0,0,0-.3c-1.08-1.67-2.3-3.24-3.47-4.84-.21-.27-.62.05-.42.33Z"/><path id="Path_72355" data-name="Path 72355" class="cls-1" d="M73.74,130.69a13.13,13.13,0,0,0,3.85,5.73c.21.18.45-.15.25-.33a13.61,13.61,0,0,1-3.67-5.57c-.09-.29-.53-.11-.43.17Z"/><path id="Path_72356" data-name="Path 72356" class="cls-1" d="M72.26,125.37c3,4.91,5.88,9.93,9.06,14.72.14.19.49,0,.37-.21-2.84-5-6-9.88-9-14.8C72.48,124.83,72.1,125.12,72.26,125.37Z"/><path id="Path_72357" data-name="Path 72357" class="cls-1" d="M78.07,129c2.4,3,4.78,6,7.24,9,.16.19.47,0,.31-.24-2.35-3.05-4.78-6-7.19-9-.18-.23-.56.05-.36.29Z"/><path id="Path_72358" data-name="Path 72358" class="cls-1" d="M85.75,133.94a18.53,18.53,0,0,0,4,5.18c.18.16.47-.12.29-.3a23.85,23.85,0,0,1-3.82-5.1c-.17-.31-.7-.1-.52.22Z"/><path id="Path_72359" data-name="Path 72359" class="cls-1" d="M87.82,133.43c1,1.37,2,2.75,3.1,4.07a.23.23,0,0,0,.32,0,.23.23,0,0,0,0-.3c-.94-1.41-2-2.76-3-4.13-.2-.28-.65,0-.43.34Z"/><path id="Path_72360" data-name="Path 72360" class="cls-1" d="M90.49,130.54c.9,1.75,1.78,3.51,2.74,5.22.13.24.52.09.4-.17-.83-1.78-1.74-3.51-2.64-5.26-.15-.3-.65-.1-.5.21Z"/><path id="Path_72361" data-name="Path 72361" class="cls-1" d="M44.37,31.87a43.2,43.2,0,0,1,1.17-11.44.24.24,0,0,0-.45-.12,24.32,24.32,0,0,0-1.18,11.63C44,32.23,44.38,32.16,44.37,31.87Z"/><path id="Path_72362" data-name="Path 72362" class="cls-1" d="M47.19,29.14a9.41,9.41,0,0,0,.12-6.41c-.08-.23-.48-.13-.42.11a10.48,10.48,0,0,1-.17,6.1c-.11.31.37.52.47.2Z"/><path id="Path_72363" data-name="Path 72363" class="cls-1" d="M37.07,29.59a18.5,18.5,0,0,1,3.56-7.48.21.21,0,0,0-.05-.29.2.2,0,0,0-.28,0,16.82,16.82,0,0,0-3.72,7.68C36.52,29.84,37,29.9,37.07,29.59Z"/><path id="Path_72364" data-name="Path 72364" class="cls-1" d="M38.3,31.94c1.78-3.58,3.64-7.14,5.29-10.79.12-.27-.26-.42-.4-.17-1.89,3.53-3.59,7.17-5.36,10.77-.14.29.32.48.46.19Z"/><path id="Path_72365" data-name="Path 72365" class="cls-1" d="M43.45,26.73c1.59-2.41,3.2-4.8,4.74-7.25.14-.22-.18-.48-.34-.26C46.23,21.6,44.68,24,43.1,26.45,42.93,26.69,43.28,27,43.45,26.73Z"/><path id="Path_72366" data-name="Path 72366" class="cls-1" d="M48.36,23.32c1.36-2.28,2.78-4.55,4.08-6.86.11-.2-.22-.4-.34-.21-1.42,2.23-2.74,4.53-4.09,6.8C47.86,23.29,48.21,23.57,48.36,23.32Z"/><path id="Path_72367" data-name="Path 72367" class="cls-1" d="M50.71,21.11c.27.09.45-.33.18-.42S50.42,21,50.71,21.11Z"/><path id="Path_72368" data-name="Path 72368" class="cls-1" d="M54.82,19.92c.28.09.46-.32.18-.41S54.55,19.83,54.82,19.92Z"/><path id="Path_72369" data-name="Path 72369" class="cls-1" d="M72.09,62.24a7.34,7.34,0,0,0,4.24,6,.26.26,0,0,0,.32-.15.25.25,0,0,0-.07-.28,9.76,9.76,0,0,1-4-5.66.25.25,0,0,0-.28-.21.25.25,0,0,0-.22.28Z"/><path id="Path_72370" data-name="Path 72370" class="cls-1" d="M71.52,62.06A12.86,12.86,0,0,0,76,70.57c.42.35.87-.28.5-.64a15.64,15.64,0,0,1-4.38-8,.3.3,0,0,0-.35-.24.29.29,0,0,0-.25.32Z"/><path id="Path_72371" data-name="Path 72371" class="cls-1" d="M71.93,63.55c1.42,2,2.81,3.94,4.3,5.84a.38.38,0,0,0,.61-.46c-1.4-2-2.9-3.87-4.38-5.79a.34.34,0,0,0-.47,0A.33.33,0,0,0,71.93,63.55Z"/><path id="Path_72372" data-name="Path 72372" class="cls-1" d="M74.47,65.38a4.17,4.17,0,0,0,2.19,3.5c.28.15.48-.27.27-.46a4.72,4.72,0,0,1-1.85-3.12.31.31,0,0,0-.61.08Z"/><path id="Path_72373" data-name="Path 72373" class="cls-1" d="M74.43,65.46c.69,1.49,1.37,3,2,4.54l.76-.43a22.3,22.3,0,0,1-4.51-8.08l-.84.49,2.08,3.44c.66,1.1,2.68,3.4,2,4.71l.83-.1a1.72,1.72,0,0,1-.52-1.8.51.51,0,0,0-1-.14A2.71,2.71,0,0,0,76,70.61a.48.48,0,0,0,.82-.1c.53-1.34-.32-2.52-1-3.69-1-1.85-2.16-3.63-3.26-5.44-.31-.51-1,0-.84.49a20.86,20.86,0,0,0,4.71,8.23c.31.33,1,0,.75-.43-.81-1.43-1.59-2.92-2.33-4.39-.13-.27-.57-.1-.44.18Z"/><path id="Path_72374" data-name="Path 72374" class="cls-1" d="M67.52,21.5a12.59,12.59,0,0,0,2.17,6.26.32.32,0,0,0,.55-.32,46.34,46.34,0,0,1-2-6,.37.37,0,0,0-.42-.32.38.38,0,0,0-.32.42Z"/><path id="Path_72375" data-name="Path 72375" class="cls-1" d="M71.56,109a24.48,24.48,0,0,0,2.59,5.88c1.11,1.9,2.44,4.25,4.26,5.52.32.22.86-.09.65-.49-.93-1.73-2.42-3.2-3.51-4.86-1.3-2-2.27-4.12-3.37-6.23-.15-.3-.73-.21-.62.18Z"/><path id="Path_72376" data-name="Path 72376" class="cls-1" d="M72.23,106.82a65.94,65.94,0,0,0,3.7,8.28c1.22,2.34,2.48,5.18,4.34,7.07a.34.34,0,0,0,.58-.33c-.94-2.66-2.79-5.08-4.12-7.56s-2.62-5.13-4-7.7a.29.29,0,0,0-.39-.15.3.3,0,0,0-.16.39Z"/><path id="Path_72377" data-name="Path 72377" class="cls-1" d="M73.25,110.56c1.37,2.69,3,5.21,4.4,7.89,1.24,2.45,2.11,5.16,3.53,7.5.2.33.75.08.68-.28-.56-2.78-2.11-5.51-3.43-8a38.88,38.88,0,0,0-4.67-7.39c-.2-.24-.67,0-.51.29Z"/><path id="Path_72378" data-name="Path 72378" class="cls-1" d="M78.68,120.54a41.72,41.72,0,0,0,2.08,3.76c.17.26.58,0,.47-.28-.52-1.3-1.19-2.53-1.82-3.78C79.18,119.79,78.44,120.09,78.68,120.54Z"/><path id="Path_72379" data-name="Path 72379" class="cls-1" d="M93.09,86.28a42.93,42.93,0,0,0,4.81,24.8.26.26,0,0,0,.35.14.27.27,0,0,0,.15-.34,72.49,72.49,0,0,1-4.76-24.6c0-.31-.52-.3-.55,0Z"/><path id="Path_72380" data-name="Path 72380" class="cls-1" d="M13.16,67.79c.6,2.06,1.16,4.13,1.83,6.16.08.26.52.14.46-.12-.52-2.11-1.14-4.18-1.74-6.27C13.6,67.19,13.06,67.43,13.16,67.79Z"/><path id="Path_72381" data-name="Path 72381" class="cls-1" d="M14.77,62.62a36.2,36.2,0,0,0,2.32,12.61c.12.3.53.11.45-.18a49.26,49.26,0,0,1-2.21-12.51C15.32,62.18,14.76,62.26,14.77,62.62Z"/><path id="Path_72382" data-name="Path 72382" class="cls-1" d="M15.28,58.5c.87,4.44,1.64,8.92,2.79,13.29.09.33.58.29.53-.07-.66-4.47-1.73-8.89-2.67-13.3-.09-.41-.73-.33-.65.08Z"/><path id="Path_72383" data-name="Path 72383" class="cls-1" d="M16.38,54.28a125.24,125.24,0,0,0,2.68,12.85c.1.31.58.16.54-.15A124.44,124.44,0,0,0,17,54.19c-.08-.37-.68-.31-.6.09Z"/><path id="Path_72384" data-name="Path 72384" class="cls-1" d="M17.79,51.1c.81,4,1.41,8.14,2.56,12.06.09.32.6.17.56-.15-.51-4-1.61-8-2.46-12C18.36,50.6,17.7,50.68,17.79,51.1Z"/><path id="Path_72385" data-name="Path 72385" class="cls-1" d="M20,46.18a45.79,45.79,0,0,0,2.35,14.51.27.27,0,0,0,.51-.14A82,82,0,0,1,20.6,46.1C20.58,45.69,20,45.79,20,46.18Z"/><path id="Path_72386" data-name="Path 72386" class="cls-1" d="M21.64,44.76c0,4.07.51,8.52,2.4,12.19a.27.27,0,0,0,.5-.21c-1.15-4-2.21-7.76-2.25-12,0-.36-.64-.37-.65,0Z"/><path id="Path_72387" data-name="Path 72387" class="cls-1" d="M24.24,40.59a46.2,46.2,0,0,0,2.35,16c.1.26.54.15.48-.13A73,73,0,0,1,24.9,40.59c0-.37-.66-.37-.66,0Z"/><path id="Path_72388" data-name="Path 72388" class="cls-1" d="M26,38.79c.85,4.44,1.62,8.91,2.65,13.31a.23.23,0,1,0,.46-.06c-.7-4.46-1.69-8.89-2.56-13.33C26.46,38.36,25.91,38.44,26,38.79Z"/><path id="Path_72389" data-name="Path 72389" class="cls-1" d="M28.23,35.74c.76,4.18,1.44,8.4,2.34,12.56.06.26.47.22.43-.06-.62-4.21-1.48-8.39-2.25-12.57C28.69,35.34,28.17,35.41,28.23,35.74Z"/><path id="Path_72390" data-name="Path 72390" class="cls-1" d="M30.56,34.64c.87,3.17,1.6,6.43,2.7,9.52a.25.25,0,0,0,.48-.13c-.66-3.24-1.73-6.43-2.63-9.62-.1-.37-.65-.13-.55.24Z"/><path id="Path_72391" data-name="Path 72391" class="cls-1" d="M34.07,29.44c.28,3,.51,6,.86,9,0,.28.44.22.43-.06-.23-3-.56-6-.84-9,0-.29-.48-.23-.45.07Z"/><path id="Path_72392" data-name="Path 72392" class="cls-1" d="M36.3,27.15c.29.09.49-.35.19-.44S36,27.05,36.3,27.15Z"/><path id="Path_72393" data-name="Path 72393" class="cls-1" d="M14.51,70.75c1,4.09,1.9,8.19,3,12.24.08.27.52.15.47-.12-.86-4.09-1.92-8.14-3-12.19-.09-.35-.64-.28-.55.07Z"/><path id="Path_72394" data-name="Path 72394" class="cls-1" d="M13.87,73.53A140.16,140.16,0,0,0,16.7,91.4c.06.29.52.24.46-.06C16,85.4,15,79.47,14.4,73.46c0-.35-.57-.28-.53.07Z"/><path id="Path_72395" data-name="Path 72395" class="cls-1" d="M11.71,76c.8,4.45,1.56,8.92,2.53,13.34a.23.23,0,0,0,.46-.06C14,84.83,13.1,80.39,12.26,76,12.2,75.59,11.64,75.66,11.71,76Z"/><path id="Path_72396" data-name="Path 72396" class="cls-1" d="M11.86,69.28c1.31,5.2,2.61,10.4,4.06,15.56.08.28.56.15.49-.13-1.22-5.2-2.58-10.35-3.92-15.52-.1-.39-.73-.31-.63.09Z"/><path id="Path_72397" data-name="Path 72397" class="cls-1" d="M16.51,68.8a91.21,91.21,0,0,0,5,21.66c.12.32.57.11.48-.2a140.57,140.57,0,0,1-4.83-21.54.31.31,0,0,0-.38-.23A.31.31,0,0,0,16.51,68.8Z"/><path id="Path_72398" data-name="Path 72398" class="cls-1" d="M17.49,67.84A84.85,84.85,0,0,0,22.83,87a.26.26,0,0,0,.34.13.25.25,0,0,0,.13-.32,168.94,168.94,0,0,1-5.14-19C18.09,67.33,17.41,67.41,17.49,67.84Z"/><path id="Path_72399" data-name="Path 72399" class="cls-1" d="M19.31,63.53c1.5,6.33,2.83,12.74,4.63,19,.08.29.57.16.51-.14-1.24-6.36-3-12.65-4.51-18.94C19.84,63.06,19.21,63.14,19.31,63.53Z"/><path id="Path_72400" data-name="Path 72400" class="cls-1" d="M21.13,60.27a78.44,78.44,0,0,0,5.05,19.24.28.28,0,0,0,.36.13.27.27,0,0,0,.14-.34,125.85,125.85,0,0,1-4.89-19.12.33.33,0,0,0-.66.09Z"/><path id="Path_72401" data-name="Path 72401" class="cls-1" d="M16.68,88.23c2,5.6,3.95,11.22,6,16.8.1.27.51.1.41-.17C21.16,99.23,19.15,93.63,17.17,88c-.12-.32-.61-.12-.49.2Z"/><path id="Path_72402" data-name="Path 72402" class="cls-1" d="M18.5,90.12c2.46,5.51,4.9,11,7.43,16.53.11.25.5.09.39-.15-2.4-5.55-4.9-11-7.36-16.57a.25.25,0,0,0-.33-.13.23.23,0,0,0-.13.32Z"/><path id="Path_72403" data-name="Path 72403" class="cls-1" d="M20.69,87.09a80.77,80.77,0,0,0,7.54,18c.15.25.57,0,.44-.26a125.43,125.43,0,0,1-7.41-18c-.11-.38-.69-.14-.57.25Z"/><path id="Path_72404" data-name="Path 72404" class="cls-1" d="M14.68,88.3a87.14,87.14,0,0,0,7.15,15.32c.16.25.59,0,.45-.25a139.14,139.14,0,0,1-7-15.32c-.15-.38-.74-.14-.6.25Z"/><path id="Path_72405" data-name="Path 72405" class="cls-1" d="M23.92,102.46c1.89,5.17,3.68,10.4,5.72,15.51.11.28.51.1.42-.17-1.73-5.23-3.73-10.38-5.62-15.55-.12-.35-.65-.13-.52.21Z"/><path id="Path_72406" data-name="Path 72406" class="cls-1" d="M25.54,99.25c2,6.68,4.51,13.58,8.26,19.5.16.25.59,0,.46-.27-3-6.44-6-12.66-8.09-19.49-.12-.42-.75-.16-.63.26Z"/><path id="Path_72407" data-name="Path 72407" class="cls-1" d="M28.35,102.56c1.87,6.56,4.67,13.29,8.94,18.67a.28.28,0,0,0,.44-.33c-3.64-6-6.83-11.81-8.78-18.59-.12-.41-.72-.15-.6.25Z"/><path id="Path_72408" data-name="Path 72408" class="cls-1" d="M31.25,105.3c3.28,5.9,6.43,11.9,9.92,17.68.15.24.57,0,.44-.25-3.06-6-6.5-11.8-9.77-17.67-.2-.36-.79-.12-.59.24Z"/><path id="Path_72409" data-name="Path 72409" class="cls-1" d="M36.26,108.87A83.28,83.28,0,0,0,45.32,126c.2.27.55,0,.39-.3a135.74,135.74,0,0,1-8.85-17.11.33.33,0,0,0-.43-.16A.33.33,0,0,0,36.26,108.87Z"/><path id="Path_72410" data-name="Path 72410" class="cls-1" d="M41.1,113.48a160.19,160.19,0,0,0,9.24,18c.15.25.55,0,.43-.25-3-6-6.27-11.89-9.07-18-.17-.39-.78-.14-.6.25Z"/><path id="Path_72411" data-name="Path 72411" class="cls-1" d="M45.65,116.8c2.73,6.09,5.74,12.44,9.76,17.79.16.22.58,0,.44-.25-3.26-5.94-6.79-11.61-9.58-17.8a.34.34,0,1,0-.62.26Z"/><path id="Path_72412" data-name="Path 72412" class="cls-1" d="M50.53,120.9c2.77,5.33,5.75,10.83,9.55,15.5a.23.23,0,0,0,.34,0,.24.24,0,0,0,0-.34h0C57.3,131,53.92,126,51.12,120.65,50.94,120.3,50.34,120.53,50.53,120.9Z"/><path id="Path_72413" data-name="Path 72413" class="cls-1" d="M56.58,125.45c3.08,4.7,6,9.57,9.34,14.09.17.22.58,0,.44-.25-2.82-4.89-6.15-9.53-9.24-14.25-.24-.37-.77,0-.54.41Z"/><path id="Path_72414" data-name="Path 72414" class="cls-1" d="M62.08,127.81c2.39,4.12,4.7,8.31,7.22,12.36.17.26.62,0,.47-.27-2.26-4.23-4.76-8.34-7.16-12.49-.21-.37-.74,0-.53.4Z"/><path id="Path_72415" data-name="Path 72415" class="cls-1" d="M67.05,131.78A18,18,0,0,0,71.73,139c.23.21.58-.14.39-.39a26.45,26.45,0,0,1-4.4-7.12c-.17-.44-.84-.16-.67.28Z"/><path id="Path_72416" data-name="Path 72416" class="cls-1" d="M70.27,131.53a20.61,20.61,0,0,0,6.07,8.84c.24.19.6-.14.38-.38a30.11,30.11,0,0,1-5.84-8.72.33.33,0,0,0-.43-.17A.33.33,0,0,0,70.27,131.53Z"/><path id="Path_72417" data-name="Path 72417" class="cls-1" d="M75,132.92a18.84,18.84,0,0,0,5.92,8.52c.23.17.59-.14.37-.37a25.36,25.36,0,0,1-5.68-8.41C75.42,132.26,74.8,132.52,75,132.92Z"/><path id="Path_72418" data-name="Path 72418" class="cls-1" d="M79.84,135.12a13.64,13.64,0,0,0,4.8,6.3c.25.15.63-.15.39-.39a19.91,19.91,0,0,1-4.54-6.18.35.35,0,1,0-.65.27Z"/><path id="Path_72419" data-name="Path 72419" class="cls-1" d="M84.14,135.27a10.45,10.45,0,0,0,3.72,5.52c.22.16.56-.13.36-.35A14.74,14.74,0,0,1,84.76,135c-.13-.4-.75-.15-.62.26Z"/><path id="Path_72420" data-name="Path 72420" class="cls-1" d="M88.41,135.91a6.32,6.32,0,0,0,3.82,5.57c.27.11.53-.28.26-.45a6.71,6.71,0,0,1-3.42-5.21c0-.43-.7-.33-.66.09Z"/><path id="Path_72421" data-name="Path 72421" class="cls-1" d="M92.33,136.69c.41.74.82,1.48,1.22,2.22.15.26.59.1.45-.19-.37-.76-.74-1.51-1.1-2.27C92.72,136.1,92.15,136.35,92.33,136.69Z"/><path id="Path_72422" data-name="Path 72422" class="cls-1" d="M40.86,114.55A29.85,29.85,0,0,0,52,126.65c.21.12.42-.23.22-.37A33.12,33.12,0,0,1,41.3,114.36c-.14-.27-.59-.09-.44.19Z"/><path id="Path_72423" data-name="Path 72423" class="cls-1" d="M42.38,113.87q4.8,4.57,9.64,9.14c.19.18.44-.13.25-.31-3.18-3.08-6.4-6.15-9.6-9.21-.22-.22-.53.17-.29.38Z"/><path id="Path_72424" data-name="Path 72424" class="cls-1" d="M44.71,112.23C49,116.49,53.2,120.79,57.55,125c.18.17.47-.12.3-.29-4.21-4.34-8.56-8.55-12.86-12.81C44.79,111.65,44.5,112,44.71,112.23Z"/><path id="Path_72425" data-name="Path 72425" class="cls-1" d="M44.07,108.22c4.24,4.32,8.42,8.69,12.72,12.94.17.16.46-.12.3-.29-4.14-4.37-8.42-8.64-12.63-12.94-.22-.23-.61.07-.39.3Z"/><path id="Path_72426" data-name="Path 72426" class="cls-1" d="M46.32,105.23c3.5,3.53,7,7.07,10.51,10.56.18.17.47-.12.3-.29-3.47-3.57-7-7.1-10.51-10.65-.22-.22-.51.17-.3.38Z"/><path id="Path_72427" data-name="Path 72427" class="cls-1" d="M51.44,106.84l5,4.06c.21.16.46-.16.26-.34l-4.93-4.08c-.23-.19-.52.17-.29.36Z"/><path id="Path_72428" data-name="Path 72428" class="cls-1" d="M55.17,120.57a43.27,43.27,0,0,1,8.53,6.78c.19.19.51,0,.33-.25a39.36,39.36,0,0,0-8.55-6.93c-.28-.17-.59.23-.31.4Z"/><path id="Path_72429" data-name="Path 72429" class="cls-1" d="M58.36,118.42c3.16,3.11,6.28,6.27,9.54,9.26.19.17.49-.13.32-.32-3.09-3.21-6.34-6.27-9.52-9.38-.25-.25-.59.2-.34.44Z"/><path id="Path_72430" data-name="Path 72430" class="cls-1" d="M63.38,118.13c1.65,2,3.29,4,4.95,6,.18.21.51,0,.34-.25-1.62-2-3.26-4-4.88-6-.21-.25-.62.06-.41.32Z"/><path id="Path_72431" data-name="Path 72431" class="cls-1" d="M26.29,95.19q5.64,7.73,11.6,15.24a.22.22,0,0,0,.32,0,.23.23,0,0,0,0-.31q-5.61-7.75-11.52-15.29a.27.27,0,0,0-.39,0,.28.28,0,0,0-.05.37Z"/><path id="Path_72432" data-name="Path 72432" class="cls-1" d="M26.19,90c4.08,5.66,8.2,11.32,12.64,16.71a.22.22,0,0,0,.31,0,.21.21,0,0,0,0-.31h0c-4.21-5.57-8.52-11.06-12.6-16.73C26.4,89.46,26,89.75,26.19,90Z"/><path id="Path_72433" data-name="Path 72433" class="cls-1" d="M26.71,86.41C30.88,91.67,35,97,39.22,102.18a.21.21,0,0,0,.3,0,.22.22,0,0,0,0-.28c-4.08-5.32-8.3-10.54-12.47-15.8-.19-.24-.57,0-.38.29Z"/><path id="Path_72434" data-name="Path 72434" class="cls-1" d="M28.16,83.77c3.61,4.15,7.13,8.4,10.89,12.44.19.21.55,0,.36-.28-3.47-4.26-7.2-8.35-10.81-12.49-.24-.27-.67.06-.44.33Z"/><path id="Path_72435" data-name="Path 72435" class="cls-1" d="M28.81,77.76c2.43,2.85,4.87,5.68,7.31,8.52.18.19.49,0,.32-.25q-3.61-4.29-7.27-8.55c-.19-.22-.55.06-.36.28Z"/><path id="Path_72436" data-name="Path 72436" class="cls-1" d="M27.82,71.24c1.28,1.23,2.54,2.47,3.82,3.69.2.2.47-.14.27-.34-1.26-1.25-2.53-2.48-3.8-3.72-.21-.21-.5.16-.29.37Z"/><path id="Path_72437" data-name="Path 72437" class="cls-1" d="M25.73,63.66A68,68,0,0,0,32,75.17c.17.25.51,0,.36-.28a121,121,0,0,1-6.16-11.44.27.27,0,0,0-.5.21Z"/><path id="Path_72438" data-name="Path 72438" class="cls-1" d="M25.52,56.74c2.42,4.11,4.8,8.25,7.32,12.31.12.2.47,0,.35-.21-2.35-4.18-4.84-8.27-7.28-12.4-.17-.27-.55,0-.39.3Z"/><path id="Path_72439" data-name="Path 72439" class="cls-1" d="M26.3,50.11c1.75,3.68,3.49,7.36,5.26,11,.12.25.52.09.4-.17-1.71-3.69-3.45-7.36-5.19-11.05-.14-.29-.61-.1-.47.2Z"/><path id="Path_72440" data-name="Path 72440" class="cls-1" d="M28.21,45.81c1.86,3.92,3.62,7.91,5.62,11.77.12.25.52.1.4-.17-1.72-4-3.69-7.88-5.55-11.8-.14-.3-.61-.1-.47.2Z"/><path id="Path_72441" data-name="Path 72441" class="cls-1" d="M31.07,43.56c.27.08.44-.32.18-.4S30.81,43.48,31.07,43.56Z"/><path id="Path_72442" data-name="Path 72442" class="cls-1" d="M33.38,39.83c1.5,3.17,3,6.35,4.48,9.52a.21.21,0,0,0,.39-.17c-1.44-3.19-2.93-6.37-4.4-9.55C33.71,39.33,33.24,39.53,33.38,39.83Z"/><path id="Path_72443" data-name="Path 72443" class="cls-1" d="M35.11,36.08a38,38,0,0,0,4.75,9c.18.25.53,0,.37-.27a46.76,46.76,0,0,1-4.6-8.92c-.13-.33-.64-.12-.51.22Z"/><path id="Path_72444" data-name="Path 72444" class="cls-1" d="M36.57,31.05c1.48,3.17,2.86,6.44,4.51,9.52a.25.25,0,0,0,.32.12.23.23,0,0,0,.12-.31c-1.29-3.24-2.93-6.38-4.4-9.55-.15-.34-.7-.12-.55.22Z"/><path id="Path_72445" data-name="Path 72445" class="cls-1" d="M39,27.93a53.71,53.71,0,0,0,4.64,8.57c.16.21.54,0,.42-.23-1.52-2.87-3.16-5.62-4.52-8.57-.16-.35-.71-.12-.54.23Z"/><path id="Path_72446" data-name="Path 72446" class="cls-1" d="M41.2,24.89a51.5,51.5,0,0,0,5.09,9.3c.16.23.58,0,.43-.26-1.71-3.08-3.5-6.05-5-9.27-.16-.36-.72-.13-.56.23Z"/><path id="Path_72447" data-name="Path 72447" class="cls-1" d="M45.29,26.33c.37.12.61-.44.24-.56S44.92,26.21,45.29,26.33Z"/><path id="Path_72448" data-name="Path 72448" class="cls-1" d="M33.73,48.07a35.57,35.57,0,0,1,.15,7.44.25.25,0,0,0,.22.28.26.26,0,0,0,.28-.21,22.81,22.81,0,0,0,0-7.6.33.33,0,0,0-.36-.27.32.32,0,0,0-.28.36Z"/><path id="Path_72449" data-name="Path 72449" class="cls-1" d="M36.34,53.3q.15,3.48.34,6.94c0,.33.5.25.5-.06,0-2.33-.1-4.65-.18-7,0-.43-.68-.34-.66.09Z"/><path id="Path_72450" data-name="Path 72450" class="cls-1" d="M43.06,69.84c.77,2.75,1.44,5.54,2.41,8.23.1.28.58.15.51-.14-.61-2.81-1.53-5.57-2.35-8.32-.11-.39-.68-.14-.57.23Z"/><path id="Path_72451" data-name="Path 72451" class="cls-1" d="M38.12,67.66c.88,3,1.68,6,2.73,9,.1.29.59.17.52-.14-.73-3.07-1.72-6.08-2.62-9.11-.12-.42-.76-.16-.63.26Z"/><path id="Path_72452" data-name="Path 72452" class="cls-1" d="M35.38,45.69c-1.26,2.49-1.06,5.05-.69,7.74a.25.25,0,0,0,.28.21.26.26,0,0,0,.22-.28C35,50.82,34.83,48.29,36,46c.18-.38-.42-.63-.6-.26Z"/><path id="Path_72453" data-name="Path 72453" class="cls-1" d="M32.62,48.48c.34.11.55-.4.22-.5S32.29,48.37,32.62,48.48Z"/><path id="Path_72454" data-name="Path 72454" class="cls-1" d="M85.89,139.55l.79,1.49c.14.24.53.09.4-.17-.24-.5-.49-1-.74-1.5C86.2,139.08,85.74,139.28,85.89,139.55Z"/><path id="Path_72455" data-name="Path 72455" class="cls-1" d="M92.84,130.07a11.71,11.71,0,0,0,2.63,6.63c.19.2.61,0,.46-.26A19.24,19.24,0,0,1,93.39,130a.27.27,0,0,0-.31-.23.28.28,0,0,0-.24.31Z"/><path id="Path_72456" data-name="Path 72456" class="cls-1" d="M96,130.65a15.83,15.83,0,0,0,3.43,5.52c.24.23.55-.14.39-.39a42.47,42.47,0,0,1-3.3-5.35.29.29,0,0,0-.37-.15.28.28,0,0,0-.15.37Z"/><path id="Path_72457" data-name="Path 72457" class="cls-1" d="M99.14,128.33a22.11,22.11,0,0,0,3.51,6.76.23.23,0,0,0,.37-.28,34.19,34.19,0,0,1-3.43-6.67c-.11-.29-.54-.1-.45.19Z"/><path id="Path_72458" data-name="Path 72458" class="cls-1" d="M101.52,126.29a16.43,16.43,0,0,0,2,5.84c.14.23.5,0,.4-.22a24,24,0,0,1-2-5.69.25.25,0,0,0-.28-.21.24.24,0,0,0-.21.28Z"/><path id="Path_72459" data-name="Path 72459" class="cls-1" d="M102,123.64c.89,2.15,1.75,4.31,2.64,6.45a.21.21,0,0,0,.28.11.24.24,0,0,0,.12-.27c-.86-2.16-1.74-4.31-2.62-6.46a.23.23,0,0,0-.3-.12.22.22,0,0,0-.12.29Z"/><path id="Path_72460" data-name="Path 72460" class="cls-1" d="M105.73,124.91c1,1.88,1.89,3.82,3,5.64.14.22.5,0,.41-.24-.85-1.92-1.89-3.76-2.85-5.62C106.09,124.37,105.57,124.58,105.73,124.91Z"/><path id="Path_72461" data-name="Path 72461" class="cls-1" d="M107.49,124a15,15,0,0,0,3.44,5.5c.21.19.51-.13.35-.35a22.14,22.14,0,0,1-3.24-5.38A.3.3,0,0,0,107.49,124Z"/><path id="Path_72462" data-name="Path 72462" class="cls-1" d="M109.28,122.81c1.12,1.9,2.19,3.84,3.39,5.69.15.23.55,0,.41-.24-1-2-2.22-3.88-3.35-5.8-.18-.31-.64,0-.45.35Z"/><path id="Path_72463" data-name="Path 72463" class="cls-1" d="M110.88,120.47c1,2,1.83,4,2.93,6a.26.26,0,0,0,.48-.2c-.82-2-1.88-4-2.84-6-.17-.36-.75-.12-.57.24Z"/><path id="Path_72464" data-name="Path 72464" class="cls-1" d="M112.86,118.74c.88,2,1.72,4.07,2.69,6.05a.25.25,0,0,0,.32.12.25.25,0,0,0,.13-.3c-.79-2.06-1.73-4.07-2.61-6.1a.29.29,0,0,0-.38-.14.28.28,0,0,0-.15.37Z"/><path id="Path_72465" data-name="Path 72465" class="cls-1" d="M114.69,117.44c.76,2.09,1.46,4.22,2.36,6.25a.25.25,0,0,0,.34.13.27.27,0,0,0,.14-.32c-.65-2.14-1.5-4.21-2.27-6.3-.14-.38-.71-.14-.57.24Z"/><path id="Path_72466" data-name="Path 72466" class="cls-1" d="M118.42,116.17a10.12,10.12,0,0,0,1.66,5c.15.24.48,0,.34-.26A10.89,10.89,0,0,1,119,116.1c0-.35-.56-.28-.54.07Z"/><path id="Path_72467" data-name="Path 72467" class="cls-1" d="M120.33,114.46a21.1,21.1,0,0,0,1.72,6.27.26.26,0,0,0,.35.14.26.26,0,0,0,.14-.34,32.81,32.81,0,0,1-1.63-6.15.3.3,0,0,0-.35-.23.29.29,0,0,0-.23.31Z"/><path id="Path_72468" data-name="Path 72468" class="cls-1" d="M122.05,111.85a66.31,66.31,0,0,0,2.2,6.31c.12.27.59.18.52-.13-.52-2.19-1.38-4.31-2.11-6.44-.14-.4-.75-.14-.61.26Z"/><path id="Path_72469" data-name="Path 72469" class="cls-1" d="M124.71,109.33a17.56,17.56,0,0,0,2,7.31c.16.27.55,0,.46-.27a33.69,33.69,0,0,1-1.78-7.13.33.33,0,0,0-.66.09Z"/><path id="Path_72470" data-name="Path 72470" class="cls-1" d="M126.62,108a18.63,18.63,0,0,0,2.19,6.11c.16.26.54,0,.44-.26a55.94,55.94,0,0,1-2-5.93C127.14,107.54,126.53,107.62,126.62,108Z"/><path id="Path_72471" data-name="Path 72471" class="cls-1" d="M128.63,105.88a16,16,0,0,0,2.4,6c.16.22.55,0,.42-.23a22.12,22.12,0,0,1-2.27-5.86c-.06-.35-.62-.28-.55.07Z"/><path id="Path_72472" data-name="Path 72472" class="cls-1" d="M130.74,103.74a12.23,12.23,0,0,0,2.1,5.45c.16.21.53,0,.4-.23a15.66,15.66,0,0,1-1.94-5.3.29.29,0,0,0-.57.08Z"/><path id="Path_72473" data-name="Path 72473" class="cls-1" d="M132.84,101.59a12.33,12.33,0,0,0,1.84,4.87c.14.21.49,0,.38-.22a15.61,15.61,0,0,1-1.7-4.72c-.05-.34-.59-.27-.52.07Z"/><path id="Path_72474" data-name="Path 72474" class="cls-1" d="M134.94,99.38a4.59,4.59,0,0,0,1.14,3.91.26.26,0,1,0,.42-.32,4.85,4.85,0,0,1-1-3.51.3.3,0,0,0-.6-.08Z"/><path id="Path_72475" data-name="Path 72475" class="cls-1" d="M135.75,95.48a12.41,12.41,0,0,0,1.84,4.52.24.24,0,0,0,.33,0,.22.22,0,0,0,.07-.26,26.54,26.54,0,0,1-1.66-4.37c-.08-.36-.66-.29-.58.08Z"/><path id="Path_72476" data-name="Path 72476" class="cls-1" d="M136.84,92.14c.55,1.48,1.07,3,1.71,4.42a.23.23,0,0,0,.31.1.22.22,0,0,0,.12-.28c-.48-1.5-1.1-3-1.66-4.44a.27.27,0,0,0-.34-.14.25.25,0,0,0-.14.34Z"/><path id="Path_72477" data-name="Path 72477" class="cls-1" d="M137.63,89.6a7.13,7.13,0,0,0,2.22,3.62.22.22,0,0,0,.31,0,.23.23,0,0,0,0-.25,10.14,10.14,0,0,1-2-3.53c-.1-.34-.6-.12-.5.21Z"/><path id="Path_72478" data-name="Path 72478" class="cls-1" d="M139.26,85.92c.45,1.41.83,2.85,1.4,4.22.1.25.52.15.46-.12-.33-1.47-.85-2.9-1.31-4.33C139.7,85.32,139.15,85.55,139.26,85.92Z"/><path id="Path_72479" data-name="Path 72479" class="cls-1" d="M140.13,83c.45,1.07.87,2.16,1.39,3.2a.22.22,0,0,0,.29.11.21.21,0,0,0,.11-.28c-.37-1.1-.85-2.16-1.3-3.23a.25.25,0,0,0-.34-.14.26.26,0,0,0-.15.34Z"/><path id="Path_72480" data-name="Path 72480" class="cls-1" d="M140.88,79.4a18,18,0,0,0,1.81,4.46c.14.23.49,0,.4-.23-.6-1.49-1.24-2.9-1.7-4.44-.1-.35-.61-.13-.51.21Z"/><path id="Path_72481" data-name="Path 72481" class="cls-1" d="M142.23,77.9a17.76,17.76,0,0,0,2,5.89c.16.26.52,0,.43-.26a45.39,45.39,0,0,1-1.76-5.71c-.08-.41-.73-.33-.65.09Z"/><path id="Path_72482" data-name="Path 72482" class="cls-1" d="M75.57,9a15.08,15.08,0,0,0,3.37,7.69c.19.21.62,0,.46-.27a37.71,37.71,0,0,1-3.29-7.57c-.09-.31-.58-.16-.54.15Z"/><path id="Path_72483" data-name="Path 72483" class="cls-1" d="M78.93,10.68c1.11,1.91,2.2,3.83,3.39,5.68a.24.24,0,0,0,.41-.23c-1-2-2.16-3.91-3.28-5.85C79.25,9.92,78.73,10.32,78.93,10.68Z"/><path id="Path_72484" data-name="Path 72484" class="cls-1" d="M81.11,9.81c1.21,2.12,2.34,4.3,3.69,6.33a.24.24,0,0,0,.35,0,.23.23,0,0,0,.08-.28c-1.06-2.17-2.37-4.23-3.57-6.32-.18-.33-.74-.11-.55.23Z"/><path id="Path_72485" data-name="Path 72485" class="cls-1" d="M84.48,9.58c1,1.71,2,3.46,3.1,5.12.16.22.53,0,.41-.23-.94-1.79-2-3.5-3.06-5.23-.19-.32-.64,0-.45.34Z"/><path id="Path_72486" data-name="Path 72486" class="cls-1" d="M87.21,9.5c.89,1.69,1.72,3.43,2.74,5.05.15.25.55,0,.43-.25-.76-1.72-1.73-3.37-2.61-5-.18-.34-.74-.11-.56.24Z"/><path id="Path_72487" data-name="Path 72487" class="cls-1" d="M89.77,8.89c1.11,1.93,2.15,3.93,3.39,5.78a.27.27,0,0,0,.46-.26c-1-2-2.16-3.86-3.27-5.77-.19-.35-.78-.11-.57.25Z"/><path id="Path_72488" data-name="Path 72488" class="cls-1" d="M92.78,9.9c1,1.72,2,3.47,3.14,5.11.15.24.56,0,.43-.24-.93-1.8-2-3.51-3.07-5.25C93.07,9.17,92.57,9.56,92.78,9.9Z"/><path id="Path_72489" data-name="Path 72489" class="cls-1" d="M96.18,10.9a19.38,19.38,0,0,0,2.38,5.6.28.28,0,0,0,.48-.27,56.06,56.06,0,0,1-2.25-5.58C96.66,10.24,96.06,10.5,96.18,10.9Z"/><path id="Path_72490" data-name="Path 72490" class="cls-1" d="M98.36,12.72a38.87,38.87,0,0,0,2.94,4.15c.2.24.66,0,.5-.28A41.31,41.31,0,0,0,99,12.27c-.27-.4-.85.06-.59.45Z"/><path id="Path_72491" data-name="Path 72491" class="cls-1" d="M102,13.13a10.31,10.31,0,0,0,2.68,5.27c.26.24.56-.14.4-.39a17.44,17.44,0,0,1-2.42-5c-.09-.41-.76-.34-.66.08Z"/><path id="Path_72492" data-name="Path 72492" class="cls-1" d="M104.51,14a60,60,0,0,0,2.83,6.08c.18.3.59,0,.5-.29a62.63,62.63,0,0,0-2.65-6.07c-.2-.43-.88-.15-.68.28Z"/><path id="Path_72493" data-name="Path 72493" class="cls-1" d="M107.36,16.83c.78,1.51,1.49,3.09,2.41,4.52.18.28.61,0,.5-.28-.62-1.55-1.5-3-2.27-4.51-.2-.38-.84-.13-.63.26Z"/><path id="Path_72494" data-name="Path 72494" class="cls-1" d="M109.78,16.65a11.6,11.6,0,0,0,2.61,5.14c.19.2.62,0,.46-.26a24.93,24.93,0,0,1-2.42-5.15C110.31,15.94,109.66,16.22,109.78,16.65Z"/><path id="Path_72495" data-name="Path 72495" class="cls-1" d="M112.59,18a12.68,12.68,0,0,0,2.83,4.76c.25.24.56-.14.4-.4a28,28,0,0,1-2.57-4.64c-.16-.43-.83-.16-.66.28Z"/><path id="Path_72496" data-name="Path 72496" class="cls-1" d="M115.43,19.4a45.59,45.59,0,0,0,2.42,4.52c.18.27.6,0,.48-.28a45.12,45.12,0,0,0-2.25-4.51c-.21-.4-.87-.14-.65.27Z"/><path id="Path_72497" data-name="Path 72497" class="cls-1" d="M118.15,21.2a37.52,37.52,0,0,0,2.14,3.94c.16.25.53,0,.44-.25a40.38,40.38,0,0,0-2-4c-.21-.39-.84-.13-.63.26Z"/><path id="Path_72498" data-name="Path 72498" class="cls-1" d="M120.81,23a46.56,46.56,0,0,0,2.62,5.12c.18.28.57,0,.48-.27a45.37,45.37,0,0,0-2.45-5.12c-.2-.4-.85-.14-.65.27Z"/><path id="Path_72499" data-name="Path 72499" class="cls-1" d="M124,26.35a54.83,54.83,0,0,0,2.62,5.12c.18.27.57,0,.48-.27a53.43,53.43,0,0,0-2.41-5.14c-.21-.43-.9-.14-.69.29Z"/><path id="Path_72500" data-name="Path 72500" class="cls-1" d="M126.59,30a50.79,50.79,0,0,0,2.64,5.46c.15.25.49,0,.41-.24a47.83,47.83,0,0,0-2.41-5.49C127.05,29.29,126.4,29.55,126.59,30Z"/><path id="Path_72501" data-name="Path 72501" class="cls-1" d="M130,34.27c.38,1.09.73,2.2,1.19,3.26.11.26.58.16.5-.13-.3-1.15-.7-2.26-1.09-3.38C130.44,33.61,129.83,33.87,130,34.27Z"/><path id="Path_72502" data-name="Path 72502" class="cls-1" d="M131.49,36.67c.49.95,1,1.91,1.54,2.83.15.27.58,0,.46-.26-.42-1-.91-1.89-1.4-2.83-.19-.37-.8-.12-.6.26Z"/><path id="Path_72503" data-name="Path 72503" class="cls-1" d="M22.75,28.89C33.42,16.41,45.53,8.82,60.9,3.32c.31-.11.17-.64-.16-.56-15,3.5-29.26,13.49-38.43,25.79a.28.28,0,0,0,.44.34Z"/><path id="Path_72504" data-name="Path 72504" class="cls-1" d="M68,2.82c1.69,0,3.41,0,5.08-.22.3,0,.32-.52,0-.54-1.71-.08-3.44.1-5.15.19-.37,0-.29.58.07.57Z"/><path id="Path_72505" data-name="Path 72505" class="cls-1" d="M39.83,8.44C46.29,4.85,52.89,2.63,59.93.53c.31-.09.16-.58-.13-.53C52.68,1.18,45.71,4.3,39.57,8c-.26.16,0,.61.26.46Z"/><path id="Path_72506" data-name="Path 72506" class="cls-1" d="M80.38,149.88c18.79-.82,37.8-9,50.06-23.59.22-.26-.18-.69-.44-.44-13.94,13.6-30,22-49.69,23.51-.35,0-.28.54.07.53Z"/><path id="Path_72507" data-name="Path 72507" class="cls-1" d="M136.26,120.48c1.65-2.4,3.36-4.77,4.81-7.29.17-.28-.28-.53-.47-.28-1.76,2.28-3.28,4.75-4.85,7.17-.22.35.27.74.51.4Z"/><path id="Path_72508" data-name="Path 72508" class="cls-1" d="M7.34,53.07C.39,75.19.27,103.32,19.56,119.43c.28.23.58-.19.34-.44C1.84,101.35,1.27,76.34,8,53.34,8.11,52.92,7.48,52.64,7.34,53.07Z"/><path id="Path_72509" data-name="Path 72509" class="cls-1" d="M10.29,46.09a10.72,10.72,0,0,0,2-5.17.26.26,0,0,0-.23-.3.26.26,0,0,0-.29.23,19.43,19.43,0,0,1-1.91,5c-.14.23.25.46.41.24Z"/><path id="Path_72510" data-name="Path 72510" class="cls-1" d="M.53,72.69C1.25,55.21,6.75,40.09,16,25.35c.2-.32-.24-.68-.48-.37C5.15,38.77.26,55.49,0,72.61c0,.34.52.43.53.07Z"/><path id="Path_72511" data-name="Path 72511" class="cls-1" d="M35.69,137.17A69.18,69.18,0,0,0,55.17,145c.29.06.42-.41.14-.5a160.36,160.36,0,0,1-19.38-7.74C35.69,136.64,35.44,137,35.69,137.17Z"/><path id="Path_72512" data-name="Path 72512" class="cls-1" d="M53.44,148.3c10,4.58,21.08,6.9,32.08,5.47a.27.27,0,0,0-.08-.54c-11.16.42-21.49-.88-31.81-5.37a.23.23,0,0,0-.31.13.23.23,0,0,0,.12.31Z"/><path id="Path_72513" data-name="Path 72513" class="cls-1" d="M65.32,148.67c1.88,0,3.76,0,5.64-.14.26,0,.27-.47,0-.48-1.89-.05-3.8,0-5.7.06-.37,0-.28.57.08.56Z"/><path id="Path_72514" data-name="Path 72514" class="cls-1" d="M108.55,4.62c17.34,8.6,30.39,21.21,38.72,38.8a.25.25,0,0,0,.33.11.24.24,0,0,0,.12-.3c-7.46-17.48-21.28-31.83-39-39.1a.27.27,0,0,0-.35.15.26.26,0,0,0,.15.34Z"/><path id="Path_72515" data-name="Path 72515" class="cls-1" d="M125.66,9.29a46.55,46.55,0,0,1,9.47,9.23.21.21,0,0,0,.31,0,.22.22,0,0,0,0-.31A38.1,38.1,0,0,0,126,8.87C125.71,8.67,125.38,9.09,125.66,9.29Z"/><path id="Path_72516" data-name="Path 72516" class="cls-1" d="M150.43,56.36a20,20,0,0,0,.66,2.12.28.28,0,0,0,.36.13.27.27,0,0,0,.16-.27c-.16-.74-.34-1.44-.56-2.15C150.93,55.84,150.33,56,150.43,56.36Z"/></svg>