<svg id="Layer_1" data-name="Layer 1" xmlns="http://www.w3.org/2000/svg" viewBox="0 0 208.14 119.88"><defs><style>.cls-1{fill:#0168ff;fill-rule:evenodd;}</style></defs><path id="Path_70331" data-name="Path 70331" class="cls-1" d="M49.16,49C58,20.09,84.41-2.29,115.87,2.86c36.37,6,58.19,46.38,42.38,80-.58,1.27,1.38,2.09,2,.85,15.46-31.37-2.68-71.07-35.93-81.19C89.91-7.93,57,15.31,47.81,48.39,47.57,49.28,48.88,49.87,49.16,49Z"/><path id="Path_70332" data-name="Path 70332" class="cls-1" d="M47.17,65.82c3.32,51.65,69.05,72.74,102.55,34.42.45-.51-.32-1.28-.84-.85-16.13,13-32.94,23.19-54.44,18-24.12-5.87-42.89-27.17-46.07-51.69-.1-.77-1.24-.6-1.2.17Z"/><path id="Path_70333" data-name="Path 70333" class="cls-1" d="M55.69,30.48c-4.08-.13-12.81.22-15.06,4.56-2.66,5.13,5.69,11,8.81,13.68.34.29.87-.22.56-.55-2.5-2.7-12.48-9.51-7.52-14,3-2.79,9.31-3,13.21-3.29.21,0,.21-.36,0-.36Z"/><path id="Path_70334" data-name="Path 70334" class="cls-1" d="M48.15,47.86A249.71,249.71,0,0,0,149.51,84.55a.34.34,0,0,0,.36-.3.34.34,0,0,0-.27-.35C113.19,77.29,80.75,65.28,48.5,47.27,48.16,47.08,47.83,47.65,48.15,47.86Z"/><path id="Path_70335" data-name="Path 70335" class="cls-1" d="M151.32,84.84A60.41,60.41,0,0,0,164,84.58c2.78-.36,6.49-.71,8.56-2.9,4.55-4.78-2.56-9.81-5.62-12.71-.31-.3-.77.19-.52.52,1.33,1.71,3.2,2.89,4.55,4.57,1.73,2.17,3.12,5,.24,7.45a9.75,9.75,0,0,1-4.07,1.59,63.42,63.42,0,0,1-15.74,1.12c-.39,0-.49.59-.08.62Z"/><path id="Path_70336" data-name="Path 70336" class="cls-1" d="M60.58,24.05a132.14,132.14,0,0,0-31.31-3.72c-6.56.09-19.56-.56-24.12,5.72C-2.91,37.14,23.59,52.19,30.69,56.13c.31.17.63-.36.32-.55a117.52,117.52,0,0,1-15.28-11c-2.36-2.07-7.34-5.16-8.44-8.37C2.87,23.25,11.77,22.85,18.92,21.9,32.83,20,46.85,22,60.49,24.7c.42.08.5-.56.09-.65Z"/><path id="Path_70337" data-name="Path 70337" class="cls-1" d="M33.67,58.34a344.75,344.75,0,0,0,133.58,43.13.39.39,0,0,0,.41-.35.38.38,0,0,0-.31-.41C120,93.79,76.33,80,33.92,57.75c-.37-.19-.6.39-.25.59Z"/><path id="Path_70338" data-name="Path 70338" class="cls-1" d="M172,102.08c7.63,1.33,40.33,1.15,35.33-13.72-.12-.37-.71-.2-.65.17,2.12,13.46-26,14.08-34.62,13.06a.25.25,0,1,0-.06.49Z"/><path id="Path_70339" data-name="Path 70339" class="cls-1" d="M165.35,56.77c13.94,9,28.75,15.28,39.7,28.19a.27.27,0,0,0,.38,0,.28.28,0,0,0,0-.37c-8.69-13.16-26.28-21.32-39.93-28.21a.2.2,0,0,0-.2.35Z"/><path id="Path_70340" data-name="Path 70340" class="cls-1" d="M93.91,60.73A123.2,123.2,0,0,0,133.1,71.5a.25.25,0,0,0,.27-.21.24.24,0,0,0-.21-.27h0a158.86,158.86,0,0,1-39-10.86.3.3,0,0,0-.4.17A.31.31,0,0,0,93.91,60.73Z"/><path id="Path_70341" data-name="Path 70341" class="cls-1" d="M102.63,67.06a180.76,180.76,0,0,0,24,5.76c.29.05.34-.39.06-.45-8-1.71-16-3.48-23.85-5.77-.3-.09-.51.37-.19.46Z"/><path id="Path_70342" data-name="Path 70342" class="cls-1" d="M131,73.94a76.48,76.48,0,0,0,29.15.88.27.27,0,0,0,.21-.32.26.26,0,0,0-.28-.21,128.06,128.06,0,0,1-29-.86C130.7,73.38,130.64,73.87,131,73.94Z"/><path id="Path_70343" data-name="Path 70343" class="cls-1" d="M134.22,72.48a66.77,66.77,0,0,0,6.77.77.24.24,0,0,0,.07-.47q-3.36-.63-6.76-.93a.33.33,0,0,0-.36.27.32.32,0,0,0,.28.36Z"/><path id="Path_70344" data-name="Path 70344" class="cls-1" d="M144.25,73.22a55.94,55.94,0,0,0,18.57-2.06c.27-.08.15-.51-.12-.46a109.79,109.79,0,0,1-18.44,2c-.28,0-.28.48,0,.48Z"/><path id="Path_70345" data-name="Path 70345" class="cls-1" d="M145.57,71c3.64-.22,7.37-.28,11-.82.27,0,.29-.49,0-.5-3.67,0-7.39.44-11,.74-.38,0-.3.61.08.59Z"/><path id="Path_70346" data-name="Path 70346" class="cls-1" d="M136,69.69c1.56,0,3.11.1,4.66.12.25,0,.32-.38.06-.4-1.55-.07-3.1-.13-4.66-.18-.29,0-.36.45-.06.46Z"/><path id="Path_70347" data-name="Path 70347" class="cls-1" d="M53.42,37.47A111.88,111.88,0,0,0,83,53.72a.22.22,0,0,0,.16-.4A138.23,138.23,0,0,1,53.76,37c-.29-.21-.63.22-.34.43Z"/><path id="Path_70348" data-name="Path 70348" class="cls-1" d="M58.45,44.09a185.33,185.33,0,0,0,17.6,9.38c.24.11.39-.25.16-.38-5.89-3.11-11.8-6.15-17.57-9.47-.28-.16-.48.31-.2.47Z"/><path id="Path_70349" data-name="Path 70349" class="cls-1" d="M83.71,55.9a60.69,60.69,0,0,0,5.79,2.38.23.23,0,0,0,.31-.12.24.24,0,0,0-.13-.31,59.57,59.57,0,0,0-5.75-2.47.29.29,0,0,0-.38.15.28.28,0,0,0,.16.37Z"/><path id="Path_70350" data-name="Path 70350" class="cls-1" d="M80.84,55.89a36.65,36.65,0,0,0,11.49,5.48c.22.06.33-.32.11-.39a45.75,45.75,0,0,1-11.31-5.45C80.88,55.36,80.6,55.72,80.84,55.89Z"/><path id="Path_70351" data-name="Path 70351" class="cls-1" d="M104.65,62.16a104.84,104.84,0,0,0,28.25,5.49.25.25,0,0,0,.06-.5,147.59,147.59,0,0,1-28.1-5.47c-.32-.1-.54.38-.21.48Z"/><path id="Path_70352" data-name="Path 70352" class="cls-1" d="M128.38,64.08a26.52,26.52,0,0,0,9.06,1.29.24.24,0,0,0,.19-.27.21.21,0,0,0-.19-.19,44.1,44.1,0,0,1-8.92-1.34c-.29-.08-.42.42-.14.51Z"/><path id="Path_70353" data-name="Path 70353" class="cls-1" d="M139.65,67.18c6.1,1.25,12.57,1.64,18.67.12a.25.25,0,0,0,.19-.28.24.24,0,0,0-.26-.19c-6.27.74-12.28,1-18.53-.16-.33-.06-.39.44-.07.5Z"/><path id="Path_70354" data-name="Path 70354" class="cls-1" d="M58.34,38.38a122.91,122.91,0,0,0,26,12.77A.24.24,0,0,0,84.6,51a.23.23,0,0,0-.12-.3A201.72,201.72,0,0,1,58.62,38C58.37,37.89,58.09,38.23,58.34,38.38Z"/><path id="Path_70355" data-name="Path 70355" class="cls-1" d="M68.94,42q4.78,2.49,9.8,4.51a.22.22,0,0,0,.29-.12.22.22,0,0,0-.12-.29,105.9,105.9,0,0,0-9.77-4.58.26.26,0,0,0-.2.48Z"/><path id="Path_70356" data-name="Path 70356" class="cls-1" d="M50.86,45.79a53,53,0,0,0,20,12.26c.25.08.41-.29.16-.38a59.4,59.4,0,0,1-19.83-12.3c-.24-.23-.57.19-.33.42Z"/><path id="Path_70357" data-name="Path 70357" class="cls-1" d="M54.78,46.64a72.5,72.5,0,0,0,12.35,8.48c.23.12.37-.23.16-.36A88.12,88.12,0,0,1,55,46.29c-.21-.18-.49.16-.26.35Z"/><path id="Path_70358" data-name="Path 70358" class="cls-1" d="M94.89,63.66a20.36,20.36,0,0,1,4.92,2c.22.12.43-.23.22-.37A13.7,13.7,0,0,0,95,63.19C94.65,63.12,94.59,63.6,94.89,63.66Z"/><path id="Path_70359" data-name="Path 70359" class="cls-1" d="M75.12,55c1.86,1,3.71,2,5.61,2.88.24.12.39-.25.16-.38-1.83-1-3.73-1.95-5.6-2.9-.25-.14-.43.27-.17.4Z"/><path id="Path_70360" data-name="Path 70360" class="cls-1" d="M77.31,53.92c1,.46,1.88.95,2.85,1.35.26.11.41-.26.17-.4-.92-.52-1.87-1-2.82-1.42-.29-.15-.49.32-.2.47Z"/><path id="Path_70361" data-name="Path 70361" class="cls-1" d="M85.6,54.33c4.48,2,9,4,13.64,5.69a.22.22,0,0,0,.17-.4C95,57.49,90.35,55.69,85.78,53.9a.23.23,0,0,0-.3.13.25.25,0,0,0,.12.3Z"/><path id="Path_70362" data-name="Path 70362" class="cls-1" d="M96.85,57.27c1.41.45,2.83.9,4.26,1.31.26.07.43-.3.17-.39-1.4-.5-2.82-.95-4.23-1.4-.31-.1-.52.38-.2.48Z"/><path id="Path_70363" data-name="Path 70363" class="cls-1" d="M119.81,76.33a125.2,125.2,0,0,0,27.4,5.19c.27,0,.34-.4.06-.44a237.39,237.39,0,0,1-27.35-5.15c-.23-.06-.34.33-.11.4Z"/><path id="Path_70364" data-name="Path 70364" class="cls-1" d="M135.28,77.94c3.53.63,7.07,1.39,10.63,1.82a.22.22,0,0,0,.24-.21.21.21,0,0,0-.18-.24c-3.49-.82-7.08-1.31-10.62-1.91-.34-.06-.41.48-.07.54Z"/><path id="Path_70365" data-name="Path 70365" class="cls-1" d="M66,70.35a282.61,282.61,0,0,0,62.21,19.54c.3.06.36-.41.06-.47A325.22,325.22,0,0,1,66.21,69.86a.26.26,0,0,0-.35.14.28.28,0,0,0,.14.35h0Z"/><path id="Path_70366" data-name="Path 70366" class="cls-1" d="M96.25,78.22a30.7,30.7,0,0,0,11.58,3.57.25.25,0,0,0,.27-.21.24.24,0,0,0-.2-.27,46.36,46.36,0,0,1-11.44-3.58c-.31-.15-.5.33-.21.49Z"/><path id="Path_70367" data-name="Path 70367" class="cls-1" d="M131.31,91.87c17.14,4.19,34.56,7.77,52.3,7.08,6-.23,18.27.68,19.8-7.1.09-.46-.59-.53-.7-.09-2.64,10.09-31.71,6.27-37.38,5.7-11.46-1.17-22.72-3.6-34-6.1-.33-.08-.39.43-.07.51Z"/><path id="Path_70368" data-name="Path 70368" class="cls-1" d="M8.09,27.23C2.85,43.4,41.6,58.89,51.64,64c.3.15.47-.31.19-.47C42.44,58,4.06,43,8.59,27.44,8.68,27.11,8.19,26.89,8.09,27.23Z"/><path id="Path_70369" data-name="Path 70369" class="cls-1" d="M53.22,64.79a15.36,15.36,0,0,0,7.29,2.52.24.24,0,0,0,.26-.22.23.23,0,0,0-.2-.26,20.58,20.58,0,0,1-7-2.49c-.31-.18-.66.26-.35.45Z"/><path id="Path_70370" data-name="Path 70370" class="cls-1" d="M10.89,26c10.5-2.48,20.37-2.8,31.1-1.91a.24.24,0,0,0,.24-.23.25.25,0,0,0-.19-.24c-10.25-1.93-21.31-1-31.29,1.87-.29.08-.16.58.13.51Z"/><path id="Path_70371" data-name="Path 70371" class="cls-1" d="M15.81,26.32c-3.68.75-7.59,3-5.81,7.31C11.94,38.3,17,42,21.56,43.86a.24.24,0,0,0,.19-.45A27.22,27.22,0,0,1,13,36.81c-1.49-1.76-3.28-4.13-2.58-6.6.57-2,3.78-2.82,5.52-3.39a.26.26,0,0,0-.14-.49Z"/><path id="Path_70372" data-name="Path 70372" class="cls-1" d="M30.24,50.27A338.56,338.56,0,0,0,76.88,71.45c.33.11.54-.36.22-.49C61.22,64.53,45.6,57.81,30.42,49.83c-.27-.14-.45.29-.18.44Z"/><path id="Path_70373" data-name="Path 70373" class="cls-1" d="M78.42,72.5c3.66,1.28,7.34,2.43,11.07,3.47.28.08.48-.33.19-.43C86,74.23,82.37,73,78.64,72c-.34-.1-.57.4-.22.52Z"/><path id="Path_70374" data-name="Path 70374" class="cls-1" d="M111.5,83.29c21.43,6.94,43.43,12,65.92,13.83a.24.24,0,0,0,.25-.24.25.25,0,0,0-.18-.24c-22.43-2.92-44.18-7-65.8-13.79-.29-.09-.49.35-.19.45Z"/><path id="Path_70375" data-name="Path 70375" class="cls-1" d="M170.11,62.38c.94.47,1.87,1,2.85,1.37.29.12.45-.3.19-.45-.92-.52-1.88-1-2.82-1.44-.32-.16-.54.36-.22.52Z"/><path id="Path_70376" data-name="Path 70376" class="cls-1" d="M176.05,65.75a181.78,181.78,0,0,1,16.25,9.39c.26.16.54-.17.3-.36a74.2,74.2,0,0,0-16.35-9.51c-.3-.14-.5.34-.2.48Z"/><path id="Path_70377" data-name="Path 70377" class="cls-1" d="M173,67.45a5,5,0,0,0,2.9,1.87c.25.06.36-.35.12-.44a5.74,5.74,0,0,1-2.55-1.79c-.24-.29-.71.06-.46.36Z"/><path id="Path_70378" data-name="Path 70378" class="cls-1" d="M179.31,71.44A65.48,65.48,0,0,1,185,75.85c.2.16.51-.13.32-.32a31.37,31.37,0,0,0-5.7-4.5C179.35,70.85,179,71.25,179.31,71.44Z"/><path id="Path_70379" data-name="Path 70379" class="cls-1" d="M193.65,83.77a15.09,15.09,0,0,1,1.1,2.11,4.57,4.57,0,0,1-1.43,4.78c-1.09.81-3.41.84-4.69.91a33.6,33.6,0,0,1-9.26-1,.24.24,0,0,0-.27.21.24.24,0,0,0,.15.25c4,1.51,10.31,2.23,14.32.25,3.48-1.72,2.19-5.25.42-7.77-.16-.24-.48,0-.35.26Z"/><path id="Path_70380" data-name="Path 70380" class="cls-1" d="M192.69,79.64c3.41,2.12,9.52,7.52,6.71,11.84-2,3.09-6.57,2.82-9.85,3.67a.27.27,0,0,0-.21.32.27.27,0,0,0,.28.21c3.25-.26,9.65-.67,11-4.41,1.76-4.81-4.16-10-7.71-12-.22-.13-.44.25-.22.38Z"/><path id="Path_70381" data-name="Path 70381" class="cls-1" d="M20.74,25.91a59.13,59.13,0,0,0,7.53,0,.22.22,0,0,0,.19-.25.21.21,0,0,0-.18-.18,57.5,57.5,0,0,0-7.54-.1.26.26,0,0,0-.21.29.25.25,0,0,0,.21.21Z"/><path id="Path_70382" data-name="Path 70382" class="cls-1" d="M25.55,27.87c-4.46.56-16,.6-10.43,7.69C18.76,40.17,26,43.82,30.91,47a104.08,104.08,0,0,0,18,9.53.23.23,0,0,0,.3-.13.23.23,0,0,0-.12-.29A134.55,134.55,0,0,1,26.87,43.47c-2.63-1.79-5.95-3.58-8.16-5.87-2.45-2.52-3.78-6.22,0-8.19,1.56-.81,5.22-.8,6.85-1.08a.22.22,0,0,0,.2-.26.24.24,0,0,0-.25-.2Z"/><path id="Path_70383" data-name="Path 70383" class="cls-1" d="M60.32,57.34A194.61,194.61,0,0,0,90.56,71.16a.21.21,0,0,0,.27-.13.21.21,0,0,0-.11-.27C80.52,66.34,70.4,62,60.5,56.91,60.22,56.76,60.05,57.2,60.32,57.34Z"/><path id="Path_70384" data-name="Path 70384" class="cls-1" d="M96.78,73.64c1,.34,2,.7,3,1,.27.06.39-.37.13-.47-1-.39-2-.67-3-1-.32-.1-.53.39-.21.49Z"/><path id="Path_70385" data-name="Path 70385" class="cls-1" d="M103.46,76.19A139.36,139.36,0,0,0,127.13,83c.28,0,.33-.36.06-.42a190.17,190.17,0,0,1-23.55-6.77c-.27-.1-.44.3-.18.4Z"/><path id="Path_70386" data-name="Path 70386" class="cls-1" d="M46.13,29.46c-3.93.32-8.88,1.27-10.25,5.6-1.32,4.16,3.36,7.84,6.27,10a.24.24,0,0,0,.33-.06.23.23,0,0,0,0-.31C39.62,42.22,34.62,38.4,37,34.22c1.88-3.32,5.81-3.73,9.22-4.23a.27.27,0,0,0,.21-.32.27.27,0,0,0-.28-.21Z"/><path id="Path_70387" data-name="Path 70387" class="cls-1" d="M33.73,33.63a3.41,3.41,0,0,0-.17,4.81,3.81,3.81,0,0,0,.77.62c.23.12.44-.25.23-.4A3,3,0,0,1,34.08,34C34.27,33.78,33.93,33.44,33.73,33.63Z"/><path id="Path_70388" data-name="Path 70388" class="cls-1" d="M49.83,28.72c2.33.12,4.66.28,7,.27.22,0,.22-.37,0-.39-2.29-.23-4.6-.28-6.9-.38-.33,0-.4.48-.08.5Z"/><path id="Path_70389" data-name="Path 70389" class="cls-1" d="M50.27,24.64a19.1,19.1,0,0,1,5.31.72c.25.06.35-.34.12-.43a12.25,12.25,0,0,0-5.49-.76c-.31,0-.24.49.06.47Z"/><path id="Path_70390" data-name="Path 70390" class="cls-1" d="M137.41,84.4a100.16,100.16,0,0,0,30,2,.26.26,0,0,0-.06-.51,134.35,134.35,0,0,1-29.84-2C137.18,83.9,137.12,84.34,137.41,84.4Z"/><path id="Path_70391" data-name="Path 70391" class="cls-1" d="M173.45,83.48c3.12-1.5,4.35-6.61,1.23-8.8-.21-.15-.5.11-.33.32,2.08,2.44,2.05,6.41-1.1,8-.28.14-.1.61.2.47Z"/><path id="Path_70392" data-name="Path 70392" class="cls-1" d="M72.66,78.53a130.31,130.31,0,0,0,35,11.89c.29,0,.34-.4.06-.47A175,175,0,0,1,72.89,78c-.34-.16-.56.37-.23.54Z"/><path id="Path_70393" data-name="Path 70393" class="cls-1" d="M76.36,82.57a291.34,291.34,0,0,0,33.76,10.56c.27.07.39-.38.13-.46-11.33-3.26-22.59-6.61-33.7-10.54-.29-.1-.48.33-.19.44Z"/><path id="Path_70394" data-name="Path 70394" class="cls-1" d="M107.66,91.59c7.31,1.93,14.62,4.07,22,5.61.28.06.42-.4.14-.49-7.27-2.2-14.74-3.84-22.1-5.66-.34-.08-.4.45-.07.54Z"/><path id="Path_70395" data-name="Path 70395" class="cls-1" d="M101.22,91.8a127.24,127.24,0,0,0,27.49,6.4A.25.25,0,0,0,129,98a.25.25,0,0,0-.19-.26,172,172,0,0,1-27.33-6.45c-.36-.12-.59.41-.23.54Z"/><path id="Path_70396" data-name="Path 70396" class="cls-1" d="M93.54,92.21c10,2.73,20.07,5.7,30.23,8a.26.26,0,0,0,.13-.5c-10-3-20.19-5.43-30.28-8.06-.35-.09-.42.46-.08.55Z"/><path id="Path_70397" data-name="Path 70397" class="cls-1" d="M99.66,96.69a168.3,168.3,0,0,0,38.94,7.65c.3,0,.36-.44.06-.47A203.2,203.2,0,0,1,99.9,96.12c-.37-.12-.62.44-.24.57Z"/><path id="Path_70398" data-name="Path 70398" class="cls-1" d="M124.82,99.83a98.14,98.14,0,0,0,21.11,3.58c.32,0,.4-.48.07-.52-7.1-.94-14.05-2-21-3.56-.29-.06-.43.42-.14.5Z"/><path id="Path_70399" data-name="Path 70399" class="cls-1" d="M124.86,97.59c7.12,2.09,14.58,3.79,22,4,.3,0,.37-.43.07-.47-7.45-.94-14.65-1.89-21.89-4-.32-.09-.54.4-.21.5Z"/><path id="Path_70400" data-name="Path 70400" class="cls-1" d="M127.86,96.77a107.55,107.55,0,0,0,17,2.63.27.27,0,0,0,.29-.25.26.26,0,0,0-.22-.28c-5.68-.86-11.36-1.66-17-2.6-.33,0-.38.43-.07.5Z"/><path id="Path_70401" data-name="Path 70401" class="cls-1" d="M53.1,70a73.45,73.45,0,0,0,26.15,9.74c.29,0,.34-.39.06-.45a94.76,94.76,0,0,1-25.94-9.74C53.11,69.43,52.84,69.87,53.1,70Z"/><path id="Path_70402" data-name="Path 70402" class="cls-1" d="M57.23,74c7.83,3.12,15.63,6.37,23.57,9.2a.24.24,0,0,0,.31-.13.24.24,0,0,0-.13-.3c-7.74-3.33-15.66-6.27-23.52-9.31-.35-.14-.59.4-.23.54Z"/><path id="Path_70403" data-name="Path 70403" class="cls-1" d="M56,76c9.39,3.71,18.85,7.31,28.47,10.37.3.1.5-.34.2-.46-9.47-3.52-19-6.87-28.47-10.39C55.84,75.38,55.63,75.86,56,76Z"/><path id="Path_70404" data-name="Path 70404" class="cls-1" d="M58.89,79.17a361.64,361.64,0,0,0,37.6,12.91c.29.07.47-.33.19-.42-12.63-4.08-25.17-8.26-37.57-13-.34-.13-.57.39-.22.53Z"/><path id="Path_70405" data-name="Path 70405" class="cls-1" d="M63.7,82.77A242.59,242.59,0,0,0,97,93.7c.25.06.37-.36.12-.43C85.9,90,74.78,86.62,63.88,82.33,63.6,82.23,63.42,82.66,63.7,82.77Z"/><path id="Path_70406" data-name="Path 70406" class="cls-1" d="M64.43,85.73c2.14.9,4.27,1.82,6.44,2.65a.21.21,0,0,0,.28-.13A.22.22,0,0,0,71,88c-2.11-1-4.25-1.87-6.39-2.77a.28.28,0,0,0-.36.16.27.27,0,0,0,.14.36Z"/><path id="Path_70407" data-name="Path 70407" class="cls-1" d="M73.79,89.59c9.21,2.94,18.39,6,27.68,8.74.28.08.47-.34.18-.44C92.5,94.76,83.22,92,74,89.12c-.31-.1-.51.37-.2.47Z"/><path id="Path_70408" data-name="Path 70408" class="cls-1" d="M74.44,91.69a245.06,245.06,0,0,0,36,10.93c.3.06.35-.39.06-.46A341.93,341.93,0,0,1,74.64,91.23c-.31-.11-.5.35-.2.46Z"/><path id="Path_70409" data-name="Path 70409" class="cls-1" d="M112.68,101.59c4.16,1.18,8.33,2.39,12.53,3.43.25.06.37-.36.12-.43-4.14-1.27-8.33-2.38-12.51-3.51-.3-.08-.44.43-.14.51Z"/><path id="Path_70410" data-name="Path 70410" class="cls-1" d="M128.21,105a89.52,89.52,0,0,0,13.16,1.37c.29,0,.36-.42.07-.45-4.4-.47-8.78-.82-13.16-1.44a.25.25,0,0,0-.27.25.26.26,0,0,0,.2.27Z"/><path id="Path_70411" data-name="Path 70411" class="cls-1" d="M47.75,66.17a33.84,33.84,0,0,0,10.72,7.07.24.24,0,0,0,.31-.14.26.26,0,0,0-.12-.3,56,56,0,0,1-10.57-7.07c-.28-.23-.59.2-.34.44Z"/><path id="Path_70412" data-name="Path 70412" class="cls-1" d="M47.16,68a60.93,60.93,0,0,0,11.51,6.69c.27.12.42-.28.18-.41-3.89-2.07-7.62-4.37-11.29-6.79-.34-.23-.74.25-.4.51Z"/><path id="Path_70413" data-name="Path 70413" class="cls-1" d="M48.58,70.94c3.25,1.85,6.54,3.69,9.89,5.36.24.12.47-.26.24-.4-3.23-1.94-6.57-3.73-9.91-5.48-.33-.17-.54.35-.22.53Z"/><path id="Path_70414" data-name="Path 70414" class="cls-1" d="M48.27,72.89a56.53,56.53,0,0,0,11.24,6.4.23.23,0,0,0,.18-.43,95.35,95.35,0,0,1-11.08-6.4C48.33,72.26,48,72.69,48.27,72.89Z"/><path id="Path_70415" data-name="Path 70415" class="cls-1" d="M50.34,76.51a62.09,62.09,0,0,0,10.87,5.83.21.21,0,0,0,.29-.13.21.21,0,0,0-.11-.28,120.77,120.77,0,0,1-10.74-5.81c-.27-.17-.58.21-.31.39Z"/><path id="Path_70416" data-name="Path 70416" class="cls-1" d="M52.05,79.57A47.37,47.37,0,0,0,67,87c.28.08.48-.33.18-.44a86.45,86.45,0,0,1-14.84-7.35c-.27-.16-.58.2-.31.4Z"/><path id="Path_70417" data-name="Path 70417" class="cls-1" d="M53.84,83.67a66.46,66.46,0,0,0,14.68,6c.27.08.38-.36.13-.45a133.12,133.12,0,0,1-14.59-6.13c-.33-.17-.54.36-.22.54Z"/><path id="Path_70418" data-name="Path 70418" class="cls-1" d="M55.23,87.54a19.52,19.52,0,0,0,2,.91c.26.1.53-.29.26-.44A19.87,19.87,0,0,0,55.48,87C55.1,86.77,54.86,87.35,55.23,87.54Z"/><path id="Path_70419" data-name="Path 70419" class="cls-1" d="M62.46,89.79A42.43,42.43,0,0,0,75,94.26c.27,0,.32-.34.06-.41a66.66,66.66,0,0,1-12.4-4.52c-.3-.15-.48.31-.2.46Z"/><path id="Path_70420" data-name="Path 70420" class="cls-1" d="M69.74,89.92c1.12.62,2.23,1.24,3.37,1.82.27.13.42-.27.18-.41-1.1-.65-2.23-1.24-3.36-1.85-.28-.15-.47.3-.19.44Z"/><path id="Path_70421" data-name="Path 70421" class="cls-1" d="M71.88,89.36c.23.07.38-.28.15-.35S71.65,89.28,71.88,89.36Z"/><path id="Path_70422" data-name="Path 70422" class="cls-1" d="M77,95.21c2.79.94,5.57,1.9,8.4,2.74.25.08.42-.29.16-.38-2.76-1-5.57-1.92-8.36-2.82-.31-.1-.51.35-.2.46Z"/><path id="Path_70423" data-name="Path 70423" class="cls-1" d="M78,97.24a40.9,40.9,0,0,0,16.67,4.92.23.23,0,0,0,.25-.2.22.22,0,0,0-.18-.24A57.58,57.58,0,0,1,78.18,96.8c-.29-.13-.46.3-.2.44Z"/><path id="Path_70424" data-name="Path 70424" class="cls-1" d="M112.31,103.72A50.71,50.71,0,0,0,128.24,108a.23.23,0,0,0,.26-.22.23.23,0,0,0-.2-.25,70.83,70.83,0,0,1-15.79-4.28.27.27,0,0,0-.32.19.26.26,0,0,0,.12.29Z"/><path id="Path_70425" data-name="Path 70425" class="cls-1" d="M130,107.57c.28.09.47-.35.19-.44S129.68,107.47,130,107.57Z"/><path id="Path_70426" data-name="Path 70426" class="cls-1" d="M79.78,111.37A55.06,55.06,0,0,0,99,116.73a.21.21,0,0,0,.24-.19.21.21,0,0,0-.18-.24A77.83,77.83,0,0,1,80,111a.23.23,0,0,0-.29.14.23.23,0,0,0,.11.28Z"/><path id="Path_70427" data-name="Path 70427" class="cls-1" d="M84.87,110.92c3.65,1.33,7.33,2.65,11.06,3.75.28.09.47-.32.18-.43-3.61-1.41-7.34-2.62-11-3.81-.32-.1-.53.38-.21.49Z"/><path id="Path_70428" data-name="Path 70428" class="cls-1" d="M97.38,117.38a32.94,32.94,0,0,0,13.31,1.31.23.23,0,0,0,0-.46,47.88,47.88,0,0,1-13.12-1.35C97.24,116.81,97.1,117.3,97.38,117.38Z"/><path id="Path_70429" data-name="Path 70429" class="cls-1" d="M98.91,114.65A46.67,46.67,0,0,0,111,117.3a.22.22,0,0,0,.24-.21.26.26,0,0,0-.19-.24,100,100,0,0,1-12-2.68c-.31-.1-.52.37-.2.48Z"/><path id="Path_70430" data-name="Path 70430" class="cls-1" d="M111.39,116.24c2.12.29,4.24.65,6.38.81a.24.24,0,1,0,.06-.48c-2.1-.4-4.24-.61-6.37-.88a.27.27,0,0,0-.31.24A.28.28,0,0,0,111.39,116.24Z"/><path id="Path_70431" data-name="Path 70431" class="cls-1" d="M115.91,115.33c.29.1.47-.34.18-.43S115.63,115.24,115.91,115.33Z"/><path id="Path_70432" data-name="Path 70432" class="cls-1" d="M70.41,106.19A29.93,29.93,0,0,0,81,110.89c.24,0,.35-.34.12-.41a37.46,37.46,0,0,1-10.41-4.65C70.45,105.66,70.16,106,70.41,106.19Z"/><path id="Path_70433" data-name="Path 70433" class="cls-1" d="M71.29,104.75c2.6,1.17,5.19,2.38,7.83,3.47a.22.22,0,0,0,.26-.14.2.2,0,0,0-.1-.24c-2.57-1.25-5.2-2.37-7.8-3.54a.24.24,0,0,0-.31.15A.25.25,0,0,0,71.29,104.75Z"/><path id="Path_70434" data-name="Path 70434" class="cls-1" d="M80.51,109c1.34.66,2.67,1.33,4,1.93.25.11.39-.26.16-.38-1.32-.69-2.67-1.32-4-2-.26-.12-.44.29-.18.42Z"/><path id="Path_70435" data-name="Path 70435" class="cls-1" d="M88,109.63a34,34,0,0,0,10.43,2.76.2.2,0,0,0,.21-.18.18.18,0,0,0-.16-.21,35.33,35.33,0,0,1-10.34-2.71.18.18,0,0,0-.24.11.19.19,0,0,0,.1.23Z"/><path id="Path_70436" data-name="Path 70436" class="cls-1" d="M79.74,107.52a18.56,18.56,0,0,1,5.37,1.63c.27.12.43-.28.18-.41A14.55,14.55,0,0,0,79.81,107a.25.25,0,0,0-.28.21.25.25,0,0,0,.21.28Z"/><path id="Path_70437" data-name="Path 70437" class="cls-1" d="M99.17,112c2.26.52,4.52,1.07,6.79,1.52.28.06.33-.36.06-.43-2.25-.58-4.52-1.06-6.79-1.57C98.92,111.44,98.86,111.93,99.17,112Z"/><path id="Path_70438" data-name="Path 70438" class="cls-1" d="M89.6,99.18c4.82,1.51,9.58,3.18,14.36,4.82.24.08.4-.27.15-.37-4.69-1.84-9.5-3.4-14.32-4.89-.29-.09-.48.35-.19.44Z"/><path id="Path_70439" data-name="Path 70439" class="cls-1" d="M97.05,104.12c1.52.41,3,.85,4.58,1.2.24.05.35-.36.11-.43-1.52-.48-3.08-.87-4.63-1.28-.32-.08-.38.43-.06.51Z"/><path id="Path_70440" data-name="Path 70440" class="cls-1" d="M107.65,105.11c1.53.4,3,.8,4.59,1.18.23,0,.34-.35.11-.42-1.54-.44-3.09-.84-4.64-1.26-.31-.08-.37.41-.06.49Z"/><path id="Path_70441" data-name="Path 70441" class="cls-1" d="M132.14,107c1,.32,2,.65,3,.93.28.08.47-.32.18-.43-1-.35-2-.66-3-1-.32-.1-.54.39-.21.49Z"/><path id="Path_70442" data-name="Path 70442" class="cls-1" d="M54.63,69.71A61.18,61.18,0,0,0,72,76.83c.25.06.36-.35.12-.43a82.09,82.09,0,0,1-17.26-7.13C54.55,69.12,54.37,69.55,54.63,69.71Z"/><path id="Path_70443" data-name="Path 70443" class="cls-1" d="M51.38,68.42a116.88,116.88,0,0,0,19.56,8.31c.27.09.45-.32.17-.42A175,175,0,0,1,51.6,67.92c-.31-.17-.52.34-.21.5Z"/><path id="Path_70444" data-name="Path 70444" class="cls-1" d="M54.62,71.78C60,74.2,65.39,76.72,70.87,79a.24.24,0,0,0,.3-.14.23.23,0,0,0-.12-.29c-5.33-2.57-10.8-4.86-16.22-7.25a.27.27,0,0,0-.21.5Z"/><path id="Path_70445" data-name="Path 70445" class="cls-1" d="M55.62,73.84c5.83,2.48,11.62,5.08,17.52,7.38a.23.23,0,0,0,.3-.13.22.22,0,0,0-.12-.28c-5.75-2.65-11.64-5-17.48-7.49a.28.28,0,1,0-.22.52Z"/><path id="Path_70446" data-name="Path 70446" class="cls-1" d="M57,76c4,1.65,7.95,3.43,12,4.91a.21.21,0,0,0,.29-.13.23.23,0,0,0-.11-.28c-3.93-1.81-8-3.35-12-5A.27.27,0,0,0,57,76Z"/><path id="Path_70447" data-name="Path 70447" class="cls-1" d="M56.33,77.87a66.66,66.66,0,0,0,11.46,4.58c.27.08.45-.31.17-.41a121.48,121.48,0,0,1-11.45-4.59c-.26-.12-.44.29-.18.42Z"/><path id="Path_70448" data-name="Path 70448" class="cls-1" d="M67.33,77.68a122.39,122.39,0,0,0,16.23,6.19c.25.07.43-.31.17-.4a149.4,149.4,0,0,1-16.22-6.23.24.24,0,1,0-.18.44Z"/><path id="Path_70449" data-name="Path 70449" class="cls-1" d="M74.24,78.77c7.46,2.88,14.88,5.91,22.43,8.55a.24.24,0,0,0,.19-.43c-7.38-3.1-14.92-5.81-22.39-8.66C74.13,78.1,73.9,78.63,74.24,78.77Z"/><path id="Path_70450" data-name="Path 70450" class="cls-1" d="M79,81.51a88.5,88.5,0,0,0,15.61,6.26c.31.08.51-.35.2-.46-5.3-1.92-10.51-3.88-15.62-6.25-.29-.13-.47.31-.19.45Z"/><path id="Path_70451" data-name="Path 70451" class="cls-1" d="M76.93,82.84A122,122,0,0,0,97.86,90.1c.24.05.35-.35.11-.42a159.13,159.13,0,0,1-20.88-7.25.21.21,0,0,0-.28.13.22.22,0,0,0,.12.28Z"/><path id="Path_70452" data-name="Path 70452" class="cls-1" d="M79.19,85.13a90,90,0,0,0,15.92,5.25c.28.06.32-.36.06-.43a120.44,120.44,0,0,1-15.79-5.29.25.25,0,0,0-.19.47Z"/><path id="Path_70453" data-name="Path 70453" class="cls-1" d="M92.61,88.71c4.2,1.34,8.4,2.73,12.63,4,.25.07.42-.3.16-.39-4.18-1.4-8.41-2.7-12.62-4-.27-.08-.45.33-.18.42Z"/><path id="Path_70454" data-name="Path 70454" class="cls-1" d="M98.65,88.67c6.25,1.49,12.3,3.4,18.37,5.5.27.1.44-.3.17-.4a141.33,141.33,0,0,0-18.47-5.59c-.32-.08-.38.41-.07.49Z"/><path id="Path_70455" data-name="Path 70455" class="cls-1" d="M104.41,89.06c5.93,1.83,11.84,3.74,17.8,5.44.27.07.44-.31.17-.39-5.88-2-11.85-3.69-17.77-5.51C104.3,88.51,104.11,89,104.41,89.06Z"/><path id="Path_70456" data-name="Path 70456" class="cls-1" d="M106.88,89.83c8.54,2.27,17.06,4.62,25.65,6.74.24.06.35-.35.11-.42-8.53-2.39-17.13-4.55-25.7-6.8-.3-.08-.37.4-.06.48Z"/><path id="Path_70457" data-name="Path 70457" class="cls-1" d="M119.66,94.44c5.27,1.09,10.53,2.27,15.83,3.27.27.05.32-.37,0-.43-5.25-1.2-10.54-2.23-15.82-3.32C119.42,93.9,119.36,94.37,119.66,94.44Z"/><path id="Path_70458" data-name="Path 70458" class="cls-1" d="M90.58,86.77a177.79,177.79,0,0,0,22.33,7c.22,0,.33-.34.1-.41-7.5-2.09-14.93-4.34-22.22-7.08-.32-.12-.53.37-.21.49Z"/><path id="Path_70459" data-name="Path 70459" class="cls-1" d="M92,89.55c6.51,2.16,13.06,4.23,19.72,5.84.24,0,.35-.35.11-.42-6.56-1.9-13.13-3.77-19.62-5.92-.32-.1-.54.39-.21.5Z"/><path id="Path_70460" data-name="Path 70460" class="cls-1" d="M91.38,90.49c6.38,2.12,12.8,4.18,19.25,6.09.27.08.44-.32.17-.41C104.43,94,98,92,91.57,90.05c-.29-.09-.49.34-.19.44Z"/><path id="Path_70461" data-name="Path 70461" class="cls-1" d="M106.23,92.71a149.05,149.05,0,0,0,16.46,4.67c.25.05.38-.37.12-.44-5.48-1.52-11-3-16.35-4.78-.36-.12-.59.43-.23.55Z"/><path id="Path_70462" data-name="Path 70462" class="cls-1" d="M111.26,92.71c4.68,1.25,9.34,2.55,14,3.71.25.06.36-.36.12-.43-4.67-1.32-9.39-2.52-14.09-3.77-.3-.07-.36.41-.07.49Z"/><path id="Path_70463" data-name="Path 70463" class="cls-1" d="M84.8,89.32c6.68,2.25,13.33,4.55,20.06,6.66.26.09.43-.3.17-.39-6.64-2.36-13.35-4.53-20-6.73-.31-.1-.51.35-.2.46Z"/><path id="Path_70464" data-name="Path 70464" class="cls-1" d="M75.8,84.34c4.35,1.92,8.71,3.83,13.09,5.69a.2.2,0,0,0,.16-.37c-4.35-2-8.7-3.86-13.06-5.77a.25.25,0,0,0-.32.15A.24.24,0,0,0,75.8,84.34Z"/><path id="Path_70465" data-name="Path 70465" class="cls-1" d="M51.11,73.52a129.24,129.24,0,0,0,19.44,7.55c.25.07.41-.29.16-.38A182.6,182.6,0,0,1,51.31,73c-.31-.15-.51.34-.2.49Z"/><path id="Path_70466" data-name="Path 70466" class="cls-1" d="M53.5,76.35A125.18,125.18,0,0,0,71.24,83c.26.08.44-.3.17-.39-6-2.13-11.9-4.22-17.72-6.76C53.4,75.76,53.21,76.22,53.5,76.35Z"/><path id="Path_70467" data-name="Path 70467" class="cls-1" d="M53.54,77.3A124.79,124.79,0,0,0,69.62,84c.25.08.41-.29.16-.38-5.45-2-10.82-4.21-16.05-6.78-.29-.14-.49.32-.19.46Z"/><path id="Path_70468" data-name="Path 70468" class="cls-1" d="M54.78,79.65c4.39,1.78,8.77,3.61,13.21,5.27a.21.21,0,0,0,.28-.11.21.21,0,0,0-.11-.28C63.8,82.67,59.36,81,55,79.23a.25.25,0,0,0-.3.13A.23.23,0,0,0,54.78,79.65Z"/><path id="Path_70469" data-name="Path 70469" class="cls-1" d="M54.3,81.06a67.75,67.75,0,0,0,14.85,5.61c.24.06.36-.36.12-.44A88.08,88.08,0,0,1,54.5,80.56c-.31-.15-.51.34-.2.5Z"/><path id="Path_70470" data-name="Path 70470" class="cls-1" d="M55.93,83.22a72.43,72.43,0,0,0,16.61,6.33c.25.06.36-.36.12-.43A128.74,128.74,0,0,1,56.15,82.7c-.33-.16-.54.35-.22.52Z"/><path id="Path_70471" data-name="Path 70471" class="cls-1" d="M57.7,87.14c1.34.63,2.68,1.28,4,1.88a.2.2,0,0,0,.26-.13.21.21,0,0,0-.1-.25c-1.33-.67-2.68-1.29-4-1.92a.23.23,0,0,0-.18.42Z"/><path id="Path_70472" data-name="Path 70472" class="cls-1" d="M58.79,89.62a21.4,21.4,0,0,0,5.95,3.46.23.23,0,0,0,.17-.42,37.78,37.78,0,0,1-5.81-3.44.27.27,0,0,0-.36.06.28.28,0,0,0,0,.35Z"/><path id="Path_70473" data-name="Path 70473" class="cls-1" d="M61.16,92.93a16,16,0,0,0,2,1c.26.11.52-.28.26-.45a18,18,0,0,0-2-1.12C61,92.14,60.8,92.73,61.16,92.93Z"/><path id="Path_70474" data-name="Path 70474" class="cls-1" d="M65.78,95a31.79,31.79,0,0,0,6.86,2.54c.22,0,.33-.33.11-.39A38.81,38.81,0,0,1,66,94.58c-.27-.13-.46.3-.19.43Z"/><path id="Path_70475" data-name="Path 70475" class="cls-1" d="M63.09,95.92a40.31,40.31,0,0,0,11.81,4.93.21.21,0,0,0,.25-.16.2.2,0,0,0-.15-.24,79.65,79.65,0,0,1-11.67-4.92c-.23-.12-.45.26-.24.39Z"/><path id="Path_70476" data-name="Path 70476" class="cls-1" d="M66.06,100a22.4,22.4,0,0,0,9.84,4c.26,0,.39-.38.13-.45a42.66,42.66,0,0,1-9.72-4c-.24-.14-.47.26-.25.42Z"/><path id="Path_70477" data-name="Path 70477" class="cls-1" d="M130.33,109.49c-1.75-.15-3.51-.22-5.26-.2-.26,0-.25.41,0,.44q2.58.28,5.19.33c.35,0,.44-.54.07-.57Z"/><path id="Path_70478" data-name="Path 70478" class="cls-1" d="M126.76,111.29c-2.19-.37-4.39-.76-6.61-1a.23.23,0,0,0-.25.21.22.22,0,0,0,.19.24c2.19.45,4.4.75,6.6,1.08a.28.28,0,0,0,.29-.24A.27.27,0,0,0,126.76,111.29Z"/><path id="Path_70479" data-name="Path 70479" class="cls-1" d="M124,112.81c-1.47-.27-2.93-.55-4.4-.71a.24.24,0,0,0-.27.2.24.24,0,0,0,.2.28c1.45.34,2.93.55,4.39.79.36.06.43-.5.08-.56Z"/><path id="Path_70480" data-name="Path 70480" class="cls-1" d="M119.7,114.86c.26.08.42-.3.17-.38S119.45,114.78,119.7,114.86Z"/><path id="Path_70481" data-name="Path 70481" class="cls-1" d="M111.06,93.4c4.12.93,8.24,1.88,12.42,2.54.34,0,.38-.43.07-.51-4.09-1.07-8.26-1.85-12.4-2.66C110.74,92.7,110.66,93.31,111.06,93.4Z"/><path id="Path_70482" data-name="Path 70482" class="cls-1" d="M108.52,95l10.19,2.33c.23.06.28-.31.05-.36l-10.19-2.35c-.24,0-.29.33,0,.38Z"/><path id="Path_70483" data-name="Path 70483" class="cls-1" d="M111.28,94.75c5.81,1.49,11.61,3,17.46,4.38.24.05.36-.37.11-.43-5.79-1.61-11.66-3-17.5-4.43C111,94.19,111,94.67,111.28,94.75Z"/><path id="Path_70484" data-name="Path 70484" class="cls-1" d="M113.9,96.94c4.67.92,9.33,1.92,14,2.68.3.06.35-.4.06-.47-4.64-1-9.34-1.83-14-2.72-.33-.06-.4.45-.07.51Z"/><path id="Path_70485" data-name="Path 70485" class="cls-1" d="M98.72,93.67l6.58,1.13c.26,0,.3-.34.06-.38l-6.59-1.17a.21.21,0,0,0,0,.42Z"/><path id="Path_70486" data-name="Path 70486" class="cls-1" d="M81.41,90.62c8.51,2.43,17.06,4.88,25.69,6.86.27.07.4-.39.13-.47-8.47-2.58-17.1-4.71-25.69-6.87-.27-.07-.4.4-.13.48Z"/><path id="Path_70487" data-name="Path 70487" class="cls-1" d="M73.86,87.31c2.93,1.18,5.86,2.37,8.81,3.51a.2.2,0,0,0,.27-.11.21.21,0,0,0-.11-.27C79.92,89.24,77,88.08,74,86.9,73.77,86.8,73.59,87.21,73.86,87.31Z"/><path id="Path_70488" data-name="Path 70488" class="cls-1" d="M84.08,93.66c3.78,1.26,7.56,2.59,11.39,3.72.29.08.49-.34.19-.45-3.75-1.36-7.58-2.53-11.37-3.76-.32-.1-.53.38-.21.49Z"/><path id="Path_70489" data-name="Path 70489" class="cls-1" d="M63.66,22.92a41.53,41.53,0,0,0,16,9.73c.25.08.41-.29.16-.38A47.89,47.89,0,0,1,64,22.47c-.28-.25-.61.2-.35.45Z"/><path id="Path_70490" data-name="Path 70490" class="cls-1" d="M67.46,29.31a50,50,0,0,0,13.82,6.62c.26.07.44-.31.17-.4a59.44,59.44,0,0,1-13.7-6.59c-.25-.17-.54.2-.29.36Z"/><path id="Path_70491" data-name="Path 70491" class="cls-1" d="M83.32,35.72c6.4,2.07,12.8,4.21,19.24,6.11.28.08.46-.31.18-.41-6.36-2.18-12.81-4.12-19.22-6.15C83.21,35.17,83,35.63,83.32,35.72Z"/><path id="Path_70492" data-name="Path 70492" class="cls-1" d="M88.19,33.72a19.56,19.56,0,0,0,9,3.37.22.22,0,0,0,0-.44,22.15,22.15,0,0,1-8.72-3.33c-.27-.18-.59.22-.31.4Z"/><path id="Path_70493" data-name="Path 70493" class="cls-1" d="M74.29,24.35a40.58,40.58,0,0,0,8.33,4.24.24.24,0,0,0,.31-.15.23.23,0,0,0-.11-.3,65.41,65.41,0,0,1-8.21-4.2c-.28-.18-.6.23-.31.41Z"/><path id="Path_70494" data-name="Path 70494" class="cls-1" d="M108.39,16.27a74.18,74.18,0,0,0,23.27,8.29c.28.05.33-.38.05-.45a105.17,105.17,0,0,1-23.11-8.34c-.31-.15-.51.34-.21.5Z"/><path id="Path_70495" data-name="Path 70495" class="cls-1" d="M113.38,21.36c4.35,1.55,8.69,3.23,13.12,4.56.26.08.43-.29.17-.4-4.29-1.72-8.73-3.11-13.1-4.62-.3-.11-.5.35-.19.46Z"/><path id="Path_70496" data-name="Path 70496" class="cls-1" d="M131.91,26.82A30,30,0,0,0,141.18,28a.24.24,0,0,0,0-.48A58.12,58.12,0,0,1,132,26.25c-.36-.09-.43.47-.07.57Z"/><path id="Path_70497" data-name="Path 70497" class="cls-1" d="M138.29,25.49a25.88,25.88,0,0,1,5.4.72c.25.05.37-.37.11-.45a18.55,18.55,0,0,0-5.44-.79c-.34,0-.42.52-.07.53Z"/><path id="Path_70498" data-name="Path 70498" class="cls-1" d="M95.7,6.58a13,13,0,0,0,9.51,7.4c.24,0,.37-.36.12-.43a14.54,14.54,0,0,1-9.17-7.16c-.15-.28-.61-.11-.46.19Z"/><path id="Path_70499" data-name="Path 70499" class="cls-1" d="M94.39,10a29.1,29.1,0,0,0,8,5.42c.29.13.45-.29.19-.44a47.35,47.35,0,0,1-7.85-5.4c-.26-.22-.57.19-.32.42Z"/><path id="Path_70500" data-name="Path 70500" class="cls-1" d="M105.74,17.25c1.8.9,3.59,1.87,5.45,2.65.3.12.45-.3.19-.45-1.75-1-3.61-1.83-5.42-2.71-.33-.16-.55.35-.22.51Z"/><path id="Path_70501" data-name="Path 70501" class="cls-1" d="M91.54,5.3c.88,1,1.72,2.13,2.67,3.12a.23.23,0,0,0,.36-.27C93.76,7.05,92.85,6,92,5c-.23-.26-.65.06-.43.33Z"/><path id="Path_70502" data-name="Path 70502" class="cls-1" d="M104.66,9.76a60.82,60.82,0,0,0,26.57,12c.27.05.31-.36.05-.42A73.75,73.75,0,0,1,105,9.33c-.28-.2-.62.22-.33.43Z"/><path id="Path_70503" data-name="Path 70503" class="cls-1" d="M132.07,23.19c1.46.27,2.92.55,4.4.72a.23.23,0,0,0,.25-.2.22.22,0,0,0-.19-.24c-1.44-.34-2.92-.56-4.39-.8a.26.26,0,0,0-.07.52Z"/><path id="Path_70504" data-name="Path 70504" class="cls-1" d="M137.86,22.61c1.6.24,3.18.5,4.78.67a.21.21,0,0,0,.24-.19.22.22,0,0,0-.18-.25c-1.58-.3-3.18-.51-4.76-.75a.27.27,0,0,0-.28.25.27.27,0,0,0,.2.27Z"/><path id="Path_70505" data-name="Path 70505" class="cls-1" d="M149.46,21.65a4.19,4.19,0,0,1-3,.65.23.23,0,0,0-.27.21.22.22,0,0,0,.2.26h0a4,4,0,0,0,3.39-.65c.31-.21,0-.68-.36-.47Z"/><path id="Path_70506" data-name="Path 70506" class="cls-1" d="M151.86,23.2a55.3,55.3,0,0,1-10.13.46.22.22,0,0,0,0,.44,36.67,36.67,0,0,0,10.25-.36.27.27,0,0,0,.23-.31.28.28,0,0,0-.3-.23Z"/><path id="Path_70507" data-name="Path 70507" class="cls-1" d="M153.47,25.26a45.59,45.59,0,0,1-9.34.39.22.22,0,0,0-.25.19.22.22,0,0,0,.19.25,31,31,0,0,0,9.46-.35C153.83,25.68,153.77,25.21,153.47,25.26Z"/><path id="Path_70508" data-name="Path 70508" class="cls-1" d="M154.09,27.49q-4.4.15-8.77.46c-.31,0-.24.46.06.45,2.92-.09,5.85-.23,8.77-.43.32,0,.25-.49-.06-.48Z"/><path id="Path_70509" data-name="Path 70509" class="cls-1" d="M106,40.49a92.67,92.67,0,0,0,25.8,5.41.24.24,0,0,0,.26-.21.23.23,0,0,0-.19-.25A192.51,192.51,0,0,1,106.17,40C105.87,39.92,105.65,40.37,106,40.49Z"/><path id="Path_70510" data-name="Path 70510" class="cls-1" d="M112.17,44.17c3.47.89,6.92,1.8,10.44,2.51.25,0,.37-.37.12-.44-3.46-1-7-1.8-10.49-2.62C111.89,43.54,111.83,44.09,112.17,44.17Z"/><path id="Path_70511" data-name="Path 70511" class="cls-1" d="M135.82,47.78a62.79,62.79,0,0,0,25.36.38.23.23,0,0,0,.19-.27.24.24,0,0,0-.25-.19,76,76,0,0,1-25.22-.53C135.51,47.09,135.44,47.7,135.82,47.78Z"/><path id="Path_70512" data-name="Path 70512" class="cls-1" d="M132.73,48.09c-2.53-.78-5.09-1.5-7.68-2.11-.25-.06-.38.37-.12.46,2.52.81,5.09,1.51,7.66,2.15.29.08.43-.42.14-.51Z"/><path id="Path_70513" data-name="Path 70513" class="cls-1" d="M145.52,53.45c-8.05-1.28-16.05-2.88-24-4.51-.27,0-.32.36,0,.42,7.94,1.85,16,3.29,24,4.55a.24.24,0,0,0,.26-.21.24.24,0,0,0-.2-.25Z"/><path id="Path_70514" data-name="Path 70514" class="cls-1" d="M134.06,54.3c-2-.63-4-1.27-6-1.85-.27-.08-.46.32-.18.42,2,.67,4,1.28,6,1.9C134.17,54.87,134.38,54.4,134.06,54.3Z"/><path id="Path_70515" data-name="Path 70515" class="cls-1" d="M118.73,48.14c-7.51-2-15-4.15-22.39-6.35-.27-.08-.46.32-.18.41,7.39,2.5,14.93,4.59,22.5,6.47.34.08.4-.44.07-.53Z"/><path id="Path_70516" data-name="Path 70516" class="cls-1" d="M114.64,49.78c-1.6-.5-3.21-1-4.83-1.46-.25-.07-.43.31-.17.39,1.61.52,3.22,1,4.83,1.48.27.08.45-.33.17-.41Z"/><path id="Path_70517" data-name="Path 70517" class="cls-1" d="M108.48,42.91c-.73-.12-1.46-.24-2.2-.33a.23.23,0,0,0-.25.2.22.22,0,0,0,.18.24c.74.16,1.46.28,2.2.41a.26.26,0,0,0,.07-.52Z"/><path id="Path_70518" data-name="Path 70518" class="cls-1" d="M103.36,39.52a23.28,23.28,0,0,0-2.64-1.09.27.27,0,0,0-.34.14.25.25,0,0,0,.14.33A23.28,23.28,0,0,0,103.16,40a.25.25,0,0,0,.33-.14.26.26,0,0,0-.13-.33Z"/><path id="Path_70519" data-name="Path 70519" class="cls-1" d="M148.56,46.87a64.92,64.92,0,0,1-13.48-1.23c-.25,0-.38.37-.12.45a38.28,38.28,0,0,0,13.68,1.29c.33,0,.25-.52-.08-.51Z"/><path id="Path_70520" data-name="Path 70520" class="cls-1" d="M142.18,44.34a196.4,196.4,0,0,1-24.78-4.45c-.24-.06-.36.36-.12.43a137.85,137.85,0,0,0,24.84,4.48C142.42,44.83,142.49,44.37,142.18,44.34Z"/><path id="Path_70521" data-name="Path 70521" class="cls-1" d="M131.78,40.47c-1.8-.21-3.61-.41-5.41-.59a.21.21,0,0,0-.06.42c1.8.23,3.6.43,5.41.64a.24.24,0,0,0,.27-.2.24.24,0,0,0-.21-.27Z"/><path id="Path_70522" data-name="Path 70522" class="cls-1" d="M115.71,40.22a64.51,64.51,0,0,0-9.32-2.13.24.24,0,0,0-.25.22.24.24,0,0,0,.19.25c3.08.65,6.14,1.28,9.16,2.16C115.83,40.82,116,40.32,115.71,40.22Z"/><path id="Path_70523" data-name="Path 70523" class="cls-1" d="M152.45,51.63c-6.64-.59-13.13-1.86-19.73-2.73-.31,0-.34.39-.06.46,6.4,1.61,13.16,2.18,19.73,2.73.3,0,.35-.43.06-.45Z"/><path id="Path_70524" data-name="Path 70524" class="cls-1" d="M152.92,54.15c-1.55-.06-3.11-.15-4.66-.13-.25,0-.26.42,0,.45,1.52.14,3.05.19,4.58.25.37,0,.45-.55.08-.57Z"/><path id="Path_70525" data-name="Path 70525" class="cls-1" d="M64.35,20.9a26.86,26.86,0,0,0,11.11,7.31.23.23,0,0,0,.18-.42,36.1,36.1,0,0,1-11-7.23c-.19-.19-.53.13-.34.34Z"/><path id="Path_70526" data-name="Path 70526" class="cls-1" d="M80.46,30.18c1.06.46,2.13.94,3.2,1.39a.2.2,0,0,0,.26-.13.2.2,0,0,0-.11-.25c-1-.48-2.11-1-3.18-1.42a.22.22,0,0,0-.28.14.21.21,0,0,0,.11.27Z"/><path id="Path_70527" data-name="Path 70527" class="cls-1" d="M71.71,19.74a38.8,38.8,0,0,0,10,5.63.22.22,0,0,0,.17-.4A64.14,64.14,0,0,1,72,19.32c-.27-.19-.6.21-.33.42Z"/><path id="Path_70528" data-name="Path 70528" class="cls-1" d="M68.42,21.88A14.26,14.26,0,0,0,73,24.55a.24.24,0,0,0,.19-.44,19.1,19.1,0,0,1-4.42-2.66C68.48,21.23,68.15,21.66,68.42,21.88Z"/><path id="Path_70529" data-name="Path 70529" class="cls-1" d="M84.63,30.57c1.38.51,2.76,1,4.16,1.49a.23.23,0,0,0,.18-.43c-1.36-.55-2.76-1-4.14-1.52-.31-.11-.5.35-.2.46Z"/><path id="Path_70530" data-name="Path 70530" class="cls-1" d="M82.67,33.61c.31.09.51-.37.2-.46S82.37,33.51,82.67,33.61Z"/><path id="Path_70531" data-name="Path 70531" class="cls-1" d="M50.3,47.25a14.13,14.13,0,0,0,5.91,4,.24.24,0,0,0,.3-.15.24.24,0,0,0-.11-.29,21.86,21.86,0,0,1-5.68-4c-.24-.23-.64.16-.42.41Z"/><path id="Path_70532" data-name="Path 70532" class="cls-1" d="M70.49,57.4a85.44,85.44,0,0,0,16.84,7.35c.24.07.41-.29.16-.37A101.2,101.2,0,0,1,70.65,57c-.24-.13-.4.25-.16.38Z"/><path id="Path_70533" data-name="Path 70533" class="cls-1" d="M87.31,65.85a51.6,51.6,0,0,0,13.47,3.65.19.19,0,0,0,.22-.17.19.19,0,0,0-.17-.22,60.56,60.56,0,0,1-13.35-3.65.21.21,0,0,0-.28.11.23.23,0,0,0,.11.28Z"/><path id="Path_70534" data-name="Path 70534" class="cls-1" d="M87.45,64.34c3.82,1.53,7.63,3.07,11.5,4.45a.24.24,0,0,0,.19-.43c-3.79-1.59-7.65-3-11.5-4.46-.29-.11-.48.33-.19.44Z"/><path id="Path_70535" data-name="Path 70535" class="cls-1" d="M99.15,70.25a75.07,75.07,0,0,0,17.07,5.86c.24,0,.36-.36.12-.43-5.8-1.68-11.41-3.62-17-5.81a.21.21,0,0,0-.16.38Z"/><path id="Path_70536" data-name="Path 70536" class="cls-1" d="M102.2,70.2a103.68,103.68,0,0,1,14.71,4.52.24.24,0,0,0,.31-.13.23.23,0,0,0-.12-.31h0a68.25,68.25,0,0,0-14.84-4.54c-.29-.06-.35.4-.06.46Z"/><path id="Path_70537" data-name="Path 70537" class="cls-1" d="M114.18,75c1.86.72,3.72,1.46,5.6,2.16.24.09.41-.29.16-.39-1.85-.75-3.72-1.46-5.59-2.19a.24.24,0,0,0-.29.13.23.23,0,0,0,.12.29Z"/><path id="Path_70538" data-name="Path 70538" class="cls-1" d="M118.8,74.24a50.4,50.4,0,0,1,9.14,2.24.23.23,0,0,0,.3-.12.22.22,0,0,0-.12-.3,31.81,31.81,0,0,0-9.25-2.36.27.27,0,0,0-.3.25A.27.27,0,0,0,118.8,74.24Z"/><path id="Path_70539" data-name="Path 70539" class="cls-1" d="M130.62,77.63l4,.93c.26.06.31-.34.05-.4-1.32-.33-2.67-.64-4-1-.27-.07-.33.37-.06.43Z"/><path id="Path_70540" data-name="Path 70540" class="cls-1" d="M144.08,83.16a39.12,39.12,0,0,0,14.82.53.2.2,0,0,0,.17-.23.2.2,0,0,0-.22-.18,49.09,49.09,0,0,1-14.72-.52c-.26-.05-.3.34,0,.4Z"/><path id="Path_70541" data-name="Path 70541" class="cls-1" d="M143,81.17a34.38,34.38,0,0,0,17.49.78c.28-.06.23-.49-.06-.44a39.35,39.35,0,0,1-17.24-.76c-.28-.08-.47.33-.19.42Z"/><path id="Path_70542" data-name="Path 70542" class="cls-1" d="M145,81.28a54,54,0,0,0,14.42-.44.23.23,0,0,0,.19-.25.23.23,0,0,0-.25-.18,84.31,84.31,0,0,1-14.3.38c-.32,0-.38.46-.06.49Z"/><path id="Path_70543" data-name="Path 70543" class="cls-1" d="M146.22,79.45a49.29,49.29,0,0,0,14.65-.5.2.2,0,0,0,.16-.23.19.19,0,0,0-.21-.16,80.19,80.19,0,0,1-14.53.44c-.29,0-.36.42-.07.45Z"/><path id="Path_70544" data-name="Path 70544" class="cls-1" d="M147.79,77.65a43.72,43.72,0,0,0,12.83-1.49c.23-.06.13-.44-.1-.4a56.94,56.94,0,0,1-12.67,1.46c-.28,0-.35.42-.06.43Z"/><path id="Path_70545" data-name="Path 70545" class="cls-1" d="M154.84,78.73c1.8-.38,3.61-.72,5.39-1.2.25-.07.22-.48-.06-.43-1.81.32-3.6.79-5.39,1.2-.27.06-.21.49.06.43Z"/><path id="Path_70546" data-name="Path 70546" class="cls-1" d="M51.43,44.19c.79.61,1.58,1.22,2.4,1.79a.22.22,0,1,0,.27-.35h0c-.77-.63-1.58-1.22-2.38-1.82a.24.24,0,0,0-.34,0,.23.23,0,0,0,0,.33Z"/><path id="Path_70547" data-name="Path 70547" class="cls-1" d="M51.85,42.43A23.21,23.21,0,0,0,61.58,49a.2.2,0,0,0,.26-.13.2.2,0,0,0-.11-.25,28.31,28.31,0,0,1-9.48-6.45c-.22-.22-.62.06-.4.31Z"/><path id="Path_70548" data-name="Path 70548" class="cls-1" d="M52.57,41.61c1.79,1.28,3.54,2.6,5.39,3.79.24.15.51-.18.27-.36-1.73-1.34-3.58-2.54-5.38-3.79-.24-.16-.52.19-.28.36Z"/><path id="Path_70549" data-name="Path 70549" class="cls-1" d="M54.05,40.34A7.46,7.46,0,0,1,57,42.25c.2.19.54,0,.35-.26a7.06,7.06,0,0,0-3.07-2.09c-.29-.1-.47.33-.19.44Z"/><path id="Path_70550" data-name="Path 70550" class="cls-1" d="M62.76,50.43c3.34,2,6.65,4,10.08,5.79.21.11.41-.23.21-.36-3.29-2.08-6.73-3.93-10.11-5.87-.27-.16-.45.29-.18.44Z"/><path id="Path_70551" data-name="Path 70551" class="cls-1" d="M75.64,57.79c2.48,1.24,4.94,2.51,7.43,3.69.24.11.39-.26.16-.37-2.44-1.29-4.93-2.49-7.41-3.72-.26-.12-.42.28-.17.4Z"/><path id="Path_70552" data-name="Path 70552" class="cls-1" d="M107.17,44c1.46.6,2.91,1.22,4.39,1.79a.2.2,0,0,0,.25-.14.2.2,0,0,0-.09-.23c-1.45-.63-2.93-1.22-4.39-1.81a.21.21,0,0,0-.28.11.22.22,0,0,0,.12.28Z"/><path id="Path_70553" data-name="Path 70553" class="cls-1" d="M91.68,32.43c2,1.17,4,2.39,6.13,3.45.25.13.5-.27.25-.42-2-1.28-4.09-2.41-6.15-3.58-.33-.19-.56.36-.23.55Z"/><path id="Path_70554" data-name="Path 70554" class="cls-1" d="M73.41,17.76c.81.59,1.6,1.19,2.43,1.74a.24.24,0,0,0,.29-.37c-.78-.62-1.6-1.19-2.41-1.77-.26-.18-.57.21-.31.4Z"/><path id="Path_70555" data-name="Path 70555" class="cls-1" d="M74.37,15.67a12.5,12.5,0,0,0,4.26,3.52.25.25,0,0,0,.33-.14.26.26,0,0,0-.07-.29,21.2,21.2,0,0,1-4.06-3.45c-.24-.28-.7.06-.46.36Z"/><path id="Path_70556" data-name="Path 70556" class="cls-1" d="M75.72,13.57a87.2,87.2,0,0,0,7.33,6.22c.24.19.5-.17.29-.38A86.88,86.88,0,0,0,76,13.17a.24.24,0,0,0-.35,0,.26.26,0,0,0,0,.36Z"/><path id="Path_70557" data-name="Path 70557" class="cls-1" d="M78.28,12.66a12.9,12.9,0,0,0,1.08,1c.21.18.53-.14.34-.35a9.29,9.29,0,0,0-1-1.05c-.23-.22-.62.16-.39.39Z"/><path id="Path_70558" data-name="Path 70558" class="cls-1" d="M81.37,15.65c1.08.76,2.16,1.55,3.3,2.24.25.16.54-.18.29-.38-1-.81-2.17-1.53-3.28-2.27-.27-.19-.59.22-.31.41Z"/><path id="Path_70559" data-name="Path 70559" class="cls-1" d="M81.51,12.06c1.07.79,2.12,1.61,3.23,2.35a.24.24,0,0,0,.32-.05.23.23,0,0,0,0-.31c-1-.84-2.13-1.59-3.21-2.37C81.56,11.49,81.26,11.87,81.51,12.06Z"/><path id="Path_70560" data-name="Path 70560" class="cls-1" d="M83.88,10.84l.82.57c.24.16.5-.17.27-.34l-.8-.6c-.24-.17-.53.2-.29.37Z"/><path id="Path_70561" data-name="Path 70561" class="cls-1" d="M154.74,32.48c-1.26.08-2.53.18-3.79.37a.27.27,0,0,0-.21.3.27.27,0,0,0,.28.21c1.27,0,2.53-.18,3.8-.34.35,0,.27-.57-.08-.54Z"/><path id="Path_70562" data-name="Path 70562" class="cls-1" d="M155.85,34.5a11.08,11.08,0,0,0-4.51.33c-.26.07-.14.47.11.43a16.92,16.92,0,0,1,4.32-.2c.36,0,.43-.52.08-.56Z"/><path id="Path_70563" data-name="Path 70563" class="cls-1" d="M156.46,36.78A14,14,0,0,0,151,37c-.28.06-.24.5.06.46a20.61,20.61,0,0,1,5.32-.17.26.26,0,0,0,.28-.23.26.26,0,0,0-.22-.28Z"/><path id="Path_70564" data-name="Path 70564" class="cls-1" d="M158.28,38.7l-.37.24c-.24.15,0,.53.25.43l.41-.17C158.94,39,158.65,38.48,158.28,38.7Z"/><path id="Path_70565" data-name="Path 70565" class="cls-1" d="M156.3,39.36c-3.51-.35-7.07-.86-10.6-1a.26.26,0,0,0-.27.23.24.24,0,0,0,.21.26c3.49.55,7.07.72,10.58,1,.36,0,.43-.51.08-.55Z"/><path id="Path_70566" data-name="Path 70566" class="cls-1" d="M158.86,41.41a54.88,54.88,0,0,1-9.91-.84c-.3,0-.35.39-.06.46a39.26,39.26,0,0,0,10,.84C159.22,41.86,159.15,41.4,158.86,41.41Z"/><path id="Path_70567" data-name="Path 70567" class="cls-1" d="M158.69,43.05c-1.21.23-2.43.43-3.61.75-.3.08-.26.53.06.49,1.22-.15,2.42-.43,3.62-.67.36-.07.29-.63-.08-.57Z"/><path id="Path_70568" data-name="Path 70568" class="cls-1" d="M158.9,45.39c-.63.13-1.24.26-1.85.45-.29.08-.15.53.13.49.61-.1,1.2-.23,1.8-.37C159.34,45.88,159.27,45.31,158.9,45.39Z"/><path id="Path_70569" data-name="Path 70569" class="cls-1" d="M160.18,50.81a25.1,25.1,0,0,1-5.18.68c-.28,0-.27.48,0,.51a12.59,12.59,0,0,0,5.34-.62c.31-.1.16-.65-.17-.57Z"/><path id="Path_70570" data-name="Path 70570" class="cls-1" d="M161,53.36c-1.38.26-2.78.49-4.15.85a.22.22,0,0,0,.06.44h0c1.4-.18,2.78-.48,4.17-.75.34-.07.27-.61-.08-.54Z"/><path id="Path_70571" data-name="Path 70571" class="cls-1" d="M161.17,55.78c-.86.28-1.72.55-2.57.87-.24.1-.14.52.13.46.9-.23,1.78-.53,2.66-.81.34-.11.12-.63-.22-.52Z"/><path id="Path_70572" data-name="Path 70572" class="cls-1" d="M160.67,57.54a61.63,61.63,0,0,1-9.7.58c-.29,0-.38.45-.06.48a37.33,37.33,0,0,0,9.84-.47.29.29,0,0,0,.24-.34.31.31,0,0,0-.32-.25Z"/><path id="Path_70573" data-name="Path 70573" class="cls-1" d="M160.51,60.15a75.33,75.33,0,0,1-8.5-.09.24.24,0,0,0-.27.21.24.24,0,0,0,.2.27,26.16,26.16,0,0,0,8.65.2.31.31,0,0,0,.25-.34A.29.29,0,0,0,160.51,60.15Z"/><path id="Path_70574" data-name="Path 70574" class="cls-1" d="M161.34,62.78c-1.46.09-2.92.14-4.38.34-.31,0-.24.48.08.48,1.45,0,2.92-.15,4.38-.26.36,0,.28-.58-.08-.56Z"/><path id="Path_70575" data-name="Path 70575" class="cls-1" d="M161.75,64.47c-.77.2-1.52.39-2.26.66a.26.26,0,0,0,.14.5c.77-.16,1.51-.38,2.26-.6C162.21,64.93,162.07,64.38,161.75,64.47Z"/><path id="Path_70576" data-name="Path 70576" class="cls-1" d="M161.87,66.54l-1.61-.12a.25.25,0,0,0-.27.22.24.24,0,0,0,.2.27l1.6.22C162.16,67.17,162.24,66.58,161.87,66.54Z"/><path id="Path_70577" data-name="Path 70577" class="cls-1" d="M58,35.63a5.23,5.23,0,0,0,3,2.63c.24.08.51-.26.25-.42a8,8,0,0,1-2.78-2.5c-.18-.28-.68,0-.51.29Z"/><path id="Path_70578" data-name="Path 70578" class="cls-1" d="M58.13,32.25a28.82,28.82,0,0,0,12.34,6.6c.26.07.36-.35.13-.43a41,41,0,0,1-12.14-6.58c-.27-.21-.57.19-.33.41Z"/><path id="Path_70579" data-name="Path 70579" class="cls-1" d="M60.05,31.68a25.28,25.28,0,0,0,2.29,1.38c.24.13.46-.26.24-.42a24,24,0,0,0-2.2-1.39c-.29-.18-.63.24-.33.43Z"/><path id="Path_70580" data-name="Path 70580" class="cls-1" d="M64.3,34.13c1.45.61,2.9,1.26,4.38,1.79a.23.23,0,0,0,.3-.13.23.23,0,0,0-.12-.29c-1.43-.66-2.91-1.22-4.38-1.81a.24.24,0,0,0-.31.13.25.25,0,0,0,.13.31Z"/><path id="Path_70581" data-name="Path 70581" class="cls-1" d="M61.43,30.46A13.68,13.68,0,0,0,66.37,33c.25.07.36-.35.12-.44a16.9,16.9,0,0,1-4.74-2.53.25.25,0,1,0-.32.39Z"/><path id="Path_70582" data-name="Path 70582" class="cls-1" d="M62.66,28.91A4.05,4.05,0,0,1,65,30.56a.23.23,0,0,0,.37-.28,3.88,3.88,0,0,0-2.51-1.85c-.31-.08-.52.39-.2.48Z"/><path id="Path_70583" data-name="Path 70583" class="cls-1" d="M82.27,32.81c1.73.78,3.46,1.58,5.22,2.3a.21.21,0,1,0,.17-.39c-1.72-.82-3.46-1.58-5.21-2.34a.24.24,0,0,0-.31.13.24.24,0,0,0,.13.3Z"/><path id="Path_70584" data-name="Path 70584" class="cls-1" d="M82.88,37.07c2.81,1.23,5.59,2.53,8.44,3.67a.22.22,0,0,0,.28-.13.21.21,0,0,0-.11-.27c-2.77-1.32-5.61-2.48-8.42-3.7a.23.23,0,0,0-.3.14A.24.24,0,0,0,82.88,37.07Z"/><path id="Path_70585" data-name="Path 70585" class="cls-1" d="M99.73,36.43a13.77,13.77,0,0,1,4.15,1.27c.25.12.48-.27.24-.42a9.72,9.72,0,0,0-4.31-1.44.3.3,0,0,0-.08.59Z"/><path id="Path_70586" data-name="Path 70586" class="cls-1" d="M98.38,33c.76.46,1.51.93,2.28,1.38.2.12.41-.24.21-.37-.73-.47-1.47-.92-2.2-1.38-.25-.16-.54.21-.29.37Z"/><path id="Path_70587" data-name="Path 70587" class="cls-1" d="M84.09,26.28a7.15,7.15,0,0,0,4.17,2.48.25.25,0,0,0,.13-.47,10.62,10.62,0,0,1-4-2.36c-.21-.19-.53.13-.35.35Z"/><path id="Path_70588" data-name="Path 70588" class="cls-1" d="M106.5,3.61c5.43,1,10.79,2.12,16.19,3.27a.24.24,0,0,0,.12-.45,73.83,73.83,0,0,0-16.26-3.25.22.22,0,0,0,0,.43Z"/><path id="Path_70589" data-name="Path 70589" class="cls-1" d="M126,7.62a28.82,28.82,0,0,0,2.52,1.73c.24.14.44-.25.25-.42a27.64,27.64,0,0,0-2.42-1.76c-.3-.22-.66.22-.35.45Z"/><path id="Path_70590" data-name="Path 70590" class="cls-1" d="M132,10.63A42,42,0,0,1,140.83,16c.27.21.56-.19.32-.42a29.1,29.1,0,0,0-8.92-5.48.26.26,0,0,0-.35.14.26.26,0,0,0,.14.35Z"/><path id="Path_70591" data-name="Path 70591" class="cls-1" d="M98.72,6.74C100.13,7.84,101.51,9,103,10a.26.26,0,1,0,.32-.42h0C102,8.41,100.5,7.36,99.08,6.28a.3.3,0,0,0-.41.06.32.32,0,0,0,0,.4Z"/><path id="Path_70592" data-name="Path 70592" class="cls-1" d="M101.67,5.73c1.08.9,2.14,1.83,3.25,2.68a.23.23,0,0,0,.28-.36c-1-1-2.13-1.83-3.22-2.73-.25-.21-.57.19-.31.41Z"/><path id="Path_70593" data-name="Path 70593" class="cls-1" d="M113.42,12.67a47.33,47.33,0,0,0,11.33,5.22c.28.08.45-.3.17-.41-3.83-1.65-7.59-3.22-11.26-5.23-.24-.13-.48.28-.24.42Z"/><path id="Path_70594" data-name="Path 70594" class="cls-1" d="M106.09,12.89c1.47,1,3,1.89,4.5,2.73.22.13.42-.23.22-.38-1.44-1-3-1.9-4.47-2.78-.25-.14-.5.28-.26.43Z"/><path id="Path_70595" data-name="Path 70595" class="cls-1" d="M101.23,15.36a7.11,7.11,0,0,0,3.18,1.95c.28.08.46-.31.18-.42a8.09,8.09,0,0,1-3-1.89c-.2-.2-.56.15-.36.36Z"/><path id="Path_70596" data-name="Path 70596" class="cls-1" d="M126.28,26.61c1.27.53,2.52,1.07,3.8,1.57a.22.22,0,0,0,.28-.12.21.21,0,0,0-.12-.27h0c-1.24-.56-2.52-1.09-3.78-1.61a.22.22,0,0,0-.3.13.23.23,0,0,0,.11.3Z"/><path id="Path_70597" data-name="Path 70597" class="cls-1" d="M141.71,29.34c.93.21,1.86.42,2.79.57.29.05.42-.41.15-.49-1-.26-1.9-.46-2.86-.67C141.41,28.67,141.35,29.26,141.71,29.34Z"/><path id="Path_70598" data-name="Path 70598" class="cls-1" d="M53.46,48.16a28.15,28.15,0,0,0,9.74,6.07.23.23,0,1,0,.18-.42h0a37.21,37.21,0,0,1-9.64-6c-.22-.19-.49.17-.28.36Z"/><path id="Path_70599" data-name="Path 70599" class="cls-1" d="M52.43,46.21A67.42,67.42,0,0,0,64,52.88c.3.13.46-.3.19-.45-3.85-2.14-7.7-4.2-11.38-6.66-.29-.19-.63.23-.33.44Z"/><path id="Path_70600" data-name="Path 70600" class="cls-1" d="M53.63,44.55c3.6,2.2,7.18,4.5,10.89,6.51.25.14.48-.26.25-.42C61.28,48.3,57.6,46.23,54,44.08c-.32-.2-.69.27-.36.47Z"/><path id="Path_70601" data-name="Path 70601" class="cls-1" d="M54.33,42.22A45.86,45.86,0,0,0,66,49.7a.25.25,0,0,0,.32-.14.26.26,0,0,0-.12-.31,81.64,81.64,0,0,1-11.45-7.53c-.32-.26-.71.24-.4.5Z"/><path id="Path_70602" data-name="Path 70602" class="cls-1" d="M54.11,40.86c3.43,2.08,6.81,4.35,10.37,6.2.26.13.5-.28.27-.45-3.28-2.28-6.84-4.19-10.26-6.25-.34-.2-.72.29-.38.5Z"/><path id="Path_70603" data-name="Path 70603" class="cls-1" d="M55.21,39.81c3.08,1.74,6.11,3.63,9.29,5.18.25.13.51-.28.26-.44-3-1.93-6.21-3.56-9.32-5.3C55.1,39.06,54.87,39.62,55.21,39.81Z"/><path id="Path_70604" data-name="Path 70604" class="cls-1" d="M55.86,37.45c2.88,1.71,5.71,3.61,8.71,5.09a.24.24,0,0,0,.32-.14.25.25,0,0,0-.07-.28c-2.74-1.92-5.77-3.49-8.66-5.19C55.87,36.76,55.56,37.27,55.86,37.45Z"/><path id="Path_70605" data-name="Path 70605" class="cls-1" d="M58.69,36.93a30,30,0,0,0,7,4.07.26.26,0,0,0,.33-.15.25.25,0,0,0-.13-.31,58.57,58.57,0,0,1-6.85-4.11.32.32,0,0,0-.39.5Z"/><path id="Path_70606" data-name="Path 70606" class="cls-1" d="M59.67,35.91A38.53,38.53,0,0,0,66,39.23a.26.26,0,0,0,.32-.17.24.24,0,0,0-.13-.31c-2-1.12-4.13-2.13-6.12-3.34-.35-.21-.74.29-.4.5Z"/><path id="Path_70607" data-name="Path 70607" class="cls-1" d="M59.68,33.88c2.41,1.46,4.8,3,7.31,4.31.26.13.49-.28.26-.44-2.33-1.6-4.86-2.94-7.28-4.36-.28-.17-.57.32-.29.49Z"/><path id="Path_70608" data-name="Path 70608" class="cls-1" d="M60.54,32.48a61.59,61.59,0,0,0,5.64,3.1.28.28,0,0,0,.27-.47,62,62,0,0,0-5.66-3.22c-.36-.2-.6.39-.25.59Z"/><path id="Path_70609" data-name="Path 70609" class="cls-1" d="M60.9,31.32c.31.1.51-.38.2-.48S60.58,31.22,60.9,31.32Z"/><path id="Path_70610" data-name="Path 70610" class="cls-1" d="M55.7,44.52c.27.09.45-.33.18-.42S55.42,44.43,55.7,44.52Z"/><path id="Path_70611" data-name="Path 70611" class="cls-1" d="M145.1,89.4c4.47,1.21,9.08,2,13.63,2.92.27.05.31-.36.05-.43-4.48-1.11-9-2.28-13.6-3C144.82,88.78,144.77,89.31,145.1,89.4Z"/><path id="Path_70612" data-name="Path 70612" class="cls-1" d="M165.13,93c1.26.19,2.53.39,3.8.5a.25.25,0,0,0,.27-.21.22.22,0,0,0-.2-.26c-1.25-.25-2.53-.4-3.8-.56a.27.27,0,0,0-.29.25A.26.26,0,0,0,165.13,93Z"/><path id="Path_70613" data-name="Path 70613" class="cls-1" d="M154.14,101.45a87.83,87.83,0,0,0,23.58,3.22c.24,0,.24-.41,0-.41a108.75,108.75,0,0,1-23.54-3.21c-.25-.06-.29.34-.05.4Z"/><path id="Path_70614" data-name="Path 70614" class="cls-1" d="M169.84,57c8.09,4.19,16.12,8.5,24.22,12.67.22.12.45-.25.22-.39A199.08,199.08,0,0,0,170,56.59C169.74,56.46,169.57,56.89,169.84,57Z"/><path id="Path_70615" data-name="Path 70615" class="cls-1" d="M181,58.55c.24.08.39-.28.15-.35S180.76,58.48,181,58.55Z"/><path id="Path_70616" data-name="Path 70616" class="cls-1" d="M196.22,71.8a52.09,52.09,0,0,1,11.46,9.53c.21.23.6,0,.4-.3a40.94,40.94,0,0,0-11.65-9.58c-.2-.12-.42.23-.21.35Z"/><path id="Path_70617" data-name="Path 70617" class="cls-1" d="M9.08,44.39c9.91,8.15,20.82,16,32.73,20.89a.25.25,0,0,0,.32-.15.24.24,0,0,0-.13-.3A201.53,201.53,0,0,1,9.38,44a.24.24,0,0,0-.3.38Z"/><path id="Path_70618" data-name="Path 70618" class="cls-1" d="M22.65,57.61c1.56,1.06,3.07,2.16,4.7,3.11.21.13.4-.21.21-.35-1.5-1.11-3.11-2-4.69-3-.19-.12-.42.16-.22.29Z"/><path id="Path_70619" data-name="Path 70619" class="cls-1" d="M11.92,19.47c-3.27.59-14.9,5-11.2,10.2.17.25.54,0,.38-.3C-2,24.53,9.13,20.6,12,19.93c.29-.07.24-.51-.06-.46Z"/><path id="Path_70620" data-name="Path 70620" class="cls-1" d="M1.57,32.12a4,4,0,0,0,1.68,3.32c.2.15.52-.12.32-.32A4.75,4.75,0,0,1,2.1,32c0-.35-.55-.27-.54.08Z"/><path id="Path_70621" data-name="Path 70621" class="cls-1" d="M19.3,18.78c7,.41,14,.85,21,.82.27,0,.26-.45,0-.47-6.94-.57-14-.67-21-.81-.3,0-.37.45-.06.46Z"/><path id="Path_70622" data-name="Path 70622" class="cls-1" d="M30.63,16.44c.73.13,1.45.25,2.2.32a.24.24,0,0,0,.27-.2.24.24,0,0,0-.21-.27h0c-.73-.18-1.45-.3-2.19-.41a.28.28,0,0,0-.3.26A.29.29,0,0,0,30.63,16.44Z"/><path id="Path_70623" data-name="Path 70623" class="cls-1" d="M38.83,17.73c3.73.36,7.46.78,11.2,1.1a.28.28,0,0,0,.07-.55c-3.73-.41-7.47-.72-11.2-1.07-.34,0-.41.48-.07.51Z"/><path id="Path_70624" data-name="Path 70624" class="cls-1" d="M52.44,20.61c2.65.33,5.33.85,8,.94a.25.25,0,0,0,.29-.23A.27.27,0,0,0,60.5,21c-2.62-.49-5.36-.55-8-.81-.25,0-.31.36-.06.39Z"/><path id="Path_70625" data-name="Path 70625" class="cls-1" d="M17.38,47.92c26.8,18.54,58,32.85,89.67,40.38a.34.34,0,0,0,.18-.65C75.45,76.93,46.69,64.36,17.66,47.44c-.27-.15-.54.3-.28.48Z"/><path id="Path_70626" data-name="Path 70626" class="cls-1" d="M99.59,86.5c27.55,9.21,56.46,15.9,85.59,16.66.5,0,.63-.73.1-.8-29.15-3.63-57.19-8-85.39-16.56-.47-.14-.77.55-.3.7Z"/></svg>