<svg id="Layer_1" data-name="Layer 1" xmlns="http://www.w3.org/2000/svg" viewBox="0 0 37.6 38.08"><defs><style>.cls-1{fill:#0168ff;fill-rule:evenodd;}</style></defs><path id="Path_72662" data-name="Path 72662" class="cls-1" d="M22.6,1.44c12.15,5.48,19.32,21.49,7.13,31.43S4.93,31.62,1.58,19.7c-.11-.39-.8-.3-.79.1,0,14.67,18.39,23.91,30,14.41C43.05,24.13,37.77,4.6,23,.52c-.6-.16-1,.65-.39.92Z"/><path id="Path_72663" data-name="Path 72663" class="cls-1" d="M24.64,1.53C11.56-5.08-4.9,11.09,1.38,24.33a.45.45,0,0,0,.85-.24c-.76-6-.82-10.86,3.26-15.85,4.92-6,11.42-8.16,18.85-6A.38.38,0,0,0,24.82,2a.36.36,0,0,0-.19-.46Z"/><path id="Path_72664" data-name="Path 72664" class="cls-1" d="M3.73,9.63C2.38,11,4.6,14.76,5.67,15.8c2.22,2.18,5.77,2.57,8.68,1.95a.23.23,0,0,0,.18-.26.24.24,0,0,0-.24-.18c-2.2.09-4.48.21-6.51-.82a6.18,6.18,0,0,1-2.82-3c-.28-.57-1.29-2.88-.88-3.6.13-.23-.2-.37-.35-.22Z"/><path id="Path_72665" data-name="Path 72665" class="cls-1" d="M17.12,19.2c7.08.89,8.5,13.45,16.42,11.5a.27.27,0,0,0,.21-.32.26.26,0,0,0-.29-.21c-8.22.51-8.63-10.6-16.28-11.48-.32,0-.39.48-.06.51Z"/><path id="Path_72666" data-name="Path 72666" class="cls-1" d="M2.82,13.38c1.05,4.63,3.53,7.14,7.83,9,3,1.29,6,2.21,8.7,4.26,1.07.79,1.88,1.71,3,2.46a17,17,0,0,0,9.46,2.73c.3,0,.38-.43.08-.47-7-.77-9.55-4.35-14.91-7.68C11.44,20.21,5.25,21.53,3.22,13.33c-.06-.26-.46-.21-.4.05Z"/><path id="Path_72667" data-name="Path 72667" class="cls-1" d="M35.32,24.8c-5.54.85-8.33-4.41-12.82-6.37-.23-.11-.45.24-.23.38,3.85,2.64,7.88,7.9,13.12,6.5C35.7,25.23,35.66,24.75,35.32,24.8Z"/><path id="Path_72668" data-name="Path 72668" class="cls-1" d="M34.53,27.83a12.64,12.64,0,0,1-6.2-2.22.23.23,0,0,0-.31,0,.23.23,0,0,0,0,.32,8.88,8.88,0,0,0,6.47,2.37c.3,0,.29-.48,0-.51Z"/><path id="Path_72669" data-name="Path 72669" class="cls-1" d="M19,16.15C13.46,15.21,8.54,14,5.52,9c-.14-.24-.49,0-.4.24,2,5.49,8.71,6.73,13.79,7.43a.24.24,0,1,0,.06-.48Z"/><path id="Path_72670" data-name="Path 72670" class="cls-1" d="M1.63,18a34.46,34.46,0,0,0,1.19,3.69c.09.22.46.13.41-.11-.33-1.28-.72-2.53-1.17-3.76C2,17.53,1.54,17.72,1.63,18Z"/><path id="Path_72671" data-name="Path 72671" class="cls-1" d="M4,24.1c4.41,7.67,13.35,13.07,22.38,11.62a.28.28,0,0,0,.24-.31.28.28,0,0,0-.3-.24c-9.16.11-17.06-3.26-21.9-11.32-.15-.24-.57,0-.42.25Z"/><path id="Path_72672" data-name="Path 72672" class="cls-1" d="M9.38,32.17C12.7,34.7,16.86,36.78,21.1,37a.28.28,0,0,0,.3-.25.28.28,0,0,0-.23-.3c-4.24-1-7.89-2.06-11.54-4.57C9.41,31.7,9.16,32,9.38,32.17Z"/><path id="Path_72673" data-name="Path 72673" class="cls-1" d="M7.81,30.31A19,19,0,0,1,4.34,26.2c-.12-.18-.45,0-.35.21a12.85,12.85,0,0,0,3.58,4.21c.19.15.42-.15.24-.3Z"/><path id="Path_72674" data-name="Path 72674" class="cls-1" d="M9.28,28c2.9,3.12,7,5.55,11.33,5.8a.27.27,0,0,0,.3-.23.26.26,0,0,0-.23-.3h0A24.78,24.78,0,0,1,9.61,27.65c-.19-.17-.51.13-.33.32Z"/><path id="Path_72675" data-name="Path 72675" class="cls-1" d="M35.3,12.18C30.39,5.28,22,.64,13.45,1.13a.24.24,0,0,0-.2.28.26.26,0,0,0,.2.2C22.23,2.3,29.36,5.42,35,12.45a.23.23,0,0,0,.31,0A.22.22,0,0,0,35.3,12.18Z"/><path id="Path_72676" data-name="Path 72676" class="cls-1" d="M30.93,9.58A10.33,10.33,0,0,0,27.43,7c-.25-.1-.49.26-.25.43A27,27,0,0,1,30.51,10c.24.23.65-.17.42-.41Z"/><path id="Path_72677" data-name="Path 72677" class="cls-1" d="M25,5.86c-4.14-2.21-9.19-3.54-13.88-2.69-.23,0-.27.45,0,.45,4.93.07,9.17.51,13.69,2.66.28.14.44-.28.19-.42Z"/><path id="Path_72678" data-name="Path 72678" class="cls-1" d="M23.35,8.22a31.81,31.81,0,0,0-3.11-1.36A.22.22,0,0,0,20,7a.22.22,0,0,0,.11.29A31.83,31.83,0,0,0,23.14,8.7a.26.26,0,0,0,.34-.16.27.27,0,0,0-.13-.32Z"/><path id="Path_72679" data-name="Path 72679" class="cls-1" d="M18,6.28A17.67,17.67,0,0,0,9.79,5.17c-.24,0-.26.45,0,.45a26.25,26.25,0,0,1,8,1.15c.33.11.55-.37.21-.49Z"/><path id="Path_72680" data-name="Path 72680" class="cls-1" d="M16.78,9A42.18,42.18,0,0,1,8.94,6.56a.29.29,0,0,0-.37.16.28.28,0,0,0,.15.35,28,28,0,0,0,8,2.36A.2.2,0,0,0,17,9.25.21.21,0,0,0,16.78,9Z"/><path id="Path_72681" data-name="Path 72681" class="cls-1" d="M12.74,10.3c-.59-.25-1.14-.51-1.75-.72a.24.24,0,0,0-.19.45c.58.29,1.15.49,1.74.72a.24.24,0,0,0,.32-.14.26.26,0,0,0-.12-.31Z"/><path id="Path_72682" data-name="Path 72682" class="cls-1" d="M32.47,12.29c2,1.51,2.8,3.45,3.64,5.69.11.29.54.15.52-.14A8.51,8.51,0,0,0,32.73,12a.21.21,0,0,0-.29.08.23.23,0,0,0,0,.25Z"/><path id="Path_72683" data-name="Path 72683" class="cls-1" d="M28,12.1c3.1,2.35,5.71,5.22,8.74,7.62a.3.3,0,0,0,.4-.06.29.29,0,0,0,0-.33c-2.4-2.95-5.84-5.31-8.88-7.56-.22-.16-.47.17-.26.33Z"/><path id="Path_72684" data-name="Path 72684" class="cls-1" d="M33.44,18.92a6.76,6.76,0,0,0,3.76,2.31.27.27,0,0,0,.28-.25.26.26,0,0,0-.15-.25,12.54,12.54,0,0,1-3.48-2.21C33.61,18.28,33.21,18.68,33.44,18.92Z"/><path id="Path_72685" data-name="Path 72685" class="cls-1" d="M24.7,16.47c2.61,3.53,6.9,6.41,11.39,6.63a.26.26,0,0,0,.28-.23.25.25,0,0,0-.21-.28c-4.47-1.23-8-2.85-11.08-6.41a.24.24,0,0,0-.34,0A.23.23,0,0,0,24.7,16.47Z"/><path id="Path_72686" data-name="Path 72686" class="cls-1" d="M31.94,23.87a25.65,25.65,0,0,0,3,.59c.27,0,.42-.4.13-.48A26.06,26.06,0,0,0,32,23.3c-.36-.06-.42.49-.07.57Z"/><path id="Path_72687" data-name="Path 72687" class="cls-1" d="M30.13,32.38A21.42,21.42,0,0,1,23.43,31c-.21-.07-.43.23-.21.37a12.35,12.35,0,0,0,6.92,1.69c.37,0,.38-.66,0-.67Z"/><path id="Path_72688" data-name="Path 72688" class="cls-1" d="M15.17,27a7.9,7.9,0,0,0-1.37-1.14c-.23-.14-.59.13-.37.37a7.67,7.67,0,0,0,1.41,1.19.27.27,0,0,0,.38-.05.26.26,0,0,0-.05-.37Z"/><path id="Path_72689" data-name="Path 72689" class="cls-1" d="M11.08,24.51c-1.46-1.39-3.26-2.29-4.81-3.57-2.1-1.73-2.87-3.78-3.55-6.31a.27.27,0,0,0-.53.07c.26,5.31,5.31,7,8.65,10.11.18.18.42-.13.24-.3Z"/><path id="Path_72690" data-name="Path 72690" class="cls-1" d="M24.2,26.85c-2.14-2-3.57-5-6.31-6.41C14.05,18.52,9.5,20.55,6.24,17a.32.32,0,0,0-.51.39c1.7,2.35,4.28,2.64,7,2.85s5.26.8,7.28,2.87c1.36,1.37,2.45,2.8,3.92,4,.21.18.45-.14.26-.33Z"/><path id="Path_72691" data-name="Path 72691" class="cls-1" d="M26.14,28.71A36.18,36.18,0,0,0,9.92,19.64c-.33-.07-.46.45-.16.57a68.85,68.85,0,0,1,16.09,8.88c.25.19.51-.17.29-.37Z"/><path id="Path_72692" data-name="Path 72692" class="cls-1" d="M22.89,33.61a10.47,10.47,0,0,0,5.56.72.29.29,0,0,0,.24-.33.31.31,0,0,0-.24-.24c-1.82-.24-3.61-.36-5.42-.7a.29.29,0,0,0-.15.55Z"/><path id="Path_72693" data-name="Path 72693" class="cls-1" d="M16,29.59a10.37,10.37,0,0,0,5.15,1.85c.28,0,.46-.42.14-.51a23.19,23.19,0,0,1-5-1.76C16,29,15.79,29.43,16,29.59Z"/><path id="Path_72694" data-name="Path 72694" class="cls-1" d="M11.61,27.67c.42.34.82.67,1.26,1,.23.17.47-.16.27-.35-.39-.37-.8-.7-1.22-1-.25-.21-.55.18-.31.4Z"/><path id="Path_72695" data-name="Path 72695" class="cls-1" d="M5,22.49a13.92,13.92,0,0,0,4.17,4.13c.25.15.42-.23.24-.42a48.57,48.57,0,0,1-3.94-4.05.29.29,0,0,0-.41-.06.28.28,0,0,0,0,.4Z"/></svg>