<svg id="Layer_1" data-name="Layer 1" xmlns="http://www.w3.org/2000/svg" viewBox="0 0 66.2 73.41"><defs><style>.cls-1{fill:#0168ff;fill-rule:evenodd;}</style></defs><path id="Path_70983" data-name="Path 70983" class="cls-1" d="M5.46,41.39C5,23.62,17.34,7.2,36.75,9.66c15.8,2,23.63,14.25,26,28.86.08.46.85.51.87,0C64.2,21.52,49,7.27,32.16,7.84,14.92,8.43,1.34,24.37,4.53,41.51a.47.47,0,0,0,.57.35.46.46,0,0,0,.36-.47Z"/><path id="Path_70984" data-name="Path 70984" class="cls-1" d="M4.18,40.28C6.12,57,19.72,70.19,37.1,68.75S65.63,51.69,63.35,34.91a.4.4,0,0,0-.48-.33.41.41,0,0,0-.34.44c1.67,16.29-9,30.67-25.64,32.21C20.37,68.76,7.68,55.59,5.06,40.15a.44.44,0,0,0-.51-.36.44.44,0,0,0-.37.49Z"/><path id="Path_70985" data-name="Path 70985" class="cls-1" d="M33.54,68c5.43-1.25,9-6.36,11-11.3,2.7-6.62.66-13.26-1.9-19.58-.12-.3-.56-.11-.46.19,1.64,4.71,3.77,9.77,3,14.87-1,6.13-5.32,13.58-11.72,15.28-.32.09-.27.61.08.54Z"/><path id="Path_70986" data-name="Path 70986" class="cls-1" d="M41.63,34.34c-4.65-5.12-1.87-12.05-4.15-18A12.35,12.35,0,0,0,28.59,8.5c-.43-.11-.53.59-.09.69C36.17,11,37.9,18,38.14,24.85c.14,3.71.45,7.1,3.15,9.83C41.48,34.87,41.82,34.54,41.63,34.34Z"/><path id="Path_70987" data-name="Path 70987" class="cls-1" d="M39.71,66.79c4.87-3.7,8.26-8.66,8.81-14.86a.2.2,0,0,0-.17-.23.19.19,0,0,0-.22.17c-.8,6.14-3.88,10.79-8.72,14.54a.24.24,0,1,0,.3.38Z"/><path id="Path_70988" data-name="Path 70988" class="cls-1" d="M48.63,49.72c.88-3.41-.08-5.72-1-9-1.23-4.31.48-8.84-1.1-12.93-.58-1.5-1.68-2.44-2.67-3.68a22.25,22.25,0,0,1-4.48-8.62c-.91-3-1.75-5.1-4.42-6.82-.26-.17-.57.22-.3.4,4.32,2.9,3.7,6.94,5.47,11,1.51,3.43,4.25,5.22,5.36,8.92,1,3.31.28,6,.86,9.25.72,4,2.94,7.08,1.87,11.45-.06.26.35.31.42,0Z"/><path id="Path_70989" data-name="Path 70989" class="cls-1" d="M32.94,9.52c5.65,3.78,5.73,10.1,6.35,16.18.44,4.22,2.15,7.08,4.63,10.46.14.19.48,0,.36-.21-1.36-2.45-3.14-4.54-3.85-7.31-.76-2.94-.59-6-1-9-.63-4.23-2.47-8.18-6.17-10.51-.24-.15-.53.19-.28.36Z"/><path id="Path_70990" data-name="Path 70990" class="cls-1" d="M44.63,39.05a57.33,57.33,0,0,1,2.19,12.12c0,.26.4.2.4-.05a44,44,0,0,0-2.13-12.26C45,38.55,44.54,38.75,44.63,39.05Z"/><path id="Path_70991" data-name="Path 70991" class="cls-1" d="M39,19.24c.39,2.26,1.88,3.86,3.25,5.63,2.56,3.32,2.76,6.65,2.26,10.66a.19.19,0,0,0,.18.21.2.2,0,0,0,.21-.15c.58-2.88.67-6.05-.68-8.74s-4-4.6-4.88-7.7c-.06-.2-.38-.11-.34.09Z"/><path id="Path_70992" data-name="Path 70992" class="cls-1" d="M40.63,24.37c1.28,2.8,3.87,5,3,8.33,0,.23.31.31.39.11,1.46-3.14-1.66-6.07-3-8.61-.13-.25-.53-.1-.41.17Z"/><path id="Path_70993" data-name="Path 70993" class="cls-1" d="M40.49,26.83a13.31,13.31,0,0,0,2.62,5.08c.2.24.58-.05.39-.29a13.64,13.64,0,0,1-2.59-5c-.08-.29-.5-.11-.42.17Z"/><path id="Path_70994" data-name="Path 70994" class="cls-1" d="M40.79,64.36a18.76,18.76,0,0,0,6.12-11.11c.06-.36-.49-.43-.56-.08a18.76,18.76,0,0,1-5.78,10.9c-.17.16,0,.45.22.29Z"/><path id="Path_70995" data-name="Path 70995" class="cls-1" d="M44.79,63.18A20.65,20.65,0,0,0,49.9,43.39c-.09-.37-.68-.3-.59.08a20.87,20.87,0,0,1-4.84,19.46c-.18.2.15.44.33.25Z"/><path id="Path_70996" data-name="Path 70996" class="cls-1" d="M48.86,40.46c-1.36-4.5,1.53-9.19,0-13.85C47.4,22.42,43,20.53,41.33,16.48a.25.25,0,0,0-.46.19c1.48,4.54,6.53,6.39,7.63,11.19,1,4.31-1.59,8.71-.13,12.8.11.33.58.12.49-.2Z"/><path id="Path_70997" data-name="Path 70997" class="cls-1" d="M41.07,15.74c-.16-.45-.33-.9-.5-1.34-.09-.25-.46-.09-.37.15.15.45.31.91.47,1.35.1.26.49.09.4-.16Z"/><path id="Path_70998" data-name="Path 70998" class="cls-1" d="M39.86,12.09a5,5,0,0,0-2-2.83c-.22-.14-.53.12-.35.34a12.71,12.71,0,0,1,1.86,2.68.24.24,0,0,0,.33.12A.25.25,0,0,0,39.86,12.09Z"/><path id="Path_70999" data-name="Path 70999" class="cls-1" d="M12.18,19.75c-.21-.3,2.53-.32,2.48-.33a6.23,6.23,0,0,1,1.7.42,6.49,6.49,0,0,1,2.82,2.44.22.22,0,0,0,.29.06.21.21,0,0,0,.08-.28,5.9,5.9,0,0,0-4-3.14c-1-.24-3.51-.52-3.95.76a.32.32,0,0,0,.09.36c.37.32.69,0,.52-.29Z"/><path id="Path_71000" data-name="Path 71000" class="cls-1" d="M19.37,22.56a9.44,9.44,0,0,1,1.73,2.76.19.19,0,0,0,.26.09.2.2,0,0,0,.1-.24,7.72,7.72,0,0,0-1.78-2.84c-.18-.18-.48.05-.31.23Z"/><path id="Path_71001" data-name="Path 71001" class="cls-1" d="M22,27.65c1,6.7-.47,32.33-13.62,23.08-.43-.3-.91.32-.5.63,4.34,3.24,9.18,1.78,11.85-2.72,3.63-6.12,3.86-14.25,2.71-21a.22.22,0,1,0-.44.06Z"/><path id="Path_71002" data-name="Path 71002" class="cls-1" d="M10.85,55.08c3.46.49,5.27-.21,7.55-2.86a22.36,22.36,0,0,0,5-9.25c.07-.28-.4-.41-.48-.14a22.13,22.13,0,0,1-3.53,7.09C17.12,53,15,55,10.91,54.61a.24.24,0,0,0-.25.22.22.22,0,0,0,.19.24Z"/><path id="Path_71003" data-name="Path 71003" class="cls-1" d="M23.73,41.21a33.71,33.71,0,0,0,.62-5.39.2.2,0,0,0-.19-.24.21.21,0,0,0-.24.18,33.57,33.57,0,0,0-.7,5.38.26.26,0,0,0,.51.07Z"/><path id="Path_71004" data-name="Path 71004" class="cls-1" d="M24.31,33.71c.18-4,.18-9.13-1.79-12.81C20.67,17.47,16.61,17,13.1,17c-.4,0-.5.62-.09.64,4.09.22,8,.76,9.54,5.14a31.87,31.87,0,0,1,1.31,10.9c0,.28.42.35.44.06Z"/><path id="Path_71005" data-name="Path 71005" class="cls-1" d="M18.89,19.85a12.07,12.07,0,0,1,3.4,5.2c.12.31.63.18.55-.15a9.67,9.67,0,0,0-3.65-5.43.24.24,0,0,0-.3.38Z"/><path id="Path_71006" data-name="Path 71006" class="cls-1" d="M7.77,49.49a4.1,4.1,0,0,0,4.44,1.58c.22-.06.11-.4-.11-.38A4,4,0,0,1,8.16,49.2a.24.24,0,0,0-.39.29Z"/><path id="Path_71007" data-name="Path 71007" class="cls-1" d="M14,51c6.72-4.11,10.76-21.07,3.34-26.31-3.42-2.42-6.18-.63-8,2.49A20.11,20.11,0,0,0,6.89,42.36c.66,3,1.47,7.32,5.47,6.7,4.4-.67,6.07-7.35,6.48-10.88C19.22,35,19.32,29,16.13,27c-3-1.92-5,1.05-6.08,3.55a.24.24,0,0,0,.13.31.25.25,0,0,0,.32-.12c.84-2.73,3.2-2.92,7.05-.59a17.37,17.37,0,0,1,.79,4.11c.19,2.65,0,6.76-1.47,9.07-1,3.27-3.84,4.06-8.46,2.37a34.37,34.37,0,0,1-1.13-4.12,20.75,20.75,0,0,1-.3-7c.33-2.28,1.5-6.69,3.45-8.13,8.23-6.1,9.69,3.87,9.81,7.64C20.43,40,19,47.22,13.73,50.65c-.25.16,0,.5.27.35Z"/><path id="Path_71008" data-name="Path 71008" class="cls-1" d="M6.48,39.38a9.09,9.09,0,0,0,2.39,5.85C10.05,46.51,12.2,48,14,47.78a.4.4,0,0,0,.35-.47.39.39,0,0,0-.15-.26c-1.43-.92-3-1.28-4.38-2.43a7.59,7.59,0,0,1-2.94-5.3c0-.29-.44-.22-.43.06Z"/><path id="Path_71009" data-name="Path 71009" class="cls-1" d="M8.1,44.58a2.46,2.46,0,0,0,2,2.68.36.36,0,0,0,.26-.63,3.76,3.76,0,0,1-1.7-2.13.29.29,0,0,0-.38-.15.29.29,0,0,0-.17.23Z"/><path id="Path_71010" data-name="Path 71010" class="cls-1" d="M7.59,44.08a7.1,7.1,0,0,0,3.5,2.65c.29.09.58-.28.29-.5A28.83,28.83,0,0,1,8,43.66c-.24-.23-.62.16-.42.42Z"/><path id="Path_71011" data-name="Path 71011" class="cls-1" d="M8.77,45.44a6.09,6.09,0,0,0,2.42,1.74c.28.1.54-.28.28-.47A15.55,15.55,0,0,1,9.24,45C9,44.71,8.52,45.16,8.77,45.44Z"/><path id="Path_71012" data-name="Path 71012" class="cls-1" d="M12.07,44.68c4.39,1.06,5.74-5.74,5.59-8.71-.12-2.35-1.8-7.91-5.23-5.28a.32.32,0,0,0,0,.45.31.31,0,0,0,.36.1c3.83-1.82,4,4.61,3.81,6.6-.21,2.68-1.25,6.13-4.49,6.34-.31,0-.26.44,0,.51Z"/><path id="Path_71013" data-name="Path 71013" class="cls-1" d="M8.67,33.7C7.92,36.8,7.55,41.79,10.45,44a.24.24,0,0,0,.34,0,.23.23,0,0,0,0-.29c-2.32-3-2.4-6.28-1.74-9.89,0-.24-.32-.28-.38,0Z"/><path id="Path_71014" data-name="Path 71014" class="cls-1" d="M10,39.76c0,1.43.61,3.47,2.47,3.22s2.82-3,3.16-4.48c.44-1.83.6-4.9-1.08-6.21s-3,.44-3.48,1.89a.25.25,0,0,0,.46.19c.35-1.15,1.33-1.58,3-1.27a4.24,4.24,0,0,1,.71,2.06A8.68,8.68,0,0,1,15,38.37a7,7,0,0,1-1.27,3c-.59,1-1.6,1-3-.1a5.19,5.19,0,0,1-.24-1.46c0-.27-.48-.28-.48,0Z"/><path id="Path_71015" data-name="Path 71015" class="cls-1" d="M10.73,37.08c0-.22.11-.43.17-.65s-.35-.36-.43-.12-.17.42-.24.63a.26.26,0,0,0,.15.33.27.27,0,0,0,.34-.15.08.08,0,0,0,0,0Z"/><path id="Path_71016" data-name="Path 71016" class="cls-1" d="M13,40a6.31,6.31,0,0,0,.89-4.51.23.23,0,0,0-.46.07,7.46,7.46,0,0,1-.81,4.22c-.11.22.25.44.38.22Z"/><path id="Path_71017" data-name="Path 71017" class="cls-1" d="M13.9,57.46c6.24-2,9.88-8.59,11.28-14.6.05-.22-.33-.33-.39-.11C23,48.94,19.72,54.22,13.68,56.93a.3.3,0,0,0-.13.39.29.29,0,0,0,.35.14Z"/><path id="Path_71018" data-name="Path 71018" class="cls-1" d="M25.4,41.52a16.9,16.9,0,0,0,.35-4.65c0-.25-.39-.19-.39.06A20.85,20.85,0,0,1,25,41.46c-.05.27.36.32.42.06Z"/><path id="Path_71019" data-name="Path 71019" class="cls-1" d="M18.83,57.11a13.15,13.15,0,0,0,1-1.09c.16-.18-.12-.47-.3-.3-.55.5-.59.55-1.11,1.09C18.22,57,18.61,57.33,18.83,57.11Z"/><path id="Path_71020" data-name="Path 71020" class="cls-1" d="M18.36,16.48c4.17.8,5.2,4.46,6.31,8,.1.29.51.14.49-.13-.27-3.8-2.76-7.7-6.75-8.22a.2.2,0,1,0-.05.39Z"/><path id="Path_71021" data-name="Path 71021" class="cls-1" d="M19.66,14.72a4.15,4.15,0,0,0,1.34.4c.26.06.36-.34.12-.45a4.25,4.25,0,0,0-1.33-.44c-.29-.07-.4.38-.13.49Z"/><path id="Path_71022" data-name="Path 71022" class="cls-1" d="M21.63,15.74A10.42,10.42,0,0,1,26.07,23a.23.23,0,0,0,.27.18.22.22,0,0,0,.19-.24,9,9,0,0,0-4.7-7.54c-.2-.11-.4.23-.21.37Z"/><path id="Path_71023" data-name="Path 71023" class="cls-1" d="M21.42,14.32a11.78,11.78,0,0,1,4.68,4,.22.22,0,0,0,.32,0,.21.21,0,0,0,.06-.25,8.4,8.4,0,0,0-4.85-4.3.27.27,0,0,0-.35.14.26.26,0,0,0,.14.35Z"/><path id="Path_71024" data-name="Path 71024" class="cls-1" d="M24.36,14.12l.43.09c.25.06.35-.33.12-.42l-.4-.18a.27.27,0,0,0-.15.51Z"/><path id="Path_71025" data-name="Path 71025" class="cls-1" d="M25.62,14.85a17.5,17.5,0,0,1,4.18,9,.22.22,0,0,0,.27.19.23.23,0,0,0,.19-.25,14,14,0,0,0-4.32-9.3c-.18-.18-.5.12-.32.31Z"/><path id="Path_71026" data-name="Path 71026" class="cls-1" d="M25.6,12.81a14.43,14.43,0,0,1,4.64,7.06.23.23,0,0,0,.43-.12,11.83,11.83,0,0,0-4.81-7.29.21.21,0,0,0-.3,0A.22.22,0,0,0,25.6,12.81Z"/><path id="Path_71027" data-name="Path 71027" class="cls-1" d="M27.61,12.23a22.76,22.76,0,0,1,3.09,4.09c.13.21.48,0,.37-.21a15.52,15.52,0,0,0-3.16-4.17c-.18-.17-.47.12-.3.29Z"/><path id="Path_71028" data-name="Path 71028" class="cls-1" d="M28.92,11.12a10.86,10.86,0,0,1,4.31,6.8.22.22,0,0,0,.24.18.23.23,0,0,0,.18-.24,9.92,9.92,0,0,0-4.45-7.1c-.24-.16-.52.19-.28.36Z"/><path id="Path_71029" data-name="Path 71029" class="cls-1" d="M31.66,11.87c4.78,3.76,3.2,10.35,5.18,15.44.1.26.48.09.4-.17-1.61-5.2-.53-11.94-5.29-15.65a.25.25,0,0,0-.34.06A.24.24,0,0,0,31.66,11.87Z"/><path id="Path_71030" data-name="Path 71030" class="cls-1" d="M23.16,66.28c8.18-5.85,11.91-15.8,10.74-25.87,0-.28-.45-.22-.44.06A38.85,38.85,0,0,1,31.38,55.4c-1.61,4.79-4.65,7.47-8.55,10.46a.26.26,0,0,0,0,.37.27.27,0,0,0,.38,0Z"/><path id="Path_71031" data-name="Path 71031" class="cls-1" d="M25,66.35a22.74,22.74,0,0,0,7.6-8.66c.11-.22-.24-.44-.37-.22A29.14,29.14,0,0,1,24.67,66c-.26.18,0,.56.29.38Z"/><path id="Path_71032" data-name="Path 71032" class="cls-1" d="M33.2,56a21.39,21.39,0,0,0,2.08-8.27.2.2,0,0,0-.4,0,28.62,28.62,0,0,1-2.09,8.14.23.23,0,0,0,.14.29A.22.22,0,0,0,33.2,56Z"/><path id="Path_71033" data-name="Path 71033" class="cls-1" d="M26.82,66.81A22.87,22.87,0,0,0,36,52.62c0-.24-.36-.36-.42-.12a25.91,25.91,0,0,1-9.07,14,.23.23,0,0,0,.28.37Z"/><path id="Path_71034" data-name="Path 71034" class="cls-1" d="M28.89,67.22a3.13,3.13,0,0,0,1.33-1.11.22.22,0,0,0-.06-.32.23.23,0,0,0-.31,0,3.76,3.76,0,0,1-1.21,1c-.25.15,0,.57.26.44Z"/><path id="Path_71035" data-name="Path 71035" class="cls-1" d="M31.27,64.78c.64-.73,1.28-1.46,1.89-2.21.17-.2-.16-.45-.32-.24-.63.72-1.25,1.47-1.87,2.21C30.81,64.73,31.11,65,31.27,64.78Z"/><path id="Path_71036" data-name="Path 71036" class="cls-1" d="M34.06,61.42a39.16,39.16,0,0,0,3.34-8.35A.2.2,0,0,0,37,53a57.24,57.24,0,0,1-3.32,8.3c-.12.23.24.38.36.15Z"/><path id="Path_71037" data-name="Path 71037" class="cls-1" d="M31.36,67a23.17,23.17,0,0,0,6.45-11c0-.22-.31-.32-.38-.11A26.06,26.06,0,0,1,31,66.7c-.19.18.13.51.32.32Z"/><path id="Path_71038" data-name="Path 71038" class="cls-1" d="M27,61.12a24.24,24.24,0,0,0,4.41-10.66c0-.26-.33-.3-.39-.06a27.36,27.36,0,0,1-4.39,10.43c-.17.25.2.53.37.29Z"/><path id="Path_71039" data-name="Path 71039" class="cls-1" d="M17.18,60.18c.58-.53,1.14-1.07,1.69-1.63.16-.17-.11-.44-.29-.29-.59.49-1.14,1-1.7,1.53-.23.22.06.61.3.39Z"/><path id="Path_71040" data-name="Path 71040" class="cls-1" d="M16.42,58.75a8.26,8.26,0,0,0,.88-.68.24.24,0,0,0,0-.33.25.25,0,0,0-.32,0,6.48,6.48,0,0,0-.93.61c-.29.21,0,.64.33.44Z"/><path id="Path_71041" data-name="Path 71041" class="cls-1" d="M18.09,60.93c.21-.16.42-.33.62-.51a.22.22,0,0,0-.27-.35c-.23.15-.44.31-.65.47a.25.25,0,0,0,0,.35A.25.25,0,0,0,18.09,60.93Z"/><path id="Path_71042" data-name="Path 71042" class="cls-1" d="M19.67,59.55a7.77,7.77,0,0,0,2.19-2.48c.11-.2-.21-.38-.34-.2a10.17,10.17,0,0,1-2.12,2.32.23.23,0,0,0,0,.32.22.22,0,0,0,.31,0Z"/><path id="Path_71043" data-name="Path 71043" class="cls-1" d="M19.44,61.83a6.52,6.52,0,0,0,2.12-2.28c.13-.22-.22-.41-.37-.22a10.84,10.84,0,0,1-2.05,2.12C18.9,61.64,19.19,62,19.44,61.83Z"/><path id="Path_71044" data-name="Path 71044" class="cls-1" d="M20.76,62.88a22.38,22.38,0,0,0,1.55-1.83c.18-.24-.15-.48-.36-.28a20.89,20.89,0,0,0-1.58,1.81C20.16,62.83,20.55,63.12,20.76,62.88Z"/><path id="Path_71045" data-name="Path 71045" class="cls-1" d="M21.87,63.79l.53-.33c.22-.13,0-.5-.23-.39l-.56.28a.25.25,0,1,0,.22.46Z"/><path id="Path_71046" data-name="Path 71046" class="cls-1" d="M23.14,62.7c1.08-1.37,2.17-2.73,3.17-4.16a.21.21,0,0,0,0-.3.22.22,0,0,0-.3,0c-1.12,1.33-2.15,2.74-3.19,4.13a.24.24,0,0,0,.05.33.25.25,0,0,0,.32,0Z"/><path id="Path_71047" data-name="Path 71047" class="cls-1" d="M23.58,64.24c.48-.56,1-1.1,1.43-1.67.18-.23-.16-.49-.36-.28-.5.54-1,1.09-1.45,1.65C23,64.18,23.37,64.47,23.58,64.24Z"/><path id="Path_71048" data-name="Path 71048" class="cls-1" d="M41.76,13.86A12.64,12.64,0,0,0,44.58,20a.21.21,0,0,0,.3,0,.21.21,0,0,0,0-.25A16,16,0,0,1,42.2,13.8c-.06-.28-.49-.23-.44.06Z"/><path id="Path_71049" data-name="Path 71049" class="cls-1" d="M53.72,60.66a45.42,45.42,0,0,0,6-25.16c0-.29-.43-.21-.43,0a50.32,50.32,0,0,1-5.92,25c-.13.23.25.39.38.16Z"/><path id="Path_71050" data-name="Path 71050" class="cls-1" d="M59.26,32.82A31.78,31.78,0,0,0,53,15.31c-.2-.26-.57,0-.41.31a40.58,40.58,0,0,1,6.23,17.26.23.23,0,0,0,.26.18A.22.22,0,0,0,59.26,32.82Z"/><path id="Path_71051" data-name="Path 71051" class="cls-1" d="M56.36,57.52a35.14,35.14,0,0,0,3.09-10.06.2.2,0,0,0-.4-.05,40.21,40.21,0,0,1-3.11,9.93C55.82,57.6,56.23,57.78,56.36,57.52Z"/><path id="Path_71052" data-name="Path 71052" class="cls-1" d="M60.76,42.47c.76-6.3.48-13.29-1.94-19.23-.11-.27-.58-.16-.51.14,1.51,6.5,2.58,12.29,2,19a.23.23,0,0,0,.22.25.24.24,0,0,0,.25-.18Z"/><path id="Path_71053" data-name="Path 71053" class="cls-1" d="M59.18,53c2.2-6.81,4.27-15.14,2-22.18-.08-.26-.51-.14-.46.13,1.59,7.4,0,14.69-2,21.85-.09.31.36.51.46.2Z"/><path id="Path_71054" data-name="Path 71054" class="cls-1" d="M57.23,45.18a4,4,0,0,0-.06,1.2c0,.29.4.24.46,0a3.55,3.55,0,0,0,.18-1.12.29.29,0,1,0-.58-.08Z"/><path id="Path_71055" data-name="Path 71055" class="cls-1" d="M56.72,48.31a69.49,69.49,0,0,1-4.67,12c-.11.24.27.47.41.24a45.22,45.22,0,0,0,4.75-12.2c.08-.31-.41-.37-.49-.07Z"/><path id="Path_71056" data-name="Path 71056" class="cls-1" d="M49,17.81a9.76,9.76,0,0,1,1.47,3.11c.07.24.43.12.41-.11a5.42,5.42,0,0,0-1.5-3.29.24.24,0,0,0-.38.29Z"/><path id="Path_71057" data-name="Path 71057" class="cls-1" d="M50.11,17.06a4,4,0,0,0,.28.75.23.23,0,0,0,.3.11.22.22,0,0,0,.13-.23,6.17,6.17,0,0,0-.2-.85c-.1-.33-.62-.12-.51.22Z"/><path id="Path_71058" data-name="Path 71058" class="cls-1" d="M51.22,19a32.07,32.07,0,0,1,2.26,6.59.2.2,0,0,0,.23.16.2.2,0,0,0,.17-.22,18.66,18.66,0,0,0-2.31-6.67C51.46,18.61,51.12,18.75,51.22,19Z"/><path id="Path_71059" data-name="Path 71059" class="cls-1" d="M52.66,18.76a96.05,96.05,0,0,1,3.19,11.77.23.23,0,0,0,.27.18.22.22,0,0,0,.18-.24,41,41,0,0,0-3.22-11.89.23.23,0,0,0-.42.18Z"/><path id="Path_71060" data-name="Path 71060" class="cls-1" d="M55.5,23.15a15.92,15.92,0,0,0,.75,1.92.21.21,0,0,0,.28.11.22.22,0,0,0,.12-.28A19.43,19.43,0,0,0,55.94,23a.24.24,0,0,0-.44.18Z"/><path id="Path_71061" data-name="Path 71061" class="cls-1" d="M56.5,26.48c.21,1,.39,2.07.68,3.09.06.24.45.13.42-.12-.16-1-.42-2-.65-3-.06-.27-.51-.22-.45.06Z"/><path id="Path_71062" data-name="Path 71062" class="cls-1" d="M49.72,35.55a17.55,17.55,0,0,0,.57,7.52c.07.24.48.13.43-.12a26.29,26.29,0,0,1-.58-7.35.21.21,0,0,0-.18-.23.2.2,0,0,0-.24.18Z"/><path id="Path_71063" data-name="Path 71063" class="cls-1" d="M51.24,38.42c0,.33.09.66.16,1a.22.22,0,0,0,.25.16.2.2,0,0,0,.16-.21c0-.33-.08-.66-.13-1a.23.23,0,0,0-.25-.19.22.22,0,0,0-.19.25Z"/><path id="Path_71064" data-name="Path 71064" class="cls-1" d="M56.48,35.18a16.65,16.65,0,0,1-.31,5.45.21.21,0,0,0,.19.23.22.22,0,0,0,.22-.12A11.56,11.56,0,0,0,57,35.11a.24.24,0,0,0-.28-.2.25.25,0,0,0-.2.26Z"/><path id="Path_71065" data-name="Path 71065" class="cls-1" d="M54.37,33.85c.09.18.2.37.3.55s.52.09.39-.16-.17-.38-.26-.57-.59-.08-.43.18Z"/><path id="Path_71066" data-name="Path 71066" class="cls-1" d="M54.66,39.5c0,.63.05,1.26.1,1.9,0,.26.41.2.4,0,0-.64,0-1.28-.08-1.91,0-.28-.44-.22-.42.06Z"/><path id="Path_71067" data-name="Path 71067" class="cls-1" d="M27.17,31.69a52.54,52.54,0,0,1,0,8.13.2.2,0,0,0,.21.2.21.21,0,0,0,.2-.15,38.47,38.47,0,0,0,0-8.24A.22.22,0,0,0,27.17,31.69Z"/><path id="Path_71068" data-name="Path 71068" class="cls-1" d="M28.2,34.86a6.24,6.24,0,0,0,.23,1c.08.28.47.12.46-.13a3.71,3.71,0,0,0-.11-1,.29.29,0,0,0-.34-.23.29.29,0,0,0-.23.31Z"/><path id="Path_71069" data-name="Path 71069" class="cls-1" d="M28.5,39.16a6.06,6.06,0,0,1-.09,2c0,.26.34.3.4.05a6.74,6.74,0,0,0,.13-2.1c0-.28-.47-.22-.44.06Z"/><path id="Path_71070" data-name="Path 71070" class="cls-1" d="M29.68,37.81c-.05.61-.1,1.22-.14,1.83,0,.25.36.3.38,0,.06-.61.1-1.22.14-1.83,0-.25-.36-.3-.38,0Z"/><path id="Path_71071" data-name="Path 71071" class="cls-1" d="M40.26,44.52a17.72,17.72,0,0,1,.1,8.16.22.22,0,0,0,.2.25.23.23,0,0,0,.23-.13,13,13,0,0,0-.17-8.42c-.08-.24-.42-.09-.36.14Z"/><path id="Path_71072" data-name="Path 71072" class="cls-1" d="M41.61,47.3c0,.87.1,1.73.19,2.59,0,.26.39.19.39,0,0-.87,0-1.74-.09-2.61,0-.32-.5-.25-.49.07Z"/><path id="Path_71073" data-name="Path 71073" class="cls-1" d="M42.75,48.75c.32.1.52-.36.21-.46S42.45,48.65,42.75,48.75Z"/><path id="Path_71074" data-name="Path 71074" class="cls-1" d="M36.78,70.82a2.84,2.84,0,0,1-.23,2.26.24.24,0,0,0,.13.31.25.25,0,0,0,.28-.07,2.75,2.75,0,0,0,.31-2.7c-.12-.33-.59-.12-.49.2Z"/><path id="Path_71075" data-name="Path 71075" class="cls-1" d="M39.43,70.79l-.18-.2c-.17.16-.09.55.2.48l.19-.06a.32.32,0,0,0,.27-.27c0-.07,0-.14,0-.21a.36.36,0,0,0-.2-.35l-.2-.06a.31.31,0,0,0-.32,0l-.16.14a.31.31,0,0,0,.38.5Z"/><path id="Path_71076" data-name="Path 71076" class="cls-1" d="M40,72.62l.5.44c.19.18.5-.12.32-.31s-.31-.32-.45-.48a.26.26,0,0,0-.4.32l0,0Z"/><path id="Path_71077" data-name="Path 71077" class="cls-1" d="M42.48,69.53l.39.74c.13.23.49.08.37-.15s-.25-.51-.38-.75-.51-.08-.39.16Z"/><path id="Path_71078" data-name="Path 71078" class="cls-1" d="M45.32,68.38a9.06,9.06,0,0,0,.69.82.22.22,0,0,0,.32,0,.22.22,0,0,0,0-.31,9,9,0,0,0-.62-.86.26.26,0,0,0-.42.32Z"/><path id="Path_71079" data-name="Path 71079" class="cls-1" d="M31.44,70.08a1.61,1.61,0,0,0-.34,1.78.3.3,0,0,0,.39.15.3.3,0,0,0,.17-.22A2.92,2.92,0,0,1,32,70.41a.33.33,0,0,0-.19-.43.34.34,0,0,0-.38.1Z"/><path id="Path_71080" data-name="Path 71080" class="cls-1" d="M28.45,69.78a4.2,4.2,0,0,0,.1.93c.05.3.53.33.55,0a5,5,0,0,0,0-1c0-.45-.7-.35-.68.09Z"/><path id="Path_71081" data-name="Path 71081" class="cls-1" d="M14.56,66.29a9.71,9.71,0,0,0,1.54-1.78c.18-.26-.14-.64-.41-.42a10,10,0,0,0-1.63,1.69c-.24.31.2.79.5.51Z"/><path id="Path_71082" data-name="Path 71082" class="cls-1" d="M13.63,63.51a8.6,8.6,0,0,0,.84-.77c.21-.21-.13-.49-.35-.35a6.65,6.65,0,0,0-.88.62c-.32.25.07.76.39.5Z"/><path id="Path_71083" data-name="Path 71083" class="cls-1" d="M9.53,60.89a12.35,12.35,0,0,0,1.32-1.48c.18-.25-.13-.59-.38-.39A14.59,14.59,0,0,0,9,60.45c-.32.33.25.77.57.44Z"/><path id="Path_71084" data-name="Path 71084" class="cls-1" d="M8,57.74c0-.19.09-.38.13-.57s-.4-.43-.51-.15-.15.37-.23.55a.31.31,0,0,0,.19.41A.31.31,0,0,0,8,57.8.14.14,0,0,0,8,57.74Z"/><path id="Path_71085" data-name="Path 71085" class="cls-1" d="M3.83,53.9a20.84,20.84,0,0,0,1.93-1c.26-.16,0-.56-.27-.45a19.21,19.21,0,0,0-1.89.9c-.35.18-.13.73.23.56Z"/><path id="Path_71086" data-name="Path 71086" class="cls-1" d="M4,51.46q.6-.3,1.17-.66c.25-.16,0-.57-.26-.46a8,8,0,0,0-1.15.53c-.36.19-.11.78.25.59Z"/><path id="Path_71087" data-name="Path 71087" class="cls-1" d="M3.35,48.68l.35-.23c.24-.15,0-.53-.25-.43l-.39.15A.29.29,0,1,0,3.35,48.68Z"/><path id="Path_71088" data-name="Path 71088" class="cls-1" d="M2.13,45.29a15,15,0,0,0,1.75-.46c.3-.1.16-.56-.14-.52a13.74,13.74,0,0,0-1.69.37C1.68,44.77,1.74,45.37,2.13,45.29Z"/><path id="Path_71089" data-name="Path 71089" class="cls-1" d="M1.89,43.25c.34-.11.67-.22,1-.35s.16-.58-.13-.51c-.45.1-.68.16-1.11.29s-.14.68.24.57Z"/><path id="Path_71090" data-name="Path 71090" class="cls-1" d="M.21,28.48c1.08.22,2.15.47,3.23.62.3,0,.33-.38.06-.45C2.44,28.37,1.36,28.18.28,28,0,27.9-.11,28.42.21,28.48Z"/><path id="Path_71091" data-name="Path 71091" class="cls-1" d="M1.2,31.33A13.45,13.45,0,0,0,3,31.54.26.26,0,0,0,3.06,31a15.52,15.52,0,0,0-1.79-.29A.29.29,0,0,0,1,31a.3.3,0,0,0,.25.32Z"/><path id="Path_71092" data-name="Path 71092" class="cls-1" d="M2.74,26.41c.53,0,.75,0,1.29,0,.27,0,.26-.45,0-.47a8.35,8.35,0,0,0-1.22-.09C2.47,25.86,2.4,26.39,2.74,26.41Z"/><path id="Path_71093" data-name="Path 71093" class="cls-1" d="M4.11,23.8a16.09,16.09,0,0,0,1.8.52c.3.06.41-.4.14-.52a16.66,16.66,0,0,0-1.68-.58c-.39-.12-.64.45-.25.58Z"/><path id="Path_71094" data-name="Path 71094" class="cls-1" d="M9.22,13.48c.75.56,1.5,1.14,2.28,1.66a.23.23,0,0,0,.33-.05.24.24,0,0,0,0-.33c-.73-.59-1.49-1.14-2.25-1.7a.26.26,0,0,0-.32.42Z"/><path id="Path_71095" data-name="Path 71095" class="cls-1" d="M12.45,12.36c.53.28,1.05.56,1.61.82.26.13.41-.27.17-.41-.52-.31-1.05-.59-1.59-.87C12.36,11.75,12.17,12.21,12.45,12.36Z"/><path id="Path_71096" data-name="Path 71096" class="cls-1" d="M14.52,10.8a12,12,0,0,0,1.33.71.25.25,0,0,0,.25-.43c-.44-.29-.89-.56-1.36-.81s-.53.34-.22.53Z"/><path id="Path_71097" data-name="Path 71097" class="cls-1" d="M16.29,6.61c.16.47.32.93.52,1.39.11.3.53.11.44-.19a14.67,14.67,0,0,0-.46-1.42c-.11-.33-.61-.12-.5.22Z"/><path id="Path_71098" data-name="Path 71098" class="cls-1" d="M17.1,10.05a6.07,6.07,0,0,0,.7.82.23.23,0,0,0,.34,0,.24.24,0,0,0,0-.33,5.54,5.54,0,0,0-.65-.86.27.27,0,0,0-.38-.05.28.28,0,0,0,0,.38Z"/><path id="Path_71099" data-name="Path 71099" class="cls-1" d="M18.86,8.35c.13.25.27.5.41.74s.56.1.43-.18-.22-.51-.35-.76-.66-.09-.49.2Z"/><path id="Path_71100" data-name="Path 71100" class="cls-1" d="M34.05.3c-.1.47-.09.51.24.85a.29.29,0,0,0,.4,0,.28.28,0,0,0,.08-.31V.39c.11-.44-.63-.55-.71-.09Z"/><path id="Path_71101" data-name="Path 71101" class="cls-1" d="M34.33,2.86a4.21,4.21,0,0,0,.06,2.67.24.24,0,0,0,.46-.13,5.08,5.08,0,0,1-.05-2.48c.07-.29-.4-.35-.47-.06Z"/><path id="Path_71102" data-name="Path 71102" class="cls-1" d="M36.2,3.7c-.15.48-.3,1-.43,1.43-.08.26.31.44.4.17.17-.47.32-.94.47-1.41C36.73,3.6,36.29,3.42,36.2,3.7Z"/><path id="Path_71103" data-name="Path 71103" class="cls-1" d="M30.74,4.28c.07.44.14.87.23,1.31a.21.21,0,0,0,.24.17.22.22,0,0,0,.18-.23c-.05-.44-.11-.88-.19-1.32A.22.22,0,0,0,30.93,4,.23.23,0,0,0,30.74,4.28Z"/><path id="Path_71104" data-name="Path 71104" class="cls-1" d="M54.36,13.42c.86-.89,1.73-1.78,2.55-2.71.17-.19-.13-.49-.31-.31-.91.87-1.76,1.8-2.63,2.72-.22.23.18.53.39.3Z"/><path id="Path_71105" data-name="Path 71105" class="cls-1" d="M56.15,15.16c.31-.31.61-.63.9-1,.17-.19-.13-.5-.31-.32-.42.39-.59.56-1,1-.23.24.18.56.41.32Z"/><path id="Path_71106" data-name="Path 71106" class="cls-1" d="M57.06,17.35l.43-.51c.16-.19-.12-.49-.32-.32l-.49.44a.27.27,0,1,0,.38.38Z"/><path id="Path_71107" data-name="Path 71107" class="cls-1" d="M59.15,15.48c.3-.32.59-.65.89-1,.16-.17-.12-.46-.29-.29l-1,.92a.25.25,0,1,0,.32.38l0,0Z"/><path id="Path_71108" data-name="Path 71108" class="cls-1" d="M58.78,18.46c.15-.15.29-.32.45-.48s-.12-.45-.29-.29l-.48.46a.21.21,0,0,0,0,.31.22.22,0,0,0,.32,0Z"/><path id="Path_71109" data-name="Path 71109" class="cls-1" d="M53.2,12.59a16.48,16.48,0,0,0,.92-1.89c.09-.26-.28-.51-.43-.26a18.49,18.49,0,0,0-1,1.93c-.15.33.34.52.5.22Z"/><path id="Path_71110" data-name="Path 71110" class="cls-1" d="M50.68,11.88l.74-.69c.26-.15,0-.55-.24-.43-.66.3-.52.18-1,.76-.21.3.25.66.45.36Z"/><path id="Path_71111" data-name="Path 71111" class="cls-1" d="M61.74,25.79a32.17,32.17,0,0,0,3.43-1.16c.22-.09.13-.47-.11-.41a36,36,0,0,0-3.55,1c-.37.12-.13.66.23.55Z"/><path id="Path_71112" data-name="Path 71112" class="cls-1" d="M61.38,24c.52-.35,1-.7,1.57-1.07.24-.18,0-.52-.29-.37-.54.33-1.06.68-1.6,1-.28.19,0,.6.32.41Z"/><path id="Path_71113" data-name="Path 71113" class="cls-1" d="M60.74,22l.74-.41c.24-.13.09-.52-.17-.4l-.75.36c-.29.14-.08.6.18.45Z"/><path id="Path_71114" data-name="Path 71114" class="cls-1" d="M63.1,27.21a7,7,0,0,0,1.37-.31c.3-.09.15-.56-.14-.52a4.47,4.47,0,0,0-1.31.25c-.35.09-.3.63.08.57Z"/><path id="Path_71115" data-name="Path 71115" class="cls-1" d="M63.77,29.54a2.18,2.18,0,0,1,1.52-.44c.3,0,.24-.42,0-.48a2,2,0,0,0-1.88.46.29.29,0,0,0,.35.46Z"/><path id="Path_71116" data-name="Path 71116" class="cls-1" d="M64.35,31.69a1.3,1.3,0,0,0,1.43.08.25.25,0,0,0,.13-.33.26.26,0,0,0-.26-.15l-1.06-.15c-.36-.18-.56.36-.24.55Z"/><path id="Path_71117" data-name="Path 71117" class="cls-1" d="M64.12,45.1a10.09,10.09,0,0,0,1.79.49.26.26,0,0,0,.29-.22.28.28,0,0,0-.15-.27,11.13,11.13,0,0,0-1.67-.61c-.4-.11-.67.47-.26.61Z"/><path id="Path_71118" data-name="Path 71118" class="cls-1" d="M63.23,46.94c.69.22,1.36.43,2.06.61.25.06.35-.35.12-.44-.65-.25-1.31-.46-2-.67-.32-.1-.54.39-.21.5Z"/><path id="Path_71119" data-name="Path 71119" class="cls-1" d="M62.16,50.3a23.07,23.07,0,0,1,3.65,2.08c.2.13.51-.11.32-.31a9.12,9.12,0,0,0-3.74-2.32.3.3,0,0,0-.38.18.3.3,0,0,0,.15.37Z"/><path id="Path_71120" data-name="Path 71120" class="cls-1" d="M63.32,48.84l.57.15c.27.06.38-.36.13-.46l-.56-.21a.27.27,0,1,0-.18.5h0Z"/><path id="Path_71121" data-name="Path 71121" class="cls-1" d="M61.49,54.16c.5.37,1,.74,1.54,1.08a.24.24,0,0,0,.29-.38c-.47-.41-1-.77-1.49-1.14a.28.28,0,0,0-.34.44Z"/><path id="Path_71122" data-name="Path 71122" class="cls-1" d="M60.26,57.23c.34.11.56-.4.22-.5S59.93,57.13,60.26,57.23Z"/><path id="Path_71123" data-name="Path 71123" class="cls-1" d="M60.83,59.8c.27.51.54,1,.83,1.52.13.22.48,0,.38-.21-.23-.51-.48-1-.73-1.51-.15-.3-.64-.09-.48.2Z"/><path id="Path_71124" data-name="Path 71124" class="cls-1" d="M58.6,60.36l.78.52a.22.22,0,0,0,.27-.34L58.9,60c-.25-.2-.57.21-.3.39Z"/><path id="Path_71125" data-name="Path 71125" class="cls-1" d="M54.8,63.6c.33.11.54-.38.21-.49s-.53.39-.21.5Z"/><path id="Path_71126" data-name="Path 71126" class="cls-1" d="M50.85,65.67q.28.56.6,1.11c.14.25.55.1.42-.18s-.36-.76-.55-1.13-.63-.09-.47.2Z"/><path id="Path_71127" data-name="Path 71127" class="cls-1" d="M48.17,67.37l.42.72c.13.22.49,0,.39-.22l-.35-.77a.28.28,0,0,0-.36-.13.28.28,0,0,0-.13.36l0,0Z"/><path id="Path_71128" data-name="Path 71128" class="cls-1" d="M65.16,40.33l.65-.15a.24.24,0,1,0-.07-.47l-.66.06c-.36,0-.27.64.08.56Z"/><path id="Path_71129" data-name="Path 71129" class="cls-1" d="M65.25,37.74l.42-.52c.17-.22-.14-.54-.36-.35l-.51.42C64.46,37.59,65,38.09,65.25,37.74Z"/><path id="Path_71130" data-name="Path 71130" class="cls-1" d="M65.14,35.07c.33.1.55-.4.21-.51S64.8,35,65.14,35.07Z"/><path id="Path_71131" data-name="Path 71131" class="cls-1" d="M39.71,6.12c.17-.53.21-.68.34-1.21.06-.26-.35-.36-.44-.12a7.35,7.35,0,0,0-.4,1.11c-.11.34.39.55.5.22Z"/><path id="Path_71132" data-name="Path 71132" class="cls-1" d="M42.68,7.69c.13-.4.24-.81.33-1.22s-.38-.39-.48-.13a7.4,7.4,0,0,0-.41,1.11C42,7.82,42.56,8.07,42.68,7.69Z"/><path id="Path_71133" data-name="Path 71133" class="cls-1" d="M46.22,8.41a2.54,2.54,0,0,0,0-.29A.3.3,0,0,0,46,7.81a.28.28,0,0,0-.28.16c0,.09-.1.18-.14.27-.23.42.58.69.64.17Z"/><path id="Path_71134" data-name="Path 71134" class="cls-1" d="M27.47,3.58l.15.65a.27.27,0,1,0,.54-.08c0-.22,0-.44,0-.66,0-.43-.75-.32-.65.09Z"/><path id="Path_71135" data-name="Path 71135" class="cls-1" d="M28.32,6.06c.1.32.2.64.29,1a.23.23,0,0,0,.25.19A.22.22,0,0,0,29,7a1.25,1.25,0,0,0-.28-1.22c-.14-.25-.58,0-.44.26Z"/><path id="Path_71136" data-name="Path 71136" class="cls-1" d="M25.89,6c.16.42.32.85.49,1.27a.22.22,0,0,0,.26.17.21.21,0,0,0,.17-.23,3.06,3.06,0,0,0-.51-1.52c-.17-.28-.59,0-.41.31Z"/><path id="Path_71137" data-name="Path 71137" class="cls-1" d="M23,7.58c.28.09.46-.34.17-.44S22.73,7.49,23,7.58Z"/><path id="Path_71138" data-name="Path 71138" class="cls-1" d="M7.18,18.41a6.28,6.28,0,0,0,.48.78c.15.24.51,0,.42-.24a4.09,4.09,0,0,0-.34-.77c-.17-.37-.75-.11-.56.23Z"/><path id="Path_71139" data-name="Path 71139" class="cls-1" d="M6.6,20.2l.57.12c.26.05.36-.35.13-.45l-.54-.24c-.39-.17-.6.48-.16.57Z"/><path id="Path_71140" data-name="Path 71140" class="cls-1" d="M1.13,37.15c.31.1.52-.38.2-.48S.8,37,1.13,37.15Z"/></svg>