<svg xmlns="http://www.w3.org/2000/svg" xmlns:xlink="http://www.w3.org/1999/xlink" width="65.408" height="54.072" viewBox="0 0 65.408 54.072">
  <defs>
    <filter id="Path_142251" x="0" y="0" width="65.408" height="54.072" filterUnits="userSpaceOnUse">
      <feOffset input="SourceAlpha"/>
      <feGaussianBlur stdDeviation="3" result="blur"/>
      <feFlood flood-color="#0168ff"/>
      <feComposite operator="in" in2="blur"/>
      <feComposite in="SourceGraphic"/>
    </filter>
  </defs>
  <g transform="matrix(1, 0, 0, 1, 0, 0)" filter="url(#Path_142251)">
    <path id="Path_142251-2" data-name="Path 142251" d="M1144.471,890.981l-18.9-9.232a7.735,7.735,0,0,0-6.027,0l-19.333,9.232a2.328,2.328,0,0,0-1.574,2.064c0,.488.217,1.358,1.574,2.063l1.575.76v8.688A2.661,2.661,0,0,0,1100.1,907a2.7,2.7,0,0,0,1.629,2.443l-2.444,7.765h6.843l-2.444-7.765a2.632,2.632,0,0,0-.055-4.888v-7.765l2.879,1.412v11.3a.875.875,0,0,0,.163.488,20.485,20.485,0,0,0,31.225,0,.869.869,0,0,0,.163-.488V898.258l6.408-3.15a2.328,2.328,0,0,0,1.574-2.063A2.426,2.426,0,0,0,1144.471,890.981Zm-8.146,18.246a18.73,18.73,0,0,1-28.022,0V898.964l11.241,5.376a7.324,7.324,0,0,0,2.987.6,6.615,6.615,0,0,0,3.04-.652l10.753-5.268Zm7.385-15.64-6.517,3.2a.623.623,0,0,0-.6.326l-11.784,5.7a6.027,6.027,0,0,1-4.561,0l-14.5-6.951,16.671-1.955a.846.846,0,0,0-.163-1.684l-19.333,2.281-1.955-.923a1.09,1.09,0,0,1-.6-.488c0-.054.108-.272.6-.488l19.332-9.287a5.618,5.618,0,0,1,2.227-.434,5.509,5.509,0,0,1,2.28.434l18.9,9.232c.489.217.6.435.6.543A1.486,1.486,0,0,1,1143.71,893.588Z" transform="translate(-1089.64 -872.14)" fill="#2d6af5"/>
  </g>
</svg>
