<svg xmlns="http://www.w3.org/2000/svg" xmlns:xlink="http://www.w3.org/1999/xlink" width="65.724" height="75.572" viewBox="0 0 65.724 75.572">
  <defs>
    <filter id="Path_75871" x="14.389" y="41.941" width="36.946" height="24.255" filterUnits="userSpaceOnUse">
      <feOffset input="SourceAlpha"/>
      <feGaussianBlur stdDeviation="3" result="blur"/>
      <feFlood flood-color="#257bf8"/>
      <feComposite operator="in" in2="blur"/>
      <feComposite in="SourceGraphic"/>
    </filter>
    <filter id="Rectangle_69338" x="9.246" y="47.196" width="47.233" height="28.377" filterUnits="userSpaceOnUse">
      <feOffset input="SourceAlpha"/>
      <feGaussianBlur stdDeviation="3" result="blur-2"/>
      <feFlood flood-color="#257bf8"/>
      <feComposite operator="in" in2="blur-2"/>
      <feComposite in="SourceGraphic"/>
    </filter>
    <filter id="Line_58" x="0" y="56.572" width="65.724" height="19" filterUnits="userSpaceOnUse">
      <feOffset input="SourceAlpha"/>
      <feGaussianBlur stdDeviation="3" result="blur-3"/>
      <feFlood flood-color="#257bf8"/>
      <feComposite operator="in" in2="blur-3"/>
      <feComposite in="SourceGraphic"/>
    </filter>
    <filter id="Path_75866" x="6.13" y="0" width="35.725" height="60.441" filterUnits="userSpaceOnUse">
      <feOffset input="SourceAlpha"/>
      <feGaussianBlur stdDeviation="3" result="blur-4"/>
      <feFlood flood-color="#257bf8"/>
      <feComposite operator="in" in2="blur-4"/>
      <feComposite in="SourceGraphic"/>
    </filter>
    <filter id="Path_75867" x="23.855" y="0" width="35.724" height="60.441" filterUnits="userSpaceOnUse">
      <feOffset input="SourceAlpha"/>
      <feGaussianBlur stdDeviation="3" result="blur-5"/>
      <feFlood flood-color="#257bf8"/>
      <feComposite operator="in" in2="blur-5"/>
      <feComposite in="SourceGraphic"/>
    </filter>
    <filter id="Path_75868" x="37.651" y="5.106" width="27.531" height="34.818" filterUnits="userSpaceOnUse">
      <feOffset input="SourceAlpha"/>
      <feGaussianBlur stdDeviation="3" result="blur-6"/>
      <feFlood flood-color="#257bf8"/>
      <feComposite operator="in" in2="blur-6"/>
      <feComposite in="SourceGraphic"/>
    </filter>
    <filter id="Path_75869" x="0.542" y="5.106" width="27.531" height="34.818" filterUnits="userSpaceOnUse">
      <feOffset input="SourceAlpha"/>
      <feGaussianBlur stdDeviation="3" result="blur-7"/>
      <feFlood flood-color="#257bf8"/>
      <feComposite operator="in" in2="blur-7"/>
      <feComposite in="SourceGraphic"/>
    </filter>
    <filter id="Path_75870" x="16.988" y="6.899" width="31.734" height="31.062" filterUnits="userSpaceOnUse">
      <feOffset input="SourceAlpha"/>
      <feGaussianBlur stdDeviation="3" result="blur-8"/>
      <feFlood flood-color="#257bf8"/>
      <feComposite operator="in" in2="blur-8"/>
      <feComposite in="SourceGraphic"/>
    </filter>
  </defs>
  <g id="Group_59729" data-name="Group 59729" transform="translate(-1473.215 -428.101)">
    <g id="Group_42594" data-name="Group 42594" transform="translate(1482.215 437.601)">
      <g transform="matrix(1, 0, 0, 1, -9, -9.5)" filter="url(#Path_75871)">
        <path id="Path_75871-2" data-name="Path 75871" d="M0,0H17.946V5.255H0Z" transform="translate(23.89 51.44)" fill="none" stroke="#0168ff" stroke-width="1"/>
      </g>
      <g transform="matrix(1, 0, 0, 1, -9, -9.5)" filter="url(#Rectangle_69338)">
        <rect id="Rectangle_69338-2" data-name="Rectangle 69338" width="28.233" height="9.377" transform="translate(18.75 56.7)" fill="none" stroke="#0168ff" stroke-miterlimit="10" stroke-width="1"/>
      </g>
      <g transform="matrix(1, 0, 0, 1, -9, -9.5)" filter="url(#Line_58)">
        <line id="Line_58-2" data-name="Line 58" x2="47.725" transform="translate(9 66.07)" fill="none" stroke="#0168ff" stroke-miterlimit="10" stroke-width="1"/>
      </g>
      <g id="Group_42593" data-name="Group 42593" transform="translate(1.055)">
        <g id="Group_42592" data-name="Group 42592" transform="translate(5.639)">
          <g transform="matrix(1, 0, 0, 1, -15.69, -9.5)" filter="url(#Path_75866)">
            <path id="Path_75866-2" data-name="Path 75866" d="M1527.513,437.6h-16.856s-3.569,24.49,13.683,31.232v10.708" transform="translate(-1494.66 -428.1)" fill="none" stroke="#0168ff" stroke-miterlimit="10" stroke-width="1"/>
          </g>
          <g transform="matrix(1, 0, 0, 1, -15.69, -9.5)" filter="url(#Path_75867)">
            <path id="Path_75867-2" data-name="Path 75867" d="M1582.487,437.6h16.855s3.569,24.49-13.683,31.232v10.708" transform="translate(-1549.63 -428.1)" fill="none" stroke="#0168ff" stroke-miterlimit="10" stroke-width="1"/>
          </g>
        </g>
        <g transform="matrix(1, 0, 0, 1, -10.06, -9.5)" filter="url(#Path_75868)">
          <path id="Path_75868-2" data-name="Path 75868" d="M1644.514,459.064h5.643s.646,11.5-8.8,15.864" transform="translate(-1594.5 -444.46)" fill="none" stroke="#0168ff" stroke-miterlimit="10" stroke-width="1"/>
        </g>
        <g transform="matrix(1, 0, 0, 1, -10.06, -9.5)" filter="url(#Path_75869)">
          <path id="Path_75869-2" data-name="Path 75869" d="M1492.3,459.064h-5.643s-.646,11.5,8.8,15.864" transform="translate(-1476.6 -444.46)" fill="none" stroke="#0168ff" stroke-miterlimit="10" stroke-width="1"/>
        </g>
      </g>
    </g>
    <g transform="matrix(1, 0, 0, 1, 1473.21, 428.1)" filter="url(#Path_75870)">
      <path id="Path_75870-2" data-name="Path 75870" d="M1563.931,469.249l1.79,3.627,4,.582-2.9,2.823.684,3.986-3.58-1.882-3.58,1.882.684-3.986-2.9-2.823,4-.582Z" transform="translate(-1531.08 -452.22)" fill="none" stroke="#0168ff" stroke-miterlimit="10" stroke-width="1"/>
    </g>
  </g>
</svg>
