<svg xmlns="http://www.w3.org/2000/svg" xmlns:xlink="http://www.w3.org/1999/xlink" width="51.079" height="51.079" viewBox="0 0 51.079 51.079">
  <defs>
    <filter id="Path_61122" x="7.487" y="7.298" width="36.104" height="36.483" filterUnits="userSpaceOnUse">
      <feOffset input="SourceAlpha"/>
      <feGaussianBlur stdDeviation="3" result="blur"/>
      <feFlood flood-color="#257bf8"/>
      <feComposite operator="in" in2="blur"/>
      <feComposite in="SourceGraphic"/>
    </filter>
    <filter id="Path_61123" x="20.489" y="0" width="10.1" height="15.791" filterUnits="userSpaceOnUse">
      <feOffset input="SourceAlpha"/>
      <feGaussianBlur stdDeviation="0.5" result="blur-2"/>
      <feFlood flood-color="#257bf8"/>
      <feComposite operator="in" in2="blur-2"/>
      <feComposite in="SourceGraphic"/>
    </filter>
    <filter id="Path_61124" x="31.787" y="31.787" width="13.68" height="13.68" filterUnits="userSpaceOnUse">
      <feOffset input="SourceAlpha"/>
      <feGaussianBlur stdDeviation="0.5" result="blur-3"/>
      <feFlood flood-color="#257bf8"/>
      <feComposite operator="in" in2="blur-3"/>
      <feComposite in="SourceGraphic"/>
    </filter>
    <filter id="Path_61125" x="5.612" y="5.612" width="13.68" height="13.68" filterUnits="userSpaceOnUse">
      <feOffset input="SourceAlpha"/>
      <feGaussianBlur stdDeviation="0.5" result="blur-4"/>
      <feFlood flood-color="#257bf8"/>
      <feComposite operator="in" in2="blur-4"/>
      <feComposite in="SourceGraphic"/>
    </filter>
    <filter id="Path_61126" x="20.489" y="35.287" width="10.1" height="15.792" filterUnits="userSpaceOnUse">
      <feOffset input="SourceAlpha"/>
      <feGaussianBlur stdDeviation="0.5" result="blur-5"/>
      <feFlood flood-color="#257bf8"/>
      <feComposite operator="in" in2="blur-5"/>
      <feComposite in="SourceGraphic"/>
    </filter>
    <filter id="Path_61127" x="35.287" y="20.489" width="15.792" height="10.1" filterUnits="userSpaceOnUse">
      <feOffset input="SourceAlpha"/>
      <feGaussianBlur stdDeviation="0.5" result="blur-6"/>
      <feFlood flood-color="#257bf8"/>
      <feComposite operator="in" in2="blur-6"/>
      <feComposite in="SourceGraphic"/>
    </filter>
    <filter id="Path_61128" x="0" y="20.489" width="15.792" height="10.1" filterUnits="userSpaceOnUse">
      <feOffset input="SourceAlpha"/>
      <feGaussianBlur stdDeviation="0.5" result="blur-7"/>
      <feFlood flood-color="#257bf8"/>
      <feComposite operator="in" in2="blur-7"/>
      <feComposite in="SourceGraphic"/>
    </filter>
    <filter id="Path_61129" x="31.786" y="5.612" width="13.68" height="13.68" filterUnits="userSpaceOnUse">
      <feOffset input="SourceAlpha"/>
      <feGaussianBlur stdDeviation="0.5" result="blur-8"/>
      <feFlood flood-color="#257bf8"/>
      <feComposite operator="in" in2="blur-8"/>
      <feComposite in="SourceGraphic"/>
    </filter>
    <filter id="Path_61130" x="5.612" y="31.787" width="13.68" height="13.68" filterUnits="userSpaceOnUse">
      <feOffset input="SourceAlpha"/>
      <feGaussianBlur stdDeviation="0.5" result="blur-9"/>
      <feFlood flood-color="#257bf8"/>
      <feComposite operator="in" in2="blur-9"/>
      <feComposite in="SourceGraphic"/>
    </filter>
  </defs>
  <g id="Group_59731" data-name="Group 59731" transform="translate(-103.5 -228.39)">
    <g transform="matrix(1, 0, 0, 1, 103.5, 228.39)" filter="url(#Path_61122)">
      <path id="Path_61122-2" data-name="Path 61122" d="M242.1,357.7a.7.7,0,0,0,.7-.7v-5.086a.7.7,0,0,0-.457-.66L234,348.124a.706.706,0,0,0-.5,0l-8.348,3.13a.7.7,0,0,0-.457.66v2.261a.7.7,0,1,0,1.409,0V352.93l6.939,2.6v9.31l-6.939-2.6v-4.77a.7.7,0,1,0-1.409,0v5.258a.7.7,0,0,0,.457.66l8.348,3.13v0a.7.7,0,0,0,.247.046.712.712,0,0,0,.248-.045l8.348-3.131a.7.7,0,0,0,.457-.659v-2.445a.7.7,0,1,0-1.409,0v1.957l-6.939,2.6v-9.31l6.939-2.6V357a.7.7,0,0,0,.7.7Zm-8.348-3.412-6.342-2.378,6.342-2.378,6.342,2.378Zm0,0" transform="translate(-208.22 -331.78)" fill="#0168ff"/>
    </g>
    <g transform="matrix(1, 0, 0, 1, 103.5, 228.39)" filter="url(#Path_61123)">
      <path id="Path_61123-2" data-name="Path 61123" d="M271.491,236.92v5.058a.7.7,0,0,0,1.409,0V236.92a3.55,3.55,0,1,0-1.409,0Zm.7-5.621a2.141,2.141,0,1,1-2.142,2.142A2.144,2.144,0,0,1,272.2,231.3Zm0,0" transform="translate(-246.66 -228.39)" fill="#0168ff"/>
    </g>
    <g transform="matrix(1, 0, 0, 1, 103.5, 228.39)" filter="url(#Path_61124)">
      <path id="Path_61124-2" data-name="Path 61124" d="M364.679,484.69a4.851,4.851,0,0,0-2.914.968l-1.686-1.686a.7.7,0,0,0-1,1l1.686,1.686a4.877,4.877,0,1,0,3.91-1.964Zm0,8.348a3.47,3.47,0,1,1,3.47-3.47,3.473,3.473,0,0,1-3.47,3.47Zm0,0" transform="translate(-325.59 -450.48)" fill="#0168ff"/>
    </g>
    <g transform="matrix(1, 0, 0, 1, 103.5, 228.39)" filter="url(#Path_61125)">
      <path id="Path_61125-2" data-name="Path 61125" d="M154.7,284.47a4.851,4.851,0,0,0,2.914-.968l1.686,1.686a.7.7,0,1,0,1-1l-1.686-1.686a4.877,4.877,0,1,0-3.91,1.964Zm0-8.348a3.47,3.47,0,1,1-3.47,3.47,3.473,3.473,0,0,1,3.47-3.47Zm0,0" transform="translate(-142.71 -267.6)" fill="#0168ff"/>
    </g>
    <g transform="matrix(1, 0, 0, 1, 103.5, 228.39)" filter="url(#Path_61126)">
      <path id="Path_61126-2" data-name="Path 61126" d="M272.9,517.488V512.43a.7.7,0,1,0-1.409,0v5.058a3.55,3.55,0,1,0,1.409,0Zm-.7,5.621a2.141,2.141,0,1,1,2.142-2.142,2.144,2.144,0,0,1-2.142,2.142Zm0,0" transform="translate(-246.66 -474.94)" fill="#0168ff"/>
    </g>
    <g transform="matrix(1, 0, 0, 1, 103.5, 228.39)" filter="url(#Path_61127)">
      <path id="Path_61127-2" data-name="Path 61127" d="M396.077,393.535a3.556,3.556,0,0,0-3.479,2.846H387.54a.7.7,0,1,0,0,1.409H392.6a3.55,3.55,0,1,0,3.479-4.254Zm0,5.692a2.142,2.142,0,1,1,2.142-2.142,2.144,2.144,0,0,1-2.142,2.142Zm0,0" transform="translate(-350.05 -371.55)" fill="#0168ff"/>
    </g>
    <g transform="matrix(1, 0, 0, 1, 103.5, 228.39)" filter="url(#Path_61128)">
      <path id="Path_61128-2" data-name="Path 61128" d="M112.03,397.789h5.058a.7.7,0,1,0,0-1.409H112.03a3.55,3.55,0,1,0,0,1.409Zm-3.479,1.437a2.142,2.142,0,1,1,2.141-2.142,2.144,2.144,0,0,1-2.141,2.142Zm0,0" transform="translate(-103.5 -371.55)" fill="#0168ff"/>
    </g>
    <g transform="matrix(1, 0, 0, 1, 103.5, 228.39)" filter="url(#Path_61129)">
      <path id="Path_61129-2" data-name="Path 61129" d="M359.578,285.394a.7.7,0,0,0,.5-.206l1.686-1.686a4.884,4.884,0,1,0-1-1l-1.686,1.686a.7.7,0,0,0,.5,1.2Zm5.1-9.272a3.47,3.47,0,1,1-3.47,3.47,3.473,3.473,0,0,1,3.47-3.47Zm0,0" transform="translate(-325.59 -267.6)" fill="#0168ff"/>
    </g>
    <g transform="matrix(1, 0, 0, 1, 103.5, 228.39)" filter="url(#Path_61130)">
      <path id="Path_61130-2" data-name="Path 61130" d="M159.3,483.973l-1.686,1.686a4.884,4.884,0,1,0,1,1l1.686-1.686a.7.7,0,1,0-1-1Zm-4.6,9.065a3.47,3.47,0,1,1,3.47-3.47,3.473,3.473,0,0,1-3.47,3.47Zm0,0" transform="translate(-142.71 -450.48)" fill="#0168ff"/>
    </g>
  </g>
</svg>
