<svg xmlns="http://www.w3.org/2000/svg" xmlns:xlink="http://www.w3.org/1999/xlink" width="69.527" height="63.156" viewBox="0 0 69.527 63.156">
  <defs>
    <filter id="Path_76313" x="40.748" y="38.032" width="12.09" height="11.946" filterUnits="userSpaceOnUse">
      <feOffset input="SourceAlpha"/>
      <feGaussianBlur stdDeviation="0.5" result="blur"/>
      <feFlood flood-color="#0168ff"/>
      <feComposite operator="in" in2="blur"/>
      <feComposite in="SourceGraphic"/>
    </filter>
    <filter id="Path_76314" x="37.78" y="34.885" width="28.271" height="28.271" filterUnits="userSpaceOnUse">
      <feOffset input="SourceAlpha"/>
      <feGaussianBlur stdDeviation="3" result="blur-2"/>
      <feFlood flood-color="#0168ff"/>
      <feComposite operator="in" in2="blur-2"/>
      <feComposite in="SourceGraphic"/>
    </filter>
    <filter id="Path_76315" x="12.322" y="32.29" width="13.719" height="7.308" filterUnits="userSpaceOnUse">
      <feOffset input="SourceAlpha"/>
      <feGaussianBlur stdDeviation="0.5" result="blur-3"/>
      <feFlood flood-color="#0168ff"/>
      <feComposite operator="in" in2="blur-3"/>
      <feComposite in="SourceGraphic"/>
    </filter>
    <filter id="Path_76316" x="23.818" y="32.29" width="25.947" height="7.308" filterUnits="userSpaceOnUse">
      <feOffset input="SourceAlpha"/>
      <feGaussianBlur stdDeviation="0.5" result="blur-4"/>
      <feFlood flood-color="#0168ff"/>
      <feComposite operator="in" in2="blur-4"/>
      <feComposite in="SourceGraphic"/>
    </filter>
    <filter id="Path_76317" x="47.563" y="32.29" width="7.923" height="7.308" filterUnits="userSpaceOnUse">
      <feOffset input="SourceAlpha"/>
      <feGaussianBlur stdDeviation="0.5" result="blur-5"/>
      <feFlood flood-color="#0168ff"/>
      <feComposite operator="in" in2="blur-5"/>
      <feComposite in="SourceGraphic"/>
    </filter>
    <filter id="Path_76318" x="14.339" y="12.369" width="7.308" height="23.921" filterUnits="userSpaceOnUse">
      <feOffset input="SourceAlpha"/>
      <feGaussianBlur stdDeviation="0.5" result="blur-6"/>
      <feFlood flood-color="#0168ff"/>
      <feComposite operator="in" in2="blur-6"/>
      <feComposite in="SourceGraphic"/>
    </filter>
    <filter id="Path_76319" x="21.92" y="17.693" width="7.299" height="17.389" filterUnits="userSpaceOnUse">
      <feOffset input="SourceAlpha"/>
      <feGaussianBlur stdDeviation="0.5" result="blur-7"/>
      <feFlood flood-color="#0168ff"/>
      <feComposite operator="in" in2="blur-7"/>
      <feComposite in="SourceGraphic"/>
    </filter>
    <filter id="Path_76321" x="30.246" y="26.399" width="7.308" height="9.891" filterUnits="userSpaceOnUse">
      <feOffset input="SourceAlpha"/>
      <feGaussianBlur stdDeviation="0.5" result="blur-8"/>
      <feFlood flood-color="#0168ff"/>
      <feComposite operator="in" in2="blur-8"/>
      <feComposite in="SourceGraphic"/>
    </filter>
    <filter id="Path_76322" x="37.595" y="28.62" width="7.308" height="7.67" filterUnits="userSpaceOnUse">
      <feOffset input="SourceAlpha"/>
      <feGaussianBlur stdDeviation="0.5" result="blur-9"/>
      <feFlood flood-color="#0168ff"/>
      <feComposite operator="in" in2="blur-9"/>
      <feComposite in="SourceGraphic"/>
    </filter>
    <filter id="Path_76323" x="21.363" y="18.52" width="30.862" height="30.862" filterUnits="userSpaceOnUse">
      <feOffset input="SourceAlpha"/>
      <feGaussianBlur stdDeviation="0.5" result="blur-10"/>
      <feFlood flood-color="#0168ff"/>
      <feComposite operator="in" in2="blur-10"/>
      <feComposite in="SourceGraphic"/>
    </filter>
    <filter id="Path_76325" x="0" y="0" width="69.527" height="49.82" filterUnits="userSpaceOnUse">
      <feOffset input="SourceAlpha"/>
      <feGaussianBlur stdDeviation="3" result="blur-11"/>
      <feFlood flood-color="#0168ff"/>
      <feComposite operator="in" in2="blur-11"/>
      <feComposite in="SourceGraphic"/>
    </filter>
  </defs>
  <g id="Group_59732" data-name="Group 59732" transform="translate(-954.71 -886.727)">
    <path id="Path_76311" data-name="Path 76311" d="M1003.717,921.711c0,.111,0,.223-.009.334a10.543,10.543,0,0,1-.613,3.308,10.971,10.971,0,0,1-20.692,0,11.156,11.156,0,0,1-.613-3.308c-.009-.112-.009-.223-.009-.334a10.856,10.856,0,0,1,1.394-5.352,10.971,10.971,0,0,1,20.544,5.352Z" transform="translate(-1.245 -1.029)" fill="none" stroke="#0168ff" stroke-miterlimit="10" stroke-width="1"/>
    <path id="Path_76312" data-name="Path 76312" d="M1003.717,921.711c0,.111,0,.223-.009.334a10.543,10.543,0,0,1-.613,3.308,10.7,10.7,0,0,1-1.422,2.722,10.958,10.958,0,0,1-17.849,0,10.7,10.7,0,0,1-1.422-2.722,11.156,11.156,0,0,1-.613-3.308c-.009-.112-.009-.223-.009-.334a10.856,10.856,0,0,1,1.394-5.352,10.971,10.971,0,0,1,20.544,5.352Z" transform="translate(-1.245 -1.029)" fill="none" stroke="#0168ff" stroke-miterlimit="10" stroke-width="1"/>
    <g transform="matrix(1, 0, 0, 1, 954.71, 886.73)" filter="url(#Path_76313)">
      <path id="Path_76313-2" data-name="Path 76313" d="M1007.681,932.819l-.455.446-3.01,3.01-.455.455a1.116,1.116,0,0,1-1.58,0l-1.831-1.83a13.5,13.5,0,0,0,5.529-5.463l1.8,1.793A1.127,1.127,0,0,1,1007.681,932.819Z" transform="translate(-957.27 -889.08)" fill="none" stroke="#0168ff" stroke-miterlimit="10" stroke-width="1"/>
    </g>
    <g transform="matrix(1, 0, 0, 1, 954.71, 886.73)" filter="url(#Path_76314)">
      <path id="Path_76314-2" data-name="Path 76314" d="M1013.722,942.625a1.471,1.471,0,0,1-2.087,0l-6.542-6.543,2.086-2.087,6.543,6.543A1.469,1.469,0,0,1,1013.722,942.625Z" transform="translate(-957.61 -889.4)" fill="none" stroke="#0168ff" stroke-miterlimit="10" stroke-width="1"/>
    </g>
    <g transform="matrix(1, 0, 0, 1, 954.71, 886.73)" filter="url(#Path_76315)">
      <path id="Path_76315-2" data-name="Path 76315" d="M978.952,926.215H970.6a1.2,1.2,0,0,1-1.2-1.208v-.892a1.2,1.2,0,0,1,1.2-1.208h7.851A12.54,12.54,0,0,0,978.952,926.215Z" transform="translate(-955.08 -888.62)" fill="none" stroke="#0168ff" stroke-miterlimit="10" stroke-width="1"/>
    </g>
    <g transform="matrix(1, 0, 0, 1, 954.71, 886.73)" filter="url(#Path_76316)">
      <path id="Path_76316-2" data-name="Path 76316" d="M1003.709,922.907a10.543,10.543,0,0,1-.613,3.308H982.4a11.156,11.156,0,0,1-.613-3.308Z" transform="translate(-955.96 -888.62)" fill="none" stroke="#0168ff" stroke-miterlimit="10" stroke-width="1"/>
    </g>
    <g transform="matrix(1, 0, 0, 1, 954.71, 886.73)" filter="url(#Path_76317)">
      <path id="Path_76317-2" data-name="Path 76317" d="M1011.263,924.115v.892a1.205,1.205,0,0,1-1.208,1.208H1007.5a13,13,0,0,0,.492-3.308h2.063A1.205,1.205,0,0,1,1011.263,924.115Z" transform="translate(-957.78 -888.62)" fill="none" stroke="#0168ff" stroke-miterlimit="10" stroke-width="1"/>
    </g>
    <g transform="matrix(1, 0, 0, 1, 954.71, 886.73)" filter="url(#Path_76318)">
      <path id="Path_76318-2" data-name="Path 76318" d="M974.878,902.675v18.713H971.57V902.675a1.206,1.206,0,0,1,1.208-1.208h.892A1.206,1.206,0,0,1,974.878,902.675Z" transform="translate(-955.23 -887.1)" fill="none" stroke="#0168ff" stroke-miterlimit="10" stroke-width="1"/>
    </g>
    <g transform="matrix(1, 0, 0, 1, 954.71, 886.73)" filter="url(#Path_76319)">
      <path id="Path_76319-2" data-name="Path 76319" d="M983.029,908.4v3.624a13.521,13.521,0,0,0-3.3,5.6V908.4a1.2,1.2,0,0,1,1.2-1.208h.9A1.2,1.2,0,0,1,983.029,908.4Z" transform="translate(-955.81 -887.5)" fill="none" stroke="#0168ff" stroke-miterlimit="10" stroke-width="1"/>
    </g>
    <path id="Path_76320" data-name="Path 76320" d="M983.174,916.787v5.686h-1.384c-.009-.112-.009-.223-.009-.334A10.856,10.856,0,0,1,983.174,916.787Z" transform="translate(-1.245 -1.457)" fill="none" stroke="#0168ff" stroke-miterlimit="10" stroke-width="1"/>
    <g transform="matrix(1, 0, 0, 1, 954.71, 886.73)" filter="url(#Path_76321)">
      <path id="Path_76321-2" data-name="Path 76321" d="M992,917.766v4.692H988.69v-4.692a1.2,1.2,0,0,1,1.208-1.2h.892A1.2,1.2,0,0,1,992,917.766Z" transform="translate(-956.44 -888.17)" fill="none" stroke="#0168ff" stroke-miterlimit="10" stroke-width="1"/>
    </g>
    <g transform="matrix(1, 0, 0, 1, 954.71, 886.73)" filter="url(#Path_76322)">
      <path id="Path_76322-2" data-name="Path 76322" d="M999.908,920.165v2.462H996.6v-2.462a1.206,1.206,0,0,1,1.208-1.208h.892A1.206,1.206,0,0,1,999.908,920.165Z" transform="translate(-957 -888.34)" fill="none" stroke="#0168ff" stroke-miterlimit="10" stroke-width="1"/>
    </g>
    <g transform="matrix(1, 0, 0, 1, 954.71, 886.73)" filter="url(#Path_76323)">
      <path id="Path_76323-2" data-name="Path 76323" d="M992.566,908.087a13.438,13.438,0,0,0-13.436,13.436c0,.111,0,.223.009.334a12.54,12.54,0,0,0,.5,3.308,13.165,13.165,0,0,0,1.106,2.722,13.435,13.435,0,0,0,23.628.037v-.009c.009-.009.009-.019.019-.028a13.675,13.675,0,0,0,1.1-2.722,13,13,0,0,0,.492-3.308c.009-.112.009-.223.009-.334A13.429,13.429,0,0,0,992.566,908.087Zm0,24.4a10.947,10.947,0,0,1-8.929-4.6,10.7,10.7,0,0,1-1.422-2.722,11.156,11.156,0,0,1-.613-3.308c-.009-.112-.009-.223-.009-.334a10.856,10.856,0,0,1,1.394-5.352,10.971,10.971,0,0,1,20.544,5.352c0,.111,0,.223-.009.334a10.543,10.543,0,0,1-.613,3.308,10.7,10.7,0,0,1-1.422,2.722A10.942,10.942,0,0,1,992.566,932.486Z" transform="translate(-955.77 -887.57)" fill="none" stroke="#0168ff" stroke-miterlimit="10" stroke-width="1"/>
    </g>
    <path id="Path_76324" data-name="Path 76324" d="M1003.717,921.711c0,.111,0,.223-.009.334a10.543,10.543,0,0,1-.613,3.308,10.7,10.7,0,0,1-1.422,2.722H983.824a10.7,10.7,0,0,1-1.422-2.722,11.156,11.156,0,0,1-.613-3.308c-.009-.112-.009-.223-.009-.334a10.856,10.856,0,0,1,1.394-5.352,10.971,10.971,0,0,1,20.544,5.352Z" transform="translate(-1.245 -1.029)" fill="none" stroke="#0168ff" stroke-miterlimit="10" stroke-width="1"/>
    <g transform="matrix(1, 0, 0, 1, 954.71, 886.73)" filter="url(#Path_76325)">
      <path id="Path_76325-2" data-name="Path 76325" d="M1014.737,898.531v26.211a2.312,2.312,0,0,1-2.314,2.3h-9.087a13.675,13.675,0,0,0,1.1-2.722,13,13,0,0,0,.492-3.308c.009-.112.009-.223.009-.334a13.431,13.431,0,0,0-26.862,0c0,.111,0,.223.009.334a12.54,12.54,0,0,0,.5,3.308,13.165,13.165,0,0,0,1.106,2.722H966.514a2.3,2.3,0,0,1-2.3-2.3V898.531a2.3,2.3,0,0,1,2.3-2.3h45.909A2.312,2.312,0,0,1,1014.737,898.531Z" transform="translate(-954.71 -886.73)" fill="none" stroke="#0168ff" stroke-miterlimit="10" stroke-width="1"/>
    </g>
  </g>
</svg>
