<svg xmlns="http://www.w3.org/2000/svg" xmlns:xlink="http://www.w3.org/1999/xlink" width="68.217" height="64.004" viewBox="0 0 68.217 64.004">
  <defs>
    <filter id="Path_142250" x="0" y="0" width="68.217" height="64.004" filterUnits="userSpaceOnUse">
      <feOffset input="SourceAlpha"/>
      <feGaussianBlur stdDeviation="3" result="blur"/>
      <feFlood flood-color="#257bf8"/>
      <feComposite operator="in" in2="blur"/>
      <feComposite in="SourceGraphic"/>
    </filter>
  </defs>
  <g transform="matrix(1, 0, 0, 1, 0, 0)" filter="url(#Path_142250)">
    <path id="Path_142250-2" data-name="Path 142250" d="M1438.112,777.155a.405.405,0,0,0-.464-.278,47.3,47.3,0,0,0-9.6,3.237,42.194,42.194,0,0,0-4.05,2.133,48.007,48.007,0,0,0-8.935-11.542.4.4,0,0,0-.541,0,47.246,47.246,0,0,0-6.585,7.7,42.362,42.362,0,0,0-2.35,3.841,42.1,42.1,0,0,0-4.047-2.132,47.317,47.317,0,0,0-9.6-3.237.4.4,0,0,0-.463.278c-.037.116-3.633,11.8-.526,22.327,2.984,10.1,10.874,15.8,23.439,16.984.034.025.067.05.1.075a.409.409,0,0,0,.219.064,1.63,1.63,0,0,0,.234-.019.388.388,0,0,0,.18-.072c.022-.015.041-.031.062-.046,12.572-1.179,20.466-6.885,23.45-16.985C1441.745,788.957,1438.149,777.271,1438.112,777.155Zm-23.32-5.594a47.714,47.714,0,0,1,8.506,11.112,29.014,29.014,0,0,0-8.505,7.865,28.979,28.979,0,0,0-8.5-7.863A47.576,47.576,0,0,1,1414.792,771.562Zm.009,44.135h-.015l-.032-.075c-3.718-8.648-3.91-16.228-.572-22.528q.291-.548.612-1.072c.212.349.416.7.609,1.068,3.34,6.3,3.147,13.881-.569,22.529Zm-1.334-22.986c-3.315,6.254-3.279,13.69.086,22.115-6.866-5.317-10.524-11.423-10.868-18.17a26.352,26.352,0,0,1,3.224-13.249,27.631,27.631,0,0,1,8.4,7.865C1414.015,791.739,1413.729,792.215,1413.467,792.711Zm2.652,0c-.262-.5-.548-.972-.844-1.438a27.67,27.67,0,0,1,8.413-7.869,30.92,30.92,0,0,1,2.484,6.406,25.461,25.461,0,0,1,.661,3.725c.857,7.814-2.759,15.049-10.792,21.271C1419.4,806.39,1419.432,798.96,1416.119,792.711Zm-24.393,6.542c-2.735-9.267-.146-19.486.418-21.5a47.491,47.491,0,0,1,13.06,5.221,27.412,27.412,0,0,0-3.331,13.721c.356,7.014,4.14,13.337,11.24,18.817C1401.7,814.09,1394.5,808.633,1391.727,799.253Zm46.132,0c-2.773,9.386-9.977,14.843-21.4,16.26,9.494-7.315,13.037-16.021,10.5-25.905a31.781,31.781,0,0,0-2.575-6.632,47.493,47.493,0,0,1,13.059-5.223C1438.006,779.767,1440.595,789.985,1437.859,799.253Z" transform="translate(-1380.68 -761.6)" fill="#2d6af5"/>
  </g>
</svg>
