<svg xmlns="http://www.w3.org/2000/svg" xmlns:xlink="http://www.w3.org/1999/xlink" width="26.95" height="21.509" viewBox="0 0 26.95 21.509">
  <defs>
    <linearGradient id="linear-gradient" x1="0.003" y1="0.965" x2="0.977" y2="0.069" gradientUnits="objectBoundingBox">
      <stop offset="0" stop-color="#ffffff"/>
      <stop offset="0.138" stop-color="#ffffff"/>
      <stop offset="0.442" stop-color="#ffffff"/>
      <stop offset="0.522" stop-color="#ffffff"/>
      <stop offset="1" stop-color="#ffffff"/>
    </linearGradient>
  </defs>
  <path id="Path_76508" data-name="Path 76508" d="M-2689.316,1016.164h-11.024l-.041-.311a1,1,0,0,1,.3-.949c.4-.365.793-.751,1.175-1.124.234-.229.469-.458.705-.684a.386.386,0,0,0,.135-.315q0-4.648,0-9.3v-.776q-2.56,6.5-5.117,13a.576.576,0,0,1-.637.408,1.92,1.92,0,0,0-.37,0,.562.562,0,0,1-.6-.362q-.78-1.717-1.567-3.429l-4.521-9.861v.488q0,3.858,0,7.717v.039a2.815,2.815,0,0,0,.041.605.9.9,0,0,0,.184.35c.776.953,1.7,2.08,2.656,3.213a1.138,1.138,0,0,1,.24.9l-.022.333h-8.447l-.03-.325a1.135,1.135,0,0,1,.238-.91c.7-.825,1.382-1.659,2.067-2.493l.571-.7a.961.961,0,0,0,.224-.759,2.3,2.3,0,0,1-.012-.253v-2.4q0-4.445.007-8.889a1.146,1.146,0,0,0-.3-.824c-.4-.459-.783-.927-1.17-1.395-.341-.414-.683-.827-1.031-1.234a1.1,1.1,0,0,1-.258-.967l.048-.284.333-.016c.043,0,.086,0,.129,0h1.513q2.87,0,5.75,0h0a.572.572,0,0,1,.561.368q2.521,5.54,5.046,11.076l.4.88q2.394-5.972,4.784-11.944a.545.545,0,0,1,.536-.38h0q2.752.006,5.5,0h1.449c.035,0,.07,0,.109,0l.349.017.035.3a.992.992,0,0,1-.3.944c-.462.419-.921.862-1.364,1.291-.187.18-.372.359-.559.538a.269.269,0,0,0-.091.225c0,.1.006.2.006.3v14.25c0,.093,0,.186-.005.279v.04a.281.281,0,0,0,.1.229l.773.756q.605.594,1.213,1.184a.721.721,0,0,1,.2.617.533.533,0,0,0,0,.1Zm-10.3-.715h9.44c-.375-.35-.758-.726-1.143-1.1l-.773-.756a1,1,0,0,1-.31-.761v-.041c0-.086,0-.171,0-.258v-14.25c0-.094,0-.187-.006-.281a.986.986,0,0,1,.312-.765q.279-.266.556-.535c.448-.432.911-.88,1.381-1.307l.021-.019h-1.179q-2.7,0-5.4,0-2.4,6-4.793,11.961l-.576,1.421-.39-.8c-.024-.049-.044-.09-.063-.131l-.652-1.43q-2.513-5.512-5.023-11.025-2.85.006-5.685,0h-1.286a.534.534,0,0,0,.065.092c.351.41.7.827,1.04,1.244.383.464.766.928,1.16,1.382a1.868,1.868,0,0,1,.473,1.294q-.012,4.443-.007,8.887v2.405a1.5,1.5,0,0,0,.007.169,1.664,1.664,0,0,1-.382,1.3l-.571.694c-.687.837-1.375,1.673-2.073,2.5a.368.368,0,0,0-.042.058h7.008a.411.411,0,0,0-.039-.053c-.96-1.137-1.886-2.267-2.665-3.223a1.618,1.618,0,0,1-.327-.646,3.423,3.423,0,0,1-.058-.762v-.039q0-3.858,0-7.717v-2.746l.572.428a.686.686,0,0,1,.219.279l5.095,11.113q.772,1.684,1.541,3.37a2.578,2.578,0,0,1,.334,0q2.611-6.643,5.205-13.225l.491-1.247c.015-.039.032-.077.049-.115l.25-.587.374.454a.454.454,0,0,1,.11.3v2.5q0,4.647,0,9.294a1.093,1.093,0,0,1-.356.832c-.235.225-.467.452-.7.679-.385.377-.785.767-1.19,1.14Z" transform="translate(2716.267 -994.654)" fill="url(#linear-gradient)"/>
</svg>
