<svg id="Group_36807" data-name="Group 36807" xmlns="http://www.w3.org/2000/svg" xmlns:xlink="http://www.w3.org/1999/xlink" width="30.053" height="28.844" viewBox="0 0 30.053 28.844">
  <defs>
    <linearGradient id="linear-gradient" x1="0.178" y1="0.915" x2="0.874" y2="0.19" gradientUnits="objectBoundingBox">
      <stop offset="0" stop-color="#ffffff"/>
      <stop offset="0.138" stop-color="#ffffff"/>
      <stop offset="0.442" stop-color="#ffffff"/>
      <stop offset="0.522" stop-color="#ffffff"/>
      <stop offset="1" stop-color="#ffffff"/>
    </linearGradient>
    <linearGradient id="linear-gradient-2" x1="-0.635" y1="1.623" x2="3.024" y2="-1.991" xlink:href="#linear-gradient"/>
    <linearGradient id="linear-gradient-3" x1="-0.078" y1="2.588" x2="1.793" y2="-5.087" xlink:href="#linear-gradient"/>
    <linearGradient id="linear-gradient-4" x1="-1.575" y1="2.549" x2="2.085" y2="-1.066" xlink:href="#linear-gradient"/>
  </defs>
  <path id="Path_76503" data-name="Path 76503" d="M-2605.03,1014.565c-7.374,0-13.373-4.443-13.373-9.9a7.742,7.742,0,0,1,.108-1.32,3.711,3.711,0,0,1-1.684-4.071,3.632,3.632,0,0,1,3.574-2.833,3.7,3.7,0,0,1,2.408.9,16.412,16.412,0,0,1,8-2.536l1.8-8.274a1.078,1.078,0,0,1,.5-.669.93.93,0,0,1,.712-.1l5.673,1.276a2.86,2.86,0,0,1,2.385-1.315,2.893,2.893,0,0,1,2.87,2.908,2.893,2.893,0,0,1-2.872,2.908,2.858,2.858,0,0,1-2.82-2.531l-4.693-1.069-1.5,6.876a16.113,16.113,0,0,1,7.873,2.5,3.666,3.666,0,0,1,2.371-.875h0a3.642,3.642,0,0,1,3.572,2.824,3.7,3.7,0,0,1-1.617,4.043,6.919,6.919,0,0,1,.128,1.356C-2591.626,1010.122-2597.639,1014.565-2605.03,1014.565ZM-2616.4,997.3a2.756,2.756,0,0,0-2.74,2.175,2.837,2.837,0,0,0,1.525,3.266l.3.151-.073.325a6.677,6.677,0,0,0-.15,1.449c0,4.988,5.615,9.046,12.516,9.046,6.918,0,12.546-4.058,12.546-9.046a5.629,5.629,0,0,0-.175-1.455l-.091-.334.307-.16a2.819,2.819,0,0,0,1.473-3.247,2.765,2.765,0,0,0-2.739-2.171,2.837,2.837,0,0,0-2.026.865l-.255.258-.3-.209a15.258,15.258,0,0,0-8.208-2.564l-.515-.017,1.907-8.72,6.183,1.409v.342a2,2,0,0,0,1.983,2.02,2.035,2.035,0,0,0,2.014-2.051,2.035,2.035,0,0,0-2.013-2.051,2.056,2.056,0,0,0-1.792,1.141l-.152.3-6.319-1.421a.087.087,0,0,0-.078.007.216.216,0,0,0-.092.128l-1.938,8.9-.33.014a15.494,15.494,0,0,0-8.162,2.6l-.3.212-.255-.269A2.838,2.838,0,0,0-2616.4,997.3Z" transform="translate(2620.082 -985.721)" fill="url(#linear-gradient)"/>
  <path id="Path_76504" data-name="Path 76504" d="M-2598.805,1031.585a2.83,2.83,0,0,1-2.007-.831,2.867,2.867,0,0,1-.85-2.047,2.894,2.894,0,0,1,2.872-2.909,2.879,2.879,0,0,1,2.842,2.909,2.863,2.863,0,0,1-2.842,2.877Zm.015-4.929a2.012,2.012,0,0,0-2.015,2.052,2.015,2.015,0,0,0,.6,1.439,2.012,2.012,0,0,0,1.416.581,2.005,2.005,0,0,0,1.986-2.02A2.021,2.021,0,0,0-2598.79,1026.656Z" transform="translate(2608.474 -1010.978)" fill="url(#linear-gradient-2)"/>
  <path id="Path_76505" data-name="Path 76505" d="M-2583.563,1047.715c-2.24,2.272-8.562,2.272-10.8,0a.587.587,0,0,1,0-.856.584.584,0,0,1,.812,0c1.711,1.78,7.386,1.81,9.172,0a.585.585,0,0,1,.813,0A.583.583,0,0,1-2583.563,1047.715Z" transform="translate(2603.992 -1024.147)" fill="url(#linear-gradient-3)"/>
  <path id="Path_76506" data-name="Path 76506" d="M-2569.812,1031.6a2.861,2.861,0,0,1-2.84-2.876,2.878,2.878,0,0,1,2.84-2.908,2.893,2.893,0,0,1,2.872,2.908A2.886,2.886,0,0,1-2569.812,1031.6Zm0-4.926a2.02,2.02,0,0,0-1.983,2.051,2,2,0,0,0,1.983,2.019,2.026,2.026,0,0,0,2.015-2.021A2.011,2.011,0,0,0-2569.812,1026.677Z" transform="translate(2590.191 -1010.992)" fill="url(#linear-gradient-4)"/>
</svg>
