<svg xmlns="http://www.w3.org/2000/svg" xmlns:xlink="http://www.w3.org/1999/xlink" width="31.729" height="21.968" viewBox="0 0 31.729 21.968">
  <defs>
    <linearGradient id="linear-gradient" x1="0.178" y1="1.027" x2="0.804" y2="0.124" gradientUnits="objectBoundingBox">
      <stop offset="0" stop-color="#ffffff"/>
      <stop offset="0.138" stop-color="#ffffff"/>
      <stop offset="0.442" stop-color="#ffffff"/>
      <stop offset="0.522" stop-color="#ffffff"/>
      <stop offset="1" stop-color="#ffffff"/>
    </linearGradient>
  </defs>
  <path id="Path_76500" data-name="Path 76500" d="M-2517.514,1015.133h-.009c-6-.143-8.212-3.827-8.3-3.984a.392.392,0,0,1-.052-.194,33.2,33.2,0,0,1,3.9-14.93.394.394,0,0,1,.106-.118,13.238,13.238,0,0,1,7.657-2.74.385.385,0,0,1,.37.385v.967a24.007,24.007,0,0,1,7.752.112V993.59a.385.385,0,0,1,.114-.273.4.4,0,0,1,.272-.112,13.274,13.274,0,0,1,7.529,2.72.387.387,0,0,1,.1.116,33.1,33.1,0,0,1,3.925,14.931.385.385,0,0,1-.244.358l-.152.155a11.123,11.123,0,0,1-8.233,3.5.392.392,0,0,1-.3-.13c-.041-.047-1.011-1.148-1.72-2.13l-.318-.449c-.461.115-.922.216-1.371.315l-.03.007a19.188,19.188,0,0,1-8.483-.355l-.5.638c-.856.983-1.706,2.092-1.714,2.1A.386.386,0,0,1-2517.514,1015.133Zm-7.6-4.289c.352.534,2.423,3.324,7.411,3.513.268-.346.941-1.2,1.61-1.969l.642-.827a.385.385,0,0,1,.412-.133,18.349,18.349,0,0,0,8.375.41l.009,0c.525-.116,1.069-.236,1.6-.375a.386.386,0,0,1,.412.15l.469.662c.543.753,1.271,1.607,1.553,1.933a10.356,10.356,0,0,0,7.517-3.258c.068-.07.125-.13.178-.18A32.39,32.39,0,0,0-2498.7,996.5a12.968,12.968,0,0,0-6.625-2.509V995.1a.384.384,0,0,1-.141.3.385.385,0,0,1-.319.08,23.254,23.254,0,0,0-8.384-.124.384.384,0,0,1-.312-.086.386.386,0,0,1-.136-.294v-1.023a13.169,13.169,0,0,0-6.737,2.535A32.443,32.443,0,0,0-2525.109,1010.844Zm30.279.374a.317.317,0,0,0,.036.038A.331.331,0,0,1-2494.83,1011.218Zm0,0h0Zm-10.417-2.4a3.145,3.145,0,0,1-3.093-3.187,3.155,3.155,0,0,1,3.023-3.192.371.371,0,0,1,.07-.007,3.144,3.144,0,0,1,3.092,3.187A3.15,3.15,0,0,1-2505.249,1008.82Zm.061-5.615a.394.394,0,0,1-.061,0,2.383,2.383,0,0,0-2.324,2.424,2.375,2.375,0,0,0,2.324,2.417,2.38,2.38,0,0,0,2.322-2.429A2.377,2.377,0,0,0-2505.187,1003.2Zm-9.758,5.615a3.145,3.145,0,0,1-3.094-3.187,3.15,3.15,0,0,1,3.039-3.193.352.352,0,0,1,.064-.006,3.141,3.141,0,0,1,3.084,3.187A3.151,3.151,0,0,1-2514.945,1008.82Zm.059-5.616a.339.339,0,0,1-.059.005,2.378,2.378,0,0,0-2.324,2.423,2.375,2.375,0,0,0,2.324,2.417,2.381,2.381,0,0,0,2.324-2.429A2.373,2.373,0,0,0-2514.886,1003.2Z" transform="translate(2525.879 -993.165)" fill="url(#linear-gradient)"/>
</svg>
