<svg xmlns="http://www.w3.org/2000/svg" xmlns:xlink="http://www.w3.org/1999/xlink" width="22.412" height="24.123" viewBox="0 0 22.412 24.123">
  <defs>
    <linearGradient id="linear-gradient" x1="0.136" y1="0.781" x2="0.855" y2="0.113" gradientUnits="objectBoundingBox">
      <stop offset="0" stop-color="#ffffff"/>
      <stop offset="0.138" stop-color="#ffffff"/>
      <stop offset="0.442" stop-color="#ffffff"/>
      <stop offset="0.522" stop-color="#ffffff"/>
      <stop offset="1" stop-color="#ffffff"/>
    </linearGradient>
  </defs>
  <path id="Path_76501" data-name="Path 76501" d="M-2394.887,1016.933h-7.865a.385.385,0,0,1-.311-.158.384.384,0,0,1-.055-.343.472.472,0,0,0,.022-.144c0-.164,0-.448-.006-.828s-.008-.826-.011-1.349a5.041,5.041,0,0,1-4.168-.855,3.648,3.648,0,0,1-1.13-1.558,3.873,3.873,0,0,0-1.56-2.054.5.5,0,0,1-.051-.028c-.426-.287-.9-.675-.752-1.135s.806-.511,1.082-.509a3.675,3.675,0,0,1,2.748,1.8,2.906,2.906,0,0,0,3.92,1.206,4.093,4.093,0,0,1,.588-1.516c-3.117-.469-6.819-1.955-6.819-7.956a6.274,6.274,0,0,1,1.565-4.244,5.949,5.949,0,0,1,.225-4.168.385.385,0,0,1,.242-.224c.15-.047,1.541-.4,4.524,1.542a15.789,15.789,0,0,1,3.878-.494,15.791,15.791,0,0,1,3.883.493c2.966-1.943,4.355-1.59,4.507-1.542a.385.385,0,0,1,.241.224,6.134,6.134,0,0,1,.24,4.163,6.3,6.3,0,0,1,1.563,4.249c0,6-3.706,7.481-6.828,7.944a4.527,4.527,0,0,1,.689,2.582c0,1.392-.009,2.6-.014,3.4,0,.392,0,.684,0,.85a.472.472,0,0,0,.024.152.384.384,0,0,1-.053.345A.384.384,0,0,1-2394.887,1016.933Zm-7.442-.767h7.016c0-.174,0-.426.005-.744.006-.8.014-2,.014-3.394a3.392,3.392,0,0,0-.929-2.578.381.381,0,0,1-.12-.405.383.383,0,0,1,.326-.269c3.392-.369,6.861-1.521,6.861-7.274a5.563,5.563,0,0,0-1.515-3.9.382.382,0,0,1-.075-.4,5.145,5.145,0,0,0-.08-3.615c-.416-.015-1.649.1-3.833,1.561a.382.382,0,0,1-.314.051,14.924,14.924,0,0,0-3.85-.511,14.935,14.935,0,0,0-3.844.511.384.384,0,0,1-.313-.051c-2.19-1.456-3.424-1.574-3.852-1.56a4.962,4.962,0,0,0-.066,3.6.382.382,0,0,1-.069.42,5.54,5.54,0,0,0-1.522,3.9c0,5.786,3.661,6.934,6.851,7.287a.384.384,0,0,1,.324.268.382.382,0,0,1-.116.4,2.872,2.872,0,0,0-.87,1.839.383.383,0,0,1-.226.3,3.81,3.81,0,0,1-5.083-1.447,2.943,2.943,0,0,0-2.114-1.412,1.215,1.215,0,0,0-.176.013,2.84,2.84,0,0,0,.285.217,4.619,4.619,0,0,1,1.917,2.457.275.275,0,0,1,.01.03c.034.108.9,2.666,4.872,1.82a.385.385,0,0,1,.321.076.385.385,0,0,1,.143.3c0,.715.009,1.333.013,1.805C-2402.333,1015.754-2402.33,1016-2402.33,1016.166Z" transform="translate(2410.801 -992.81)" fill="url(#linear-gradient)"/>
</svg>
