<svg xmlns="http://www.w3.org/2000/svg" xmlns:xlink="http://www.w3.org/1999/xlink" width="29.47" height="24.69" viewBox="0 0 29.47 24.69">
  <defs>
    <linearGradient id="linear-gradient" x1="0.353" y1="0.786" x2="0.938" y2="0.089" gradientUnits="objectBoundingBox">
      <stop offset="0" stop-color="#ffffff"/>
      <stop offset="0.138" stop-color="#ffffff"/>
      <stop offset="0.442" stop-color="#ffffff"/>
      <stop offset="0.522" stop-color="#ffffff"/>
      <stop offset="1" stop-color="#ffffff"/>
    </linearGradient>
  </defs>
  <path id="Path_76502" data-name="Path 76502" d="M-2291.411,1021.977a2.614,2.614,0,0,1-1.25-.379.33.33,0,0,1-.041-.026l-6.335-4.639-2.949,2.817a2.02,2.02,0,0,1-1.594.75.389.389,0,0,1-.284-.124.387.387,0,0,1-.1-.292l.474-6.676a.389.389,0,0,1,.128-.261l11.744-10.546-14.994,9.382a.385.385,0,0,1-.321.042l-6.508-2.025c-1.114-.345-1.3-.926-1.309-1.241-.013-.354.176-1.028,1.579-1.572l25.457-9.746a1.793,1.793,0,0,1,1.848.219,2.19,2.19,0,0,1,.495,2.274l0,.019-4.326,20.274a2.147,2.147,0,0,1-1.091,1.623A1.5,1.5,0,0,1-2291.411,1021.977Zm-.852-1.046a1.42,1.42,0,0,0,1.153.209,1.533,1.533,0,0,0,.649-1.081l4.33-20.287c0-.006,0-.013,0-.018a1.572,1.572,0,0,0-.247-1.507,1.05,1.05,0,0,0-1.068-.081l-25.451,9.745c-.867.337-1.088.684-1.083.821s.243.366.764.528l6.338,1.971,14.964-9.363c.582-.385,1.231-.412,1.5-.057.056.074.315.469-.214.937l-12.108,10.873-.429,6.043a1.677,1.677,0,0,0,.631-.468l3.19-3.047a.388.388,0,0,1,.5-.033Zm6.511-21.078h0Z" transform="translate(2314.751 -997.287)" fill="url(#linear-gradient)"/>
</svg>
