<svg xmlns="http://www.w3.org/2000/svg" xmlns:xlink="http://www.w3.org/1999/xlink" width="30.457" height="24.913" viewBox="0 0 30.457 24.913">
  <defs>
    <linearGradient id="linear-gradient" x1="0.019" y1="0.89" x2="0.838" y2="-0.112" gradientUnits="objectBoundingBox">
      <stop offset="0" stop-color="#ffffff"/>
      <stop offset="0.138" stop-color="#ffffff"/>
      <stop offset="0.442" stop-color="#ffffff"/>
      <stop offset="0.522" stop-color="#ffffff"/>
      <stop offset="1" stop-color="#ffffff"/>
    </linearGradient>
  </defs>
  <path id="Path_76507" data-name="Path 76507" d="M-2203.995,1024.377a17.558,17.558,0,0,1-9.54-2.791.442.442,0,0,1-.176-.524.445.445,0,0,1,.472-.287,10.855,10.855,0,0,0,1.4.079,11.821,11.821,0,0,0,6.314-1.836,6.576,6.576,0,0,1-4.884-4.391.444.444,0,0,1,.093-.436.443.443,0,0,1,.424-.135,4.148,4.148,0,0,0,.7.086,6.552,6.552,0,0,1-3.363-5.706v-.067a.445.445,0,0,1,.218-.381.443.443,0,0,1,.439-.007,5.688,5.688,0,0,0,1.062.452,6.491,6.491,0,0,1-1.672-4.355,6.5,6.5,0,0,1,.889-3.286.444.444,0,0,1,.348-.22.44.44,0,0,1,.379.162,16.8,16.8,0,0,0,11.62,6.142,7.519,7.519,0,0,1-.052-.9,6.512,6.512,0,0,1,6.5-6.507,6.546,6.546,0,0,1,4.576,1.878,11.629,11.629,0,0,0,3.47-1.365.442.442,0,0,1,.5.034.441.441,0,0,1,.147.481,6.418,6.418,0,0,1-1.423,2.436,11.869,11.869,0,0,0,1.649-.582.444.444,0,0,1,.519.122.443.443,0,0,1,.027.531,12.589,12.589,0,0,1-2.953,3.119c.008.2.012.388.012.565a18.291,18.291,0,0,1-4.555,11.922A16.965,16.965,0,0,1-2203.995,1024.377Zm-7.492-2.642a16.733,16.733,0,0,0,7.492,1.756,16.1,16.1,0,0,0,12.479-5.472,17.4,17.4,0,0,0,4.333-11.336c0-.228-.007-.47-.021-.761a.445.445,0,0,1,.186-.384,11.336,11.336,0,0,0,2.023-1.848,13.3,13.3,0,0,1-2.166.458.442.442,0,0,1-.475-.295.443.443,0,0,1,.192-.525,5.624,5.624,0,0,0,1.974-1.986,12.735,12.735,0,0,1-2.838.918.444.444,0,0,1-.41-.132,5.655,5.655,0,0,0-4.1-1.778,5.625,5.625,0,0,0-5.615,5.621,5.752,5.752,0,0,0,.13,1.284.444.444,0,0,1-.093.383.439.439,0,0,1-.361.157,17.664,17.664,0,0,1-12.381-5.988,5.565,5.565,0,0,0-.479,2.269,5.608,5.608,0,0,0,2.5,4.67.444.444,0,0,1,.177.5.43.43,0,0,1-.432.311,6.309,6.309,0,0,1-2.25-.47,5.658,5.658,0,0,0,4.465,4.87.443.443,0,0,1,.354.42.444.444,0,0,1-.326.442,6.484,6.484,0,0,1-1.707.216c-.164,0-.315,0-.458-.012a5.668,5.668,0,0,0,4.985,3.245.442.442,0,0,1,.411.3.442.442,0,0,1-.147.489A12.7,12.7,0,0,1-2211.487,1021.734Z" transform="translate(2213.737 -999.464)" fill="url(#linear-gradient)"/>
</svg>
