<svg id="Layer_1" data-name="Layer 1" xmlns="http://www.w3.org/2000/svg" viewBox="0 0 94.47 71.47"><defs><style>.cls-1{fill:#ffffff;}</style></defs><path class="cls-1" d="M47.24,71.47c-.22,0-24.67-.32-32.11-1.15a5.49,5.49,0,0,1-.86-.1,3.07,3.07,0,0,0-.53-.06c-2.82-.2-6.31-.84-9.15-4C2.3,63.65,1.15,58,1,56.21l0-.42A157.56,157.56,0,0,1,0,39.68V32A159.73,159.73,0,0,1,1,15.39c.15-1.72,1.29-7.37,3.57-10a12.24,12.24,0,0,1,8.9-4.21h.59C27.17.16,47.06,0,47.24,0S67.3.16,80.5,1.15h.68A11.91,11.91,0,0,1,89.9,5.37c1.5,1.74,2.7,5.09,3.56,10h0a130.27,130.27,0,0,1,1,16.64v7.72a159.73,159.73,0,0,1-1,16.57q-1.31,7.41-3.76,10.06A12,12,0,0,1,81,70.48h-.61C67.47,71.46,48.06,71.47,47.24,71.47ZM13.86,67.66a4.82,4.82,0,0,1,.82.1,3.07,3.07,0,0,0,.53.06h.14C22.49,68.64,47,69,47.25,69c.81,0,20.12,0,33.07-1h.52a9.51,9.51,0,0,0,7-3.34c.76-.83,2.14-3,3.16-8.77a157.94,157.94,0,0,0,1-16.2V32a139.85,139.85,0,0,0-.92-16l0,0,0-.19C90,10,88.68,7.79,88,7a9.48,9.48,0,0,0-7-3.35h-.6c-13.15-1-33-1.15-33.17-1.15s-20,.16-33.09,1.15h-.53A9.78,9.78,0,0,0,6.45,7c-1.72,2-2.82,7-3,8.63A159.45,159.45,0,0,0,2.5,32v7.72a152,152,0,0,0,.94,15.85c0,.21,0,.36,0,.46h0c.15,1.65,1.25,6.6,3,8.46a10.12,10.12,0,0,0,7.39,3.21Z"/><path class="cls-1" d="M39,55a2.25,2.25,0,0,1-1.26-.3l-.13-.09a2.75,2.75,0,0,1-1.16-2.28V21.62a2.77,2.77,0,0,1,1.16-2.29,2.37,2.37,0,0,1,2.78,0L65,35a2.81,2.81,0,0,1,.06,4.62l-24.8,15A2.29,2.29,0,0,1,39,55Zm0-2.5H39L63.7,37.52a.25.25,0,0,0,.06-.2.26.26,0,0,0-.14-.26L39,21.42a.28.28,0,0,0-.06.2V52.3A.31.31,0,0,0,39,52.47Z"/></svg>