<svg xmlns="http://www.w3.org/2000/svg" width="222.25" height="53.914" viewBox="0 0 222.25 53.914">
  <g id="Group_65812" data-name="Group 65812" transform="translate(-4447.801 -325.719)">
    <g id="Group_65792" data-name="Group 65792" transform="translate(4447.801 325.718)">
      <path id="Path_183371" data-name="Path 183371" d="M4465.816,379.632a30.755,30.755,0,0,0-3.109-.594c-5.525-1.375-10.1-4.084-12.879-9.248a18.957,18.957,0,0,1-1.931-10.81c.619-7.294,4.062-13.357,8.577-18.875a41.084,41.084,0,0,1,15.111-11.725,28.832,28.832,0,0,1,13.45-2.621,15.969,15.969,0,0,1,13.031,7.741,49.919,49.919,0,0,1,2.808,5.667.938.938,0,0,1-.588,1.105,11.54,11.54,0,0,0-5.931.768,12.835,12.835,0,0,0-3.129,2.026,43.781,43.781,0,0,0-1.71-4.865,13.788,13.788,0,0,0-3.246-4.879,7.531,7.531,0,0,0-7.486-1.5,15.862,15.862,0,0,0-7.685,5.082,47.924,47.924,0,0,0-10.306,18.006,22.015,22.015,0,0,0-.648,12.291c.851,3.2,2.822,5.357,6.189,5.947a11.42,11.42,0,0,0,7.077-1.324,32.669,32.669,0,0,0,7.9-5.739,61.022,61.022,0,0,0,7.75-9c.327-.453.491-.6.9-.023a10.516,10.516,0,0,0,6.137,4.123c.142.037.28.093.42.141a1.227,1.227,0,0,1,.382.786,23.862,23.862,0,0,1,.791,2.937,1.164,1.164,0,0,1-.334.488,55.607,55.607,0,0,1-11.922,9.7,31.4,31.4,0,0,1-12.153,4.208c-.785.1-1.584.028-2.366.184h-.3c-.276-.158-.578-.041-.865-.077a24.653,24.653,0,0,0-3.031.077Z" transform="translate(-4447.801 -325.718)" fill="#00cbf9"/>
      <path id="Path_183372" data-name="Path 183372" d="M4773.121,547.046c-.283-1.275-.812-2.482-1.033-3.774a11.311,11.311,0,0,0,7.1-1.148,12.069,12.069,0,0,0,2.924-2.3c.7,1.7,1.163,3.424,1.684,5.125a33.671,33.671,0,0,0,2.328,5.969,9.261,9.261,0,0,0,7.6,4.977,28.339,28.339,0,0,0,6.115-.159v.15a11.569,11.569,0,0,1-4.433,3.918c-2.664,1.575-5.59,1.777-8.607,1.652a12.765,12.765,0,0,1-8.351-3.735,15.591,15.591,0,0,1-3.555-5.319,47.539,47.539,0,0,1-1.7-4.557A1.151,1.151,0,0,1,4773.121,547.046Z" transform="translate(-4723.375 -507.664)" fill="#fe0f2d"/>
      <path id="Path_183373" data-name="Path 183373" d="M4573.717,683.655a12.177,12.177,0,0,1,3.165-.13c.036.034.045.065.028.092s-.031.038-.045.038Z" transform="translate(-4554.802 -629.742)" fill="#3ed8fb"/>
      <path id="Path_183374" data-name="Path 183374" d="M4594.669,683.72a1.158,1.158,0,0,1,.017-.13c.248.023.53-.146.732.13Z" transform="translate(-4572.607 -629.807)" fill="#8be5fc"/>
      <path id="Path_183375" data-name="Path 183375" d="M4797.2,352c.171-.381.508-.675.587-1.105,2.244-3.536,4.5-7.065,6.719-10.617a1.412,1.412,0,0,1,1.383-.758c4.046.029,8.092.017,12.139.011.46,0,.748-.006.375.577q-6.221,9.738-12.416,19.494a2.611,2.611,0,0,1-.187.224c-.091-.254-.167-.471-.248-.687a10.579,10.579,0,0,0-8.005-7.016A2.973,2.973,0,0,1,4797.2,352Z" transform="translate(-4744.716 -337.45)" fill="#5cc320"/>
      <path id="Path_183376" data-name="Path 183376" d="M4760.2,462.162a5.494,5.494,0,0,1-5.436,5.43,5.552,5.552,0,0,1-5.453-5.512,5.445,5.445,0,0,1,10.889.082Z" transform="translate(-4704.023 -437.036)" fill="#fed200"/>
    </g>
    <text id="AlphaWallet" transform="translate(4528.051 359.534)" fill="#fff" font-size="28" font-family="MyriadPro-Regular, Myriad Pro"><tspan x="0" y="0">AlphaWallet</tspan></text>
  </g>
</svg>
