<svg xmlns="http://www.w3.org/2000/svg" width="222.493" height="44.486" viewBox="0 0 222.493 44.486">
  <g id="Group_65813" data-name="Group 65813" transform="translate(3620.039 4229.428)">
    <path id="Path_183289" data-name="Path 183289" d="M-3292.688-4194.317v.378q0,5.715.006,11.428c0,.3-.055.412-.383.4-.721-.027-1.445-.019-2.167,0-.256.005-.311-.082-.311-.323q.01-7.7,0-15.4c0-.23.061-.3.295-.3,1.066.012,2.132.014,3.2,0a.5.5,0,0,1,.476.277q3.66,5.617,7.33,11.228a.87.87,0,0,0,.3.354v-.4c0-3.69,0-7.381-.009-11.072,0-.325.092-.393.4-.383.7.023,1.4.022,2.1,0,.291-.008.378.063.376.366-.016,1.644-.008,3.289-.008,4.933,0,3.442,0,6.885.007,10.327,0,.3-.057.409-.384.4-.971-.023-1.942-.017-2.913,0a.525.525,0,0,1-.51-.284q-3.743-5.818-7.5-11.625c-.07-.108-.141-.215-.211-.322Z" transform="translate(-176.944 -17.061)" fill="#fefefe"/>
    <path id="Path_183290" data-name="Path 183290" d="M-3201.895-4190.127c0-2.543.007-5.087-.009-7.631,0-.327.1-.389.4-.38.71.022,1.422.019,2.132,0,.261-.007.339.058.337.329-.013,1.87-.008,3.739-.006,5.608,0,.5-.056.445.463.446q3.288,0,6.574,0c.466,0,.466,0,.466-.45q0-2.733,0-5.466c0-.546-.054-.457.479-.461.663,0,1.327.016,1.99-.009.311-.012.394.071.393.388-.012,4.046-.008,8.092-.008,12.138,0,1.065-.007,2.13,0,3.194,0,.237-.073.306-.3.3-.722-.011-1.445-.019-2.167,0-.306.009-.4-.069-.4-.39.016-2.094,0-4.189.016-6.283,0-.327-.088-.409-.411-.407q-3.375.021-6.752,0c-.273,0-.358.062-.356.348.012,2.118,0,4.236.013,6.354,0,.29-.068.387-.37.376-.686-.022-1.374-.025-2.06,0-.332.012-.438-.063-.436-.419C-3201.886-4185.063-3201.895-4187.6-3201.895-4190.127Z" transform="translate(-228.004 -17.061)" fill="#fefefe"/>
    <path id="Path_183291" data-name="Path 183291" d="M-3155.009-4190.129c0-2.544,0-5.088-.006-7.632,0-.285.054-.378.362-.377q4.941.019,9.881,0c.329,0,.391.1.38.4-.022.6-.022,1.208,0,1.81.011.29-.064.379-.367.377-2.334-.013-4.668,0-7-.016-.33,0-.412.09-.406.411.021,1.029,0,2.059.009,3.089,0,.518-.066.46.445.46,2.18,0,4.36.006,6.54-.005.286,0,.394.061.382.367-.024.626-.02,1.254,0,1.881.008.269-.076.333-.34.332-2.216-.011-4.431,0-6.646-.014-.311,0-.395.071-.389.386.021,1.207.018,2.414,0,3.621,0,.284.08.351.355.35,2.488-.01,4.976,0,7.464-.013.3,0,.381.081.37.374-.022.615-.023,1.231,0,1.845.011.293-.069.377-.369.376-2.606-.012-5.213-.007-7.819-.007-.806,0-1.612-.016-2.417.007-.331.01-.438-.064-.436-.419C-3155-4185.064-3155.009-4187.6-3155.009-4190.129Z" transform="translate(-253.571 -17.061)" fill="#fefefe"/>
    <path id="Path_183292" data-name="Path 183292" d="M-3495.583-4182.117c-.391,0-.783-.022-1.172.007a.483.483,0,0,1-.57-.373c-.388-1.014-.814-2.014-1.213-3.024a.377.377,0,0,0-.413-.284q-3.18.014-6.36,0a.389.389,0,0,0-.427.308c-.392,1.026-.807,2.043-1.2,3.068a.389.389,0,0,1-.432.307q-1.262-.029-2.523,0c-.333.008-.333-.09-.219-.353q3.361-7.695,6.707-15.4a.381.381,0,0,1,.419-.273c.627.017,1.255.012,1.883,0a.356.356,0,0,1,.4.245q3.322,7.73,6.666,15.452c.13.3.037.333-.232.323C-3494.706-4182.128-3495.145-4182.117-3495.583-4182.117Zm-6.521-12.561a.611.611,0,0,0-.086.111q-1.177,3.04-2.353,6.08c-.1.262.028.266.224.266,1.446,0,2.891-.008,4.336,0,.293,0,.3-.083.207-.326-.512-1.322-1.008-2.649-1.51-3.975Z" transform="translate(-59.905 -17.064)" fill="#fefefe"/>
    <path id="Path_183293" data-name="Path 183293" d="M-3330.6-4182.12c-.415,0-.83-.016-1.243.006a.428.428,0,0,1-.494-.324c-.4-1.035-.833-2.058-1.241-3.09a.354.354,0,0,0-.387-.265q-3.2.012-6.4,0a.367.367,0,0,0-.4.289c-.392,1.026-.808,2.042-1.2,3.068a.412.412,0,0,1-.458.324c-.817-.019-1.634-.007-2.452-.008-.413,0-.414,0-.254-.369q2.376-5.457,4.753-10.915c.641-1.473,1.291-2.942,1.918-4.42a.439.439,0,0,1,.5-.314c.58.021,1.161.023,1.741,0a.463.463,0,0,1,.522.337q2.862,6.675,5.746,13.341c.3.694.6,1.39.9,2.08.086.194.066.27-.168.264C-3329.68-4182.127-3330.143-4182.12-3330.6-4182.12Zm-6.559-12.621c-.83,2.148-1.62,4.207-2.418,6.261-.116.3.081.252.242.252,1.443,0,2.886-.006,4.329.007.317,0,.277-.12.2-.33q-.585-1.518-1.159-3.041C-3336.361-4192.614-3336.747-4193.639-3337.163-4194.74Z" transform="translate(-149.85 -17.061)" fill="#fefefe"/>
    <path id="Path_183294" data-name="Path 183294" d="M-3412.308-4182.118c-.4,0-.806-.018-1.208.006a.445.445,0,0,1-.519-.34c-.394-1.025-.827-2.035-1.23-3.057a.373.373,0,0,0-.41-.283q-3.181.014-6.361,0a.393.393,0,0,0-.431.309c-.4,1.036-.815,2.065-1.213,3.1a.348.348,0,0,1-.383.271q-1.315-.018-2.63,0c-.257,0-.265-.071-.173-.281q3.382-7.745,6.75-15.5a.338.338,0,0,1,.367-.244c.627.015,1.256.02,1.883,0a.418.418,0,0,1,.463.31q2.039,4.755,4.093,9.5l2.51,5.825c.165.381.165.382-.265.383Zm-6.507-12.523c-.055.028-.071.031-.074.039q-1.2,3.086-2.4,6.172c-.089.227.054.2.185.2,1.481,0,2.961,0,4.441,0,.235,0,.256-.086.173-.28-.116-.271-.209-.552-.314-.828C-3417.47-4191.1-3418.141-4192.863-3418.815-4194.642Z" transform="translate(-105.306 -17.062)" fill="#fefefe"/>
    <path id="Path_183295" data-name="Path 183295" d="M-3239.534-4199.016a7.171,7.171,0,0,1,5.6,2.333c.141.155.138.222-.029.341-.6.425-1.193.855-1.772,1.3a.289.289,0,0,1-.469-.038,4,4,0,0,0-2.211-1.264,5.323,5.323,0,0,0-5.555,2.382,6.5,6.5,0,0,0,.925,7.786,5,5,0,0,0,6.235.525,4.718,4.718,0,0,0,.887-.867c.133-.17.221-.18.4-.051q.928.685,1.883,1.333c.209.142.216.234.061.429a6.594,6.594,0,0,1-4.292,2.478,8.77,8.77,0,0,1-6.755-1.466,7.731,7.731,0,0,1-3.144-5.542,9.153,9.153,0,0,1,.58-4.735,7.644,7.644,0,0,1,6.227-4.827C-3240.46-4198.976-3239.952-4198.987-3239.534-4199.016Z" transform="translate(-202.947 -16.583)" fill="#fefefe"/>
    <path id="Path_183296" data-name="Path 183296" d="M-3460-4186.042l1.444-3.872q1.473-3.951,2.939-7.9a.4.4,0,0,1,.452-.32c.9.018,1.8.007,2.7.007a.874.874,0,0,1-.131.453q-3.073,7.6-6.145,15.208a.477.477,0,0,1-.543.356c-.58-.021-1.161-.02-1.741,0a.409.409,0,0,1-.461-.315q-2.9-7.406-5.814-14.806c-.111-.283-.221-.567-.349-.9,1.071,0,2.1,0,3.123,0,.23,0,.222.186.269.314q.939,2.58,1.866,5.164C-3461.6-4190.477-3460.816-4188.3-3460-4186.042Z" transform="translate(-83.097 -17.062)" fill="#fefefe"/>
    <path id="Path_183297" data-name="Path 183297" d="M-3377.228-4190.128c0-2.542.006-5.085-.008-7.627,0-.319.09-.4.4-.385.7.024,1.4.029,2.095,0,.334-.014.383.1.382.4q-.014,6.281-.005,12.561c0,.552-.061.478.464.479,1.978,0,3.955.011,5.932-.008.356,0,.437.1.423.437-.026.614-.014,1.23,0,1.845,0,.22-.047.313-.292.312q-4.548-.012-9.094,0c-.286,0-.292-.136-.291-.349Q-3377.225-4186.3-3377.228-4190.128Z" transform="translate(-132.398 -17.059)" fill="#fefefe"/>
    <g id="Group_65762" data-name="Group 65762" transform="translate(-3620.039 -4229.427)">
      <path id="Path_183298" data-name="Path 183298" d="M-3576.553-4213.214c.067.232.126.467.18.7.035.129.066.264.093.4.012.046.022.1.034.143.008.029.01.055.018.084.123.546.212,1.094.286,1.642,0,.012,0,.024.005.037.05.335.087.67.115,1.006.009.051.011.108.017.161s.01.1.015.157c.017.2.031.394.039.593.011.238.02.473.025.709v0c0,.267,0,.531-.005.793,0,.171-.008.337-.015.51-.01.212-.02.425-.035.635,0,.072-.009.149-.016.223-.008.137-.02.274-.036.413-.018.184-.036.363-.059.544-.008.069-.016.139-.029.209v0c-.034.255-.072.511-.116.765-.017.089-.03.173-.046.262-.022.118-.041.23-.068.346-.039.2-.083.406-.126.61l-.011.057c-.046.2-.1.392-.145.588-.031.121-.062.236-.092.356a.088.088,0,0,0-.01.029c-.087.323-.186.64-.292.959a1.417,1.417,0,0,1-.053.153c-.083.254-.171.511-.269.761-.054.148-.113.294-.173.44-.077.2-.154.39-.24.583-.011.025-.021.055-.032.08-.162.361-.329.719-.506,1.076-.051.094-.1.188-.148.281-.063.129-.131.259-.2.386s-.142.252-.215.379a.109.109,0,0,0-.015.027l-.15.259c-.015.026-.031.052-.05.081s-.04.069-.058.1c-.114.191-.233.38-.354.564-.079.124-.157.244-.24.369-.146.222-.3.438-.455.65-.051.063-.1.129-.144.2-.078.11-.156.217-.241.319s-.145.191-.219.283c-.1.131-.211.262-.323.4-.016.022-.037.045-.053.068-.254.3-.522.6-.793.889-.038.042-.08.084-.118.126-.233.246-.473.485-.718.721,0,0,0,.005-.007.006s-.011.008-.014.013c-.1.1-.2.188-.3.283-.193.177-.388.351-.584.52-.112.1-.226.19-.342.289s-.209.168-.316.255l-.322.248c-.107.083-.211.164-.319.242-.295.218-.593.424-.9.627l-.094.066c-.224.145-.45.286-.682.424-.119.073-.238.145-.358.212-.228.133-.461.263-.7.385-.128.07-.259.136-.394.2-.062.035-.126.065-.189.1s-.1.048-.151.072l-.063.03a.283.283,0,0,1-.052.023c-.1.049-.2.1-.3.144a.122.122,0,0,1-.041.015,1.069,1.069,0,0,1-.115.054c-.075.034-.152.067-.228.1-.1.05-.208.092-.312.137-.024.011-.044.017-.069.028-.145.057-.294.12-.439.176s-.267.1-.407.15-.251.094-.379.138a1.429,1.429,0,0,1-.176.061l-.423.141c-.2.063-.409.124-.613.183l-.271.073c-.183.049-.368.095-.549.139s-.365.089-.547.125-.367.081-.551.113-.344.066-.516.094a.2.2,0,0,1-.052,0c-.176.029-.351.059-.528.081-.37.054-.739.1-1.106.127-.18.013-.359.03-.536.037-.148.013-.295.018-.44.025s-.305.011-.462.013l-.316,0c-.138,0-.277,0-.412,0-.529-.005-1.06-.032-1.581-.075l-.036,0-.023,0a22.017,22.017,0,0,1-4.088-.75c-.058-.016-.117-.036-.176-.056a22.161,22.161,0,0,1-15.132-15.321,22.272,22.272,0,0,1,15.332-27.44,21.943,21.943,0,0,1,8.249-.719c.164.009.326.033.488.051l.269.035c.135.017.265.036.4.059.065.009.13.019.2.032s.132.022.2.037c.023,0,.047.009.071.012.084.013.169.03.254.047.141.024.283.054.425.083l.138.03c.147.032.295.063.443.1s.306.074.456.114.327.086.492.136c.01,0,.015,0,.024.006l.306.092c.083.023.166.05.249.077.131.036.255.083.383.125a0,0,0,0,1,.005,0,.034.034,0,0,0,.019,0,1.211,1.211,0,0,0,.139.052c.2.066.4.138.6.214.1.039.209.078.31.122q.291.109.573.235c.105.043.207.087.308.131.137.062.271.125.4.187s.241.114.359.172.265.134.395.2.232.116.348.179c.131.072.263.148.394.22l.334.192c.132.076.261.157.391.239.107.065.214.13.322.2l.115.076c.157.1.313.2.463.309l.12.08c.132.089.256.186.383.277.1.072.2.143.3.216.13.1.259.2.385.3.092.074.187.146.278.22a.077.077,0,0,0,.022.017c.212.171.416.349.621.526.075.064.147.131.218.2l.214.2c.061.06.125.114.19.172.049.049.1.1.152.147.1.1.212.206.316.313.047.042.09.088.135.134l.038.043c.024.024.044.046.068.071.155.16.307.324.458.489.005,0,.008.012.012.014.064.072.124.146.189.218.123.141.249.276.368.424.073.087.141.176.214.264.111.131.215.265.317.4.171.218.333.438.5.663a.059.059,0,0,0,.015.022c.073.106.141.208.214.314q.14.2.268.4c.073.105.139.218.209.328s.124.194.187.294c.023.034.042.07.064.1.052.093.1.186.159.274.1.183.209.364.308.547.008.012.01.02.017.031s.009.015.011.024l.05.085c0,.008.01.02.013.032a.387.387,0,0,1,.033.058.656.656,0,0,1,.041.083c.1.171.183.348.272.53.052.111.108.217.156.329.086.187.171.37.253.558.047.09.085.183.125.279,0,.013.011.024.014.037.112.265.22.536.322.812.012.028.019.054.031.082s.024.074.039.11c.055.155.11.311.161.467.029.09.063.184.093.279C-3576.723-4213.8-3576.636-4213.509-3576.553-4213.214Z" transform="translate(3620.039 4229.427)" fill="#fc273a"/>
      <g id="Group_65761" data-name="Group 65761" transform="translate(10.62 11.974)">
        <path id="Path_183299" data-name="Path 183299" d="M-3592.9-4182.559q-1.215,0-2.43,0a2.684,2.684,0,0,1-.366-.015,1,1,0,0,1-.843-1.525c.49-.97,1.047-1.9,1.583-2.849q2.626-4.625,5.256-9.248,1.749-3.079,3.5-6.159c.378-.665.913-.9,1.446-.632a1.424,1.424,0,0,1,.592.614c.859,1.513,1.729,3.02,2.562,4.547a3.159,3.159,0,0,1-.038,3.239c-1.247,2.185-2.515,4.359-3.773,6.537-.715,1.238-1.437,2.473-2.142,3.716a3.258,3.258,0,0,1-3.047,1.778c-.766-.005-1.531,0-2.3,0Z" transform="translate(3596.683 4203.093)" fill="#fefefe"/>
        <path id="Path_183300" data-name="Path 183300" d="M-3562.231-4168.332c-1.132,0-2.264,0-3.4,0a2.715,2.715,0,0,1-.5-.032.979.979,0,0,1-.83-1.417,11.694,11.694,0,0,1,.961-1.744c.877-1.542,1.777-3.069,2.666-4.6a2.772,2.772,0,0,1,.367-.512.956.956,0,0,1,1.488-.013,3.446,3.446,0,0,1,.507.777q1.654,2.884,3.292,5.778c.022.039.042.079.061.118a1.045,1.045,0,0,1-.99,1.643c-1.209.021-2.42.005-3.629.005Z" transform="translate(3580.521 4188.868)" fill="#fefefe"/>
      </g>
    </g>
  </g>
</svg>
