<svg id="Layer_1" data-name="Layer 1" xmlns="http://www.w3.org/2000/svg" viewBox="0 0 298.83 101.62"><defs><style>.cls-1,.cls-2{fill:#fff;}.cls-2,.cls-3{stroke:#dcdcdc;stroke-miterlimit:10;stroke-width:0.28px;}.cls-3{fill:none;}.cls-4{fill:#bcbfc4;}</style></defs><path class="cls-1" d="M98.27,48a19.29,19.29,0,0,1-2.69-3.47,25.24,25.24,0,0,0-9-8.53,24.9,24.9,0,0,0,.73-3.43,24.17,24.17,0,0,0,.25-3.51,25.29,25.29,0,0,0-.61-5.48,19.75,19.75,0,0,1-.14-8.72,19.68,19.68,0,0,1-4.05.42A19.82,19.82,0,0,1,78,14.74a25.36,25.36,0,0,0-12.43.37,25.25,25.25,0,0,0-3.69-5.06,24.68,24.68,0,0,0-4.83-4,19.76,19.76,0,0,1-3.47-2.69A20.2,20.2,0,0,1,50.82,0,19.67,19.67,0,0,1,48,3.38a19.76,19.76,0,0,1-3.47,2.69,25.1,25.1,0,0,0-8.53,9,26.47,26.47,0,0,0-3.43-.73,25.56,25.56,0,0,0-9,.36,19.74,19.74,0,0,1-4.66.56,19.85,19.85,0,0,1-4.06-.42,19.68,19.68,0,0,1,.42,4,19.81,19.81,0,0,1-.55,4.67,24.68,24.68,0,0,0-.61,5.48,25,25,0,0,0,1,6.94,25.29,25.29,0,0,0-5.06,3.7,24.72,24.72,0,0,0-4,4.83A20.19,20.19,0,0,1,3.39,48,19.74,19.74,0,0,1,0,50.81,19.74,19.74,0,0,1,3.39,53.6a20.58,20.58,0,0,1,2.68,3.47,25.24,25.24,0,0,0,9,8.53A23.51,23.51,0,0,0,14.39,69a24.13,24.13,0,0,0-.25,3.5A24.7,24.7,0,0,0,14.75,78a19.88,19.88,0,0,1,.55,4.67,19.68,19.68,0,0,1-.42,4,19.74,19.74,0,0,1,8.72.14A25.36,25.36,0,0,0,36,86.51a25.24,25.24,0,0,0,8.53,9,19.69,19.69,0,0,1,6.26,6.06,19.81,19.81,0,0,1,2.8-3.38,19.24,19.24,0,0,1,3.47-2.68,25.09,25.09,0,0,0,8.52-9,27,27,0,0,0,3.44.73,25.62,25.62,0,0,0,3.5.24,25.3,25.3,0,0,0,5.49-.6,19.75,19.75,0,0,1,8.72-.14,19.68,19.68,0,0,1-.42-4A19.89,19.89,0,0,1,86.9,78a25.31,25.31,0,0,0,.61-5.49,25,25,0,0,0-1-6.93,25.17,25.17,0,0,0,9-8.53,19.65,19.65,0,0,1,2.69-3.47,19.3,19.3,0,0,1,3.38-2.79A19.3,19.3,0,0,1,98.27,48ZM72.55,15.21a24.33,24.33,0,0,1,5.25.57,20.74,20.74,0,0,0,4.91.59,20.9,20.9,0,0,0,2.74-.18,20.9,20.9,0,0,0-.18,2.74,21.33,21.33,0,0,0,.58,4.91,23.71,23.71,0,0,1,.58,5.24,25.1,25.1,0,0,1-.21,3.25,24.58,24.58,0,0,1-.66,3.18,26.34,26.34,0,0,0-4.11-1.61c0-.4,0-.79,0-1.19a20.92,20.92,0,0,0-.51-4.6,16.72,16.72,0,0,1-.46-3.87,16.43,16.43,0,0,1,.38-3.49,16.53,16.53,0,0,1-3.5.38,16.7,16.7,0,0,1-3.86-.46,20.92,20.92,0,0,0-4.6-.51,21.63,21.63,0,0,0-2.9.2,19.64,19.64,0,0,0-2.84.6,20.47,20.47,0,0,0-2-2.92A24.08,24.08,0,0,1,72.55,15.21Zm7,64.35a17.6,17.6,0,0,0-2.18-.14,17.83,17.83,0,0,0-4.11.49,19.93,19.93,0,0,1-4.35.48,19.68,19.68,0,0,1-5.23-.7,20.59,20.59,0,0,0,1.55-4.25h0A17.15,17.15,0,0,0,69,75a13.22,13.22,0,0,1,3.07-.37A12.55,12.55,0,0,1,75,75a13.25,13.25,0,0,1-.33-2.94A12.77,12.77,0,0,1,75.05,69a16.92,16.92,0,0,0-.21-8.24,16.1,16.1,0,0,0,2.8-2,19.95,19.95,0,0,1,2.29,14.49,17.3,17.3,0,0,0-.49,4.11A17.64,17.64,0,0,0,79.57,79.56Zm-57.85-6.3a20,20,0,0,1,.21-9.57,21.47,21.47,0,0,0,4.26,1.54v.06A17,17,0,0,0,26.6,69a13.27,13.27,0,0,1,0,6,12.63,12.63,0,0,1,2.94-.34,13.29,13.29,0,0,1,3.07.37,16.92,16.92,0,0,0,8.24-.21,16.66,16.66,0,0,0,2,2.8,20,20,0,0,1-10.15,2.77,19.77,19.77,0,0,1-4.34-.48,17.83,17.83,0,0,0-4.11-.49,17.64,17.64,0,0,0-2.19.14,17.64,17.64,0,0,0,.14-2.19A17.83,17.83,0,0,0,21.72,73.26Zm.35-51.2a17.64,17.64,0,0,0,2.19.14,17.3,17.3,0,0,0,4.11-.49,19.92,19.92,0,0,1,9.58.22,21.44,21.44,0,0,0-1.56,4.25h0a17,17,0,0,0-3.7.41,12.77,12.77,0,0,1-3.07.37,12.63,12.63,0,0,1-2.94-.34,13.27,13.27,0,0,1,0,6,16.92,16.92,0,0,0,.21,8.24,16.66,16.66,0,0,0-2.8,2,19.95,19.95,0,0,1-2.29-14.49,17.85,17.85,0,0,0,.49-4.12A17.73,17.73,0,0,0,22.07,22.06Zm57.86,6.3a19.93,19.93,0,0,1,.48,4.35,20.15,20.15,0,0,1-.7,5.23,20.8,20.8,0,0,0-4.25-1.55v-.06a17.06,17.06,0,0,0-.41-3.7,12.71,12.71,0,0,1-.37-3.07A13.25,13.25,0,0,1,75,26.62a12.55,12.55,0,0,1-2.93.34A12.71,12.71,0,0,1,69,26.59a16.92,16.92,0,0,0-8.24.21,16.71,16.71,0,0,0-2-2.8,20,20,0,0,1,14.5-2.29,17.3,17.3,0,0,0,4.11.49,17.6,17.6,0,0,0,2.18-.14,17.71,17.71,0,0,0-.13,2.18A17.32,17.32,0,0,0,79.93,28.36ZM73.7,73.69a12.58,12.58,0,0,0-1.62-.1,13.77,13.77,0,0,0-3.32.4,16,16,0,0,1-3.46.38,15.63,15.63,0,0,1-4-.53,16.91,16.91,0,0,0-2.92-19,8.58,8.58,0,0,0,1-4.08,8.81,8.81,0,0,0-.11-1.36A15.86,15.86,0,0,1,74.39,65.29,15.49,15.49,0,0,1,74,68.75a14.2,14.2,0,0,0-.39,3.31A14.84,14.84,0,0,0,73.7,73.69ZM27.64,68.75a16.09,16.09,0,0,1-.38-3.46,15.69,15.69,0,0,1,.52-4,17,17,0,0,0,19-2.92,8.51,8.51,0,0,0,4.07,1,7.72,7.72,0,0,0,1.36-.11A15.86,15.86,0,0,1,36.34,74.37,16.09,16.09,0,0,1,32.88,74a13.75,13.75,0,0,0-3.31-.4,12.36,12.36,0,0,0-1.62.1A14.84,14.84,0,0,0,28,72.06,14.21,14.21,0,0,0,27.64,68.75ZM28,27.93a12.36,12.36,0,0,0,1.62.1,13.75,13.75,0,0,0,3.31-.4,15.91,15.91,0,0,1,7.49.14,16.92,16.92,0,0,0,2.92,19,8.55,8.55,0,0,0-1,4.08,7.72,7.72,0,0,0,.11,1.36A15.86,15.86,0,0,1,27.26,36.33a16.16,16.16,0,0,1,.38-3.46,14.21,14.21,0,0,0,.4-3.31A14.84,14.84,0,0,0,28,27.93ZM74,32.87a15.57,15.57,0,0,1-.14,7.49,17.5,17.5,0,0,0-3.58-1.26A17,17,0,0,0,54.9,43.28a8.31,8.31,0,0,0-2-.77,8.78,8.78,0,0,0-2.11-.27,8.91,8.91,0,0,0-1.36.11,15.87,15.87,0,0,1,19.3-14.72,13.77,13.77,0,0,0,3.32.4,12.58,12.58,0,0,0,1.62-.1,14.84,14.84,0,0,0-.09,1.63A14.2,14.2,0,0,0,74,32.87ZM58.07,50.8a7.29,7.29,0,1,1-7.29-7.28A7.29,7.29,0,0,1,58.07,50.8ZM51.65,33.11a16.93,16.93,0,0,0-3.27,9.49,9,9,0,0,0-2.52,1.22,8.81,8.81,0,0,0-2,2,15.85,15.85,0,0,1,3.24-24,14.15,14.15,0,0,0,3.7-3.28,14.35,14.35,0,0,0,3.71,3.28,16,16,0,0,1,5.2,5.39A16.87,16.87,0,0,0,51.65,33.11Zm-9,20.14a8.56,8.56,0,0,0,1.23,2.52,8.42,8.42,0,0,0,2,2,15.88,15.88,0,0,1-24.07-3.24,14,14,0,0,0-3.28-3.7,13.84,13.84,0,0,0,3.28-3.71,16.32,16.32,0,0,1,2.39-2.91,15.59,15.59,0,0,1,3-2.28A16.92,16.92,0,0,0,42.61,53.25ZM50,68.52A17,17,0,0,0,53.27,59a8.59,8.59,0,0,0,4.5-3.19,15.85,15.85,0,0,1-3.24,24,14.35,14.35,0,0,0-3.71,3.28,14.15,14.15,0,0,0-3.7-3.28A16,16,0,0,1,44.2,77.5a16.33,16.33,0,0,1-2.28-3A16.9,16.9,0,0,0,50,68.52ZM68.53,51.63A16.85,16.85,0,0,0,59,48.37a8.52,8.52,0,0,0-3.19-4.5A15.87,15.87,0,0,1,79.9,47.1a14.19,14.19,0,0,0,3.28,3.71,14.31,14.31,0,0,0-3.28,3.7,15.84,15.84,0,0,1-5.39,5.2A17,17,0,0,0,68.53,51.63ZM58,23.2a16.85,16.85,0,0,0-2.95-2.37A13.38,13.38,0,0,1,52.71,19a13.12,13.12,0,0,1-1.89-2.37A12.7,12.7,0,0,1,48.93,19a13,13,0,0,1-2.38,1.86,16.89,16.89,0,0,0-5.67,6,16.93,16.93,0,0,0-3.39-.58,20,20,0,0,1,8.63-11.86,18.2,18.2,0,0,0,2.54-1.89,17.49,17.49,0,0,0,2.16-2.31,17.78,17.78,0,0,0,4.7,4.2,19.32,19.32,0,0,1,3.73,3.06,19.89,19.89,0,0,1,2.9,3.86A21.36,21.36,0,0,0,58,23.2ZM21.29,39.49a21.24,21.24,0,0,0,1.91,4.1,17.17,17.17,0,0,0-2.36,2.95A12.75,12.75,0,0,1,19,48.92a13.05,13.05,0,0,1-2.36,1.89A13.05,13.05,0,0,1,19,52.7a12.75,12.75,0,0,1,1.87,2.38,16.92,16.92,0,0,0,2.63,3.21,16.55,16.55,0,0,0,3.34,2.46,17.06,17.06,0,0,0-.58,3.39,20.07,20.07,0,0,1-11.87-8.63A16.74,16.74,0,0,0,12.47,53a16.89,16.89,0,0,0-2.31-2.16,16.89,16.89,0,0,0,2.31-2.16,17.26,17.26,0,0,0,1.89-2.54,20,20,0,0,1,3.06-3.73A20.32,20.32,0,0,1,21.29,39.49ZM43.61,78.42a17.15,17.15,0,0,0,2.94,2.37,13.08,13.08,0,0,1,2.38,1.87A12,12,0,0,1,50.82,85a12.39,12.39,0,0,1,1.89-2.36,13.43,13.43,0,0,1,2.38-1.87,16.3,16.3,0,0,0,3.21-2.64,17.22,17.22,0,0,0,2.47-3.33,16.84,16.84,0,0,0,3.38.58,19.91,19.91,0,0,1-8.63,11.86,17.68,17.68,0,0,0-4.7,4.2,17.68,17.68,0,0,0-4.7-4.2,19.25,19.25,0,0,1-3.73-3.06,20,20,0,0,1-2.89-3.87A20.45,20.45,0,0,0,43.61,78.42ZM80.36,62.13A20.7,20.7,0,0,0,78.44,58a17.22,17.22,0,0,0,2.37-3,12.7,12.7,0,0,1,1.86-2.38A13.05,13.05,0,0,1,85,50.81a13.05,13.05,0,0,1-2.36-1.89,12.7,12.7,0,0,1-1.86-2.38,17.31,17.31,0,0,0-2.63-3.21,17.13,17.13,0,0,0-3.34-2.46,17.68,17.68,0,0,0,.58-3.39,19.91,19.91,0,0,1,11.86,8.63,17.63,17.63,0,0,0,4.2,4.7A18.13,18.13,0,0,0,89.17,53a17.44,17.44,0,0,0-1.89,2.54,19.94,19.94,0,0,1-3.06,3.73A19.45,19.45,0,0,1,80.36,62.13ZM38.87,12.72A24.33,24.33,0,0,1,45.12,7a19.94,19.94,0,0,0,3.09-2.29,21.21,21.21,0,0,0,2.61-2.83,21.89,21.89,0,0,0,2.61,2.83A20.94,20.94,0,0,0,56.52,7a24,24,0,0,1,8,8.47,24.72,24.72,0,0,0-4,1.77,20.93,20.93,0,0,0-4.43-3.76,16.58,16.58,0,0,1-5.27-5.14,16.07,16.07,0,0,1-2.34,2.86,16.15,16.15,0,0,1-2.92,2.28,20.67,20.67,0,0,0-4,3.31A21,21,0,0,0,38.45,21,20.25,20.25,0,0,0,35,20.28,24,24,0,0,1,38.87,12.72ZM15.79,23.84a20.74,20.74,0,0,0,.59-4.91,22.78,22.78,0,0,0-.18-2.74,20.9,20.9,0,0,0,2.74.18,20.87,20.87,0,0,0,4.91-.59,24.31,24.31,0,0,1,5.24-.57,23.45,23.45,0,0,1,3.25.22,23,23,0,0,1,3.18.65,25.39,25.39,0,0,0-1.61,4.11q-.6,0-1.2,0a20.9,20.9,0,0,0-4.59.51,16.7,16.7,0,0,1-3.86.46,16.46,16.46,0,0,1-3.5-.38,16.42,16.42,0,0,1,.37,3.49,16.2,16.2,0,0,1-.46,3.87,21.53,21.53,0,0,0-.5,4.6,19.86,19.86,0,0,0,.2,2.89A21.52,21.52,0,0,0,21,38.45a21,21,0,0,0-2.92,2,24,24,0,0,1-2.83-11.33A24.32,24.32,0,0,1,15.79,23.84ZM12.73,62.76A23.82,23.82,0,0,1,7,56.51a21.18,21.18,0,0,0-2.3-3.09,21.21,21.21,0,0,0-2.83-2.61A21.21,21.21,0,0,0,4.68,48.2,21.65,21.65,0,0,0,7,45.12a23.37,23.37,0,0,1,3.74-4.55,23.87,23.87,0,0,1,4.72-3.5,25.1,25.1,0,0,0,1.77,4,20.92,20.92,0,0,0-3.76,4.42,16.38,16.38,0,0,1-5.14,5.27,16.58,16.58,0,0,1,2.87,2.34,16.52,16.52,0,0,1,2.27,2.93A21,21,0,0,0,21,63.18a21,21,0,0,0-.67,3.45A24,24,0,0,1,12.73,62.76ZM29.09,86.41a24.31,24.31,0,0,1-5.24-.57,20.36,20.36,0,0,0-4.91-.59,20.9,20.9,0,0,0-2.74.18,22.92,22.92,0,0,0,.18-2.74,20.81,20.81,0,0,0-.59-4.91,24.34,24.34,0,0,1-.58-5.25,23.41,23.41,0,0,1,.22-3.24,25.09,25.09,0,0,1,.66-3.19,25.07,25.07,0,0,0,4.11,1.62c0,.4,0,.8,0,1.19a21.53,21.53,0,0,0,.5,4.6,16.17,16.17,0,0,1,.46,3.86,16.45,16.45,0,0,1-.37,3.5,15.83,15.83,0,0,1,3.5-.38,16.7,16.7,0,0,1,3.86.46,20.9,20.9,0,0,0,4.59.51,21.63,21.63,0,0,0,2.9-.2,19.64,19.64,0,0,0,2.84-.6,22.29,22.29,0,0,0,2,2.92A24.06,24.06,0,0,1,29.09,86.41ZM62.78,88.9a24.37,24.37,0,0,1-6.26,5.75A21,21,0,0,0,53.43,97a21.81,21.81,0,0,0-2.61,2.82A21.13,21.13,0,0,0,48.21,97a20,20,0,0,0-3.09-2.3,24.37,24.37,0,0,1-4.54-3.74,23.94,23.94,0,0,1-3.5-4.73,26,26,0,0,0,4.05-1.76,20.69,20.69,0,0,0,4.43,3.75,16.15,16.15,0,0,1,2.92,2.28,15.78,15.78,0,0,1,2.34,2.87,16.21,16.21,0,0,1,2.34-2.87,16.58,16.58,0,0,1,2.93-2.28,20.31,20.31,0,0,0,4-3.31,20.92,20.92,0,0,0,3.08-4.2,21.38,21.38,0,0,0,3.46.68A24.18,24.18,0,0,1,62.78,88.9ZM85.85,77.78a21.33,21.33,0,0,0-.58,4.91,21,21,0,0,0,.18,2.74,20.9,20.9,0,0,0-2.74-.18,20.24,20.24,0,0,0-4.91.59,24.31,24.31,0,0,1-11.68-.3,25.8,25.8,0,0,0,1.62-4.11c.39,0,.79,0,1.19,0a20.92,20.92,0,0,0,4.6-.51,16.7,16.7,0,0,1,3.86-.46,15.9,15.9,0,0,1,3.5.38,16.46,16.46,0,0,1-.38-3.5A16.7,16.7,0,0,1,81,73.51a20.92,20.92,0,0,0,.51-4.6,21.37,21.37,0,0,0-.2-2.89,19.64,19.64,0,0,0-.6-2.84,22.29,22.29,0,0,0,2.92-2,24,24,0,0,1,2.83,11.32A23.73,23.73,0,0,1,85.85,77.78ZM97,53.42a20.49,20.49,0,0,0-2.3,3.09,24.1,24.1,0,0,1-8.47,8,26,26,0,0,0-1.76-4,20.88,20.88,0,0,0,3.75-4.42,16.58,16.58,0,0,1,2.28-2.93,16.21,16.21,0,0,1,2.87-2.34,16.48,16.48,0,0,1-5.15-5.27,20.91,20.91,0,0,0-3.31-4,20.54,20.54,0,0,0-4.2-3.08A20.55,20.55,0,0,0,81.36,35a24.18,24.18,0,0,1,7.56,3.87,23.86,23.86,0,0,1,5.75,6.26A20.91,20.91,0,0,0,97,48.2a21.13,21.13,0,0,0,2.82,2.61A21.13,21.13,0,0,0,97,53.42Z"/><path class="cls-2" d="M111,64.78h.34a1.25,1.25,0,0,0,.87-.4,4.89,4.89,0,0,0,.7-.94,4,4,0,0,0,.43-1.17,5.49,5.49,0,0,0,.13-1.16V25.64a4.92,4.92,0,0,0-.13-1.07,4.72,4.72,0,0,0-.43-1.17,3.45,3.45,0,0,0-.74-.93,1.48,1.48,0,0,0-1-.37h-.34v-.66h10.94q6.19,0,9.7,2.73a8.76,8.76,0,0,1,3.5,7.27,8.48,8.48,0,0,1-.67,3.46,10.45,10.45,0,0,1-1.7,2.74,11.75,11.75,0,0,1-2.23,2A18.76,18.76,0,0,1,128.14,41a12.53,12.53,0,0,1,4.67,1.8,11.44,11.44,0,0,1,3,2.9,10.55,10.55,0,0,1,1.6,3.5,15.67,15.67,0,0,1,.45,3.67,12.29,12.29,0,0,1-1.26,5.83,11.05,11.05,0,0,1-3.36,3.87,13.91,13.91,0,0,1-4.78,2.17,23.31,23.31,0,0,1-5.56.66H111ZM130.67,32a8.51,8.51,0,0,0-2.7-6.16,9.55,9.55,0,0,0-6.7-2.28h-3.33V40.44h3.47A12,12,0,0,0,126,39.7a8,8,0,0,0,2.84-1.9,6.31,6.31,0,0,0,1.46-2.58,9.89,9.89,0,0,0,.4-2.75Zm2.74,21.33a12.39,12.39,0,0,0-3.47-8c-2-1.87-4.71-2.81-8.26-2.81h-3.74V63.31h3.87c3.6,0,6.43-.82,8.5-2.44a8.19,8.19,0,0,0,3.1-6.79Z"/><path class="cls-2" d="M166.08,20.77a22.62,22.62,0,0,1,9.33,1.84,21.17,21.17,0,0,1,7,4.93,22.05,22.05,0,0,1,4.47,7.2,23.88,23.88,0,0,1,1.56,8.57,22.79,22.79,0,0,1-1.83,9.2,21.72,21.72,0,0,1-5,7.2,23.7,23.7,0,0,1-7.44,4.7,24.05,24.05,0,0,1-9,1.7,22.1,22.1,0,0,1-9.24-1.86A21.44,21.44,0,0,1,149,59.31a21.8,21.8,0,0,1-4.37-7.07,23.08,23.08,0,0,1-1.53-8.33,24.32,24.32,0,0,1,1.53-8.44,22.39,22.39,0,0,1,11.73-12.7,22.76,22.76,0,0,1,9.74-2m0,43a17.84,17.84,0,0,0,7.85-2,18.54,18.54,0,0,0,5.65-4.66,19.7,19.7,0,0,0,3.37-6.24,21.59,21.59,0,0,0,1.1-6.73,21.84,21.84,0,0,0-1.33-7.4,22.7,22.7,0,0,0-3.81-6.77A19.91,19.91,0,0,0,173,25a15.66,15.66,0,0,0-7.71-1.91,14.93,14.93,0,0,0-7.42,1.84,19,19,0,0,0-5.58,4.7,21,21,0,0,0-3.5,6.4A21.26,21.26,0,0,0,147.54,43,20.58,20.58,0,0,0,149,50.34a23.4,23.4,0,0,0,3.87,6.7,20.25,20.25,0,0,0,5.84,4.87A14.94,14.94,0,0,0,166,63.78"/><path class="cls-1" d="M213.08,65.44H227v-.66h-4.33a2.52,2.52,0,0,1-2.17-1.27,11.49,11.49,0,0,1-1.3-2.6L204.21,20.64,189,61.31a9.2,9.2,0,0,1-1.37,2.43,2.27,2.27,0,0,1-1.7,1h-.34v.66H193v-.66h-.34a1.36,1.36,0,0,1-1-.51,1.9,1.9,0,0,1-.46-1.36,2.7,2.7,0,0,1,.2-1L197.14,46h11.68l6,16.2a3.75,3.75,0,0,1,.2,1.14c0,1-.54,1.47-1.61,1.47h-.33ZM203,29.77l5.13,13.94H197.81Zm33.07,35a1.18,1.18,0,0,1-.9-.4,4.79,4.79,0,0,1-.67-.94,3.72,3.72,0,0,1-.43-1.17,5.49,5.49,0,0,1-.13-1.16V42.84c.48.09,1,.17,1.56.23s1.08.13,1.57.17q2.92,4.41,5.9,8.93t6,8.94a12.13,12.13,0,0,0,2.83,3,7,7,0,0,0,4.36,1.3H259v-.66a3,3,0,0,1-1.44-.37,6,6,0,0,1-1.33-1,11,11,0,0,1-1.2-1.33c-.38-.49-.73-1-1-1.4-1.16-1.82-2.33-3.59-3.53-5.3S248,52,246.89,50.17l-4.8-7.33a19,19,0,0,0,4-1.23,11,11,0,0,0,3.3-2.2,10.2,10.2,0,0,0,2.23-3.27,10.91,10.91,0,0,0,.84-4.43A8.85,8.85,0,0,0,248.86,24q-3.65-2.59-10.31-2.6H227v.66h.33a1.28,1.28,0,0,1,.87.37,3.73,3.73,0,0,1,.7.9,4.21,4.21,0,0,1,.44,1.13,5.73,5.73,0,0,1,.13,1.07V61.11a6.24,6.24,0,0,1-.13,1.16,4,4,0,0,1-.44,1.17,4.19,4.19,0,0,1-.7.94,1.23,1.23,0,0,1-.87.4H227v.66h9.4v-.66H236M234.88,23.7a37.24,37.24,0,0,1,5.27.34,11.84,11.84,0,0,1,4.1,1.26,7,7,0,0,1,2.67,2.54,7.94,7.94,0,0,1,1,4.13,8.77,8.77,0,0,1-.9,4.2,8.26,8.26,0,0,1-2.27,2.7,8.69,8.69,0,0,1-2.93,1.47,11.16,11.16,0,0,1-3,.43c-1.16,0-2.13,0-2.9,0s-1.34-.06-1.7-.1h-.33V23.7Zm51.47-.53a17.5,17.5,0,0,1,3.17.3,11.33,11.33,0,0,1,3.07,1,7.37,7.37,0,0,1,2.5,2.11A8,8,0,0,1,296.56,30h.67v-7.4a8.38,8.38,0,0,1-1.64-.17,15,15,0,0,1-1.83-.5c-.94-.27-2-.53-3.17-.8a17.84,17.84,0,0,0-4-.4,26.35,26.35,0,0,0-10.67,2A22.27,22.27,0,0,0,268.43,28a20.88,20.88,0,0,0-4.43,7.3,24.4,24.4,0,0,0-1.45,8.2A24.09,24.09,0,0,0,264,51.67a21.27,21.27,0,0,0,4.37,7.24,22.18,22.18,0,0,0,7.32,5.2,24.46,24.46,0,0,0,10.2,2,23.4,23.4,0,0,0,4.43-.4q2.1-.4,3.84-.87l2.43-.59a8.32,8.32,0,0,1,2.1-.28V56.58H298a9.07,9.07,0,0,1-2.1,3.66,10.39,10.39,0,0,1-3,2.17,12.08,12.08,0,0,1-3.24,1,17.68,17.68,0,0,1-2.83.27,17.44,17.44,0,0,1-7.8-1.77,21.19,21.19,0,0,1-6.3-4.67,21.8,21.8,0,0,1-4.24-6.66,20.29,20.29,0,0,1-1.53-7.7,22.15,22.15,0,0,1,1.17-7,19,19,0,0,1,3.56-6.37,18.29,18.29,0,0,1,6-4.6,19.32,19.32,0,0,1,8.56-1.77"/><path class="cls-3" d="M213.08,65.44H227v-.66h-4.33a2.52,2.52,0,0,1-2.17-1.27,11.49,11.49,0,0,1-1.3-2.6L204.21,20.64,189,61.31a9.2,9.2,0,0,1-1.37,2.43,2.27,2.27,0,0,1-1.7,1h-.34v.66H193v-.66h-.34a1.36,1.36,0,0,1-1-.51,1.9,1.9,0,0,1-.46-1.36,2.7,2.7,0,0,1,.2-1L197.14,46h11.68l6,16.2a3.75,3.75,0,0,1,.2,1.14c0,1-.54,1.47-1.61,1.47h-.33ZM203,29.77l5.13,13.94H197.81Zm33.07,35a1.18,1.18,0,0,1-.9-.4,4.79,4.79,0,0,1-.67-.94,3.72,3.72,0,0,1-.43-1.17,5.49,5.49,0,0,1-.13-1.16V42.84c.48.09,1,.17,1.56.23s1.08.13,1.57.17q2.92,4.41,5.9,8.93t6,8.94a12.13,12.13,0,0,0,2.83,3,7,7,0,0,0,4.36,1.3H259v-.66a3,3,0,0,1-1.44-.37,6,6,0,0,1-1.33-1,11,11,0,0,1-1.2-1.33c-.38-.49-.73-1-1-1.4-1.16-1.82-2.33-3.59-3.53-5.3S248,52,246.89,50.17l-4.8-7.33a19,19,0,0,0,4-1.23,11,11,0,0,0,3.3-2.2,10.2,10.2,0,0,0,2.23-3.27,10.91,10.91,0,0,0,.84-4.43A8.85,8.85,0,0,0,248.86,24q-3.65-2.59-10.31-2.6H227v.66h.33a1.28,1.28,0,0,1,.87.37,3.73,3.73,0,0,1,.7.9,4.21,4.21,0,0,1,.44,1.13,5.73,5.73,0,0,1,.13,1.07V61.11a6.24,6.24,0,0,1-.13,1.16,4,4,0,0,1-.44,1.17,4.19,4.19,0,0,1-.7.94,1.23,1.23,0,0,1-.87.4H227v.66h9.4v-.66H236M234.88,23.7a37.24,37.24,0,0,1,5.27.34,11.84,11.84,0,0,1,4.1,1.26,7,7,0,0,1,2.67,2.54,7.94,7.94,0,0,1,1,4.13,8.77,8.77,0,0,1-.9,4.2,8.26,8.26,0,0,1-2.27,2.7,8.69,8.69,0,0,1-2.93,1.47,11.16,11.16,0,0,1-3,.43c-1.16,0-2.13,0-2.9,0s-1.34-.06-1.7-.1h-.33V23.7Zm51.47-.53a17.5,17.5,0,0,1,3.17.3,11.33,11.33,0,0,1,3.07,1,7.37,7.37,0,0,1,2.5,2.11A8,8,0,0,1,296.56,30h.67v-7.4a8.38,8.38,0,0,1-1.64-.17,15,15,0,0,1-1.83-.5c-.94-.27-2-.53-3.17-.8a17.84,17.84,0,0,0-4-.4,26.35,26.35,0,0,0-10.67,2A22.27,22.27,0,0,0,268.43,28a20.88,20.88,0,0,0-4.43,7.3,24.4,24.4,0,0,0-1.45,8.2A24.09,24.09,0,0,0,264,51.67a21.27,21.27,0,0,0,4.37,7.24,22.18,22.18,0,0,0,7.32,5.2,24.46,24.46,0,0,0,10.2,2,23.4,23.4,0,0,0,4.43-.4q2.1-.4,3.84-.87l2.43-.59a8.32,8.32,0,0,1,2.1-.28V56.58H298a9.07,9.07,0,0,1-2.1,3.66,10.39,10.39,0,0,1-3,2.17,12.08,12.08,0,0,1-3.24,1,17.68,17.68,0,0,1-2.83.27,17.44,17.44,0,0,1-7.8-1.77,21.19,21.19,0,0,1-6.3-4.67,21.8,21.8,0,0,1-4.24-6.66,20.29,20.29,0,0,1-1.53-7.7,22.15,22.15,0,0,1,1.17-7,19,19,0,0,1,3.56-6.37,18.29,18.29,0,0,1,6-4.6,19.32,19.32,0,0,1,8.56-1.77"/><path class="cls-1" d="M113.83,79.85l-1.27,3.86h-1.64l4.17-12.27H117l4.19,12.27H119.5l-1.32-3.86Zm4-1.24-1.21-3.53c-.27-.8-.45-1.53-.63-2.24h0c-.18.73-.38,1.47-.62,2.22l-1.2,3.55Z"/><path class="cls-1" d="M127.91,71.6a16.73,16.73,0,0,1,3-.26,5,5,0,0,1,3.55,1,3,3,0,0,1,1,2.33,3.22,3.22,0,0,1-2.31,3.13v0a3.06,3.06,0,0,1,1.8,2.48,19.83,19.83,0,0,0,1,3.37h-1.64a16.32,16.32,0,0,1-.82-2.93c-.36-1.7-1-2.33-2.46-2.39h-1.49v5.32h-1.58Zm1.58,5.59h1.62c1.69,0,2.77-.93,2.77-2.33,0-1.58-1.15-2.28-2.82-2.3a6.64,6.64,0,0,0-1.57.15Z"/><path class="cls-1" d="M145.11,72.78h-3.73V71.44h9.09v1.34h-3.75V83.71h-1.61Z"/><path class="cls-1" d="M176,77.45c0,4.22-2.57,6.46-5.7,6.46s-5.52-2.51-5.52-6.23c0-3.9,2.43-6.44,5.7-6.44S176,73.8,176,77.45Zm-9.52.2c0,2.62,1.42,5,3.91,5s3.94-2.32,3.94-5.1c0-2.44-1.28-5-3.92-5S166.49,75,166.49,77.65Z"/><path class="cls-1" d="M183,71.44h6.61v1.33h-5v4.07h4.64v1.32h-4.64v5.55H183Z"/><path class="cls-1" d="M205.54,71.6a15.07,15.07,0,0,1,2.9-.26,5.09,5.09,0,0,1,3.37.9,2.58,2.58,0,0,1,1,2.16,2.92,2.92,0,0,1-2.08,2.7v0a3.15,3.15,0,0,1,2.53,3.07,3.3,3.3,0,0,1-1,2.46c-.85.78-2.24,1.15-4.24,1.15a17.29,17.29,0,0,1-2.46-.15Zm1.59,5h1.44c1.67,0,2.65-.88,2.65-2.06,0-1.44-1.09-2-2.69-2a7.05,7.05,0,0,0-1.4.11Zm0,5.88a9.11,9.11,0,0,0,1.33.07c1.64,0,3.15-.6,3.15-2.39s-1.44-2.36-3.17-2.36h-1.31Z"/><path class="cls-1" d="M222.31,79.85,221,83.71H219.4l4.17-12.27h1.91l4.19,12.27H228l-1.32-3.86Zm4-1.24-1.2-3.53c-.28-.8-.46-1.53-.64-2.24h0c-.18.73-.38,1.47-.62,2.22l-1.2,3.55Z"/><path class="cls-1" d="M246.66,78.32c-.09-1.71-.2-3.77-.18-5.3h-.06c-.42,1.44-.93,3-1.55,4.66l-2.16,6H241.5l-2-5.85c-.58-1.73-1.08-3.31-1.42-4.77h0c0,1.53-.13,3.59-.23,5.43l-.33,5.26H236l.85-12.27h2l2.1,5.93c.51,1.51.93,2.86,1.24,4.14h.05c.31-1.24.75-2.59,1.29-4.14l2.19-5.93h2l.76,12.27H247Z"/><path class="cls-1" d="M255.87,71.6a14.88,14.88,0,0,1,2.89-.26,5.05,5.05,0,0,1,3.37.9,2.56,2.56,0,0,1,1,2.16,2.91,2.91,0,0,1-2.07,2.7v0a3.16,3.16,0,0,1,2.53,3.07,3.3,3.3,0,0,1-1,2.46c-.86.78-2.24,1.15-4.24,1.15a17.18,17.18,0,0,1-2.46-.15Zm1.58,5h1.44c1.68,0,2.66-.88,2.66-2.06,0-1.44-1.09-2-2.69-2a7.27,7.27,0,0,0-1.41.11Zm0,5.88a9.21,9.21,0,0,0,1.33.07c1.64,0,3.15-.6,3.15-2.39s-1.44-2.36-3.17-2.36h-1.31Z"/><path class="cls-1" d="M281.14,77.45c0,4.22-2.57,6.46-5.7,6.46s-5.51-2.51-5.51-6.23c0-3.9,2.42-6.44,5.69-6.44S281.14,73.8,281.14,77.45Zm-9.52.2c0,2.62,1.42,5,3.91,5s3.94-2.32,3.94-5.1c0-2.44-1.28-5-3.92-5S271.62,75,271.62,77.65Z"/><path class="cls-1" d="M298.6,77.45c0,4.22-2.56,6.46-5.7,6.46s-5.51-2.51-5.51-6.23c0-3.9,2.42-6.44,5.7-6.44S298.6,73.8,298.6,77.45Zm-9.52.2c0,2.62,1.42,5,3.91,5s3.94-2.32,3.94-5.1c0-2.44-1.28-5-3.92-5S289.08,75,289.08,77.65Z"/><path class="cls-4" d="M360.1,484.77h47.47v-2.28H392.74c-3,0-5.52-1.46-7.42-4.33a41.2,41.2,0,0,1-4.45-8.91L329.73,331.36,277.46,470.61a30.78,30.78,0,0,1-4.68,8.34c-1.9,2.35-3.85,3.54-5.82,3.54h-1.15v2.28h25.34v-2.28H290a4.67,4.67,0,0,1-3.43-1.72,6.62,6.62,0,0,1-1.6-4.67,9.94,9.94,0,0,1,.68-3.43l19.85-54.56h40L366,473.57a12.64,12.64,0,0,1,.69,3.9c0,3.33-1.83,5-5.49,5H360.1ZM325.39,362.64,343,410.34H307.82ZM438.63,482.49a4.05,4.05,0,0,1-3.1-1.37,17.55,17.55,0,0,1-2.28-3.2,14.09,14.09,0,0,1-1.48-4,19,19,0,0,1-.45-4V407.39c1.68.3,3.45.56,5.36.79s3.7.42,5.36.56q10,15.09,20.21,30.6t20.44,30.58a41.58,41.58,0,0,0,9.7,10.4q5.81,4.46,14.94,4.45h9.83v-2.28a10.35,10.35,0,0,1-4.92-1.26,20.27,20.27,0,0,1-4.55-3.31,39.41,39.41,0,0,1-4.12-4.56c-1.3-1.67-2.47-3.28-3.54-4.8q-6-9.35-12.09-18.16t-12.11-17.91l-16.43-25.1a63.86,63.86,0,0,0,13.81-4.23,37.61,37.61,0,0,0,11.3-7.53,34.84,34.84,0,0,0,7.64-11.2A37.16,37.16,0,0,0,495,369.26q0-17.34-12.43-26.26t-35.27-8.9H407.57v2.29h1.15a4.31,4.31,0,0,1,3,1.25,13,13,0,0,1,2.41,3.08,14.15,14.15,0,0,1,1.48,3.88,16.84,16.84,0,0,1,.45,3.66V469.92a19,19,0,0,1-.45,4,14.09,14.09,0,0,1-1.48,4,14.83,14.83,0,0,1-2.41,3.2,4.13,4.13,0,0,1-3,1.37h-1.15v2.28h32.2v-2.28h-1.14m-3.89-140.62a131.86,131.86,0,0,1,18,1.13,40.7,40.7,0,0,1,14,4.34A23.79,23.79,0,0,1,476,356q3.3,5.48,3.31,14.16c0,5.78-1,10.58-3.08,14.37a28.2,28.2,0,0,1-7.78,9.25,29.48,29.48,0,0,1-10,5,37.73,37.73,0,0,1-10.15,1.49c-4,0-7.28-.05-9.93-.12s-4.61-.19-5.82-.34h-1.15v-58ZM611,340a60.53,60.53,0,0,1,10.85,1,38,38,0,0,1,10.5,3.53,25.67,25.67,0,0,1,8.56,7.2,27.33,27.33,0,0,1,5,11.76h2.29V338.21a27.89,27.89,0,0,1-5.61-.57,53.22,53.22,0,0,1-6.27-1.71c-3.19-.92-6.81-1.83-10.83-2.74a62,62,0,0,0-13.59-1.38q-21,0-36.53,6.86a76.49,76.49,0,0,0-25.75,17.92,71.91,71.91,0,0,0-15.19,25,83.53,83.53,0,0,0-4.95,28.08,82.6,82.6,0,0,0,4.95,28,72.57,72.57,0,0,0,15,24.76,75.85,75.85,0,0,0,25.06,17.82q15.06,6.84,34.92,6.84a81.25,81.25,0,0,0,15.18-1.36c4.8-.92,9.17-1.91,13.14-3,3-.76,5.82-1.44,8.33-2a30,30,0,0,1,7.19-.93V454.41h-2.29a31.26,31.26,0,0,1-7.2,12.56,35.6,35.6,0,0,1-10.15,7.41,41,41,0,0,1-11.06,3.54,61.51,61.51,0,0,1-9.71.92,59.68,59.68,0,0,1-26.7-6.06,73.25,73.25,0,0,1-21.58-16A74.63,74.63,0,0,1,550,434a69.46,69.46,0,0,1-5.24-26.36,76.52,76.52,0,0,1,4-24A65.21,65.21,0,0,1,561,361.84a62.56,62.56,0,0,1,20.67-15.75q12.43-6,29.33-6"/><path class="cls-3" d="M360.1,484.77h47.47v-2.28H392.74c-3,0-5.52-1.46-7.42-4.33a41.2,41.2,0,0,1-4.45-8.91L329.73,331.36,277.46,470.61a30.78,30.78,0,0,1-4.68,8.34c-1.9,2.35-3.85,3.54-5.82,3.54h-1.15v2.28h25.34v-2.28H290a4.67,4.67,0,0,1-3.43-1.72,6.62,6.62,0,0,1-1.6-4.67,9.94,9.94,0,0,1,.68-3.43l19.85-54.56h40L366,473.57a12.64,12.64,0,0,1,.69,3.9c0,3.33-1.83,5-5.49,5H360.1ZM325.39,362.64,343,410.34H307.82ZM438.63,482.49a4.05,4.05,0,0,1-3.1-1.37,17.55,17.55,0,0,1-2.28-3.2,14.09,14.09,0,0,1-1.48-4,19,19,0,0,1-.45-4V407.39c1.68.3,3.45.56,5.36.79s3.7.42,5.36.56q10,15.09,20.21,30.6t20.44,30.58a41.58,41.58,0,0,0,9.7,10.4q5.81,4.46,14.94,4.45h9.83v-2.28a10.35,10.35,0,0,1-4.92-1.26,20.27,20.27,0,0,1-4.55-3.31,39.41,39.41,0,0,1-4.12-4.56c-1.3-1.67-2.47-3.28-3.54-4.8q-6-9.35-12.09-18.16t-12.11-17.91l-16.43-25.1a63.86,63.86,0,0,0,13.81-4.23,37.61,37.61,0,0,0,11.3-7.53,34.84,34.84,0,0,0,7.64-11.2A37.16,37.16,0,0,0,495,369.26q0-17.34-12.43-26.26t-35.27-8.9H407.57v2.29h1.15a4.31,4.31,0,0,1,3,1.25,13,13,0,0,1,2.41,3.08,14.15,14.15,0,0,1,1.48,3.88,16.84,16.84,0,0,1,.45,3.66V469.92a19,19,0,0,1-.45,4,14.09,14.09,0,0,1-1.48,4,14.83,14.83,0,0,1-2.41,3.2,4.13,4.13,0,0,1-3,1.37h-1.15v2.28h32.2v-2.28h-1.14m-3.89-140.62a131.86,131.86,0,0,1,18,1.13,40.7,40.7,0,0,1,14,4.34A23.79,23.79,0,0,1,476,356q3.3,5.48,3.31,14.16c0,5.78-1,10.58-3.08,14.37a28.2,28.2,0,0,1-7.78,9.25,29.48,29.48,0,0,1-10,5,37.73,37.73,0,0,1-10.15,1.49c-4,0-7.28-.05-9.93-.12s-4.61-.19-5.82-.34h-1.15v-58ZM611,340a60.53,60.53,0,0,1,10.85,1,38,38,0,0,1,10.5,3.53,25.67,25.67,0,0,1,8.56,7.2,27.33,27.33,0,0,1,5,11.76h2.29V338.21a27.89,27.89,0,0,1-5.61-.57,53.22,53.22,0,0,1-6.27-1.71c-3.19-.92-6.81-1.83-10.83-2.74a62,62,0,0,0-13.59-1.38q-21,0-36.53,6.86a76.49,76.49,0,0,0-25.75,17.92,71.91,71.91,0,0,0-15.19,25,83.53,83.53,0,0,0-4.95,28.08,82.6,82.6,0,0,0,4.95,28,72.57,72.57,0,0,0,15,24.76,75.85,75.85,0,0,0,25.06,17.82q15.06,6.84,34.92,6.84a81.25,81.25,0,0,0,15.18-1.36c4.8-.92,9.17-1.91,13.14-3,3-.76,5.82-1.44,8.33-2a30,30,0,0,1,7.19-.93V454.41h-2.29a31.26,31.26,0,0,1-7.2,12.56,35.6,35.6,0,0,1-10.15,7.41,41,41,0,0,1-11.06,3.54,61.51,61.51,0,0,1-9.71.92,59.68,59.68,0,0,1-26.7-6.06,73.25,73.25,0,0,1-21.58-16A74.63,74.63,0,0,1,550,434a69.46,69.46,0,0,1-5.24-26.36,76.52,76.52,0,0,1,4-24A65.21,65.21,0,0,1,561,361.84a62.56,62.56,0,0,1,20.67-15.75q12.43-6,29.33-6"/></svg>