<svg xmlns="http://www.w3.org/2000/svg" width="188.206" height="50.352" viewBox="0 0 188.206 50.352">
  <g id="Group_65809" data-name="Group 65809" transform="translate(-4156.218 160.025)">
    <g id="Group_65778" data-name="Group 65778" transform="translate(4156.218 -159.913)">
      <path id="Path_183327" data-name="Path 183327" d="M4196.19-135.4a14.667,14.667,0,0,1,3.55,9.585,14.739,14.739,0,0,1-14.734,14.741l-22.179.574-2.823.07-2.485.064a24.49,24.49,0,0,0,2.485-.255,24.684,24.684,0,0,0,13.154-6.418,25.3,25.3,0,0,0,3.32-3.824h8.527a4.692,4.692,0,0,0,4.69-4.7,4.692,4.692,0,0,0-4.69-4.7h-4.512c.044-.217.083-.44.121-.663a24.828,24.828,0,0,0,.35-4.162,24.563,24.563,0,0,0-.465-4.773c-.039-.236-.089-.472-.14-.7h4.646a4.69,4.69,0,0,0,4.69-4.691,4.692,4.692,0,0,0-4.69-4.7l-5.264-.083-3.843-.064a24.506,24.506,0,0,0-3.014-3.282,24.614,24.614,0,0,0-12.88-6.163,23.9,23.9,0,0,0-3.786-.293l3.786.013,1.262.006,23.74.076a14.735,14.735,0,0,1,14.734,14.741A14.671,14.671,0,0,1,4196.19-135.4Z" transform="translate(-4156.218 159.843)" fill="#ff9478"/>
      <path id="Path_183328" data-name="Path 183328" d="M4180.964-135.083a24.828,24.828,0,0,1-.35,4.162c-.039.223-.077.446-.121.663a24.667,24.667,0,0,1-4.015,9.394,25.3,25.3,0,0,1-3.32,3.824A24.684,24.684,0,0,1,4160-110.623a24.49,24.49,0,0,1-2.485.255h-.026l-1.274.032v-9.738a15.01,15.01,0,0,0,15.009-15.009,15.006,15.006,0,0,0-15.009-15.009v-9.738a23.9,23.9,0,0,1,3.786.293,24.614,24.614,0,0,1,12.88,6.163,24.506,24.506,0,0,1,3.014,3.282,24.677,24.677,0,0,1,4.461,9.534c.051.229.1.465.14.7A24.563,24.563,0,0,1,4180.964-135.083Z" transform="translate(-4156.218 159.843)" fill="#ff531f"/>
      <path id="Path_183329" data-name="Path 183329" d="M4175.038-153.381a24.615,24.615,0,0,0-12.88-6.163v-.306c.42,0,.841.013,1.262.032a24.645,24.645,0,0,1,15.4,6.424,23.786,23.786,0,0,1,3.015,3.282l.057.076-3.843-.064A24.509,24.509,0,0,0,4175.038-153.381Z" transform="translate(-4158.372 159.85)" fill="#300a01" opacity="0.15"/>
      <path id="Path_183330" data-name="Path 183330" d="M4178.632-98.69h3.773a25.152,25.152,0,0,1-3.308,3.8,24.684,24.684,0,0,1-14.116,6.558c-.5.051-1.014.1-1.523.121h-.026l-1.274.025v-.268a24.681,24.681,0,0,0,13.154-6.418A25.3,25.3,0,0,0,4178.632-98.69Z" transform="translate(-4158.372 137.668)" fill="#300a01" opacity="0.15"/>
      <path id="Path_183331" data-name="Path 183331" d="M4198.489-124.128a24.88,24.88,0,0,1-.35,4.162c-.039.223-.077.446-.121.656a.022.022,0,0,1-.007.019h-3.779c.044-.217.083-.44.121-.663a24.828,24.828,0,0,0,.35-4.162,24.563,24.563,0,0,0-.465-4.773c-.039-.236-.089-.472-.14-.7h3.786c.051.223.1.459.14.688A24.563,24.563,0,0,1,4198.489-124.128Z" transform="translate(-4169.957 148.875)" fill="#300a01" opacity="0.15"/>
      <line id="Line_21" data-name="Line 21" x1="0.006" transform="translate(24.269 29.584)" fill="none" stroke="#631508" stroke-miterlimit="10" stroke-width="1"/>
    </g>
    <text id="Your_Defi_Wallet" data-name="Your Defi Wallet" transform="translate(4210.346 -113.673)" fill="#fefefe" font-size="17" font-family="Arial-BoldMT, Arial" font-weight="700"><tspan x="0" y="0">Your Defi Wallet</tspan></text>
    <g id="Group_65780" data-name="Group 65780" transform="translate(4211.365 -160.025)">
      <g id="Group_65779" data-name="Group 65779" transform="translate(0)">
        <path id="Path_183332" data-name="Path 183332" d="M4440.993-133.211c-1.965-.018-3.93-.061-5.893-.038a1.423,1.423,0,0,1-1.358-.708c-1.5-2.245-3.03-4.467-4.565-6.688a2.193,2.193,0,0,0-.964-1v2.9c0,1.516-.028,3.031.012,4.545.018.693-.151,1-.921.959-1.3-.061-2.6-.043-3.894-.005-.639.018-.934-.129-.932-.844q.029-12.526,0-25.053c0-.691.252-.888.917-.864,1.26.045,2.525.067,3.783-.006.858-.05,1.056.257,1.049,1.067-.035,4.693-.017,9.386-.017,14.079v.985c.524.076.621-.32.8-.549,1.482-1.847,2.965-3.693,4.4-5.573a1.736,1.736,0,0,1,1.568-.806c1.63.047,3.264.01,4.9.021.241,0,.573-.106.7.183s-.183.453-.341.638c-1.775,2.085-3.539,4.181-5.355,6.23a1.1,1.1,0,0,0-.106,1.677c1.887,2.468,3.7,4.994,5.545,7.491.19.257.3.6.668.7Z" transform="translate(-4307.935 160.025)" fill="#fff"/>
        <path id="Path_183333" data-name="Path 183333" d="M4242.874-144.8c0-3.807.023-7.615-.019-11.422-.009-.816.192-1.092,1.043-1.06,3.778.138,7.574-.26,11.338.26,4.694.648,8.651,2.588,10.245,7.339,2.493,7.435-.481,15.079-9.443,16.974-3.413.721-6.876.361-10.317.42-.912.015-2.1.414-2.671-.186s-.162-1.762-.167-2.677C4242.861-138.369,4242.874-141.585,4242.874-144.8Zm5.824-.022c0,2.143.026,4.288-.013,6.43-.014.773.257,1.064,1.027,1.011.961-.067,1.927-.053,2.89-.1,5.18-.268,7.741-3.113,7.446-8.26a6.343,6.343,0,0,0-4.937-6.077,22.3,22.3,0,0,0-5.411-.439c-.789-.025-1.025.251-1.012,1.007C4248.723-149.11,4248.7-146.966,4248.7-144.822Z" transform="translate(-4242.749 159.037)" fill="#fff"/>
        <path id="Path_183334" data-name="Path 183334" d="M4334.116-145.424a.676.676,0,0,0,.16.133c3.838,1.479,5.037,3.2,4.744,6.82-.232,2.865-2.568,5.107-6.015,5.793a18.311,18.311,0,0,1-3.42.388c-3.041.025-6.083-.005-9.124.024-.651.006-.92-.154-.919-.854q.029-11.639.011-23.277c0-.464-.014-.895.667-.874,4,.12,8.01-.281,12,.247,4.159.55,6.416,3.526,5.693,7.42a5.146,5.146,0,0,1-2.753,3.561C4334.816-145.844,4334.368-145.817,4334.116-145.424Zm-8.833,5.431v.111c0,2.827,0,2.818,2.85,2.83a7.9,7.9,0,0,0,3.383-.5,2.675,2.675,0,0,0,1.591-2.891,2.37,2.37,0,0,0-1.892-2.189,9.321,9.321,0,0,0-2.975-.3C4325.283-142.927,4325.283-142.932,4325.283-139.994Zm.006-10.045c0,.665-.01,1.33,0,1.995.007.326-.015.753.452.744,1.657-.029,3.347.3,4.955-.346a2.494,2.494,0,0,0,1.631-2.626,2.255,2.255,0,0,0-1.966-2.1,12.681,12.681,0,0,0-2.425-.255C4325.283-152.679,4325.283-152.661,4325.289-150.039Z" transform="translate(-4270.602 159.039)" fill="#fff"/>
        <path id="Path_183335" data-name="Path 183335" d="M4393.515-143.7c.316.029.394-.156.508-.287a6.432,6.432,0,0,1,7.108-2.046,5.96,5.96,0,0,1,4.1,5.755c.108,3.728.037,7.462.072,11.193.006.674-.3.788-.878.775-1.334-.031-2.672-.048-4,.006-.712.029-.869-.235-.862-.892.03-2.882.017-5.764.008-8.646a6.569,6.569,0,0,0-.161-1.758c-.3-1.077-.817-1.9-2.035-2.051a2.854,2.854,0,0,0-3.048,1.354,4.724,4.724,0,0,0-.652,2.539c.006,2.808-.034,5.617.021,8.423.017.852-.25,1.074-1.067,1.032-1.294-.066-2.6-.04-3.894-.008-.563.013-.784-.151-.782-.746q.026-7.98,0-15.96c0-.628.226-.857.84-.845,1.186.022,2.375.047,3.56-.01.867-.043,1.233.247,1.114,1.132A5.553,5.553,0,0,0,4393.515-143.7Z" transform="translate(-4295.413 155.076)" fill="#fff"/>
        <path id="Path_183336" data-name="Path 183336" d="M4296.185-135.634c-1.743,0-3.486-.006-5.229,0-1.12.006-1.286.3-.763,1.314a4.731,4.731,0,0,0,6.873,1.236,1.586,1.586,0,0,1,2.348-.029,13.785,13.785,0,0,0,1.879,1.181c.649.342.623.656.167,1.159a8.707,8.707,0,0,1-5.516,2.826,11.6,11.6,0,0,1-6.627-.876c-3.639-1.743-5.449-5.454-4.829-9.928a8.944,8.944,0,0,1,7.1-7.469c6.669-1.313,11.436,2.944,11.1,9.866-.029.613-.305.727-.83.723C4299.967-135.646,4298.076-135.635,4296.185-135.634Zm-2.59-3.468c.926,0,1.853,0,2.779,0,1.112-.007,1.268-.244.886-1.321-.553-1.559-1.819-2.26-3.836-2.121a3.921,3.921,0,0,0-3.475,2.667c-.134.577.021.808.645.785C4291.592-139.13,4292.594-139.1,4293.594-139.1Z" transform="translate(-4257.843 155.103)" fill="#fff"/>
        <path id="Path_183337" data-name="Path 183337" d="M4365.978-130.1c-2.914,2.465-6.174,2.826-9.086,1.071a5.019,5.019,0,0,1-.455-8.2,11.2,11.2,0,0,1,5.952-1.9q1.44-.135,2.887-.182c.542-.018.694-.219.625-.756a2.324,2.324,0,0,0-1.816-2.011,5.591,5.591,0,0,0-5.124,1.087c-.548.4-.855.377-1.258-.134-.388-.493-.854-.923-1.285-1.382-1.063-1.132-1.082-1.16.194-1.99a11.9,11.9,0,0,1,10.221-1.464c2.773.81,3.85,3.048,4.252,5.692.447,2.941.164,5.9.211,8.857.016.982.445,2.269-.2,2.872s-1.91.128-2.9.182c-.074,0-.148,0-.223,0C4366.25-128.365,4366.25-128.365,4365.978-130.1Zm-1.319-5.988a7.63,7.63,0,0,0-3.955.879,1.762,1.762,0,0,0-.125,3.036,3.674,3.674,0,0,0,5.463-2.394C4366.253-136.049,4366.167-136.142,4364.659-136.091Z" transform="translate(-4283.289 155.125)" fill="#fff"/>
      </g>
    </g>
  </g>
</svg>
