<svg xmlns="http://www.w3.org/2000/svg" width="190.049" height="50.465" viewBox="0 0 190.049 50.465">
  <g id="Group_66290" data-name="Group 66290" transform="translate(-639.71 391.1)">
    <g id="Group_66288" data-name="Group 66288" transform="translate(699.172 -374.819)">
      <path id="Path_184507" data-name="Path 184507" d="M632.992-352.172a5.251,5.251,0,0,0-3.926,1.581,1.515,1.515,0,0,1-.107-.817c0-1.3-.018-2.612.018-3.926.018-.515-.16-.657-.657-.64a18.812,18.812,0,0,1-2.239,0c-.64-.053-.746.2-.746.782.018,4.211,0,8.422.018,12.632,0,.728-.32,1.706.142,2.132.426.355,1.368.124,2.1.124,1.261.018,1.261,0,1.386-1.3a1.093,1.093,0,0,1,.249.2c1.9,2.381,7.675,1.954,9.008-2.221a8.32,8.32,0,0,0,.444-2.949A5.507,5.507,0,0,0,632.992-352.172Zm-.213,9.47a3.013,3.013,0,0,1-3.926-2.647,7.223,7.223,0,0,1,.018-1.386c.249-2.523,1.954-3.127,3.944-2.772,1.279.213,2.132,1.723,2.1,3.447C634.893-344.266,634.147-343.093,632.779-342.7Z" transform="translate(-575.368 357.862)" fill="#fff"/>
      <path id="Path_184508" data-name="Path 184508" d="M659.489-347c1.649-1.567,3.162-2.992,4.655-4.438a1.3,1.3,0,0,1,1.013-.41c1.126.028,2.253.011,3.42.011-.041.323-.282.446-.451.608-1.3,1.242-2.589,2.493-3.919,3.7-.416.377-.439.613-.087,1.054,1.613,2.027,3.189,4.085,4.777,6.131.091.119.169.249.329.485-1.365,0-2.633.005-3.9-.005-.295,0-.416-.275-.569-.471-1.025-1.315-2.066-2.619-3.058-3.958-.322-.433-.474-.343-.856-.057a3,3,0,0,0-1.356,3.154c.046.249-.016.515.011.769.046.425-.1.593-.549.57a15.908,15.908,0,0,0-2.079,0c-.634.053-.819-.137-.814-.789.034-3.569.016-7.141.016-10.71,0-1.388.032-2.775-.016-4.159-.023-.67.11-.995.862-.9a8.171,8.171,0,0,0,1.693,0c.67-.062.915.115.9.856-.053,2.491-.02,4.982-.02,7.473Z" transform="translate(-551.44 357.516)" fill="#fff"/>
      <path id="Path_184509" data-name="Path 184509" d="M597.185-348.186c0-2.361.012-4.724-.011-7.085-.005-.483.1-.652.624-.648q5.391.037,10.781,0c.5,0,.68.117.638.633a9.956,9.956,0,0,0,0,1.691c.053.57-.181.666-.695.659-2.335-.025-4.673,0-7.007-.021-.51-.005-.661.144-.64.648.039.922.044,1.85,0,2.772-.027.512.176.581.616.576,2.027-.02,4.056.009,6.083-.021.526-.007.737.114.689.672a11,11,0,0,0,0,1.693c.034.482-.146.606-.609.6-2.027-.023-4.056.007-6.083-.021-.524-.007-.711.112-.695.672.043,1.436-.016,2.876.03,4.312.021.6-.178.741-.736.707a18.551,18.551,0,0,0-2.31,0c-.54.032-.691-.131-.684-.677C597.2-343.41,597.185-345.8,597.185-348.186Z" transform="translate(-597.172 357.909)" fill="#fff"/>
      <path id="Path_184510" data-name="Path 184510" d="M626.568-352.758a6.307,6.307,0,0,0-5.028-1.208,5.548,5.548,0,0,0-5.028,3.891,5.9,5.9,0,0,0,1.3,6.556c2.345,2.31,6.876,2.505,9.594.48.568-.444.64-.746.053-1.208a6.353,6.353,0,0,1-.977-.977c-.284-.32-.48-.391-.853-.089a4.407,4.407,0,0,1-3.553.871,2.986,2.986,0,0,1-2.505-2.31h8.617c.3,0,.622.071.622-.426A6.944,6.944,0,0,0,626.568-352.758Zm-1.475,3.909c-1.848-.018-3.678-.018-5.579-.018a3.049,3.049,0,0,1,2.843-2.487,3.027,3.027,0,0,1,3.02,1.919C625.5-349.116,625.645-348.85,625.094-348.85Z" transform="translate(-582.501 359.372)" fill="#fff"/>
      <path id="Path_184511" data-name="Path 184511" d="M650.455-351.336a6.51,6.51,0,0,0-5.348-2.7,6.346,6.346,0,0,0-4.513,1.652c-1.581,1.421-2.576,3.18-2.1,5.383a6.677,6.677,0,0,0,9.132,4.726C650.562-343.447,653.4-347.427,650.455-351.336ZM645-344.691a3.25,3.25,0,0,1-3.18-3.127,3.152,3.152,0,0,1,3.234-3.109,3.151,3.151,0,0,1,3.2,3.145A3.175,3.175,0,0,1,645-344.691Z" transform="translate(-565.169 359.371)" fill="#fff"/>
      <path id="Path_184512" data-name="Path 184512" d="M669.579-341.687a10.926,10.926,0,0,1-4.594-.995c-.4-.19-.622-.35-.33-.83a10.306,10.306,0,0,0,.719-1.524c.156-.391.309-.391.668-.2a6.857,6.857,0,0,0,4.74.835,3.2,3.2,0,0,0,.441-.13c.394-.149.792-.334.794-.826,0-.535-.432-.755-.856-.856a18.519,18.519,0,0,0-2.118-.361,7.643,7.643,0,0,1-2.441-.641,3.144,3.144,0,0,1-.405-5.677,7.888,7.888,0,0,1,5.616-1.03,10.038,10.038,0,0,1,2.574.732c.426.174.6.339.329.815-.355.62-.465,1.524-.975,1.866s-1.2-.414-1.849-.56a5.337,5.337,0,0,0-2.58-.16,2.115,2.115,0,0,0-.886.434c-.565.5-.489,1.055.234,1.26.934.263,1.9.426,2.848.624a8.459,8.459,0,0,1,1.906.574,3.035,3.035,0,0,1,2.026,2.573,3.272,3.272,0,0,1-1.688,3.147A7.788,7.788,0,0,1,669.579-341.687Z" transform="translate(-544.863 359.378)" fill="#fff"/>
      <path id="Path_184513" data-name="Path 184513" d="M659.6-344.628a6.874,6.874,0,0,1-7.7,2.612,6.333,6.333,0,0,1-4.578-6.06,6.475,6.475,0,0,1,5.954-6.007,7.05,7.05,0,0,1,6.042,2.42c.348.4.391.659-.16.887a6.706,6.706,0,0,0-.86.508,4.727,4.727,0,0,1-1.26.721c-.549.119-.652-.576-1.015-.853a3.173,3.173,0,0,0-4.356.46,3.166,3.166,0,0,0,.274,4.435,2.983,2.983,0,0,0,4.282-.075.871.871,0,0,1,1.37-.167C658.233-345.33,658.928-345,659.6-344.628Z" transform="translate(-558.222 359.322)" fill="#fff"/>
      <path id="Path_184514" data-name="Path 184514" d="M634.262-348.255c0-2.491.021-4.982-.014-7.473-.009-.6.167-.744.734-.711.844.048,1.695.032,2.541,0,.409-.012.521.124.519.526q-.016,7.667,0,15.333c0,.418-.146.526-.533.517-.872-.021-1.748-.039-2.619.007-.524.027-.645-.16-.64-.652C634.275-343.221,634.262-345.737,634.262-348.255Z" transform="translate(-568.376 357.503)" fill="#fff"/>
      <path id="Path_184515" data-name="Path 184515" d="M613.972-352.407a4.52,4.52,0,0,1,3.452-1.615c.407,0,.535.126.519.528-.027.743-.028,1.487,0,2.23.018.439-.114.567-.563.528a3.225,3.225,0,0,0-2.647.977,2.605,2.605,0,0,0-.839,1.983c.034,1.768-.005,3.537.021,5.307.009.492-.112.675-.633.648-.817-.043-1.64-.023-2.461-.005-.327.005-.451-.1-.45-.439q.011-5.538,0-11.076c0-.33.117-.462.448-.453.487.014.974,0,1.46,0C613.653-353.793,613.653-353.793,613.972-352.407Z" transform="translate(-586.919 359.383)" fill="#fff"/>
      <path id="Path_184516" data-name="Path 184516" d="M605.834-347.839c0-1.77.018-3.539-.011-5.309-.009-.542.092-.791.707-.75.817.057,1.642.025,2.461.007.373-.009.561.071.56.5q-.019,5.5,0,11c0,.393-.172.471-.515.464-.871-.014-1.745-.034-2.615.007-.494.023-.6-.162-.593-.615C605.848-344.3,605.836-346.067,605.834-347.839Z" transform="translate(-590.453 359.477)" fill="#fff"/>
      <path id="Path_184517" data-name="Path 184517" d="M607.788-353.094a2.06,2.06,0,0,1-2.139-1.956,2.143,2.143,0,0,1,2.208-1.988,2.2,2.2,0,0,1,2.127,2.022A2.141,2.141,0,0,1,607.788-353.094Z" transform="translate(-590.588 357.039)" fill="#fff"/>
    </g>
    <g id="Group_66289" data-name="Group 66289" transform="translate(639.71 -391.1)">
      <circle id="Ellipse_13298" data-name="Ellipse 13298" cx="25.232" cy="25.232" r="25.232" fill="#fff"/>
      <rect id="Rectangle_91778" data-name="Rectangle 91778" width="24.713" height="24.713" transform="translate(12.876 12.876)" fill="#10172a"/>
      <path id="Path_184518" data-name="Path 184518" d="M638.151-380.059l3.243,5.616,3.243,5.616h-12.97l3.243-5.616Z" transform="translate(-612.919 399.676)" fill="#fff"/>
    </g>
  </g>
</svg>
