<svg id="Group_54670" data-name="Group 54670" xmlns="http://www.w3.org/2000/svg" xmlns:xlink="http://www.w3.org/1999/xlink" width="111.019" height="61.262" viewBox="0 0 111.019 61.262">
  <defs>
    <linearGradient id="linear-gradient" x1="0.149" y1="0.148" x2="0.842" y2="0.842" gradientUnits="objectBoundingBox">
      <stop offset="0" stop-color="#00b7e6"/>
      <stop offset="1" stop-color="#007be0"/>
    </linearGradient>
  </defs>
  <path id="Path_70194" data-name="Path 70194" d="M71.9,114.7a3.314,3.314,0,0,1-3.186-2.095,3.414,3.414,0,0,1,.737-3.674Q76.27,102.1,83.111,95.282a3.419,3.419,0,1,1,4.793,4.876q-4.572,4.555-9.138,9.116-2.228,2.228-4.461,4.45A3.126,3.126,0,0,1,71.9,114.7Z" transform="translate(-47.247 -53.439)" fill="#1b4ddc"/>
  <path id="Path_70195" data-name="Path 70195" d="M84.88,91.729c.044-.26-.089-.3-.349-.3H83.24c-1.036,0-1.036,0-1.119,1.081A3.916,3.916,0,0,0,77.9,91.424a5.146,5.146,0,0,0-2.327,7.847,4.43,4.43,0,0,0,5.386,1.6A3.681,3.681,0,0,0,82.165,100v1.036a2.273,2.273,0,0,1-1.6,2.283,2.242,2.242,0,0,1-2.76-1.164.381.381,0,0,0-.388-.26H75.354c-.3,0-.349.133-.3.388a3.7,3.7,0,0,0,1.424,2.333,5.691,5.691,0,0,0,4.311.986,4.331,4.331,0,0,0,4.051-4.134C84.963,98.234,84.88,94.959,84.88,91.729Zm-5.043,7.026a2.454,2.454,0,0,1-2.46-2.543,2.48,2.48,0,1,1,4.96.039A2.453,2.453,0,0,1,79.837,98.755Z" transform="translate(-19.359 -67.28)" fill="#fff"/>
  <path id="Path_70196" data-name="Path 70196" d="M89.756,92.845a4.281,4.281,0,0,0-5.735-.9c-.172.127-.344.3-.56.471a1.643,1.643,0,0,1,0-.471c.044-.393-.083-.565-.515-.521-.6.044-1.252,0-1.9,0-.255,0-.388.089-.344.344v13.194c0,.388.044.56.477.515h1.768c.432.044.515-.083.515-.477-.044-1.552,0-3.059,0-4.694a4.125,4.125,0,0,0,4.96.731A5.561,5.561,0,0,0,89.756,92.845ZM85.7,99.052a2.681,2.681,0,0,1,.039-5.347,2.491,2.491,0,0,1,2.46,2.676A2.519,2.519,0,0,1,85.7,99.052Z" transform="translate(8.31 -67.278)" fill="#fff"/>
  <path id="Path_70197" data-name="Path 70197" d="M85.713,96.316a3.964,3.964,0,0,1,5.159-.46,3.6,3.6,0,0,1,1.435,2.859c.061,2.061.022,4.128.033,6.2,0,.272-.083.355-.355.349-.637-.017-1.274-.028-1.912,0-.36.017-.471-.083-.465-.454.022-1.6.006-3.2.011-4.8a3.629,3.629,0,0,0-.15-1.225,1.52,1.52,0,0,0-1.308-1.147,1.941,1.941,0,0,0-1.995.892,3.157,3.157,0,0,0-.449,1.768c-.006,1.463-.028,2.931.011,4.389.011.5-.155.61-.6.576-.571-.033-1.142-.022-1.707,0-.332.017-.449-.072-.438-.421.022-.792.006-1.585.006-2.377,0-3.857.006-7.714-.011-11.57,0-.427.1-.565.538-.538a16.358,16.358,0,0,0,1.807.006c.321-.017.4.089.4.4-.017,1.651-.011,3.3-.011,4.96Z" transform="translate(18.676 -71.181)" fill="#fff"/>
  <path id="Path_70198" data-name="Path 70198" d="M79.062,93.856a3.94,3.94,0,0,1,4.987-.576,3.572,3.572,0,0,1,1.6,2.97c.067,2.061.022,4.128.039,6.2,0,.283-.094.344-.36.338-.632-.017-1.275-.028-1.906,0-.36.017-.471-.072-.465-.443.022-1.568.011-3.136.011-4.7a4.893,4.893,0,0,0-.083-1.025,1.621,1.621,0,0,0-1.1-1.38,1.925,1.925,0,0,0-2,.488,2.828,2.828,0,0,0-.72,2.089c-.011,1.5-.017,2.992.006,4.489.006.382-.083.51-.482.482a10.954,10.954,0,0,0-1.651.006c-.482.039-.626-.089-.626-.6.028-4.006.017-8.018.017-12.025,0-.637.011-1.275-.006-1.912-.006-.271.078-.355.349-.344.637.017,1.275.028,1.912-.006.377-.017.493.072.488.471-.022,1.635-.011,3.269-.011,4.9Z" transform="translate(-11.578 -82.324)" fill="#fff"/>
  <path id="Path_70199" data-name="Path 70199" d="M88.155,91.424h-1.38c-.948,0-.948,0-.948.864a.133.133,0,0,1-.044.083,4.267,4.267,0,0,0-6.422.693,5.679,5.679,0,0,0-.26,6.206,4.255,4.255,0,0,0,6.727,1.036v.515c-.089.477.127.56.56.56.56-.044,1.164-.044,1.768-.044.3.044.388-.083.388-.388V91.812C88.543,91.512,88.5,91.379,88.155,91.424Zm-4.616,7.63a2.474,2.474,0,0,1-2.455-2.715,2.427,2.427,0,0,1,2.455-2.632,2.679,2.679,0,0,1,0,5.347Z" transform="translate(-2.546 -67.28)" fill="#fff"/>
  <path id="Path_70200" data-name="Path 70200" d="M84.942,94.579c1.164,0,2.327-.044,3.535,0,.255,0,.382-.083.382-.388a6.74,6.74,0,0,0-.471-2.416,5.265,5.265,0,0,0-9.659.3,5.364,5.364,0,0,0,1.341,5.73,5.506,5.506,0,0,0,5.818.82,4.4,4.4,0,0,0,2.671-2.582c.127-.349.044-.432-.26-.432-.731.044-1.419,0-2.156,0a.513.513,0,0,0-.427.255,2.623,2.623,0,0,1-2.46.82,2.345,2.345,0,0,1-2.067-1.635c-.127-.349-.127-.521.344-.521C82.654,94.579,83.817,94.579,84.942,94.579Zm-1.6-3.619a2.252,2.252,0,0,1,2.327,1.291c.216.477.172.515-.344.515h-4.1A2.154,2.154,0,0,1,83.346,90.96Z" transform="translate(-2.049 -78.409)" fill="#fff"/>
  <path id="Path_70201" data-name="Path 70201" d="M79.271,95.591a10.826,10.826,0,0,0,.089,1.989,1.209,1.209,0,0,0,1.175,1.031,2.79,2.79,0,0,0,1.075-.028c.51-.172.488.072.477.421-.011.515-.006,1.031,0,1.552.006.183-.006.338-.227.393-1.435.366-3.685.238-4.721-1.319a3.76,3.76,0,0,1-.576-2.156c-.006-1.153-.033-2.305.011-3.458.017-.5-.155-.615-.6-.571-.355.033-.72-.006-1.081.011-.277.017-.36-.089-.349-.355.017-.549.022-1.1-.006-1.651-.017-.344.127-.4.421-.388.41.022.826-.011,1.241.011.3.017.377-.1.371-.382-.022-.671.006-1.341-.011-2.011-.011-.288.061-.4.371-.388.654.022,1.308.028,1.962,0,.349-.017.393.122.388.416-.022.654.011,1.308-.017,1.962-.006.31.061.421.393.41.687-.033,1.38-.006,2.067-.017.244,0,.382.028.371.327-.022.582-.017,1.169,0,1.757.006.255-.1.316-.333.31-.709-.011-1.413.011-2.122-.011-.294-.006-.388.083-.371.377C79.288,94.372,79.271,94.921,79.271,95.591Z" transform="translate(-19.668 -80.53)" fill="#fff"/>
  <path id="Path_70202" data-name="Path 70202" d="M75.555,93.713a3.411,3.411,0,1,1,.033-6.821,3.411,3.411,0,1,1-.033,6.821Z" transform="translate(-30.471 -86.891)" fill="#0090e3"/>
  <path id="Path_70203" data-name="Path 70203" d="M79.759,92.681c.15-.177.233-.255.294-.349a2.7,2.7,0,0,1,2.771-1.069c.288.033.31.2.3.427-.006.671-.017,1.341.006,2.012.011.36-.111.371-.421.31a2.152,2.152,0,0,0-2.521.787,2.548,2.548,0,0,0-.421,1.358c0,1.546-.017,3.092,0,4.638.006.393-.105.5-.488.482-.637-.033-1.274-.022-1.912,0-.3.011-.377-.1-.377-.388q.017-4.588,0-9.182c0-.3.1-.382.388-.377.637.017,1.274.028,1.906-.006.4-.022.521.116.477.493A8.563,8.563,0,0,0,79.759,92.681Z" transform="translate(-8.486 -67.196)" fill="#fff"/>
  <path id="Path_70204" data-name="Path 70204" d="M85.278,86.9a20.647,20.647,0,1,0,20.692,20.647A20.646,20.646,0,0,0,85.278,86.9Zm0,34.1a13.449,13.449,0,1,1,13.493-13.449A13.466,13.466,0,0,1,85.278,121Z" transform="translate(-64.631 -86.85)" fill="url(#linear-gradient)"/>
</svg>
