<svg id="Layer_1" data-name="Layer 1" xmlns="http://www.w3.org/2000/svg" viewBox="0 0 601.91 128.89"><defs><style>.cls-1{fill:#fff;}</style></defs><path class="cls-1" d="M140.42,46.84a2.12,2.12,0,0,1-.68-1.74c0-.84-.05-1.66-.05-2.47V41.26a2.76,2.76,0,0,1,.25-1.22,2.07,2.07,0,0,1,1.29-1,.65.65,0,0,1,.37,0,.49.49,0,0,0,.36,0c.92,0,1.78,0,2.59.08a1.75,1.75,0,0,1,1.62,1,2.67,2.67,0,0,1,.24,1.18v1.41c0,1,0,1.89,0,2.75a1.69,1.69,0,0,1-1.09,1.7,2.25,2.25,0,0,1-.85.16H141.8A2.32,2.32,0,0,1,140.42,46.84Zm6,45.86c0,.54,0,1.09,0,1.66a1.93,1.93,0,0,1-.36,1.34,1.11,1.11,0,0,1-.73.6l-1.14.29H143a10.7,10.7,0,0,1-1.82-.13A1.61,1.61,0,0,1,140,95.7a2.2,2.2,0,0,1-.33-1.26V57a2,2,0,0,1,.41-1.33,1,1,0,0,1,.65-.49,6.68,6.68,0,0,0,.89-.24,1.65,1.65,0,0,1,.36,0,.54.54,0,0,0,.36,0c.7,0,1.42,0,2.15,0a1.68,1.68,0,0,1,1.49.69,1.88,1.88,0,0,1,.41,1.25V92.7Z"/><path class="cls-1" d="M176.74,54.12a17.17,17.17,0,0,1,8.17,1.37,12,12,0,0,1,4.94,4.61,7.53,7.53,0,0,1,.76,1.74c.19.62.37,1.26.53,1.9a16.27,16.27,0,0,1,.49,3.32c.05,1.19.08,2.4.08,3.64V92c0,.91,0,1.83,0,2.75a1.75,1.75,0,0,1-1.1,1.77,3,3,0,0,1-.85.21c-.29,0-.6,0-.93,0-.7,0-1.37,0-2,0A1.59,1.59,0,0,1,185.4,96a2.45,2.45,0,0,1-.41-1.46V72.64c0-1.45,0-2.9-.08-4.33a10.5,10.5,0,0,0-.73-3.68A6.27,6.27,0,0,0,182.24,62a10,10,0,0,0-3-1.57,3.77,3.77,0,0,0-1-.2,4.22,4.22,0,0,1-1-.21A6.47,6.47,0,0,0,176,60a8.07,8.07,0,0,0-1.17.12,1,1,0,0,1-.57.13,1.23,1.23,0,0,0-.56,0c-.7.16-1.36.33-2,.52a8,8,0,0,0-1.74.77c-.22.11-.41.22-.57.32a4.8,4.8,0,0,1-.57.33,11.48,11.48,0,0,0-4.12,6.06,5.69,5.69,0,0,0-.32,1.34,11.17,11.17,0,0,1-.25,1.33,1.31,1.31,0,0,0-.08.77,1,1,0,0,1-.08.69v1.7a1.27,1.27,0,0,0,0,.56,5.44,5.44,0,0,1,0,.73V94.52a2.54,2.54,0,0,1-.4,1.5,1.64,1.64,0,0,1-1.42.69c-.67,0-1.36,0-2.06,0a9.37,9.37,0,0,1-1.22-.08,2,2,0,0,1-1-.41,1.66,1.66,0,0,1-.64-1.53V57a1.73,1.73,0,0,1,.32-1.13,1.22,1.22,0,0,1,.81-.65,9,9,0,0,1,.93-.16,10.1,10.1,0,0,1,1.25-.08,10.39,10.39,0,0,1,1.26.08,2.12,2.12,0,0,1,.85.24,1.49,1.49,0,0,1,.81,1.42,4.73,4.73,0,0,0,.24,1.9,1.58,1.58,0,0,0,.65.81,1.69,1.69,0,0,0,1.57-.73,6.53,6.53,0,0,1,1.26-1.3c.75-.53,1.52-1,2.3-1.49a13,13,0,0,1,2.71-1.17,5.57,5.57,0,0,1,1.42-.33,11.87,11.87,0,0,0,1.49-.24,4.45,4.45,0,0,1,.81-.08Z"/><path class="cls-1" d="M206.91,42.31c.81,0,1.62,0,2.43,0a1.93,1.93,0,0,1,2.14,2c0,.57,0,1.15,0,1.74V50.8c0,.43,0,.88,0,1.34a3.2,3.2,0,0,0,.13,1.17,2,2,0,0,0,1.45,1.46,4.29,4.29,0,0,0,.77.08h.77c.59,0,1.32,0,2.18,0a4.71,4.71,0,0,1,1.86.2,2.69,2.69,0,0,1,1,1,1.6,1.6,0,0,1,.17.73v.81a14.16,14.16,0,0,1-.09,1.65,1.68,1.68,0,0,1-.56,1.18,2.17,2.17,0,0,1-1.34.44,17.6,17.6,0,0,1-1.78,0c-.62,0-1.22,0-1.82,0a4.39,4.39,0,0,0-1.53.24,1.53,1.53,0,0,0-.81.81,5,5,0,0,0-.33,1.34,12.25,12.25,0,0,0,0,1.62c0,.56,0,1.11,0,1.65v16c0,1.19,0,2.44,0,3.76a5.2,5.2,0,0,0,.69,3,2.12,2.12,0,0,0,1.05.9,9.5,9.5,0,0,0,1.54.4,1.16,1.16,0,0,0,.53,0,1.13,1.13,0,0,1,.52,0h1.05a8.77,8.77,0,0,1,1.5.12,1.41,1.41,0,0,1,1,.61,2.43,2.43,0,0,1,.28.85,8.36,8.36,0,0,1,.17,1.25,7.52,7.52,0,0,1,0,1.26,2.11,2.11,0,0,1-.33.93,1.88,1.88,0,0,1-1.21.8,5.16,5.16,0,0,1-1.46.13c-.54,0-1,0-1.45,0s-.65,0-1,0a3.19,3.19,0,0,1-.89,0h-1l-.77-.12c-.25,0-.5,0-.77,0a19.21,19.21,0,0,1-2.79-.89,4.34,4.34,0,0,1-2-1.7,7.8,7.8,0,0,1-1.3-4.08c-.11-1.64-.16-3.41-.16-5.3V63.18a11,11,0,0,0-.44-1.54,1.85,1.85,0,0,0-1.18-.81,1.38,1.38,0,0,0-.64,0,.87.87,0,0,1-.65-.08h-1.3a6.5,6.5,0,0,1-1.74-.2,1.4,1.4,0,0,1-.93-.93,2.38,2.38,0,0,1-.2-.73,7.32,7.32,0,0,1,0-.81,9.29,9.29,0,0,1,.16-1.9,1.68,1.68,0,0,1,1-1.17,5.08,5.08,0,0,1,2.31-.16,5.5,5.5,0,0,0,2.39-.17,2.86,2.86,0,0,0,1.13-1.13,3.81,3.81,0,0,0,.16-1.21V44.61a3.68,3.68,0,0,1,.16-1.17,2.39,2.39,0,0,1,1.22-1,2.06,2.06,0,0,0,.44,0A1.65,1.65,0,0,1,206.91,42.31Z"/><path class="cls-1" d="M265.72,73.94a5,5,0,0,1,.16,1.49,8.83,8.83,0,0,1-.08,1.42v.81q-.07.65-.12,1.17T265.56,80a3.81,3.81,0,0,0-.2,1,4.29,4.29,0,0,1-.21,1c-.21.7-.4,1.4-.56,2.1a10,10,0,0,1-.65,1.94,19.19,19.19,0,0,1-4.53,6.51,18.77,18.77,0,0,1-7,4,10,10,0,0,1-1.9.49l-2.06.32c-.32.06-.66.1-1,.13s-.69,0-1,0a4.38,4.38,0,0,1-.93.08,3.18,3.18,0,0,1-.85-.08,1.59,1.59,0,0,0-.65,0,1.26,1.26,0,0,1-.56,0H243l-1.94-.24c-.76-.21-1.49-.43-2.19-.65a20.92,20.92,0,0,1-2-.72,17.54,17.54,0,0,1-6-4.21A21.47,21.47,0,0,1,227,85.26a7.6,7.6,0,0,1-.6-1.62c-.14-.53-.26-1.1-.37-1.69a.84.84,0,0,1-.12-.53,1.28,1.28,0,0,0,0-.53,7.23,7.23,0,0,1-.2-1.33,8.49,8.49,0,0,0-.2-1.34v-.68a4,4,0,0,0-.08-.69,7.77,7.77,0,0,1-.08-1.42,5,5,0,0,1,.16-1.49,2.94,2.94,0,0,0,.08-1.14,2.56,2.56,0,0,1,.08-1.13q.08-.4.12-.69c0-.18.07-.41.12-.68.16-.65.31-1.3.45-1.94a8.42,8.42,0,0,1,.6-1.86,25,25,0,0,1,3-5.38,15.73,15.73,0,0,1,4.24-4,12.74,12.74,0,0,1,2-1.09l2.19-.93a7.53,7.53,0,0,1,2.1-.53,14,14,0,0,0,2.27-.44c.37,0,.74,0,1.09,0s.69-.07,1-.12a21.17,21.17,0,0,1,12,3,17.68,17.68,0,0,1,6.88,8,9.9,9.9,0,0,1,.64,1.62c.17.54.35,1.1.57,1.69s.3,1.23.41,1.9.24,1.37.4,2.07a3,3,0,0,1,0,.85A3,3,0,0,0,265.72,73.94Zm-7.2,4.61a3.82,3.82,0,0,0,.12-1.3c0-.48,0-.94,0-1.37a22,22,0,0,0-.56-5.34,10.69,10.69,0,0,1-.41-1.29,8.31,8.31,0,0,0-.4-1.22,13.1,13.1,0,0,0-7.2-7.28,5.77,5.77,0,0,0-1.22-.36c-.43-.08-.86-.18-1.29-.29a6,6,0,0,0-1.37-.16h-1.46l-1.46.25a13,13,0,0,0-1.49.36,7.32,7.32,0,0,0-1.34.53,3.58,3.58,0,0,0-1.05.48c-.32.22-.62.43-.89.65a11.4,11.4,0,0,0-3.15,3.31,22.66,22.66,0,0,0-2.11,4.53,8.54,8.54,0,0,0-.32,1.66q-.09.86-.24,1.74a4.51,4.51,0,0,0-.08,1,1.29,1.29,0,0,0-.05.57,5.35,5.35,0,0,1,.05.73v1.61a5.88,5.88,0,0,0,.16,1.46l.16,1c.11.54.2,1.07.28,1.58a4.66,4.66,0,0,0,.45,1.41,22.79,22.79,0,0,0,1.9,3.64,10.06,10.06,0,0,0,2.71,2.84c.27.16.51.29.73.4s.45.24.72.41a7.76,7.76,0,0,0,1.42.68c.51.19,1.06.37,1.66.53a1.52,1.52,0,0,0,.77.12,2.48,2.48,0,0,1,.76,0,6.15,6.15,0,0,0,1,.16,2.45,2.45,0,0,0,1.17-.08,1.77,1.77,0,0,1,.65,0,1.05,1.05,0,0,0,.64-.12c.43-.11.86-.2,1.3-.28a6.56,6.56,0,0,0,1.21-.37,11.24,11.24,0,0,0,4.45-3.15,18.2,18.2,0,0,0,2.83-4.78,7.34,7.34,0,0,0,.53-2.06A13.83,13.83,0,0,1,258.52,78.55Z"/><path class="cls-1" d="M299.21,94.08a13.69,13.69,0,0,1-9,3c-8,0-12.46-4.53-12.46-12.37V59h-7.6V54.12h7.6v-9.3h5.75v9.3h12.94V59H283.52v25.4c0,5,2.58,7.77,7.36,7.77A9.5,9.5,0,0,0,297.19,90Z"/><path class="cls-1" d="M348.79,72V96.67h-5.74V72.56c0-9-4.69-13.59-12.78-13.59-9.14,0-14.88,5.67-14.88,15.37V96.67h-5.75v-60h5.75V61.56c3.15-4.93,8.73-7.76,15.93-7.76C341.67,53.8,348.79,59.78,348.79,72Z"/><path class="cls-1" d="M401.61,77.17H366c.65,8.9,7.44,14.81,16.75,14.81a16.76,16.76,0,0,0,13-5.59L399,90.12c-3.8,4.52-9.7,6.95-16.42,6.95-13.26,0-22.32-9.06-22.32-21.68S369.1,53.8,381.07,53.8s20.62,8.81,20.62,21.59C401.69,75.88,401.61,76.53,401.61,77.17ZM366,72.89h30.17c-.72-8.34-6.79-14.16-15.12-14.16S366.75,64.55,366,72.89Z"/><path class="cls-1" d="M450.39,74.83a7.47,7.47,0,0,1,0,2.18,3.91,3.91,0,0,1,0,.61,4.52,4.52,0,0,0,0,.68,5.32,5.32,0,0,0-.16,1.3,5.69,5.69,0,0,1-.16,1.29,2.28,2.28,0,0,0-.08.61,2.77,2.77,0,0,1-.08.61c-.17.59-.32,1.16-.45,1.7a13.15,13.15,0,0,1-.53,1.61,23.84,23.84,0,0,1-2.75,5.1,15.41,15.41,0,0,1-4,3.88,22,22,0,0,1-2.35,1.38,11.91,11.91,0,0,1-1.74.64c-.56.17-1.14.33-1.73.49a5.6,5.6,0,0,1-1.06.2,4.92,4.92,0,0,0-1,.2h-.81a4,4,0,0,1-1.21.21,3.68,3.68,0,0,1-1.29-.13h-.81a3.1,3.1,0,0,0-.69-.08,3.54,3.54,0,0,1-.77-.08c-.81-.21-1.6-.4-2.38-.56a12.64,12.64,0,0,1-2.31-.73A12.41,12.41,0,0,1,421,94.32c-.33-.27-.65-.55-1-.85a2.56,2.56,0,0,0-1.14-.6.79.79,0,0,0-.76.2,1.58,1.58,0,0,0-.41.77,6.45,6.45,0,0,0-.16,1,1.85,1.85,0,0,1-.2.77,4.52,4.52,0,0,1-.73.72,3.56,3.56,0,0,1-1.09.21c-.46,0-.95,0-1.46,0a6.9,6.9,0,0,1-1.41-.13,3.6,3.6,0,0,1-1-.28,2.81,2.81,0,0,1-.33-.4l-.32-.49a5.35,5.35,0,0,1-.2-1.94c0-.86,0-1.59,0-2.18V43.68c0-.64,0-1.33,0-2.06a3,3,0,0,1,.36-1.74,2.43,2.43,0,0,1,1.05-.81,2.33,2.33,0,0,0,.41,0,3.58,3.58,0,0,1,.4,0,23.37,23.37,0,0,1,2.39,0,2.17,2.17,0,0,1,1.74.69,3.53,3.53,0,0,1,.4,1.82v13c0,.52,0,1,0,1.54a10.14,10.14,0,0,0,.16,1.37,1.31,1.31,0,0,0,.45.85.68.68,0,0,0,.73.08,3.17,3.17,0,0,0,.64-.32c.27-.21.53-.43.77-.65s.5-.43.77-.64a12,12,0,0,1,1.17-.73l1.26-.65a12.33,12.33,0,0,1,3.47-1,26.86,26.86,0,0,1,4.13-.32,23.58,23.58,0,0,1,4.13.36,16.8,16.8,0,0,1,3.55,1,17,17,0,0,1,5.59,3.8,18.59,18.59,0,0,1,3.72,5.67,17.31,17.31,0,0,1,.68,1.74c.19.56.4,1.14.61,1.73a15.85,15.85,0,0,1,.37,1.82c.08.62.17,1.23.28,1.82a1.84,1.84,0,0,1,.08.53,1.84,1.84,0,0,0,.08.53,1.56,1.56,0,0,1,0,.93A1.57,1.57,0,0,0,450.39,74.83Zm-7.2,2.1a1.79,1.79,0,0,0,.08-1,8.15,8.15,0,0,1-.08-1c0-.92,0-1.78-.12-2.59a7.64,7.64,0,0,0-.53-2.19c-.16-.53-.29-1-.4-1.45a7.1,7.1,0,0,0-.48-1.3,14.91,14.91,0,0,0-2.43-3.76A10.31,10.31,0,0,0,435.67,61c-.43-.16-.85-.31-1.25-.44a13,13,0,0,0-1.26-.36,7.87,7.87,0,0,0-1.78-.29c-.59,0-1.24,0-1.94,0a5.8,5.8,0,0,1-.73.12,5.35,5.35,0,0,1-.73,0l-1.41.33a6.71,6.71,0,0,0-1.34.48,10,10,0,0,0-4.36,3.36,18.2,18.2,0,0,0-2.59,5.22,7.06,7.06,0,0,0-.41,1.78,12.09,12.09,0,0,1-.32,1.86,1.46,1.46,0,0,0,0,.72,1.19,1.19,0,0,1-.08.73,8.67,8.67,0,0,0,0,2.35v.65a2.8,2.8,0,0,1,.08.64,1.91,1.91,0,0,0,.08.57,1.78,1.78,0,0,1,.08.53,1.77,1.77,0,0,0,.08.52c.11.43.2.86.29,1.29s.17.87.28,1.3A14.14,14.14,0,0,0,420.83,87a13.28,13.28,0,0,0,3.92,3.24,6,6,0,0,0,1.54.6l1.69.45a1.54,1.54,0,0,0,.77.12,2.53,2.53,0,0,1,.77,0,3.26,3.26,0,0,0,.73.08h1.46a2.51,2.51,0,0,1,.56-.08,2.67,2.67,0,0,0,.57-.08c.43-.11.83-.2,1.21-.28a10.19,10.19,0,0,0,1.21-.37A10.91,10.91,0,0,0,439.31,88a15.26,15.26,0,0,0,2.59-4.25,13.19,13.19,0,0,0,.6-2.3c.14-.78.31-1.58.53-2.39a1.52,1.52,0,0,0,.12-.77,2.48,2.48,0,0,1,0-.76Z"/><path class="cls-1" d="M461.39,39h2.23a2.33,2.33,0,0,1,1.73.57,2.77,2.77,0,0,1,.45,1.49c0,.62,0,1.26,0,1.91V94.08a3.45,3.45,0,0,1-.4,1.78,1,1,0,0,1-.69.48c-.3.06-.66.14-1.09.25h-1.14c-.59,0-1.16,0-1.69,0a1.64,1.64,0,0,1-1.22-.53,3.19,3.19,0,0,1-.44-1.62c0-.65,0-1.32,0-2v-49c0-.59,0-1.23,0-1.9a2.5,2.5,0,0,1,.36-1.58,2.41,2.41,0,0,1,1.21-.81.65.65,0,0,1,.37,0A.49.49,0,0,0,461.39,39Z"/><path class="cls-1" d="M514.7,73.94a5.34,5.34,0,0,1,.16,1.49,8.83,8.83,0,0,1-.08,1.42v.81q-.09.65-.12,1.17T514.54,80a4.33,4.33,0,0,0-.21,1,3.8,3.8,0,0,1-.2,1c-.22.7-.4,1.4-.57,2.1a10,10,0,0,1-.64,1.94,19.48,19.48,0,0,1-4.53,6.51,18.77,18.77,0,0,1-7,4,10.17,10.17,0,0,1-1.9.49l-2.06.32c-.33.06-.66.1-1,.13s-.69,0-1,0a4.42,4.42,0,0,1-.94.08,3.15,3.15,0,0,1-.84-.08,1.6,1.6,0,0,0-.65,0,1.29,1.29,0,0,1-.57,0H492L490,97.15c-.76-.21-1.49-.43-2.19-.65a20.92,20.92,0,0,1-2-.72,17.58,17.58,0,0,1-6-4.21A21.45,21.45,0,0,1,476,85.26a8.23,8.23,0,0,1-.61-1.62c-.13-.53-.25-1.1-.36-1.69a.84.84,0,0,1-.12-.53,1.28,1.28,0,0,0,0-.53,6.47,6.47,0,0,1-.2-1.33,7.48,7.48,0,0,0-.21-1.34v-.68a3.17,3.17,0,0,0-.08-.69,8.83,8.83,0,0,1-.08-1.42,5,5,0,0,1,.16-1.49,2.6,2.6,0,0,0,.08-1.14,2.73,2.73,0,0,1,.09-1.13q.07-.4.12-.69a6.62,6.62,0,0,1,.12-.68c.16-.65.31-1.3.44-1.94a9,9,0,0,1,.61-1.86,25,25,0,0,1,2.95-5.38,15.92,15.92,0,0,1,4.25-4,12.74,12.74,0,0,1,2-1.09l2.19-.93a7.36,7.36,0,0,1,2.1-.53,13.87,13.87,0,0,0,2.26-.44c.38,0,.74,0,1.1,0s.68-.07,1-.12a21.17,21.17,0,0,1,12,3,17.6,17.6,0,0,1,6.87,8,10,10,0,0,1,.65,1.62c.16.54.35,1.1.57,1.69s.29,1.23.4,1.9.24,1.37.41,2.07a3.4,3.4,0,0,1,0,.85A2.67,2.67,0,0,0,514.7,73.94Zm-7.2,4.61a3.82,3.82,0,0,0,.12-1.3c0-.48,0-.94,0-1.37a21.45,21.45,0,0,0-.57-5.34,12.74,12.74,0,0,1-.4-1.29A7.28,7.28,0,0,0,506.2,68a13.1,13.1,0,0,0-7.2-7.28,5.68,5.68,0,0,0-1.21-.36c-.43-.08-.86-.18-1.29-.29a6.14,6.14,0,0,0-1.38-.16h-1.45l-1.46.25a13.77,13.77,0,0,0-1.5.36,7.23,7.23,0,0,0-1.33.53,3.58,3.58,0,0,0-1.05.48c-.33.22-.62.43-.89.65a11.43,11.43,0,0,0-3.16,3.31,22.12,22.12,0,0,0-2.1,4.53,8.54,8.54,0,0,0-.32,1.66c-.06.57-.14,1.15-.25,1.74a5.15,5.15,0,0,0-.08,1,1.3,1.3,0,0,0,0,.57,5.44,5.44,0,0,1,0,.73v1.61a5.88,5.88,0,0,0,.16,1.46l.17,1c.1.54.2,1.07.28,1.58a4.94,4.94,0,0,0,.44,1.41,23.63,23.63,0,0,0,1.9,3.64,10.2,10.2,0,0,0,2.71,2.84c.27.16.52.29.73.4a8.37,8.37,0,0,1,.73.41,7.46,7.46,0,0,0,1.42.68c.51.19,1.06.37,1.65.53a1.54,1.54,0,0,0,.77.12,2.53,2.53,0,0,1,.77,0,6,6,0,0,0,1,.16,2.51,2.51,0,0,0,1.18-.08,1.73,1.73,0,0,1,.64,0,1.08,1.08,0,0,0,.65-.12c.43-.11.86-.2,1.29-.28a6.66,6.66,0,0,0,1.22-.37,11.31,11.31,0,0,0,4.45-3.15,18.2,18.2,0,0,0,2.83-4.78,7.33,7.33,0,0,0,.52-2.06A12.86,12.86,0,0,1,507.5,78.55Z"/><path class="cls-1" d="M539.61,54a23.18,23.18,0,0,1,10,1.74A14.49,14.49,0,0,1,556,61.16a16.19,16.19,0,0,1,1.78,4,4.09,4.09,0,0,1,.24,1,2.44,2.44,0,0,1-.08,1.13,2.09,2.09,0,0,1-.81.73.62.62,0,0,1-.48.12,1.66,1.66,0,0,0-.57,0,1.58,1.58,0,0,1-.65,0c-.21,0-.43,0-.64,0-.6,0-1.16,0-1.7,0a2.49,2.49,0,0,1-1.38-.44,2.53,2.53,0,0,1-.89-1.38,5.64,5.64,0,0,0-.64-1.53A9.25,9.25,0,0,0,547,61.48a8.37,8.37,0,0,0-1.37-.69c-.49-.19-1-.36-1.54-.52a12.12,12.12,0,0,0-3-.37,9.44,9.44,0,0,0-3.08.37,10.27,10.27,0,0,1-1,.24,8.56,8.56,0,0,0-1.05.24,12.4,12.4,0,0,0-3.72,2.43,10.64,10.64,0,0,0-2.51,3.64,14.73,14.73,0,0,0-.56,1.49c-.17.52-.33,1.07-.49,1.66l-.49,2.19a3.65,3.65,0,0,0,0,.89,1.87,1.87,0,0,1-.12.89v.64a7.3,7.3,0,0,0-.12,1.06,2.18,2.18,0,0,0,.12,1,1.84,1.84,0,0,1,0,.81,2.15,2.15,0,0,0,0,.8,5.08,5.08,0,0,1,.08,1.14c.11.43.21.89.29,1.37s.17,1,.28,1.38a22.59,22.59,0,0,0,2.06,4.49A10.55,10.55,0,0,0,534,90a13,13,0,0,0,1.5.73c.51.22,1.06.43,1.65.65a3.89,3.89,0,0,0,.65.08,3.89,3.89,0,0,1,.65.08,3,3,0,0,0,.81.08h.89c0,.05.1.08.32.08a.65.65,0,0,1,.4,0,1,1,0,0,0,.49,0,3,3,0,0,1,1.09-.12,3,3,0,0,0,1.09-.12,14.07,14.07,0,0,0,3.64-1.66A8.78,8.78,0,0,0,549.72,87a11.89,11.89,0,0,0,.73-1.37l.65-1.46c.1-.43.23-.85.36-1.25a2,2,0,0,1,.77-1,1.79,1.79,0,0,1,1-.37,14.54,14.54,0,0,1,1.58-.16,10.82,10.82,0,0,1,1.62,0,2.27,2.27,0,0,1,1.09.32,1.44,1.44,0,0,1,.6,1,3.24,3.24,0,0,1,0,1.38l-.76,2.3a15,15,0,0,1-.93,2.15,16.9,16.9,0,0,1-3,4.29,13.85,13.85,0,0,1-4.41,3,7.75,7.75,0,0,1-1.37.52l-1.54.45a6.26,6.26,0,0,1-1.78.36,15.39,15.39,0,0,0-1.78.2.93.93,0,0,1-.65.09,1.16,1.16,0,0,0-.64,0h-.73c-.43,0-.85,0-1.25,0a3,3,0,0,1-1.1-.13h-.4l-1.94-.24c-.7-.21-1.38-.4-2-.56a11.35,11.35,0,0,1-1.86-.65A17.21,17.21,0,0,1,527,92.87a21.9,21.9,0,0,1-3.52-4.37,8.63,8.63,0,0,1-.72-1.46c-.22-.54-.44-1.08-.65-1.62a7.43,7.43,0,0,1-.57-1.86c-.11-.64-.24-1.29-.4-1.94a2.36,2.36,0,0,1-.08-.65,2.8,2.8,0,0,0-.08-.64,2.81,2.81,0,0,1-.13-1,2.65,2.65,0,0,0-.12-1.06v-.81a6.34,6.34,0,0,1-.08-1.13,6.5,6.5,0,0,1,.08-1.13,2.05,2.05,0,0,0,0-.73,2.05,2.05,0,0,1,0-.65,3.33,3.33,0,0,0,.13-1.13,2.6,2.6,0,0,1,.12-1c.21-.92.4-1.83.56-2.75a13.16,13.16,0,0,1,.73-2.59,21.59,21.59,0,0,1,4.13-6.79,18.13,18.13,0,0,1,6.63-4.29,7.42,7.42,0,0,1,1.94-.57c.7-.1,1.43-.24,2.18-.4q.57-.08,1.14-.12Z"/><path class="cls-1" d="M569.05,39c.76,0,1.55,0,2.39,0a2.14,2.14,0,0,1,1.74.69,1.81,1.81,0,0,1,.36,1.05c0,.43,0,.92,0,1.46V67.14a8.32,8.32,0,0,1,0,.85,3.4,3.4,0,0,0,0,.85v.65a3.29,3.29,0,0,0,.25,1.37.71.71,0,0,0,.24.37,2.67,2.67,0,0,1,.32.28,1.48,1.48,0,0,0,1.09-.2l.77-.61a3.32,3.32,0,0,0,.65-.65,2.75,2.75,0,0,1,.57-.56,5.45,5.45,0,0,0,1.13-.93c.32-.35.67-.72,1-1.09s.53-.52.77-.73.5-.46.77-.73a1.88,1.88,0,0,0,.44-.41l.37-.4a.88.88,0,0,1,.24-.2,2,2,0,0,0,.24-.2,5.46,5.46,0,0,1,.65-.69c.21-.19.46-.39.73-.61a2.83,2.83,0,0,1,.4-.48c.16-.17.32-.33.49-.49a11.88,11.88,0,0,0,1.33-1.21,12.07,12.07,0,0,1,1.34-1.22c.16-.16.32-.33.48-.52a6.27,6.27,0,0,1,.49-.53,11.66,11.66,0,0,0,1.86-1.78,8.65,8.65,0,0,1,1.94-1.7,4.11,4.11,0,0,1,1.66-.52,18.82,18.82,0,0,1,2.22-.12c.27,0,.55,0,.85,0a2.11,2.11,0,0,1,.77,0h.89l1,.28c.27.08.4.36.4.85a.8.8,0,0,0-.2.4.72.72,0,0,1-.2.41,2.74,2.74,0,0,1-.44.48,5.12,5.12,0,0,1-.53.41,1,1,0,0,0-.2.24,1.12,1.12,0,0,1-.2.24,1.78,1.78,0,0,0-.57.45,2,2,0,0,1-.49.44l-.48.45a2.12,2.12,0,0,0-.41.44,12.24,12.24,0,0,0-1.21,1.06,13.6,13.6,0,0,1-1.21,1.05l-.41.4a3,3,0,0,0-.4.49,8.83,8.83,0,0,0-1.46,1.25,9.18,9.18,0,0,1-1.45,1.25,2.17,2.17,0,0,1-.41.45,1.84,1.84,0,0,0-.4.44c-.27.22-.52.44-.73.65a9.58,9.58,0,0,1-.73.65,8.27,8.27,0,0,0-.77.69,3.85,3.85,0,0,0-.6.76,3,3,0,0,0-.41.57.87.87,0,0,0-.08.81,3.29,3.29,0,0,0,.61,1.46,14.34,14.34,0,0,1,.85,1.21c.43.59.83,1.2,1.21,1.82s.75,1.23,1.13,1.82c1.51,2.21,3,4.4,4.45,6.55s2.91,4.37,4.37,6.63c.32.44.62.87.89,1.3s.57.86.89,1.29.43.64.65.93a5.73,5.73,0,0,1,.56,1,2,2,0,0,1,.25,1.18.84.84,0,0,1-.73.68,2.59,2.59,0,0,1-1,.17h-1.05c-.76,0-1.53,0-2.31,0a4.37,4.37,0,0,1-1.9-.29,4.48,4.48,0,0,1-1.9-1.9c-.57-.94-1.07-1.71-1.5-2.3q-1.86-2.83-3.64-5.54t-3.64-5.46c-.48-.76-1-1.5-1.41-2.23s-1-1.47-1.5-2.22a5,5,0,0,0-.69-.73,1.11,1.11,0,0,0-1.09-.24,2.33,2.33,0,0,0-1.09.6c-.3.3-.61.58-.93.85a6.6,6.6,0,0,0-.77.73,6.6,6.6,0,0,1-.77.73,7.81,7.81,0,0,0-1.5,1.41,4.84,4.84,0,0,0-.85,2,4.58,4.58,0,0,1,0,.64c0,.22,0,.44,0,.65a4.2,4.2,0,0,0,0,1c0,.38,0,.73,0,1v8.82a3.35,3.35,0,0,1-.4,1.78,1.68,1.68,0,0,1-1.38.61c-.64,0-1.32,0-2,0h-.89a2.14,2.14,0,0,1-.81-.17A1.51,1.51,0,0,1,567,95.05a21.66,21.66,0,0,1-.12-2.43V43.28c0-.59,0-1.21,0-1.86a2.41,2.41,0,0,1,.36-1.54,1.87,1.87,0,0,1,1.22-.81.5.5,0,0,1,.32,0A.4.4,0,0,0,569.05,39Z"/><path class="cls-1" d="M108.78,52.49c0-1.16-.15-2.31-.26-3.57-1.43.81-2.8,1.56-4.15,2.33L71.44,70.51a10,10,0,0,1-2.12,1,2,2,0,0,1-1.71-.15c-2-1.11-4-2.18-5.93-3.32s-3.8-2.24-5.79-3.44c18.52-10.85,37-21.63,55.48-32.46-1.05-.77-2.06-1.47-3.11-2.09Q83.33,15.44,58.43.82a5.16,5.16,0,0,0-5.67.06c-4.21,2.53-8.43,5-12.66,7.49C28.73,15,17.37,21.66,6,28.23A6,6,0,0,0,2.61,34c.13,4.82.13,9.65.13,14.47,0,9.5,0,19,0,28.48A20.44,20.44,0,0,0,3,80.18c1.13-.62,2.2-1.16,3.23-1.76Q22.63,68.89,39,59.34A14.87,14.87,0,0,1,41.61,58a2.84,2.84,0,0,1,2.61.15c2.66,1.45,5.25,3,7.86,4.53,1.11.64,2.18,1.31,3.31,2Q27.67,80.88,0,97.06a16,16,0,0,0,2.23,1.79l13.3,7.77Q33.32,117,51.07,127.48a8.29,8.29,0,0,0,9.46-.13c6.89-4.34,13.93-8.4,21-12.51,8.19-4.8,16.43-9.59,24.64-14.36a5.09,5.09,0,0,0,2.78-4.88c-.08-5.88-.1-11.77-.12-17.67C108.75,69.46,108.78,61,108.78,52.49ZM30.42,57.28l-20.58,12c-.83.49-.83.49-.83-.45V37.51c9.26,5.39,18.4,10.72,27.68,16.11ZM36,46.48c-2.48-1.69-5-3.32-7.58-4.86-5.2-3.17-10.59-6-15.85-9.14-.24-.12-.47-.27-.71-.42.15-.3.41-.37.62-.5l39.35-23c.21-.13.41-.36.71-.23a3.39,3.39,0,0,0-.05.47q0,12.71,0,25.42c0,2.82,0,5.62.07,8.45a5.35,5.35,0,0,1-2.27,3.14,14.88,14.88,0,0,1-5.44,2.85C41.49,49.47,38.64,48.3,36,46.48Zm16.09,9.28c-.94-.75-1.91-1.49-2.85-2.39a59.23,59.23,0,0,1,7-4.07,3.39,3.39,0,0,0,2.26-3c0-.37.05-.73.05-1.1q0-12.9,0-25.8c0-3.77,0-7.53,0-11.27.23,0,.38.1.58.21L98.91,31.59a3.91,3.91,0,0,1,.45.3c-.08.3-.34.34-.51.45C87.77,39.14,76.47,45.6,65.21,52.1,62.8,53.5,60.4,54.91,58,56.26A4.83,4.83,0,0,1,52.08,55.76ZM55.74,79.6c-.3.19-.65.34-1,.51a4.15,4.15,0,0,0-2.29,3.43,35.08,35.08,0,0,0,.05,5.52c0,.29-.05.57-.05.85v30.15c0,.3,0,.58.05.85-.3.13-.5-.1-.73-.23L12.32,97.63c-.15-.08-.3-.19-.53-.34.28-.17.49-.34.73-.47C22,91,31.67,85.5,41.29,79.94c3.13-1.8,6.17-3.7,9.25-5.56A15.06,15.06,0,0,1,54,72.69a5.91,5.91,0,0,1,5.48.9,9.3,9.3,0,0,0,3.21,1.88C60.25,76.9,58,78.25,55.74,79.6ZM58.86,121c-.32-1-.11-1.9-.34-2.8V93.57c0-1.31,0-2.61-.05-3.92,0-.74,0-1.51,0-2.26a4.27,4.27,0,0,1,2.19-3.75c2.18-1.26,4.34-2.57,6.59-3.72a2.66,2.66,0,0,1,2.86,0q14.42,8.5,28.87,17l.6.38Zm43.6-29.25L74.61,75.6l27.85-16.24Z"/><path class="cls-1" d="M58.5,19.39q0,12.9,0,25.8c0,.37,0,.73-.05,1.1a2,2,0,0,1-.06-.78V9c0-.28-.09-.58.11-.83C58.52,11.86,58.5,15.62,58.5,19.39Z"/><path class="cls-1" d="M52.61,120.25c0,.21.09.47-.08.66,0-.27-.05-.55-.05-.85V89.91c0-.28,0-.56.05-.85.17.21.08.47.08.68Z"/><path class="cls-1" d="M58.52,93.57v24.67c-.17-.17-.11-.39-.11-.6V90.13a1,1,0,0,1,.06-.48C58.5,91,58.52,92.26,58.52,93.57Z"/><path class="cls-1" d="M52.51,42.65c0-2.83-.07-5.63-.07-8.45q0-12.72,0-25.42a3.39,3.39,0,0,1,.05-.47c.17.23.08.49.08.75,0,5.82,0,11.61,0,17.43,0,2.53-.08,5.05,0,7.58s0,5.22,0,7.83C52.61,42.13,52.72,42.41,52.51,42.65Z"/><path class="cls-1" d="M52.68,9c0,9.61,0,19.19,0,28.8v4.83c0,.2,0,.5-.19.07,0-2.83-.07-5.63-.07-8.45q0-12.72,0-25.42a3.39,3.39,0,0,1,.05-.47C52.93,8.41,52.68,8.76,52.68,9Z"/><path class="cls-1" d="M58.5,19.39q0,12.9,0,25.8c0,.37,0,.73-.05,1.1-.23-.24-.12-.54-.12-.82q0-18.22,0-36.48c0-.3-.15-.64.17-.87C58.52,11.86,58.5,15.62,58.5,19.39Z"/><path class="cls-1" d="M52.7,85.76v34.58c0,.21,0,.4,0,.62h-.07s0,0-.06,0c0-.27-.05-.55-.05-.85V89.91c0-.28,0-.56.05-.85v-4C52.81,85.33,52.7,85.57,52.7,85.76Z"/><path class="cls-1" d="M102.76,59.5V91.63h-.07V59.47Z"/><ellipse class="cls-1" cx="8.79" cy="53.67" rx="0.04" ry="22.53"/><path class="cls-1" d="M58.52,93.57v24.67l-.07.32a.07.07,0,0,0-.06,0,4.81,4.81,0,0,1-.07-.49q0-13.86,0-27.69c0-.25-.09-.53.12-.75C58.5,91,58.52,92.26,58.52,93.57Z"/></svg>