<svg xmlns="http://www.w3.org/2000/svg" width="126.285" height="44.616" viewBox="0 0 126.285 44.616">
  <g id="DLX7MF.tif" transform="translate(-4747.811 -112)">
    <g id="Group_65782" data-name="Group 65782" transform="translate(4747.811 112)">
      <path id="Path_183338" data-name="Path 183338" d="M4792.342,152.74a6.431,6.431,0,0,1-1.626,2.728c-1.708,1.623-6.058,1.536-7.854-.642-8.994-10.9-18.083-21.728-27.138-32.582-.044-.053-.086-.109-.134-.157-.2-.195-.328-.575-.7-.41-.318.141-.2.481-.2.741q-.005,12,0,24c0,.264-.1.6.21.742s.495-.159.694-.331q3.975-3.434,7.945-6.884c.277-.24.559-.474.834-.715a.963.963,0,0,1,1.367-.052.974.974,0,0,1,.135,1.416c-.621.935-1.25,1.864-1.876,2.795l-7.487,11.109a4.682,4.682,0,0,1-4.84,2.024,4.626,4.626,0,0,1-3.769-3.725,4.235,4.235,0,0,1-.086-.955q-.006-17.537,0-35.076a4.728,4.728,0,0,1,4.741-4.763,5.33,5.33,0,0,1,4.636,1.717c.879,1.057,1.765,2.108,2.646,3.163l24.7,29.608c.086.106.18.207.268.313a.373.373,0,0,0,.423.151.343.343,0,0,0,.244-.369V122.24c0-.281.127-.646-.229-.794-.312-.131-.491.178-.687.349q-4.028,3.482-8.049,6.973c-.208.18-.422.353-.623.54a1.019,1.019,0,0,1-1.476.114c-.441-.357-.46-.894-.068-1.481q1.6-2.4,3.22-4.788c1.971-2.924,3.96-5.838,5.9-8.778a4.674,4.674,0,0,1,4.846-2.3,4.56,4.56,0,0,1,3.937,3.629.782.782,0,0,0,.1.172Z" transform="translate(-4747.811 -112)" fill="#fff"/>
      <path id="Path_183339" data-name="Path 183339" d="M4747.818,191.606c0-5.931.018-11.861-.02-17.792,0-.9.215-1.149,1.156-1.217a3.844,3.844,0,0,1,3.9,2.138c2.307,3.75,4.757,7.411,7.162,11.107.207.319.337.706.548.82V174.691c0-2.046.632-2.518,2.63-2.046.7.165.514.69.514,1.115q.016,8.37,0,16.74a1.448,1.448,0,0,1-.232,1.111h-2.808a4.91,4.91,0,0,1-1.887-1.841c-1.837-2.894-3.711-5.766-5.572-8.643q-1.188-1.84-2.382-3.673c.092,4.766.113,9.46.017,14.157Z" transform="translate(-4697.337 -158.879)" fill="#fff"/>
      <path id="Path_183340" data-name="Path 183340" d="M4789.669,191.567a5.411,5.411,0,0,1-.185-2.414c-.031-2.065.012-4.131-.021-6.2-.017-.9.323-1.255,1.237-1.239,2.218.041,4.438.037,6.657,0a3.008,3.008,0,0,0,3.307-2.768,2.874,2.874,0,0,0-2.829-3.309c-1.9-.126-3.81-.079-5.716-.123a2.453,2.453,0,0,1-2.522-1.841c-.2-.684-.037-1.08.72-1.079,2.726,0,5.457-.111,8.173.053a5.385,5.385,0,0,1,5.262,5.136,5.453,5.453,0,0,1-3.877,6.353c-.208.073-.409.165-.73.292l5.261,6.657c-.019.231.128.513-.353.484-.892-.053-1.792-.015-2.688-.015a6.1,6.1,0,0,1-1.841-1.736c-.969-1.315-2.046-2.555-2.95-3.918a2.823,2.823,0,0,0-2.889-1.412c-.848.067-1.121.235-1.117,1.119a43.553,43.553,0,0,1-.094,5.947Z" transform="translate(-4678.129 -158.84)" fill="#fff"/>
      <path id="Path_183341" data-name="Path 183341" d="M4774.385,191.566a13.974,13.974,0,0,1,1.149-3.4c1.854-4.823,3.747-9.645,5.571-14.48a1.421,1.421,0,0,1,1.608-1.106c3.465.132,2.53-.606,3.813,2.631,1.958,4.951,3.857,9.926,5.776,14.894a2.7,2.7,0,0,1,.333,1.454h-3.041c-.168-.392-.348-.777-.5-1.169q-2.529-6.638-5.054-13.279c-.109-.282-.117-.716-.462-.741-.458-.032-.438.462-.555.763-.551,1.41-1.068,2.834-1.627,4.238-1.343,3.388-2.461,6.869-3.967,10.189Z" transform="translate(-4685.069 -158.839)" fill="#fff"/>
      <path id="Path_183342" data-name="Path 183342" d="M4762.744,189.1c-.262-3.462-.06-6.927-.107-10.391-.009-.585.334-.814.9-.813q4.969.012,9.931,0c.584,0,.817.208.866.81.179,2.173.171,2.2-2,2.2-1.869,0-3.739.031-5.607-.015-.78-.019-1.023.265-.994,1.023.047,1.09.051,2.192,0,3.274-.038.786.282,1.011,1.023,1,2.338-.031,4.677.047,7.015-.037,1.069-.038,1.4.336,1.268,1.333-.073.536-.085,1.081-.124,1.622Z" transform="translate(-4690.503 -156.377)" fill="#fff"/>
      <path id="Path_183343" data-name="Path 183343" d="M4768.87,172.594c1.715,0,3.432.037,5.146-.018.767-.023,1.023.221,1.013.985-.042,2.372.146,1.933-1.9,1.954-2.612.026-5.224.016-7.835,0a2.524,2.524,0,0,1-2.546-1.673c-.243-.77-.16-1.287.863-1.261C4765.362,172.626,4767.116,172.594,4768.87,172.594Z" transform="translate(-4690.493 -158.834)" fill="#fff"/>
    </g>
  </g>
</svg>
