<svg xmlns="http://www.w3.org/2000/svg" width="123.369" height="54.07" viewBox="0 0 123.369 54.07">
  <g id="Group_65814" data-name="Group 65814" transform="translate(-4066.561 -187.697)">
    <g id="Group_65788" data-name="Group 65788" transform="translate(4066.561 187.698)">
      <path id="Path_183359" data-name="Path 183359" d="M4131.894,217.52a2.829,2.829,0,0,1-.013.334,2.014,2.014,0,0,0-.039.205.972.972,0,0,1-.051.206c-.013.1-.051.205-.077.321-1.374,4.919-8.477,23.182-38.118,23.182a27.035,27.035,0,1,1,27.021-27.471h8.092A3.226,3.226,0,0,1,4131.894,217.52Z" transform="translate(-4066.561 -187.698)" fill="#fff"/>
      <path id="Path_183360" data-name="Path 183360" d="M4079.941,205.5v6.023a3.005,3.005,0,0,1-6.011,0V205.5a3.005,3.005,0,0,1,6.011,0Z" transform="translate(-4064.466 -183.49)" fill="#523fd6"/>
      <path id="Path_183361" data-name="Path 183361" d="M4089.706,205.225v6.023a3.005,3.005,0,1,1-6.01,0v-6.023a3.005,3.005,0,0,1,6.01,0Z" transform="translate(-4061.69 -183.569)" fill="#523fd6"/>
    </g>
    <g id="Group_65790" data-name="Group 65790" transform="translate(4126.563 198.525)">
      <g id="Group_65789" data-name="Group 65789">
        <path id="Path_183362" data-name="Path 183362" d="M4113.279,196.625h4.488c2.3,0,3.871,1.3,3.871,3.358,0,2.357-1.785,3.439-3.925,3.439h-2.086v4.051h-2.349Zm2.349,4.93h1.79c1.086,0,1.854-.419,1.854-1.527s-.811-1.536-1.8-1.536h-1.839Z" transform="translate(-4113.279 -195.987)" fill="#fff"/>
        <path id="Path_183363" data-name="Path 183363" d="M4123.147,196.128v4.3a2.614,2.614,0,0,1,2.333-1.149c1.521,0,2.729.9,2.729,3.108v5.226h-2.241v-4.889c0-1.058-.377-1.621-1.322-1.621-1.254,0-1.5.932-1.5,2.19v4.32h-2.255V196.128Z" transform="translate(-4111.116 -196.128)" fill="#fff"/>
        <path id="Path_183364" data-name="Path 183364" d="M4134.959,204.812a18.3,18.3,0,0,0,.11,2.1h-2.155a3.358,3.358,0,0,1-.115-.8,2.393,2.393,0,0,1-2.29.985,2.518,2.518,0,0,1-2.792-2.554c0-1.856,1.491-2.711,3.879-2.711h1.163v-.5c0-.579-.208-1.148-1.254-1.148-.953,0-1.161.4-1.265.994H4128.1c.123-1.447,1.017-2.619,3.494-2.6,2.181.013,3.369.866,3.369,2.8Zm-2.2-1.6h-.918c-1.359,0-1.862.414-1.862,1.2a1.044,1.044,0,0,0,1.171,1.087c1.433,0,1.609-1,1.609-2.073Z" transform="translate(-4109.175 -195.43)" fill="#fff"/>
        <path id="Path_183365" data-name="Path 183365" d="M4134.96,200.824c0-.692,0-1.451-.017-2.052h2.185a9.39,9.39,0,0,1,.087,1.038,2.482,2.482,0,0,1,2.362-1.227c1.638,0,2.7,1.1,2.7,3.153v5.181h-2.255v-4.932c0-.916-.3-1.578-1.3-1.578-.958,0-1.5.533-1.5,1.971v4.539h-2.255Z" transform="translate(-4107.121 -195.43)" fill="#fff"/>
        <path id="Path_183366" data-name="Path 183366" d="M4154.1,202.828c0,2.465-1.474,4.278-4.054,4.278-2.526,0-4-1.8-4-4.233a3.935,3.935,0,0,1,4.106-4.29C4152.548,198.583,4154.1,200.274,4154.1,202.828Zm-5.766.017c0,1.568.674,2.5,1.76,2.5,1.1,0,1.719-.929,1.719-2.481,0-1.7-.626-2.511-1.75-2.511C4149.015,200.348,4148.332,201.122,4148.332,202.844Z" transform="translate(-4103.964 -195.43)" fill="#fff"/>
        <path id="Path_183367" data-name="Path 183367" d="M4153.525,200.87c0-.7,0-1.4-.017-2.1h2.158c.03.2.075.654.087.971a2.54,2.54,0,0,1,2.263-1.16,2.148,2.148,0,0,1,2.1,1.239,2.825,2.825,0,0,1,2.51-1.239c1.42,0,2.583.872,2.583,2.991v5.343h-2.2v-5.069c0-.736-.267-1.455-1.19-1.455-.958,0-1.332.618-1.332,1.867v4.657h-2.212v-4.984c0-.844-.208-1.526-1.17-1.526-.917,0-1.351.564-1.351,1.961v4.549h-2.228Z" transform="translate(-4101.842 -195.43)" fill="#fff"/>
      </g>
      <path id="Path_183368" data-name="Path 183368" d="M4141.14,198.52" transform="translate(-4105.359 -195.448)" fill="none" stroke="#fff" stroke-miterlimit="10" stroke-width="0.25"/>
      <path id="Path_183369" data-name="Path 183369" d="M4142.238,196.8" transform="translate(-4105.047 -195.936)" fill="none" stroke="#fff" stroke-miterlimit="10" stroke-width="0.25"/>
      <path id="Path_183370" data-name="Path 183370" d="M4144.982,200.907v4.02c0,.629.192.86.86.86a3.711,3.711,0,0,0,.514-.026v1.554a5.031,5.031,0,0,1-1.515.154c-1.593,0-2.12-.848-2.12-2.273v-4.29h-1.246v-1.7h.681a.551.551,0,0,0,.565-.552v-1.644h2.261v2.2h1.592v1.7Z" transform="translate(-4105.263 -195.876)" fill="#fff"/>
    </g>
  </g>
</svg>
