<svg xmlns="http://www.w3.org/2000/svg" width="196.961" height="56.145" viewBox="0 0 196.961 56.145">
  <g id="wcRUNh" transform="translate(-4147.985 -1800.549)">
    <g id="Group_65796" data-name="Group 65796" transform="translate(4147.985 1800.548)">
      <path id="Path_183379" data-name="Path 183379" d="M4157.05,1848.066c0-3.752-.017-7.145.012-10.539.007-.832-.475-.816-1.057-.813-2.27.01-4.541-.035-6.809.023-.887.022-1.171-.236-1.167-1.14q.051-9.942.006-19.884a1.084,1.084,0,0,1,.9-1.249q6.905-2.057,13.784-4.2c.8-.249,1.032-.069,1.009.76-.047,1.678-.051,3.36,0,5.038a1.086,1.086,0,0,1-.93,1.243c-2.3.681-4.583,1.443-6.9,2.084-.89.247-1.253.613-1.227,1.584.069,2.631.064,5.266,0,7.9-.022.983.208,1.364,1.273,1.324,2.221-.083,4.449.007,6.672-.041.824-.018,1.108.24,1.106,1.075q-.034,14.027-.015,28.055c0,.675-.075,1.084-.908.663-4.279-2.157-8.335-4.6-11.51-8.3-2.753-3.214-3.542-6.953-3.265-11.044.046-.683.445-.677.918-.676,1.589,0,3.179.034,4.767-.017.794-.026,1.007.288,1,1.031a14.244,14.244,0,0,0,.139,3.665A7.05,7.05,0,0,0,4157.05,1848.066Z" transform="translate(-4147.985 -1807.54)" fill="#fff"/>
      <path id="Path_183380" data-name="Path 183380" d="M4213.1,1828.067c0-8.127.022-16.254-.028-24.381-.006-1.061.313-1.6,1.328-1.756a2.786,2.786,0,0,0,.4-.1c5.613-1.727,5.609-1.713,11.085.073a1.164,1.164,0,0,1,.987,1.337c-.058,1.587-.058,3.179.006,4.766.039.985-.21,1.289-1.21.937-1.581-.555-3.2-1-4.8-1.509-.815-.26-1.142-.064-1.135.861q.051,6.946,0,13.893c0,.746.192,1.036.983,1.008,1.633-.056,3.271.03,4.9-.036.922-.037,1.311.216,1.262,1.2-.071,1.4-.064,2.816-.01,4.221.033.864-.206,1.216-1.138,1.169-1.495-.076-3,.063-4.492-.047-1.194-.089-1.535.276-1.524,1.482.059,6.764.032,13.53.034,20.295,0,1.362-.032,2.725.01,4.086.027.871-.253,1.026-1.037.692-1.5-.639-3.016-1.251-4.552-1.8-.881-.312-1.093-.838-1.089-1.735C4213.113,1844.5,4213.1,1836.285,4213.1,1828.067Z" transform="translate(-4195.335 -1800.548)" fill="#fff"/>
      <path id="Path_183381" data-name="Path 183381" d="M4270.87,1850.93c0-2.175,0-4.123,0-6.072,0-11.252.005-22.5-.037-33.755,0-1.2.141-1.587,1.468-1.153,4.391,1.434,8.814,2.77,13.248,4.065.989.289,1.365.675,1.355,1.752q-.083,9.663-.009,19.327c.007,1.055-.265,1.413-1.359,1.373-2.311-.085-4.627.006-6.94-.044-.872-.019-1.188.221-1.166,1.14.06,2.494.016,4.99.026,7.485a1.91,1.91,0,0,1-.475,1.494A21.961,21.961,0,0,1,4270.87,1850.93Zm6.579-32.144c0,3.458,0,6.9,0,10.334,0,1.216.932.7,1.488.752s1.3.261,1.284-.822c-.042-2.944-.02-5.89-.005-8.835,0-.527-.152-.86-.705-.972A7.693,7.693,0,0,0,4277.448,1818.786Z" transform="translate(-4237.358 -1807.263)" fill="#fff"/>
      <path id="Path_183382" data-name="Path 183382" d="M4388.4,1876.689c-4.231-.144-8.144-1.651-10.538-6.015-.574-1.046-.427-1.523.763-1.7a6.711,6.711,0,0,0,1.427-.442c1.669-.653,2.925-.708,4.455.852,2.061,2.1,4.965,2.073,7.652,1.025a2.672,2.672,0,0,0,.422-4.871,17.948,17.948,0,0,0-5.057-1.941,23.265,23.265,0,0,1-5.277-2.139c-5.231-3.094-4.512-10.429-.405-13.4a11.731,11.731,0,0,1,16.684,3.71c.39.713.286.994-.487,1.2-1.266.346-2.526.732-3.755,1.19a1.04,1.04,0,0,1-1.365-.424,5.684,5.684,0,0,0-5.886-1.891,2.836,2.836,0,0,0-2.534,2.312,2.778,2.778,0,0,0,1.7,3.092,26.292,26.292,0,0,0,4.576,1.708,35.03,35.03,0,0,1,4.8,1.881c5.905,2.936,5.19,11,.656,13.891A13.924,13.924,0,0,1,4388.4,1876.689Z" transform="translate(-4314.986 -1833.626)" fill="#fff"/>
      <path id="Path_183383" data-name="Path 183383" d="M4688.241,1861.481c0-4.631.031-9.262-.023-13.892-.013-1.084.215-1.516,1.4-1.492,3.313.069,6.628-.018,9.942,0,5.818.035,10.133,4.235,10.149,9.842.017,5.529-4.38,9.785-10.183,9.847-1.634.017-3.271.052-4.9-.014-.918-.038-1.148.3-1.13,1.168.059,2.859.007,5.721.072,8.581.021.93-.208,1.314-1.2,1.237-1.26-.1-2.878.4-3.7-.218-.894-.671-.278-2.372-.293-3.619-.047-3.813-.018-7.627-.018-11.441Zm8.65-.837c1.137,0,1.954.012,2.771,0a4.721,4.721,0,1,0,.158-9.44c-1.813-.071-3.631.022-5.447-.01-.729-.013-.951.283-.936.967.036,1.588-.014,3.179.052,4.766.05,1.2-.552,2.741.292,3.523C4694.547,1861.155,4696.041,1860.563,4696.891,1860.644Z" transform="translate(-4540.988 -1833.685)" fill="#fff"/>
      <path id="Path_183384" data-name="Path 183384" d="M4608.3,1894c1.464,2.262,3.771,3.323,5.992,2.6a5.07,5.07,0,0,1,3.522.147c1.133.41,2.288.76,3.464,1.146-3.447,4.957-11.341,5.379-15.8.943a10.477,10.477,0,0,1-1.625-12.994,10.752,10.752,0,0,1,19.891,6.538c-.108,1.162-.455,1.689-1.8,1.66C4617.468,1893.938,4612.987,1894,4608.3,1894Zm-.17-5.144c3.156,0,6.048-.01,8.94.006.882,0,.78-.359.375-.863a5.535,5.535,0,0,0-9.315.857Z" transform="translate(-4478.505 -1858.859)" fill="#fff"/>
      <path id="Path_183385" data-name="Path 183385" d="M4488.242,1891.4c0,2.9.011,5.809,0,8.713-.011,2.169.128,1.731-1.841,1.779-.726.018-1.453-.01-2.178.005-.615.013-1.086.054-1.158-.855-.081-1.025-.765-.243-1.059-.116a10.626,10.626,0,0,1-8.843.045,10.579,10.579,0,0,1,8.109-19.539,5.419,5.419,0,0,0,4.733.06c.366-.172.793-.21,1.16-.381.836-.389,1.1-.17,1.087.76-.044,3.176-.017,6.353-.017,9.529Zm-10.88,5.34a5.6,5.6,0,1,0-5.638-5.6A5.579,5.579,0,0,0,4477.362,1896.738Z" transform="translate(-4379.904 -1858.833)" fill="#fff"/>
      <path id="Path_183386" data-name="Path 183386" d="M4781.754,1900.385a11.315,11.315,0,0,1-8.682,1.118,10.584,10.584,0,1,1,6.826-20,5.314,5.314,0,0,0,4.61.054c.45-.208.958-.288,1.416-.481.675-.284.872-.066.87.63q-.024,9.67,0,19.34c0,.759-.3.921-.966.892-.906-.039-1.815-.018-2.723,0S4781.184,1902.142,4781.754,1900.385Zm-5.854-3.606a5.6,5.6,0,1,0,.013-11.194,5.6,5.6,0,1,0-.013,11.194Z" transform="translate(-4597.109 -1858.87)" fill="#fff"/>
      <path id="Path_183387" data-name="Path 183387" d="M4555.3,1868.271c0-2.224-.034-4.45.016-6.673.021-.928-.132-1.524-1.238-1.322-.92.168-1.2-.262-1.116-1.13a12.889,12.889,0,0,0,0-2.041c-.081-1.208-.12-2.295,1.654-1.992.793.135.689-.544.675-1.019a8.129,8.129,0,0,1,1.422-5.148,8.448,8.448,0,0,1,8.069-3.228.655.655,0,0,1,.6.738c0,.545.008,1.089,0,1.634a7,7,0,0,1-.079,2.3c-.337.895-1.367.28-2.064.535a4.155,4.155,0,0,0-2.173,1.527,2.551,2.551,0,0,0-.494,2.314c.306.773,1.2.342,1.821.353,2.993.05,2.993.025,2.993,2.989a5.992,5.992,0,0,0,.005.817c.142,1.043-.229,1.445-1.339,1.385s-2.571-.51-3.286.185c-.778.757-.254,2.236-.266,3.4-.036,3.722-.055,7.446.01,11.167.02,1.093-.331,1.434-1.377,1.326-1.21-.125-2.788.492-3.555-.234-.842-.8-.23-2.4-.28-3.653C4555.253,1871.088,4555.3,1869.679,4555.3,1868.271Z" transform="translate(-4442.591 -1833.305)" fill="#fff"/>
      <path id="Path_183388" data-name="Path 183388" d="M4244.9,1943.082c0-2.17.023-4.206-.013-6.24-.012-.673.4-.806.885-.988a49.144,49.144,0,0,0,7.737-3.649,34.2,34.2,0,0,0,3.7-2.537c2.794-2.189,4.632-4.781,4.157-8.6-.213-1.719-.035-1.742,1.714-1.744,1.18,0,2.365.064,3.539-.019,1.042-.073,1.321.25,1.415,1.333.53,6.13-2.137,10.674-6.8,14.307A51.862,51.862,0,0,1,4244.9,1943.082Z" transform="translate(-4218.481 -1886.937)" fill="#fff"/>
      <path id="Path_183389" data-name="Path 183389" d="M4856.856,1862.3c0,4.625-.024,9.25.021,13.874.01.985-.223,1.4-1.28,1.3a21.174,21.174,0,0,0-2.99-.01c-.692.031-.953-.188-.952-.914q.029-13.6,0-27.2a.948.948,0,0,1,.8-1.059c1.132-.322,2.258-.672,3.359-1.084.878-.329,1.063-.066,1.056.816C4856.835,1852.774,4856.855,1857.535,4856.856,1862.3Z" transform="translate(-4659.916 -1834.387)" fill="#fff"/>
    </g>
  </g>
</svg>
