<svg xmlns="http://www.w3.org/2000/svg" xmlns:xlink="http://www.w3.org/1999/xlink" width="206.051" height="46.738" viewBox="0 0 206.051 46.738">
  <defs>
    <linearGradient id="linear-gradient" x1="0.955" y1="0.047" x2="0.056" y2="0.943" gradientUnits="objectBoundingBox">
      <stop offset="0" stop-color="#0af5a7"/>
      <stop offset="1" stop-color="#da21fe"/>
    </linearGradient>
    <clipPath id="clip-path">
      <rect id="Rectangle_91126" data-name="Rectangle 91126" width="25.565" height="20.789" fill="none"/>
    </clipPath>
  </defs>
  <g id="Group_65803" data-name="Group 65803" transform="translate(2450.627 4266.941)">
    <g id="Group_65772" data-name="Group 65772" transform="translate(-2450.627 -4266.942)">
      <path id="Path_183301" data-name="Path 183301" d="M-2427.561-4266.94a23.262,23.262,0,0,1,23.53,23.078A23.4,23.4,0,0,1-2427.1-4220.2a23.26,23.26,0,0,1-23.529-23.075A23.407,23.407,0,0,1-2427.561-4266.94Z" transform="translate(2450.627 4266.942)" fill="url(#linear-gradient)"/>
      <g id="Group_65771" data-name="Group 65771" transform="translate(10.469 12.975)">
        <g id="Group_65770" data-name="Group 65770">
          <g id="Group_65769" data-name="Group 65769" style="isolation: isolate">
            <g id="Group_65768" data-name="Group 65768" clip-path="url(#clip-path)">
              <g id="Group_65767" data-name="Group 65767" transform="translate(-0.003 0)">
                <g id="Group_65766" data-name="Group 65766">
                  <g id="Group_65765" data-name="Group 65765">
                    <g id="Group_65764" data-name="Group 65764">
                      <path id="Path_183302" data-name="Path 183302" d="M-2398.656-4233.868h-20.8a.369.369,0,0,0-.275.12l-4.127,4.586a.369.369,0,0,0,.275.614h20.8a.369.369,0,0,0,.275-.12l4.124-4.586a.368.368,0,0,0-.275-.614" transform="translate(2423.949 4233.868)" fill="#fff"/>
                      <path id="Path_183303" data-name="Path 183303" d="M-2398.656-4194.439h-20.8a.367.367,0,0,0-.275.12l-4.127,4.586a.369.369,0,0,0,.275.614h20.8a.369.369,0,0,0,.275-.12l4.124-4.586a.368.368,0,0,0-.275-.614" transform="translate(2423.949 4209.907)" fill="#fff"/>
                      <path id="Path_183304" data-name="Path 183304" d="M-2402.78-4214.158h-20.8a.372.372,0,0,0-.275.618l4.127,4.583a.373.373,0,0,0,.275.123h20.8a.37.37,0,0,0,.275-.618l-4.124-4.583a.371.371,0,0,0-.275-.124" transform="translate(2423.949 4221.891)" fill="#fff"/>
                    </g>
                  </g>
                </g>
              </g>
            </g>
          </g>
        </g>
      </g>
    </g>
    <g id="kUVZkc.tif" transform="translate(-2397.334 -4252.794)">
      <g id="Group_65773" data-name="Group 65773" transform="translate(0 0)">
        <path id="Path_183305" data-name="Path 183305" d="M-1956.723-4211.464a5.8,5.8,0,0,1-2.958.25c-.861,0-.832-.723-.836-1.328-.013-1.66-.035-3.32,0-4.979.021-.884-.267-1.261-1.208-1.25q-5.131.059-10.263,0c-.953-.011-1.241.428-1.239,1.268,0,1.71-.035,3.42,0,5.13.036,1.663-1.179,1.12-2.022,1.175s-1.72.184-1.706-1.2c.052-4.928-.013-9.857.039-14.786a3.482,3.482,0,0,1,3.559-3.551c4.326-.055,8.653-.021,12.98-.016,1.868,0,2.86,1.211,3.647,2.688Zm-10.23-10.133c1.054,0,2.107.014,3.161,0,3.761-.06,3.235.57,3.261-3.252.014-2.065-.719-2.777-2.827-2.8-2.208-.025-4.415-.012-6.623,0-2.575.008-3.2.631-3.242,3.2-.008.551.013,1.1,0,1.654-.016.894.414,1.235,1.3,1.214C-1970.265-4221.627-1968.609-4221.6-1966.953-4221.6Z" transform="translate(2109.481 4230.812)" fill="#fff"/>
        <path id="Path_183306" data-name="Path 183306" d="M-2237.754-4211.185c-2.06,0-4.121.017-6.18,0a3.611,3.611,0,0,1-3.9-3.826q-.048-5.952,0-11.9a3.6,3.6,0,0,1,3.9-3.83q6.18-.037,12.361,0a3.6,3.6,0,0,1,3.9,3.825q.048,5.952,0,11.9a3.606,3.606,0,0,1-3.9,3.831C-2233.634-4211.165-2235.694-4211.185-2237.754-4211.185Zm6.313-9.935v-3.468c0-.1,0-.2,0-.3-.082-1.542-.766-2.373-2.307-2.421-2.662-.083-5.329-.062-7.992-.01a2.177,2.177,0,0,0-2.34,2.261c-.069,2.66-.051,5.326.033,7.986a2.063,2.063,0,0,0,2.284,2.1c2.664.032,5.33.044,7.994,0a2.132,2.132,0,0,0,2.32-2.377C-2231.41-4218.606-2231.445-4219.864-2231.441-4221.12Z" transform="translate(2274.114 4230.811)" fill="#fff"/>
        <path id="Path_183307" data-name="Path 183307" d="M-2092.651-4219.9c0,2.412-.039,4.824.017,7.234.025,1.069-.259,1.534-1.431,1.52-2.4-.029-2.4.031-2.405-2.353,0-1.306-.039-2.613.011-3.918.037-.954-.289-1.353-1.293-1.341q-5.126.063-10.252,0c-.977-.012-1.354.326-1.324,1.308.049,1.656-.017,3.316.022,4.973.022.97-.361,1.312-1.338,1.326-2.491.036-2.491.077-2.491-2.389q0-6.48,0-12.962c.005-2.837,1.411-4.232,4.271-4.238q5.956-.012,11.912,0c2.938.006,4.291,1.384,4.3,4.36C-2092.646-4224.224-2092.651-4222.063-2092.651-4219.9Zm-10.252-1.683c1.053,0,2.105.018,3.158,0,3.82-.075,3.233.651,3.265-3.372.015-1.892-.74-2.641-2.634-2.677s-3.809-.01-5.714-.01c-4.312,0-4.592.288-4.488,4.608a2.689,2.689,0,0,1,0,.3c-.071.838.325,1.169,1.149,1.157C-2106.412-4221.607-2104.657-4221.59-2102.9-4221.586Z" transform="translate(2192.243 4230.801)" fill="#fff"/>
        <path id="Path_183308" data-name="Path 183308" d="M-2306.691-4211.195c-2.011,0-4.022.005-6.033-.005-.431,0-.963.135-1.149-.449-.177-.555.325-.756.618-1.085a6.465,6.465,0,0,1,5.867-2.273,56.442,56.442,0,0,0,6.18.037c1.678-.015,2.541-.756,2.519-2.108-.021-1.283-.863-2-2.46-2.016-2.463-.022-4.927,0-7.391-.009-3.616-.019-6.209-2.42-6.24-5.762-.032-3.382,2.608-5.885,6.251-5.9q5.656-.02,11.312,0c.429,0,.965-.165,1.19.388s-.295.777-.568,1.112a5.7,5.7,0,0,1-5.354,2.312,60.3,60.3,0,0,0-6.632-.04c-1.575.018-2.41.757-2.416,2.06s.836,2.044,2.415,2.06c2.513.026,5.027-.007,7.541.012,3.571.028,6.166,2.521,6.136,5.865s-2.637,5.771-6.206,5.794C-2302.971-4211.185-2304.832-4211.195-2306.691-4211.195Z" transform="translate(2314.782 4230.821)" fill="#fff"/>
        <path id="Path_183309" data-name="Path 183309" d="M-2024.966-4221.04c0,2.766-.036,5.531.018,8.3.021,1.073-.281,1.462-1.433,1.537a4.182,4.182,0,0,1-3.854-1.676c-3.133-3.733-6.423-7.336-9.661-10.982-.346-.389-.621-1.052-1.3-.768s-.418.958-.421,1.475c-.019,3.47-.079,6.941.019,10.408.049,1.728-1.012,1.484-2.072,1.507-1.027.021-1.829.064-1.807-1.438.08-5.58.05-11.162.016-16.743-.006-1.02.3-1.37,1.37-1.439a4.258,4.258,0,0,1,3.981,1.738c3.109,3.818,6.4,7.491,9.625,11.212.339.39.6,1.053,1.306.734.587-.267.389-.873.391-1.348.014-3.57.088-7.143-.026-10.709-.057-1.795,1.006-1.543,2.135-1.613,1.278-.079,1.8.276,1.748,1.665C-2025.039-4226.473-2024.966-4223.755-2024.966-4221.04Z" transform="translate(2151.129 4230.879)" fill="#fff"/>
        <path id="Path_183310" data-name="Path 183310" d="M-2180.154-4220.993c0-2.765.075-5.534-.031-8.3-.055-1.431.65-1.546,1.75-1.5,1.018.041,1.967-.174,1.931,1.459-.1,4.423,0,8.85-.053,13.274-.015,1.227.357,1.684,1.632,1.664,4.174-.065,8.35-.028,12.525-.019.485,0,1.1-.183,1.376.356.33.646-.338.961-.652,1.374a3.676,3.676,0,0,1-3.337,1.523c-4.423-.124-8.852-.094-13.277-.015-1.406.025-1.966-.31-1.9-1.825C-2180.067-4215.658-2180.154-4218.327-2180.154-4220.993Z" transform="translate(2232.993 4230.829)" fill="#fff"/>
      </g>
    </g>
  </g>
</svg>
