<svg id="Layer_1" data-name="Layer 1" xmlns="http://www.w3.org/2000/svg" xmlns:xlink="http://www.w3.org/1999/xlink" viewBox="0 0 775.52 441.68"><defs><style>.cls-1{fill:url(#linear-gradient);}.cls-2{fill:url(#linear-gradient-2);}.cls-3{fill:url(#linear-gradient-3);}.cls-4{fill:url(#linear-gradient-4);}.cls-5{fill:url(#linear-gradient-5);}.cls-6{fill:url(#linear-gradient-6);}.cls-7{fill:url(#linear-gradient-7);}.cls-8{fill:url(#linear-gradient-8);}.cls-9{fill:url(#linear-gradient-9);}.cls-10{fill:url(#linear-gradient-10);}.cls-11{fill:url(#linear-gradient-11);}.cls-12{fill:url(#linear-gradient-12);}.cls-13{fill:url(#linear-gradient-13);}.cls-14{fill:url(#linear-gradient-14);}.cls-15{fill:url(#linear-gradient-15);}.cls-16{fill:url(#linear-gradient-16);}.cls-17{fill:url(#linear-gradient-17);}.cls-18{fill:url(#linear-gradient-18);}.cls-19{fill:url(#linear-gradient-19);}.cls-20{fill:url(#linear-gradient-20);}.cls-21{fill:url(#linear-gradient-21);}.cls-22{fill:url(#linear-gradient-22);}.cls-23{fill:#fff;}.cls-24,.cls-25{opacity:0.6;}.cls-24{fill:url(#linear-gradient-23);}.cls-25{fill:url(#linear-gradient-24);}.cls-26{fill:url(#linear-gradient-25);}.cls-27{fill:url(#linear-gradient-26);}.cls-28{fill:url(#linear-gradient-27);}.cls-29{fill:url(#linear-gradient-28);}</style><linearGradient id="linear-gradient" x1="299.12" y1="315.03" x2="299.12" y2="412.85" gradientUnits="userSpaceOnUse"><stop offset="0" stop-color="#283a4a"/><stop offset="1" stop-color="#687a89"/></linearGradient><linearGradient id="linear-gradient-2" x1="29.5" y1="315.03" x2="29.5" y2="412.85" xlink:href="#linear-gradient"/><linearGradient id="linear-gradient-3" x1="88.34" y1="315.03" x2="88.34" y2="412.85" xlink:href="#linear-gradient"/><linearGradient id="linear-gradient-4" x1="162.15" y1="315.03" x2="162.15" y2="412.85" xlink:href="#linear-gradient"/><linearGradient id="linear-gradient-5" x1="345.43" y1="315.03" x2="345.43" y2="412.85" xlink:href="#linear-gradient"/><linearGradient id="linear-gradient-6" x1="404.85" y1="315.1" x2="404.85" y2="412.92" xlink:href="#linear-gradient"/><linearGradient id="linear-gradient-7" x1="578.11" y1="315.03" x2="578.11" y2="412.85" xlink:href="#linear-gradient"/><linearGradient id="linear-gradient-8" x1="482.79" y1="315.03" x2="482.79" y2="412.85" xlink:href="#linear-gradient"/><linearGradient id="linear-gradient-9" x1="230.64" y1="315.03" x2="230.64" y2="412.85" xlink:href="#linear-gradient"/><linearGradient id="linear-gradient-10" x1="662.71" y1="315.03" x2="662.71" y2="412.85" xlink:href="#linear-gradient"/><linearGradient id="linear-gradient-11" x1="738.08" y1="315.03" x2="738.08" y2="412.85" xlink:href="#linear-gradient"/><linearGradient id="linear-gradient-12" x1="298.54" y1="691.86" x2="298.54" y2="242.9" gradientUnits="userSpaceOnUse"><stop offset="0" stop-color="#384a5b"/><stop offset="1" stop-color="#fff"/></linearGradient><linearGradient id="linear-gradient-13" x1="28.9" y1="691.86" x2="28.9" y2="242.9" xlink:href="#linear-gradient-12"/><linearGradient id="linear-gradient-14" x1="87.76" y1="691.86" x2="87.76" y2="242.9" xlink:href="#linear-gradient-12"/><linearGradient id="linear-gradient-15" x1="161.58" y1="691.86" x2="161.58" y2="242.9" xlink:href="#linear-gradient-12"/><linearGradient id="linear-gradient-16" x1="344.8" y1="691.86" x2="344.8" y2="242.9" xlink:href="#linear-gradient-12"/><linearGradient id="linear-gradient-17" x1="403.51" y1="691.86" x2="403.51" y2="242.9" xlink:href="#linear-gradient-12"/><linearGradient id="linear-gradient-18" x1="577.53" y1="691.86" x2="577.53" y2="242.9" xlink:href="#linear-gradient-12"/><linearGradient id="linear-gradient-19" x1="482.21" y1="691.86" x2="482.21" y2="242.9" xlink:href="#linear-gradient-12"/><linearGradient id="linear-gradient-20" x1="230.06" y1="691.86" x2="230.06" y2="242.9" xlink:href="#linear-gradient-12"/><linearGradient id="linear-gradient-21" x1="661.44" y1="691.86" x2="661.44" y2="242.9" xlink:href="#linear-gradient-12"/><linearGradient id="linear-gradient-22" x1="737.5" y1="691.86" x2="737.5" y2="242.9" xlink:href="#linear-gradient-12"/><linearGradient id="linear-gradient-23" x1="261.88" y1="142.73" x2="513.64" y2="142.73" gradientUnits="userSpaceOnUse"><stop offset="0" stop-color="#1000ff"/><stop offset="1" stop-color="aqua"/></linearGradient><linearGradient id="linear-gradient-24" x1="245.03" y1="142.73" x2="530.49" y2="142.73" xlink:href="#linear-gradient-23"/><linearGradient id="linear-gradient-25" x1="323.34" y1="189.14" x2="431.68" y2="80.79" xlink:href="#linear-gradient-23"/><linearGradient id="linear-gradient-26" x1="323.34" y1="189.14" x2="431.68" y2="80.8" xlink:href="#linear-gradient-23"/><linearGradient id="linear-gradient-27" x1="321.59" y1="187.3" x2="429.93" y2="78.96" xlink:href="#linear-gradient-23"/><linearGradient id="linear-gradient-28" x1="347.01" y1="212.81" x2="455.35" y2="104.47" xlink:href="#linear-gradient-23"/></defs><path id="Path_114875" data-name="Path 114875" class="cls-1" d="M292.55,333.28h20.16l-13.92,77.25H278.63Zm1.69-22.4c0-7.47,5.33-13.36,13.4-13.36,7.15,0,12,4.89,12,11.2,0,8.19-5.46,13.79-13.53,13.79-7.15,0-11.83-5.17-11.83-11.63Z"/><path id="Path_114876" data-name="Path 114876" class="cls-2" d="M58.4,299.34,58,301.43,55.2,317H46.32c-6.24,0-9.62,3.59-11,11.63l-.52,2.87H52.57l-1.88,10.38-1.24,6.85H32.15l-8.4,46.48-2.81,15.68H.6l3.91-21.52,7.34-40.64H.93L4.05,331.5H15l.78-4.45c3.12-16.8,13.27-27.72,30.43-27.72Z"/><path id="Path_114877" data-name="Path 114877" class="cls-3" d="M49.58,376.29c0-25.71,17.69-45,42.27-45,21.46,0,35.25,13.64,35.25,34.61,0,25.7-17.56,44.94-42.27,44.94C63.5,410.89,49.58,397.11,49.58,376.29Zm57-9.34c0-10.48-5.72-17.08-15.87-17.08-12,0-20.55,10.33-20.55,25.41,0,10.48,5.85,17.09,16,17.09C98,392.37,106.55,382,106.55,367Z"/><path id="Path_114878" data-name="Path 114878" class="cls-4" d="M191,332.13l-3.64,20.67c-1.82-.14-3-.28-4.68-.28-12,0-19.64,6.17-22.24,20.67l-6.76,37.34H133.35l13.91-77.25h19.25l-1.69,9.19C171.06,335,179.65,332.13,191,332.13Z"/><path id="Path_114879" data-name="Path 114879" class="cls-5" d="M350.82,352.23h17.06L371.13,335H353.94l3.38-18.81H337L333.65,335h-10.8l-3.12,17.23h10.8l-5.6,31.15a41.37,41.37,0,0,0-.65,6.75c0,13.5,8.85,21.54,21.86,21.54a36.76,36.76,0,0,0,10.78-1.46l3.6-19a15.15,15.15,0,0,1-8.14,2.69c-5.07,0-7.42-2.73-7.42-7.47a14,14,0,0,1,.26-3.16Z"/><path id="Path_114880" data-name="Path 114880" class="cls-6" d="M370,403.7l7.81-16.22c6,4.45,15.47,7.32,24.32,7.32,9.49,0,13.66-2.87,13.66-7.46,0-10.92-37.07-1.87-37.07-28,0-17.38,14.7-27.14,35.11-27.14,9.76,0,19.52,2.44,25.89,6.46L432.43,355c-6.51-4.45-14.18-5.89-20.69-5.89-9.36,0-13.53,3.45-13.53,7.61,0,11.35,36.94,2.3,36.94,28,0,17.66-15.09,27-35.25,27C387.55,411.75,375.84,408.3,370,403.7Z"/><path id="Path_114881" data-name="Path 114881" class="cls-7" d="M619.86,333.28l-13.92,77.25H586.69l1.3-7.61a29.52,29.52,0,0,1-21.46,8.75c-16.26,0-30.17-12.63-30.17-34.6,0-26,17-44.94,38.63-44.94,10.14,0,18.21,3.59,22.76,11.63l1.82-10.49Zm-26.53,34.46c0-10.48-5.85-17.09-16-17.09-12,0-20.55,10.34-20.55,25.42,0,10.48,5.85,17.08,16,17.08,12,0,20.55-10.34,20.55-25.41Z"/><path id="Path_114882" data-name="Path 114882" class="cls-8" d="M527.08,366.73c0,26-17,44.94-38.76,44.94-10.15,0-18.08-3.58-22.63-11.48l-6.9,38.19H438.5l19-105.1h19.25l-1.43,7.61a29.52,29.52,0,0,1,21.46-8.76C513,332.13,527.08,344.76,527.08,366.73Zm-20.55,1c0-10.48-5.85-17.09-16-17.09-11.84,0-20.42,10.34-20.42,25.42,0,10.48,5.72,17.08,15.87,17.08,12,0,20.55-10.34,20.55-25.41Z"/><path id="Path_114883" data-name="Path 114883" class="cls-9" d="M242.08,332.13a29.13,29.13,0,0,0-20.16,7.75L224,328.21l5.16-28.09L209.3,304l-1.21.24L188.88,410.53h19.25L210.21,399c4.43,8.47,12.62,12.63,23.42,12.63,21.72,0,38.76-18.95,38.76-44.94C272.39,344.76,258.34,332.13,242.08,332.13Zm-10.8,61c-10.14,0-15.87-6.6-15.87-17.08,0-15.08,8.59-25.42,20.43-25.42,10.14,0,16,6.61,16,17.09,0,15.07-8.58,25.41-20.55,25.41Z"/><path id="Path_114884" data-name="Path 114884" class="cls-10" d="M624.77,377.61c0-25.22,17.78-44.11,42.86-44.11,15,0,28.21,7.95,33,21.75L682,362c-3.13-7.05-8.49-10.29-15.68-10.29-12,0-20.9,10.15-20.9,24.8,0,10.29,5.88,16.91,16.33,16.91,7.06,0,13.07-3.1,17.25-10.14l16.22,10.86c-6.79,11.41-20.27,17.46-34.65,17.46C638.76,411.57,624.77,398,624.77,377.61Z"/><path id="Path_114885" data-name="Path 114885" class="cls-11" d="M774.34,378.46H720.51c.65,10.28,6.53,15.5,18.16,15.5a27.62,27.62,0,0,0,18.82-7l9.56,16.42c-8.1,7.05-19.76,8.24-30.47,8.24-22,0-35.93-13.38-35.93-34,0-25.36,17-44.11,41.42-44.11,20.51,0,33.45,13.11,33.45,33.4A64.11,64.11,0,0,1,774.34,378.46Zm-52.4-12.83h34.89c0-10-6.27-15.64-15.68-15.64-9.8,0-16.46,6.2-19.21,15.64Z"/><path id="Path_114875-2" data-name="Path 114875" class="cls-12" d="M292,336.57h20.16l-13.92,77.25H278.05Zm1.69-22.39a12.93,12.93,0,0,1,13.4-13.36c7.15,0,12,4.88,12,11.2,0,8.19-5.47,13.79-13.53,13.79-7.16,0-11.84-5.17-11.84-11.63Z"/><path id="Path_114876-2" data-name="Path 114876" class="cls-13" d="M57.8,302.63l-.38,2.09L54.6,320.29H45.73c-6.25,0-9.63,3.6-11.06,11.64l-.52,2.87H52l-1.88,10.37L48.85,352H31.55l-8.4,46.47-2.81,15.68H0l3.91-21.51L11.26,352H.33L3.45,334.8H14.38l.78-4.45c3.12-16.81,13.27-27.72,30.43-27.72Z"/><path id="Path_114877-2" data-name="Path 114877" class="cls-14" d="M49,379.58c0-25.7,17.69-44.94,42.27-44.94,21.46,0,35.25,13.64,35.25,34.61,0,25.7-17.56,44.94-42.27,44.94C62.92,414.19,49,400.4,49,379.58Zm57-9.33c0-10.48-5.72-17.09-15.87-17.09-12,0-20.55,10.34-20.55,25.42,0,10.48,5.85,17.08,16,17.08,11.84,0,20.42-10.33,20.42-25.41Z"/><path id="Path_114878-2" data-name="Path 114878" class="cls-15" d="M190.39,335.43l-3.65,20.67c-1.82-.14-3-.29-4.68-.29-12,0-19.64,6.18-22.24,20.68l-6.76,37.33H132.77l13.91-77.25h19.26l-1.7,9.19C170.49,338.3,179.07,335.43,190.39,335.43Z"/><path id="Path_114879-2" data-name="Path 114879" class="cls-16" d="M350.19,355.56h17.06l3.25-17.23H353.31l3.38-18.81H336.4L333,338.33h-10.8l-3.12,17.23h10.8l-5.6,31.16a41.26,41.26,0,0,0-.65,6.75C323.65,407,332.5,415,345.5,415a36.78,36.78,0,0,0,10.79-1.46l3.6-19a15.15,15.15,0,0,1-8.14,2.69c-5.08,0-7.42-2.73-7.42-7.46a14,14,0,0,1,.26-3.16Z"/><path id="Path_114880-2" data-name="Path 114880" class="cls-17" d="M368.65,406.5l7.8-16.22c6,4.45,15.48,7.32,24.33,7.32,9.49,0,13.65-2.87,13.65-7.47,0-10.91-37.06-1.86-37.06-28,0-17.37,14.7-27.13,35.11-27.13,9.76,0,19.51,2.44,25.89,6.46l-7.29,16.37c-6.5-4.45-14.17-5.89-20.68-5.89-9.36,0-13.53,3.45-13.53,7.61,0,11.34,36.94,2.3,36.94,28,0,17.66-15.09,27-35.25,27C386.21,414.54,374.5,411.1,368.65,406.5Z"/><path id="Path_114881-2" data-name="Path 114881" class="cls-18" d="M619.28,336.57l-13.91,77.25H586.12l1.3-7.61A29.52,29.52,0,0,1,566,415c-16.25,0-30.17-12.63-30.17-34.6,0-26,17-44.94,38.63-44.94,10.14,0,18.21,3.58,22.76,11.62L599,336.57ZM592.75,371c0-10.49-5.85-17.09-16-17.09-12,0-20.55,10.34-20.55,25.41,0,10.49,5.85,17.09,16,17.09,12,0,20.55-10.34,20.55-25.41Z"/><path id="Path_114882-2" data-name="Path 114882" class="cls-19" d="M526.5,370c0,26-17,44.94-38.76,44.94-10.14,0-18.08-3.59-22.63-11.48l-6.9,38.19H437.92l19-105.1h19.25l-1.43,7.61a29.5,29.5,0,0,1,21.46-8.76C512.45,335.43,526.5,348.06,526.5,370ZM506,371c0-10.49-5.85-17.09-16-17.09-11.83,0-20.42,10.34-20.42,25.41,0,10.49,5.72,17.09,15.87,17.09,12,0,20.55-10.34,20.55-25.41Z"/><path id="Path_114883-2" data-name="Path 114883" class="cls-20" d="M241.5,335.42a29.13,29.13,0,0,0-20.16,7.76l2.12-11.67,5.15-28.09-19.89,3.86-1.2.23L188.31,413.82h19.25l2.08-11.48c4.42,8.47,12.62,12.63,23.41,12.63,21.72,0,38.76-19,38.76-44.94C271.81,348.06,257.76,335.42,241.5,335.42Zm-10.79,61c-10.15,0-15.87-6.6-15.87-17.09,0-15.07,8.58-25.41,20.42-25.41,10.15,0,16,6.6,16,17.08,0,15.08-8.58,25.42-20.55,25.42Z"/><path id="Path_114884-2" data-name="Path 114884" class="cls-21" d="M624.2,380.91c0-25.23,17.77-44.11,42.85-44.11,15,0,26.27,6.9,31.62,19.16l-17.24,9.31c-3.14-7-8.5-10.29-15.68-10.29-12,0-20.91,10.14-20.91,24.8,0,10.29,5.88,16.91,16.33,16.91,7.06,0,13.07-3.1,17.25-10.15l15,10.15c-6.8,11.41-19.08,18.18-33.45,18.18C638.18,414.87,624.2,401.34,624.2,380.91Z"/><path id="Path_114885-2" data-name="Path 114885" class="cls-22" d="M773.76,381.75H719.93c.65,10.29,6.53,15.51,18.16,15.51a27.59,27.59,0,0,0,18.82-7.05l8.49,14.52c-8.1,7-18.68,10.14-29.4,10.14-22,0-35.93-13.39-35.93-34,0-25.36,17-44.11,41.42-44.11,20.52,0,33.45,13.11,33.45,33.4A63,63,0,0,1,773.76,381.75Zm-52.39-12.82h34.88c0-10-6.27-15.64-15.68-15.64-9.8,0-16.46,6.2-19.2,15.64Z"/><path class="cls-23" d="M438.37,341.46l-.2.45c-6.37-4-16.13-6.46-25.89-6.46-15,0-26.88,5.25-32.16,14.9a1.46,1.46,0,0,1,.07-.19c5.21-9.82,17.19-15.16,32.3-15.16C422.24,335,432,337.44,438.37,341.46Z"/><path class="cls-23" d="M433.8,387.52a26,26,0,0,1-1.53,9.05v0a2.53,2.53,0,0,1-.13.22A25.89,25.89,0,0,0,433.6,388c0-25.7-36.94-16.66-36.94-28a5.72,5.72,0,0,1,.62-2.63,5.75,5.75,0,0,0-.42,2.18C396.86,370.86,433.8,361.82,433.8,387.52Z"/><path class="cls-23" d="M413.78,393c-1.29,3.17-5.49,5.07-13.21,5.07-8.84,0-18.34-2.87-24.32-7.32h0l.22-.44c6,4.45,15.47,7.32,24.32,7.32C408.12,397.6,412.27,395.88,413.78,393Z"/><path class="cls-23" d="M698.67,356l-.21.08c-5.43-12-16.57-18.7-31.41-18.7-21.82,0-38.11,14.29-42,34.62,0-.49.12-1,.19-1.47,4.17-19.84,20.29-33.69,41.78-33.69C682.08,336.84,693.32,343.74,698.67,356Z"/><path class="cls-23" d="M693.48,396.72c-.08.12-.15.25-.24.37l-14.79-10c-4.19,7.05-10.19,10.15-17.25,10.15-10.45,0-16.33-6.63-16.33-16.91V380c.06,10.19,5.94,16.74,16.33,16.74,7.06,0,13.06-3.1,17.25-10.15Z"/><path class="cls-23" d="M271.81,370a56.43,56.43,0,0,1-.61,8.34v0l-.06.25a56,56,0,0,0,.57-8.09c0-22-14-34.61-30.31-34.61a29.09,29.09,0,0,0-20.15,7.76l.09-.53a29.06,29.06,0,0,1,20.16-7.75C257.76,335.43,271.81,348.06,271.81,370Z"/><path class="cls-23" d="M319,312c0,.46,0,.9-.05,1.34a2.76,2.76,0,0,1-.08.27c0-.36,0-.71,0-1.08,0-6.32-4.82-11.2-12-11.2-6.34,0-11,3.64-12.69,8.83l0-.27c1.62-5.33,6.32-9.09,12.77-9.09C314.18,300.82,319,305.7,319,312Z"/><polygon class="cls-23" points="312.13 336.57 312.04 337.1 291.88 337.1 291.98 336.57 312.13 336.57"/><polygon class="cls-23" points="51.97 334.8 51.87 335.33 34.05 335.33 34.15 334.8 51.97 334.8"/><polygon class="cls-23" points="14.39 334.82 14.3 335.34 3.37 335.34 3.46 334.82 14.39 334.82"/><path class="cls-23" d="M126.53,369.25a54.15,54.15,0,0,1-.56,7.83c0,.1,0,.21-.07.31a54.24,54.24,0,0,0,.54-7.62c0-21-13.79-34.6-35.25-34.6-20.78,0-36.64,13.74-41,33.52a1.23,1.23,0,0,1,0-.19c4.3-20,20.22-33.86,41.11-33.86C112.75,334.64,126.53,348.28,126.53,369.25Z"/><polygon class="cls-23" points="165.93 336.57 165.83 337.1 146.59 337.1 146.69 336.57 165.93 336.57"/><path class="cls-23" d="M190.39,335.43l-.1.52c-11.31,0-19.9,2.87-26.14,10.34l.1-.53C170.49,338.3,179.07,335.43,190.39,335.43Z"/><polygon class="cls-23" points="356.69 319.52 356.6 320.05 336.31 320.05 336.4 319.52 356.69 319.52"/><polygon class="cls-23" points="333.02 338.33 332.93 338.86 322.13 338.86 322.23 338.33 333.02 338.33"/><polygon class="cls-23" points="370.47 338.33 370.37 338.86 353.21 338.86 353.3 338.33 370.47 338.33"/><path class="cls-23" d="M359.88,394.51l-.1.53a15,15,0,0,1-8.11,2.67c-5.07,0-7.41-2.73-7.41-7.46a13.47,13.47,0,0,1,.24-3,13.12,13.12,0,0,0-.15,2.5c0,4.74,2.35,7.47,7.42,7.47A15.21,15.21,0,0,0,359.88,394.51Z"/><polygon class="cls-23" points="619.28 336.53 619.18 337.06 598.93 337.06 599.02 336.53 619.28 336.53"/><path class="cls-23" d="M597.13,347.05l-.09.53c-4.55-8-12.62-11.63-22.77-11.63-18.13,0-33,13.37-37.36,33l0-.25v0c4.24-19.81,19.21-33.29,37.42-33.29C584.52,335.43,592.58,339,597.13,347.05Z"/><polygon class="cls-23" points="476.16 336.55 476.05 337.07 456.84 337.07 456.93 336.55 476.16 336.55"/><path class="cls-23" d="M526.5,370a56.55,56.55,0,0,1-.6,8.34,0,0,0,0,0,0,0l-.06.25a56,56,0,0,0,.57-8.09c0-22-14-34.61-30.3-34.6a29.52,29.52,0,0,0-21.46,8.75l.09-.52a29.54,29.54,0,0,1,21.46-8.76C512.45,335.43,526.5,348.06,526.5,370Z"/><polygon class="cls-23" points="228.59 303.42 228.5 303.95 208.61 307.81 207.41 308.04 207.51 307.52 208.71 307.28 228.59 303.42"/><path class="cls-23" d="M57.82,302.64l-.1.52H45.52c-16.84,0-26.93,10.51-30.25,26.78l.1-.55c3.32-16.26,13.41-26.76,30.25-26.76Z"/><path class="cls-23" d="M765.4,404.73c-.09.07-.1.1-.19.16l-8.39-14.19a27.49,27.49,0,0,1-18.81,7c-11.63,0-17.51-5.21-18.16-15.5H720c.81,9.94,6.69,15,18.12,15a27.58,27.58,0,0,0,18.81-7.05Z"/><path class="cls-23" d="M774.94,370.19a63.56,63.56,0,0,1-.63,8.28h0a62.82,62.82,0,0,0,.55-7.75c0-20.29-12.93-33.4-33.44-33.4S705.51,350.63,701.2,370l0-.22c4.22-19.52,19.57-33,40.26-33C762,336.8,774.94,349.9,774.94,370.19Z"/><path class="cls-23" d="M105.41,376.68c-1.94,11.81-9.74,19.52-20,19.52s-16-6.61-16-17.09a34.8,34.8,0,0,1,.6-6.59,35.86,35.86,0,0,0-.5,6.07c0,10.48,5.85,17.08,16,17.08S103.33,388.19,105.41,376.68Z"/><path class="cls-23" d="M592.09,378c-2.06,11.55-9.8,19.05-20,19.05s-16-6.61-16-17.09a35.14,35.14,0,0,1,.57-6.46,35.34,35.34,0,0,0-.48,5.93c0,10.48,5.85,17.09,16,17.09S589.89,389.19,592.09,378Z"/><path class="cls-23" d="M505.36,377.7c-2,11.66-9.78,19.24-20,19.24s-15.87-6.6-15.87-17.08a35.45,35.45,0,0,1,.56-6.4,35.7,35.7,0,0,0-.47,5.87c0,10.48,5.72,17.09,15.87,17.09S503.21,389.06,505.36,377.7Z"/><path class="cls-23" d="M250.62,377.9c-2.06,11.56-9.8,19.07-20,19.07s-15.87-6.6-15.87-17.08a35.47,35.47,0,0,1,.55-6.4,35.72,35.72,0,0,0-.46,5.87c0,10.48,5.72,17.09,15.87,17.09S248.42,389.16,250.62,377.9Z"/><path class="cls-23" d="M756.25,369.45h-35c0-.17.1-.35.16-.52h34.86C756.26,369.1,756.25,369.28,756.25,369.45Z"/><circle class="cls-23" cx="387.76" cy="142.73" r="111.18"/><path class="cls-23" d="M387.76,254.91A112.18,112.18,0,1,1,499.94,142.73,112.3,112.3,0,0,1,387.76,254.91Zm0-222.36A110.18,110.18,0,1,0,497.94,142.73,110.3,110.3,0,0,0,387.76,32.55Z"/><path id="Path_105193" data-name="Path 105193" class="cls-24" d="M487,65.27l-.62-.81A125.86,125.86,0,0,0,288.43,220l0,0c.24.32.49.63.74.93l.06.08A125.85,125.85,0,0,0,487,65.27Zm9.28,137.61A124.61,124.61,0,0,1,475.83,230l-.72.72A124,124,0,0,1,299.61,55.49l.08-.06c.27-.28.54-.56.83-.83l0,0a124,124,0,0,1,195.69,148.3Z"/><path id="Path_105194" data-name="Path 105194" class="cls-25" d="M500.24,54.9c-.23-.31-.47-.61-.71-.92a142.72,142.72,0,0,0-224.4,176.41l0,0c.28.36.55.71.84,1.06l.06.08A142.71,142.71,0,0,0,500.24,54.9Zm10.51,156a140.9,140.9,0,0,1-23.13,30.77q-.4.42-.81.81a140.61,140.61,0,0,1-199-198.71.27.27,0,0,1,.08-.07c.3-.33.62-.64.93-1l0,0A140.64,140.64,0,0,1,510.75,211Z"/><path class="cls-26" d="M424.51,78.35A9.62,9.62,0,1,0,434.12,88,9.63,9.63,0,0,0,424.51,78.35Zm0,18.82a9.21,9.21,0,1,1,9.21-9.2A9.21,9.21,0,0,1,424.51,97.17Z"/><path class="cls-27" d="M432.27,88a7.76,7.76,0,1,1-7.76-7.76A7.77,7.77,0,0,1,432.27,88Z"/><path class="cls-28" d="M363.94,121a46.09,46.09,0,0,1,23.82-6.58v22.21a24.21,24.21,0,0,0-24,23.93c0,.1,0,.2,0,.31s0,.2,0,.31v45.92H341.39V124.33a46.38,46.38,0,0,1,46.29-46h.08V99.73A24.24,24.24,0,0,0,363.94,121Z"/><path class="cls-29" d="M434.12,160.79v.4a46.38,46.38,0,0,1-41.63,45.73c-1.59.11-3.19.17-4.82.17-1.38,0-2.75,0-4.11-.13h0a46,46,0,0,1-16.48-4.66V173.11a24.24,24.24,0,0,0,20.82,12l.74,0h.06A24.23,24.23,0,0,0,412,164.25a24,24,0,0,0,.23-3.06v-.32A24.26,24.26,0,0,0,391,136.81V114.54a45.94,45.94,0,0,1,21.1,6.78,46.54,46.54,0,0,1,18.36,21.33l0,.11A46.22,46.22,0,0,1,434.12,160.79Z"/></svg>