<svg id="Layer_1" data-name="Layer 1" xmlns="http://www.w3.org/2000/svg" viewBox="0 0 95.5 95.25"><defs><style>.cls-1{fill:#0168ff;fill-rule:evenodd;}</style></defs><path id="Path_70627" data-name="Path 70627" class="cls-1" d="M18.62,78.69C-.91,62.1-4.9,26.82,17.45,10.65,37.29-3.72,61.7-.92,77.61,17.73a.49.49,0,0,0,.69.09.49.49,0,0,0,.1-.69h0C62.56-3.87,31.85-5.53,12.5,12-7.32,29.9-2.16,63.85,18,79.43a.47.47,0,0,0,.65-.14.48.48,0,0,0-.07-.6Z"/><path id="Path_70628" data-name="Path 70628" class="cls-1" d="M25.41,83c42.7,20.68,80.84-29.85,52.84-66.52-.3-.4-.89.06-.61.47,24.78,37.32-9.38,82.48-51.89,65.25a.44.44,0,0,0-.34.8Z"/><path id="Path_70629" data-name="Path 70629" class="cls-1" d="M82.24,58.81c-2,5.6-4.75,1-6.19-.52-.17-.18-.23-.48-.43-.65s-.49-.27-.64-.4c-1.58.07-2.65-.88-3.19-2.85a5.07,5.07,0,0,0-.16-1c-.43-.87-.51-1.22-1.29-1.72-1.09-.7-1.34.33-2-1.25-.1-.26-.47-.1-.39.16.14.53.3,1.06.47,1.59a.29.29,0,0,0,.38.16c1.65-.94,2.82,4,3.61,4.88,1,1.11,2,.27,3.46,1.88.36.4.39,1,.79,1.4,2,2.26,5.14,1,6-1.52.11-.31-.36-.51-.47-.2Z"/><path id="Path_70630" data-name="Path 70630" class="cls-1" d="M81.69,23.8c-2.5-.61-6.4-1.66-8.62.26s-.67,4.9.85,6.67a.27.27,0,0,0,.37,0,.26.26,0,0,0,0-.32,9.23,9.23,0,0,1-1.64-3.19c-.36-1.89.8-3.12,2.57-3.44,2.11-.39,4.27.27,6.34.51a.26.26,0,0,0,.28-.22.25.25,0,0,0-.2-.27Z"/><path id="Path_70631" data-name="Path 70631" class="cls-1" d="M72.94,29.86c.15,1.72,0,3.28-1.83,4.17-.36.19-1.2.08-1.65.28a4,4,0,0,0-2,2c-1.19,2.34-.26,4.94,1.16,6.94a.28.28,0,0,0,.4,0A.3.3,0,0,0,69.1,43c-.69-1.82-1.73-4-.91-6,1-2.29,2.74-1.46,4.34-2.55s1.26-3.14.86-4.66a.24.24,0,0,0-.27-.18.23.23,0,0,0-.18.24Z"/><path id="Path_70632" data-name="Path 70632" class="cls-1" d="M68.58,42.33c-1,2.12-3.15,4.86-2.37,7.38.47,1.51,2.06,2.65,3.54,1.79.31-.18.06-.61-.24-.59-4.57.34-1.23-6.35-.4-8.36a.29.29,0,0,0-.17-.36.29.29,0,0,0-.36.14Z"/><path id="Path_70633" data-name="Path 70633" class="cls-1" d="M59.06,4.61c1.89,1.93,4,3.56,6,5.37,1.4,1.28,2.46,2.44,2.23,4.51a13.52,13.52,0,0,1-1.5,3.88.26.26,0,0,0,.44.26c1.38-2,2.55-4.68,1.35-7a10.82,10.82,0,0,0-2.88-3c-1.72-1.49-3.4-3-5.24-4.37-.27-.2-.69.17-.44.44Z"/><path id="Path_70634" data-name="Path 70634" class="cls-1" d="M65.47,19.86c-.85,2.47-3.27,7.75-6.7,5.18-1.36-1-1.18-3-3-3.51-.29-.07-.34.35-.13.47,1.27.74,1.3,2.56,2.35,3.54a3.49,3.49,0,0,0,2.75.84c3.25-.3,4.51-3.57,5.33-6.27.11-.38-.44-.64-.58-.25Z"/><path id="Path_70635" data-name="Path 70635" class="cls-1" d="M54.23,21.63c-1.23.37-2.45.73-3.65,1.18-.23.09-.13.49.12.43,1.26-.32,2.49-.73,3.73-1.12.34-.1.12-.59-.2-.49Z"/><path id="Path_70636" data-name="Path 70636" class="cls-1" d="M49.78,22.91c-.73-.27-1.53-.37-1.85-1.19a9.12,9.12,0,0,1-.16-2.1c0-.26-.46-.27-.47,0,0,1,0,1.92.06,2.88a.3.3,0,0,0,.18.23c.68.23,1.35.45,2,.66.32.1.54-.36.21-.48Z"/><path id="Path_70637" data-name="Path 70637" class="cls-1" d="M47,20.33a5.45,5.45,0,0,0-1.53-3.51c-1.6-1.63-3.89-1.36-4.63-3.91s-1-6.28-4.56-6.47a.23.23,0,0,0-.12.43c2.2.86,3.25,2.78,3.65,5,.17,1,0,2.29.63,3.16.45.66.69.6,1.35,1,1,.55,1.21-.09,2.65.95a5.08,5.08,0,0,1,2,3.45.3.3,0,0,0,.34.25.29.29,0,0,0,.25-.33Z"/><path id="Path_70638" data-name="Path 70638" class="cls-1" d="M36.86,6.78c0-2.23-3.13-4.66-5-2.64a.36.36,0,0,0,.06.5.39.39,0,0,0,.26.07c1.73-.33,3.91-.09,4.13,2.15C36.36,7.22,36.87,7.13,36.86,6.78Z"/><path id="Path_70639" data-name="Path 70639" class="cls-1" d="M28.86,3.51c-1.13,1-.48,2.34.68,3.12.37.25,1,.3,1.35.59A3.44,3.44,0,0,1,32,10.32c0,.72-.21,1.13.23,1.77a2.24,2.24,0,0,0,.47.45,6.33,6.33,0,0,0,1,.52c.23.81.45,1.63.67,2.43-.09,1.59-2.59,4-4.28,1.75-.22-.29-.2-.83-.42-1.16-1.26-1.83-3.7-.91-5.25,0-.28.15-.12.6.19.47,1.89-.8,3.13-1.21,4.73.73.2.25.22.67.44.93a2.26,2.26,0,0,0,1.75.78c2.08,0,3.18-2.26,3.58-4A1.87,1.87,0,0,0,35,13.18c-.94-1.29-2.34-.8-2.32-3.12,0-.75.44-1.46.13-2.23-.46-1.13-4.51-2.64-3.51-3.91.2-.25-.16-.64-.41-.41Z"/><path id="Path_70640" data-name="Path 70640" class="cls-1" d="M23.71,15.72c0-.49,0-1,0-1.46a.24.24,0,0,0-.16-.21,2.45,2.45,0,0,0-2,.12c-1.17.53-3.45,3.14-4.67,1.07-.12-.2-.45,0-.35.2a1.74,1.74,0,0,0,2.1.94c1.33-.2,4.43-3.28,4.61-.6C23.27,16.08,23.72,16,23.71,15.72Z"/><path id="Path_70641" data-name="Path 70641" class="cls-1" d="M14.83,15.62c-1.87,1.5-4.08,1.61-6.26,2.26-.36.11-.19.56.08.63,2.46.66,4.76-.94,6.48-2.49.23-.22-.05-.61-.3-.4Z"/><path id="Path_70642" data-name="Path 70642" class="cls-1" d="M67.94,78.2c-1.83,0-3.36-.39-4.25-1.93-.29-.51-.33-1.14-.67-1.66a5.28,5.28,0,0,0-2.89-2.07,6.5,6.5,0,0,0-2.81,0c-1.21.09-1.87.39-3-.46s-2.14-2.71-3.1-3.87a.22.22,0,0,0-.32,0,.23.23,0,0,0,0,.3c.9,1.32,2.41,4.61,3.87,5.28,1.84.84,3.46-1.07,5.48-.25,3.85,1.55,2.18,7.72,7.84,5.1a.2.2,0,0,0,.09-.27.2.2,0,0,0-.19-.12Z"/><path id="Path_70643" data-name="Path 70643" class="cls-1" d="M50.79,68.18c.16-2.57,2.35-4.67,3.23-7,1.69-4.6,1.33-2.81,3.23-5.09a4.46,4.46,0,0,0,1-2.14,5.1,5.1,0,0,0-1.68-4.72c-2.14-1.79-7.32-.08-8.52-2.87a.27.27,0,0,0-.5.21c.64,1.56,1.6,1.91,3.2,2.3,2.72.67,6.56-.26,6.87,3.73.28,3.58-1.71,3.28-3.22,4.95a4.14,4.14,0,0,0-1.07,1.7,8.72,8.72,0,0,0-.06,1,4.74,4.74,0,0,1-2.07,3.82,6.41,6.41,0,0,0-.9,4.14.23.23,0,0,0,.27.19.25.25,0,0,0,.19-.2Z"/><path id="Path_70644" data-name="Path 70644" class="cls-1" d="M47.56,46.08l-3-.93a.31.31,0,0,0-.39.15A75.09,75.09,0,0,1,39,52.84c-.65.91-1,2.62-1.56,3.33-1.38,1.61-4.09.1-5.41,2.18a5.24,5.24,0,0,0-.46,1.33,29.22,29.22,0,0,0-.32,6.91c.16,1.89.63,3.2,2.66,3.29.41,0,.5-.61.09-.63S28.85,56,37.83,58c.23.05.39-.18.38-.38-.18-2.47,2.76-4.9,4-7.15,1.32-2.42,1.92-4.83,5.17-3.89.31.09.52-.38.21-.47Z"/><path id="Path_70645" data-name="Path 70645" class="cls-1" d="M32.92,70.23a2.66,2.66,0,0,1,2.32,3.34c-.05.35-.39.68-.46,1.05a1.82,1.82,0,0,0,.09,1.43c.78,1.38,4.47.59,3.65,2.88-.28.8-2.81.85-3.54.89a5.48,5.48,0,0,0-1.07.05,2.09,2.09,0,0,0-1.39.61c-.63.81.8,3.47.48,3.64a.39.39,0,0,0-.19.48,3,3,0,0,0,1.31,1.78c.24.17.62-.15.39-.39-1.27-1.32-.15-1.25-.41-2.37a5.54,5.54,0,0,1-.26-.88,2.22,2.22,0,0,0-.45-.56c.18-1.45.88-2,2.12-1.66,1.32-.26,4.78-.63,4.27-2.85-.15-.61-.53-.79-1.09-1s-1.46,0-2-.31c-1.37-.82-.67-2.48-.46-3.52.42-2.18-1.39-2.93-3.24-3.34-.48-.1-.57.63-.1.74Z"/><path id="Path_70646" data-name="Path 70646" class="cls-1" d="M28.62,76.39a6.36,6.36,0,0,0,1.65-5.58c-.49-2.7-5.47-6.32-2.74-8.86a.24.24,0,0,0,0-.35.23.23,0,0,0-.34,0c-1.46,1-1.58,2.62-.85,4.16a21.71,21.71,0,0,0,2.12,2.85A6.1,6.1,0,0,1,28.14,76a.31.31,0,0,0,.48.38Z"/><path id="Path_70647" data-name="Path 70647" class="cls-1" d="M26.46,61.85c3.33-3.08.85-9.11-3.88-8.08-.27.06-.32.53,0,.53,4,0,6.38,4,3.55,7.23-.17.19.13.5.32.32Z"/><path id="Path_70648" data-name="Path 70648" class="cls-1" d="M21.82,53.39c-1.24-.56-2.49-1.09-3.74-1.63A6,6,0,0,0,15.73,51c-1.73.06-1.32,2.67-2.54,2.77a.29.29,0,0,0-.24.32.27.27,0,0,0,.16.21c1,.41,1.22-.28,1.68-1s-.71-1.16,1.25-1.48c.47-.07,1.33.5,1.74.67L21.54,54a.35.35,0,0,0,.46-.21.36.36,0,0,0-.18-.44Z"/><path id="Path_70649" data-name="Path 70649" class="cls-1" d="M13.4,53.49c-1.38,1.22-2.2-2.65-2.84-3.27a1.4,1.4,0,0,0-1.8-.34.26.26,0,0,0-.12.36.27.27,0,0,0,.27.15c1.44-.19,2.66,6,4.89,3.51.21-.25-.16-.63-.4-.41Z"/><path id="Path_70650" data-name="Path 70650" class="cls-1" d="M8,49.44c-1,.13-1.48-1.29-2.55-1.21-.49,0-2.74,1.81-2.9,1a.26.26,0,0,0-.3-.22.28.28,0,0,0-.22.22c-.26,1,.89,1.36,1.7,1.08.51-.18.3-.3.79-.56a2.2,2.2,0,0,1,2.23,0c.63.28.71.58,1.4.29a.3.3,0,0,0,.15-.4.31.31,0,0,0-.3-.17Z"/><path id="Path_70651" data-name="Path 70651" class="cls-1" d="M28.27,75.48c-2.52,2.39-5.77,1.3-7.13-1.68a.27.27,0,0,0-.34-.13.26.26,0,0,0-.15.26c.65,4,5.57,4.8,8.06,2,.25-.26-.17-.7-.44-.45Z"/><path id="Path_70652" data-name="Path 70652" class="cls-1" d="M18.19,72.13c-2.35,1.18-4.19-.51-4.5-2.79a25.29,25.29,0,0,0-.39-3.25c-.39-1.39-1.17-2.56-2.67-2.73a.22.22,0,0,0-.25.2.24.24,0,0,0,.13.23c3.27,1.25,1.71,5.31,3.27,7.72a3.44,3.44,0,0,0,4.6,1.08c.28-.15.09-.61-.19-.47Z"/><path id="Path_70653" data-name="Path 70653" class="cls-1" d="M9.06,62.34c-2.44-.67-3.71-2.14-4.9-4.26-.15-.24-.58-.19-.53.14.43,2.52,2.93,4.35,5.36,4.64.35,0,.39-.43.07-.52Z"/><path id="Path_70654" data-name="Path 70654" class="cls-1" d="M20.91,74.12a9.58,9.58,0,0,0-3.81-1.7.26.26,0,0,0-.14.5,25.87,25.87,0,0,1,3.67,1.68c.27.16.53-.29.28-.47Z"/><path id="Path_70655" data-name="Path 70655" class="cls-1" d="M48.82,22.58A80.58,80.58,0,0,1,47.9,36.2a.2.2,0,0,0,.18.22.21.21,0,0,0,.21-.16,59.17,59.17,0,0,0,1-13.74c0-.27-.42-.21-.42.06Z"/><path id="Path_70656" data-name="Path 70656" class="cls-1" d="M50.86,22.63A136.38,136.38,0,0,1,49.7,36.76a.2.2,0,0,0,.4.05,85.68,85.68,0,0,0,1.17-14.12c0-.27-.4-.33-.41-.06Z"/><path id="Path_70657" data-name="Path 70657" class="cls-1" d="M52.4,22.66a110.72,110.72,0,0,1-2.43,25c-.06.27.35.31.42.06A83.74,83.74,0,0,0,52.85,22.6c0-.29-.45-.22-.45.06Z"/><path id="Path_70658" data-name="Path 70658" class="cls-1" d="M53.89,23.21a137.85,137.85,0,0,1-2,25.5c0,.28.39.34.45.06a118.31,118.31,0,0,0,2-25.62c0-.29-.46-.23-.45.06Z"/><path id="Path_70659" data-name="Path 70659" class="cls-1" d="M55.26,23.2a54.41,54.41,0,0,1,0,6,.2.2,0,0,0,.17.23.22.22,0,0,0,.23-.18,23.51,23.51,0,0,0,.11-6.1C55.71,22.82,55.25,22.9,55.26,23.2Z"/><path id="Path_70660" data-name="Path 70660" class="cls-1" d="M55.43,30.62C55,36.54,54.05,42.3,53.14,48.15c0,.27.35.31.41.06a90.85,90.85,0,0,0,2.31-17.54C55.88,30.39,55.44,30.33,55.43,30.62Z"/><path id="Path_70661" data-name="Path 70661" class="cls-1" d="M57.56,23.81A117.8,117.8,0,0,1,54.12,49c-.06.23.35.35.42.11A95.33,95.33,0,0,0,58,23.87c0-.29-.46-.36-.46-.06Z"/><path id="Path_70662" data-name="Path 70662" class="cls-1" d="M59.36,24.48a185.63,185.63,0,0,1-4,26.73c-.06.29.38.33.45.06a119.75,119.75,0,0,0,4-26.74c0-.26-.39-.33-.4-.06Z"/><path id="Path_70663" data-name="Path 70663" class="cls-1" d="M60.33,26.16c0,4.93-.32,9.78-.71,14.7a.21.21,0,0,0,.41,0,85.62,85.62,0,0,0,.86-14.75c0-.32-.55-.32-.56,0Z"/><path id="Path_70664" data-name="Path 70664" class="cls-1" d="M47.81,38a13.63,13.63,0,0,0-.38,1.35c-.06.24.32.34.41.11a10.26,10.26,0,0,0,.44-1.25c.1-.32-.37-.52-.47-.21Z"/><path id="Path_70665" data-name="Path 70665" class="cls-1" d="M47.58,40.75c-.25,1.5-.49,3-.68,4.5a.26.26,0,0,0,.22.28.26.26,0,0,0,.28-.21c.23-1.5.39-3,.57-4.52a.19.19,0,0,0-.18-.21.2.2,0,0,0-.21.16Z"/><path id="Path_70666" data-name="Path 70666" class="cls-1" d="M49.76,38.18c-.45,2.82-.95,5.64-1.3,8.48a.24.24,0,0,0,.21.27.24.24,0,0,0,.28-.21c.49-2.81.85-5.65,1.25-8.48A.21.21,0,0,0,50,38,.22.22,0,0,0,49.76,38.18Z"/><path id="Path_70667" data-name="Path 70667" class="cls-1" d="M62.17,4.76c.11.66.2,1.32.33,2a.21.21,0,0,0,.26.17.21.21,0,0,0,.17-.23c-.07-.66-.18-1.31-.28-2-.06-.31-.53-.24-.48.06Z"/><path id="Path_70668" data-name="Path 70668" class="cls-1" d="M63.82,5.72c0,.8.09,1.6.18,2.4,0,.27.42.21.42-.06,0-.8-.1-1.6-.17-2.4a.22.22,0,0,0-.43.06Z"/><path id="Path_70669" data-name="Path 70669" class="cls-1" d="M65.19,7.06a5.4,5.4,0,0,0,.46,3.07A.2.2,0,0,0,66,10a5.94,5.94,0,0,1-.38-2.86.23.23,0,0,0-.46-.06Z"/><path id="Path_70670" data-name="Path 70670" class="cls-1" d="M66.32,8a5.35,5.35,0,0,0,.92,3.2c.14.2.49,0,.37-.21a6.53,6.53,0,0,1-.82-3c0-.31-.48-.24-.48.06Z"/><path id="Path_70671" data-name="Path 70671" class="cls-1" d="M67.75,9.34c.18,1.32.35,2.64.6,3.95a.22.22,0,0,0,.25.18.21.21,0,0,0,.18-.25h0c-.12-1.32-.32-2.63-.53-4a.26.26,0,0,0-.29-.2.26.26,0,0,0-.21.27Z"/><path id="Path_70672" data-name="Path 70672" class="cls-1" d="M69.24,10.32A89,89,0,0,1,69,26.06a.21.21,0,0,0,.19.24.22.22,0,0,0,.24-.18,59.47,59.47,0,0,0,.36-15.88c0-.36-.6-.29-.57.08Z"/><path id="Path_70673" data-name="Path 70673" class="cls-1" d="M70.81,10.87a100.76,100.76,0,0,1-.39,17.54.21.21,0,0,0,.18.24.22.22,0,0,0,.24-.18,64.89,64.89,0,0,0,.41-17.66c0-.28-.45-.22-.44.06Z"/><path id="Path_70674" data-name="Path 70674" class="cls-1" d="M72,12.52A86.72,86.72,0,0,1,72,26.57a.19.19,0,0,0,.21.2.21.21,0,0,0,.2-.15,42.27,42.27,0,0,0-.11-14.15.2.2,0,0,0-.23-.16.21.21,0,0,0-.16.21Z"/><path id="Path_70675" data-name="Path 70675" class="cls-1" d="M73.18,12.93a88.53,88.53,0,0,1,.27,10.8.22.22,0,0,0,.43.06,43.32,43.32,0,0,0-.29-10.91.2.2,0,0,0-.24-.17.21.21,0,0,0-.17.22Z"/><path id="Path_70676" data-name="Path 70676" class="cls-1" d="M75.14,13c-.07,3.45-.15,6.91,0,10.36,0,.22.4.23.41,0,.15-3.45.1-6.91.07-10.36C75.57,12.75,75.15,12.75,75.14,13Z"/><path id="Path_70677" data-name="Path 70677" class="cls-1" d="M76.56,15.43c.15,2.48,0,4.94,0,7.42a.22.22,0,0,0,.21.24A.22.22,0,0,0,77,22.9a34.47,34.47,0,0,0,0-7.53c0-.28-.43-.22-.42.06Z"/><path id="Path_70678" data-name="Path 70678" class="cls-1" d="M77.86,17.61c0,2.08,0,4.19.12,6.26,0,.24.42.25.42,0,.1-2.07,0-4.18-.12-6.26,0-.24-.43-.24-.43,0Z"/><path id="Path_70679" data-name="Path 70679" class="cls-1" d="M79.13,19c0,1.57-.06,3.14,0,4.71,0,.25.42.25.44,0,.07-1.55,0-3.1.06-4.65,0-.31-.48-.38-.49-.06Z"/><path id="Path_70680" data-name="Path 70680" class="cls-1" d="M80.3,19.9a7.31,7.31,0,0,1,0,3.19c-.06.25.33.29.39.05a6.71,6.71,0,0,0,.07-3.3c0-.28-.48-.22-.42.06Z"/><path id="Path_70681" data-name="Path 70681" class="cls-1" d="M62.48,25.86c-.09,3.16.1,6.35.22,9.5,0,.26.38.19.38,0,0-3.14,0-6.32-.19-9.45,0-.23-.41-.24-.41,0Z"/><path id="Path_70682" data-name="Path 70682" class="cls-1" d="M63.53,22.52a40.87,40.87,0,0,1,.5,9.94c0,.25.37.31.39,0a34.23,34.23,0,0,0-.44-10c0-.28-.5-.23-.45.06Z"/><path id="Path_70683" data-name="Path 70683" class="cls-1" d="M65.17,20.6c-.1,5.89-.24,11.76-.56,17.64,0,.27.39.33.42.06a124.53,124.53,0,0,0,.57-17.7c0-.24-.43-.24-.43,0Z"/><path id="Path_70684" data-name="Path 70684" class="cls-1" d="M66.7,17.34c-.2,5.88-.46,11.76-.56,17.64,0,.25.39.32.4.05.27-5.87.4-11.75.57-17.63,0-.27-.4-.33-.41-.06Z"/><path id="Path_70685" data-name="Path 70685" class="cls-1" d="M67.85,15A138.27,138.27,0,0,1,67,34.81a.21.21,0,0,0,.18.21.2.2,0,0,0,.21-.16,116.5,116.5,0,0,0,.85-19.93c0-.27-.42-.21-.41.05Z"/><path id="Path_70686" data-name="Path 70686" class="cls-1" d="M68.52,26.34c-.14,2.65-.3,5.32-.28,8,0,.25.42.25.44,0,.21-2.61.24-5.27.28-7.89C69,26.13,68.54,26.06,68.52,26.34Z"/><path id="Path_70687" data-name="Path 70687" class="cls-1" d="M69.55,26.23a49.06,49.06,0,0,1-.32,8.82.19.19,0,0,0,.18.21.2.2,0,0,0,.21-.16A30.39,30.39,0,0,0,70,26.17c0-.28-.45-.21-.43.06Z"/><path id="Path_70688" data-name="Path 70688" class="cls-1" d="M70.83,26.22a46.74,46.74,0,0,1,.07,7,.2.2,0,0,0,.4.05,35.1,35.1,0,0,0,0-7.1.22.22,0,0,0-.44,0Z"/><path id="Path_70689" data-name="Path 70689" class="cls-1" d="M72.53,28.17a10.86,10.86,0,0,1-.34,4c0,.21.32.32.38.1a10.64,10.64,0,0,0,.37-4.2.22.22,0,0,0-.25-.16.2.2,0,0,0-.16.21Z"/><path id="Path_70690" data-name="Path 70690" class="cls-1" d="M58.7,42c-.59,3.08-1.32,6.19-1.68,9.31a.21.21,0,0,0,.2.25.23.23,0,0,0,.25-.19c.76-3,1.18-6.21,1.72-9.3.06-.32-.43-.38-.49-.07Z"/><path id="Path_70691" data-name="Path 70691" class="cls-1" d="M60.58,42.1c-.58,3.57-1.2,7.15-1.6,10.74a.21.21,0,0,0,.42,0c.67-3.55,1.11-7.15,1.61-10.73a.21.21,0,0,0-.2-.23.21.21,0,0,0-.23.17Z"/><path id="Path_70692" data-name="Path 70692" class="cls-1" d="M61.91,35.46c-.19,6-.62,11.89-1.39,17.83a.19.19,0,0,0,.17.21.2.2,0,0,0,.21-.16,105,105,0,0,0,1.42-17.88c0-.23-.41-.23-.41,0Z"/><path id="Path_70693" data-name="Path 70693" class="cls-1" d="M63.41,36.91a102.6,102.6,0,0,1-1.49,16.87c-.05.28.37.33.43.06a85.68,85.68,0,0,0,1.49-17c0-.28-.43-.22-.43,0Z"/><path id="Path_70694" data-name="Path 70694" class="cls-1" d="M64.83,37.87a107.37,107.37,0,0,1-1.22,16.9.19.19,0,0,0,.18.21.2.2,0,0,0,.22-.16,82.09,82.09,0,0,0,1.21-17c0-.25-.4-.2-.39,0Z"/><path id="Path_70695" data-name="Path 70695" class="cls-1" d="M66.07,41.1c.08,2.21.14,4.42.26,6.63,0,.25.4.19.39,0,0-2.21-.15-4.42-.24-6.63,0-.26-.42-.21-.41.05Z"/><path id="Path_70696" data-name="Path 70696" class="cls-1" d="M54.6,58.44c-1,4.23-2,8.44-2.9,12.69-.07.35.46.41.55.07,1-4.22,1.86-8.46,2.76-12.7C55.06,58.24,54.66,58.19,54.6,58.44Z"/><path id="Path_70697" data-name="Path 70697" class="cls-1" d="M56.29,55.71c-.86,5.18-1.95,10.36-2.55,15.57a.22.22,0,0,0,.22.2.19.19,0,0,0,.19-.15c1.1-5.13,1.73-10.38,2.56-15.56a.21.21,0,0,0-.21-.21.22.22,0,0,0-.21.15Z"/><path id="Path_70698" data-name="Path 70698" class="cls-1" d="M57.63,55.69C57,61.37,55.9,66.94,54.74,72.54c-.05.27.35.31.41,0a117.34,117.34,0,0,0,2.92-16.85.22.22,0,0,0-.44-.06Z"/><path id="Path_70699" data-name="Path 70699" class="cls-1" d="M59.37,54.82a63.16,63.16,0,0,1-2.9,16.35c-.07.24.28.4.37.15a54.19,54.19,0,0,0,2.95-16.44c0-.27-.41-.33-.42-.06Z"/><path id="Path_70700" data-name="Path 70700" class="cls-1" d="M61.08,54.41c-1,6.09-2.16,12.18-2.95,18.31a.21.21,0,0,0,.19.23.21.21,0,0,0,.24-.17c1.17-6.07,2-12.22,2.95-18.32a.22.22,0,0,0-.2-.23A.22.22,0,0,0,61.08,54.41Z"/><path id="Path_70701" data-name="Path 70701" class="cls-1" d="M63,52.23c-.19,1.65-.41,3.3-.55,5a.2.2,0,0,0,.18.21.2.2,0,0,0,.2-.15c.24-1.65.4-3.31.59-5a.21.21,0,0,0-.19-.23.2.2,0,0,0-.23.18Z"/><path id="Path_70702" data-name="Path 70702" class="cls-1" d="M61.92,59.86a93.6,93.6,0,0,1-2,12.45c0,.24.34.35.42.12a51.36,51.36,0,0,0,2.06-12.51c0-.29-.43-.36-.46-.06Z"/><path id="Path_70703" data-name="Path 70703" class="cls-1" d="M64.24,53.61c-.68,7.5-1.93,14.88-3.35,22.27,0,.26.35.31.41.06a149.55,149.55,0,0,0,3.4-22.27A.23.23,0,0,0,64.24,53.61Z"/><path id="Path_70704" data-name="Path 70704" class="cls-1" d="M66.39,49.14a92.4,92.4,0,0,1-3.56,25.92c-.11.36.44.6.55.23a88.64,88.64,0,0,0,3.47-26.21c0-.31-.46-.24-.46.06Z"/><path id="Path_70705" data-name="Path 70705" class="cls-1" d="M68.84,52.62c-.83,7.83-2.29,15.51-3.61,23.27,0,.29.37.33.44.06a175.63,175.63,0,0,0,3.62-23.27.23.23,0,0,0-.2-.25A.23.23,0,0,0,68.84,52.62Z"/><path id="Path_70706" data-name="Path 70706" class="cls-1" d="M70.51,53.68c-.05,1.57-.05,3.14,0,4.71,0,.23.39.23.4,0,.08-1.55.14-3.09.16-4.64,0-.34-.52-.42-.52-.08Z"/><path id="Path_70707" data-name="Path 70707" class="cls-1" d="M69.75,60.47c-1.14,6-2.41,12.06-3.31,18.12a.24.24,0,0,0,.22.27.25.25,0,0,0,.26-.2c1.29-6,2.22-12.09,3.28-18.13C70.24,60.25,69.81,60.19,69.75,60.47Z"/><path id="Path_70708" data-name="Path 70708" class="cls-1" d="M72.34,56.09C71.16,63.84,69.51,71.41,67.65,79c-.06.26.38.39.46.13a146.34,146.34,0,0,0,4.65-23,.21.21,0,0,0-.18-.24A.23.23,0,0,0,72.34,56.09Z"/><path id="Path_70709" data-name="Path 70709" class="cls-1" d="M73.21,58.3a142.35,142.35,0,0,1-3.8,20.79c-.07.27.4.4.48.13a115.36,115.36,0,0,0,3.82-20.86C73.74,58,73.24,58,73.21,58.3Z"/><path id="Path_70710" data-name="Path 70710" class="cls-1" d="M75.13,58.43c-.81,6.27-2.2,12.36-3.61,18.52a.22.22,0,0,0,.42.12,95.68,95.68,0,0,0,3.64-18.59.22.22,0,0,0-.2-.24.23.23,0,0,0-.25.18Z"/><path id="Path_70711" data-name="Path 70711" class="cls-1" d="M76.84,59.93a130.87,130.87,0,0,1-3,14c-.06.25.35.36.44.12A73.62,73.62,0,0,0,77.37,60a.26.26,0,0,0-.23-.29.27.27,0,0,0-.3.22Z"/><path id="Path_70712" data-name="Path 70712" class="cls-1" d="M78.87,59.64c-.73,3.5-1.62,7-2.08,10.58,0,.24.37.37.44.12,1-3.48,1.52-7.09,2.21-10.63.07-.36-.49-.43-.57-.07Z"/><path id="Path_70713" data-name="Path 70713" class="cls-1" d="M80.08,60.11A18.27,18.27,0,0,1,79,66.62a.23.23,0,0,0,.42.18A14.08,14.08,0,0,0,80.61,60C80.6,59.68,80.06,59.76,80.08,60.11Z"/><path id="Path_70714" data-name="Path 70714" class="cls-1" d="M8.93,17.65C8.46,19.06,8,20.47,7.59,21.9c-.07.24.27.39.35.15.49-1.4.93-2.82,1.37-4.24.08-.26-.3-.42-.38-.16Z"/><path id="Path_70715" data-name="Path 70715" class="cls-1" d="M9.91,17.49c-.68,2.12-1.39,4.24-2,6.38-.08.25.29.41.38.16.71-2.11,1.36-4.25,2-6.37C10.39,17.39,10,17.23,9.91,17.49Z"/><path id="Path_70716" data-name="Path 70716" class="cls-1" d="M11.2,17.51c-.58,2.47-1.1,5-1.53,7.48-.06.29.38.34.45.06.58-2.48,1.08-5,1.53-7.48.06-.3-.4-.35-.45-.06Z"/><path id="Path_70717" data-name="Path 70717" class="cls-1" d="M6.81,21.65A83.6,83.6,0,0,0,2.05,48.82c0,.29.44.36.45.06A88,88,0,0,1,7.21,21.83c.09-.27-.31-.44-.4-.18Z"/><path id="Path_70718" data-name="Path 70718" class="cls-1" d="M7.33,22.81A93.62,93.62,0,0,0,4.51,48.14c0,.24.43.24.42,0A114.38,114.38,0,0,1,7.78,22.87c.07-.28-.38-.34-.45-.06Z"/><path id="Path_70719" data-name="Path 70719" class="cls-1" d="M9.37,22.06A99.54,99.54,0,0,0,6,48.27c0,.28.5.29.51,0A122,122,0,0,1,9.83,22.12c.07-.29-.39-.34-.46-.06Z"/><path id="Path_70720" data-name="Path 70720" class="cls-1" d="M11,22.59c-.42,2.36-.86,4.72-1.21,7.09,0,.27.36.32.41.06.47-2.36.87-4.72,1.3-7.08C11.55,22.34,11.06,22.28,11,22.59Z"/><path id="Path_70721" data-name="Path 70721" class="cls-1" d="M9.1,35.07a55.21,55.21,0,0,0-.78,13.46c0,.3.47.23.46-.07a69.23,69.23,0,0,1,.74-13.34c.05-.27-.38-.33-.42,0Z"/><path id="Path_70722" data-name="Path 70722" class="cls-1" d="M13.16,25.6a85.41,85.41,0,0,0-2.84,25.86c0,.32.5.25.49-.07a93.71,93.71,0,0,1,2.8-25.73c.08-.29-.38-.34-.45-.06Z"/><path id="Path_70723" data-name="Path 70723" class="cls-1" d="M15,28a8.58,8.58,0,0,0-.68,3.64c0,.22.4.22.4,0a9.35,9.35,0,0,1,.67-3.47.21.21,0,0,0-.11-.28A.21.21,0,0,0,15,28Z"/><path id="Path_70724" data-name="Path 70724" class="cls-1" d="M13,38.67a41.51,41.51,0,0,0-.69,13.88.21.21,0,0,0,.23.17.21.21,0,0,0,.16-.22,57.79,57.79,0,0,1,.71-13.78c.05-.26-.36-.32-.41-.06Z"/><path id="Path_70725" data-name="Path 70725" class="cls-1" d="M16.27,31.73a107.7,107.7,0,0,0-2.4,20.32c0,.29.43.36.45.06a161.35,161.35,0,0,1,2.4-20.32c.05-.28-.39-.33-.45-.06Z"/><path id="Path_70726" data-name="Path 70726" class="cls-1" d="M18.46,31.52c-.9,7.35-2,14.69-2.69,22.06a.21.21,0,0,0,.2.25.23.23,0,0,0,.25-.19C17.31,46.32,18,38.93,18.9,31.58a.22.22,0,0,0-.19-.25.22.22,0,0,0-.25.19Z"/><path id="Path_70727" data-name="Path 70727" class="cls-1" d="M21.92,26.54a50.3,50.3,0,0,1-1.17,7.1c-.05.24.33.29.39,0a42.53,42.53,0,0,0,1.26-7.08c0-.31-.45-.37-.48-.07Z"/><path id="Path_70728" data-name="Path 70728" class="cls-1" d="M20.06,37.16a71.51,71.51,0,0,0-2.17,16.72.21.21,0,0,0,.42,0,131.53,131.53,0,0,1,2.21-16.65c.07-.29-.39-.35-.46-.06Z"/><path id="Path_70729" data-name="Path 70729" class="cls-1" d="M23.62,30.34a136.46,136.46,0,0,0-4.09,21.19.24.24,0,0,0,.21.26A.23.23,0,0,0,20,51.6c1.23-7.11,2.34-14.18,4.07-21.2.07-.27-.37-.33-.44-.06Z"/><path id="Path_70730" data-name="Path 70730" class="cls-1" d="M25.58,29.08a139.78,139.78,0,0,0-3.9,24.55c0,.28.4.34.43.06A244.9,244.9,0,0,1,26,29.14C26.09,28.86,25.64,28.8,25.58,29.08Z"/><path id="Path_70731" data-name="Path 70731" class="cls-1" d="M27,31c-.27,1.47-.54,2.94-.76,4.42a.19.19,0,0,0,.17.22.2.2,0,0,0,.23-.17c.32-1.46.59-2.93.86-4.4.06-.32-.44-.39-.5-.07Z"/><path id="Path_70732" data-name="Path 70732" class="cls-1" d="M25.72,38.49a100.41,100.41,0,0,0-1.57,15c0,.3.47.39.48.06.36-5,.73-10,1.53-15a.21.21,0,0,0-.19-.25.23.23,0,0,0-.25.18Z"/><path id="Path_70733" data-name="Path 70733" class="cls-1" d="M29.1,32.54c-1,6.86-2.19,13.72-3,20.61a.22.22,0,0,0,.43.06c1.22-6.83,2-13.75,3-20.61a.25.25,0,0,0-.22-.27.25.25,0,0,0-.26.2Z"/><path id="Path_70734" data-name="Path 70734" class="cls-1" d="M12.8,18.47c-.46,1.89-.94,3.76-1.36,5.66,0,.25.34.3.4.05.49-1.87.91-3.77,1.36-5.65.06-.26-.34-.31-.4-.06Z"/><path id="Path_70735" data-name="Path 70735" class="cls-1" d="M14.93,15.39c-.81,3.5-1.61,7-2.24,10.55,0,.26.34.3.4,0,.88-3.48,1.6-7,2.29-10.54.06-.29-.39-.34-.45-.06Z"/><path id="Path_70736" data-name="Path 70736" class="cls-1" d="M16.5,15.44c-.83,3.17-1.67,6.34-2.41,9.52,0,.22.32.32.37.11.9-3.18,1.69-6.37,2.5-9.56.07-.3-.39-.35-.46-.07Z"/><path id="Path_70737" data-name="Path 70737" class="cls-1" d="M17.47,17.09a85.82,85.82,0,0,0-2.24,9.67.22.22,0,0,0,.21.21.23.23,0,0,0,.21-.16c.64-3.21,1.37-6.39,2.27-9.53.09-.3-.36-.5-.45-.19Z"/><path id="Path_70738" data-name="Path 70738" class="cls-1" d="M19.41,15.43C18.22,21.3,16.92,27.18,16,33.09a.23.23,0,0,0,.21.24.22.22,0,0,0,.24-.18c1.36-5.83,2.34-11.77,3.41-17.66C19.91,15.2,19.47,15.15,19.41,15.43Z"/><path id="Path_70739" data-name="Path 70739" class="cls-1" d="M21.14,16A119.31,119.31,0,0,0,18.42,33.9a.23.23,0,0,0,.21.24.24.24,0,0,0,.24-.18c.93-6,1.71-12,2.78-17.91C21.71,15.73,21.21,15.67,21.14,16Z"/><path id="Path_70740" data-name="Path 70740" class="cls-1" d="M23.77,15a62.16,62.16,0,0,0-2.14,11.47.21.21,0,0,0,.19.24.21.21,0,0,0,.24-.18c.76-3.82,1.4-7.65,2.18-11.47.07-.31-.4-.35-.47-.06Z"/><path id="Path_70741" data-name="Path 70741" class="cls-1" d="M25.13,16.78c-.66,4.79-1.4,9.58-1.95,14.39a.23.23,0,0,0,.18.24.22.22,0,0,0,.24-.19h0c.77-4.77,1.34-9.59,2-14.38a.23.23,0,0,0-.21-.25.22.22,0,0,0-.24.19Z"/><path id="Path_70742" data-name="Path 70742" class="cls-1" d="M27.83,16.72c-1,5.31-2,10.62-2.78,16,0,.27.37.32.42.05,1.12-5.28,1.93-10.64,2.83-16,.06-.3-.41-.37-.47-.06Z"/><path id="Path_70743" data-name="Path 70743" class="cls-1" d="M28.93,19.4c-.46,3.91-1,7.81-1.28,11.74a.22.22,0,0,0,.44.06c.58-3.9,1-7.82,1.4-11.73a.3.3,0,0,0-.26-.31.28.28,0,0,0-.3.24Z"/><path id="Path_70744" data-name="Path 70744" class="cls-1" d="M31.62,19.33c-.37,1.75-.79,3.5-1.1,5.26-.05.31.4.35.48.06.45-1.73.8-3.49,1.18-5.24.07-.35-.47-.42-.56-.08Z"/><path id="Path_70745" data-name="Path 70745" class="cls-1" d="M34,16.79c-.44,3.3-.85,6.6-1.15,9.91a.22.22,0,0,0,.19.25.23.23,0,0,0,.24-.19h0c.49-3.29.88-6.59,1.23-9.9A.26.26,0,1,0,34,16.8Z"/><path id="Path_70746" data-name="Path 70746" class="cls-1" d="M36.22,12.82c-.29,4.6-.59,9.21-.75,13.83,0,.26.4.32.42.05.37-4.6.58-9.21.82-13.82,0-.31-.48-.38-.49-.06Z"/><path id="Path_70747" data-name="Path 70747" class="cls-1" d="M38.33,12.08c-.26,6.28-.82,12.51-1.48,18.76a.23.23,0,0,0,.21.25.23.23,0,0,0,.24-.19,129.45,129.45,0,0,0,1.55-18.75c0-.34-.52-.42-.53-.07Z"/><path id="Path_70748" data-name="Path 70748" class="cls-1" d="M39.94,14.51a61.61,61.61,0,0,1-1,16c0,.29.38.34.45.06a49.4,49.4,0,0,0,1-16.17C40.42,14.11,39.92,14.18,39.94,14.51Z"/><path id="Path_70749" data-name="Path 70749" class="cls-1" d="M42.1,15.13a116.82,116.82,0,0,1-1,15.64.22.22,0,0,0,.2.24.23.23,0,0,0,.24-.18,69.47,69.47,0,0,0,1.07-15.7c0-.27-.48-.28-.48,0Z"/><path id="Path_70750" data-name="Path 70750" class="cls-1" d="M43.94,17.14a131.82,131.82,0,0,1-1.28,17.42.22.22,0,0,0,.44.06,80,80,0,0,0,1.32-17.54c0-.32-.48-.24-.48.06Z"/><path id="Path_70751" data-name="Path 70751" class="cls-1" d="M46,18.74c-.47,5-1,10-1.31,15,0,.28.4.34.43.06.57-5,1-10,1.41-15,0-.34-.5-.41-.53-.07Z"/><path id="Path_70752" data-name="Path 70752" class="cls-1" d="M47.6,21.12c-.53,5.13-1.13,10.27-1.51,15.41,0,.27.39.33.42.06.65-5.12,1.08-10.27,1.58-15.4a.25.25,0,0,0-.49-.07Z"/><path id="Path_70753" data-name="Path 70753" class="cls-1" d="M30.1,25.94A24.87,24.87,0,0,1,30,31a.21.21,0,0,0,.21.21.2.2,0,0,0,.21-.16,13.14,13.14,0,0,0,.24-5.15.29.29,0,0,0-.33-.25.3.3,0,0,0-.24.33Z"/><path id="Path_70754" data-name="Path 70754" class="cls-1" d="M32.12,27c-.29,5.16-.81,10.29-1.49,15.42a.22.22,0,0,0,.18.24.22.22,0,0,0,.24-.18A115.51,115.51,0,0,0,32.66,27c0-.35-.52-.43-.54-.07Z"/><path id="Path_70755" data-name="Path 70755" class="cls-1" d="M34.28,29.06c-.89,6.12-1.87,12.23-2.6,18.37a.22.22,0,0,0,.21.24.21.21,0,0,0,.24-.18c1-6.1,1.8-12.24,2.66-18.36a.26.26,0,0,0-.51-.07Z"/><path id="Path_70756" data-name="Path 70756" class="cls-1" d="M35.63,29c-.83,7.67-2.05,15.25-3.06,22.89A.22.22,0,0,0,33,52,193.54,193.54,0,0,0,36.12,29.1c0-.32-.46-.39-.49-.07Z"/><path id="Path_70757" data-name="Path 70757" class="cls-1" d="M37.42,30c-.91,7.52-1.94,15-2.61,22.59a.22.22,0,0,0,.44.06c1.09-7.5,1.82-15.06,2.68-22.59a.26.26,0,0,0-.22-.29.27.27,0,0,0-.29.23Z"/><path id="Path_70758" data-name="Path 70758" class="cls-1" d="M38.91,31c-.48,7.44-1.52,14.77-2.67,22.13,0,.28.38.33.44.06A144.32,144.32,0,0,0,39.39,31c0-.31-.45-.38-.48-.06Z"/><path id="Path_70759" data-name="Path 70759" class="cls-1" d="M40,36.47c-.57,4.66-1.2,9.32-1.69,14a.2.2,0,0,0,.18.22.2.2,0,0,0,.22-.16c.63-4.65,1.14-9.32,1.71-14a.22.22,0,0,0-.18-.24.21.21,0,0,0-.24.18Z"/><path id="Path_70760" data-name="Path 70760" class="cls-1" d="M41.4,31.35a135.31,135.31,0,0,1-1.26,16,.21.21,0,0,0,.18.23.2.2,0,0,0,.23-.18h0a100,100,0,0,0,1.38-15.94c0-.34-.53-.42-.53-.07Z"/><path id="Path_70761" data-name="Path 70761" class="cls-1" d="M43.55,33.87c-.67,4.94-1.49,9.88-1.93,14.84a.21.21,0,0,0,.18.24.23.23,0,0,0,.24-.18c.88-4.91,1.38-9.89,2-14.83a.26.26,0,0,0-.52-.07Z"/><path id="Path_70762" data-name="Path 70762" class="cls-1" d="M44.86,36.66c-.42,3.15-.93,6.3-1.18,9.46a.23.23,0,0,0,.45.06c.57-3.12.87-6.3,1.26-9.45a.27.27,0,0,0-.23-.3.26.26,0,0,0-.3.23Z"/><path id="Path_70763" data-name="Path 70763" class="cls-1" d="M45.7,40.19c-.3,1.78-.63,3.56-.87,5.35a.21.21,0,0,0,.42.05c.36-1.77.63-3.56.93-5.34.06-.31-.43-.38-.48-.07Z"/><path id="Path_70764" data-name="Path 70764" class="cls-1" d="M28.74,44.63c-.57,4.66-1.17,9.32-1.67,14a.3.3,0,0,0,.28.32.28.28,0,0,0,.31-.24c.6-4.65,1.11-9.32,1.63-14a.28.28,0,0,0-.55-.07Z"/><path id="Path_70765" data-name="Path 70765" class="cls-1" d="M30.19,49.29c-.69,6.18-1.61,12.22-2.75,18.33-.06.31.4.36.48.07a91.7,91.7,0,0,0,2.73-18.34A.23.23,0,0,0,30.19,49.29Z"/><path id="Path_70766" data-name="Path 70766" class="cls-1" d="M32,50.8C31,56.87,29.84,63,29.3,69.16a.23.23,0,0,0,.19.25.22.22,0,0,0,.24-.19h0C31,63.2,31.66,57,32.44,50.87a.24.24,0,0,0-.21-.26.23.23,0,0,0-.25.19Z"/><path id="Path_70767" data-name="Path 70767" class="cls-1" d="M33.56,52.22c-.28,2.24-.68,4.51-.76,6.78a.23.23,0,0,0,.21.24.24.24,0,0,0,.25-.18c.43-2.23.57-4.52.81-6.78a.26.26,0,0,0-.22-.28.26.26,0,0,0-.29.22Z"/><path id="Path_70768" data-name="Path 70768" class="cls-1" d="M35.27,52.77c-.3,1.48-.64,3-.82,4.46,0,.29.38.33.45.06.38-1.47.6-3,.88-4.46,0-.32-.46-.39-.51-.06Z"/><path id="Path_70769" data-name="Path 70769" class="cls-1" d="M36.61,52.67c-.17.57-.35,1.14-.52,1.71-.07.25.29.41.37.16.2-.56.39-1.13.57-1.69.09-.28-.34-.46-.42-.18Z"/><path id="Path_70770" data-name="Path 70770" class="cls-1" d="M31.14,65.51c-.22,1.17-.48,2.35-.61,3.54a.24.24,0,0,0,.21.27.24.24,0,0,0,.28-.21c.31-1.15.48-2.35.69-3.53C31.78,65.21,31.21,65.14,31.14,65.51Z"/><path id="Path_70771" data-name="Path 70771" class="cls-1" d="M7.41,62.22c.14,1.59.2,3.2.46,4.78a.22.22,0,1,0,.43-.07h0c0-1.59-.2-3.2-.33-4.79,0-.36-.58-.28-.56.08Z"/><path id="Path_70772" data-name="Path 70772" class="cls-1" d="M9,62.69c0,2.37,0,4.77.16,7.12a.21.21,0,0,0,.42,0c.1-2.36,0-4.76-.1-7.11,0-.27-.47-.27-.48,0Z"/><path id="Path_70773" data-name="Path 70773" class="cls-1" d="M11,63.78a27.14,27.14,0,0,0-.08,8.39.2.2,0,0,0,.39,0,38.21,38.21,0,0,1,.16-8.28.24.24,0,0,0-.47-.06Z"/><path id="Path_70774" data-name="Path 70774" class="cls-1" d="M12.27,65.59a23.86,23.86,0,0,0-.33,8.83.22.22,0,0,0,.25.19.23.23,0,0,0,.19-.25,37.85,37.85,0,0,1,.4-8.7C12.84,65.34,12.34,65.27,12.27,65.59Z"/><path id="Path_70775" data-name="Path 70775" class="cls-1" d="M13.25,70a9.66,9.66,0,0,0,0,6.26.23.23,0,0,0,.3.12.23.23,0,0,0,.13-.24,12.19,12.19,0,0,1,.07-5.94C13.82,69.93,13.34,69.71,13.25,70Z"/><path id="Path_70776" data-name="Path 70776" class="cls-1" d="M14.58,71.49a21.06,21.06,0,0,0,.11,6.14.23.23,0,0,0,.26.18.22.22,0,0,0,.19-.24c0-2-.16-4,0-6,0-.35-.5-.43-.54-.08Z"/><path id="Path_70777" data-name="Path 70777" class="cls-1" d="M16.74,72.55a11,11,0,0,0-.37,5.21.24.24,0,0,0,.27.19.23.23,0,0,0,.19-.25,16.49,16.49,0,0,1,.45-5c.09-.31-.46-.46-.54-.15Z"/><path id="Path_70778" data-name="Path 70778" class="cls-1" d="M18.44,73.16a12.51,12.51,0,0,0,.49,6.91c.09.22.46.13.4-.11A16.38,16.38,0,0,1,19,73.24c.06-.35-.47-.42-.54-.08Z"/><path id="Path_70779" data-name="Path 70779" class="cls-1" d="M20.6,74.72a10.89,10.89,0,0,0,0,6.68.23.23,0,0,0,.32.12.24.24,0,0,0,.14-.24,13.9,13.9,0,0,1,.08-6.35c.09-.33-.41-.55-.5-.21Z"/><path id="Path_70780" data-name="Path 70780" class="cls-1" d="M22.72,75.47a13.33,13.33,0,0,0-.16,6.58A.22.22,0,0,0,23,82a18.7,18.7,0,0,1,.21-6.46c.07-.31-.41-.36-.49-.06Z"/><path id="Path_70781" data-name="Path 70781" class="cls-1" d="M24.28,76.52c.06,1.74.14,3.48.3,5.21,0,.3.46.22.45-.06,0-1.74-.13-3.48-.23-5.22,0-.34-.54-.26-.53.08Z"/><path id="Path_70782" data-name="Path 70782" class="cls-1" d="M26.43,77.19c0,1.74,0,3.49.14,5.22a.21.21,0,0,0,.41,0c.05-1.76,0-3.52-.06-5.28C26.91,76.82,26.43,76.88,26.43,77.19Z"/><path id="Path_70783" data-name="Path 70783" class="cls-1" d="M27.65,75.66A4.47,4.47,0,0,0,27.4,77c0,.29.42.44.51.14a5.79,5.79,0,0,0,.31-1.37c0-.37-.48-.41-.57-.07Z"/><path id="Path_70784" data-name="Path 70784" class="cls-1" d="M27.68,79.37c-.1,1.23-.22,2.45-.24,3.68,0,.25.36.32.39,0,.17-1.21.23-2.44.32-3.66,0-.3-.44-.37-.47-.07Z"/><path id="Path_70785" data-name="Path 70785" class="cls-1" d="M28.83,74.55c0,3,0,6.08.24,9.1,0,.27.47.27.48,0,.05-3,0-6.08-.19-9.1C29.34,74.26,28.84,74.25,28.83,74.55Z"/><path id="Path_70786" data-name="Path 70786" class="cls-1" d="M31.05,69.17c-.34,4.63-.67,9.39-.56,14,0,.29.48.28.51,0,.47-4.6.51-9.34.53-14C31.53,68.94,31.07,68.85,31.05,69.17Z"/><path id="Path_70787" data-name="Path 70787" class="cls-1" d="M32.71,69.35c0,4.76-.51,9.46-.69,14.21a.22.22,0,0,0,.19.25.23.23,0,0,0,.25-.2,64.78,64.78,0,0,0,.74-14.33c0-.31-.49-.24-.49.07Z"/><path id="Path_70788" data-name="Path 70788" class="cls-1" d="M34.36,70.26a93,93,0,0,0-.52,10.15c0,.34.52.44.55.07a91.8,91.8,0,0,0,.39-10.22c0-.25-.4-.24-.42,0Z"/><path id="Path_70789" data-name="Path 70789" class="cls-1" d="M35.06,76.66A21.15,21.15,0,0,0,35.4,80c.05.26.49.3.49,0a22.23,22.23,0,0,0-.31-3.45.26.26,0,0,0-.29-.22.26.26,0,0,0-.23.3Z"/><path id="Path_70790" data-name="Path 70790" class="cls-1" d="M36.9,76.7c-.08,1.11-.2,2.2-.17,3.31,0,.26.41.24.45,0a32.14,32.14,0,0,0,.26-3.24c0-.35-.51-.43-.54-.07Z"/><path id="Path_70791" data-name="Path 70791" class="cls-1" d="M37.72,78.38c-.08.75-.17,1.5-.21,2.26a.24.24,0,0,0,.21.28.25.25,0,0,0,.28-.21c.12-.75.2-1.5.27-2.26a.27.27,0,0,0-.25-.3.27.27,0,0,0-.3.23Z"/><path id="Path_70792" data-name="Path 70792" class="cls-1" d="M30.54,3.57a16.88,16.88,0,0,0-.19,2.75c0,.26.4.24.43,0A15.88,15.88,0,0,0,31,3.56c0-.25-.4-.23-.44,0Z"/><path id="Path_70793" data-name="Path 70793" class="cls-1" d="M32.06,4c-.05,1.08-.12,2.16-.13,3.24,0,.26.39.33.41.06.1-1.08.13-2.16.19-3.24,0-.3-.46-.37-.47-.07Z"/><path id="Path_70794" data-name="Path 70794" class="cls-1" d="M33.72,4.09c-.17,2.46-.31,4.95-.28,7.41,0,.23.38.23.4,0,.23-2.43.3-4.9.31-7.35,0-.27-.41-.34-.43-.06Z"/><path id="Path_70795" data-name="Path 70795" class="cls-1" d="M35.18,5.92c-.26,2.26-.55,4.52-.73,6.79a.23.23,0,0,0,.21.22.21.21,0,0,0,.21-.17c.33-2.25.53-4.51.77-6.77a.23.23,0,0,0-.46-.07Z"/><path id="Path_70796" data-name="Path 70796" class="cls-1" d="M36.53,7.31c0,1.57-.08,3.14-.05,4.71,0,.24.41.24.42,0,.08-1.55.08-3.1.1-4.65,0-.3-.46-.37-.47-.06Z"/><path id="Path_70797" data-name="Path 70797" class="cls-1" d="M38,8.7c-.15,1.36-.31,2.72-.41,4.09a.22.22,0,0,0,.2.24.23.23,0,0,0,.24-.18c.19-1.36.31-2.73.45-4.09,0-.31-.46-.38-.48-.06Z"/><path id="Path_70798" data-name="Path 70798" class="cls-1" d="M39.4,10.09l-.24,2.26a.22.22,0,0,0,.18.24.22.22,0,0,0,.24-.18l.27-2.26a.23.23,0,0,0-.21-.25.22.22,0,0,0-.24.19Z"/><path id="Path_70799" data-name="Path 70799" class="cls-1" d="M78.23,26.7a10,10,0,0,1,.92,2.66.22.22,0,0,0,.26.17.21.21,0,0,0,.17-.23,5.08,5.08,0,0,0-.94-2.84.24.24,0,0,0-.41.24Z"/><path id="Path_70800" data-name="Path 70800" class="cls-1" d="M80.21,26.36c.41,2,.78,4.06,1.26,6.07.07.25.45.21.4,0-.34-2-.8-4.06-1.21-6.08-.06-.28-.51-.23-.45.06Z"/><path id="Path_70801" data-name="Path 70801" class="cls-1" d="M82.57,29.15c.1.59.2,1.19.29,1.79,0,.23.33.34.4.11A2.36,2.36,0,0,0,83,28.86C82.79,28.61,82.42,28.89,82.57,29.15Z"/><path id="Path_70802" data-name="Path 70802" class="cls-1" d="M83.62,34.52A44.42,44.42,0,0,1,83.14,47c0,.29.39.35.45.06a36.67,36.67,0,0,0,.48-12.58.23.23,0,0,0-.27-.17.22.22,0,0,0-.18.24Z"/><path id="Path_70803" data-name="Path 70803" class="cls-1" d="M80.93,37a9.1,9.1,0,0,1,.28,5.09.22.22,0,0,0,.19.25.23.23,0,0,0,.24-.13,7.65,7.65,0,0,0-.24-5.41C81.28,36.52,80.82,36.72,80.93,37Z"/><path id="Path_70804" data-name="Path 70804" class="cls-1" d="M80.43,50.3a23.09,23.09,0,0,1-1.15,6.59.22.22,0,0,0,.4.17A16.81,16.81,0,0,0,80.9,50.3c0-.26-.47-.27-.47,0Z"/><path id="Path_70805" data-name="Path 70805" class="cls-1" d="M83.28,48.85a48.26,48.26,0,0,1-1.78,9.68c-.08.29.35.49.45.19a37.69,37.69,0,0,0,1.77-9.81c0-.29-.42-.35-.44-.06Z"/><path id="Path_70806" data-name="Path 70806" class="cls-1" d="M71.51,45.61c-.16,1-.33,2.07-.44,3.12a.23.23,0,0,0,.45.06c.2-1,.35-2.07.5-3.11a.26.26,0,0,0-.23-.28A.25.25,0,0,0,71.51,45.61Z"/><path id="Path_70807" data-name="Path 70807" class="cls-1" d="M48.44,85.68c1.64-.25,3.29-.48,4.92-.77a.21.21,0,0,0,.17-.23.2.2,0,0,0-.22-.16c-1.64.22-3.28.49-4.92.76a.2.2,0,0,0-.18.22.22.22,0,0,0,.23.18Z"/><path id="Path_70808" data-name="Path 70808" class="cls-1" d="M58.46,83.65a6.33,6.33,0,0,0,3.19-2.31.19.19,0,0,0,0-.27.19.19,0,0,0-.26,0,6,6,0,0,1-3,2.19c-.23.08-.09.42.14.35Z"/><path id="Path_70809" data-name="Path 70809" class="cls-1" d="M51.09,83.26a25.11,25.11,0,0,0,12.75-4.43c.19-.14,0-.49-.21-.37A30.64,30.64,0,0,1,51,82.82c-.29,0-.22.46.06.44Z"/><path id="Path_70810" data-name="Path 70810" class="cls-1" d="M55.92,80.11c1.34-.37,2.71-.7,4-1.17a.22.22,0,0,0-.11-.43c-1.39.28-2.76.71-4.13,1.09C55.36,79.7,55.57,80.2,55.92,80.11Z"/><path id="Path_70811" data-name="Path 70811" class="cls-1" d="M42,85.58c1.65-.24,3.29-.48,4.92-.77a.24.24,0,0,0,.19-.26.23.23,0,0,0-.24-.18c-1.65.21-3.3.48-4.93.73a.25.25,0,0,0-.21.28.25.25,0,0,0,.27.21Z"/><path id="Path_70812" data-name="Path 70812" class="cls-1" d="M55.68,79.08l2-.31c.25,0,.2-.43,0-.39l-2,.31a.2.2,0,0,0,.06.39Z"/><path id="Path_70813" data-name="Path 70813" class="cls-1" d="M46.61,3.11A29.13,29.13,0,0,1,59.52,4.83c.32.11.54-.37.21-.5A26.87,26.87,0,0,0,46.54,2.69a.21.21,0,0,0-.18.24.22.22,0,0,0,.24.18h0Z"/><path id="Path_70814" data-name="Path 70814" class="cls-1" d="M50.37,4.4A30.59,30.59,0,0,1,62.69,8c.25.13.5-.27.25-.42A25.16,25.16,0,0,0,50.44,3.9c-.31,0-.38.48-.07.5Z"/><path id="Path_70815" data-name="Path 70815" class="cls-1" d="M39.21,2.76c1.65.19,3.3.39,5,.55a.2.2,0,0,0,.22-.19.21.21,0,0,0-.17-.22c-1.64-.21-3.3-.39-4.95-.58a.24.24,0,0,0-.25.2A.22.22,0,0,0,39.21,2.76Z"/><path id="Path_70816" data-name="Path 70816" class="cls-1" d="M44.46,5.39c1.08.06,2.16.14,3.25.17.25,0,.31-.38,0-.4-1.08-.1-2.15-.14-3.24-.2-.27,0-.33.41-.06.43Z"/><path id="Path_70817" data-name="Path 70817" class="cls-1" d="M57.61,8.19a15.15,15.15,0,0,1,6,2.72.2.2,0,0,0,.3-.05.21.21,0,0,0,0-.29,11.61,11.61,0,0,0-6.24-2.88A.25.25,0,0,0,57.61,8.19Z"/><path id="Path_70818" data-name="Path 70818" class="cls-1" d="M4.79,52A14.37,14.37,0,0,0,8.08,62a.22.22,0,0,0,.3,0,.21.21,0,0,0,0-.29,17.15,17.15,0,0,1-3.17-9.62c0-.28-.45-.35-.46-.06Z"/><path id="Path_70819" data-name="Path 70819" class="cls-1" d="M7,56.08c.49,1.4.93,2.82,1.49,4.2.11.28.5.1.42-.17-.42-1.43-1-2.82-1.45-4.22-.11-.31-.56-.12-.46.19Z"/><path id="Path_70820" data-name="Path 70820" class="cls-1" d="M18.58,11.13a27.59,27.59,0,0,1,9.17-4.84.22.22,0,0,0,.1-.3.21.21,0,0,0-.21-.12,20.3,20.3,0,0,0-9.32,4.92c-.21.18.05.52.26.34Z"/><path id="Path_70821" data-name="Path 70821" class="cls-1" d="M24,10a12.07,12.07,0,0,1,3.46-2.09c.25-.11.15-.56-.13-.49a8.62,8.62,0,0,0-3.71,2.09c-.29.27.08.76.38.49Z"/><path id="Path_70822" data-name="Path 70822" class="cls-1" d="M77.83,33.21a29.31,29.31,0,0,1,.46,3.35c0,.23.41.24.41,0a14,14,0,0,0-.42-3.41c-.06-.27-.5-.22-.45.06Z"/><path id="Path_70823" data-name="Path 70823" class="cls-1" d="M79.9,34.29c0,.33.11.66.17,1a.2.2,0,0,0,.39-.05c0-.33-.1-.66-.15-1s-.46-.21-.41.06Z"/><path id="Path_70824" data-name="Path 70824" class="cls-1" d="M74.31,58.15a9.28,9.28,0,0,1-1.78,4.91.22.22,0,0,0,0,.3.21.21,0,0,0,.3,0,8.3,8.3,0,0,0,1.83-5.12c0-.24-.37-.3-.38-.05Z"/><path id="Path_70825" data-name="Path 70825" class="cls-1" d="M76.16,59.67C75,61.78,73.81,63.89,72.67,66c-.12.23.24.37.37.16,1.23-2.09,2.4-4.21,3.58-6.33.15-.27-.3-.46-.46-.19Z"/><path id="Path_70826" data-name="Path 70826" class="cls-1" d="M77.66,60.59a27.35,27.35,0,0,1-5.25,9c-.18.21.15.46.33.26a24,24,0,0,0,5.36-9.09c.1-.3-.34-.49-.44-.19Z"/><path id="Path_70827" data-name="Path 70827" class="cls-1" d="M80.14,60a30.91,30.91,0,0,1-5.27,9.53c-.18.22.15.46.34.26a24.75,24.75,0,0,0,5.4-9.59c.09-.31-.36-.51-.47-.2Z"/><path id="Path_70828" data-name="Path 70828" class="cls-1" d="M81,61.67a25,25,0,0,1-3.27,5.92.22.22,0,0,0,.35.27,19.23,19.23,0,0,0,3.36-6,.24.24,0,0,0-.44-.18Z"/><path id="Path_70829" data-name="Path 70829" class="cls-1" d="M70.73,54.24a14.21,14.21,0,0,1-1.79,4.47c-.12.22.17.47.32.25a12.82,12.82,0,0,0,1.91-4.67c.07-.28-.39-.34-.44,0Z"/><path id="Path_70830" data-name="Path 70830" class="cls-1" d="M71.66,55.87c-1.31,2.54-2.71,5.05-3.92,7.63-.12.24.24.38.37.16,1.41-2.48,2.65-5.08,4-7.61C72.2,55.79,71.79,55.63,71.66,55.87Z"/><path id="Path_70831" data-name="Path 70831" class="cls-1" d="M72.87,57.65a78.33,78.33,0,0,1-5,9.16c-.14.23.17.5.35.27a44.85,44.85,0,0,0,5.14-9.23A.25.25,0,0,0,72.87,57.65Z"/><path id="Path_70832" data-name="Path 70832" class="cls-1" d="M71.93,63.86c-2.19,2.88-4.47,5.71-6.54,8.67a.21.21,0,0,0,.34.26C68,70,70.1,67,72.26,64.11c.16-.21-.17-.47-.33-.25Z"/><path id="Path_70833" data-name="Path 70833" class="cls-1" d="M73,65.13c-2.21,3.58-4.65,7-7,10.45a.24.24,0,0,0,.06.34.25.25,0,0,0,.33,0,85,85,0,0,0,7-10.5c.14-.24-.28-.48-.43-.25Z"/><path id="Path_70834" data-name="Path 70834" class="cls-1" d="M75.45,66.43c-2.89,3.58-5.84,7.15-8.63,10.82a.25.25,0,0,0,.07.34.26.26,0,0,0,.33,0C70.16,74,73,70.34,75.81,66.71a.24.24,0,0,0,0-.32.23.23,0,0,0-.31,0Z"/><path id="Path_70835" data-name="Path 70835" class="cls-1" d="M75.28,71c-1.8,2.06-3.63,4.09-5.38,6.19-.17.21.16.45.33.26,1.84-2,3.6-4.11,5.4-6.18.18-.21-.16-.48-.35-.27Z"/><path id="Path_70836" data-name="Path 70836" class="cls-1" d="M67,53c-.7,1.48-1.38,3-2,4.51a.22.22,0,0,0,.12.28.21.21,0,0,0,.27-.11c.74-1.47,1.39-3,2-4.49a.24.24,0,0,0-.14-.31A.23.23,0,0,0,67,53Z"/><path id="Path_70837" data-name="Path 70837" class="cls-1" d="M69,54c-2,3.25-4.07,6.47-6,9.75-.12.22.17.46.31.25,2.07-3.22,4-6.49,6-9.75.14-.22-.19-.47-.33-.25Z"/><path id="Path_70838" data-name="Path 70838" class="cls-1" d="M67.62,59.73a49.35,49.35,0,0,1-6.33,9.64.2.2,0,0,0,.31.24A39.63,39.63,0,0,0,68,59.89c.11-.24-.27-.4-.38-.16Z"/><path id="Path_70839" data-name="Path 70839" class="cls-1" d="M65.53,66.08a67,67,0,0,1-5.66,8,.24.24,0,0,0,.37.3A46.58,46.58,0,0,0,66,66.26c.15-.25-.27-.43-.43-.18Z"/><path id="Path_70840" data-name="Path 70840" class="cls-1" d="M65.55,69.85c-1.29,1.74-2.59,3.47-3.78,5.28-.17.26.2.57.39.31,1.33-1.71,2.52-3.53,3.74-5.31C66.07,69.89,65.72,69.61,65.55,69.85Z"/><path id="Path_70841" data-name="Path 70841" class="cls-1" d="M65.72,73.13a16.91,16.91,0,0,0-2.88,4.26.22.22,0,0,0,.41.18,23.11,23.11,0,0,1,2.83-4.16c.19-.23-.17-.5-.36-.28Z"/><path id="Path_70842" data-name="Path 70842" class="cls-1" d="M67.13,74.5c-.94,1.43-1.91,2.85-2.78,4.32-.12.21.23.41.36.22,1-1.37,1.88-2.83,2.8-4.25.16-.26-.21-.55-.38-.29Z"/><path id="Path_70843" data-name="Path 70843" class="cls-1" d="M61.37,66.11C59,68.6,56.49,71,54.24,73.65c-.15.19.12.49.32.31,2.5-2.39,4.83-5,7.19-7.55.22-.23-.16-.52-.38-.3Z"/><path id="Path_70844" data-name="Path 70844" class="cls-1" d="M61.13,64.13A69.39,69.39,0,0,0,53,71.36c-.17.19.14.51.33.33,2.62-2.5,5.2-5,8-7.21.22-.18,0-.53-.26-.35Z"/><path id="Path_70845" data-name="Path 70845" class="cls-1" d="M57,63.77a51.21,51.21,0,0,1-5.9,5.6.22.22,0,0,0,0,.32.22.22,0,0,0,.3,0,28.52,28.52,0,0,0,6-5.67c.19-.24-.18-.52-.37-.29Z"/><path id="Path_70846" data-name="Path 70846" class="cls-1" d="M59.41,63.39c1.33-1.12,2.58-2.33,3.82-3.54.18-.17,0-.49-.24-.32-1.32,1.12-2.64,2.25-3.88,3.46-.22.23,0,.62.3.4Z"/><path id="Path_70847" data-name="Path 70847" class="cls-1" d="M53.69,64.76c2.14-1.68,4.19-3.52,6.16-5.38.19-.18,0-.5-.24-.33-2.13,1.69-4.24,3.46-6.22,5.33C53.18,64.59,53.44,65,53.69,64.76Z"/><path id="Path_70848" data-name="Path 70848" class="cls-1" d="M56.09,60.42c.87-.63,1.73-1.26,2.58-1.92a.21.21,0,0,0,0-.3.2.2,0,0,0-.3,0c-.89.6-1.73,1.25-2.6,1.89a.23.23,0,0,0,.28.37Z"/><path id="Path_70849" data-name="Path 70849" class="cls-1" d="M64.34,56.41c1.28-1.45,2.59-2.87,3.82-4.36a.21.21,0,0,0-.33-.25c-1.32,1.4-2.55,2.9-3.81,4.36-.17.2.15.45.32.25Z"/><path id="Path_70850" data-name="Path 70850" class="cls-1" d="M63.65,54.42c1-.92,2-1.84,2.92-2.79.16-.17-.12-.45-.29-.29-1,.89-2,1.8-2.91,2.72-.2.2.06.57.28.36Z"/><path id="Path_70851" data-name="Path 70851" class="cls-1" d="M63.62,51.53l1.5-1.88c.16-.2-.16-.44-.32-.24l-1.53,1.85a.22.22,0,0,0,.35.27Z"/><path id="Path_70852" data-name="Path 70852" class="cls-1" d="M62.88,50a47.88,47.88,0,0,0,5.69-6.7c.14-.21-.16-.45-.32-.25-1.83,2.3-3.7,4.55-5.75,6.66-.22.22.17.51.38.29Z"/><path id="Path_70853" data-name="Path 70853" class="cls-1" d="M62.29,47c.67-.57,1.34-1.14,2-1.77.18-.19-.12-.49-.33-.33-.68.53-1.32,1.12-2,1.71-.23.21.05.6.31.39Z"/><path id="Path_70854" data-name="Path 70854" class="cls-1" d="M66.22,43.41a9.59,9.59,0,0,1,1.92-3.06c.16-.18-.12-.46-.29-.3a8.05,8.05,0,0,0-2,3.19C65.7,43.51,66.12,43.69,66.22,43.41Z"/><path id="Path_70855" data-name="Path 70855" class="cls-1" d="M64,41.86c1.71-2,3.46-3.89,5.08-5.91a.21.21,0,0,0-.33-.26C67,37.58,65.3,39.6,63.62,41.57,63.43,41.8,63.79,42.07,64,41.86Z"/><path id="Path_70856" data-name="Path 70856" class="cls-1" d="M63.11,39.69a60.06,60.06,0,0,0,9-10.23c.19-.27-.19-.57-.38-.31a72.46,72.46,0,0,1-8.91,10.17c-.22.2.06.57.28.37Z"/><path id="Path_70857" data-name="Path 70857" class="cls-1" d="M71.17,33.83c.69-.73,1.37-1.45,2-2.21.19-.21-.15-.46-.35-.26-.71.7-1.37,1.44-2,2.17C70.59,33.76,71,34.05,71.17,33.83Z"/><path id="Path_70858" data-name="Path 70858" class="cls-1" d="M65.64,34A63.5,63.5,0,0,0,77,17.8c.13-.26-.26-.41-.39-.17a73.84,73.84,0,0,1-11.32,16.1C65.09,33.94,65.44,34.21,65.64,34Z"/><path id="Path_70859" data-name="Path 70859" class="cls-1" d="M65.34,30.19A35.81,35.81,0,0,0,75.7,16a.25.25,0,0,0-.15-.32.25.25,0,0,0-.31.13,41.47,41.47,0,0,1-10.18,14c-.21.2.06.55.28.36Z"/><path id="Path_70860" data-name="Path 70860" class="cls-1" d="M65.91,27c2.8-3.95,5.64-7.88,8.38-11.87.18-.25-.2-.55-.38-.3-2.84,3.93-5.57,7.93-8.34,11.9-.15.23.18.49.34.26Z"/><path id="Path_70861" data-name="Path 70861" class="cls-1" d="M66.72,22.54a31.06,31.06,0,0,0,6.67-10.07.2.2,0,0,0-.11-.26.19.19,0,0,0-.26.1h0a32.32,32.32,0,0,1-6.59,10c-.16.18.13.4.29.23Z"/><path id="Path_70862" data-name="Path 70862" class="cls-1" d="M65.32,21.17a45.65,45.65,0,0,0,6.78-9.1c.14-.25-.27-.41-.41-.17a49.65,49.65,0,0,1-6.71,9c-.18.2.15.46.34.26Z"/><path id="Path_70863" data-name="Path 70863" class="cls-1" d="M67.75,15a6.82,6.82,0,0,0,2.15-3.69c0-.23-.35-.34-.41-.11a7,7,0,0,1-2,3.45c-.21.19.06.55.27.35Z"/><path id="Path_70864" data-name="Path 70864" class="cls-1" d="M67.08,12.86a7.57,7.57,0,0,0,2-3.18c.08-.27-.29-.44-.4-.18a9.41,9.41,0,0,1-2,3.05c-.23.23.17.53.39.31Z"/><path id="Path_70865" data-name="Path 70865" class="cls-1" d="M75.09,22.89c.85-1.12,1.71-2.24,2.52-3.4a.2.2,0,0,0,0-.27.19.19,0,0,0-.27,0c-.87,1.1-1.71,2.24-2.55,3.37-.17.23.18.5.34.27Z"/><path id="Path_70866" data-name="Path 70866" class="cls-1" d="M77.07,22.59c.74-.86,1.48-1.72,2.19-2.6.17-.21-.15-.46-.33-.26-.77.83-1.49,1.71-2.22,2.57-.19.23.17.51.36.29Z"/><path id="Path_70867" data-name="Path 70867" class="cls-1" d="M78.18,23.39c.76-.84,1.51-1.69,2.24-2.55.17-.21-.15-.45-.33-.26-.78.83-1.52,1.68-2.28,2.52-.2.23.18.52.37.29Z"/><path id="Path_70868" data-name="Path 70868" class="cls-1" d="M57.5,42.57c1.85-1.71,3.7-3.44,5.5-5.21.18-.17,0-.48-.23-.3-1.87,1.69-3.72,3.42-5.54,5.17C57,42.42,57.28,42.77,57.5,42.57Z"/><path id="Path_70869" data-name="Path 70869" class="cls-1" d="M56.38,40.38a36.39,36.39,0,0,0,8-7.32c.17-.2-.14-.43-.31-.24a40.36,40.36,0,0,1-8,7.19C55.85,40.18,56.13,40.54,56.38,40.38Z"/><path id="Path_70870" data-name="Path 70870" class="cls-1" d="M55,37.66c.78-.55,1.56-1.09,2.3-1.69.24-.18,0-.51-.28-.36-.8.51-1.57,1.07-2.34,1.63-.27.2,0,.61.32.42Z"/><path id="Path_70871" data-name="Path 70871" class="cls-1" d="M59.35,33.74c1.7-1.78,3.42-3.55,5.08-5.35.18-.19-.13-.42-.3-.24C62.4,29.9,60.7,31.68,59,33.47c-.2.2.14.47.34.27Z"/><path id="Path_70872" data-name="Path 70872" class="cls-1" d="M56.06,32.86c2.34-1.9,4.74-3.73,7-5.71a.22.22,0,0,0,0-.3.23.23,0,0,0-.3-.05c-2.4,1.81-4.7,3.77-7,5.67-.23.2.06.58.3.39Z"/><path id="Path_70873" data-name="Path 70873" class="cls-1" d="M53.82,30.64c2.2-1.47,4.42-2.91,6.59-4.43.21-.15,0-.45-.24-.32-2.22,1.44-4.4,2.95-6.6,4.43-.21.14,0,.47.25.32Z"/><path id="Path_70874" data-name="Path 70874" class="cls-1" d="M51.68,30a40.7,40.7,0,0,0,6.59-4.52.2.2,0,0,0,0-.28.2.2,0,0,0-.28,0h0a59.73,59.73,0,0,1-6.52,4.42c-.25.15-.09.56.17.42Z"/><path id="Path_70875" data-name="Path 70875" class="cls-1" d="M48.73,30.51A2.33,2.33,0,0,0,50.22,29c.08-.25-.28-.4-.38-.16l-1.28,1.31a.21.21,0,0,0-.11.28.21.21,0,0,0,.28.12Z"/><path id="Path_70876" data-name="Path 70876" class="cls-1" d="M52.57,27.41c1.17-1.17,2.36-2.33,3.5-3.54.17-.16-.11-.45-.27-.29-1.22,1.16-2.39,2.38-3.57,3.57-.2.19.14.45.34.26Z"/><path id="Path_70877" data-name="Path 70877" class="cls-1" d="M52,25.52c.24.08.4-.31.15-.38S51.77,25.44,52,25.52Z"/><path id="Path_70878" data-name="Path 70878" class="cls-1" d="M50.27,40.34a17.49,17.49,0,0,0,4.64-3.7c.16-.19-.14-.49-.32-.32A27,27,0,0,1,50.05,40c-.21.13,0,.49.22.37Z"/><path id="Path_70879" data-name="Path 70879" class="cls-1" d="M49.83,43.49a31.47,31.47,0,0,0,5.89-4.31c.2-.19,0-.53-.26-.35a47.89,47.89,0,0,1-5.92,4.28c-.26.16,0,.53.29.38Z"/><path id="Path_70880" data-name="Path 70880" class="cls-1" d="M49.31,46.17a8.05,8.05,0,0,0,1-.18.24.24,0,0,0,.2-.27.25.25,0,0,0-.26-.2,8.13,8.13,0,0,0-1,.14A.26.26,0,0,0,49,46a.27.27,0,0,0,.28.21Z"/><path id="Path_70881" data-name="Path 70881" class="cls-1" d="M50.43,46c2.37-1.58,4.82-3.08,7.08-4.82.24-.18,0-.51-.27-.36-2.44,1.48-4.72,3.23-7.05,4.87-.21.14,0,.45.24.31Z"/><path id="Path_70882" data-name="Path 70882" class="cls-1" d="M51.56,48.22A56.19,56.19,0,0,0,60,42c.2-.18,0-.51-.25-.33a88.71,88.71,0,0,1-8.49,6.21c-.25.16,0,.51.27.36Z"/><path id="Path_70883" data-name="Path 70883" class="cls-1" d="M54.68,48.76a21.32,21.32,0,0,0,1.8-1.32c.24-.19,0-.52-.29-.37-.64.38-1.23.81-1.84,1.25a.28.28,0,0,0,.33.44Z"/><path id="Path_70884" data-name="Path 70884" class="cls-1" d="M59.32,46l1.38-1.43c.18-.19-.13-.43-.31-.25-.47.48-.93,1-1.4,1.43-.18.19.15.44.32.25Z"/><path id="Path_70885" data-name="Path 70885" class="cls-1" d="M57,50.52c1.36-1,2.74-2,4-3.07a.2.2,0,0,0,0-.3.22.22,0,0,0-.3,0c-1.39,1-2.72,2-4.07,3a.24.24,0,0,0,0,.33.22.22,0,0,0,.31,0Z"/><path id="Path_70886" data-name="Path 70886" class="cls-1" d="M57.85,53.51c1.45-1.1,2.9-2.18,4.32-3.32a.21.21,0,1,0-.27-.33h0c-1.47,1-2.91,2.16-4.35,3.26a.24.24,0,0,0,0,.34.26.26,0,0,0,.34,0Z"/><path id="Path_70887" data-name="Path 70887" class="cls-1" d="M58.2,56.84l1.39-1.44c.18-.19-.15-.44-.33-.25l-1.4,1.42c-.2.2.15.47.34.27Z"/><path id="Path_70888" data-name="Path 70888" class="cls-1" d="M8.13,21.27a10.7,10.7,0,0,1,2.93-1.81.2.2,0,0,0,.09-.27.21.21,0,0,0-.25-.1,8.4,8.4,0,0,0-3.06,1.8c-.22.2.06.58.29.38Z"/><path id="Path_70889" data-name="Path 70889" class="cls-1" d="M6.69,23.23a33.09,33.09,0,0,1,5.86-3c.26-.1.09-.47-.16-.39a24.42,24.42,0,0,0-6,3C6.12,23,6.42,23.4,6.69,23.23Z"/><path id="Path_70890" data-name="Path 70890" class="cls-1" d="M5.14,26.43c2.62-1.58,5.23-3.22,7.73-5,.22-.16,0-.47-.25-.33-2.63,1.56-5.2,3.25-7.73,5-.21.15,0,.45.25.32Z"/><path id="Path_70891" data-name="Path 70891" class="cls-1" d="M3.62,29.69a24.19,24.19,0,0,1,7.08-4.75.22.22,0,0,0,.1-.29.22.22,0,0,0-.27-.11,19.08,19.08,0,0,0-7.31,4.75C3,29.51,3.39,29.92,3.62,29.69Z"/><path id="Path_70892" data-name="Path 70892" class="cls-1" d="M3.43,32c.6-.44,1.21-.87,1.78-1.33a.23.23,0,0,0-.28-.37c-.63.4-1.22.83-1.84,1.26-.29.21.05.65.34.44Z"/><path id="Path_70893" data-name="Path 70893" class="cls-1" d="M9.26,28.22c1.54-.91,3.07-1.85,4.6-2.77.22-.12,0-.43-.23-.3L9,27.87c-.24.15,0,.5.27.35Z"/><path id="Path_70894" data-name="Path 70894" class="cls-1" d="M2.94,34.56c3.13-2,6.33-3.83,9.38-5.9.19-.14,0-.49-.21-.37-3.21,1.85-6.3,3.93-9.44,5.9-.25.16,0,.52.27.37Z"/><path id="Path_70895" data-name="Path 70895" class="cls-1" d="M2.42,38.26a29.68,29.68,0,0,1,7-4.75.23.23,0,0,0,.1-.3.23.23,0,0,0-.28-.11,24,24,0,0,0-7.16,4.76C1.88,38.08,2.18,38.48,2.42,38.26Z"/><path id="Path_70896" data-name="Path 70896" class="cls-1" d="M2.56,40.64c.61-.44,1.2-.88,1.78-1.35a.23.23,0,0,0-.28-.37h0c-.63.42-1.22.85-1.82,1.3-.28.2,0,.63.32.42Z"/><path id="Path_70897" data-name="Path 70897" class="cls-1" d="M6.62,38.19c1.4-.95,2.81-1.89,4.18-2.88.23-.16,0-.48-.25-.34-1.42.93-2.8,1.91-4.21,2.86-.23.17,0,.52.28.36Z"/><path id="Path_70898" data-name="Path 70898" class="cls-1" d="M2.61,43.48c2.26-1.61,4.53-3.18,6.74-4.84.22-.15,0-.47-.25-.32-2.27,1.57-4.5,3.21-6.75,4.83-.22.15,0,.49.27.33Z"/><path id="Path_70899" data-name="Path 70899" class="cls-1" d="M2.74,46.25c.27-.38.54-.76.8-1.16a.22.22,0,0,0-.35-.27c-.3.36-.58.74-.86,1.12s.22.58.41.31Z"/><path id="Path_70900" data-name="Path 70900" class="cls-1" d="M6.78,43.33a16.43,16.43,0,0,1,4.54-2.79.2.2,0,0,0-.15-.37A13.16,13.16,0,0,0,6.51,43c-.21.19.06.55.27.35Z"/><path id="Path_70901" data-name="Path 70901" class="cls-1" d="M1.9,49.7c3.79-2.5,7.67-4.91,11.37-7.55.22-.15,0-.45-.24-.31-3.87,2.37-7.62,5-11.41,7.51C1.39,49.51,1.66,49.86,1.9,49.7Z"/><path id="Path_70902" data-name="Path 70902" class="cls-1" d="M6.82,48.93c1.79-1.14,3.58-2.25,5.34-3.42.22-.15,0-.46-.25-.33-1.8,1.11-3.57,2.26-5.35,3.4-.24.15,0,.5.26.35Z"/><path id="Path_70903" data-name="Path 70903" class="cls-1" d="M9.83,49.92c1.77-1.16,3.56-2.28,5.3-3.48.22-.16,0-.47-.26-.33-1.8,1.1-3.56,2.27-5.33,3.43C9.28,49.71,9.57,50.09,9.83,49.92Z"/><path id="Path_70904" data-name="Path 70904" class="cls-1" d="M11.69,51.46c1.54-.91,3.08-1.82,4.6-2.77.19-.12,0-.46-.2-.34-1.58.88-3.13,1.81-4.68,2.74-.26.15,0,.52.28.36Z"/><path id="Path_70905" data-name="Path 70905" class="cls-1" d="M12.58,19c2.24-.89,4.53-1.74,6.69-2.83a.22.22,0,0,0,.1-.29.22.22,0,0,0-.27-.11c-2.29.77-4.5,1.8-6.7,2.78a.24.24,0,0,0-.12.33.23.23,0,0,0,.3.12Z"/><path id="Path_70906" data-name="Path 70906" class="cls-1" d="M12.69,21.8a45.66,45.66,0,0,1,10.49-5c.3-.09.11-.55-.19-.45A46.22,46.22,0,0,0,12.4,21.43c-.25.16,0,.53.29.37Z"/><path id="Path_70907" data-name="Path 70907" class="cls-1" d="M14.55,23.34c.8-.53,1.59-1.05,2.36-1.6.23-.16,0-.47-.24-.33-.81.51-1.6,1-2.39,1.57-.24.16,0,.52.27.36Z"/><path id="Path_70908" data-name="Path 70908" class="cls-1" d="M19,21a29,29,0,0,1,6.15-3.08c.26-.09.1-.45-.15-.38a23.15,23.15,0,0,0-6.29,3.09c-.25.17,0,.55.29.37Z"/><path id="Path_70909" data-name="Path 70909" class="cls-1" d="M13.74,26c2.62-1.35,5.26-2.66,7.83-4.09.23-.13.09-.51-.15-.39-2.65,1.28-5.25,2.68-7.85,4.05-.26.14-.09.57.17.43Z"/><path id="Path_70910" data-name="Path 70910" class="cls-1" d="M12.79,30.36c1.85-1,3.73-2,5.53-3.15.23-.14,0-.53-.23-.4-1.87,1-3.68,2-5.5,3.07-.29.16-.1.65.2.48Z"/><path id="Path_70911" data-name="Path 70911" class="cls-1" d="M29.21,5.12c1.26-.52,2.54-1,3.79-1.59a.21.21,0,0,0,.07-.29.23.23,0,0,0-.23-.09c-1.28.47-2.55,1-3.82,1.52a.24.24,0,0,0,.19.45Z"/><path id="Path_70912" data-name="Path 70912" class="cls-1" d="M30.51,7c1.76-.72,3.55-1.39,5.27-2.2a.23.23,0,0,0,.11-.3.23.23,0,0,0-.28-.11c-1.79.64-3.54,1.41-5.3,2.14a.24.24,0,0,0-.13.33.25.25,0,0,0,.33.14Z"/><path id="Path_70913" data-name="Path 70913" class="cls-1" d="M30.7,9.39c2.33-1,4.66-2,7-3a.2.2,0,0,0,.09-.29.2.2,0,0,0-.24-.1c-2.35,1-4.66,2-7,3a.23.23,0,0,0,.18.42Z"/><path id="Path_70914" data-name="Path 70914" class="cls-1" d="M33.07,10.51C34.48,10,35.89,9.56,37.28,9c.26-.1.09-.47-.16-.39-1.42.45-2.82.94-4.23,1.43-.28.09-.1.53.18.43Z"/><path id="Path_70915" data-name="Path 70915" class="cls-1" d="M35.42,12.41c.83-.24,1.67-.46,2.49-.73.23-.07.13-.47-.11-.41-.86.2-1.72.44-2.57.68-.31.09-.11.54.19.45Z"/><path id="Path_70916" data-name="Path 70916" class="cls-1" d="M29.29,84.23a12.93,12.93,0,0,0,4.53-2.33.21.21,0,0,0-.26-.34h0a16.32,16.32,0,0,1-4.47,2.2c-.32.1-.12.57.2.47Z"/><path id="Path_70917" data-name="Path 70917" class="cls-1" d="M25.93,83.24a37.41,37.41,0,0,0,9.2-5.64.23.23,0,0,0,0-.32.21.21,0,0,0-.31,0,65.75,65.75,0,0,1-9.13,5.55C25.46,82.93,25.63,83.37,25.93,83.24Z"/><path id="Path_70918" data-name="Path 70918" class="cls-1" d="M23.78,81.15a65.29,65.29,0,0,0,12.9-6.77c.23-.16,0-.46-.25-.33a120,120,0,0,1-12.82,6.69.23.23,0,0,0-.11.3.22.22,0,0,0,.28.11Z"/><path id="Path_70919" data-name="Path 70919" class="cls-1" d="M27,77c2.8-1.44,5.64-2.81,8.39-4.37.23-.13.09-.52-.17-.4-2.85,1.33-5.62,2.87-8.42,4.32-.28.14-.09.6.2.45Z"/><path id="Path_70920" data-name="Path 70920" class="cls-1" d="M31.16,72.63c1.2-.87,2.41-1.73,3.61-2.62a.2.2,0,0,0,0-.28.2.2,0,0,0-.28,0h0c-1.22.86-2.41,1.74-3.62,2.62C30.7,72.46,31,72.79,31.16,72.63Z"/><path id="Path_70921" data-name="Path 70921" class="cls-1" d="M20.81,80.21c1.44-.64,2.9-1.26,4.3-2a.24.24,0,0,0,.13-.31.24.24,0,0,0-.31-.12c-1.47.58-2.89,1.26-4.34,1.91a.27.27,0,0,0,.22.5Z"/><path id="Path_70922" data-name="Path 70922" class="cls-1" d="M17.51,78.63c2.13-.66,4.28-1.26,6.37-2,.23-.08.13-.47-.11-.41-2.17.57-4.3,1.3-6.45,2-.29.09-.1.54.19.45Z"/><path id="Path_70923" data-name="Path 70923" class="cls-1" d="M17.64,76.84l4.9-2.2a.2.2,0,0,0,.09-.28.19.19,0,0,0-.24-.1c-1.64.71-3.27,1.45-4.91,2.18a.22.22,0,0,0,.16.4Z"/><path id="Path_70924" data-name="Path 70924" class="cls-1" d="M15.72,75.18c1.32-.68,2.62-1.35,3.91-2.05.23-.12.09-.48-.15-.37l-3.92,2c-.24.13-.08.53.16.4Z"/><path id="Path_70925" data-name="Path 70925" class="cls-1" d="M14.59,74c.27.09.46-.34.18-.43S14.3,73.92,14.59,74Z"/><path id="Path_70926" data-name="Path 70926" class="cls-1" d="M11.63,70.7c.58-.3,1.16-.6,1.72-.93.23-.13,0-.51-.23-.4-.58.26-1.14.55-1.7.83-.31.16-.1.66.21.5Z"/><path id="Path_70927" data-name="Path 70927" class="cls-1" d="M25.36,19.69c1.9-.35,3.78-.86,5.65-1.36.29-.07.25-.53-.06-.47-1.91.41-3.84.81-5.72,1.36-.27.08-.15.52.13.47Z"/><path id="Path_70928" data-name="Path 70928" class="cls-1" d="M22.41,23.55c2.42-.79,4.89-1.52,7.27-2.41.28-.1.1-.49-.16-.41-2.46.71-4.87,1.58-7.3,2.39-.28.09-.1.52.19.43Z"/><path id="Path_70929" data-name="Path 70929" class="cls-1" d="M11.41,34.57l1.7-1c.22-.13,0-.49-.21-.38-.57.27-1.13.56-1.69.85-.3.15-.09.63.2.48Z"/><path id="Path_70930" data-name="Path 70930" class="cls-1" d="M16.66,31.53A40.6,40.6,0,0,1,25,27.3c.24-.09.09-.44-.15-.36a32.89,32.89,0,0,0-8.48,4.25c-.24.15,0,.49.26.34Z"/><path id="Path_70931" data-name="Path 70931" class="cls-1" d="M19.84,33,26,29.75c.22-.12.06-.48-.15-.36-2.05,1.08-4.09,2.18-6.13,3.27-.21.11-.07.46.15.35Z"/><path id="Path_70932" data-name="Path 70932" class="cls-1" d="M17.66,37c2-1,4-1.95,5.93-3,.23-.12.09-.49-.16-.38-2,1-4,2-5.93,3-.25.12-.08.52.16.4Z"/><path id="Path_70933" data-name="Path 70933" class="cls-1" d="M16.49,41.63c4.45-2.15,9-4.21,13.31-6.54.23-.12.09-.49-.16-.38-4.51,2-8.9,4.3-13.33,6.48-.27.13-.1.57.18.44Z"/><path id="Path_70934" data-name="Path 70934" class="cls-1" d="M17.65,43.18c3.18-1.61,6.4-3.19,9.53-4.91.22-.13.08-.5-.16-.38-3.22,1.54-6.38,3.24-9.54,4.89-.25.12-.08.52.17.4Z"/><path id="Path_70935" data-name="Path 70935" class="cls-1" d="M18.48,44.82A17.51,17.51,0,0,0,24,42.25c.24-.18,0-.52-.28-.37a23.06,23.06,0,0,1-5.41,2.49c-.3.09-.11.54.19.45Z"/><path id="Path_70936" data-name="Path 70936" class="cls-1" d="M20.85,45.93c.7-.25,1.4-.51,2.09-.78.26-.1.09-.48-.17-.39l-2.1.74C20.39,45.6,20.56,46,20.85,45.93Z"/><path id="Path_70937" data-name="Path 70937" class="cls-1" d="M19.08,50.08c1.45-.63,2.91-1.24,4.34-1.92a.23.23,0,0,0,.11-.3.24.24,0,0,0-.29-.11c-1.46.58-2.91,1.23-4.35,1.86a.26.26,0,0,0-.13.34.25.25,0,0,0,.32.13Z"/><path id="Path_70938" data-name="Path 70938" class="cls-1" d="M20.12,52.77l2.79-1.47c.24-.12.08-.5-.16-.38l-2.81,1.44C19.69,52.49,19.86,52.9,20.12,52.77Z"/><path id="Path_70939" data-name="Path 70939" class="cls-1" d="M28.4,68l1.82-1.3c.2-.15,0-.46-.24-.31l-1.82,1.28a.2.2,0,0,0,.24.33Z"/><path id="Path_70940" data-name="Path 70940" class="cls-1" d="M26.59,66.53c1.17-.72,2.34-1.42,3.5-2.15.23-.15,0-.46-.25-.33-1.18.69-2.35,1.41-3.52,2.12-.24.15,0,.5.27.36Z"/><path id="Path_70941" data-name="Path 70941" class="cls-1" d="M27.29,63.5c.24.08.39-.28.16-.35S27.06,63.43,27.29,63.5Z"/><path id="Path_70942" data-name="Path 70942" class="cls-1" d="M26.84,61a42,42,0,0,0,6.41-3.53c.2-.15,0-.45-.24-.31a45.64,45.64,0,0,1-6.33,3.46.21.21,0,0,0-.1.27A.21.21,0,0,0,26.84,61Z"/><path id="Path_70943" data-name="Path 70943" class="cls-1" d="M27.4,57.92a68.32,68.32,0,0,0,7.84-4.16c.2-.12,0-.46-.2-.35-2.56,1.47-5.12,2.89-7.81,4.13A.21.21,0,0,0,27.4,57.92Z"/><path id="Path_70944" data-name="Path 70944" class="cls-1" d="M27.49,54.66a34.74,34.74,0,0,0,7.6-3.27c.21-.12,0-.49-.22-.37a43.12,43.12,0,0,1-7.57,3.21c-.28.09-.1.52.19.43Z"/><path id="Path_70945" data-name="Path 70945" class="cls-1" d="M28.83,51.76a51.85,51.85,0,0,0,7-3.79c.22-.14,0-.45-.25-.32a60.38,60.38,0,0,1-6.9,3.73c-.24.11-.08.5.16.38Z"/><path id="Path_70946" data-name="Path 70946" class="cls-1" d="M28.77,48.55c.27.09.44-.31.18-.4S28.51,48.47,28.77,48.55Z"/><path id="Path_70947" data-name="Path 70947" class="cls-1" d="M25.28,49.7c.71-.23,1.41-.46,2.11-.72.26-.09.09-.46-.16-.38-.71.21-1.42.44-2.13.67-.28.1-.1.53.18.43Z"/><path id="Path_70948" data-name="Path 70948" class="cls-1" d="M31.36,47.05c2.15-.85,4.36-1.63,6.45-2.63a.21.21,0,0,0,.11-.27.22.22,0,0,0-.27-.11c-2.21.71-4.34,1.68-6.49,2.54a.25.25,0,0,0-.11.35.26.26,0,0,0,.31.12Z"/><path id="Path_70949" data-name="Path 70949" class="cls-1" d="M30.08,45.28c3-1.24,6.08-2.42,9.07-3.76a.2.2,0,0,0,.11-.27.19.19,0,0,0-.26-.1c-3.07,1.13-6.08,2.44-9.11,3.69a.25.25,0,0,0-.12.32.23.23,0,0,0,.31.12Z"/><path id="Path_70950" data-name="Path 70950" class="cls-1" d="M31,42.16c1.68-.86,3.37-1.71,5-2.62.24-.13.09-.52-.16-.39-1.7.83-3.37,1.72-5.05,2.59-.26.13-.09.56.18.42Z"/><path id="Path_70951" data-name="Path 70951" class="cls-1" d="M32.05,38.77c1.12-.58,2.25-1.15,3.37-1.74.22-.13.08-.5-.16-.38-1.13.56-2.25,1.15-3.37,1.74-.23.12-.07.51.16.38Z"/><path id="Path_70952" data-name="Path 70952" class="cls-1" d="M32,37c.26.09.44-.33.17-.41S31.73,36.86,32,37Z"/><path id="Path_70953" data-name="Path 70953" class="cls-1" d="M36.2,14c2-.32,3.92-.68,5.87-1.15a.2.2,0,0,0-.06-.4c-2,.3-3.93.69-5.87,1.14C35.89,13.66,35.93,14.06,36.2,14Z"/><path id="Path_70954" data-name="Path 70954" class="cls-1" d="M37.25,16.54c1.35-.39,2.7-.75,4-1.15.21-.07.11-.45-.11-.39-1.38.36-2.74.76-4.11,1.15-.25.07-.09.46.17.39Z"/><path id="Path_70955" data-name="Path 70955" class="cls-1" d="M37.52,18.6c1.71-.41,3.42-.8,5.1-1.27.24-.06.13-.46-.11-.41-1.69.36-3.37.81-5,1.22-.29.07-.23.53.06.46Z"/><path id="Path_70956" data-name="Path 70956" class="cls-1" d="M39.4,20c1.55-.43,3.11-.84,4.65-1.28.22-.07.12-.44-.1-.38-1.57.41-3.14.85-4.7,1.28-.26.07-.1.45.15.38Z"/><path id="Path_70957" data-name="Path 70957" class="cls-1" d="M40.71,21.88a17.06,17.06,0,0,1,4.59-1.29.23.23,0,0,0,.18-.27.23.23,0,0,0-.24-.18,12.73,12.73,0,0,0-4.73,1.26c-.3.14-.1.62.2.48Z"/><path id="Path_70958" data-name="Path 70958" class="cls-1" d="M43.29,22.77c1.54-.45,3.09-.88,4.62-1.39.22-.07.12-.46-.11-.4-1.57.42-3.13.91-4.68,1.37-.29.08-.11.5.17.42Z"/><path id="Path_70959" data-name="Path 70959" class="cls-1" d="M45.17,23.69c2.36-.48,4.72-.91,7-1.5.26-.06.22-.47-.06-.42-2.36.38-4.7.93-7,1.42-.32.07-.26.57.06.5Z"/><path id="Path_70960" data-name="Path 70960" class="cls-1" d="M47.79,24.78c2-.48,4.07-.94,6.05-1.58a.22.22,0,0,0-.12-.43c-2,.38-4,1-6,1.49-.31.09-.26.61.08.52Z"/><path id="Path_70961" data-name="Path 70961" class="cls-1" d="M49.47,25.25c1.82-.36,3.67-.66,5.48-1.11a.23.23,0,0,0-.07-.45c-1.84.27-3.66.68-5.48,1C49.06,24.8,49.13,25.31,49.47,25.25Z"/><path id="Path_70962" data-name="Path 70962" class="cls-1" d="M52.16,26.53c.3.09.49-.34.19-.44S51.87,26.44,52.16,26.53Z"/><path id="Path_70963" data-name="Path 70963" class="cls-1" d="M48.47,55.29a1.7,1.7,0,0,0-1,1.54,2.54,2.54,0,0,0,.08.91,7.5,7.5,0,0,0,.37.93c.56,1,.19,1.74-1.13,2.22a.22.22,0,0,0-.17.41,1.3,1.3,0,0,0,1.76-.51,1.07,1.07,0,0,0,.1-.22c.62-1.44-1.49-3.78.26-4.85.24-.14,0-.57-.26-.43Z"/><path id="Path_70964" data-name="Path 70964" class="cls-1" d="M49.86,58.4c0,.47,0,.94,0,1.4,0,.26.46.27.46,0,0-.53,0-.93,0-1.47,0-.34-.54-.28-.53.07Z"/><path id="Path_70965" data-name="Path 70965" class="cls-1" d="M43.34,82.83c2.1-.31,4.24-.55,6.3-1a.23.23,0,0,0,.2-.26.23.23,0,0,0-.26-.19c-2.11.18-4.21.61-6.31,1a.27.27,0,0,0,.07.53Z"/><path id="Path_70966" data-name="Path 70966" class="cls-1" d="M48.08,79.51c.94,0,1.88-.05,2.81-.14.27,0,.27-.46,0-.47-1,0-1.92,0-2.89,0-.36,0-.28.57.08.56Z"/><path id="Path_70967" data-name="Path 70967" class="cls-1" d="M87.63,80.19c-4.45-2.08-8.1,3.63-8,7.46a8,8,0,0,0,9.26,7.51c4.55-.66,7.49-5.52,6.41-9.91-1-4.15-6.58-7.67-10.65-5.43a.53.53,0,0,0-.26.7.53.53,0,0,0,.53.3c3.47-.45,7.26-.07,8.9,3.61a7.07,7.07,0,0,1-4.19,9.43c-3.72,1.14-8.16-1.15-8.88-5.1s2.12-9.05,6.72-8c.37.08.49-.47.18-.62Z"/><path id="Path_70968" data-name="Path 70968" class="cls-1" d="M84.4,84.4c.74-.45,1.46-.93,2.15-1.45.25-.2,0-.68-.29-.51-.77.45-1.52.94-2.24,1.46-.33.24,0,.71.38.5Z"/><path id="Path_70969" data-name="Path 70969" class="cls-1" d="M84.08,86.48a5.15,5.15,0,0,0,1.06-.64c.32-.23,0-.7-.33-.58a3.62,3.62,0,0,0-1,.47c-.44.24-.16,1,.31.75Z"/><path id="Path_70970" data-name="Path 70970" class="cls-1" d="M85.15,85.87c.94-.7,1.92-1.3,2.79-2.09a.32.32,0,0,0-.39-.51c-1,.63-1.82,1.43-2.75,2.15a.29.29,0,0,0,.35.45Z"/><path id="Path_70971" data-name="Path 70971" class="cls-1" d="M86.12,87.09c.88-.58,1.79-1.12,2.62-1.76.27-.19,0-.68-.29-.51-.94.54-1.82,1.16-2.73,1.76-.33.23,0,.73.4.51Z"/><path id="Path_70972" data-name="Path 70972" class="cls-1" d="M86,91.26c1.06-.66,2.13-1.3,3.15-2,.31-.21,0-.63-.35-.45-1.07.62-2.11,1.32-3.16,2-.31.21,0,.67.36.47Z"/><path id="Path_70973" data-name="Path 70973" class="cls-1" d="M87.72,92.68a14.16,14.16,0,0,0,1.12-.93.3.3,0,0,0,0-.43.3.3,0,0,0-.41-.06,10.18,10.18,0,0,0-1.16.89.33.33,0,0,0,0,.47A.34.34,0,0,0,87.72,92.68Z"/><path id="Path_70974" data-name="Path 70974" class="cls-1" d="M90.33,90.9A30.9,30.9,0,0,0,93,89.2c.25-.19,0-.65-.28-.49A28.79,28.79,0,0,0,90,90.43c-.33.22,0,.66.36.47Z"/><path id="Path_70975" data-name="Path 70975" class="cls-1" d="M90.77,92.75a6.87,6.87,0,0,0,.74-1,.29.29,0,0,0-.05-.42.3.3,0,0,0-.42,0,6.43,6.43,0,0,0-.83,1,.37.37,0,0,0,.07.5.36.36,0,0,0,.49-.06Z"/><path id="Path_70976" data-name="Path 70976" class="cls-1" d="M85.55,89.92c.51-.27,1-.53,1.52-.81.33-.18.12-.71-.23-.55-.52.25-1,.51-1.54.77-.35.19-.11.77.25.58Z"/><path id="Path_70977" data-name="Path 70977" class="cls-1" d="M91.9,86l2-1c.35-.18.11-.76-.24-.58l-2,1.07C91.33,85.6,91.55,86.15,91.9,86Z"/><path id="Path_70978" data-name="Path 70978" class="cls-1" d="M92,84.31a11.11,11.11,0,0,0,1.59-.86c.27-.19,0-.61-.3-.5a9.12,9.12,0,0,0-1.54.75C91.39,83.9,91.6,84.49,92,84.31Z"/><path id="Path_70979" data-name="Path 70979" class="cls-1" d="M93.09,87.68a12.2,12.2,0,0,0,1.59-.86c.3-.2,0-.66-.31-.53a10.92,10.92,0,0,0-1.6.81C92.44,87.3,92.75,87.83,93.09,87.68Z"/><path id="Path_70980" data-name="Path 70980" class="cls-1" d="M80.52,89.51l1.38-.44c.29-.1.16-.59-.13-.51L80.29,89c-.36.11-.14.65.23.54Z"/><path id="Path_70981" data-name="Path 70981" class="cls-1" d="M81.46,90.75a12.73,12.73,0,0,0,2.08-1.14c.26-.18,0-.57-.27-.46a12.72,12.72,0,0,0-2.13,1c-.32.19,0,.71.32.56Z"/><path id="Path_70982" data-name="Path 70982" class="cls-1" d="M82.3,91.91A1.89,1.89,0,0,0,84,91c.2-.28-.15-.71-.45-.45a2.4,2.4,0,0,1-1.37.71.33.33,0,0,0-.27.38.32.32,0,0,0,.36.27Z"/></svg>