<svg xmlns="http://www.w3.org/2000/svg" xmlns:xlink="http://www.w3.org/1999/xlink" width="54.772" height="54.766" viewBox="0 0 54.772 54.766">
  <defs>
    <filter id="Path_142252" x="0" y="0" width="54.772" height="54.766" filterUnits="userSpaceOnUse">
      <feOffset input="SourceAlpha"/>
      <feGaussianBlur stdDeviation="3" result="blur"/>
      <feFlood flood-color="#0168ff"/>
      <feComposite operator="in" in2="blur"/>
      <feComposite in="SourceGraphic"/>
    </filter>
  </defs>
  <g transform="matrix(1, 0, 0, 1, 0, 0)" filter="url(#Path_142252)">
    <path id="Path_142252-2" data-name="Path 142252" d="M1179.637,909.486a.817.817,0,0,0,1.031-1.267,16.724,16.724,0,0,1-5.209-7.353,77.959,77.959,0,0,0,9.446,1.305c.149,1.475.347,2.893.591,4.227a.817.817,0,0,0,1.608-.293c-.221-1.21-.4-2.491-.545-3.824q1.994.113,4.013.128h.006a.817.817,0,0,0,.006-1.634q-2.1-.017-4.178-.14c-.138-1.75-.209-3.569-.209-5.413,0-1.526.047-3.024.14-4.471q2.415.161,4.9.161t4.9-.163c.076,1.182.123,2.4.137,3.629a.817.817,0,0,0,.817.807h.01a.816.816,0,0,0,.807-.826c-.014-1.269-.063-2.519-.143-3.739q2.726-.247,5.355-.7a.817.817,0,0,0-.28-1.61q-2.549.442-5.2.684a42.979,42.979,0,0,0-1.926-9.919,16.669,16.669,0,0,1,8.719,5.825.817.817,0,1,0,1.286-1.007,18.284,18.284,0,0,0-14.477-7.052,18.484,18.484,0,0,0-3.256.288c-.024,0-.049.008-.072.014a18.448,18.448,0,0,0-13.486,10.649.854.854,0,0,0-.063.145,18.383,18.383,0,0,0,5.279,21.55Zm9.025-30.815a16.925,16.925,0,0,1,5.146,0,37.767,37.767,0,0,1,2.2,10.453q-2.36.159-4.771.159t-4.773-.157a37.5,37.5,0,0,1,2.2-10.452Zm-1.9.409a42.667,42.667,0,0,0-1.925,9.914,62.161,62.161,0,0,1-8.529-1.36,16.831,16.831,0,0,1,10.453-8.554Zm-12.273,16.142a16.658,16.658,0,0,1,1.139-6.071,63.7,63.7,0,0,0,9.084,1.472c-.1,1.491-.146,3.031-.146,4.6,0,1.8.066,3.579.2,5.3a75.407,75.407,0,0,1-9.825-1.434,16.794,16.794,0,0,1-.448-3.863Zm28.6-16.518c1.346-.3,3.157-.459,4.143.527,1.153,1.152.98,3.744-.475,7.11a44.917,44.917,0,0,1-7.643,11.333,3.741,3.741,0,1,0,1.082,1.24,46.824,46.824,0,0,0,8.061-11.925c1.784-4.132,1.829-7.214.129-8.913-.833-.834-2.492-1.679-5.656-.965a.817.817,0,0,0,.359,1.594Zm-6.187,24.1a2.111,2.111,0,1,1,2.111-2.111,2.113,2.113,0,0,1-2.111,2.111Zm-3.823,2.968a41.638,41.638,0,0,1-11.065,6.867,12.986,12.986,0,0,1-4.487.964,4.664,4.664,0,0,1-3.434-1.237c-.83-.83-1.674-2.481-.973-5.624a.817.817,0,0,1,1.594.355c-.3,1.335-.447,3.132.533,4.113,1.047,1.048,3.245,1.011,6.187-.1a40.019,40.019,0,0,0,10.6-6.6.817.817,0,1,1,1.042,1.258Zm16.177-14.227a18.546,18.546,0,0,1,.367,3.675,18.35,18.35,0,0,1-.615,4.725.765.765,0,0,1-.022.082,18.444,18.444,0,0,1-14.418,13.275.71.71,0,0,1-.07.013,18.522,18.522,0,0,1-7.229-.141.817.817,0,0,1,.351-1.6,16.909,16.909,0,0,0,6.194.195,27.719,27.719,0,0,0,1.432-5,.817.817,0,1,1,1.6.319,31.925,31.925,0,0,1-1.131,4.272,16.823,16.823,0,0,0,11.3-10.5c-1.266.255-2.551.481-3.838.673a.817.817,0,0,1-.241-1.615c1.548-.231,3.1-.512,4.607-.837a16.852,16.852,0,0,0,.115-7.214.817.817,0,0,1,1.6-.326Zm0,0" transform="translate(-1163.85 -867.84)" fill="#2d6af5"/>
  </g>
</svg>
