<svg xmlns="http://www.w3.org/2000/svg" xmlns:xlink="http://www.w3.org/1999/xlink" width="949.242" height="949.299" viewBox="0 0 949.242 949.299">
  <defs>
    <linearGradient id="linear-gradient" x1="-27.439" y1="28.439" x2="-0.108" y2="1.108" gradientUnits="objectBoundingBox">
      <stop offset="0" stop-color="#7cf95b"/>
      <stop offset="0.136" stop-color="#76ee7c"/>
      <stop offset="0.436" stop-color="#68d4d2"/>
      <stop offset="0.522" stop-color="#64cdec"/>
      <stop offset="1" stop-color="#3172f5"/>
    </linearGradient>
    <linearGradient id="linear-gradient-2" x1="0.231" y1="0.723" x2="0.737" y2="0.303" xlink:href="#linear-gradient"/>
    <linearGradient id="linear-gradient-3" x1="0.277" y1="0.769" x2="0.697" y2="0.263" xlink:href="#linear-gradient"/>
    <linearGradient id="linear-gradient-4" x1="0.181" y1="0.704" x2="0.782" y2="0.32" xlink:href="#linear-gradient"/>
    <linearGradient id="linear-gradient-5" x1="-32.722" y1="33.717" x2="-5.396" y2="6.395" xlink:href="#linear-gradient"/>
    <linearGradient id="linear-gradient-6" x1="-18.102" y1="19.103" x2="9.225" y2="-8.226" xlink:href="#linear-gradient"/>
    <linearGradient id="linear-gradient-7" x1="-9.726" y1="10.726" x2="17.601" y2="-16.603" xlink:href="#linear-gradient"/>
    <linearGradient id="linear-gradient-8" x1="1.517" y1="-0.517" x2="28.844" y2="-27.84" xlink:href="#linear-gradient"/>
    <linearGradient id="linear-gradient-9" x1="-29.59" y1="30.591" x2="-2.262" y2="3.262" xlink:href="#linear-gradient"/>
    <linearGradient id="linear-gradient-10" x1="4.695" y1="-3.695" x2="32.026" y2="-31.026" xlink:href="#linear-gradient"/>
    <linearGradient id="linear-gradient-11" x1="-0.483" y1="1.483" x2="26.843" y2="-25.839" xlink:href="#linear-gradient"/>
    <linearGradient id="linear-gradient-33" x1="0.277" y1="0.769" x2="0.697" y2="0.262" xlink:href="#linear-gradient"/>
    <linearGradient id="linear-gradient-34" x1="0.231" y1="0.723" x2="0.738" y2="0.303" xlink:href="#linear-gradient"/>
    <linearGradient id="linear-gradient-35" x1="0.296" y1="0.819" x2="0.68" y2="0.219" xlink:href="#linear-gradient"/>
    <linearGradient id="linear-gradient-36" x1="-26.975" y1="27.973" x2="0.348" y2="0.652" xlink:href="#linear-gradient"/>
    <linearGradient id="linear-gradient-37" x1="-36.57" y1="37.57" x2="-9.239" y2="10.239" xlink:href="#linear-gradient"/>
    <linearGradient id="linear-gradient-38" x1="8.482" y1="-7.484" x2="35.805" y2="-34.813" xlink:href="#linear-gradient"/>
    <linearGradient id="linear-gradient-39" x1="-24.263" y1="25.262" x2="3.067" y2="-2.067" xlink:href="#linear-gradient"/>
    <linearGradient id="linear-gradient-40" x1="-3.832" y1="4.831" x2="23.499" y2="-22.492" xlink:href="#linear-gradient"/>
    <linearGradient id="linear-gradient-41" x1="-1.09" y1="2.09" x2="26.241" y2="-25.241" xlink:href="#linear-gradient"/>
    <linearGradient id="linear-gradient-42" x1="7.723" y1="-6.724" x2="35.051" y2="-34.055" xlink:href="#linear-gradient"/>
    <linearGradient id="linear-gradient-43" x1="-35.83" y1="36.823" x2="-8.502" y2="9.5" xlink:href="#linear-gradient"/>
    <linearGradient id="linear-gradient-107" x1="0.013" y1="1.046" x2="0.845" y2="0.169" gradientUnits="objectBoundingBox">
      <stop offset="0" stop-color="#6de453"/>
      <stop offset="0.502" stop-color="#0dffed"/>
      <stop offset="1" stop-color="#1f69ff"/>
    </linearGradient>
    <linearGradient id="linear-gradient-108" x1="0.146" y1="0.854" x2="0.854" y2="0.146" gradientUnits="objectBoundingBox">
      <stop offset="0" stop-color="#00bdc9"/>
      <stop offset="1" stop-color="#c745a2"/>
    </linearGradient>
  </defs>
  <g id="Group_41411" data-name="Group 41411" transform="translate(-505.57 -1600.921)">
    <g id="Group_41406" data-name="Group 41406">
      <g id="Group_36610" data-name="Group 36610" transform="translate(-14.588 86.886) rotate(-1)">
        <g id="Group_36378" data-name="Group 36378" transform="translate(259.102 -217.027) rotate(9)" opacity="0.165">
          <g id="Group_36293" data-name="Group 36293" transform="matrix(0.934, 0.358, -0.358, 0.934, 1089.528, 1672.818)">
            <circle id="Ellipse_1395" data-name="Ellipse 1395" cx="5.623" cy="5.623" r="5.623" transform="translate(0 8.92) rotate(-52.477)" fill="url(#linear-gradient)"/>
          </g>
          <g id="Group_36374" data-name="Group 36374" transform="translate(533.874 1578.114)">
            <g id="Group_36270" data-name="Group 36270" transform="matrix(0.934, 0.358, -0.358, 0.934, 308.942, 0)">
              <g id="Group_36259" data-name="Group 36259" transform="translate(61.951 37.52)" style="mix-blend-mode: overlay;isolation: isolate">
                <path id="Path_65960" data-name="Path 65960" d="M5.906,587.235C1.1,563.735-.817,537.917.318,510.127c3.669-89.669,38.658-188.991,98.531-279.666S236.315,68.589,317.335,30C398.46-8.647,473.324-10,528.146,26.2s82.978,105.573,79.317,195.358c-3.669,89.67-38.658,188.992-98.531,279.668S371.47,663.1,290.446,701.688c-81.125,38.644-155.993,39.992-210.81,3.8l.337-.514-.337.514C41.783,680.492,16.632,639.667,5.906,587.235ZM600.517,144.888c-10.428-50.959-34.683-92.329-73.05-117.663C414.976-47.05,223.157,44.425,99.874,231.137,18.641,354.171-12.873,488.345,7.264,586.8c10.424,50.957,34.68,92.329,73.047,117.663,54.446,35.947,128.884,34.568,209.607-3.882,80.822-38.5,158.239-109.536,217.986-200.03C589.141,377.514,620.662,243.336,600.517,144.888Z" fill="url(#linear-gradient-2)"/>
              </g>
              <g id="Group_36260" data-name="Group 36260" transform="translate(0 99.474)" style="mix-blend-mode: overlay;isolation: isolate">
                <path id="Path_65961" data-name="Path 65961" d="M4.843,217.338C-5.887,164.9,1.206,117.489,26.2,79.633,62.394,24.815,131.772-3.355,221.557.319,311.226,3.985,410.545,38.976,501.224,98.85S663.093,236.312,701.69,317.336c38.64,81.129,39.984,155.993,3.794,210.807S599.91,611.128,510.129,607.46c-89.67-3.665-188.995-38.658-279.671-98.532S68.59,371.468,29.993,290.443C18.037,265.339,9.65,240.836,4.843,217.338ZM725.417,390.569c-20.148-98.456-101.826-209.452-224.871-290.7C410.052,40.127,310.958,5.2,221.507,1.548,132.171-2.107,63.174,25.865,27.225,80.312-47.05,192.806,44.42,384.627,231.133,507.9S630.18,639.963,704.456,527.468C729.786,489.1,735.841,441.512,725.417,390.569Z" fill="url(#linear-gradient-3)"/>
              </g>
              <g id="Group_36261" data-name="Group 36261" transform="translate(110.155 2.395)" style="mix-blend-mode: overlay;isolation: isolate">
                <path id="Path_65962" data-name="Path 65962" d="M13.453,443.1C-7.489,340.775-3.914,239.846,23.708,157.741,52.359,72.573,103.453,17.835,167.588,3.616S301.162,17.408,363.123,82.487c61.885,64.994,108.92,159.213,132.442,265.294,23.5,106.078,20.716,211.353-7.9,296.413-28.647,85.166-79.748,139.9-143.88,154.12s-133.574-13.787-195.538-78.868C86.363,654.453,39.329,560.235,15.806,454.153Q14.578,448.627,13.453,443.1Zm483.266-84q-1.132-5.524-2.354-11.046C445.933,129.611,299.459-24.358,167.854,4.816,38.449,33.51-29.132,228.794,14.682,442.974c.744,3.644,1.513,7.259,2.325,10.912,48.432,218.437,194.9,372.407,326.515,343.228C407.214,782.993,457.993,728.544,486.5,643.8c27.549-81.9,31.111-182.6,10.219-284.706Z" fill="url(#linear-gradient-4)"/>
              </g>
              <g id="Group_36262" data-name="Group 36262" transform="translate(425.823 42.606)">
                <path id="Path_65963" data-name="Path 65963" d="M6.754,11.136A5.625,5.625,0,1,1,11.134,4.5a5.625,5.625,0,0,1-4.38,6.636Z" fill="url(#linear-gradient-5)"/>
              </g>
              <g id="Group_36263" data-name="Group 36263" transform="translate(152.774 98.479)">
                <path id="Path_65964" data-name="Path 65964" d="M6.753,11.134A5.623,5.623,0,1,1,11.133,4.5a5.623,5.623,0,0,1-4.38,6.634Z" fill="url(#linear-gradient-6)"/>
              </g>
              <g id="Group_36264" data-name="Group 36264" transform="translate(564.853 699.006)">
                <path id="Path_65965" data-name="Path 65965" d="M6.752,11.132a5.617,5.617,0,1,1,3.565-2.408,5.623,5.623,0,0,1-3.565,2.408Z" fill="url(#linear-gradient-7)"/>
              </g>
              <g id="Group_36265" data-name="Group 36265" transform="translate(69.472 456.559)">
                <path id="Path_65966" data-name="Path 65966" d="M6.754,11.136A5.625,5.625,0,1,1,11.134,4.5a5.625,5.625,0,0,1-4.38,6.636Z" fill="url(#linear-gradient-8)"/>
              </g>
              <g id="Group_36266" data-name="Group 36266" transform="translate(650.789 338.078)">
                <path id="Path_65967" data-name="Path 65967" d="M6.752,11.133A5.623,5.623,0,1,1,11.132,4.5,5.623,5.623,0,0,1,6.752,11.133Z" fill="url(#linear-gradient-9)"/>
              </g>
              <g id="Group_36267" data-name="Group 36267" transform="translate(294.203 752.773)">
                <circle id="Ellipse_1390" data-name="Ellipse 1390" cx="5.623" cy="5.623" r="5.623" transform="translate(0 0)" fill="url(#linear-gradient-10)"/>
              </g>
              <g id="Group_36268" data-name="Group 36268" transform="translate(451.85 793.926)">
                <path id="Path_65968" data-name="Path 65968" d="M6.75,11.136A5.624,5.624,0,1,1,11.134,4.5,5.624,5.624,0,0,1,6.75,11.136Z" fill="url(#linear-gradient-11)"/>
              </g>
              <g id="Group_36269" data-name="Group 36269" transform="translate(264.265)">
                <circle id="Ellipse_1391" data-name="Ellipse 1391" cx="5.623" cy="5.623" r="5.623" transform="translate(0 8.92) rotate(-52.477)" fill="url(#linear-gradient)"/>
              </g>
            </g>
            <g id="Group_36282" data-name="Group 36282" transform="matrix(0.934, 0.358, -0.358, 0.934, 308.942, 0)">
              <g id="Group_36271" data-name="Group 36271" transform="translate(61.951 37.52)" style="mix-blend-mode: overlay;isolation: isolate">
                <path id="Path_65969" data-name="Path 65969" d="M5.906,587.235C1.1,563.735-.817,537.917.318,510.127c3.669-89.669,38.658-188.991,98.531-279.666S236.315,68.589,317.335,30C398.46-8.647,473.324-10,528.146,26.2s82.978,105.573,79.317,195.358c-3.669,89.67-38.658,188.992-98.531,279.668S371.47,663.1,290.446,701.688c-81.125,38.644-155.993,39.992-210.81,3.8l.337-.514-.337.514C41.783,680.492,16.632,639.667,5.906,587.235ZM600.517,144.888c-10.428-50.959-34.683-92.329-73.05-117.663C414.976-47.05,223.157,44.425,99.874,231.137,18.641,354.171-12.873,488.345,7.264,586.8c10.424,50.957,34.68,92.329,73.047,117.663,54.446,35.947,128.884,34.568,209.607-3.882,80.822-38.5,158.239-109.536,217.986-200.03C589.141,377.514,620.662,243.336,600.517,144.888Z" fill="url(#linear-gradient-2)"/>
              </g>
              <g id="Group_36272" data-name="Group 36272" transform="translate(0 99.474)" style="mix-blend-mode: overlay;isolation: isolate">
                <path id="Path_65970" data-name="Path 65970" d="M4.843,217.338C-5.887,164.9,1.206,117.489,26.2,79.633,62.394,24.815,131.772-3.355,221.557.319,311.226,3.985,410.545,38.976,501.224,98.85S663.093,236.312,701.69,317.336c38.64,81.129,39.984,155.993,3.794,210.807S599.91,611.128,510.129,607.46c-89.67-3.665-188.995-38.658-279.671-98.532S68.59,371.468,29.993,290.443C18.037,265.339,9.65,240.836,4.843,217.338ZM725.417,390.569c-20.148-98.456-101.826-209.452-224.871-290.7C410.052,40.127,310.958,5.2,221.507,1.548,132.171-2.107,63.174,25.865,27.225,80.312-47.05,192.806,44.42,384.627,231.133,507.9S630.18,639.963,704.456,527.468C729.786,489.1,735.841,441.512,725.417,390.569Z" fill="url(#linear-gradient-3)"/>
              </g>
              <g id="Group_36273" data-name="Group 36273" transform="translate(110.155 2.395)" style="mix-blend-mode: overlay;isolation: isolate">
                <path id="Path_65971" data-name="Path 65971" d="M13.453,443.1C-7.489,340.775-3.914,239.846,23.708,157.741,52.359,72.573,103.453,17.835,167.588,3.616S301.162,17.408,363.123,82.487c61.885,64.994,108.92,159.213,132.442,265.294,23.5,106.078,20.716,211.353-7.9,296.413-28.647,85.166-79.748,139.9-143.88,154.12s-133.574-13.787-195.538-78.868C86.363,654.453,39.329,560.235,15.806,454.153Q14.578,448.627,13.453,443.1Zm483.266-84q-1.132-5.524-2.354-11.046C445.933,129.611,299.459-24.358,167.854,4.816,38.449,33.51-29.132,228.794,14.682,442.974c.744,3.644,1.513,7.259,2.325,10.912,48.432,218.437,194.9,372.407,326.515,343.228C407.214,782.993,457.993,728.544,486.5,643.8c27.549-81.9,31.111-182.6,10.219-284.706Z" fill="url(#linear-gradient-4)"/>
              </g>
              <g id="Group_36274" data-name="Group 36274" transform="translate(425.823 42.606)">
                <path id="Path_65972" data-name="Path 65972" d="M6.754,11.136A5.625,5.625,0,1,1,11.134,4.5a5.625,5.625,0,0,1-4.38,6.636Z" fill="url(#linear-gradient-5)"/>
              </g>
              <g id="Group_36275" data-name="Group 36275" transform="translate(152.774 98.479)">
                <path id="Path_65973" data-name="Path 65973" d="M6.753,11.134A5.623,5.623,0,1,1,11.133,4.5a5.623,5.623,0,0,1-4.38,6.634Z" fill="url(#linear-gradient-6)"/>
              </g>
              <g id="Group_36276" data-name="Group 36276" transform="translate(564.853 699.006)">
                <path id="Path_65974" data-name="Path 65974" d="M6.752,11.132a5.617,5.617,0,1,1,3.565-2.408,5.623,5.623,0,0,1-3.565,2.408Z" fill="url(#linear-gradient-7)"/>
              </g>
              <g id="Group_36277" data-name="Group 36277" transform="translate(69.472 456.559)">
                <path id="Path_65975" data-name="Path 65975" d="M6.754,11.136A5.625,5.625,0,1,1,11.134,4.5a5.625,5.625,0,0,1-4.38,6.636Z" fill="url(#linear-gradient-8)"/>
              </g>
              <g id="Group_36278" data-name="Group 36278" transform="translate(650.789 338.078)">
                <path id="Path_65976" data-name="Path 65976" d="M6.752,11.133A5.623,5.623,0,1,1,11.132,4.5,5.623,5.623,0,0,1,6.752,11.133Z" fill="url(#linear-gradient-9)"/>
              </g>
              <g id="Group_36279" data-name="Group 36279" transform="translate(294.203 752.773)">
                <circle id="Ellipse_1392" data-name="Ellipse 1392" cx="5.623" cy="5.623" r="5.623" transform="translate(0 0)" fill="url(#linear-gradient-10)"/>
              </g>
              <g id="Group_36280" data-name="Group 36280" transform="translate(451.85 793.926)">
                <path id="Path_65977" data-name="Path 65977" d="M6.75,11.136A5.624,5.624,0,1,1,11.134,4.5,5.624,5.624,0,0,1,6.75,11.136Z" fill="url(#linear-gradient-11)"/>
              </g>
              <g id="Group_36281" data-name="Group 36281" transform="translate(264.265)">
                <circle id="Ellipse_1393" data-name="Ellipse 1393" cx="5.623" cy="5.623" r="5.623" transform="translate(0 8.92) rotate(-52.477)" fill="url(#linear-gradient)"/>
              </g>
            </g>
            <g id="Group_36284" data-name="Group 36284" transform="matrix(0.934, 0.358, -0.358, 0.934, 273.294, 92.867)">
              <path id="Path_65979" data-name="Path 65979" d="M4.843,217.338C-5.887,164.9,1.206,117.489,26.2,79.633,62.394,24.815,131.772-3.355,221.557.319,311.226,3.985,410.545,38.976,501.224,98.85S663.093,236.312,701.69,317.336c38.64,81.129,39.984,155.993,3.794,210.807S599.91,611.128,510.129,607.46c-89.67-3.665-188.995-38.658-279.671-98.532S68.59,371.468,29.993,290.443C18.037,265.339,9.65,240.836,4.843,217.338ZM725.417,390.569c-20.148-98.456-101.826-209.452-224.871-290.7C410.052,40.127,310.958,5.2,221.507,1.548,132.171-2.107,63.174,25.865,27.225,80.312-47.05,192.806,44.42,384.627,231.133,507.9S630.18,639.963,704.456,527.468C729.786,489.1,735.841,441.512,725.417,390.569Z" fill="url(#linear-gradient-3)"/>
            </g>
            <g id="Group_36285" data-name="Group 36285" transform="matrix(0.934, 0.358, -0.358, 0.934, 410.922, 41.712)">
              <path id="Path_65980" data-name="Path 65980" d="M13.453,443.1C-7.489,340.775-3.914,239.846,23.708,157.741,52.359,72.573,103.453,17.835,167.588,3.616S301.162,17.408,363.123,82.487c61.885,64.994,108.92,159.213,132.442,265.294,23.5,106.078,20.716,211.353-7.9,296.413-28.647,85.166-79.748,139.9-143.88,154.12s-133.574-13.787-195.538-78.868C86.363,654.453,39.329,560.235,15.806,454.153Q14.578,448.627,13.453,443.1Zm483.266-84q-1.132-5.524-2.354-11.046C445.933,129.611,299.459-24.358,167.854,4.816,38.449,33.51-29.132,228.794,14.682,442.974c.744,3.644,1.513,7.259,2.325,10.912,48.432,218.437,194.9,372.407,326.515,343.228C407.214,782.993,457.993,728.544,486.5,643.8c27.549-81.9,31.111-182.6,10.219-284.706Z" fill="url(#linear-gradient-4)"/>
            </g>
            <g id="Group_36286" data-name="Group 36286" transform="matrix(0.934, 0.358, -0.358, 0.934, 691.212, 192.378)">
              <path id="Path_65981" data-name="Path 65981" d="M6.754,11.136A5.625,5.625,0,1,1,11.134,4.5a5.625,5.625,0,0,1-4.38,6.636Z" fill="url(#linear-gradient-5)"/>
            </g>
            <g id="Group_36287" data-name="Group 36287" transform="matrix(0.934, 0.358, -0.358, 0.934, 416.277, 146.688)">
              <path id="Path_65982" data-name="Path 65982" d="M6.753,11.134A5.623,5.623,0,1,1,11.133,4.5a5.623,5.623,0,0,1-4.38,6.634Z" fill="url(#linear-gradient-6)"/>
            </g>
            <g id="Group_36288" data-name="Group 36288" transform="matrix(0.934, 0.358, -0.358, 0.934, 585.776, 855.003)">
              <path id="Path_65983" data-name="Path 65983" d="M6.752,11.132a5.617,5.617,0,1,1,3.565-2.408,5.623,5.623,0,0,1-3.565,2.408Z" fill="url(#linear-gradient-7)"/>
            </g>
            <g id="Group_36289" data-name="Group 36289" transform="matrix(0.934, 0.358, -0.358, 0.934, 210.183, 451.132)">
              <path id="Path_65984" data-name="Path 65984" d="M6.754,11.136A5.625,5.625,0,1,1,11.134,4.5a5.625,5.625,0,0,1-4.38,6.636Z" fill="url(#linear-gradient-8)"/>
            </g>
            <g id="Group_36290" data-name="Group 36290" transform="matrix(0.934, 0.358, -0.358, 0.934, 795.35, 548.844)">
              <path id="Path_65985" data-name="Path 65985" d="M6.752,11.133A5.623,5.623,0,1,1,11.132,4.5,5.623,5.623,0,0,1,6.752,11.133Z" fill="url(#linear-gradient-9)"/>
            </g>
            <g id="Group_36291" data-name="Group 36291" transform="matrix(0.934, 0.358, -0.358, 0.934, 313.835, 808.207)">
              <circle id="Ellipse_1394" data-name="Ellipse 1394" cx="5.623" cy="5.623" r="5.623" transform="translate(0 0)" fill="url(#linear-gradient-10)"/>
            </g>
            <g id="Group_36292" data-name="Group 36292" transform="matrix(0.934, 0.358, -0.358, 0.934, 446.262, 903.122)">
              <path id="Path_65986" data-name="Path 65986" d="M6.75,11.136A5.624,5.624,0,1,1,11.134,4.5,5.624,5.624,0,0,1,6.75,11.136Z" fill="url(#linear-gradient-11)"/>
            </g>
            <g id="Group_36305" data-name="Group 36305" transform="matrix(0.934, 0.358, -0.358, 0.934, 262.648, 21.885)">
              <g id="Group_36294" data-name="Group 36294" transform="translate(34.933 63.299)" style="mix-blend-mode: overlay;isolation: isolate">
                <path id="Path_65987" data-name="Path 65987" d="M143.682,6.194C167.162,1.275,192.969-.755,220.764.25c89.684,3.25,189.168,37.785,280.12,97.234S663.389,234.2,702.356,315.043c39.021,80.946,40.713,155.807,4.772,210.79S601.938,609.3,512.139,606.052c-89.684-3.252-189.167-37.785-280.12-97.234S69.515,372.1,30.548,291.259c-39.017-80.946-40.713-155.8-4.772-210.788l.514.333-.514-.333C50.591,42.5,91.3,17.165,143.682,6.194ZM588.775,598.753c50.908-10.661,92.167-35.107,117.324-73.592,73.755-112.833-18.607-304.229-205.887-426.645C376.8,17.852,242.487-13.041,144.128,7.549,93.22,18.21,51.961,42.657,26.807,81.141c-35.7,54.61-33.976,129.04,4.848,209.586,38.873,80.643,110.27,157.729,201.036,217.059C356.1,588.452,490.42,619.355,588.775,598.753Z" fill="url(#linear-gradient-33)"/>
              </g>
              <g id="Group_36295" data-name="Group 36295" transform="translate(98.234)" style="isolation: isolate">
                <path id="Path_65988" data-name="Path 65988" d="M388.034,5.056c52.381-10.97,99.828-4.1,137.8,20.719,54.987,35.941,83.475,105.189,80.22,194.989-3.253,89.685-37.785,189.167-97.238,280.12S372.1,663.384,291.256,702.356c-80.949,39.017-155.806,40.705-210.789,4.767S-3.007,601.938.252,512.138C3.5,422.453,38.033,322.967,97.485,232.014S234.2,69.514,315.041,30.544C340.091,18.47,364.558,9.972,388.034,5.056Zm-169.9,721.363c98.359-20.6,208.978-102.793,289.65-226.207,59.331-90.77,93.8-190.026,97.04-279.492C608.061,131.367,579.77,62.5,525.162,26.8,412.325-46.952,220.93,45.406,98.513,232.691S-31.7,632.342,81.139,706.1C119.617,731.246,167.237,737.082,218.134,726.419Z" fill="url(#linear-gradient-34)"/>
              </g>
              <g id="Group_36296" data-name="Group 36296" transform="translate(0.677 110.358)" style="mix-blend-mode: overlay;isolation: isolate">
                <path id="Path_65989" data-name="Path 65989" d="M357.458,14.056c102.225-21.412,203.168-18.3,285.4,8.937,85.3,28.256,140.273,79.1,154.786,143.165S784.47,299.8,719.682,362.058C654.973,424.244,560.973,471.712,455,495.724c-105.966,23.989-211.252,21.694-296.445-6.53C73.256,460.94,18.284,410.093,3.77,346.029s13.173-133.638,77.963-195.9c64.71-62.184,158.71-109.653,264.683-133.668Q351.934,15.211,357.458,14.056ZM443.7,496.932q5.518-1.16,11.035-2.409c218.2-49.441,371.5-196.623,341.711-328.091C767.156,37.159,571.564-29.52,357.587,15.285c-3.64.762-7.252,1.55-10.9,2.376C128.475,67.1-24.819,214.286,4.97,345.757c14.417,63.628,69.1,114.154,153.973,142.268C240.971,515.2,341.69,518.293,443.7,496.932Z" fill="url(#linear-gradient-35)"/>
              </g>
              <g id="Group_36297" data-name="Group 36297" transform="translate(751.19 424.789)">
                <path id="Path_65990" data-name="Path 65990" d="M.12,6.779a5.625,5.625,0,1,1,6.659,4.353A5.625,5.625,0,0,1,.12,6.779Z" fill="url(#linear-gradient-36)"/>
              </g>
              <g id="Group_36298" data-name="Group 36298" transform="translate(691.93 149.877)">
                <circle id="Ellipse_1396" data-name="Ellipse 1396" cx="5.623" cy="5.623" r="5.623" transform="translate(0 5.966) rotate(-32.038)" fill="url(#linear-gradient-37)"/>
              </g>
              <g id="Group_36299" data-name="Group 36299" transform="translate(95.441 566.854)">
                <path id="Path_65991" data-name="Path 65991" d="M.12,6.777a5.624,5.624,0,1,1,6.658,4.352A5.624,5.624,0,0,1,.12,6.777Z" fill="url(#linear-gradient-38)"/>
              </g>
              <g id="Group_36300" data-name="Group 36300" transform="translate(335.595 70.358)">
                <path id="Path_65992" data-name="Path 65992" d="M.12,6.778a5.623,5.623,0,1,1,6.655,4.348A5.623,5.623,0,0,1,.12,6.778Z" fill="url(#linear-gradient-39)"/>
              </g>
              <g id="Group_36301" data-name="Group 36301" transform="translate(456.765 651.119)">
                <path id="Path_65993" data-name="Path 65993" d="M.12,6.779A5.623,5.623,0,1,1,6.775,11.13,5.623,5.623,0,0,1,.12,6.779Z" fill="url(#linear-gradient-40)"/>
              </g>
              <g id="Group_36302" data-name="Group 36302" transform="translate(38.409 294.438)">
                <circle id="Ellipse_1397" data-name="Ellipse 1397" cx="5.624" cy="5.624" r="5.624" transform="translate(0 9.847) rotate(-61.101)" fill="url(#linear-gradient-41)"/>
              </g>
              <g id="Group_36303" data-name="Group 36303" transform="translate(0 454.291)">
                <path id="Path_65994" data-name="Path 65994" d="M.12,6.775a5.622,5.622,0,1,1,6.655,4.353A5.622,5.622,0,0,1,.12,6.775Z" fill="url(#linear-gradient-42)"/>
              </g>
              <g id="Group_36304" data-name="Group 36304" transform="translate(790.8 265.307)">
                <path id="Path_65995" data-name="Path 65995" d="M.12,6.779a5.623,5.623,0,1,1,6.659,4.352A5.623,5.623,0,0,1,.12,6.779Z" fill="url(#linear-gradient-43)"/>
              </g>
            </g>
            <g id="Group_36318" data-name="Group 36318" transform="matrix(0.934, 0.358, -0.358, 0.934, 272.576, 93.499)">
              <path id="Path_66005" data-name="Path 66005" d="M143.682,6.194C167.162,1.275,192.969-.755,220.764.25c89.684,3.25,189.168,37.785,280.12,97.234S663.389,234.2,702.356,315.043c39.021,80.946,40.713,155.807,4.772,210.79S601.938,609.3,512.139,606.052c-89.684-3.252-189.167-37.785-280.12-97.234S69.515,372.1,30.548,291.259c-39.017-80.946-40.713-155.8-4.772-210.788l.514.333-.514-.333C50.591,42.5,91.3,17.165,143.682,6.194ZM588.775,598.753c50.908-10.661,92.167-35.107,117.324-73.592,73.755-112.833-18.607-304.229-205.887-426.645C376.8,17.852,242.487-13.041,144.128,7.549,93.22,18.21,51.961,42.657,26.807,81.141c-35.7,54.61-33.976,129.04,4.848,209.586,38.873,80.643,110.27,157.729,201.036,217.059C356.1,588.452,490.42,619.355,588.775,598.753Z" fill="url(#linear-gradient-33)"/>
            </g>
            <g id="Group_36320" data-name="Group 36320" transform="matrix(0.934, 0.358, -0.358, 0.934, 223.731, 125.156)">
              <path id="Path_66007" data-name="Path 66007" d="M357.458,14.056c102.225-21.412,203.168-18.3,285.4,8.937,85.3,28.256,140.273,79.1,154.786,143.165S784.47,299.8,719.682,362.058C654.973,424.244,560.973,471.712,455,495.724c-105.966,23.989-211.252,21.694-296.445-6.53C73.256,460.94,18.284,410.093,3.77,346.029s13.173-133.638,77.963-195.9c64.71-62.184,158.71-109.653,264.683-133.668Q351.934,15.211,357.458,14.056ZM443.7,496.932q5.518-1.16,11.035-2.409c218.2-49.441,371.5-196.623,341.711-328.091C767.156,37.159,571.564-29.52,357.587,15.285c-3.64.762-7.252,1.55-10.9,2.376C128.475,67.1-24.819,214.286,4.97,345.757c14.417,63.628,69.1,114.154,153.973,142.268C240.971,515.2,341.69,518.293,443.7,496.932Z" fill="url(#linear-gradient-35)"/>
            </g>
            <g id="Group_36321" data-name="Group 36321" transform="matrix(0.934, 0.358, -0.358, 0.934, 811.713, 687.662)">
              <path id="Path_66008" data-name="Path 66008" d="M.12,6.779a5.625,5.625,0,1,1,6.659,4.353A5.625,5.625,0,0,1,.12,6.779Z" fill="url(#linear-gradient-36)"/>
            </g>
            <g id="Group_36322" data-name="Group 36322" transform="matrix(0.934, 0.358, -0.358, 0.934, 854.909, 409.773)">
              <circle id="Ellipse_1400" data-name="Ellipse 1400" cx="5.623" cy="5.623" r="5.623" transform="translate(0 5.966) rotate(-32.038)" fill="url(#linear-gradient-37)"/>
            </g>
            <g id="Group_36323" data-name="Group 36323" transform="matrix(0.934, 0.358, -0.358, 0.934, 148.607, 585.292)">
              <path id="Path_66009" data-name="Path 66009" d="M.12,6.777a5.624,5.624,0,1,1,6.658,4.352A5.624,5.624,0,0,1,.12,6.777Z" fill="url(#linear-gradient-38)"/>
            </g>
            <g id="Group_36324" data-name="Group 36324" transform="matrix(0.934, 0.358, -0.358, 0.934, 550.738, 207.836)">
              <path id="Path_66010" data-name="Path 66010" d="M.12,6.778a5.623,5.623,0,1,1,6.655,4.348A5.623,5.623,0,0,1,.12,6.778Z" fill="url(#linear-gradient-39)"/>
            </g>
            <g id="Group_36325" data-name="Group 36325" transform="matrix(0.934, 0.358, -0.358, 0.934, 455.734, 793.447)">
              <path id="Path_66011" data-name="Path 66011" d="M.12,6.779A5.623,5.623,0,1,1,6.775,11.13,5.623,5.623,0,0,1,.12,6.779Z" fill="url(#linear-gradient-40)"/>
            </g>
            <g id="Group_36326" data-name="Group 36326" transform="matrix(0.934, 0.358, -0.358, 0.934, 192.988, 310.531)">
              <circle id="Ellipse_1401" data-name="Ellipse 1401" cx="5.624" cy="5.624" r="5.624" transform="translate(0 9.847) rotate(-61.101)" fill="url(#linear-gradient-41)"/>
            </g>
            <g id="Group_36327" data-name="Group 36327" transform="matrix(0.934, 0.358, -0.358, 0.934, 99.844, 446.002)">
              <path id="Path_66012" data-name="Path 66012" d="M.12,6.775a5.622,5.622,0,1,1,6.655,4.353A5.622,5.622,0,0,1,.12,6.775Z" fill="url(#linear-gradient-42)"/>
            </g>
            <g id="Group_36328" data-name="Group 36328" transform="matrix(0.934, 0.358, -0.358, 0.934, 905.846, 552.968)">
              <path id="Path_66013" data-name="Path 66013" d="M.12,6.779a5.623,5.623,0,1,1,6.659,4.352A5.623,5.623,0,0,1,.12,6.779Z" fill="url(#linear-gradient-43)"/>
            </g>
          </g>
        </g>
        <g id="Group_36376" data-name="Group 36376" transform="translate(12.237 12.267)">
          <g id="Group_36293-2" data-name="Group 36293" transform="matrix(0.934, 0.358, -0.358, 0.934, 988.324, 1655.57)">
            <circle id="Ellipse_1395-2" data-name="Ellipse 1395" cx="4.599" cy="4.599" r="4.599" transform="translate(0 7.295) rotate(-52.477)" fill="url(#linear-gradient)"/>
          </g>
          <g id="Group_36374-2" data-name="Group 36374" transform="translate(533.874 1578.114)">
            <g id="Group_36270-2" data-name="Group 36270" transform="matrix(0.934, 0.358, -0.358, 0.934, 252.673, 0)">
              <g id="Group_36259-2" data-name="Group 36259" transform="translate(50.667 30.686)" style="mix-blend-mode: overlay;isolation: isolate">
                <path id="Path_65960-2" data-name="Path 65960" d="M4.83,480.28C.9,461.059-.669,439.944.26,417.216c3-73.337,31.617-154.57,80.585-228.729S193.274,56.1,259.538,24.533c66.349-31.6,127.578-32.708,172.415-3.106s67.865,86.345,64.871,159.776c-3,73.338-31.617,154.57-80.585,228.731S303.812,542.323,237.546,573.887c-66.349,31.6-127.581,32.708-172.414,3.1l.276-.42-.276.42C34.172,556.551,13.6,523.161,4.83,480.28ZM491.142,118.5c-8.529-41.677-28.366-75.513-59.745-96.233C339.4-38.48,182.512,36.333,81.683,189.039,15.246,289.665-10.529,399.4,5.941,479.922,14.467,521.6,34.3,555.434,65.684,576.154c44.53,29.4,105.41,28.272,171.43-3.175,66.1-31.487,129.418-89.586,178.284-163.6C481.838,308.756,507.618,199.016,491.142,118.5Z" fill="url(#linear-gradient-2)"/>
              </g>
              <g id="Group_36260-2" data-name="Group 36260" transform="translate(0 81.356)" style="mix-blend-mode: overlay;isolation: isolate">
                <path id="Path_65961-2" data-name="Path 65961" d="M3.961,177.753C-4.815,134.869.986,96.09,21.426,65.129,51.03,20.3,107.772-2.744,181.2.261c73.337,3,154.567,31.616,228.73,80.585S542.321,193.271,573.888,259.538c31.6,66.352,32.7,127.581,3.1,172.412s-86.345,67.871-159.774,64.871c-73.338-3-154.572-31.617-228.733-80.586S56.1,303.811,24.53,237.543C14.752,217.012,7.893,196.972,3.961,177.753Zm589.333,141.68c-16.479-80.524-83.28-171.3-183.915-237.75C335.368,32.818,254.322,4.257,181.163,1.266,108.1-1.723,51.668,21.154,22.267,65.685-38.481,157.69,36.329,314.573,189.036,415.4s326.364,108,387.114,16c20.717-31.378,25.669-70.3,17.143-111.967Z" fill="url(#linear-gradient-3)"/>
              </g>
              <g id="Group_36261-2" data-name="Group 36261" transform="translate(90.092 1.959)" style="mix-blend-mode: overlay;isolation: isolate">
                <path id="Path_65962-2" data-name="Path 65962" d="M11,362.393C-6.125,278.708-3.2,196.162,19.39,129.011,42.822,59.355,84.611,14.586,137.065,2.957S246.31,14.237,296.986,67.463c50.614,53.157,89.082,130.215,108.32,216.975,19.221,86.757,16.943,172.858-6.463,242.426-23.429,69.655-65.223,114.42-117.674,126.049s-109.246-11.276-159.924-64.5C70.633,535.255,32.166,458.2,12.927,371.436Q11.923,366.917,11,362.393Zm395.246-68.7q-.925-4.518-1.925-9.034C364.714,106,244.917-19.922,137.282,3.939,31.446,27.407-23.826,187.122,12.008,362.293c.608,2.98,1.237,5.937,1.9,8.925C53.52,549.87,173.313,675.8,280.954,651.932c52.092-11.549,93.622-56.081,116.937-125.388,22.532-66.985,25.445-149.344,8.358-232.854Z" fill="url(#linear-gradient-4)"/>
              </g>
              <g id="Group_36262-2" data-name="Group 36262" transform="translate(348.266 34.846)">
                <path id="Path_65963-2" data-name="Path 65963" d="M5.524,9.108A4.6,4.6,0,1,1,9.106,3.679,4.6,4.6,0,0,1,5.524,9.108Z" fill="url(#linear-gradient-5)"/>
              </g>
              <g id="Group_36263-2" data-name="Group 36263" transform="translate(124.949 80.543)">
                <path id="Path_65964-2" data-name="Path 65964" d="M5.523,9.106A4.6,4.6,0,1,1,9.106,3.678,4.6,4.6,0,0,1,5.523,9.106Z" fill="url(#linear-gradient-6)"/>
              </g>
              <g id="Group_36264-2" data-name="Group 36264" transform="translate(461.974 571.693)">
                <path id="Path_65965-2" data-name="Path 65965" d="M5.522,9.1A4.6,4.6,0,1,1,9.1,3.677,4.6,4.6,0,0,1,5.522,9.1Z" fill="url(#linear-gradient-7)"/>
              </g>
              <g id="Group_36265-2" data-name="Group 36265" transform="translate(56.819 373.404)">
                <path id="Path_65966-2" data-name="Path 65966" d="M5.524,9.107A4.6,4.6,0,1,1,9.106,3.679,4.6,4.6,0,0,1,5.524,9.107Z" fill="url(#linear-gradient-8)"/>
              </g>
              <g id="Group_36266-2" data-name="Group 36266" transform="translate(532.258 276.502)">
                <path id="Path_65967-2" data-name="Path 65967" d="M5.522,9.1A4.6,4.6,0,1,1,9.1,3.676,4.6,4.6,0,0,1,5.522,9.1Z" fill="url(#linear-gradient-9)"/>
              </g>
              <g id="Group_36267-2" data-name="Group 36267" transform="translate(240.619 615.667)">
                <circle id="Ellipse_1390-2" data-name="Ellipse 1390" cx="4.599" cy="4.599" r="4.599" transform="translate(0 0)" fill="url(#linear-gradient-10)"/>
              </g>
              <g id="Group_36268-2" data-name="Group 36268" transform="translate(369.552 649.325)">
                <path id="Path_65968-2" data-name="Path 65968" d="M5.521,9.108A4.6,4.6,0,1,1,9.106,3.679,4.6,4.6,0,0,1,5.521,9.108Z" fill="url(#linear-gradient-11)"/>
              </g>
              <g id="Group_36269-2" data-name="Group 36269" transform="translate(216.133)">
                <circle id="Ellipse_1391-2" data-name="Ellipse 1391" cx="4.599" cy="4.599" r="4.599" transform="translate(0 7.295) rotate(-52.477)" fill="url(#linear-gradient)"/>
              </g>
            </g>
            <g id="Group_36282-2" data-name="Group 36282" transform="matrix(0.934, 0.358, -0.358, 0.934, 252.673, 0)">
              <g id="Group_36271-2" data-name="Group 36271" transform="translate(50.667 30.686)" style="mix-blend-mode: overlay;isolation: isolate">
                <path id="Path_65969-2" data-name="Path 65969" d="M4.83,480.28C.9,461.059-.669,439.944.26,417.216c3-73.337,31.617-154.57,80.585-228.729S193.274,56.1,259.538,24.533c66.349-31.6,127.578-32.708,172.415-3.106s67.865,86.345,64.871,159.776c-3,73.338-31.617,154.57-80.585,228.731S303.812,542.323,237.546,573.887c-66.349,31.6-127.581,32.708-172.414,3.1l.276-.42-.276.42C34.172,556.551,13.6,523.161,4.83,480.28ZM491.142,118.5c-8.529-41.677-28.366-75.513-59.745-96.233C339.4-38.48,182.512,36.333,81.683,189.039,15.246,289.665-10.529,399.4,5.941,479.922,14.467,521.6,34.3,555.434,65.684,576.154c44.53,29.4,105.41,28.272,171.43-3.175,66.1-31.487,129.418-89.586,178.284-163.6C481.838,308.756,507.618,199.016,491.142,118.5Z" fill="url(#linear-gradient-2)"/>
              </g>
              <g id="Group_36272-2" data-name="Group 36272" transform="translate(0 81.356)" style="mix-blend-mode: overlay;isolation: isolate">
                <path id="Path_65970-2" data-name="Path 65970" d="M3.961,177.753C-4.815,134.869.986,96.09,21.426,65.129,51.03,20.3,107.772-2.744,181.2.261c73.337,3,154.567,31.616,228.73,80.585S542.321,193.271,573.888,259.538c31.6,66.352,32.7,127.581,3.1,172.412s-86.345,67.871-159.774,64.871c-73.338-3-154.572-31.617-228.733-80.586S56.1,303.811,24.53,237.543C14.752,217.012,7.893,196.972,3.961,177.753Zm589.333,141.68c-16.479-80.524-83.28-171.3-183.915-237.75C335.368,32.818,254.322,4.257,181.163,1.266,108.1-1.723,51.668,21.154,22.267,65.685-38.481,157.69,36.329,314.573,189.036,415.4s326.364,108,387.114,16c20.717-31.378,25.669-70.3,17.143-111.967Z" fill="url(#linear-gradient-3)"/>
              </g>
              <g id="Group_36273-2" data-name="Group 36273" transform="translate(90.092 1.959)" style="mix-blend-mode: overlay;isolation: isolate">
                <path id="Path_65971-2" data-name="Path 65971" d="M11,362.393C-6.125,278.708-3.2,196.162,19.39,129.011,42.822,59.355,84.611,14.586,137.065,2.957S246.31,14.237,296.986,67.463c50.614,53.157,89.082,130.215,108.32,216.975,19.221,86.757,16.943,172.858-6.463,242.426-23.429,69.655-65.223,114.42-117.674,126.049s-109.246-11.276-159.924-64.5C70.633,535.255,32.166,458.2,12.927,371.436Q11.923,366.917,11,362.393Zm395.246-68.7q-.925-4.518-1.925-9.034C364.714,106,244.917-19.922,137.282,3.939,31.446,27.407-23.826,187.122,12.008,362.293c.608,2.98,1.237,5.937,1.9,8.925C53.52,549.87,173.313,675.8,280.954,651.932c52.092-11.549,93.622-56.081,116.937-125.388,22.532-66.985,25.445-149.344,8.358-232.854Z" fill="url(#linear-gradient-4)"/>
              </g>
              <g id="Group_36274-2" data-name="Group 36274" transform="translate(348.266 34.846)">
                <path id="Path_65972-2" data-name="Path 65972" d="M5.524,9.108A4.6,4.6,0,1,1,9.106,3.679,4.6,4.6,0,0,1,5.524,9.108Z" fill="url(#linear-gradient-5)"/>
              </g>
              <g id="Group_36275-2" data-name="Group 36275" transform="translate(124.949 80.543)">
                <path id="Path_65973-2" data-name="Path 65973" d="M5.523,9.106A4.6,4.6,0,1,1,9.106,3.678,4.6,4.6,0,0,1,5.523,9.106Z" fill="url(#linear-gradient-6)"/>
              </g>
              <g id="Group_36276-2" data-name="Group 36276" transform="translate(461.974 571.693)">
                <path id="Path_65974-2" data-name="Path 65974" d="M5.522,9.1A4.6,4.6,0,1,1,9.1,3.677,4.6,4.6,0,0,1,5.522,9.1Z" fill="url(#linear-gradient-7)"/>
              </g>
              <g id="Group_36277-2" data-name="Group 36277" transform="translate(56.819 373.404)">
                <path id="Path_65975-2" data-name="Path 65975" d="M5.524,9.107A4.6,4.6,0,1,1,9.106,3.679,4.6,4.6,0,0,1,5.524,9.107Z" fill="url(#linear-gradient-8)"/>
              </g>
              <g id="Group_36278-2" data-name="Group 36278" transform="translate(532.258 276.502)">
                <path id="Path_65976-2" data-name="Path 65976" d="M5.522,9.1A4.6,4.6,0,1,1,9.1,3.676,4.6,4.6,0,0,1,5.522,9.1Z" fill="url(#linear-gradient-9)"/>
              </g>
              <g id="Group_36279-2" data-name="Group 36279" transform="translate(240.619 615.667)">
                <circle id="Ellipse_1392-2" data-name="Ellipse 1392" cx="4.599" cy="4.599" r="4.599" transform="translate(0 0)" fill="url(#linear-gradient-10)"/>
              </g>
              <g id="Group_36280-2" data-name="Group 36280" transform="translate(369.552 649.325)">
                <path id="Path_65977-2" data-name="Path 65977" d="M5.521,9.108A4.6,4.6,0,1,1,9.106,3.679,4.6,4.6,0,0,1,5.521,9.108Z" fill="url(#linear-gradient-11)"/>
              </g>
              <g id="Group_36281-2" data-name="Group 36281" transform="translate(216.133)">
                <circle id="Ellipse_1393-2" data-name="Ellipse 1393" cx="4.599" cy="4.599" r="4.599" transform="translate(0 7.295) rotate(-52.477)" fill="url(#linear-gradient)"/>
              </g>
            </g>
            <g id="Group_36284-2" data-name="Group 36284" transform="matrix(0.934, 0.358, -0.358, 0.934, 223.517, 75.952)">
              <path id="Path_65979-2" data-name="Path 65979" d="M3.961,177.753C-4.815,134.869.986,96.09,21.426,65.129,51.03,20.3,107.772-2.744,181.2.261c73.337,3,154.567,31.616,228.73,80.585S542.321,193.271,573.888,259.538c31.6,66.352,32.7,127.581,3.1,172.412s-86.345,67.871-159.774,64.871c-73.338-3-154.572-31.617-228.733-80.586S56.1,303.811,24.53,237.543C14.752,217.012,7.893,196.972,3.961,177.753Zm589.333,141.68c-16.479-80.524-83.28-171.3-183.915-237.75C335.368,32.818,254.322,4.257,181.163,1.266,108.1-1.723,51.668,21.154,22.267,65.685-38.481,157.69,36.329,314.573,189.036,415.4s326.364,108,387.114,16c20.717-31.378,25.669-70.3,17.143-111.967Z" fill="url(#linear-gradient-3)"/>
            </g>
            <g id="Group_36285-2" data-name="Group 36285" transform="matrix(0.934, 0.358, -0.358, 0.934, 336.079, 34.115)">
              <path id="Path_65980-2" data-name="Path 65980" d="M11,362.393C-6.125,278.708-3.2,196.162,19.39,129.011,42.822,59.355,84.611,14.586,137.065,2.957S246.31,14.237,296.986,67.463c50.614,53.157,89.082,130.215,108.32,216.975,19.221,86.757,16.943,172.858-6.463,242.426-23.429,69.655-65.223,114.42-117.674,126.049s-109.246-11.276-159.924-64.5C70.633,535.255,32.166,458.2,12.927,371.436Q11.923,366.917,11,362.393Zm395.246-68.7q-.925-4.518-1.925-9.034C364.714,106,244.917-19.922,137.282,3.939,31.446,27.407-23.826,187.122,12.008,362.293c.608,2.98,1.237,5.937,1.9,8.925C53.52,549.87,173.313,675.8,280.954,651.932c52.092-11.549,93.622-56.081,116.937-125.388,22.532-66.985,25.445-149.344,8.358-232.854Z" fill="url(#linear-gradient-4)"/>
            </g>
            <g id="Group_36286-2" data-name="Group 36286" transform="matrix(0.934, 0.358, -0.358, 0.934, 565.319, 157.339)">
              <path id="Path_65981-2" data-name="Path 65981" d="M5.524,9.108A4.6,4.6,0,1,1,9.106,3.679,4.6,4.6,0,0,1,5.524,9.108Z" fill="url(#linear-gradient-5)"/>
            </g>
            <g id="Group_36287-2" data-name="Group 36287" transform="matrix(0.934, 0.358, -0.358, 0.934, 340.459, 119.971)">
              <path id="Path_65982-2" data-name="Path 65982" d="M5.523,9.106A4.6,4.6,0,1,1,9.106,3.678,4.6,4.6,0,0,1,5.523,9.106Z" fill="url(#linear-gradient-6)"/>
            </g>
            <g id="Group_36288-2" data-name="Group 36288" transform="matrix(0.934, 0.358, -0.358, 0.934, 479.086, 699.278)">
              <path id="Path_65983-2" data-name="Path 65983" d="M5.522,9.1A4.6,4.6,0,1,1,9.1,3.677,4.6,4.6,0,0,1,5.522,9.1Z" fill="url(#linear-gradient-7)"/>
            </g>
            <g id="Group_36289-2" data-name="Group 36289" transform="matrix(0.934, 0.358, -0.358, 0.934, 171.901, 368.966)">
              <path id="Path_65984-2" data-name="Path 65984" d="M5.524,9.107A4.6,4.6,0,1,1,9.106,3.679,4.6,4.6,0,0,1,5.524,9.107Z" fill="url(#linear-gradient-8)"/>
            </g>
            <g id="Group_36290-2" data-name="Group 36290" transform="matrix(0.934, 0.358, -0.358, 0.934, 650.489, 448.881)">
              <path id="Path_65985-2" data-name="Path 65985" d="M5.522,9.1A4.6,4.6,0,1,1,9.1,3.676,4.6,4.6,0,0,1,5.522,9.1Z" fill="url(#linear-gradient-9)"/>
            </g>
            <g id="Group_36291-2" data-name="Group 36291" transform="matrix(0.934, 0.358, -0.358, 0.934, 256.675, 661.005)">
              <circle id="Ellipse_1394-2" data-name="Ellipse 1394" cx="4.599" cy="4.599" r="4.599" transform="translate(0 0)" fill="url(#linear-gradient-10)"/>
            </g>
            <g id="Group_36292-2" data-name="Group 36292" transform="matrix(0.934, 0.358, -0.358, 0.934, 364.982, 738.633)">
              <path id="Path_65986-2" data-name="Path 65986" d="M5.521,9.108A4.6,4.6,0,1,1,9.106,3.679,4.6,4.6,0,0,1,5.521,9.108Z" fill="url(#linear-gradient-11)"/>
            </g>
            <g id="Group_36305-2" data-name="Group 36305" transform="matrix(0.934, 0.358, -0.358, 0.934, 214.811, 17.899)">
              <g id="Group_36294-2" data-name="Group 36294" transform="translate(28.571 51.77)" style="mix-blend-mode: overlay;isolation: isolate">
                <path id="Path_65987-2" data-name="Path 65987" d="M117.513,5.066c19.2-4.023,40.31-5.684,63.043-4.861,73.349,2.66,154.713,30.9,229.1,79.524S542.563,191.547,574.433,257.663c31.914,66.2,33.3,127.429,3.9,172.4S492.3,498.326,418.861,495.669c-73.349-2.659-154.713-30.9-229.1-79.524S56.854,304.33,24.984,238.211c-31.91-66.2-33.3-127.426-3.9-172.4l.421.272-.421-.272C41.377,34.761,74.672,14.039,117.513,5.066ZM481.539,489.7c41.636-8.719,75.381-28.713,95.956-60.188,60.321-92.282-15.218-248.818-168.388-348.938C308.175,14.6,198.322-10.666,117.877,6.174,76.241,14.894,42.5,34.887,21.925,66.363-7.271,111.026-5.863,171.9,25.889,237.776c31.793,65.955,90.187,129,164.42,177.525C291.241,481.274,401.1,506.549,481.539,489.7Z" fill="url(#linear-gradient-33)"/>
              </g>
              <g id="Group_36295-2" data-name="Group 36295" transform="translate(80.342)" style="isolation: isolate">
                <path id="Path_65988-2" data-name="Path 65988" d="M317.36,4.135C360.2-4.837,399.006.781,430.06,21.08c44.972,29.395,68.271,86.031,65.609,159.475-2.66,73.35-30.9,154.713-79.528,229.1s-111.815,132.9-177.934,164.778c-66.205,31.91-127.428,33.292-172.4,3.9S-2.46,492.3.206,418.86c2.657-73.35,30.9-154.716,79.524-229.1S191.544,56.853,257.661,24.981C278.149,15.106,298.16,8.156,317.36,4.135ZM178.4,594.114c80.449-16.849,170.92-84.072,236.9-185.008,48.525-74.238,76.712-155.416,79.366-228.587,2.648-73.079-20.49-129.4-65.153-158.6C337.227-38.4,180.691,37.136,80.57,190.31S-25.924,517.171,66.361,577.491C97.831,598.061,136.777,602.834,178.4,594.114Z" fill="url(#linear-gradient-34)"/>
              </g>
              <g id="Group_36296-2" data-name="Group 36296" transform="translate(0.554 90.258)" style="mix-blend-mode: overlay;isolation: isolate">
                <path id="Path_65989-2" data-name="Path 65989" d="M292.353,11.5c83.606-17.516,166.163-14.975,233.42,7.305C595.537,41.915,640.5,83.5,652.367,135.9S641.593,245.2,588.6,296.118C535.68,346.975,458.8,385.8,372.13,405.436c-86.666,19.62-172.776,17.742-242.452-5.34C59.913,376.987,14.954,335.4,3.083,283.005s10.774-109.3,63.763-160.22C119.77,71.927,196.649,33.1,283.321,13.463Q287.835,12.44,292.353,11.5Zm70.531,394.928q4.513-.948,9.025-1.97c178.466-40.436,303.837-160.811,279.476-268.334C627.431,30.391,467.462-24.143,292.458,12.5c-2.977.624-5.931,1.267-8.917,1.944C105.076,54.881-20.3,175.257,4.065,282.783c11.791,52.039,56.512,93.363,125.93,116.356,67.087,22.226,149.461,24.755,232.889,7.285Z" fill="url(#linear-gradient-35)"/>
              </g>
              <g id="Group_36297-2" data-name="Group 36297" transform="translate(614.372 347.42)">
                <path id="Path_65990-2" data-name="Path 65990" d="M.1,5.544A4.6,4.6,0,1,1,5.544,9.1,4.6,4.6,0,0,1,.1,5.544Z" fill="url(#linear-gradient-36)"/>
              </g>
              <g id="Group_36298-2" data-name="Group 36298" transform="translate(565.906 122.579)">
                <circle id="Ellipse_1396-2" data-name="Ellipse 1396" cx="4.599" cy="4.599" r="4.599" transform="translate(0 4.88) rotate(-32.038)" fill="url(#linear-gradient-37)"/>
              </g>
              <g id="Group_36299-2" data-name="Group 36299" transform="translate(78.058 463.61)">
                <path id="Path_65991-2" data-name="Path 65991" d="M.1,5.542A4.6,4.6,0,1,1,5.544,9.1,4.6,4.6,0,0,1,.1,5.542Z" fill="url(#linear-gradient-38)"/>
              </g>
              <g id="Group_36300-2" data-name="Group 36300" transform="translate(274.472 57.544)">
                <path id="Path_65992-2" data-name="Path 65992" d="M.1,5.543A4.6,4.6,0,1,1,5.541,9.1,4.6,4.6,0,0,1,.1,5.543Z" fill="url(#linear-gradient-39)"/>
              </g>
              <g id="Group_36301-2" data-name="Group 36301" transform="translate(373.572 532.529)">
                <path id="Path_65993-2" data-name="Path 65993" d="M.1,5.544A4.6,4.6,0,1,1,5.541,9.1,4.6,4.6,0,0,1,.1,5.544Z" fill="url(#linear-gradient-40)"/>
              </g>
              <g id="Group_36302-2" data-name="Group 36302" transform="translate(31.413 240.811)">
                <circle id="Ellipse_1397-2" data-name="Ellipse 1397" cx="4.599" cy="4.599" r="4.599" transform="translate(0 8.053) rotate(-61.101)" fill="url(#linear-gradient-41)"/>
              </g>
              <g id="Group_36303-2" data-name="Group 36303" transform="translate(0 371.55)">
                <path id="Path_65994-2" data-name="Path 65994" d="M.1,5.541A4.6,4.6,0,1,1,5.541,9.1,4.6,4.6,0,0,1,.1,5.541Z" fill="url(#linear-gradient-42)"/>
              </g>
              <g id="Group_36304-2" data-name="Group 36304" transform="translate(646.768 216.986)">
                <path id="Path_65995-2" data-name="Path 65995" d="M.1,5.544A4.6,4.6,0,1,1,5.545,9.1,4.6,4.6,0,0,1,.1,5.544Z" fill="url(#linear-gradient-43)"/>
              </g>
            </g>
            <g id="Group_36318-2" data-name="Group 36318" transform="matrix(0.934, 0.358, -0.358, 0.934, 222.931, 76.47)">
              <path id="Path_66005-2" data-name="Path 66005" d="M117.513,5.066c19.2-4.023,40.31-5.684,63.043-4.861,73.349,2.66,154.713,30.9,229.1,79.524S542.563,191.547,574.433,257.663c31.914,66.2,33.3,127.429,3.9,172.4S492.3,498.326,418.861,495.669c-73.349-2.659-154.713-30.9-229.1-79.524S56.854,304.33,24.984,238.211c-31.91-66.2-33.3-127.426-3.9-172.4l.421.272-.421-.272C41.377,34.761,74.672,14.039,117.513,5.066ZM481.539,489.7c41.636-8.719,75.381-28.713,95.956-60.188,60.321-92.282-15.218-248.818-168.388-348.938C308.175,14.6,198.322-10.666,117.877,6.174,76.241,14.894,42.5,34.887,21.925,66.363-7.271,111.026-5.863,171.9,25.889,237.776c31.793,65.955,90.187,129,164.42,177.525C291.241,481.274,401.1,506.549,481.539,489.7Z" fill="url(#linear-gradient-33)"/>
            </g>
            <g id="Group_36320-2" data-name="Group 36320" transform="matrix(0.934, 0.358, -0.358, 0.934, 182.982, 102.361)">
              <path id="Path_66007-2" data-name="Path 66007" d="M292.353,11.5c83.606-17.516,166.163-14.975,233.42,7.305C595.537,41.915,640.5,83.5,652.367,135.9S641.593,245.2,588.6,296.118C535.68,346.975,458.8,385.8,372.13,405.436c-86.666,19.62-172.776,17.742-242.452-5.34C59.913,376.987,14.954,335.4,3.083,283.005s10.774-109.3,63.763-160.22C119.77,71.927,196.649,33.1,283.321,13.463Q287.835,12.44,292.353,11.5Zm70.531,394.928q4.513-.948,9.025-1.97c178.466-40.436,303.837-160.811,279.476-268.334C627.431,30.391,467.462-24.143,292.458,12.5c-2.977.624-5.931,1.267-8.917,1.944C105.076,54.881-20.3,175.257,4.065,282.783c11.791,52.039,56.512,93.363,125.93,116.356,67.087,22.226,149.461,24.755,232.889,7.285Z" fill="url(#linear-gradient-35)"/>
            </g>
            <g id="Group_36321-2" data-name="Group 36321" transform="matrix(0.934, 0.358, -0.358, 0.934, 663.872, 562.415)">
              <path id="Path_66008-2" data-name="Path 66008" d="M.1,5.544A4.6,4.6,0,1,1,5.544,9.1,4.6,4.6,0,0,1,.1,5.544Z" fill="url(#linear-gradient-36)"/>
            </g>
            <g id="Group_36322-2" data-name="Group 36322" transform="matrix(0.934, 0.358, -0.358, 0.934, 699.2, 335.139)">
              <circle id="Ellipse_1400-2" data-name="Ellipse 1400" cx="4.599" cy="4.599" r="4.599" transform="translate(0 4.88) rotate(-32.038)" fill="url(#linear-gradient-37)"/>
            </g>
            <g id="Group_36323-2" data-name="Group 36323" transform="matrix(0.934, 0.358, -0.358, 0.934, 121.541, 478.69)">
              <path id="Path_66009-2" data-name="Path 66009" d="M.1,5.542A4.6,4.6,0,1,1,5.544,9.1,4.6,4.6,0,0,1,.1,5.542Z" fill="url(#linear-gradient-38)"/>
            </g>
            <g id="Group_36324-2" data-name="Group 36324" transform="matrix(0.934, 0.358, -0.358, 0.934, 450.43, 169.982)">
              <path id="Path_66010-2" data-name="Path 66010" d="M.1,5.543A4.6,4.6,0,1,1,5.541,9.1,4.6,4.6,0,0,1,.1,5.543Z" fill="url(#linear-gradient-39)"/>
            </g>
            <g id="Group_36325-2" data-name="Group 36325" transform="matrix(0.934, 0.358, -0.358, 0.934, 372.729, 648.933)">
              <path id="Path_66011-2" data-name="Path 66011" d="M.1,5.544A4.6,4.6,0,1,1,5.541,9.1,4.6,4.6,0,0,1,.1,5.544Z" fill="url(#linear-gradient-40)"/>
            </g>
            <g id="Group_36326-2" data-name="Group 36326" transform="matrix(0.934, 0.358, -0.358, 0.934, 157.838, 253.973)">
              <circle id="Ellipse_1401-2" data-name="Ellipse 1401" cx="4.599" cy="4.599" r="4.599" transform="translate(0 8.053) rotate(-61.101)" fill="url(#linear-gradient-41)"/>
            </g>
            <g id="Group_36327-2" data-name="Group 36327" transform="matrix(0.934, 0.358, -0.358, 0.934, 81.659, 364.77)">
              <path id="Path_66012-2" data-name="Path 66012" d="M.1,5.541A4.6,4.6,0,1,1,5.541,9.1,4.6,4.6,0,0,1,.1,5.541Z" fill="url(#linear-gradient-42)"/>
            </g>
            <g id="Group_36328-2" data-name="Group 36328" transform="matrix(0.934, 0.358, -0.358, 0.934, 740.86, 452.254)">
              <path id="Path_66013-2" data-name="Path 66013" d="M.1,5.544A4.6,4.6,0,1,1,5.545,9.1,4.6,4.6,0,0,1,.1,5.544Z" fill="url(#linear-gradient-43)"/>
            </g>
            <path id="Path_66049" data-name="Path 66049" d="M3.362-40.4Q3-51.48,9.036-58.584t17.022-7.1a22.547,22.547,0,0,1,15.191,5.361,17.786,17.786,0,0,1,6.251,14.2,20.509,20.509,0,0,1-1.564,8.131,18.5,18.5,0,0,1-3.976,6.032,53.631,53.631,0,0,1-5.674,4.781q-3.262,2.413-6.344,4.289A55.564,55.564,0,0,0,23.6-18.329a29.717,29.717,0,0,0-5.317,5.54H47.861v10.9H1.932a32.146,32.146,0,0,1,.625-6.568,17.761,17.761,0,0,1,2.19-5.583q1.564-2.591,2.9-4.423a24.01,24.01,0,0,1,4.2-4.155q2.859-2.323,4.512-3.53t5.317-3.708q.536-.357,3.306-2.234t3.8-2.725q1.028-.849,2.815-2.636a10.735,10.735,0,0,0,2.5-3.619,11.1,11.1,0,0,0,.715-4.066A9.539,9.539,0,0,0,32.224-52.2a9.183,9.183,0,0,0-6.791-2.591,8.018,8.018,0,0,0-7.551,4.244A20.506,20.506,0,0,0,15.514-40.4ZM64.3-33.43q0,3.127.045,5.138a49.658,49.658,0,0,0,.581,5.674,22.6,22.6,0,0,0,1.519,5.853,10.941,10.941,0,0,0,3.083,3.932,7.523,7.523,0,0,0,4.959,1.742,7.65,7.65,0,0,0,5.049-1.742,10.941,10.941,0,0,0,3.083-3.932,22.6,22.6,0,0,0,1.519-5.853q.536-3.664.625-5.674t.089-5.138q0-2.055-.045-3.306t-.223-3.8a32,32,0,0,0-.536-4.244,30.518,30.518,0,0,0-1.117-3.842,11.27,11.27,0,0,0-1.832-3.44,9.509,9.509,0,0,0-2.77-2.234,7.81,7.81,0,0,0-3.842-.938A8.49,8.49,0,0,0,70.2-54.161a7.387,7.387,0,0,0-2.949,3.217,29.741,29.741,0,0,0-1.7,4.066,22.919,22.919,0,0,0-.894,4.959q-.268,3.038-.313,4.512T64.3-33.43Zm-12.689,0q0-17.156,6.3-24.707a20.532,20.532,0,0,1,16.576-7.551,23.292,23.292,0,0,1,8.936,1.653,20.07,20.07,0,0,1,7.283,5.272,24.677,24.677,0,0,1,5.05,10.053,57.544,57.544,0,0,1,1.787,15.28,59.879,59.879,0,0,1-1.787,15.593A24.383,24.383,0,0,1,90.663-7.651,20.582,20.582,0,0,1,83.38-2.379,22.957,22.957,0,0,1,74.489-.726q-10.365,0-16.62-7.6t-6.255-25.1Zm62.371,0q0,3.127.045,5.138a49.667,49.667,0,0,0,.581,5.674,22.6,22.6,0,0,0,1.519,5.853,10.942,10.942,0,0,0,3.083,3.932,7.523,7.523,0,0,0,4.959,1.742,7.65,7.65,0,0,0,5.049-1.742,10.941,10.941,0,0,0,3.083-3.932,22.6,22.6,0,0,0,1.519-5.853q.536-3.664.625-5.674t.089-5.138q0-2.055-.045-3.306t-.223-3.8a32,32,0,0,0-.536-4.244,30.514,30.514,0,0,0-1.117-3.842,11.27,11.27,0,0,0-1.832-3.44,9.51,9.51,0,0,0-2.77-2.234,7.81,7.81,0,0,0-3.842-.938,8.49,8.49,0,0,0-4.289,1.072,7.387,7.387,0,0,0-2.949,3.217,29.741,29.741,0,0,0-1.7,4.066,22.919,22.919,0,0,0-.894,4.959q-.268,3.038-.313,4.512t-.039,3.978Zm-12.689,0q0-17.156,6.3-24.707a20.532,20.532,0,0,1,16.576-7.551,23.292,23.292,0,0,1,8.936,1.653,20.07,20.07,0,0,1,7.283,5.272,24.677,24.677,0,0,1,5.049,10.053,57.544,57.544,0,0,1,1.787,15.28,59.878,59.878,0,0,1-1.787,15.593A24.383,24.383,0,0,1,140.344-7.65a20.581,20.581,0,0,1-7.283,5.272A22.957,22.957,0,0,1,124.17-.725q-10.365,0-16.62-7.6t-6.25-25.1Zm79.438,4.2h17.782v9.561H180.734V-1.888h-9.561V-19.669H153.391V-29.23h17.782V-47.013h9.561Z" transform="translate(335.118 437.554)" fill="url(#linear-gradient-107)"/>
            <text id="Defi_Integrations" data-name="Defi Integrations" transform="translate(354.242 461.964)" fill="#fff" font-size="20" font-family="HelveticaNeue-Bold, Helvetica Neue" font-weight="700"><tspan x="0" y="0">Defi Integrations</tspan></text>
          </g>
        </g>
      </g>
      <g id="Group_36641" data-name="Group 36641" transform="translate(642.862 2634.627)">
        <circle id="Ellipse_1418" data-name="Ellipse 1418" cx="32.427" cy="32.427" r="32.427" transform="translate(258.932 -794.738)" fill="#ff9800"/>
        <circle id="Ellipse_1419" data-name="Ellipse 1419" cx="32.023" cy="32.023" r="32.023" transform="translate(259.336 -794.334)" fill="#fff"/>
        <g id="Group_36355" data-name="Group 36355" transform="translate(270.586 -780.937)">
          <path id="Path_66054" data-name="Path 66054" d="M397.692-653.1l-2.461,9.3-9.459-3.054-1.283,1.014-4.375,1.966-3.2.074-3.2-.074-4.375-1.966-1.281-1.014L358.6-643.8l-2.461-9.3,3.122-8.831-1.755-2.211.764-.661-1.179-1.1.879-.787-1.1-1,.73-.524-1.139-6.7,1.961-6.144,12.443,5.256h12.1l12.444-5.256,1.959,6.144-1.139,6.7.73.524-1.1,1,.879.787-1.186,1.094.764.661-1.755,2.211Z" transform="translate(-356.145 681.055)" fill="#ff9700"/>
          <g id="Group_36354" data-name="Group 36354">
            <path id="Path_66055" data-name="Path 66055" d="M434.515-527.29l-1.168,4.479-1.253-2.587-2.957,1.354-3.715-3.588Z" transform="translate(-416.39 547.632)" fill="#e97709"/>
            <path id="Path_66056" data-name="Path 66056" d="M420.692-470.99l-.934,6.815-4.171-6.7Z" transform="translate(-407.838 498.374)" fill="#e97709"/>
            <path id="Path_66057" data-name="Path 66057" d="M457.1-507.911,453-509l-.262-.07.149-.068h0l2.957-1.354Z" transform="translate(-440.144 532.732)" fill="#393939"/>
            <path id="Path_66058" data-name="Path 66058" d="M429.206-522.306v3.656l-3.829-7.144.244.22,3.472,3.131-.149.068Z" transform="translate(-416.352 546.034)" fill="#fb8818"/>
            <path id="Path_66059" data-name="Path 66059" d="M375.685-669.554l-3.918,3.37-.111.045-10.26,4.208-1.755-2.211.764-.66L359.22-665.9l.878-.787-1.094-1,.73-.524-1.14-6.7,1.96-6.144Z" transform="translate(-358.273 681.054)" fill="#985726"/>
            <path id="Path_66060" data-name="Path 66060" d="M388.763-669.554l-15.133-11.5,12.443,5.255Z" transform="translate(-371.351 681.054)" fill="#f98a04"/>
            <path id="Path_66061" data-name="Path 66061" d="M368.064-463.415l-9.458,3.054-2.462-9.3,7.749-.456Z" transform="translate(-356.145 497.613)" fill="#fc8a03"/>
            <path id="Path_66062" data-name="Path 66062" d="M453.485-468.2l-5.9,4.022.934-6.815Z" transform="translate(-435.662 498.374)" fill="#fc8a03"/>
            <path id="Path_66063" data-name="Path 66063" d="M487.965-515.607l-1.749-4.922,1.168-4.479Z" transform="translate(-469.26 545.35)" fill="#fb8917"/>
            <path id="Path_66064" data-name="Path 66064" d="M460.6-493.019l-.883.433-4.968-2.792v-3.656l4.1,1.093Z" transform="translate(-441.895 522.762)" fill="#ff9800"/>
            <path id="Path_66065" data-name="Path 66065" d="M453.485-449.571l-.384,3.018-.072.571v1.943l-4.182-.787-1.265-.723Z" transform="translate(-435.662 479.747)" fill="#e3cdc1"/>
            <path id="Path_66066" data-name="Path 66066" d="M369.086-588.906l-3.911,4.569,3.715,3.588h0l-3.472-3.131-.244-.22L369-576.954l-5.105.114-7.749.456,3.123-8.831,10.26-4.208.111-.045,3.918-3.37Z" transform="translate(-356.145 604.338)" fill="#ff9800"/>
            <path id="Path_66067" data-name="Path 66067" d="M434.515-584l-9.093-.342,3.911-4.569,4.47-3.932.014.168Z" transform="translate(-416.39 604.338)" fill="#fa7c00"/>
            <path id="Path_66068" data-name="Path 66068" d="M465.288-424.108,464-423.093l-4.375,1.966-3.2.074-3.2-.074-4.375-1.966-1.283-1.014,1.266.723,4.181.787v-1.944l.464-.375h5.887l.464.375v1.944l4.182-.787Z" transform="translate(-435.66 458.306)" fill="#d1bcb0"/>
            <path id="Path_66069" data-name="Path 66069" d="M535.824-527.29l1.168,4.479,1.253-2.587,2.957,1.354,3.715-3.588Z" transform="translate(-512.401 547.632)" fill="#e97709"/>
            <path id="Path_66070" data-name="Path 66070" d="M576.251-470.99l.934,6.815,4.171-6.7Z" transform="translate(-547.558 498.374)" fill="#e97709"/>
            <path id="Path_66071" data-name="Path 66071" d="M544.784-507.911l4.1-1.093.263-.07-.149-.068h0l-2.957-1.354Z" transform="translate(-520.193 532.732)" fill="#393939"/>
            <path id="Path_66072" data-name="Path 66072" d="M576.251-522.306v3.656l3.829-7.144-.244.22-3.472,3.131.149.068Z" transform="translate(-547.558 546.034)" fill="#fb8818"/>
            <path id="Path_66073" data-name="Path 66073" d="M541.286-669.554l3.918,3.37.111.045,10.26,4.208,1.755-2.211-.764-.66,1.185-1.094-.878-.787,1.094-1-.73-.524,1.14-6.7-1.96-6.144Z" transform="translate(-517.151 681.054)" fill="#985726"/>
            <path id="Path_66074" data-name="Path 66074" d="M541.286-669.554l15.133-11.5L543.975-675.8Z" transform="translate(-517.151 681.054)" fill="#f98a04"/>
            <path id="Path_66075" data-name="Path 66075" d="M583.418-463.415l9.458,3.054,2.462-9.3-7.749-.456Z" transform="translate(-553.791 497.613)" fill="#fc8a03"/>
            <path id="Path_66076" data-name="Path 66076" d="M538.14-468.2l5.9,4.022-.934-6.815Z" transform="translate(-514.415 498.374)" fill="#fc8a03"/>
            <path id="Path_66077" data-name="Path 66077" d="M531.369-515.607l1.749-4.922-1.168-4.479Z" transform="translate(-508.527 545.35)" fill="#fb8917"/>
            <path id="Path_66078" data-name="Path 66078" d="M531.369-493.019l.883.433,4.968-2.792v-3.656l-4.1,1.093Z" transform="translate(-508.527 522.762)" fill="#ff9800"/>
            <path id="Path_66079" data-name="Path 66079" d="M496.175-448.873l-.464-.375h-5.887l-.464.375.073-.571.383-3.019.882-.433h4.138l.883.433.383,3.019Z" transform="translate(-471.994 482.638)" fill="#393939"/>
            <path id="Path_66080" data-name="Path 66080" d="M538.14-449.571l.384,3.018.072.571v1.943l4.182-.787,1.265-.723Z" transform="translate(-514.415 479.747)" fill="#e3cdc1"/>
            <path id="Path_66081" data-name="Path 66081" d="M545.756-588.906l3.911,4.569-3.715,3.588h0l3.472-3.131.244-.22-3.829,7.144,5.1.114,7.749.456-3.123-8.831-10.26-4.208-.111-.045-3.918-3.37Z" transform="translate(-517.151 604.338)" fill="#ff9800"/>
            <path id="Path_66082" data-name="Path 66082" d="M535.824-584l9.093-.342-3.911-4.569-4.47-3.932-.014.168Z" transform="translate(-512.401 604.338)" fill="#fa7c00"/>
            <path id="Path_66083" data-name="Path 66083" d="M481.182-640.736l-2.689,6.244-.014.168-.7,8.674-.58,9.4h-4.138l-.58-9.4-.7-8.674-.013-.168-2.691-6.244Z" transform="translate(-454.357 645.992)" fill="#ff9700"/>
          </g>
        </g>
      </g>
      <g id="Group_36640" data-name="Group 36640" transform="translate(-64.779 -3335.994)">
        <g id="Group_36241" data-name="Group 36241" transform="translate(836.47 5274.47)">
          <g id="Group_36240" data-name="Group 36240">
            <circle id="Ellipse_1309" data-name="Ellipse 1309" cx="31.188" cy="31.188" r="31.188" transform="translate(0.343 0.342)" fill="#2a5ad8"/>
            <path id="Path_65913" data-name="Path 65913" d="M-749.756,2295.9a31.566,31.566,0,0,1-31.531-31.53,31.566,31.566,0,0,1,31.531-31.531,31.566,31.566,0,0,1,31.53,31.531A31.566,31.566,0,0,1-749.756,2295.9Zm0-62.375A30.881,30.881,0,0,0-780.6,2264.37a30.88,30.88,0,0,0,30.845,30.844,30.879,30.879,0,0,0,30.844-30.844,30.88,30.88,0,0,0-30.844-30.842Z" transform="translate(781.287 -2232.843)" fill="#fff"/>
          </g>
          <path id="Path_65914" data-name="Path 65914" d="M-739.817,2252.159a.326.326,0,0,0-.192-.326q-7.081-4.063-14.158-8.135a.347.347,0,0,0-.4.008q-7.046,4.094-14.1,8.179a.391.391,0,0,0-.222.4q.008,4.067,0,8.131t-.006,8.131a.39.39,0,0,0,.23.395q7.044,4.036,14.079,8.089a.411.411,0,0,0,.484-.006q1.9-1.118,3.818-2.222l10.2-5.917c.148-.086.265-.153.265-.373Q-739.828,2260.335-739.817,2252.159Zm-6.419,13.187q-3.927,2.274-7.842,4.57a.408.408,0,0,1-.482-.008q-3.954-2.283-7.92-4.551a.388.388,0,0,1-.228-.4c.01-1.524.005-3.049.005-4.574s.005-3.028-.007-4.543a.437.437,0,0,1,.259-.438q3.954-2.286,7.9-4.592a.34.34,0,0,1,.4,0q3.958,2.28,7.926,4.541a.454.454,0,0,1,.262.466q-.012,4.528,0,9.058a.461.461,0,0,1-.273.465Z" transform="translate(785.883 -2228.842)" fill="#fdfdfd"/>
        </g>
      </g>
      <g id="Group_36649" data-name="Group 36649" transform="translate(-12395.779 -4373.994)">
        <g id="Group_36646" data-name="Group 36646" transform="translate(13547 6363)">
          <path id="Path_66091" data-name="Path 66091" d="M1824.114-1329.276h-.306a4.452,4.452,0,0,0-.579-.015h-.535a22.533,22.533,0,0,1-3.742-.321,30.958,30.958,0,0,1-4.606-1.133,31.3,31.3,0,0,1-3.011-1.171,31.032,31.032,0,0,1-4.949-2.808,29.411,29.411,0,0,1-2.349-1.816c-.558-.479-1.106-.97-1.628-1.486a30.618,30.618,0,0,1-3.356-3.912,31.645,31.645,0,0,1-2.02-3.2,30.681,30.681,0,0,1-1.722-3.69,30.855,30.855,0,0,1-1.429-4.827c-.215-1.025-.37-2.059-.485-3.1-.052-.467-.057-.937-.073-1.407-.028-.815-.033-1.63-.027-2.445.005-.625.014-1.25.049-1.873.039-.7.135-1.391.241-2.082a30.294,30.294,0,0,1,.815-3.755,30.7,30.7,0,0,1,1.393-3.891,30.569,30.569,0,0,1,2.477-4.574,29.628,29.628,0,0,1,2.315-3.084q.575-.667,1.182-1.3a29.83,29.83,0,0,1,4.331-3.756,30.927,30.927,0,0,1,3.516-2.172,31.149,31.149,0,0,1,4.193-1.831,30.43,30.43,0,0,1,4.118-1.13,29.872,29.872,0,0,1,3.012-.447c.568-.055,1.138-.056,1.708-.075.7-.023,1.4-.024,2.1-.012s1.374.009,2.057.068c.828.072,1.652.188,2.473.331a30.521,30.521,0,0,1,4.639,1.192,30.816,30.816,0,0,1,3.052,1.234,30.842,30.842,0,0,1,3.991,2.238,28.448,28.448,0,0,1,2.709,2.026q.794.674,1.549,1.39a30.192,30.192,0,0,1,2.438,2.622,29.614,29.614,0,0,1,2.871,4.115,30.226,30.226,0,0,1,2.2,4.645,30.931,30.931,0,0,1,1.067,3.436,31.353,31.353,0,0,1,.685,3.78c.069.587.087,1.177.106,1.766.007.2.015.407.014.611v.5a1.344,1.344,0,0,0,.015.313v.8a1.319,1.319,0,0,0-.015.311v.494a22.514,22.514,0,0,1-.386,4.184,31.249,31.249,0,0,1-.993,4,31.683,31.683,0,0,1-1.426,3.634,30.769,30.769,0,0,1-2.567,4.471,29.034,29.034,0,0,1-2.058,2.647c-.538.615-1.087,1.22-1.673,1.788a32.636,32.636,0,0,1-2.674,2.335,30.724,30.724,0,0,1-3.851,2.555,30.352,30.352,0,0,1-4.193,1.945,30.89,30.89,0,0,1-3.48,1.08,32.1,32.1,0,0,1-3.75.679c-.588.071-1.178.085-1.768.106-.2.007-.408.015-.612.014h-.475A4.412,4.412,0,0,0,1824.114-1329.276Z" transform="translate(-1793.294 1390.597)" fill="#fe7f4e" stroke="#fff" stroke-width="0.8"/>
          <path id="Path_66092" data-name="Path 66092" d="M1950.776-1220.639c-.7,1.17-1.388,2.266-2.143,3.316a39.2,39.2,0,0,1-7.764,8.015c-.487.38-.687.349-1.032-.144l-4.328-6.18c-.479-.684-.465-.754.169-1.261a27.676,27.676,0,0,0,9.558-13.66,24.776,24.776,0,0,0,1.042-6.314c.022-.545.157-.69.7-.69h7.6c.525,0,.672.144.691.649a25.628,25.628,0,0,0,6.813,16.461,29.6,29.6,0,0,0,3.911,3.648c.449.35.479.548.15,1.02q-2.175,3.111-4.356,6.219c-.447.636-.592.657-1.192.186a38.323,38.323,0,0,1-9.643-10.978C1950.913-1220.423,1950.869-1220.49,1950.776-1220.639Z" transform="translate(-1920.11 1253.965)" fill="#fff"/>
        </g>
      </g>
      <g id="Group_36639" data-name="Group 36639" transform="translate(1345.479 3215.725)">
        <g id="Group_36344" data-name="Group 36344" transform="translate(-67.944 -1132.334)">
          <g id="Group_36342" data-name="Group 36342">
            <circle id="Ellipse_1410" data-name="Ellipse 1410" cx="31.101" cy="31.101" r="31.101" transform="translate(0.339 0.338)" fill="#ffc809"/>
            <path id="Path_66038" data-name="Path 66038" d="M-37.333-1070.286a31.475,31.475,0,0,1-31.44-31.439,31.475,31.475,0,0,1,31.44-31.439,31.474,31.474,0,0,1,31.439,31.439,31.474,31.474,0,0,1-31.439,31.439Zm0-62.2A30.8,30.8,0,0,0-68.1-1101.725a30.8,30.8,0,0,0,30.764,30.763A30.8,30.8,0,0,0-6.57-1101.725a30.8,30.8,0,0,0-30.763-30.763Z" transform="translate(68.773 1133.164)" fill="#fff"/>
          </g>
          <g id="Group_36343" data-name="Group 36343" transform="translate(13.997 11.61)">
            <path id="Path_66039" data-name="Path 66039" d="M-42.694-1124.577l8.546,4.97,2.119,1.237c-1.322.768-2.549,1.487-3.784,2.19-.32.181-.554-.1-.8-.235-1.847-1.057-3.7-2.108-5.524-3.2a1.094,1.094,0,0,0-1.287.012c-1.828,1.088-3.687,2.125-5.518,3.211a.978.978,0,0,1-1.155.019c-1.083-.665-2.194-1.284-3.418-1.993l3.227-1.877q3.715-2.166,7.429-4.335Z" transform="translate(60.148 1124.577)" fill="#fff"/>
            <path id="Path_66040" data-name="Path 66040" d="M-46.718-1101.32c0-1.09-.023-2.179.011-3.269a.911.911,0,0,0-.548-.936c-1.9-1.07-3.78-2.182-5.688-3.242a.968.968,0,0,1-.577-1c.032-1.115.03-2.232,0-3.349a.86.86,0,0,1,.544-.864c.956-.525,1.906-1.062,2.83-1.639a1.03,1.03,0,0,1,1.23-.005c1.8,1.075,3.649,2.088,5.453,3.167a1.125,1.125,0,0,0,1.352.025c1.846-1.111,3.736-2.15,5.6-3.241a.856.856,0,0,1,1.013,0c.976.595,1.973,1.161,2.979,1.7a.867.867,0,0,1,.5.9c-.022,1.09-.034,2.181,0,3.269a1.021,1.021,0,0,1-.608,1.067c-1.885,1.045-3.734,2.155-5.615,3.206a.982.982,0,0,0-.592,1c.027,2.152,0,4.306.023,6.459a.97.97,0,0,1-.562,1.009c-.963.514-1.914,1.049-2.838,1.629a.949.949,0,0,1-1.151-.023c-.9-.559-1.824-1.1-2.766-1.592a1,1,0,0,1-.6-1.068C-46.691-1099.192-46.718-1100.256-46.718-1101.32Z" transform="translate(60.145 1127.651)" fill="#fff"/>
            <path id="Path_66041" data-name="Path 66041" d="M-29.834-1111.382v11.961a.59.59,0,0,1-.307.59c-3.43,1.971-6.856,3.949-10.419,6,0-1.528.007-2.92,0-4.312,0-.387.306-.464.548-.6,1.864-1.079,3.725-2.165,5.607-3.214a1.034,1.034,0,0,0,.608-1.064c-.032-2.151,0-4.3-.024-6.456a.906.906,0,0,1,.539-.932C-32.165-1110.015-31.074-1110.668-29.834-1111.382Z" transform="translate(64.708 1129.222)" fill="#fff"/>
            <path id="Path_66042" data-name="Path 66042" d="M-58.4-1099q0-5.794-.007-11.587c0-.229-.073-.484.155-.662,1.063.6,2.115,1.222,3.191,1.8a.91.91,0,0,1,.526.943c-.022,2.177,0,4.354-.02,6.529a.925.925,0,0,0,.544.94c1.878,1.052,3.733,2.142,5.608,3.2a1.1,1.1,0,0,1,.667,1.125c-.049,1.236-.015,2.476-.015,3.878Z" transform="translate(58.42 1129.27)" fill="#fff"/>
            <path id="Path_66043" data-name="Path 66043" d="M-38.515-1116.524c1.317-.762,2.49-1.432,3.65-2.123a.62.62,0,0,1,.725.031c1.029.609,2.063,1.208,3.11,1.787a.792.792,0,0,1,.487.8c-.03,1.193-.02,2.388,0,3.582a.688.688,0,0,1-.4.7c-1.156.646-2.3,1.319-3.587,2.063,0-1.363-.032-2.616.015-3.867a1,1,0,0,0-.618-1.052C-36.231-1115.192-37.3-1115.83-38.515-1116.524Z" transform="translate(65.428 1126.629)" fill="#fff"/>
            <path id="Path_66044" data-name="Path 66044" d="M-48.487-1099.854c1.184.672,2.269,1.232,3.289,1.89a1.085,1.085,0,0,0,1.355-.016c1.013-.63,2.062-1.2,3.234-1.873v4.43c0,.266-.264.319-.433.419-1.009.595-2.032,1.163-3.037,1.762a.768.768,0,0,1-.884.01q-1.545-.913-3.114-1.787a.689.689,0,0,1-.416-.685C-48.473-1097.031-48.487-1098.359-48.487-1099.854Z" transform="translate(61.914 1133.281)" fill="#fff"/>
            <path id="Path_66045" data-name="Path 66045" d="M-58.417-1111.947v-4.634c1.145-.672,2.292-1.341,3.434-2.019a.629.629,0,0,1,.73-.053c1.186.7,2.384,1.38,3.669,2.119-1.186.688-2.262,1.356-3.381,1.943a1,1,0,0,0-.6,1.067c.032,1.236.011,2.473.011,3.861Z" transform="translate(58.421 1126.629)" fill="#fff"/>
            <path id="Path_66046" data-name="Path 66046" d="M-49.481-1101.636c-1.356-.78-2.566-1.48-3.78-2.174-.256-.146-.25-.377-.25-.619,0-1.165.018-2.332-.007-3.5-.014-.589.211-.531.6-.3q1.507.89,3.031,1.752a.649.649,0,0,1,.414.61C-49.487-1104.52-49.481-1103.172-49.481-1101.636Z" transform="translate(60.146 1130.275)" fill="#fff"/>
            <path id="Path_66047" data-name="Path 66047" d="M-40.54-1116.527c-1.284.745-2.476,1.435-3.664,2.13a.517.517,0,0,1-.584.024c-1.21-.707-2.427-1.4-3.728-2.148,1.3-.752,2.517-1.452,3.73-2.163a.456.456,0,0,1,.515.007C-43.056-1117.973-41.837-1117.275-40.54-1116.527Z" transform="translate(61.907 1126.624)" fill="#fff"/>
            <path id="Path_66048" data-name="Path 66048" d="M-40.556-1101.671c0-1.5.011-2.82-.008-4.147a.68.68,0,0,1,.4-.688q1.533-.852,3.041-1.748c.441-.262.535-.116.529.331-.015,1.168-.007,2.335,0,3.5a.639.639,0,0,1-.323.661C-38.092-1103.1-39.255-1102.42-40.556-1101.671Z" transform="translate(64.706 1130.277)" fill="#fff"/>
          </g>
        </g>
      </g>
      <g id="Group_35600" data-name="Group 35600" transform="translate(4177.6 1989.21)">
        <circle id="Ellipse_1302" data-name="Ellipse 1302" cx="31.439" cy="31.439" r="31.439" transform="translate(-3383.924 309.943)" stroke="#fff" stroke-width="0.5" fill="url(#linear-gradient-108)"/>
        <path id="Path_51141" data-name="Path 51141" d="M-3337.659,372.289q-.465,1.149-.931,2.3c-.167.415-.332.832-.5,1.248a6.657,6.657,0,0,1-.487,1.031,2.08,2.08,0,0,1-2.465.838,1.806,1.806,0,0,1-1.2-1.5,2.327,2.327,0,0,1,.164-1.365c.29-.686.57-1.377.854-2.065.023-.057.042-.116.063-.173.257-.612.516-1.223.77-1.836s.5-1.224.753-1.835q.456-1.092.913-2.185.548-1.318,1.092-2.639c.079-.192.078-.192-.122-.193-.578,0-1.156.007-1.734,0a1.905,1.905,0,0,1-1.792-1.126,1.886,1.886,0,0,1,.223-2.088,1.918,1.918,0,0,1,1.474-.763c.157-.009.314-.005.471-.008,1.048,0,2.1,0,3.145.008.11,0,.127-.07.156-.142.241-.59.481-1.181.723-1.77q.567-1.382,1.138-2.762c.266-.635.535-1.268.8-1.9.692-1.672,1.375-3.347,2.076-5.015a3.44,3.44,0,0,1,1.473-1.78,2.448,2.448,0,0,1,1.106-.312c.213-.008.426-.009.639-.013.331.021.663-.018.992.032a2.74,2.74,0,0,1,1.847,1.179,7.548,7.548,0,0,1,.8,1.608l.923,2.219q.884,2.144,1.769,4.289,1.818,4.4,3.636,8.792c1.45,3.505,2.89,7.016,4.357,10.514a2.139,2.139,0,0,1-1.083,2.85,3.135,3.135,0,0,1-.858.1,2,2,0,0,1-1.128-.454,3.268,3.268,0,0,1-.911-1.478c-.457-1.152-.922-2.3-1.385-3.452a.521.521,0,0,1-.133-.23q-.879-2.2-1.765-4.391-1.306-3.251-2.613-6.5-1.326-3.3-2.652-6.594c-.555-1.374-1.1-2.753-1.661-4.124a.307.307,0,0,0-.069-.135c-.057.03-.059.092-.079.141-1.011,2.528-2.032,5.052-3.042,7.58-.2.506-.41,1.009-.611,1.515-.062.157-.061.16.1.16h1.617a2.048,2.048,0,0,1,2.013,1.7,2.926,2.926,0,0,1-.024.6,2.057,2.057,0,0,1-.611,1.2,1.934,1.934,0,0,1-1.342.554c-1.116.007-2.232,0-3.348,0a.215.215,0,0,0-.24.168c-.18.476-.373.947-.561,1.42q-.465,1.142-.93,2.284-.884,2.186-1.765,4.373C-3337.629,372.194-3337.643,372.242-3337.659,372.289Z" transform="translate(-23.667 -21.129)" fill="#fefefe"/>
      </g>
      <g id="Group_35610" data-name="Group 35610" transform="translate(3231.911 1167.52)">
        <circle id="Ellipse_1303" data-name="Ellipse 1303" cx="30.226" cy="30.226" r="30.226" transform="translate(-2572.131 1007.712) rotate(-87.652)" fill="#f9d2dd"/>
        <circle id="Ellipse_1304" data-name="Ellipse 1304" cx="27.431" cy="27.431" r="27.431" transform="translate(-2568.796 1005.491) rotate(-88.576)" fill="#fff3fa"/>
        <g id="Group_35609" data-name="Group 35609" transform="translate(-2556.504 962)">
          <g id="Group_35601" data-name="Group 35601" transform="translate(9.094 2.713)">
            <path id="Path_51142" data-name="Path 51142" d="M-2540.659,969.453s-.438,3.873,2.623,5.871a4.4,4.4,0,0,0,1.874.625c-1.022-.06-1.339-1.86-1.508-2.609-.26-1.154-.217-2.572-1.358-3.263A14.906,14.906,0,0,0-2540.659,969.453Z" transform="translate(2540.681 -969.451)" fill="#ff007e"/>
          </g>
          <g id="Group_35602" data-name="Group 35602" transform="translate(9.801 1.823)">
            <path id="Path_51143" data-name="Path 51143" d="M-2525.413,972.459a21.715,21.715,0,0,0-7.111-.95,8.081,8.081,0,0,0-1.345-1.264,3.907,3.907,0,0,0-.44-.313c-.152-.1-.3-.2-.454-.287a10.3,10.3,0,0,0-.955-.476,10.3,10.3,0,0,0-2-.637,9.819,9.819,0,0,0-2.059-.214,9.737,9.737,0,0,1,1.979.5,9.841,9.841,0,0,1,1.81.876,9.591,9.591,0,0,1,.816.564c.128.1.25.214.374.32a3.4,3.4,0,0,1,.354.336,5.43,5.43,0,0,1,.517.578c.115.17.226.346.335.533.737,1.271,1.588,2.989,2.848,3.851a10.947,10.947,0,0,0,5.38,1.48,8.89,8.89,0,0,1,5.264,1.728A9.648,9.648,0,0,0-2525.413,972.459Z" transform="translate(2539.78 -968.318)" fill="#ff007e"/>
          </g>
          <g id="Group_35603" data-name="Group 35603" transform="translate(18.786 10.898)">
            <path id="Path_51144" data-name="Path 51144" d="M-2528.339,979.864s-.375,3.249,3.373,4.872,5.5,2.248,7.308,3.653a4.157,4.157,0,0,1,1.874,2.718s.875-4.06-.5-6.121a6.006,6.006,0,0,0-4.809-3,34.194,34.194,0,0,1-5.622-1.133A8.259,8.259,0,0,1-2528.339,979.864Z" transform="translate(2528.349 -979.864)" fill="#ff007e"/>
          </g>
          <g id="Group_35604" data-name="Group 35604" transform="translate(23.073 17.323)">
            <path id="Path_51145" data-name="Path 51145" d="M-2522.8,988.547a7.182,7.182,0,0,0,1.624,5.746c2.311,3,2.061,3.372,2.311,5.059a3.924,3.924,0,0,1-.312,2.562,7.137,7.137,0,0,0,3.123-4.123,5.9,5.9,0,0,0-.812-4.935,18.8,18.8,0,0,0-3.9-3.373c-1.475-1.062-1.921-1.445-1.921-1.445Z" transform="translate(2522.894 -988.038)" fill="#ff007e"/>
          </g>
          <g id="Group_35605" data-name="Group 35605" transform="translate(13.05 16.957)">
            <path id="Path_51146" data-name="Path 51146" d="M-2535.647,994.318a13.021,13.021,0,0,1,3.208-1c.546-.117,1.1-.192,1.642-.285a8.743,8.743,0,0,0,1.538-.346,3.454,3.454,0,0,0,1.265-.718,3.166,3.166,0,0,0,.813-1.207,9.247,9.247,0,0,0,.155-3.19,12.671,12.671,0,0,1,.49,1.615,4,4,0,0,1,.017,1.768,3.8,3.8,0,0,1-.133.445,3.68,3.68,0,0,1-.205.417,3.11,3.11,0,0,1-.252.387,3.261,3.261,0,0,1-.3.359,3.858,3.858,0,0,1-1.57.96,8.566,8.566,0,0,1-1.711.336c-.56.047-1.1.1-1.656.138C-2533.445,994.084-2534.534,994.176-2535.647,994.318Z" transform="translate(2535.647 -987.573)" fill="#ff007e"/>
          </g>
          <g id="Group_35606" data-name="Group 35606" transform="translate(7.304 25.266)">
            <path id="Path_51147" data-name="Path 51147" d="M-2542.958,1000.828a6.329,6.329,0,0,0,.687-.7,8.191,8.191,0,0,1,2.017-1.343,7.939,7.939,0,0,1,7.353.575c1.994,1.413,1.5,4.372,3.435,5.9a4.552,4.552,0,0,0,2.561.937,4.609,4.609,0,0,1-3.387-.312c-2.047-.874-1.61-2.374-2.922-4a3.649,3.649,0,0,0-4-1.312c-.687.375-.75,1.437-.687,2.062a1.423,1.423,0,0,0,2.124,1.124c1.374-.625,1.374-2.25.625-2.25,0,0,.562-.5,1,.75a1.95,1.95,0,0,1-1.574,2.362,3.353,3.353,0,0,1-3.248-1.127,7.785,7.785,0,0,0-1.548-1.743A6.583,6.583,0,0,0-2542.958,1000.828Z" transform="translate(2542.958 -998.145)" fill="#ff007e"/>
          </g>
          <g id="Group_35607" data-name="Group 35607" transform="translate(10.067 12.342)">
            <path id="Path_51148" data-name="Path 51148" d="M-2537.824,981.7a1.618,1.618,0,0,0-1.617,1.618,1.617,1.617,0,0,0,1.617,1.618,1.617,1.617,0,0,0,1.618-1.618A1.618,1.618,0,0,0-2537.824,981.7Zm-.332,1.618a.743.743,0,0,1-.742-.743.743.743,0,0,1,.742-.743.743.743,0,0,1,.743.743A.743.743,0,0,1-2538.157,983.319Z" transform="translate(2539.442 -981.701)" fill="#ff007e"/>
          </g>
          <g id="Group_35608" data-name="Group 35608" transform="translate(0)">
            <path id="Path_51149" data-name="Path 51149" d="M-2541.326,976.589a2.15,2.15,0,0,0-.5-2.081l-.094-.1-.074-.07-.15-.139-.3-.276-.6-.552-1.211-1.1c-.823-.718-1.63-1.453-2.467-2.157-1.659-1.423-3.348-2.812-5.117-4.115,1.43,1.668,2.942,3.247,4.483,4.794.763.781,1.556,1.531,2.334,2.3l2.356,2.224a.989.989,0,0,1,.244.957.957.957,0,0,1-.26.445,3.219,3.219,0,0,1-.531.414,1.125,1.125,0,0,1-1.061.152,1.187,1.187,0,0,1-.421-.362c-.141-.2-.3-.446-.449-.667-1.211-1.817-2.455-3.615-3.8-5.354.431.917.884,1.824,1.35,2.723q.35.673.71,1.341.179.334.362.666c.115.211.283.345.221.594a2.676,2.676,0,0,1-.312.883,12.594,12.594,0,0,0-1.316,3.671c-.854,2.755-2.231,3.344-3.451,5.425-1.364,2.326-1.289,6.291,1.413,7.963.4.248,5.79-1,5.482-3.566-.243-2.03-2.948-2.189-3.21-4.084-.394-2.859,2.448-5.831,2.492-8.673a2,2,0,0,0,.461.348,1.927,1.927,0,0,0,1.085.21,2.6,2.6,0,0,0,.98-.311,3.64,3.64,0,0,0,.778-.562A2.108,2.108,0,0,0-2541.326,976.589Zm-8.641,13.738a.738.738,0,0,1-.738-.738.737.737,0,0,1,.738-.737.738.738,0,0,1,.738.737A.738.738,0,0,1-2549.967,990.327Z" transform="translate(2552.25 -965.999)" fill="#ff007e"/>
          </g>
        </g>
      </g>
      <g id="Group_35613" data-name="Group 35613" transform="translate(974.407 2227.549)">
        <g id="Group_35611" data-name="Group 35611" transform="translate(29.911 18.84)">
          <circle id="Ellipse_1305" data-name="Ellipse 1305" cx="29.454" cy="29.454" r="29.454" transform="translate(0.189 0.187)" fill="#00af91"/>
          <path id="Path_51150" data-name="Path 51150" d="M59.553,78.124a29.576,29.576,0,1,1,11.538-2.331A29.421,29.421,0,0,1,59.553,78.124Zm0-58.911a29.149,29.149,0,1,0,11.393,2.3A29.073,29.073,0,0,0,59.553,19.214Z" transform="translate(-29.911 -18.84)" fill="#fff"/>
        </g>
        <g id="Group_35612" data-name="Group 35612" transform="translate(42.505 36.039)">
          <path id="Path_51151" data-name="Path 51151" d="M32.775,35.207V23.59a.791.791,0,0,1,.475-.756.758.758,0,0,1,.836.1q1.313,1.009,2.625,2.014,3.061,2.355,6.125,4.709,2.638,2.025,5.277,4.054a.987.987,0,0,1,.365.853c0,1.746,0,3.487,0,5.233q0,3.436,0,6.873a.907.907,0,0,1-.418.853.8.8,0,0,1-1.2-.629,3.132,3.132,0,0,1-.009-.352q0-5.732,0-11.459a.462.462,0,0,0-.207-.422q-3.008-2.3-6-4.6-2.915-2.236-5.826-4.485a.98.98,0,0,0-.106-.084c-.092-.048-.172-.193-.264-.15-.11.053-.048.207-.048.317q-.007,10.527,0,21.059a.859.859,0,0,1-.814.919.829.829,0,0,1-.813-.915V35.207Z" transform="translate(-32.775 -22.751)" fill="#fff"/>
          <path id="Path_51152" data-name="Path 51152" d="M51.04,25.225c-.7.536-1.363,1.042-2.023,1.552q-3.6,2.764-7.2,5.532c-1.029.792-2.058,1.592-3.1,2.379a.388.388,0,0,0-.145.369q0,5.811,0,11.622a.876.876,0,0,1-.44.835.81.81,0,0,1-1.178-.677c0-.062,0-.128,0-.189q0-6.042,0-12.079a1.09,1.09,0,0,1,.462-.941q4.789-3.667,9.569-7.352c1.394-1.073,2.788-2.15,4.186-3.219a1.133,1.133,0,0,1,.536-.295.815.815,0,0,1,.937.743,1.745,1.745,0,0,1,0,.215q0,11.47,0,22.945a.868.868,0,0,1-.5.879.81.81,0,0,1-1.121-.721c0-.088,0-.18,0-.268V25.225Z" transform="translate(-18.557 -22.738)" fill="#fff"/>
        </g>
      </g>
      <g id="Group_35615" data-name="Group 35615" transform="translate(665.938 2078.176)">
        <circle id="Ellipse_1306" data-name="Ellipse 1306" cx="27.492" cy="27.492" r="27.492" transform="translate(82.299 19.109)" fill="#fff" stroke="#062635" stroke-width="1"/>
        <g id="Group_35614" data-name="Group 35614" transform="translate(94.493 31.305)">
          <path id="Path_51153" data-name="Path 51153" d="M85.307,24.99c.673,0,1.342,0,2.015,0q2.566,0,5.132,0c.109,0,.146.024.146.138q-.006,3.515,0,7.026c0,.122-.041.138-.146.138q-3.57-.006-7.147,0Z" transform="translate(-85.307 -13.343)" fill="#062635"/>
          <path id="Path_51154" data-name="Path 51154" d="M88.18,35.154V28.023c0-.118.016-.162.146-.158q3.5.006,7,0c.13,0,.15.041.15.158q-.006,3.484,0,6.969v.162Z" transform="translate(-76.533 -4.562)" fill="#062635"/>
          <path id="Path_51155" data-name="Path 51155" d="M85.307,27.863c.053,0,.109.008.162.008,2.323,0,4.646,0,6.969,0,.13,0,.162.032.162.162q-.006,3.484,0,6.969c0,.053,0,.105.008.158H89.738a4.337,4.337,0,0,1-.754-.109A4.982,4.982,0,0,1,85.506,31.8a2.9,2.9,0,0,1-.182-1.018.06.06,0,0,0-.016-.049Z" transform="translate(-85.307 -4.568)" fill="#082635"/>
          <path id="Path_51156" data-name="Path 51156" d="M85.307,26.576c.057-.239.069-.486.134-.726a4.831,4.831,0,0,1,3.77-3.624,4.537,4.537,0,0,1,1.046-.105c.738,0,1.476,0,2.214,0,.1,0,.13.024.13.126q-.006,3.527,0,7.054c0,.13-.061.118-.146.118H85.307Z" transform="translate(-85.307 -22.117)" fill="#062635"/>
          <path id="Path_51157" data-name="Path 51157" d="M91.056,35.154c0-2.376,0-4.755,0-7.131,0-.134.036-.158.166-.158q3.491.006,6.981,0c.126,0,.158.032.154.154-.008.823.02,1.65-.012,2.473a4.885,4.885,0,0,1-3.985,4.585c-.154.028-.308.053-.462.077Z" transform="translate(-67.761 -4.562)" fill="#062635"/>
          <path id="Path_51158" data-name="Path 51158" d="M88.18,31.575q0-4.64,0-9.28c0-.134.02-.178.166-.178q6.951.006,13.893,0a4.935,4.935,0,0,1,4.885,4.926q0,6.92,0,13.849c0,.13-.016.17-.162.17q-9.316-.006-18.632,0c-.122,0-.15-.032-.15-.154Z" transform="translate(-76.533 -22.117)" fill="#062635"/>
        </g>
      </g>
      <g id="Group_35617" data-name="Group 35617" transform="translate(979.035 2313.389)">
        <circle id="Ellipse_1307" data-name="Ellipse 1307" cx="29.716" cy="29.716" r="29.716" transform="translate(47.168 18.925)" fill="#fff" stroke="#1fb258" stroke-width="0.5"/>
        <g id="Group_35616" data-name="Group 35616" transform="translate(56.013 30.821)">
          <path id="Path_51159" data-name="Path 51159" d="M65.785,29.589c0-.373-.084-.492-.435-.634a4.69,4.69,0,0,0-.945-.271c-.177-.027-.231-.089-.231-.271a18.559,18.559,0,0,0-.027-2.165,4.943,4.943,0,0,0-3.128-4.219,4.815,4.815,0,0,0-4.552.328A4.929,4.929,0,0,0,54,26.11a20,20,0,0,0-.04,2.307c0,.164-.04.231-.209.262a4.39,4.39,0,0,0-1.034.3.606.606,0,0,0-.395.626c.009,1.6,0,3.208,0,4.813,0,1.633,0,3.27,0,4.907a.292.292,0,0,0,.222.324q3.161,1.111,6.326,2.236a.328.328,0,0,0,.226.009q3.234-1.131,6.468-2.245a.285.285,0,0,0,.222-.319C65.781,36.083,65.785,32.836,65.785,29.589Zm-9.711-2.223a4.991,4.991,0,0,1,.138-1.5,2.971,2.971,0,0,1,3.886-1.93,2.869,2.869,0,0,1,1.939,2.635c.044.541,0,1.082.022,1.628,0,.146-.044.186-.2.177a40.22,40.22,0,0,0-5.616,0c-.142.009-.177-.035-.173-.169C56.078,27.929,56.074,27.645,56.074,27.366Zm7.471,7.169c0,1.012,0,2.027,0,3.043a.251.251,0,0,1-.2.284c-1.4.51-2.786,1.025-4.179,1.544a.5.5,0,0,1-.359,0q-2.149-.779-4.3-1.544a.292.292,0,0,1-.24-.328c.013-1.961.009-3.931.009-5.892,0-.39,0-.4.382-.492a10.464,10.464,0,0,1,1.579-.2c.838-.071,1.677-.093,2.515-.084a24.04,24.04,0,0,1,4.334.275l.16.031a.35.35,0,0,1,.3.413C63.536,32.565,63.545,33.55,63.545,34.535Z" transform="translate(-38.292 -21.607)" fill="#1bb258"/>
          <path id="Path_51160" data-name="Path 51160" d="M62.432,31.979c-.071-.133-.08-.217.075-.3a1.647,1.647,0,0,0,.55-.47,2.605,2.605,0,0,0,.284-2.955,2.342,2.342,0,0,0-2.28-1.264c-1.273-.022-2.551,0-3.824-.013-.173,0-.222.04-.222.222.009,1.167,0,2.329,0,3.491s0,2.347,0,3.518c0,.155.027.222.2.217.626-.013,1.247-.009,1.868,0,.151,0,.2-.04.2-.2-.009-.5-.009-1.007,0-1.513,0-.2-.093-.475.04-.581s.39-.022.594-.04c.138-.013.191.049.244.16.284.665.577,1.322.861,1.983a.272.272,0,0,0,.3.191c.7-.009,1.389,0,2.076,0,.275,0,.279,0,.155-.24C63.177,33.443,62.809,32.711,62.432,31.979Zm-1.118-2.254a.585.585,0,0,1-.6.359c-.222.013-.444,0-.661,0s-.426,0-.634,0c-.115,0-.146-.04-.142-.151,0-.279,0-.563,0-.847,0-.106.022-.151.142-.146.439,0,.878-.009,1.313.009C61.216,28.985,61.465,29.331,61.314,29.726Z" transform="translate(-22.176 -3.16)" fill="#1bb258"/>
          <path id="Path_51161" data-name="Path 51161" d="M56.13,32.086c-.111-.209-.111-.333.12-.475a2.606,2.606,0,0,0,.7-3.487,2.47,2.47,0,0,0-2.223-1.136c-1.264-.022-2.533,0-3.8-.013-.2,0-.24.067-.24.257.009,1.153,0,2.311,0,3.465v3.518c0,.111-.013.209.16.209.648-.009,1.291-.009,1.939,0,.138,0,.173-.049.169-.182,0-.51,0-1.02,0-1.535,0-.2-.093-.475.044-.577s.39-.027.594-.04a.177.177,0,0,1,.2.133c.284.657.577,1.3.861,1.961a.325.325,0,0,0,.359.24c.692-.013,1.389,0,2.076,0,.244,0,.248-.009.138-.226C56.862,33.492,56.507,32.782,56.13,32.086Zm-1.721-2c-.222.009-.439,0-.661,0s-.426,0-.634,0c-.115,0-.169-.022-.164-.155.009-.279.009-.563,0-.847,0-.115.04-.146.151-.142.417,0,.834-.009,1.247,0,.373.013.621.191.67.448A.58.58,0,0,1,54.409,30.089Z" transform="translate(-43.938 -3.16)" fill="#1bb258"/>
          <path id="Path_51162" data-name="Path 51162" d="M61.54,27.635a4.444,4.444,0,0,0-3.753-.479A3.453,3.453,0,0,0,56,28.274a3.906,3.906,0,0,0-.173,4.827,3.881,3.881,0,0,0,2.857,1.522h.9c.111-.013.217-.031.328-.049a3.815,3.815,0,0,0,1.628-6.939Zm-2.373,5.009a1.849,1.849,0,0,1-.075-3.691,1.848,1.848,0,0,1,.075,3.691Z" transform="translate(-28.857 -3.256)" fill="#1bb258"/>
          <path id="Path_51163" data-name="Path 51163" d="M52.32,30.688q0-1.744,0-3.491c0-.169.036-.222.217-.222q2.6.013,5.213,0c.155,0,.226.022.222.2-.013.523-.013,1.051,0,1.579,0,.164-.058.191-.2.191-.985,0-1.97,0-2.95-.009-.186,0-.24.053-.235.235.013.479,0,.479.479.479.865,0,1.73,0,2.6,0,.191,0,.244.053.24.24-.013.5-.013.989,0,1.486.009.2-.04.266-.257.266-.945-.013-1.885,0-2.83-.009-.173,0-.226.036-.226.217.009.586,0,.59.581.59.865,0,1.73,0,2.6,0,.164,0,.217.035.213.209-.013.515-.009,1.038,0,1.553,0,.16-.031.222-.209.222q-2.615-.013-5.239,0c-.173,0-.2-.062-.2-.217Q52.322,32.45,52.32,30.688Z" transform="translate(-38.327 -3.16)" fill="#1bb258"/>
          <path id="Path_51164" data-name="Path 51164" d="M56.724,32.442c.9,0,1.766,0,2.631-.009.186,0,.24.049.235.235-.013.519-.009,1.038,0,1.557,0,.142-.031.2-.182.2q-2.748-.007-5.5,0c-.155,0-.208-.049-.208-.2.009-.479.009-.958,0-1.437a.448.448,0,0,1,.111-.3c.883-1.14,1.757-2.285,2.635-3.425l.071-.111h-.794c-.608,0-1.216,0-1.819,0-.169,0-.208-.049-.208-.213.009-.519.013-1.038,0-1.557,0-.169.058-.209.217-.2q2.688.007,5.381,0c.16,0,.222.035.217.2-.013.466-.009.927,0,1.393a.538.538,0,0,1-.129.364c-.87,1.127-1.735,2.263-2.6,3.394A.738.738,0,0,0,56.724,32.442Z" transform="translate(-33.574 -3.157)" fill="#1bb258"/>
          <path id="Path_51165" data-name="Path 51165" d="M52.285,26.98c.954,0,1.9.009,2.857,0,.226,0,.28.071.271.284-.013.461-.013.927,0,1.389,0,.222-.031.324-.293.311-.488-.027-.976,0-1.464-.013-.186,0-.235.049-.235.235.009,1.655,0,3.305.009,4.955,0,.231-.058.3-.288.288-.572-.013-1.149-.013-1.721,0-.2,0-.266-.044-.262-.257.009-1.641,0-3.287.009-4.929,0-.248-.067-.3-.3-.293-.5.018-1.007,0-1.508.009-.16,0-.2-.049-.2-.2.009-.528.009-1.056,0-1.579,0-.16.044-.2.2-.2C50.338,26.984,51.309,26.98,52.285,26.98Z" transform="translate(-49.162 -3.16)" fill="#1bb258"/>
        </g>
      </g>
      <g id="Group_35619" data-name="Group 35619" transform="translate(1100.292 2123.483)">
        <g id="Group_35618" data-name="Group 35618" transform="translate(29.53 35.972)">
          <path id="Path_51166" data-name="Path 51166" d="M57.88,35.991A28.329,28.329,0,1,1,29.549,64.3,28.336,28.336,0,0,1,57.88,35.991Z" transform="translate(-29.47 -35.912)" fill="#0057fe"/>
          <path id="Path_51167" data-name="Path 51167" d="M57.932,92.788H57.9a28.408,28.408,0,0,1,.038-56.816h.008a28.408,28.408,0,0,1-.017,56.816Zm.008-56.737v.075a28.252,28.252,0,0,0-.038,56.5h.029a28.252,28.252,0,1,0,.017-56.5H57.94Z" transform="translate(-29.53 -35.972)" fill="#fff"/>
        </g>
        <path id="Path_51168" data-name="Path 51168" d="M52.419,49.74c0,2.334,0,4.664,0,7a1.91,1.91,0,0,1-2.142,2.122q-7,.006-14,0a1.908,1.908,0,0,1-2.122-2.142q-.006-7,0-14A1.91,1.91,0,0,1,36.3,40.6q7-.006,14,0a1.912,1.912,0,0,1,2.122,2.142C52.423,45.076,52.419,47.41,52.419,49.74Z" transform="translate(14.654 14.65)" fill="#fff"/>
      </g>
      <g id="Group_35622" data-name="Group 35622" transform="translate(629.949 1875.564)">
        <g id="Group_35620" data-name="Group 35620" transform="translate(64.566 18.713)">
          <circle id="Ellipse_1308" data-name="Ellipse 1308" cx="27.979" cy="27.979" r="27.979" transform="translate(0.165 0.164)" fill="#0b0e10"/>
          <path id="Path_51169" data-name="Path 51169" d="M92.711,75a28.143,28.143,0,1,1,28.141-28.145A28.176,28.176,0,0,1,92.711,75Zm0-55.956a27.812,27.812,0,1,0,27.81,27.81A27.842,27.842,0,0,0,92.711,19.044Z" transform="translate(-64.566 -18.713)" fill="#fff"/>
        </g>
        <g id="Group_35621" data-name="Group 35621" transform="translate(79.632 30.198)">
          <path id="Path_51170" data-name="Path 51170" d="M83.062,49.642v-.765c0-3.489-.025-6.978.008-10.467A2.7,2.7,0,0,0,81.6,35.846c-3.395-2-6.761-4.045-10.152-6.054a.927.927,0,0,1-.524-.941c.025-1.943.012-3.886,0-5.829a1.377,1.377,0,0,1,.589-1.338,1.36,1.36,0,0,1,1.5.164c3.882,2.262,7.759,4.528,11.662,6.761a2.661,2.661,0,0,1,1.456,2.516q-.018,7.97,0,15.936a1.351,1.351,0,0,1-.81,1.374C84.6,48.787,83.9,49.192,83.062,49.642Z" transform="translate(-59.978 -21.521)" fill="#00af80"/>
          <path id="Path_51171" data-name="Path 51171" d="M84.811,38.522c0,1.8-.012,3.608.008,5.411a1.273,1.273,0,0,1-.744,1.293c-.654.331-1.28.712-1.918,1.072s-.642.356-.642-.352c0-1.8-.025-3.608.008-5.411a2.509,2.509,0,0,0-1.366-2.376c-3.354-1.988-6.692-4-10.046-5.992a.848.848,0,0,1-.495-.843c.025-2.1.008-4.2.012-6.3,0-1.3.908-1.82,2.021-1.17,3.935,2.291,7.862,4.593,11.8,6.876a2.54,2.54,0,0,1,1.37,2.385c-.008,1.8,0,3.608,0,5.407Z" transform="translate(-64.029 -15.174)" fill="#00ae80"/>
          <path id="Path_51172" data-name="Path 51172" d="M83.44,37.762c0,.871.008,1.742,0,2.614a1.423,1.423,0,0,1-2.319,1.3c-3.788-2.307-7.571-4.63-11.359-6.937a2.952,2.952,0,0,1-1.505-2.712c0-1.624-.008-3.252,0-4.876,0-1.346.884-1.849,2.053-1.17,3.919,2.278,7.833,4.573,11.76,6.843a2.55,2.55,0,0,1,1.378,2.438c-.016.83,0,1.665,0,2.5Z" transform="translate(-68.249 -8.667)" fill="#00ad7e"/>
        </g>
      </g>
      <g id="Group_41294" data-name="Group 41294" transform="translate(797.315 1659.493)">
        <circle id="Ellipse_1735" data-name="Ellipse 1735" cx="31.311" cy="31.311" r="31.311" transform="translate(191.988 54.476)" fill="#fff" stroke="#616892" stroke-width="1"/>
        <path id="Path_63626" data-name="Path 63626" d="M195.509,80.264l14.648,8.647V56.072Z" transform="translate(13.143 5.959)" fill="#8892b5"/>
        <path id="Path_63627" data-name="Path 63627" d="M213.251,80.264,198.6,88.912V56.072Z" transform="translate(24.696 5.959)" fill="#616892"/>
        <path id="Path_63628" data-name="Path 63628" d="M195.509,66.4l14.648-6.615V75.047Z" transform="translate(13.143 19.823)" fill="#616892"/>
        <path id="Path_63629" data-name="Path 63629" d="M198.6,75.047,213.251,66.4,198.6,59.785Z" transform="translate(24.696 19.823)" fill="#444978"/>
        <path id="Path_63630" data-name="Path 63630" d="M195.509,61.791l14.648,8.789V82.228Z" transform="translate(13.143 27.314)" fill="#8892b5"/>
        <path id="Path_63631" data-name="Path 63631" d="M213.251,61.791,198.6,70.58V82.228Z" transform="translate(24.696 27.314)" fill="#616892"/>
      </g>
      <g id="Group_36643" data-name="Group 36643" transform="translate(3.901 2702.035)">
        <circle id="Ellipse_1420" data-name="Ellipse 1420" cx="29.639" cy="29.639" r="29.639" transform="translate(1052.095 -837.397)" fill="#fff" opacity="0.4"/>
        <circle id="Ellipse_1421" data-name="Ellipse 1421" cx="28.448" cy="28.448" r="28.448" transform="translate(1053.286 -836.206)" fill="#fff" opacity="0.4"/>
        <circle id="Ellipse_1422" data-name="Ellipse 1422" cx="27.411" cy="27.411" r="27.411" transform="translate(1054.323 -835.169)" fill="#8c3bec"/>
        <circle id="Ellipse_1423" data-name="Ellipse 1423" cx="27.078" cy="27.078" r="27.078" transform="translate(1054.657 -834.835)" fill="#fff"/>
        <path id="Path_66084" data-name="Path 66084" d="M1164.2-717.8h1.259a1.336,1.336,0,0,1,.544.226q1.081.638,2.164,1.272l2.2,1.293c.761.447,1.526.888,2.283,1.343a2.111,2.111,0,0,1,1.041,1.556,1.882,1.882,0,0,1,.023.285v2.74a.252.252,0,0,1-.143.252c-.471.264-.936.538-1.4.808s-.93.537-1.393.807q-.123.072-.252.142c-.084.045-.123.022-.131-.07v-2.674a2.1,2.1,0,0,0-.459-1.343,2.35,2.35,0,0,0-.661-.54q-1.629-.979-3.253-1.967a2.769,2.769,0,0,0-.923-.389,1.989,1.989,0,0,0-1.276.156c-.27.131-.521.3-.781.446l-1.69.981c-.438.252-.884.5-1.312.767a2.019,2.019,0,0,0-.979,1.537,1.975,1.975,0,0,0-.013.22v4.261a2.039,2.039,0,0,0,.467,1.289,2.449,2.449,0,0,0,.693.551q1.356.816,2.708,1.637c.243.147.484.3.729.439a2.209,2.209,0,0,0,.839.275,2,2,0,0,0,1.115-.168,5.294,5.294,0,0,0,.494-.288l3.155-1.893c.367-.22.733-.442,1.1-.659.32-.188.647-.361.971-.54.51-.283,1.018-.568,1.531-.846.652-.353,1.29-.729,1.931-1.107q1.024-.606,2.049-1.209c.525-.311,1.049-.624,1.579-.923a2.013,2.013,0,0,1,.719-.238,2.172,2.172,0,0,1,1.072.092,4.091,4.091,0,0,1,.622.326c.573.331,1.146.665,1.718,1l1.449.839,1.7.988,1.449.839a3.44,3.44,0,0,1,.569.382,2.266,2.266,0,0,1,.469.582,1.564,1.564,0,0,1,.219.815.032.032,0,0,0,.008.023v.016a.461.461,0,0,0-.008.133v8.293a1.744,1.744,0,0,1-.411,1.134,2.583,2.583,0,0,1-.8.64c-.782.447-1.56.9-2.34,1.355l-2.9,1.679c-.473.274-.946.551-1.421.823a1.154,1.154,0,0,1-.606.168q-.5-.009-1.014,0a1.05,1.05,0,0,1-.548-.168q-1.164-.672-2.326-1.348l-1.873-1.091-2.1-1.218c-.217-.126-.44-.241-.645-.384a2.115,2.115,0,0,1-.937-1.48.363.363,0,0,0-.008-.04.61.61,0,0,0-.006-.1v-2.86a.2.2,0,0,1,.112-.2c.8-.463,1.607-.93,2.412-1.394.217-.125.432-.252.651-.375.094-.052.136-.029.143.077v2.542a.672.672,0,0,0,.008.146c.006.043,0,.084.006.128a2.005,2.005,0,0,0,.464,1.138,2.519,2.519,0,0,0,.761.58c.455.263.909.528,1.364.792.61.353,1.218.712,1.831,1.061a2.409,2.409,0,0,0,1.059.379,2.043,2.043,0,0,0,.916-.117,1.58,1.58,0,0,0,.288-.136l1.889-1.126,1.6-.952a2.087,2.087,0,0,0,1.021-1.376,2.076,2.076,0,0,0,.05-.462c0-1.392.005-2.786,0-4.179a2.086,2.086,0,0,0-.508-1.382,2.516,2.516,0,0,0-.7-.53c-.456-.263-.909-.529-1.364-.792q-.895-.518-1.788-1.039a3.247,3.247,0,0,0-.667-.325,2.4,2.4,0,0,0-.912-.1c-.028,0-.05.021-.078.022a2.085,2.085,0,0,0-.776.287c-.655.386-1.313.766-1.97,1.148l-1.631.95-1.768,1.026-2.61,1.511-1.731,1.007-2.063,1.2q-.311.18-.621.363a2.313,2.313,0,0,1-.834.3.292.292,0,0,0-.065.013c-.022.005-.06,0-.09.006a.792.792,0,0,0-.152.01.321.321,0,0,1-.084,0,.725.725,0,0,0-.137-.011.541.541,0,0,1-.09-.005,2.686,2.686,0,0,1-1.066-.431c-.572-.336-1.148-.671-1.722-1l-1.328-.771-1.519-.88-.911-.529a.724.724,0,0,1-.092-.069,11.9,11.9,0,0,1-1.21-.728,2.033,2.033,0,0,1-.755-1.116,1.731,1.731,0,0,1-.044-.45q0-4.113,0-8.22a1.794,1.794,0,0,1,.546-1.3,2.15,2.15,0,0,1,.485-.343c.5-.286,1-.583,1.5-.874l2.286-1.337,1.538-.9,1.63-.954a1.183,1.183,0,0,1,.458-.137Z" transform="translate(-90.351 -104.235)" fill="#8c3bec"/>
      </g>
    </g>
    <g id="Group_41410" data-name="Group 41410" transform="translate(6.076 -4331.162)">
      <g id="Group_41408" data-name="Group 41408" transform="translate(838.719 6555.674)">
        <circle id="Ellipse_1736" data-name="Ellipse 1736" cx="29.205" cy="29.205" r="29.205" transform="translate(0 0)" fill="#00a17a" stroke="#fff" stroke-width="0.5"/>
        <path id="Path_63874" data-name="Path 63874" d="M106.014,82.742V79.356h9.831V72.214H88.39v7.143h9.827v3.368c-6.976.38-13.071,1.77-13.071,4.108s6.1,4.2,13.071,4.586v12.866h7.8V91.415c.1,0,.205,0,.308-.009,6.843-.4,12.763-2.27,12.763-4.574S112.861,83.144,106.014,82.742Zm.034,6.98c-1.312.077-2.71.124-4.206.124q-1.891,0-3.595-.09c-7.788-.389-12.165-1.727-12.165-2.924,0-1.18,4.531-2.757,12.135-3.176V88.7l7.8-.038V83.678c7.42.44,12.139,1.992,12.139,3.154S113.464,89.277,106.048,89.722Z" transform="translate(-72.759 -57.629)" fill="#fff" stroke="#fff" stroke-width="0.5"/>
      </g>
    </g>
  </g>
</svg>
