<svg id="Layer_1" data-name="Layer 1" xmlns="http://www.w3.org/2000/svg" viewBox="0 0 44.17 44.17"><defs><style>.cls-1{fill:#010101;}</style></defs><g id="Capa_1-2" data-name="Capa 1"><path class="cls-1" d="M44.08,20.07a1.31,1.31,0,0,0-1.15-1.17,1.29,1.29,0,0,0-1.37.88A12.57,12.57,0,1,1,28,3.37a1.28,1.28,0,0,0,1.12-1.18A1.3,1.3,0,0,0,28.14.85a21.7,21.7,0,0,0-4-.75A22.08,22.08,0,0,0,5.08,36.17a22.08,22.08,0,0,0,39-12A23.05,23.05,0,0,0,44.08,20.07ZM20.27,41.49a19.49,19.49,0,0,1,2-38.9,14.68,14.68,0,0,0-3.5,2.68,15.15,15.15,0,1,0,22.5,20.25A19.51,19.51,0,0,1,20.27,41.49Z"/></g></svg>