<svg id="Layer_1" data-name="Layer 1" xmlns="http://www.w3.org/2000/svg" viewBox="0 0 48 48"><defs><style>.cls-1{fill:#ffffff;}</style></defs><g id="Capa_1-2" data-name="Capa 1"><path class="cls-1" d="M15.49,32.51A12.1,12.1,0,0,0,24,36.06a11.86,11.86,0,0,0,8.51-3.55A12.1,12.1,0,0,0,36.06,24a11.86,11.86,0,0,0-3.55-8.51A12.1,12.1,0,0,0,24,11.94a11.86,11.86,0,0,0-8.51,3.55,12,12,0,0,0,0,17Zm2.29-14.73A8.89,8.89,0,1,1,15.24,24,8.78,8.78,0,0,1,17.78,17.78Z"/><path class="cls-1" d="M39.81,24a1.68,1.68,0,0,0,1.65,1.65h4.89a1.65,1.65,0,0,0,0-3.3H41.46A1.68,1.68,0,0,0,39.81,24Z"/><path class="cls-1" d="M22.35,41.46v4.89a1.65,1.65,0,0,0,3.3,0V41.46a1.65,1.65,0,0,0-3.3,0Z"/><path class="cls-1" d="M35.17,35.17a1.62,1.62,0,0,0,0,2.29L38.67,41A1.61,1.61,0,0,0,41,38.67l-3.49-3.5A1.62,1.62,0,0,0,35.17,35.17Z"/><path class="cls-1" d="M24,8.19a1.68,1.68,0,0,0,1.65-1.65V1.65a1.65,1.65,0,1,0-3.3,0V6.54A1.68,1.68,0,0,0,24,8.19Z"/><path class="cls-1" d="M37.52,12.83,41,9.33a1.62,1.62,0,1,0-2.29-2.28l-3.49,3.49a1.62,1.62,0,0,0,2.28,2.29Z"/><path class="cls-1" d="M1.65,25.65H6.54a1.65,1.65,0,1,0,0-3.3H1.65A1.68,1.68,0,0,0,0,24,1.64,1.64,0,0,0,1.65,25.65Z"/><path class="cls-1" d="M10.48,35.17,7,38.67A1.62,1.62,0,0,0,9.27,41l3.49-3.49a1.62,1.62,0,1,0-2.28-2.29Z"/><path class="cls-1" d="M10.48,12.83a1.62,1.62,0,0,0,2.28-2.29L9.27,7.05A1.62,1.62,0,1,0,7,9.33Z"/></g></svg>