<svg xmlns="http://www.w3.org/2000/svg" xmlns:xlink="http://www.w3.org/1999/xlink" viewBox="0 0 1224.83 458.01"><defs><style>.cls-1,.cls-7{mask:url(#mask);}.cls-1{filter:url(#luminosity-noclip-8);}.cls-11,.cls-13,.cls-2,.cls-4,.cls-6,.cls-9{mix-blend-mode:multiply;}.cls-2{fill:url(#radial-gradient);}.cls-3{mask:url(#mask-2);filter:url(#luminosity-noclip-13);}.cls-4{fill:url(#radial-gradient-2);}.cls-5{mask:url(#mask-3);filter:url(#luminosity-noclip-14);}.cls-6{fill:url(#radial-gradient-3);}.cls-8{mask:url(#mask-5);filter:url(#luminosity-noclip-10);}.cls-9{fill:url(#linear-gradient);}.cls-10{mask:url(#mask-6);filter:url(#luminosity-noclip-11);}.cls-11{fill:url(#radial-gradient-5);}.cls-12{mask:url(#mask-7);filter:url(#luminosity-noclip-12);}.cls-13{fill:url(#radial-gradient-6);}.cls-14{isolation:isolate;}.cls-15{mask:url(#mask-8);}.cls-16{fill:url(#radial-gradient-7);}.cls-17{fill:url(#radial-gradient-8);}.cls-18{mix-blend-mode:overlay;}.cls-19{fill:#fff;}.cls-20{mask:url(#mask-10);}.cls-21,.cls-22{mix-blend-mode:color-dodge;}.cls-21{fill:url(#linear-gradient-2);}.cls-23{mask:url(#mask-11);}.cls-24{fill:url(#radial-gradient-9);}.cls-25{mask:url(#mask-12);}.cls-26{fill:url(#radial-gradient-10);}.cls-27{mask:url(#mask-13);}.cls-28{fill:url(#radial-gradient-11);}.cls-29{mask:url(#mask-14);}.cls-30{fill:url(#radial-gradient-12);}.cls-31{filter:url(#luminosity-noclip-7);}.cls-32{filter:url(#luminosity-noclip-6);}.cls-33{filter:url(#luminosity-noclip-5);}.cls-34{filter:url(#luminosity-noclip-3);}.cls-35{filter:url(#luminosity-noclip-2);}.cls-36{filter:url(#luminosity-noclip);}</style><filter id="luminosity-noclip" x="298.88" y="-4584.85" width="724.5" height="32766" filterUnits="userSpaceOnUse" color-interpolation-filters="sRGB"><feFlood flood-color="#fff" result="bg"/><feBlend in="SourceGraphic" in2="bg"/></filter><mask id="mask" x="298.88" y="-4584.85" width="724.5" height="32766" maskUnits="userSpaceOnUse"><g class="cls-36"/></mask><radialGradient id="radial-gradient" cx="1989.43" cy="9739" r="466.42" gradientTransform="translate(-884.06 -2519.17) scale(0.78 0.28)" gradientUnits="userSpaceOnUse"><stop offset="0" stop-color="#fff"/><stop offset="0.07" stop-color="#d8d8d8"/><stop offset="0.16" stop-color="#a6a6a6"/><stop offset="0.26" stop-color="#797979"/><stop offset="0.37" stop-color="#545454"/><stop offset="0.47" stop-color="#353535"/><stop offset="0.58" stop-color="#1e1e1e"/><stop offset="0.7" stop-color="#0d0d0d"/><stop offset="0.83" stop-color="#030303"/><stop offset="1"/></radialGradient><filter id="luminosity-noclip-2" x="775.58" y="-4584.85" width="30.09" height="32766" filterUnits="userSpaceOnUse" color-interpolation-filters="sRGB"><feFlood flood-color="#fff" result="bg"/><feBlend in="SourceGraphic" in2="bg"/></filter><mask id="mask-2" x="775.58" y="-4584.85" width="30.09" height="32766" maskUnits="userSpaceOnUse"><g class="cls-35"/></mask><radialGradient id="radial-gradient-2" cx="790.63" cy="94.03" r="15.05" gradientUnits="userSpaceOnUse"><stop offset="0" stop-color="#fff"/><stop offset="0.01" stop-color="#f6f6f6"/><stop offset="0.05" stop-color="#c8c8c8"/><stop offset="0.09" stop-color="#9d9d9d"/><stop offset="0.14" stop-color="#777"/><stop offset="0.2" stop-color="#575757"/><stop offset="0.25" stop-color="#3b3b3b"/><stop offset="0.32" stop-color="#252525"/><stop offset="0.4" stop-color="#141414"/><stop offset="0.49" stop-color="#090909"/><stop offset="0.63" stop-color="#020202"/><stop offset="1"/></radialGradient><filter id="luminosity-noclip-3" x="427.8" y="-4584.85" width="93.66" height="32766" filterUnits="userSpaceOnUse" color-interpolation-filters="sRGB"><feFlood flood-color="#fff" result="bg"/><feBlend in="SourceGraphic" in2="bg"/></filter><mask id="mask-3" x="427.8" y="-4584.85" width="93.66" height="32766" maskUnits="userSpaceOnUse"><g class="cls-34"/></mask><radialGradient id="radial-gradient-3" cx="474.62" cy="139.54" r="46.83" gradientTransform="translate(501.39 -354.45) rotate(76.72)" xlink:href="#radial-gradient-2"/><filter id="luminosity-noclip-5" x="94.81" y="-4584.85" width="1018.44" height="32766" filterUnits="userSpaceOnUse" color-interpolation-filters="sRGB"><feFlood flood-color="#fff" result="bg"/><feBlend in="SourceGraphic" in2="bg"/></filter><mask id="mask-5" x="94.81" y="-4584.85" width="1018.44" height="32766" maskUnits="userSpaceOnUse"><g class="cls-33"/></mask><linearGradient id="linear-gradient" x1="94.81" y1="214.63" x2="1113.24" y2="214.63" gradientTransform="matrix(1, 0, 0, 1, 0, 0)" xlink:href="#radial-gradient"/><filter id="luminosity-noclip-6" x="573.93" y="-4584.85" width="60.18" height="32766" filterUnits="userSpaceOnUse" color-interpolation-filters="sRGB"><feFlood flood-color="#fff" result="bg"/><feBlend in="SourceGraphic" in2="bg"/></filter><mask id="mask-6" x="573.93" y="-4584.85" width="60.18" height="32766" maskUnits="userSpaceOnUse"><g class="cls-32"/></mask><radialGradient id="radial-gradient-5" cx="604.03" cy="121.54" r="30.09" xlink:href="#radial-gradient-2"/><filter id="luminosity-noclip-7" x="783.26" y="-4584.85" width="30.09" height="32766" filterUnits="userSpaceOnUse" color-interpolation-filters="sRGB"><feFlood flood-color="#fff" result="bg"/><feBlend in="SourceGraphic" in2="bg"/></filter><mask id="mask-7" x="783.26" y="-4584.85" width="30.09" height="32766" maskUnits="userSpaceOnUse"><g class="cls-31"/></mask><radialGradient id="radial-gradient-6" cx="798.31" cy="318.62" r="15.05" xlink:href="#radial-gradient-2"/><filter id="luminosity-noclip-8" x="298.88" y="79.93" width="724.5" height="261.49" filterUnits="userSpaceOnUse" color-interpolation-filters="sRGB"><feFlood flood-color="#fff" result="bg"/><feBlend in="SourceGraphic" in2="bg"/></filter><mask id="mask-8" x="298.88" y="79.93" width="724.5" height="261.49" maskUnits="userSpaceOnUse"><g class="cls-1"><ellipse class="cls-2" cx="661.13" cy="210.67" rx="362.25" ry="130.74"/></g></mask><radialGradient id="radial-gradient-7" cx="647.76" cy="252.22" r="354.33" gradientUnits="userSpaceOnUse"><stop offset="0" stop-color="#28cfff"/><stop offset="0.07" stop-color="#22c1f2" stop-opacity="0.85"/><stop offset="0.16" stop-color="#1aafe1" stop-opacity="0.65"/><stop offset="0.26" stop-color="#139fd2" stop-opacity="0.48"/><stop offset="0.37" stop-color="#0d91c6" stop-opacity="0.33"/><stop offset="0.47" stop-color="#0886bc" stop-opacity="0.21"/><stop offset="0.58" stop-color="#057eb4" stop-opacity="0.12"/><stop offset="0.7" stop-color="#0278ae" stop-opacity="0.05"/><stop offset="0.83" stop-color="#0074ab" stop-opacity="0.01"/><stop offset="1" stop-color="#0073aa" stop-opacity="0"/></radialGradient><radialGradient id="radial-gradient-8" cx="647.76" cy="252.22" r="354.33" gradientUnits="userSpaceOnUse"><stop offset="0" stop-color="#fff"/><stop offset="0.07" stop-color="#d8eaf2" stop-opacity="0.85"/><stop offset="0.16" stop-color="#a6cee1" stop-opacity="0.65"/><stop offset="0.26" stop-color="#79b6d2" stop-opacity="0.48"/><stop offset="0.37" stop-color="#54a1c6" stop-opacity="0.33"/><stop offset="0.47" stop-color="#3590bc" stop-opacity="0.21"/><stop offset="0.58" stop-color="#1e83b4" stop-opacity="0.12"/><stop offset="0.7" stop-color="#0d7aae" stop-opacity="0.05"/><stop offset="0.83" stop-color="#0375ab" stop-opacity="0.01"/><stop offset="1" stop-color="#0073aa" stop-opacity="0"/></radialGradient><filter id="luminosity-noclip-10" x="94.81" y="23.56" width="1018.44" height="382.13" filterUnits="userSpaceOnUse" color-interpolation-filters="sRGB"><feFlood flood-color="#fff" result="bg"/><feBlend in="SourceGraphic" in2="bg"/></filter><mask id="mask-10" x="94.81" y="23.56" width="1018.44" height="382.13" maskUnits="userSpaceOnUse"><g class="cls-8"><path class="cls-9" d="M604,30.08c277.63,0,502.69,82.63,502.69,184.55S881.66,399.17,604,399.17s-502.7-82.62-502.7-184.54S326.39,30.08,604,30.08m0-6.52c-68.2,0-134.37,4.91-196.68,14.58C347.07,47.5,292.89,60.92,246.32,78,148.62,113.88,94.81,162.4,94.81,214.63s53.81,100.74,151.51,136.61c46.57,17.1,100.75,30.51,161,39.87,62.31,9.68,128.48,14.58,196.68,14.58s134.36-4.9,196.67-14.58c60.28-9.36,114.46-22.77,161-39.87,97.71-35.87,151.51-84.38,151.51-136.61S1059.44,113.88,961.73,78C915.16,60.92,861,47.5,800.7,38.14,738.39,28.47,672.22,23.56,604,23.56Z"/></g></mask><linearGradient id="linear-gradient-2" x1="94.81" y1="214.63" x2="1113.24" y2="214.63" gradientUnits="userSpaceOnUse"><stop offset="0" stop-color="#fff"/><stop offset="0.07" stop-color="#eaded8"/><stop offset="0.16" stop-color="#d0b4a6"/><stop offset="0.26" stop-color="#b98e79"/><stop offset="0.37" stop-color="#a56f54"/><stop offset="0.47" stop-color="#955535"/><stop offset="0.58" stop-color="#89411e"/><stop offset="0.7" stop-color="#80330d"/><stop offset="0.83" stop-color="#7b2b03"/><stop offset="1" stop-color="#792800"/></linearGradient><filter id="luminosity-noclip-11" x="573.93" y="91.45" width="60.18" height="60.18" filterUnits="userSpaceOnUse" color-interpolation-filters="sRGB"><feFlood flood-color="#fff" result="bg"/><feBlend in="SourceGraphic" in2="bg"/></filter><mask id="mask-11" x="573.93" y="91.45" width="60.18" height="60.18" maskUnits="userSpaceOnUse"><g class="cls-10"><path class="cls-11" d="M634.12,121.54A30.1,30.1,0,1,1,604,91.45,30.1,30.1,0,0,1,634.12,121.54Z"/></g></mask><radialGradient id="radial-gradient-9" cx="604.03" cy="121.54" r="30.09" gradientUnits="userSpaceOnUse"><stop offset="0" stop-color="#fff"/><stop offset="0.01" stop-color="#faf7f6"/><stop offset="0.05" stop-color="#e2d1c8"/><stop offset="0.09" stop-color="#cbac9d"/><stop offset="0.14" stop-color="#b88c77"/><stop offset="0.2" stop-color="#a77157"/><stop offset="0.25" stop-color="#985a3b"/><stop offset="0.32" stop-color="#8d4825"/><stop offset="0.4" stop-color="#843914"/><stop offset="0.49" stop-color="#7e2f09"/><stop offset="0.63" stop-color="#7a2a02"/><stop offset="1" stop-color="#792800"/></radialGradient><filter id="luminosity-noclip-12" x="783.26" y="303.58" width="30.09" height="30.09" filterUnits="userSpaceOnUse" color-interpolation-filters="sRGB"><feFlood flood-color="#fff" result="bg"/><feBlend in="SourceGraphic" in2="bg"/></filter><mask id="mask-12" x="783.26" y="303.58" width="30.09" height="30.09" maskUnits="userSpaceOnUse"><g class="cls-12"><path class="cls-13" d="M813.35,318.62a15,15,0,1,1-15-15A15,15,0,0,1,813.35,318.62Z"/></g></mask><radialGradient id="radial-gradient-10" cx="798.31" cy="318.62" r="15.05" xlink:href="#radial-gradient-9"/><filter id="luminosity-noclip-13" x="775.58" y="78.99" width="30.09" height="30.09" filterUnits="userSpaceOnUse" color-interpolation-filters="sRGB"><feFlood flood-color="#fff" result="bg"/><feBlend in="SourceGraphic" in2="bg"/></filter><mask id="mask-13" x="775.58" y="78.99" width="30.09" height="30.09" maskUnits="userSpaceOnUse"><g class="cls-3"><circle class="cls-4" cx="790.63" cy="94.03" r="15.05"/></g></mask><radialGradient id="radial-gradient-11" cx="790.63" cy="94.03" r="15.05" xlink:href="#radial-gradient-9"/><filter id="luminosity-noclip-14" x="427.8" y="92.71" width="93.66" height="93.66" filterUnits="userSpaceOnUse" color-interpolation-filters="sRGB"><feFlood flood-color="#fff" result="bg"/><feBlend in="SourceGraphic" in2="bg"/></filter><mask id="mask-14" x="427.8" y="92.71" width="93.66" height="93.66" maskUnits="userSpaceOnUse"><g class="cls-5"><circle class="cls-6" cx="474.62" cy="139.54" r="46.83" transform="translate(229.77 569.41) rotate(-76.72)"/></g></mask><radialGradient id="radial-gradient-12" cx="474.62" cy="139.54" r="46.83" gradientTransform="translate(501.39 -354.45) rotate(76.72)" xlink:href="#radial-gradient-9"/></defs><g class="cls-14"><g id="Layer_1" data-name="Layer 1"><g class="cls-15"><ellipse class="cls-16" cx="661.13" cy="210.67" rx="362.25" ry="130.74"/></g><g class="cls-15"><ellipse class="cls-17" cx="661.13" cy="210.67" rx="362.25" ry="130.74"/></g><g class="cls-18"><path class="cls-19" d="M612.42,458c-163.33,0-316.9-23.68-432.44-66.68C123.7,370.38,79.49,346,48.57,318.76,16.34,290.4,0,260.2,0,229s16.34-61.39,48.57-89.75C79.49,112.05,123.7,87.63,180,66.68,295.52,23.68,449.09,0,612.42,0s316.9,23.68,432.43,66.68c56.28,20.95,100.5,45.37,131.41,72.57,32.23,28.36,48.57,58.56,48.57,89.75s-16.34,61.4-48.57,89.76c-30.91,27.2-75.13,51.62-131.41,72.57C929.32,434.33,775.74,458,612.42,458Zm0-454.6c-335.81,0-609,101.2-609,225.59s273.2,225.6,609,225.6,609-101.2,609-225.6S948.23,3.41,612.42,3.41Z"/><polygon class="cls-19" points="1135.82 218.82 1084.63 218.82 1084.1 218.58 1027.37 193.1 1030.06 192.26 1086.27 217.51 1135.82 217.51 1135.82 218.82"/><polygon class="cls-19" points="1135.82 228.1 1084.67 228.1 1084.15 227.88 1038.49 209.16 1041.08 208.28 1086.22 226.79 1135.82 226.79 1135.82 228.1"/><polygon class="cls-19" points="1135.82 237.3 1084.71 237.3 1039.74 220.11 1042.25 219.2 1086.19 236 1135.82 236 1135.82 237.3"/><polygon class="cls-19" points="1135.22 245.8 1084.1 245.8 1039.14 228.61 1041.64 227.7 1085.59 244.49 1135.22 244.49 1135.22 245.8"/><path class="cls-19" d="M122.65,219.78H72.28c-1,0-1.75-.3-1.75-.66s.78-.65,1.75-.65h49.55l53.07-23.84a4.1,4.1,0,0,1,2.46-.08c.75.23.85.64.23.92L124,219.54A3.51,3.51,0,0,1,122.65,219.78Z"/><path class="cls-19" d="M122.65,229.05H72.28c-1,0-1.75-.29-1.75-.65s.78-.65,1.75-.65h49.6L167,209.24a4,4,0,0,1,2.47,0c.72.24.77.65.12.92L124,228.84A3.54,3.54,0,0,1,122.65,229.05Z"/><path class="cls-19" d="M122.65,238.26H72.28c-1,0-1.75-.29-1.75-.65s.78-.65,1.75-.65h49.63l43.94-16.8a4.08,4.08,0,0,1,2.47,0c.7.25.71.66,0,.92l-44.46,17A3.52,3.52,0,0,1,122.65,238.26Z"/><path class="cls-19" d="M123.25,246.75H72.88c-1,0-1.75-.29-1.75-.65s.79-.65,1.75-.65h49.63l42.4-16.2a4.08,4.08,0,0,1,2.47,0c.69.25.71.66,0,.92l-42.9,16.4A3.84,3.84,0,0,1,123.25,246.75Z"/><path class="cls-19" d="M603.45,66.9H605c240,.31,435,73.08,434.77,162.26S843.87,391.27,604.3,391.27h-.74c-240.18-.16-435.92-73.21-435.29-162.46S364.45,66.9,603.45,66.9m0-1.31c-241.25,0-438.05,73.22-438.68,163.22-.31,43.51,45.28,84.55,128.36,115.56s193.33,48.13,310.42,48.2h.75c241.87,0,438.8-73.3,439-163.41C1043.48,139.29,846.87,65.91,605,65.59Z"/><path class="cls-19" d="M603.49,77.16h1.45c224.83.29,407.46,68.45,407.28,152S828.7,381,604.29,381h-.7c-225-.15-408.35-68.58-407.76-152.18S379.61,77.16,603.49,77.16m0-1.23c-226,0-410.34,68.59-410.94,152.9C192.26,269.59,235,308,312.8,337.08s181.09,45.08,290.78,45.15h.71c226.56,0,411-68.67,411.21-153.07C1015.68,145,831.51,76.23,605,75.94Z"/><path class="cls-19" d="M603.52,86.66h1.37c210.75.27,382,64.17,381.78,142.48s-172,142.35-382.4,142.35h-.65c-210.91-.14-382.79-64.28-382.24-142.66S393.65,86.66,603.52,86.66m0-1.14c-211.85,0-384.66,64.29-385.21,143.32C218,267.05,258.07,303.09,331,330.32s169.76,42.26,272.58,42.32h.66c212.38,0,385.31-64.37,385.48-143.49C989.91,150.23,817.27,85.8,604.9,85.52Z"/><path class="cls-19" d="M603.55,95.67h1.28c197.42.26,357.79,60.12,357.64,133.48S801.31,362.49,604.25,362.49h-.61c-197.56-.13-358.57-60.22-358-133.63S407,95.67,603.55,95.67m0-1.07c-198.45,0-360.32,60.23-360.84,134.26-.26,35.79,37.24,69.55,105.58,95.05s159,39.59,255.35,39.65h.61c199,0,360.94-60.3,361.1-134.41C965.5,155.22,803.78,94.86,604.84,94.6Z"/><path class="cls-19" d="M603.58,103.53h1.2c185.8.24,336.73,56.57,336.58,125.61S789.7,354.64,604.24,354.64h-.58c-185.93-.12-337.46-56.68-337-125.77S418.56,103.53,603.58,103.53m0-1c-186.77,0-339.11,56.68-339.6,126.35-.24,33.69,35,65.46,99.37,89.46S513,355.59,603.66,355.64h.58c187.24,0,339.69-56.74,339.84-126.5.14-69.57-152.06-126.37-339.29-126.62Z"/><path class="cls-19" d="M603.61,111.47h1.13c174,.23,315.42,53,315.29,117.67S778,346.69,604.23,346.69h-.54c-174.17-.11-316.12-53.08-315.66-117.8S430.29,111.47,603.61,111.47m0-1c-174.95,0-317.66,53.1-318.12,118.36-.23,31.56,32.83,61.32,93.08,83.81s140.2,34.89,225.11,34.95h.55c175.39,0,318.2-53.16,318.34-118.5C922.7,164,780.13,110.76,604.75,110.52Z"/><path class="cls-19" d="M603.64,118.83h1.05c163.16.22,295.68,49.68,295.56,110.31s-133.18,110.19-296,110.19h-.51c-163.27-.1-296.33-49.76-295.9-110.43S441.17,118.83,603.64,118.83m0-.89c-164,0-297.78,49.78-298.22,111-.21,29.58,30.78,57.47,87.26,78.55s131.42,32.72,211,32.77h.52c164.41,0,298.28-49.83,298.41-111.08.13-61.1-133.52-111-297.93-111.2Z"/><path class="cls-19" d="M603.66,125.81h1c152.83.2,277,46.53,276.86,103.32S756.75,332.36,604.2,332.36h-.47c-152.94-.1-277.59-46.62-277.19-103.45s124.93-103.1,277.12-103.1m0-.84C450,125,324.72,171.6,324.31,228.91c-.19,27.71,28.84,53.84,81.74,73.59s123.11,30.64,197.67,30.69h.48c154,0,279.42-46.68,279.54-104.06C883.86,171.9,758.67,125.18,604.66,125Z"/><path class="cls-19" d="M603.69,134.26h.91c140.33.18,254.31,42.72,254.2,94.87s-114.54,94.78-254.61,94.78h-.44c-140.42-.09-254.87-42.8-254.5-95S464,134.26,603.69,134.26m0-.77c-141.06,0-256.12,42.81-256.49,95.43-.18,25.44,26.47,49.44,75.05,67.57s113,28.14,181.5,28.18h.44c141.41,0,256.55-42.86,256.66-95.54S746,133.68,604.61,133.49Z"/><path class="cls-19" d="M603.71,140.25h.85c131.45.18,238.23,40,238.13,88.88s-107.3,88.78-238.51,88.78h-.41c-131.54-.08-238.75-40.1-238.41-89s107.45-88.68,238.35-88.68m0-.71c-132.13,0-239.92,40.1-240.26,89.39-.17,23.83,24.8,46.31,70.3,63.29s105.88,26.36,170,26.4h.41c132.47,0,240.32-40.15,240.43-89.49s-107.58-89.42-240-89.59Z"/><path class="cls-19" d="M602.79,12.21q29.75,0,59.7,1.19C757.55,17.19,846,28.27,925,48.4c161.85,41.26,249.54,98.6,260.5,171.53,5.88,39.11-16.77,76.37-67.47,110.76-90.21,61.2-228.16,98.46-412.48,111.68-22.22,1.6-44.9,2.31-67.37,3.43H569.91l-24.67-1C451.85,441,365,430.1,286.69,410.67,147.05,376,61.22,327.92,30.76,266.38c-4-8.13-6.05-16.4-9-24.6v-25.4c.65-1.21,1.68-2.41,1.9-3.64,4.13-22.39,18.17-43.91,40.42-64.76C151.3,66.22,369.6,12.22,602.79,12.21M604.37,427c292.36,0,531.22-88.88,531.45-197.83s-237.7-197.64-530.6-198h-1.9C311.65,31.15,73,119.86,72.23,228.75S310.35,426.82,603.46,427h.91M602.83,10.08h0c-237.93,0-456.56,55.1-544,137.11C35.68,168.81,22,190.81,17.94,212.6a7.12,7.12,0,0,1-1.07,2.14c-.26.4-.52.81-.74,1.22l-.11.21v25.75l.05.14c.93,2.59,1.77,5.18,2.6,7.78a122.87,122.87,0,0,0,6.44,16.93c30.53,61.68,117.47,110.7,258.4,145.68,76.18,18.91,164,30.49,261.11,34.44q8.42.33,16.81.7l7.84.33h69.26l.37,0c7.09-.35,14.2-.66,21.3-1,15.24-.67,31-1.36,46.4-2.47,185.66-13.31,325.77-51.25,416.42-112.75,51.18-34.72,74.12-72.37,68.18-111.91-11-73.23-99.49-131.49-263-173.17-76.5-19.51-165.69-31.4-265.11-35.37-19.93-.79-40.21-1.19-60.27-1.19Zm1.54,414.79h-.9c-140.23-.09-272.26-20.59-371.76-57.72S77.61,280.86,78,228.76C78.74,121,314.41,33.29,603.32,33.29h1.88c289.65.38,525.11,88.26,524.88,195.89-.23,107.9-236.06,195.69-525.71,195.69Z"/><path class="cls-19" d="M517.31,41.88c-.81,0-1.63,0-2.46.08-14.55,1-29.17,2.17-43.43,3.6-7.47.75-11.9,3.62-9.88,6.4,1.68,2.32,7.34,3.86,13.52,3.86q1.8,0,3.63-.18Q495.1,54,511.94,52.77h0l.93-.07H515l.55,0h0l4.18-.28c7.62-.5,12.7-3.21,11.35-6-1.2-2.53-7.11-4.31-13.78-4.31Zm-83.47,8.38a35.41,35.41,0,0,0-4.83.32c-13.86,1.89-27.67,4-41.05,6.38-7,1.23-10,4.33-6.71,6.94,2.38,1.89,7.42,3,12.69,3a35,35,0,0,0,5.9-.49q19-3.33,38.84-6c7.26-1,11-4,8.31-6.69-2.08-2.11-7.44-3.42-13.15-3.42ZM355.62,63.94a33.76,33.76,0,0,0-7,.71c-12.75,2.76-25.34,5.77-37.42,8.94-6.32,1.66-7.84,4.91-3.38,7.26,2.73,1.45,7.06,2.22,11.47,2.22a32.35,32.35,0,0,0,8-.95c11.44-3,23.28-5.83,35.42-8.45,6.68-1.45,8.94-4.64,5.05-7.13-2.6-1.67-7.3-2.6-12.12-2.6ZM285,82.46a30.89,30.89,0,0,0-9,1.23c-11.28,3.54-22.29,7.3-32.72,11.19-5.47,2-5.46,5.34,0,7.38a33,33,0,0,0,19.82,0l1.39-.51h0l.21-.08h0l.2-.07,0,0,.2-.07h0l.19-.07,0,0,.19-.07h.05l.18-.07.07,0,.17-.07.07,0,.17-.07.08,0,.13,0,.1,0,.12,0,.13-.05.11,0,.1,0,.14,0,.1,0,.15-.05.1,0,.1,0,.15-.06.08,0,.17-.07.07,0,.19-.07.05,0,.38-.14h0l.23-.09h0l.23-.08h0l.24-.09h0l.64-.23h0l.25-.1h0c2.52-.9,5.06-1.79,7.64-2.67h0l.26-.09h0l.27-.09h0l.66-.23h0l.25-.08h0l.23-.08h0l.22-.08h.05l.12,0h0l.25-.08.06,0,.19-.07.07,0,.18-.06.08,0,.17-.05.09,0,.13-.05.12,0,.12,0,.11,0,.14,0,.09,0,.16-.06.09,0,.15,0,.11,0,.11,0,.14,0,.1,0,.16-.05.09,0,.16-.06.09,0,.14,0,.11,0,.14,0,.07,0,.18-.06.08,0,.17-.06.07,0,.19-.06.06,0,.2-.06,0,0,.19-.06h0l.2-.07h0l.2-.07,0,0,.21-.06,0,0,.21-.07h0l.22-.07h0l.23-.08h0l.23-.08h0l.23-.07h0l.23-.07h0c2.23-.72,4.47-1.44,6.74-2.15,5.9-1.85,6.66-5.14,1.67-7.34A27.92,27.92,0,0,0,285,82.46Zm-61,22.76a28.06,28.06,0,0,0-10.74,1.86c-9.49,4.21-18.6,8.62-27.08,13.11-4.44,2.36-2.92,5.61,3.42,7.27a32.51,32.51,0,0,0,8,1c4.4,0,8.73-.77,11.46-2.21q4.83-2.57,9.88-5.06h0l.2-.09h0l.19-.09h0l.58-.29h0l.18-.08,0,0,.17-.08,0,0,.17-.08h0l.18-.09h0l.17-.08h0l.17-.08,0,0,.16-.08,0,0,.17-.08,0,0,.16-.08,0,0,.14-.07,0,0,.16-.08,0,0,.15-.07.06,0,.15-.07.06,0,.14-.07.07,0,.12-.06.08,0,.11-.05.07,0,.14-.07.07,0,.14-.06.07,0,.14-.06.07,0,.1,0,.11-.06.09,0,.11-.05.1,0,.08,0,.13-.06.09,0,.1,0,.11,0,.08,0,.13-.06.08,0,.13-.06.08,0,.12,0,.09,0a.31.31,0,0,1,.1,0l.05,0,.16-.08.06,0,.15-.07.06,0,.16-.07,0,0,.18-.08,0,0,.32-.15,0,0,.18-.08,0,0,.18-.08,0,0,.19-.09h0l.56-.26h0l.21-.09h0l.2-.09h0l.56-.26h0l.22-.11h0l.21-.1h0l.78-.36h0l.21-.1h0l.21-.09h0l.57-.26h0l.21-.1h0l.21-.09h0l.57-.25h0l.21-.09h0l.21-.1h0l.22-.11h0l.57-.25h0l.2-.09h0l.2-.09h0l.5-.22c5-2.21,4.2-5.5-1.72-7.35a31.21,31.21,0,0,0-9-1.22Zm-49.63,26.31c-4.83,0-9.53.93-12.13,2.6a252.36,252.36,0,0,0-20.62,14.67c-3.28,2.6-.27,5.71,6.74,6.93a34.43,34.43,0,0,0,5.94.5c5.25,0,10.28-1.11,12.67-3q6.52-5.18,13.87-10.15h0l.07,0h0l0,0,0,0,.05,0,0,0,0,0,0,0,0,0,.07,0h0l.09-.05h0l.17-.12h0l.08-.05h0l.08-.05h0q2.33-1.56,4.73-3.11c3.88-2.49,1.6-5.68-5.09-7.12a33.57,33.57,0,0,0-7-.71ZM137.27,286.87a35.18,35.18,0,0,0-4.8.32c-7.27,1-11,4-8.36,6.68a187.17,187.17,0,0,0,17.06,15.29c2.38,1.9,7.43,3,12.7,3a35.33,35.33,0,0,0,5.93-.49c7-1.22,10-4.31,6.78-6.92q-6-4.75-11.22-9.65h0l-.06-.06h0l-.42-.39h0l-.05,0h0l-.05,0h0l-.05,0h0l-.05,0,0,0,0,0,0,0-.06-.06-.05,0,0,0,0,0,0,0-.05,0,0,0,0-.05h0l-.05-.05h0l0-.06h0q-1.89-1.81-3.67-3.63c-2.08-2.12-7.45-3.43-13.17-3.43ZM173.87,316a33.54,33.54,0,0,0-7,.7c-6.7,1.44-9,4.63-5.1,7.13,7.39,4.75,15.44,9.44,23.92,13.94,2.73,1.45,7.08,2.22,11.49,2.22a32.43,32.43,0,0,0,8-.94c6.34-1.66,7.87-4.91,3.43-7.27q-2.74-1.46-5.42-2.93h0l-.09-.05h0l-.09-.06h0l-.09-.05h0l-.09-.05h0l-.39-.22h0l-.07,0h0l-.07,0,0,0-.07,0h0l-.06,0,0,0-.07,0h0l-.08-.05h0l-.19-.11,0,0-.07,0,0,0-.07,0,0,0-.06,0,0,0-.06,0,0,0,0,0-.05,0,0,0,0,0,0,0-.05,0,0,0-.11-.07h0l-.06,0a.05.05,0,0,0,0,0l0,0,0,0-.06,0,0,0-.07,0,0,0-.06,0,0,0-.05,0,0,0-.06,0,0,0-.06,0,0,0-.05,0-.1-.05h0l-.07,0,0,0,0,0-.06,0,0,0,0,0,0,0,0,0-.05,0,0,0-.05,0,0,0,0,0,0,0-.05,0,0,0,0,0-.14-.08h0l-.05,0,0,0,0,0,0,0-.05,0,0,0,0,0,0,0,0,0-.06,0,0,0,0,0,0,0-.06,0,0,0-.06,0,0,0-.09-.05,0,0-.07,0,0,0-.06,0,0,0-.06,0,0,0-.06,0,0,0-.06,0,0,0-.07,0,0,0-.07,0,0,0-.08,0h0l-.29-.16,0,0-.08,0h0l-.08-.05h0l-.08,0h0l-.07-.05h0l-.09-.05h0l-.59-.35h0l-.09-.05h0q-5-2.93-9.65-5.93c-2.6-1.67-7.3-2.6-12.14-2.6Zm49.61,26.32a31.14,31.14,0,0,0-9,1.22c-5.93,1.85-6.7,5.14-1.73,7.35,9.49,4.21,19.58,8.31,30,12.2a32.93,32.93,0,0,0,19.81,0c5.48-2,5.49-5.34,0-7.37l0,0-.16-.06-.08,0-.15-.05-.09,0-.12,0-.12-.05-.11,0-.11,0-.13-.05-.09,0-.15-.06-.09,0-.14-.06-.1,0-.1,0-.15-.06-.09,0-.13-.05-.1,0-.1,0-.14-.05-.11,0-.11,0-.13-.05-.09,0-.14-.06-.09,0-.15-.06-.09,0-.14-.06-.1,0-.1-.05-.14-.05-.1,0-.1,0-.14-.06-.09,0-.15-.06-.08,0-.15-.06-.09,0-.1,0-.14-.05-.1,0-.1,0-.14-.06-.08,0-.16-.06-.08,0-.15-.05-.09,0-.1,0-.14-.05-.1,0-.14-.06-.09,0-.11,0-.13-.05-.09,0-.13-.05-.11,0-.09,0-.15-.05-.09,0-.14-.06-.09,0-.14-.05-.09,0-.13-.05-.09,0-.13,0-.07,0-.17-.06-.07,0-.16-.06-.07,0-.17-.06-.06,0-.15-.06-.07,0a.94.94,0,0,1-.15-.06l0,0-.18-.06-.06,0-.17-.07-.06,0-.17-.07-.06,0-.18-.07,0,0-.17-.06,0,0-.18-.07-.05,0-.18-.07,0,0-.18-.08h0l-.19-.08h0l-.2-.08h0l-.2-.08,0,0-.2-.08h0l-.2-.09h0l-.2-.08h0a1.31,1.31,0,0,1-.21-.08h0l-.21-.09h0l-.21-.09h0l-.2-.09h0l-.21-.09h0l-.66-.27h0l-.21-.09h0l-.21-.09h0c-1.55-.63-3.08-1.27-4.61-1.91h0l-.87-.36h0l-.22-.09h0l-.21-.08h0l-.64-.27h0l-.2-.09h0l-.19-.08h0l-.2-.08h0l-.2-.09h0l-.19-.08,0,0-.18-.07,0,0-.18-.08,0,0-.18-.07,0,0-.15-.07-.06,0a.59.59,0,0,1-.14-.06l-.07,0-.15-.07-.07,0-.15-.06-.07,0-.15-.07-.08,0-.1-.05-.13-.05-.08,0-.15-.06-.07,0-.2-.09h0l-.35-.16h0l-3.11-1.36a28,28,0,0,0-10.74-1.87Zm61,22.77A28.12,28.12,0,0,0,273.79,367c-5,2.2-4.24,5.49,1.68,7.35,11.29,3.54,23.12,6.94,35.18,10.11a32.61,32.61,0,0,0,8.06.95c4.4,0,8.73-.77,11.46-2.21,4.46-2.35,2.95-5.61-3.37-7.27l-.15,0h0l-1-.27h0q-16.56-4.37-32.07-9.24a31.28,31.28,0,0,0-9-1.22Zm70.61,18.52c-4.83,0-9.52.93-12.12,2.59-3.9,2.49-1.64,5.69,5.05,7.14,12.77,2.77,26,5.36,39.36,7.7a34.66,34.66,0,0,0,6,.5c5.26,0,10.3-1.11,12.69-3,3.3-2.6.3-5.71-6.7-6.94-12.71-2.23-25.15-4.66-37.23-7.28a33.54,33.54,0,0,0-7-.71Zm78.15,13.71c-5.7,0-11.06,1.31-13.15,3.42-2.67,2.7,1.05,5.7,8.31,6.7,13.86,1.9,28.12,3.59,42.37,5a35.22,35.22,0,0,0,3.69.19c6.16,0,11.82-1.53,13.51-3.85,2-2.78-2.37-5.64-9.82-6.4q-12.44-1.26-24.58-2.75h0l-.12,0h0l-.11,0h-.55l-.18,0h-.82l-.12,0h-.05l-.14,0h0l-.35,0h0l-.16,0h0l-.15,0h0l-.15,0h0l-.16,0h0q-6.15-.78-12.23-1.61a35.82,35.82,0,0,0-4.85-.33Zm83.39,8.44c-6.65,0-12.56,1.77-13.77,4.29-1.37,2.84,3.7,5.55,11.32,6.06,14.52,1,29.35,1.71,44.07,2.2l1.28,0c7.17,0,13.28-2,13.94-4.75.69-2.87-5-5.4-12.7-5.66q-21.09-.71-41.65-2.08c-.83-.06-1.67-.08-2.49-.08ZM646,408l-1.17,0c-10,.31-20.09.51-30.27.59H602.75c-7.72,0-14,2.32-14,5.2s6.23,5.22,14,5.23h1.63c14.26,0,28.65-.23,42.8-.67,7.71-.24,13.44-2.76,12.79-5.63S653.18,408,646,408Zm85.16-5.49a35.69,35.69,0,0,0-3.57.17q-20.25,2-41.13,3.35c-7.61.5-12.7,3.19-11.38,6,1.18,2.53,7.1,4.32,13.79,4.32.79,0,1.6,0,2.41-.07,14.56-.94,29.19-2.13,43.47-3.55,7.47-.74,11.93-3.59,9.94-6.38-1.67-2.33-7.33-3.87-13.53-3.87Zm81.23-11a35.06,35.06,0,0,0-5.9.48q-5.07.88-10.2,1.72h0l-.16,0h0l-.15,0h0l-.15,0h0l-.15,0h0l-.5.08h0l-.14,0h0l-.11,0h-.22l-.09,0h-.15l-.1,0H794l-.42.07h0l-.13,0h0l-.13,0h0l-.13,0h0l-.14,0h0q-12.54,2-25.42,3.74c-7.25,1-11,4-8.36,6.68,2.07,2.12,7.45,3.43,13.18,3.43a36.38,36.38,0,0,0,4.77-.31c13.88-1.87,27.71-4,41.11-6.32,7-1.21,10.06-4.32,6.8-6.93-2.38-1.9-7.43-3-12.72-3Zm74.87-16.06a32.81,32.81,0,0,0-8,.94q-17.21,4.47-35.46,8.39c-6.71,1.44-9,4.63-5.15,7.13,2.6,1.67,7.31,2.61,12.16,2.61a34,34,0,0,0,7-.7c12.78-2.74,25.4-5.73,37.52-8.88,6.34-1.64,7.9-4.9,3.46-7.26-2.72-1.45-7.07-2.23-11.5-2.23Zm66.32-20.61a29.72,29.72,0,0,0-9.88,1.52q-4.24,1.56-8.58,3.09h0l-.25.08h0l-.23.08h0l-.38.14h0l-.21.07-.07,0-.18.06-.08,0-.16.05-.09,0-.15.05-.1,0-.11,0-.14.05-.11,0-.12,0-.12,0-.12,0-.12,0-.12.05-.09,0-.16.05-.08,0-.17.06-.08,0-.17.06-.08,0-.16.06-.07,0-.16.06-.07,0-.18.06-.06,0-.18.07-.07,0-.19.06,0,0-.2.07h0l-.2.07h0l-.21.07h0l-.2.07,0,0-.21.07h0l-.21.07h0l-.22.08h0l-.22.08h0L928,362h0l-.22.07h0l-.22.07h0l-.23.08h0l-.48.16h0l-.23.07h0l-.23.07h0l-.24.08h0l-.48.16h0l-.23.08h0l-.23.07h0l-.23.08h0l-.72.24h0l-.24.08h0l-.23.08h0l-.72.23h0l-.23.07h0l-.23.07h0l-.23.08h0l-.48.16h0l-.23.08h0l-.23.08h0l-.22.07h0l-.23.07h0l-.23.08h0l-.22.08h0l-.22.07h0l-.21.07h0l-.22.07h0l-.22.07h0l-.22.08h0l-.21.06-.06,0-.19.06-.06,0-.2.07h0l-.2.07h0l-.18.06-.06,0-.18.06-.07,0-.19.06-.07,0-.19.06-.07,0-.16.05-.11,0-.13,0-.11,0-.14,0-.09,0-.16,0-.1,0-.16.05-.11,0-.11,0-.15.05-.09,0-.17.05-.09,0-.19.06-.06,0-.26.08h0l-.13,0h0l-.25.08h0l-.25.08h0l-1.12.35c-5.94,1.85-6.73,5.14-1.77,7.35a28.05,28.05,0,0,0,10.76,1.87,31.41,31.41,0,0,0,9-1.21c11.32-3.52,22.37-7.27,32.84-11.14,5.49-2,5.52-5.34.07-7.38a29.48,29.48,0,0,0-9.94-1.54Zm55.83-24.54c-4.39,0-8.72.77-11.45,2.2-1.62.85-3.25,1.7-4.9,2.53h0l-.2.1h0l-.31.16h0l-.2.1,0,0-.16.08-.06,0-.14.07-.06,0-.14.07-.07,0-.09,0-.12.06a.2.2,0,0,1-.08,0l-.11.06-.09,0-.1,0-.09.05-.11.05-.06,0-.14.07-.07,0-.14.07,0,0-.15.08-.06,0-.14.07,0,0-.13.07-.05,0-.16.08,0,0-.16.08,0,0-.15.08-.05,0-.16.08h0l-.16.08h0l-.17.09,0,0-.16.08,0,0-.16.08h0l-.17.09h0l-.17.08h0l-.17.09h0l-.17.08,0,0-.17.08,0,0-.17.08,0,0-.18.08h0l-.18.09h0l-.18.09h0l-.17.08,0,0-.17.08,0,0-.17.08,0,0-.16.07,0,0-.16.08-.05,0-.16.08,0,0L985,339l0,0-.16.08h0l-.15.08,0,0-.15.07,0,0-.15.08-.05,0-.16.07-.06,0-.14.07-.07,0-.13.06-.06,0-.13.07-.06,0-.15.07-.06,0L983,340l-.08,0-.14.07-.07,0-.1.05-.11.06-.09,0-.12.05-.08,0-.14.06-.08,0-.09.05-.09,0-.13.06-.07,0-.14.07-.06,0-.17.08h0l-.2.1h0q-4.34,2-8.82,4c-5,2.19-4.26,5.48,1.64,7.35a31.1,31.1,0,0,0,9,1.23,28.25,28.25,0,0,0,10.7-1.84c9.54-4.2,18.7-8.6,27.23-13.08,4.47-2.35,3-5.6-3.34-7.27a32.24,32.24,0,0,0-8.08-1ZM1053,302.6c-5.25,0-10.28,1.1-12.67,3q-9,7.1-19.64,13.83c-3.91,2.49-1.66,5.68,5,7.13a33.28,33.28,0,0,0,7.06.72c4.82,0,9.5-.92,12.11-2.58,7.47-4.75,14.45-9.67,20.77-14.63,3.32-2.61.33-5.72-6.66-6.95a35,35,0,0,0-6-.5Zm2-156a34.62,34.62,0,0,0-5.87.48c-7,1.21-10.09,4.31-6.84,6.93l.85.68h0l.07.06h0l.07.06h0l.3.25h0l.06.05h0l0,0,0,0a.1.1,0,0,0,0,0l0,0,.05,0,0,0,0,0,0,0,0,0,0,0,0,0,0,0,0,0,0,0,0,0,0,0,0,0,0,0,0,0,0,0,0,0,0,0,0,0,0,0,0,0,.05,0h0l.18.15,0,0,.05,0h0l0,0,0,0,0,0,0,0,.05,0h0l.06.05h0l.33.28h0l.07.05h0l.06.05h0l.06,0h0l.07.05h0q6.29,5.3,11.66,10.77h0l.33.34h0l0,0h0l0,0,0,0,0,0v0l0,0,0,0,0,0,0,0,0,0,0,0,0,0,0,0,0,0c2,2.12,7.44,3.45,13.18,3.45a36,36,0,0,0,4.75-.31c7.28-1,11.06-4,8.44-6.68a185.81,185.81,0,0,0-16.89-15.31c-2.37-1.91-7.44-3-12.73-3Zm-43-27.9a32.65,32.65,0,0,0-8,.93c-6.35,1.65-7.92,4.9-3.5,7.26l2.23,1.21h0l.64.35h0l.07,0,0,0,.07,0h0l.07,0h0l.07,0h0l.07,0h0l.35.19h0l.09,0h0l.08,0h0l.07,0h0l.07,0,0,0,.06,0,0,0,.07,0h0l.06,0,0,0,.06,0,0,0,.1.05,0,0,.06,0,0,0,0,0,.05,0,0,0,0,0,0,0,0,0,.05,0,0,0,0,0,.06,0,0,0,.06,0,0,0,.07,0,0,0,.09.05h0l.08.05h0l.07,0h0l.07,0h0l.07,0,0,0,.08,0h0l.08,0h0l.07.05h0l.29.17h0l.09.05h0l.07,0,0,0,.07,0,0,0,.06,0,0,0,.07,0,0,0,.07,0,0,0,.08.05h0l.3.17h0l.08,0h0l.08.05h0l.07,0,0,0,.07,0h0l.09,0h0l.09.06h0l.39.22h0l.08.05h0l.08,0h0l.08.05h0l.09,0h0l.08,0h0l.09.05h0l.2.11h0l.09,0,0,0,.08,0h0l.07,0,0,0,.07,0,0,0,.06,0,0,0,.07,0,0,0,.07,0h0l.09,0h0l.2.12h0l.07,0,0,0,.06,0h0l.07,0,0,0,.06,0h0l.07,0,0,0,.07,0h0l.07.05h0l.19.11h0l.08,0h0l.07,0,0,0,.07,0h0l.07,0,0,0,.07,0h0l.06,0,0,0,.06,0h0l.07,0,0,0,.09.05,0,0,.06,0,0,0,0,0,0,0,.06,0,0,0,.05,0,0,0,0,0,.05,0,0,0,0,0,0,0,0,0,.05,0,0,0,0,0,.08.05,0,0,0,0a.1.1,0,0,0,0,0l0,0,0,0,.06,0,0,0,.06,0,0,0,.06,0,0,0,.06,0,0,0,.06,0,0,0,.06,0h0l.23.13h0l.07,0,0,0,.07,0h0l.06,0,0,0,.05,0,0,0a.09.09,0,0,0,0,0l0,0,.07,0h0l.08.05h0l.41.25h0l.07,0h0l.07.05h0l.08,0h0l.08,0h0l.09.05h0l.68.41h0q3.25,2,6.36,4c2.59,1.68,7.31,2.62,12.17,2.62a33.64,33.64,0,0,0,6.95-.69c6.72-1.43,9-4.62,5.19-7.12-7.34-4.76-15.34-9.47-23.77-14-2.72-1.46-7.09-2.24-11.52-2.24ZM956.78,94a29.6,29.6,0,0,0-9.86,1.51c-5.5,2-5.55,5.33-.1,7.38h0l.2.08h0l.2.07,0,0,.21.07h0l.21.08h0l.68.25h0l.22.08h0l.22.08h0c7.41,2.83,14.6,5.74,21.5,8.74h0l.21.09h0l.21.09h0l.4.18h0l.17.07,0,0,.16.07.07,0,.15.06.07,0,.12,0,.11,0,.09,0,.14.06.07,0,.21.09h0l2.38,1.06a27.93,27.93,0,0,0,10.78,1.88,31.2,31.2,0,0,0,8.95-1.21c6-1.84,6.76-5.13,1.81-7.34-9.44-4.23-19.49-8.35-29.87-12.25a29.55,29.55,0,0,0-10-1.55ZM891,73.21c-4.38,0-8.7.77-11.43,2.2-4.48,2.34-3,5.59,3.26,7.26Q900,87.22,916,92.29a31,31,0,0,0,9,1.24,28.27,28.27,0,0,0,10.69-1.84c5-2.2,4.29-5.49-1.61-7.35-11.25-3.56-23.06-7-35.08-10.16a32.54,32.54,0,0,0-8.11-1Zm-74.5-16.28c-5.24,0-10.27,1.09-12.67,3-3.32,2.6-.35,5.71,6.64,6.95h.1l.13,0h0l.14,0h0l.48.08h0l.12,0h0l.12,0h.05l.11,0h.05l.11,0h0l.11,0h0l.12,0h0l.11,0h0l.32.06h0l.13,0h.16l.06,0h.16l.09,0h.07l.09,0h.07l.08,0h.08l.11,0h0l.15,0h0l.13,0,.06,0h.16l.1,0h.06l.09,0h.07l.1,0H815l.11,0h0l.12,0h0l.13,0h0l.15,0h0l.13,0h0l.11,0H816l.09,0h.07l.09,0h.06l.1,0h.07l.09,0h.06l.11,0h0l.16,0h0l.48.08h0l.14,0h0l.12,0h0l.12,0h0l.12,0h0l.15,0h0l.65.12h0l.14,0h0l.14,0h0l.14,0h0l.15,0h0q14.28,2.67,28,5.67a33.57,33.57,0,0,0,7.09.72c4.8,0,9.48-.92,12.09-2.57,3.92-2.49,1.69-5.68-5-7.14-12.74-2.79-26-5.4-39.28-7.76a35.33,35.33,0,0,0-6-.5Zm-81-11.23c-6.14,0-11.78,1.51-13.5,3.83-2.05,2.78,2.33,5.65,9.79,6.41q20.37,2.09,40,4.82a36.3,36.3,0,0,0,4.89.33c5.68,0,11-1.3,13.13-3.4,2.7-2.7-1-5.7-8.24-6.71-13.84-1.92-28.09-3.63-42.32-5.09a36.17,36.17,0,0,0-3.74-.19Zm-85-5.8c-7.15,0-13.25,2-13.94,4.72-.72,2.87,4.93,5.41,12.64,5.68q8,.29,15.94.66h.76l.37,0h3.24l.46,0h.69l.62,0h.5l.8,0h.35l.78,0h.52l.62,0h.66l.46,0h3.24l.55,0h.21q5.45.32,10.86.69c.85.06,1.7.09,2.54.09,6.63,0,12.53-1.76,13.77-4.28,1.39-2.83-3.65-5.55-11.26-6.07-14.51-1-29.33-1.75-44.05-2.27-.45,0-.89,0-1.33,0Zm-47.07-.83h0c-14.79,0-29.72.25-44.39.72-7.71.25-13.42,2.78-12.74,5.65s6.75,4.77,13.94,4.77l1.21,0c11.35-.37,22.84-.6,34.4-.66h11.48c7.7,0,14-2.31,14-5.19s-6.17-5.22-13.91-5.24h-4Z"/><path class="cls-19" d="M223.73,174h0c-4.95-.63-7.61-2.65-5.92-4.49l6.39-7c1.69-1.84,7.13-2.83,12.08-2.2h0c4.94.63,7.61,2.65,5.92,4.49l-6.39,7C234.12,173.66,228.68,174.65,223.73,174Z"/><path class="cls-19" d="M269.05,181h0c-4.95-.63-7.61-2.65-5.92-4.49l6.39-7c1.69-1.84,7.12-2.83,12.07-2.2h0c5,.63,7.62,2.65,5.93,4.49l-6.39,7C279.43,180.68,274,181.67,269.05,181Z"/><path class="cls-19" d="M983.79,174h0c5-.63,7.61-2.65,5.92-4.49l-6.39-7c-1.69-1.84-7.13-2.83-12.08-2.2h0c-5,.63-7.61,2.65-5.92,4.49l6.39,7C973.4,173.66,978.84,174.65,983.79,174Z"/><path class="cls-19" d="M938.47,181h0c4.95-.63,7.61-2.65,5.92-4.49l-6.39-7c-1.69-1.84-7.13-2.83-12.07-2.2h0c-4.95.63-7.62,2.65-5.93,4.49l6.39,7C928.09,180.68,933.52,181.67,938.47,181Z"/><rect class="cls-19" x="278.52" y="225.02" width="19.02" height="14.43" rx="5.78"/><rect class="cls-19" x="361.82" y="185.79" width="7.08" height="38.78" rx="2.84" transform="translate(570.54 -160.18) rotate(90)"/><rect class="cls-19" x="361.82" y="195.24" width="7.08" height="38.78" rx="2.84" transform="translate(579.99 -150.74) rotate(90)"/><rect class="cls-19" x="361.82" y="204.68" width="7.08" height="38.78" rx="2.84" transform="translate(589.44 -141.29) rotate(90)"/><rect class="cls-19" x="361.82" y="214.13" width="7.08" height="38.78" rx="2.84" transform="translate(598.88 -131.84) rotate(90)"/><rect class="cls-19" x="361.82" y="223.58" width="7.08" height="38.78" rx="2.84" transform="translate(608.33 -122.4) rotate(90)"/><rect class="cls-19" x="904.04" y="185.79" width="7.08" height="38.78" rx="2.84" transform="translate(1112.76 -702.4) rotate(90)"/><rect class="cls-19" x="904.04" y="195.24" width="7.08" height="38.78" rx="2.84" transform="translate(1122.21 -692.95) rotate(90)"/><rect class="cls-19" x="904.04" y="204.68" width="7.08" height="38.78" rx="2.84" transform="translate(1131.65 -683.51) rotate(90)"/><rect class="cls-19" x="904.04" y="214.13" width="7.08" height="38.78" rx="2.84" transform="translate(1141.1 -674.06) rotate(90)"/><rect class="cls-19" x="904.04" y="223.58" width="7.08" height="38.78" rx="2.84" transform="translate(1150.55 -664.61) rotate(90)"/><rect class="cls-19" x="952.96" y="225.02" width="19.02" height="14.43" rx="5.78"/></g><g class="cls-20"><path class="cls-21" d="M604,30.08c277.63,0,502.69,82.63,502.69,184.55S881.66,399.17,604,399.17s-502.7-82.62-502.7-184.54S326.39,30.08,604,30.08m0-6.52c-68.2,0-134.37,4.91-196.68,14.58C347.07,47.5,292.89,60.92,246.32,78,148.62,113.88,94.81,162.4,94.81,214.63s53.81,100.74,151.51,136.61c46.57,17.1,100.75,30.51,161,39.87,62.31,9.68,128.48,14.58,196.68,14.58s134.36-4.9,196.67-14.58c60.28-9.36,114.46-22.77,161-39.87,97.71-35.87,151.51-84.38,151.51-136.61S1059.44,113.88,961.73,78C915.16,60.92,861,47.5,800.7,38.14,738.39,28.47,672.22,23.56,604,23.56Z"/></g><g class="cls-22"><g class="cls-23"><path class="cls-24" d="M634.12,121.54A30.1,30.1,0,1,1,604,91.45,30.1,30.1,0,0,1,634.12,121.54Z"/></g></g><g class="cls-22"><g class="cls-25"><path class="cls-26" d="M813.35,318.62a15,15,0,1,1-15-15A15,15,0,0,1,813.35,318.62Z"/></g></g><g class="cls-22"><g class="cls-27"><circle class="cls-28" cx="790.63" cy="94.03" r="15.05"/></g></g><g class="cls-22"><g class="cls-29"><circle class="cls-30" cx="474.62" cy="139.54" r="46.83" transform="translate(229.77 569.41) rotate(-76.72)"/></g></g></g></g></svg>