<svg id="Layer_1" data-name="Layer 1" xmlns="http://www.w3.org/2000/svg" xmlns:xlink="http://www.w3.org/1999/xlink" viewBox="0 0 1087.65 285.46"><defs><style>.cls-1{fill:url(#linear-gradient);}.cls-2{fill:url(#linear-gradient-2);}.cls-3{fill:url(#linear-gradient-3);}.cls-4{fill:url(#linear-gradient-4);}.cls-5{fill:url(#linear-gradient-5);}.cls-6{fill:url(#linear-gradient-6);}.cls-7{fill:url(#linear-gradient-7);}.cls-8{fill:url(#linear-gradient-8);}.cls-9{fill:url(#linear-gradient-9);}.cls-10{fill:url(#linear-gradient-10);}.cls-11{fill:url(#linear-gradient-11);}.cls-12{fill:url(#linear-gradient-12);}.cls-13{fill:url(#linear-gradient-13);}.cls-14{fill:url(#linear-gradient-14);}.cls-15{fill:url(#linear-gradient-15);}.cls-16{fill:url(#linear-gradient-16);}.cls-17{fill:url(#linear-gradient-17);}.cls-18{fill:url(#linear-gradient-18);}.cls-19{fill:url(#linear-gradient-19);}.cls-20{fill:url(#linear-gradient-20);}.cls-21{fill:url(#linear-gradient-21);}.cls-22{fill:url(#linear-gradient-22);}.cls-23{fill:#fff;}.cls-24,.cls-25{opacity:0.6;}.cls-24{fill:url(#linear-gradient-23);}.cls-25{fill:url(#linear-gradient-24);}.cls-26{fill:url(#linear-gradient-25);}.cls-27{fill:url(#linear-gradient-26);}.cls-28{fill:url(#linear-gradient-27);}.cls-29{fill:url(#linear-gradient-28);}</style><linearGradient id="linear-gradient" x1="611.25" y1="88.16" x2="611.25" y2="185.98" gradientUnits="userSpaceOnUse"><stop offset="0" stop-color="#283a4a"/><stop offset="1" stop-color="#687a89"/></linearGradient><linearGradient id="linear-gradient-2" x1="341.63" y1="88.16" x2="341.63" y2="185.98" xlink:href="#linear-gradient"/><linearGradient id="linear-gradient-3" x1="400.48" y1="88.16" x2="400.48" y2="185.98" xlink:href="#linear-gradient"/><linearGradient id="linear-gradient-4" x1="474.29" y1="88.16" x2="474.29" y2="185.98" xlink:href="#linear-gradient"/><linearGradient id="linear-gradient-5" x1="657.57" y1="88.16" x2="657.57" y2="185.98" xlink:href="#linear-gradient"/><linearGradient id="linear-gradient-6" x1="716.99" y1="88.23" x2="716.99" y2="186.05" xlink:href="#linear-gradient"/><linearGradient id="linear-gradient-7" x1="890.24" y1="88.16" x2="890.24" y2="185.98" xlink:href="#linear-gradient"/><linearGradient id="linear-gradient-8" x1="794.93" y1="88.16" x2="794.93" y2="185.98" xlink:href="#linear-gradient"/><linearGradient id="linear-gradient-9" x1="542.77" y1="88.16" x2="542.77" y2="185.98" xlink:href="#linear-gradient"/><linearGradient id="linear-gradient-10" x1="974.85" y1="88.16" x2="974.85" y2="185.98" xlink:href="#linear-gradient"/><linearGradient id="linear-gradient-11" x1="1050.22" y1="88.16" x2="1050.22" y2="185.98" xlink:href="#linear-gradient"/><linearGradient id="linear-gradient-12" x1="610.68" y1="464.98" x2="610.68" y2="16.03" gradientUnits="userSpaceOnUse"><stop offset="0" stop-color="#384a5b"/><stop offset="1" stop-color="#fff"/></linearGradient><linearGradient id="linear-gradient-13" x1="341.04" y1="464.98" x2="341.04" y2="16.03" xlink:href="#linear-gradient-12"/><linearGradient id="linear-gradient-14" x1="399.9" y1="464.98" x2="399.9" y2="16.03" xlink:href="#linear-gradient-12"/><linearGradient id="linear-gradient-15" x1="473.71" y1="464.98" x2="473.71" y2="16.03" xlink:href="#linear-gradient-12"/><linearGradient id="linear-gradient-16" x1="656.94" y1="464.98" x2="656.94" y2="16.03" xlink:href="#linear-gradient-12"/><linearGradient id="linear-gradient-17" x1="715.65" y1="464.98" x2="715.65" y2="16.03" xlink:href="#linear-gradient-12"/><linearGradient id="linear-gradient-18" x1="889.67" y1="464.98" x2="889.67" y2="16.03" xlink:href="#linear-gradient-12"/><linearGradient id="linear-gradient-19" x1="794.35" y1="464.98" x2="794.35" y2="16.03" xlink:href="#linear-gradient-12"/><linearGradient id="linear-gradient-20" x1="542.19" y1="464.98" x2="542.19" y2="16.03" xlink:href="#linear-gradient-12"/><linearGradient id="linear-gradient-21" x1="973.57" y1="464.98" x2="973.57" y2="16.03" xlink:href="#linear-gradient-12"/><linearGradient id="linear-gradient-22" x1="1049.64" y1="464.98" x2="1049.64" y2="16.03" xlink:href="#linear-gradient-12"/><linearGradient id="linear-gradient-23" x1="16.85" y1="142.73" x2="268.61" y2="142.73" gradientUnits="userSpaceOnUse"><stop offset="0" stop-color="#1000ff"/><stop offset="1" stop-color="aqua"/></linearGradient><linearGradient id="linear-gradient-24" x1="0" y1="142.73" x2="285.46" y2="142.73" xlink:href="#linear-gradient-23"/><linearGradient id="linear-gradient-25" x1="78.31" y1="189.14" x2="186.66" y2="80.79" xlink:href="#linear-gradient-23"/><linearGradient id="linear-gradient-26" x1="78.31" y1="189.14" x2="186.66" y2="80.8" xlink:href="#linear-gradient-23"/><linearGradient id="linear-gradient-27" x1="76.56" y1="187.3" x2="184.9" y2="78.96" xlink:href="#linear-gradient-23"/><linearGradient id="linear-gradient-28" x1="101.99" y1="212.81" x2="210.33" y2="104.47" xlink:href="#linear-gradient-23"/></defs><path id="Path_114875" data-name="Path 114875" class="cls-1" d="M604.68,106.4h20.17l-13.92,77.25H590.77ZM606.38,84c0-7.47,5.33-13.36,13.39-13.36,7.16,0,12,4.88,12,11.2,0,8.19-5.46,13.79-13.53,13.79-7.15,0-11.83-5.17-11.83-11.63Z"/><path id="Path_114876" data-name="Path 114876" class="cls-2" d="M370.53,72.47l-.37,2.09-2.82,15.57h-8.88c-6.24,0-9.62,3.59-11,11.63l-.53,2.87h17.83L362.82,115l-1.24,6.85h-17.3l-8.4,46.48L333.08,184H312.73l3.92-21.51L324,121.86H313.06l3.13-17.23h10.93l.77-4.45c3.12-16.8,13.27-27.72,30.44-27.72Z"/><path id="Path_114877" data-name="Path 114877" class="cls-3" d="M361.72,149.41c0-25.7,17.68-44.94,42.27-44.94,21.46,0,35.25,13.64,35.25,34.61,0,25.7-17.56,44.94-42.27,44.94C375.63,184,361.72,170.23,361.72,149.41Zm57-9.33c0-10.48-5.73-17.09-15.87-17.09-12,0-20.55,10.34-20.55,25.42,0,10.48,5.85,17.08,16,17.08,11.84,0,20.43-10.33,20.43-25.41Z"/><path id="Path_114878" data-name="Path 114878" class="cls-4" d="M503.1,105.26l-3.64,20.67c-1.82-.14-3-.28-4.68-.28-12,0-19.64,6.17-22.24,20.67l-6.77,37.33H445.48L459.4,106.4h19.25L477,115.59C483.2,108.13,491.78,105.26,503.1,105.26Z"/><path id="Path_114879" data-name="Path 114879" class="cls-5" d="M663,125.36H680l3.25-17.23H666.08l3.38-18.81H649.17l-3.39,18.81H635l-3.12,17.23h10.79l-5.59,31.15a41.37,41.37,0,0,0-.65,6.75c0,13.5,8.84,21.54,21.85,21.54a37.16,37.16,0,0,0,10.79-1.46l3.59-19a15,15,0,0,1-8.14,2.7c-5.07,0-7.41-2.73-7.41-7.47a13.41,13.41,0,0,1,.26-3.16Z"/><path id="Path_114880" data-name="Path 114880" class="cls-6" d="M682.13,176.83l7.8-16.22c6,4.45,15.48,7.32,24.32,7.32,9.5,0,13.66-2.87,13.66-7.47,0-10.91-37.07-1.86-37.07-28,0-17.37,14.7-27.13,35.12-27.13,9.76,0,19.51,2.44,25.88,6.46l-7.28,16.37c-6.5-4.45-14.18-5.89-20.68-5.89-9.36,0-13.53,3.45-13.53,7.61,0,11.34,36.94,2.3,36.94,28,0,17.66-15.09,27-35.25,27C699.69,184.87,688,181.43,682.13,176.83Z"/><path id="Path_114881" data-name="Path 114881" class="cls-7" d="M932,106.4l-13.92,77.25H898.83l1.3-7.61a29.48,29.48,0,0,1-21.46,8.76c-16.26,0-30.18-12.63-30.18-34.6,0-26,17-44.94,38.63-44.94,10.15,0,18.21,3.58,22.76,11.62l1.83-10.48Zm-26.54,34.47c0-10.49-5.85-17.09-16-17.09-12,0-20.55,10.34-20.55,25.41,0,10.49,5.85,17.09,16,17.09,12,0,20.55-10.34,20.55-25.41Z"/><path id="Path_114882" data-name="Path 114882" class="cls-8" d="M839.21,139.86c0,26-17,44.94-38.76,44.94-10.14,0-18.08-3.59-22.63-11.48l-6.89,38.19H750.64l19-105.1h19.25L787.45,114a29.48,29.48,0,0,1,21.46-8.76C825.17,105.26,839.21,117.89,839.21,139.86Zm-20.55,1c0-10.49-5.85-17.09-16-17.09-11.84,0-20.42,10.34-20.42,25.41,0,10.49,5.72,17.09,15.87,17.09,12,0,20.54-10.34,20.54-25.41Z"/><path id="Path_114883" data-name="Path 114883" class="cls-9" d="M554.22,105.25A29.1,29.1,0,0,0,534.06,113l2.11-11.67,5.15-28.09-19.89,3.86-1.2.23L501,183.65h19.25l2.08-11.48c4.42,8.47,12.62,12.63,23.41,12.63,21.72,0,38.76-19,38.76-44.94C584.52,117.89,570.47,105.25,554.22,105.25Zm-10.8,61c-10.14,0-15.87-6.6-15.87-17.09,0-15.07,8.59-25.41,20.42-25.41,10.15,0,16,6.6,16,17.08,0,15.08-8.58,25.42-20.55,25.42Z"/><path id="Path_114884" data-name="Path 114884" class="cls-10" d="M936.91,150.74c0-25.23,17.77-44.11,42.86-44.11,15,0,28.21,8,33,21.75l-18.64,6.72c-3.14-7-8.49-10.29-15.68-10.29-12,0-20.91,10.14-20.91,24.8,0,10.29,5.88,16.91,16.34,16.91,7.05,0,13.06-3.1,17.24-10.15l16.23,10.87c-6.8,11.41-20.28,17.46-34.65,17.46C950.89,184.7,936.91,171.17,936.91,150.74Z"/><path id="Path_114885" data-name="Path 114885" class="cls-11" d="M1086.48,151.58h-53.84c.66,10.29,6.54,15.51,18.17,15.51a27.58,27.58,0,0,0,18.81-7.05l9.57,16.42c-8.1,7-19.76,8.24-30.47,8.24-22,0-35.94-13.39-35.94-34,0-25.36,17-44.11,41.42-44.11,20.52,0,33.45,13.11,33.45,33.4A63,63,0,0,1,1086.48,151.58Zm-52.4-12.82H1069c0-10-6.27-15.64-15.68-15.64-9.8,0-16.47,6.2-19.21,15.64Z"/><path id="Path_114875-2" data-name="Path 114875" class="cls-12" d="M604.11,109.7h20.16L610.35,187H590.19Zm1.69-22.4A12.92,12.92,0,0,1,619.2,74c7.15,0,12,4.88,12,11.2,0,8.18-5.46,13.78-13.53,13.78-7.15,0-11.83-5.17-11.83-11.63Z"/><path id="Path_114876-2" data-name="Path 114876" class="cls-13" d="M369.94,75.76l-.38,2.09-2.82,15.57h-8.88c-6.24,0-9.62,3.59-11.05,11.63l-.52,2.88h17.82l-1.89,10.37L361,125.16h-17.3l-8.4,46.47-2.81,15.68H312.14l3.91-21.52,7.34-40.64H312.47l3.12-17.23h10.93l.78-4.45c3.12-16.8,13.26-27.71,30.43-27.71Z"/><path id="Path_114877-2" data-name="Path 114877" class="cls-14" d="M361.14,152.71c0-25.7,17.69-44.94,42.27-44.94,21.46,0,35.25,13.64,35.25,34.6,0,25.7-17.56,44.95-42.27,44.95C375.06,187.32,361.14,173.53,361.14,152.71Zm57-9.33c0-10.48-5.72-17.09-15.87-17.09-12,0-20.55,10.34-20.55,25.42,0,10.48,5.85,17.08,16,17.08,11.83,0,20.42-10.34,20.42-25.41Z"/><path id="Path_114878-2" data-name="Path 114878" class="cls-15" d="M502.52,108.55l-3.64,20.68c-1.82-.15-3-.29-4.68-.29-12,0-19.64,6.18-22.24,20.68L465.19,187H444.9l13.92-77.25h19.25l-1.69,9.19C482.62,111.43,491.21,108.55,502.52,108.55Z"/><path id="Path_114879-2" data-name="Path 114879" class="cls-16" d="M662.32,128.69h17.06l3.26-17.23h-17.2l3.39-18.81H648.54l-3.39,18.81H634.36l-3.12,17.23H642l-5.59,31.15a41.37,41.37,0,0,0-.65,6.75c0,13.5,8.84,21.54,21.85,21.54a36.82,36.82,0,0,0,10.79-1.46l3.59-19a15.1,15.1,0,0,1-8.14,2.69c-5.07,0-7.41-2.73-7.41-7.47a13.41,13.41,0,0,1,.26-3.16Z"/><path id="Path_114880-2" data-name="Path 114880" class="cls-17" d="M680.79,179.63l7.8-16.23c6,4.45,15.48,7.33,24.32,7.33,9.5,0,13.66-2.88,13.66-7.47,0-10.91-37.07-1.87-37.07-28,0-17.37,14.7-27.14,35.12-27.14,9.76,0,19.51,2.44,25.88,6.47L743.22,131c-6.5-4.45-14.18-5.88-20.68-5.88-9.36,0-13.53,3.44-13.53,7.61C709,144,746,135,746,160.68c0,17.66-15.09,27-35.25,27C698.35,187.67,686.64,184.22,680.79,179.63Z"/><path id="Path_114881-2" data-name="Path 114881" class="cls-18" d="M931.42,109.7,917.5,187H898.25l1.3-7.61a29.52,29.52,0,0,1-21.46,8.76c-16.26,0-30.18-12.64-30.18-34.61,0-26,17-44.94,38.64-44.94,10.14,0,18.21,3.59,22.76,11.63l1.82-10.48Zm-26.54,34.46c0-10.48-5.85-17.08-16-17.08-12,0-20.55,10.33-20.55,25.41,0,10.48,5.85,17.09,16,17.09,12,0,20.56-10.34,20.56-25.42Z"/><path id="Path_114882-2" data-name="Path 114882" class="cls-19" d="M838.64,143.16c0,26-17,44.94-38.76,44.94-10.15,0-18.08-3.59-22.64-11.49l-6.89,38.2H750.06l19-105.11H788.3l-1.43,7.61a29.56,29.56,0,0,1,21.46-8.76C824.59,108.55,838.64,121.19,838.64,143.16Zm-20.55,1c0-10.48-5.85-17.08-16-17.08-11.84,0-20.42,10.33-20.42,25.41,0,10.48,5.72,17.09,15.87,17.09,12,0,20.55-10.34,20.55-25.42Z"/><path id="Path_114883-2" data-name="Path 114883" class="cls-20" d="M553.64,108.55a29.15,29.15,0,0,0-20.16,7.75l2.11-11.66,5.16-28.1-19.9,3.87-1.2.23L500.44,187h19.25l2.08-11.48c4.42,8.47,12.62,12.63,23.41,12.63,21.72,0,38.76-18.95,38.76-44.94C583.94,121.19,569.89,108.55,553.64,108.55Zm-10.8,61C532.7,169.58,527,163,527,152.49c0-15.08,8.59-25.41,20.43-25.41,10.14,0,16,6.6,16,17.08,0,15.07-8.58,25.42-20.55,25.42Z"/><path id="Path_114884-2" data-name="Path 114884" class="cls-21" d="M936.33,154c0-25.23,17.77-44.11,42.86-44.11,15,0,26.26,6.9,31.62,19.16l-17.25,9.3c-3.13-7-8.49-10.28-15.68-10.28-12,0-20.9,10.14-20.9,24.8,0,10.28,5.88,16.91,16.33,16.91,7.05,0,13.07-3.1,17.25-10.15l15,10.15C998.79,181.23,986.51,188,972.13,188,950.31,188,936.33,174.47,936.33,154Z"/><path id="Path_114885-2" data-name="Path 114885" class="cls-22" d="M1085.9,154.88h-53.83c.65,10.29,6.53,15.5,18.16,15.5a27.57,27.57,0,0,0,18.81-7l8.5,14.51c-8.1,7.05-18.69,10.15-29.4,10.15-22,0-35.94-13.39-35.94-34,0-25.37,17-44.11,41.43-44.11,20.51,0,33.45,13.1,33.45,33.4A64,64,0,0,1,1085.9,154.88Zm-52.4-12.82h34.89c0-10-6.27-15.65-15.68-15.65-9.8,0-16.46,6.21-19.21,15.65Z"/><path class="cls-23" d="M750.5,114.59l-.2.44c-6.37-4-16.13-6.46-25.88-6.46-15,0-26.88,5.25-32.16,14.91a1.46,1.46,0,0,1,.07-.19c5.2-9.82,17.19-15.17,32.3-15.17C734.37,108.12,744.13,110.56,750.5,114.59Z"/><path class="cls-23" d="M745.93,160.65a26.31,26.31,0,0,1-1.52,9h0a1.67,1.67,0,0,1-.12.23,26.14,26.14,0,0,0,1.45-8.84c0-25.71-36.94-16.66-36.94-28a5.8,5.8,0,0,1,.63-2.64,5.84,5.84,0,0,0-.42,2.19C709,144,745.93,135,745.93,160.65Z"/><path class="cls-23" d="M725.92,166.1c-1.3,3.18-5.49,5.08-13.21,5.08-8.84,0-18.34-2.87-24.32-7.32h0l.21-.44c6,4.45,15.48,7.32,24.32,7.32C720.26,170.73,724.41,169,725.92,166.1Z"/><path class="cls-23" d="M1010.81,129.13l-.21.08c-5.43-12-16.57-18.71-31.41-18.71-21.82,0-38.11,14.3-42,34.63.06-.5.12-1,.19-1.47,4.18-19.84,20.3-33.7,41.79-33.7C994.22,110,1005.46,116.87,1010.81,129.13Z"/><path class="cls-23" d="M1005.61,169.84c-.07.13-.15.26-.23.38l-14.79-10c-4.19,7-10.2,10.14-17.25,10.14-10.45,0-16.34-6.62-16.34-16.9,0-.13,0-.25,0-.37.06,10.18,5.93,16.73,16.33,16.73,7,0,13.06-3.1,17.25-10.14Z"/><path class="cls-23" d="M583.94,143.16a56.55,56.55,0,0,1-.6,8.34,0,0,0,0,0,0,0c0,.08,0,.16-.06.25a56.12,56.12,0,0,0,.58-8.09c0-22-14.06-34.61-30.31-34.61a29.13,29.13,0,0,0-20.16,7.75l.1-.52a29.06,29.06,0,0,1,20.16-7.75C569.89,108.56,583.94,121.19,583.94,143.16Z"/><path class="cls-23" d="M631.13,85.15c0,.46,0,.9,0,1.33,0,.09-.05.19-.09.28,0-.36,0-.72,0-1.08,0-6.32-4.81-11.2-12-11.2-6.34,0-11,3.64-12.69,8.82V83C608,77.71,612.72,74,619.16,74,626.32,74,631.13,78.83,631.13,85.15Z"/><polygon class="cls-23" points="624.27 109.7 624.17 110.23 604.02 110.23 604.12 109.7 624.27 109.7"/><polygon class="cls-23" points="364.1 107.92 364 108.45 346.19 108.45 346.29 107.92 364.1 107.92"/><polygon class="cls-23" points="326.53 107.95 326.44 108.47 315.51 108.47 315.6 107.95 326.53 107.95"/><path class="cls-23" d="M438.67,142.37a52.66,52.66,0,0,1-.57,7.83,3,3,0,0,1-.06.32,54.25,54.25,0,0,0,.53-7.62c0-21-13.79-34.61-35.25-34.61-20.78,0-36.63,13.75-41,33.53a1.38,1.38,0,0,1,0-.2c4.3-20,20.21-33.85,41.11-33.85C424.88,107.77,438.67,121.41,438.67,142.37Z"/><polygon class="cls-23" points="478.06 109.7 477.96 110.23 458.73 110.23 458.82 109.7 478.06 109.7"/><path class="cls-23" d="M502.52,108.55l-.09.53c-11.32,0-19.9,2.87-26.14,10.34l.09-.53C482.62,111.42,491.21,108.55,502.52,108.55Z"/><polygon class="cls-23" points="668.82 92.65 668.73 93.18 648.44 93.18 648.54 92.65 668.82 92.65"/><polygon class="cls-23" points="645.16 111.46 645.06 111.99 634.27 111.99 634.36 111.46 645.16 111.46"/><polygon class="cls-23" points="682.61 111.46 682.51 111.99 665.34 111.99 665.44 111.46 682.61 111.46"/><path class="cls-23" d="M672,167.64l-.1.53a15,15,0,0,1-8.11,2.67c-5.07,0-7.42-2.73-7.42-7.46a14,14,0,0,1,.24-3,13.93,13.93,0,0,0-.14,2.5c0,4.74,2.34,7.46,7.41,7.46A15.12,15.12,0,0,0,672,167.64Z"/><polygon class="cls-23" points="931.42 109.66 931.32 110.19 911.07 110.19 911.15 109.66 931.42 109.66"/><path class="cls-23" d="M909.27,120.17l-.1.54c-4.55-8-12.61-11.63-22.76-11.63-18.13,0-33,13.36-37.36,33l0-.25v0c4.25-19.82,19.22-33.3,37.43-33.3C896.65,108.55,904.71,112.14,909.27,120.17Z"/><polygon class="cls-23" points="788.29 109.68 788.19 110.2 768.97 110.2 769.06 109.68 788.29 109.68"/><path class="cls-23" d="M838.64,143.16a56.53,56.53,0,0,1-.61,8.34v0a1.83,1.83,0,0,0-.06.25,56.17,56.17,0,0,0,.57-8.1c0-22-14-34.6-30.31-34.6a29.54,29.54,0,0,0-21.46,8.76l.1-.53a29.56,29.56,0,0,1,21.46-8.76C824.59,108.55,838.64,121.19,838.64,143.16Z"/><polygon class="cls-23" points="540.73 76.55 540.63 77.08 520.75 80.94 519.55 81.17 519.64 80.64 520.84 80.41 540.73 76.55"/><path class="cls-23" d="M370,75.77l-.1.52h-12.2c-16.85,0-26.93,10.51-30.25,26.78l.09-.56c3.33-16.25,13.41-26.75,30.25-26.75Z"/><path class="cls-23" d="M1077.54,177.85a1.63,1.63,0,0,1-.2.17L1069,163.83a27.62,27.62,0,0,1-18.81,7c-11.63,0-17.51-5.21-18.16-15.5h.13c.82,9.94,6.7,15,18.12,15a27.65,27.65,0,0,0,18.82-7Z"/><path class="cls-23" d="M1087.08,143.32a63.28,63.28,0,0,1-.63,8.27h0a64.52,64.52,0,0,0,.55-7.74c0-20.29-12.93-33.4-33.45-33.4s-35.89,13.3-40.2,32.66l0-.23c4.21-19.52,19.57-32.95,40.26-32.95C1074.14,109.93,1087.08,123,1087.08,143.32Z"/><path class="cls-23" d="M417.55,149.81c-1.95,11.81-9.74,19.52-20,19.52s-16-6.61-16-17.09a35.66,35.66,0,0,1,.59-6.59,35.88,35.88,0,0,0-.49,6.07c0,10.48,5.85,17.08,16,17.08S415.46,161.32,417.55,149.81Z"/><path class="cls-23" d="M904.23,151.08c-2.07,11.54-9.8,19-20,19s-16-6.6-16-17.08a36,36,0,0,1,.57-6.46,36.45,36.45,0,0,0-.47,5.93c0,10.48,5.85,17.09,16,17.09S902,162.32,904.23,151.08Z"/><path class="cls-23" d="M817.5,150.83c-2,11.65-9.79,19.24-20,19.24S781.6,163.47,781.6,153a35.34,35.34,0,0,1,.56-6.39,35.7,35.7,0,0,0-.47,5.87c0,10.48,5.72,17.09,15.87,17.09S815.34,162.19,817.5,150.83Z"/><path class="cls-23" d="M562.75,151c-2.06,11.56-9.8,19.07-20,19.07s-15.87-6.6-15.87-17.08a35.45,35.45,0,0,1,.56-6.4,35.7,35.7,0,0,0-.47,5.87c0,10.48,5.73,17.09,15.87,17.09S560.56,162.29,562.75,151Z"/><path class="cls-23" d="M1068.39,142.58h-35c.06-.18.11-.35.17-.52h34.86C1068.4,142.23,1068.39,142.4,1068.39,142.58Z"/><circle class="cls-23" cx="142.73" cy="142.73" r="111.18"/><path class="cls-23" d="M142.73,254.91A112.18,112.18,0,1,1,254.92,142.73,112.3,112.3,0,0,1,142.73,254.91Zm0-222.36A110.18,110.18,0,1,0,252.92,142.73,110.3,110.3,0,0,0,142.73,32.55Z"/><path id="Path_105193" data-name="Path 105193" class="cls-24" d="M241.93,65.27l-.63-.81A125.86,125.86,0,0,0,43.41,220l0,0c.24.32.49.63.74.93l.06.08a125.86,125.86,0,0,0,197.7-155.8Zm9.27,137.61A124.29,124.29,0,0,1,230.8,230l-.72.72A124,124,0,0,1,54.59,55.49l.07-.06c.27-.28.55-.56.83-.83l0,0A124,124,0,0,1,251.2,202.88Z"/><path id="Path_105194" data-name="Path 105194" class="cls-25" d="M255.22,54.9c-.23-.31-.48-.61-.72-.92A142.72,142.72,0,0,0,30.11,230.39l0,0,.84,1.06.06.08A142.72,142.72,0,0,0,255.22,54.9Zm10.51,156a141,141,0,0,1-23.14,30.77c-.27.28-.53.55-.8.81a140.61,140.61,0,0,1-199-198.71l.08-.07c.3-.33.62-.64.94-1l0,0A140.64,140.64,0,0,1,265.73,211Z"/><path class="cls-26" d="M179.48,78.35A9.62,9.62,0,1,0,189.1,88,9.62,9.62,0,0,0,179.48,78.35Zm0,18.82a9.21,9.21,0,1,1,9.21-9.2A9.21,9.21,0,0,1,179.48,97.17Z"/><path class="cls-27" d="M187.24,88a7.76,7.76,0,1,1-7.76-7.76A7.76,7.76,0,0,1,187.24,88Z"/><path class="cls-28" d="M118.91,121a46.12,46.12,0,0,1,23.82-6.58v22.21a24.21,24.21,0,0,0-24,23.93c0,.1,0,.2,0,.31s0,.2,0,.31v45.92H96.37V124.33a46.37,46.37,0,0,1,46.28-46h.08V99.73A24.24,24.24,0,0,0,118.91,121Z"/><path class="cls-29" d="M189.1,160.79v.4a46.38,46.38,0,0,1-41.63,45.73c-1.59.11-3.19.17-4.82.17-1.38,0-2.75,0-4.11-.13h0A46,46,0,0,1,122,202.3V173.11a24.24,24.24,0,0,0,20.82,12l.74,0h.06A24.23,24.23,0,0,0,167,164.25a24,24,0,0,0,.23-3.06v-.32A24.26,24.26,0,0,0,146,136.81V114.54a45.94,45.94,0,0,1,21.1,6.78,46.54,46.54,0,0,1,18.36,21.33l0,.11A46.22,46.22,0,0,1,189.1,160.79Z"/></svg>