<svg xmlns="http://www.w3.org/2000/svg" xmlns:xlink="http://www.w3.org/1999/xlink" width="543.726" height="543.725" viewBox="0 0 543.726 543.725">
  <defs>
    <linearGradient id="linear-gradient" y1="0.5" x2="1" y2="0.5" gradientUnits="objectBoundingBox">
      <stop offset="0" stop-color="#7cf95b"/>
      <stop offset="0.136" stop-color="#76ee7c"/>
      <stop offset="0.436" stop-color="#68d4d2"/>
      <stop offset="0.522" stop-color="#64cdec"/>
      <stop offset="1" stop-color="#3172f5"/>
    </linearGradient>
  </defs>
  <path id="Path_65912" data-name="Path 65912" d="M-580.017,2511.5q-2.862,0-5.706-.059l.027-1.371q2.831.06,5.679.059l1.157,0,.005,1.371Zm8.028-.116-.038-1.371q3.423-.1,6.829-.282l.073,1.368Q-568.544,2511.29-571.988,2511.388Zm-20.6-.169q-3.44-.156-6.856-.4l.1-1.368q3.4.241,6.822.4Zm34.32-.572-.108-1.365q3.413-.271,6.806-.625l.141,1.362Q-554.837,2510.378-558.269,2510.648Zm-48.022-.4q-3.426-.329-6.829-.743l.166-1.36q3.384.411,6.795.738Zm61.683-1.031-.177-1.36q3.4-.442,6.766-.968l.211,1.354Q-541.194,2508.776-544.608,2509.221Zm-75.32-.625q-3.4-.5-6.782-1.088l.234-1.349q3.358.582,6.747,1.08Zm88.894-1.49-.247-1.349q3.37-.614,6.708-1.309l.28,1.341Q-527.648,2506.487-531.034,2507.106Zm-102.43-.854q-3.376-.672-6.719-1.43l.3-1.335q3.325.753,6.684,1.421Zm115.879-1.949-.314-1.333q3.333-.781,6.633-1.647l.348,1.324Q-514.237,2503.516-517.585,2504.3Zm-129.279-1.079q-3.337-.843-6.638-1.768l.37-1.32q3.286.923,6.6,1.76Zm142.568-2.4-.381-1.317q3.288-.952,6.54-1.983l.414,1.306Q-500.993,2499.861-504.3,2500.819Zm-155.8-1.3q-3.3-1.014-6.563-2.112l.436-1.3q3.247,1.09,6.53,2.1Zm168.892-2.854-.448-1.3q3.234-1.118,6.431-2.315l.48,1.286Q-487.95,2495.542-491.2,2496.666Zm-181.962-1.538q-3.24-1.182-6.442-2.444l.5-1.275q3.185,1.254,6.409,2.432Zm194.829-3.277-.514-1.271q3.162-1.277,6.283-2.629l.546,1.259Q-475.157,2490.566-478.335,2491.851Zm-207.647-1.773q-3.177-1.343-6.308-2.766l.568-1.248q3.117,1.415,6.275,2.752Zm220.212-3.672-.577-1.243q3.092-1.437,6.145-2.946l.609,1.229Q-462.662,2484.964-465.77,2486.406Zm-232.752-2.02q-3.1-1.5-6.156-3.084l.631-1.219q3.039,1.574,6.125,3.069Zm245.03-4.053-.64-1.213q3.02-1.592,5.993-3.256l.669,1.2Q-450.459,2478.734-453.493,2480.333Zm-257.258-2.269q-3.018-1.659-5.99-3.391l.691-1.183q2.957,1.721,5.958,3.372Zm269.221-4.426-.7-1.177q2.936-1.744,5.824-3.555l.728,1.162Q-438.58,2471.889-441.53,2473.638Zm-281.109-2.5q-2.928-1.81-5.807-3.687l.75-1.148q2.864,1.871,5.778,3.669Zm292.723-4.787-.758-1.143q2.844-1.888,5.639-3.845l.785,1.123Q-427.056,2464.451-429.916,2466.348Zm-304.241-2.733q-2.831-1.953-5.612-3.976l.807-1.108q2.766,2.011,5.583,3.955Zm315.479-5.136-.814-1.1q2.745-2.027,5.44-4.125l.842,1.082Q-415.919,2456.44-418.679,2458.479Zm-326.6-2.954q-2.728-2.089-5.4-4.249l.861-1.066q2.661,2.146,5.376,4.229Zm337.43-5.476-.869-1.06q2.642-2.165,5.228-4.395l.9,1.039Q-405.193,2447.873-407.848,2450.049Zm-348.124-3.158q-2.619-2.227-5.179-4.515l.913-1.023q2.547,2.276,5.154,4.493Zm358.522-5.806-.921-1.014q2.531-2.295,5-4.655l.946.994Q-394.907,2438.777-397.449,2441.084Zm-368.766-3.352q-2.5-2.354-4.944-4.77l.964-.975q2.43,2.406,4.92,4.745Zm378.7-6.126-.972-.966q2.414-2.422,4.766-4.9l.994.942Q-385.085,2429.174-387.51,2431.607Zm-388.473-3.532q-2.381-2.474-4.7-5.01l1.013-.924q2.3,2.521,4.673,4.984Zm397.925-6.437-1.018-.918q2.29-2.54,4.515-5.134l1.04.891Q-375.757,2419.087-378.058,2421.638Zm-407.193-3.7q-2.252-2.589-4.438-5.238l1.055-.873q2.177,2.636,4.417,5.211Zm416.137-6.737-1.062-.864q2.157-2.654,4.251-5.358l1.084.839Q-366.944,2408.541-369.114,2411.2Zm-424.881-3.844q-2.118-2.7-4.168-5.451l1.1-.82q2.042,2.741,4.148,5.425Zm433.29-7.03-1.1-.812q2.023-2.757,3.978-5.566l1.125.783Q-358.669,2397.56-360.7,2400.33Zm-441.488-3.975q-1.978-2.8-3.887-5.651l1.139-.762q1.9,2.84,3.868,5.624Zm449.344-7.313-1.145-.754q1.881-2.854,3.693-5.761l1.164.725Q-350.958,2386.173-352.848,2389.042Zm-456.976-4.083q-1.834-2.895-3.6-5.838l1.176-.7q1.752,2.928,3.578,5.809Zm464.252-7.592-1.18-.7q1.735-2.949,3.4-5.942l1.2.665Q-343.828,2374.4-345.573,2377.366Zm-471.3-4.168q-1.684-2.982-3.3-6.011l1.21-.643q1.6,3.012,3.279,5.979Zm477.977-7.864-1.214-.635q1.583-3.032,3.092-6.111l1.231.6Q-337.3,2362.285-338.892,2365.334Zm-484.415-4.234q-1.53-3.062-2.985-6.165l1.24-.581q1.447,3.09,2.972,6.133Zm490.477-8.127-1.246-.573q1.429-3.111,2.78-6.263l1.26.54Q-331.394,2349.845-332.83,2352.973Zm-496.291-4.274q-1.371-3.134-2.669-6.305l1.269-.52q1.289,3.156,2.655,6.272Zm501.72-8.388-1.273-.508q1.269-3.181,2.459-6.4l1.284.476Q-326.127,2337.115-327.4,2340.311ZM-834.309,2336q-1.215-3.207-2.352-6.455l1.293-.452q1.133,3.23,2.342,6.423Zm511.683-8.618-1.3-.441q1.1-3.242,2.129-6.522l1.308.41Q-321.514,2324.124-322.625,2327.384Zm-516.226-4.346q-1.048-3.265-2.02-6.567l1.315-.385q.966,3.283,2.012,6.531Zm520.333-8.791-1.319-.374q.934-3.284,1.787-6.6l1.328.343Q-317.579,2310.947-318.519,2314.247Zm-524.208-4.391q-.884-3.312-1.685-6.66l1.334-.319q.8,3.331,1.675,6.626Zm527.632-8.914-1.336-.308q.767-3.323,1.452-6.678l1.342.274Q-314.324,2297.6-315.094,2300.942Zm-530.831-4.444q-.713-3.356-1.345-6.737l1.349-.252q.625,3.368,1.337,6.7Zm533.575-9.017-1.349-.238q.594-3.358,1.109-6.746l1.354.206Q-311.75,2284.109-312.35,2287.482Zm-536.092-4.49q-.543-3.382-1-6.8l1.358-.183q.457,3.4,1,6.763Zm538.149-9.094-1.36-.171q.426-3.38.766-6.791l1.365.137Q-309.865,2270.5-310.293,2273.9Zm-539.979-4.522q-.37-3.407-.657-6.839l1.365-.115q.286,3.419.654,6.806Zm541.35-9.145-1.368-.1q.255-3.4.425-6.822l1.369.067Q-308.666,2256.816-308.922,2260.23Zm-542.492-4.544q-.2-3.421-.313-6.862l1.369-.047q.113,3.426.311,6.829Zm543.174-9.176-1.371-.034q.084-3.409.085-6.835,0-2.327-.04-4.645l1.371-.025q.039,2.332.04,4.67Q-308.154,2243.086-308.239,2246.511Zm-543.631-4.548q-.01-1.16-.01-2.321,0-2.278.037-4.548l1.371.022q-.037,2.259-.037,4.526c0,.772,0,1.54.01,2.31Zm1.6-13.68-1.369-.056q.142-3.44.369-6.86l1.368.092Q-850.134,2224.861-850.275,2228.283Zm540.51-.107q-.142-3.426-.37-6.825l1.368-.092q.228,3.417.371,6.861Zm-539.6-13.531-1.365-.126q.312-3.427.711-6.832l1.361.157Q-849.056,2211.234-849.369,2214.646Zm538.694-.107q-.313-3.411-.711-6.8l1.361-.16q.4,3.4.716,6.832Zm-537.1-13.469-1.357-.193q.485-3.409,1.057-6.788l1.351.228Q-847.3,2197.68-847.78,2201.07Zm535.509-.107q-.483-3.39-1.054-6.753l1.352-.228q.572,3.379,1.06,6.788Zm-533.235-13.369-1.345-.263q.658-3.375,1.4-6.725l1.339.3Q-844.85,2184.231-845.506,2187.594Zm530.957-.108q-.656-3.36-1.4-6.689l1.339-.3q.742,3.347,1.4,6.725Zm-528-13.238-1.331-.329q.829-3.341,1.741-6.648l1.32.365Q-841.723,2170.927-842.551,2174.248Zm525.041-.1q-.826-3.323-1.734-6.612l1.321-.365q.911,3.307,1.744,6.645Zm-521.411-13.074-1.312-.4q1-3.3,2.085-6.573l1.3.43Q-837.924,2157.784-838.921,2161.071Zm517.776-.1q-.993-3.277-2.068-6.515l1.3-.432q1.079,3.255,2.079,6.548Zm-513.464-12.919-1.288-.463q1.168-3.247,2.415-6.455l1.278.495Q-833.444,2144.818-834.609,2148.049Zm509.161-.055q-1.16-3.22-2.4-6.4l1.276-.5q1.244,3.2,2.41,6.434Zm-4.947-12.715q-1.316-3.148-2.709-6.251l1.25-.562q1.4,3.119,2.724,6.282Zm-499.243-.007-1.265-.53q1.332-3.181,2.74-6.319l1.25.561Q-828.312,2132.107-829.637,2135.272Zm493.667-12.426q-1.476-3.076-3.024-6.108l1.22-.624q1.557,3.049,3.039,6.141Zm-488.057-.074-1.235-.595q1.49-3.1,3.057-6.168l1.221.624Q-822.544,2119.68-824.028,2122.772Zm481.855-12.064q-1.63-3-3.331-5.95l1.187-.685q1.711,2.967,3.349,5.982Zm-475.615-.132-1.205-.655q1.645-3.025,3.364-6l1.188.685Q-816.152,2107.567-817.789,2110.577Zm468.8-11.686q-1.779-2.915-3.628-5.777l1.151-.744q1.861,2.878,3.646,5.806Zm-461.959-.173-1.169-.716q1.795-2.938,3.663-5.824l1.151.744Q-809.157,2095.8-810.945,2098.719Zm454.557-11.292q-1.923-2.818-3.916-5.59l1.113-.8q2,2.784,3.935,5.62Zm-447.123-.2-1.131-.774q1.939-2.837,3.949-5.628l1.112.8Q-801.58,2084.4-803.511,2087.227Zm439.151-10.88q-2.064-2.72-4.193-5.389l1.07-.854q2.14,2.68,4.215,5.416Zm-431.15-.218-1.091-.829q2.081-2.737,4.227-5.421l1.071.857Q-793.44,2073.4-795.51,2076.128Zm422.627-10.452q-2.2-2.613-4.462-5.171l1.028-.908q2.272,2.57,4.484,5.2Zm-414.081-.223-1.047-.883q2.214-2.63,4.492-5.2l1.027.907Q-784.758,2062.838-786.964,2065.453Zm405.028-10.009q-2.325-2.5-4.715-4.945l.98-.958q2.4,2.453,4.74,4.969Zm-395.958-.224-1-.933q2.342-2.513,4.745-4.965l.98.958Q-775.563,2052.721-777.893,2055.22Zm386.4-9.546q-2.451-2.383-4.961-4.7l.931-1.007q2.521,2.331,4.985,4.728Zm-376.834-.214-.954-.983q2.465-2.391,4.988-4.719l.931,1.006Q-765.87,2043.082-768.324,2045.461Zm366.795-9.066q-2.566-2.257-5.191-4.448l.877-1.053q2.64,2.2,5.22,4.473Zm-356.751-.2-.9-1.031q2.58-2.262,5.217-4.459l.879,1.051Q-755.712,2033.949-758.281,2036.2Zm346.256-8.568q-2.677-2.126-5.41-4.183l.825-1.1q2.745,2.07,5.438,4.205Zm-335.763-.177-.853-1.073q2.691-2.13,5.434-4.192l.824,1.095Q-745.114,2025.336-747.788,2027.452Zm324.836-8.053q-2.782-1.988-5.616-3.906l.768-1.135q2.85,1.927,5.646,3.926Zm-313.923-.148-.8-1.116q2.794-1.99,5.636-3.912l.766,1.135Q-734.1,2017.27-736.875,2019.251Zm302.591-7.524q-2.879-1.846-5.809-3.62l.711-1.172q2.942,1.783,5.837,3.638Zm-291.283-.118-.739-1.154q2.887-1.846,5.822-3.621l.71,1.172Q-722.693,2009.772-725.566,2011.609Zm279.572-6.971q-2.967-1.7-5.986-3.323l.65-1.207q3.033,1.632,6.019,3.342Zm-267.9-.088-.678-1.191q2.973-1.7,5.994-3.321l.65,1.206Q-710.933,2002.862-713.893,2004.55Zm255.842-6.406q-3.053-1.544-6.15-3.015l.587-1.239q3.115,1.478,6.182,3.031Zm-243.833-.051-.618-1.224q3.055-1.544,6.152-3.013l.588,1.239Q-698.844,1996.558-701.884,1998.094Zm231.456-5.824q-3.129-1.386-6.3-2.7l.522-1.266q3.187,1.316,6.331,2.711Zm-219.141-.014-.555-1.253q3.125-1.388,6.293-2.7l.524,1.266Q-686.46,1990.877-689.569,1992.256Zm12.611-5.213-.491-1.28q3.2-1.228,6.442-2.381l.459,1.291Q-673.772,1985.82-676.959,1987.043Zm193.864-.01q-3.2-1.23-6.431-2.375l.458-1.294q3.253,1.155,6.466,2.39Zm-180.984-4.566-.425-1.3q3.259-1.065,6.556-2.049l.392,1.315Q-660.835,1981.406-664.079,1982.467Zm168.06-.021q-3.243-1.057-6.523-2.037l.392-1.315q3.3.987,6.556,2.048Zm-154.962-3.89-.359-1.323q3.31-.9,6.654-1.712l.323,1.33Q-647.689,1977.661-650.982,1978.557Zm141.865-.019q-3.292-.892-6.619-1.7l.325-1.331q3.343.816,6.652,1.711Zm-128.587-3.223-.292-1.338q3.351-.73,6.732-1.375l.256,1.346Q-634.369,1974.592-637.7,1975.315Zm115.307-.012q-3.333-.724-6.7-1.365l.256-1.346q3.382.646,6.732,1.372Zm-101.881-2.55-.223-1.352q3.382-.559,6.792-1.031l.188,1.357Q-620.914,1972.2-624.277,1972.753Zm88.453-.011q-3.364-.553-6.756-1.022l.188-1.357q3.411.471,6.792,1.028Zm-74.916-1.864-.154-1.362q3.4-.385,6.834-.687l.119,1.365Q-607.351,1970.5-610.74,1970.878Zm61.377-.008q-3.386-.383-6.8-.681l.119-1.365q3.432.3,6.836.684Zm-47.76-1.186-.086-1.368q3.419-.214,6.861-.343l.052,1.371Q-593.72,1969.47-597.123,1969.684Zm34.143,0q-3.4-.212-6.825-.339l.051-1.371q3.44.128,6.86.341Zm-13.658-.507c-2.274-.03-4.559-.03-6.834,0l-.018-1.371c2.286-.03,4.585-.03,6.87,0Z" transform="translate(851.88 -1967.779)" fill="url(#linear-gradient)"/>
</svg>
