<svg xmlns="http://www.w3.org/2000/svg" width="70" height="70" viewBox="0 0 70 70">
  <g id="Group_36856" data-name="Group 36856" transform="translate(-1054 -4918)">
    <g id="Group_36825" data-name="Group 36825" transform="translate(-83.208 -380.871)">
      <circle id="Ellipse_1405" data-name="Ellipse 1405" cx="33" cy="33" r="33" transform="translate(1139.208 5300.871)" fill="#fff" opacity="0.4"/>
      <circle id="Ellipse_1384" data-name="Ellipse 1384" cx="35" cy="35" r="35" transform="translate(1137.208 5298.871)" fill="#fff" opacity="0.4"/>
    </g>
    <g id="Group_36824" data-name="Group 36824" transform="translate(-243.638 1321.94)">
      <circle id="Ellipse_1448" data-name="Ellipse 1448" cx="30.79" cy="30.79" r="30.79" transform="translate(1301.637 3600.06)" fill="#eda833" stroke="#fff" stroke-width="0.5"/>
      <g id="Group_36823" data-name="Group 36823" transform="translate(1314.996 3613.514)">
        <path id="Path_76609" data-name="Path 76609" d="M1412.2,3671.435q4.139,1.3,8.278,2.6c.982.307,1.968.6,2.952.9.562.172,1.305.277,1.07,1.1s-.9.542-1.481.366c-3.279-1-6.567-1.977-9.834-3.016a3.822,3.822,0,0,0-2.447.019c-3.209,1.015-6.44,1.961-9.657,2.951-.586.181-1.173.323-1.379-.421-.193-.7.4-.877.926-1.036q5.054-1.538,10.106-3.084c.309-.095.682-.064.9-.377Z" transform="translate(-1394.546 -3671.435)" fill="#fff"/>
        <path id="Path_76610" data-name="Path 76610" d="M1407.045,3699.151c-.07-.5-.068-1.05-.716-1.163s-.82.4-1.04.861c-1.93,4.017-3.876,8.026-5.8,12.049a1.1,1.1,0,0,1-1.163.778q-8.154-.059-16.313-.006a1.149,1.149,0,0,1-1.214-.735c-2.066-4.091-4.168-8.164-6.255-12.243-.207-.405-.42-.8-.965-.712s-.626.494-.707.959a23.637,23.637,0,0,0-.362,4.567,28.7,28.7,0,0,0,.49,5.681c1.844,9.919,7.4,17.057,16.281,21.715a1.245,1.245,0,0,0,1.3.015C1402.692,3724.642,1408.905,3712.659,1407.045,3699.151Zm-32.891,2.311c.775,1.214,13.5,26.077,13.732,26.8C1379.544,3724.542,1372.759,3711.377,1374.153,3701.462Zm15.806,27.268c-2.688-5.233-5.3-10.313-7.964-15.508h16.271C1395.5,3718.4,1392.768,3723.489,1389.959,3728.73Zm1.962-.409c2.43-4.541,4.745-8.933,7.118-13.293s4.351-8.9,6.652-13.444C1407.64,3710.3,1400.671,3723.881,1391.921,3728.322Z" transform="translate(-1372.509 -3692.968)" fill="#fff"/>
      </g>
    </g>
  </g>
</svg>
