<svg xmlns="http://www.w3.org/2000/svg" width="70" height="70" viewBox="0 0 70 70">
  <g id="Group_36855" data-name="Group 36855" transform="translate(-1073 -5058.001)">
    <g id="Group_36829" data-name="Group 36829" transform="translate(-64.208 -240.87)">
      <circle id="Ellipse_1405" data-name="Ellipse 1405" cx="33" cy="33" r="33" transform="translate(1139.208 5300.871)" fill="#fff" opacity="0.4"/>
      <circle id="Ellipse_1384" data-name="Ellipse 1384" cx="35" cy="35" r="35" transform="translate(1137.208 5298.871)" fill="#fff" opacity="0.4"/>
    </g>
    <g id="Group_36828" data-name="Group 36828" transform="translate(3363.162 4166.927)">
      <circle id="Ellipse_1449" data-name="Ellipse 1449" cx="30.439" cy="30.439" r="30.439" transform="translate(-2285.602 895.634)" fill="#0063c7" stroke="#fff" stroke-width="0.5"/>
      <g id="Group_36827" data-name="Group 36827" transform="translate(-2277.398 904.856)">
        <path id="Path_76611" data-name="Path 76611" d="M-2246.454,940.874c1.6,0,1.6,0,2.194,1.567a3.242,3.242,0,0,0,2.093,2.07,6.223,6.223,0,0,0,4.434-.067,2.992,2.992,0,0,0,1.936-3.212c-.065-1.271-.653-2.031-2.183-2.432-1.774-.464-3.616-.68-5.38-1.175-4.27-1.2-5.934-5.587-3.476-9.044a6.489,6.489,0,0,1,4.163-2.606c.719-.143.891-.45.832-1.1-.05-.555,0-1.117-.01-1.677-.015-.833.4-1.159,1.215-1.188,2.478-.087,2.606-.038,2.513,2.438a1.493,1.493,0,0,0,.243,1.2,1.494,1.494,0,0,0,1.064.614,5.7,5.7,0,0,1,4.1,4.272c.28,1.022-.04,1.421-1.077,1.439q-.542-.023-1.084.008a1.353,1.353,0,0,1-1.026-.187,1.352,1.352,0,0,1-.588-.861c-.723-1.9-3.173-2.7-5.577-1.915a2.621,2.621,0,0,0-1.951,2.834,2.256,2.256,0,0,0,1.46,2.138,20.454,20.454,0,0,0,4.212.951,20.988,20.988,0,0,1,2.481.619,6.01,6.01,0,0,1,3.922,4.259,6.009,6.009,0,0,1-1.5,5.594,7.221,7.221,0,0,1-3.87,2.215c-.647.139-.853.414-.793,1.052a16.721,16.721,0,0,1,.008,1.874,1.014,1.014,0,0,1-.284.822,1.013,1.013,0,0,1-.816.3c-2.509.027-2.8.208-2.63-2.408.075-1.145-.289-1.508-1.4-1.762a6.412,6.412,0,0,1-5.057-4.963c-.33-1.29-.031-1.66,1.331-1.667Z" transform="translate(2262.212 -915.611)" fill="#fefefe"/>
        <path id="Path_76612" data-name="Path 76612" d="M-2208.225,932.483a22.3,22.3,0,0,1-14.881,20.94c-1.4.491-1.719.2-1.854-1.24-.146-1.53.448-2.247,1.861-2.844A18.065,18.065,0,0,0-2212.02,932.2c-.253-7.946-4.192-13.554-11.418-16.844a2.812,2.812,0,0,1-1.4-3.629c.325-.643.857-.566,1.442-.369a22.133,22.133,0,0,1,8.7,5.417,22.227,22.227,0,0,1,6.471,15.71Z" transform="translate(2252.694 -911.216)" fill="#fefefe"/>
        <path id="Path_76613" data-name="Path 76613" d="M-2271.739,931.39c.018-8.37,5.955-16.763,14.8-19.907,1.522-.541,1.792-.275,1.922,1.325.119,1.464-.453,2.142-1.785,2.708a18.314,18.314,0,0,0-11.177,17.108,18.466,18.466,0,0,0,11.585,16.96,2.858,2.858,0,0,1,1.234,3.62c-.366.619-.909.481-1.478.288A21.876,21.876,0,0,1-2268,944.768C-2270.513,941.044-2271.728,936.9-2271.739,931.39Z" transform="translate(2271.739 -911.221)" fill="#fefefe"/>
      </g>
    </g>
  </g>
</svg>
